%TF.GenerationSoftware,KiCad,Pcbnew,(6.0.1)*%
%TF.CreationDate,2023-02-18T22:08:36-08:00*%
%TF.ProjectId,pipes,70697065-732e-46b6-9963-61645f706362,rev?*%
%TF.SameCoordinates,Original*%
%TF.FileFunction,Soldermask,Top*%
%TF.FilePolarity,Negative*%
%FSLAX46Y46*%
G04 Gerber Fmt 4.6, Leading zero omitted, Abs format (unit mm)*
G04 Created by KiCad (PCBNEW (6.0.1)) date 2023-02-18 22:08:36*
%MOMM*%
%LPD*%
G01*
G04 APERTURE LIST*
G04 Aperture macros list*
%AMRoundRect*
0 Rectangle with rounded corners*
0 $1 Rounding radius*
0 $2 $3 $4 $5 $6 $7 $8 $9 X,Y pos of 4 corners*
0 Add a 4 corners polygon primitive as box body*
4,1,4,$2,$3,$4,$5,$6,$7,$8,$9,$2,$3,0*
0 Add four circle primitives for the rounded corners*
1,1,$1+$1,$2,$3*
1,1,$1+$1,$4,$5*
1,1,$1+$1,$6,$7*
1,1,$1+$1,$8,$9*
0 Add four rect primitives between the rounded corners*
20,1,$1+$1,$2,$3,$4,$5,0*
20,1,$1+$1,$4,$5,$6,$7,0*
20,1,$1+$1,$6,$7,$8,$9,0*
20,1,$1+$1,$8,$9,$2,$3,0*%
G04 Aperture macros list end*
%ADD10RoundRect,0.287500X-0.287500X-0.287500X0.287500X-0.287500X0.287500X0.287500X-0.287500X0.287500X0*%
%ADD11C,1.150000*%
%ADD12C,2.500000*%
%ADD13C,4.000000*%
%ADD14C,1.800000*%
%ADD15C,2.250000*%
%ADD16O,2.600000X1.600000*%
%ADD17C,1.600000*%
%ADD18C,2.800000*%
%ADD19R,1.700000X1.700000*%
%ADD20O,1.700000X1.700000*%
G04 APERTURE END LIST*
D10*
%TO.C,U26*%
X58170000Y-124600000D03*
D11*
X58170000Y-128400000D03*
X73170000Y-123960000D03*
X73170000Y-129040000D03*
%TD*%
D12*
%TO.C,H2*%
X96400000Y-43000000D03*
%TD*%
D10*
%TO.C,U27*%
X58170000Y-86600000D03*
D11*
X58170000Y-90400000D03*
X73170000Y-85960000D03*
X73170000Y-91040000D03*
%TD*%
D10*
%TO.C,U21*%
X58170000Y-74600000D03*
D11*
X58170000Y-78400000D03*
X73170000Y-73960000D03*
X73170000Y-79040000D03*
%TD*%
D10*
%TO.C,U22*%
X58170000Y-50600000D03*
D11*
X58170000Y-54400000D03*
X73170000Y-49960000D03*
X73170000Y-55040000D03*
%TD*%
D13*
%TO.C,RV1*%
X94420000Y-101030000D03*
X85620000Y-101030000D03*
D14*
X92520000Y-108030000D03*
X90020000Y-108030000D03*
X87520000Y-108030000D03*
%TD*%
D10*
%TO.C,U20*%
X58170000Y-112600000D03*
D11*
X58170000Y-116400000D03*
X73170000Y-111960000D03*
X73170000Y-117040000D03*
%TD*%
D15*
%TO.C,J9*%
X46670000Y-88850000D03*
X55570000Y-88850000D03*
X48820000Y-87350000D03*
X53270000Y-87350000D03*
D16*
X54410000Y-91400000D03*
D17*
X47730000Y-91400000D03*
%TD*%
D10*
%TO.C,U28*%
X58170000Y-62600000D03*
D11*
X58170000Y-66400000D03*
X73170000Y-61960000D03*
X73170000Y-67040000D03*
%TD*%
D12*
%TO.C,H1*%
X44000000Y-43000000D03*
%TD*%
D10*
%TO.C,U33*%
X58170000Y-100600000D03*
D11*
X58170000Y-104400000D03*
X73170000Y-99960000D03*
X73170000Y-105040000D03*
%TD*%
D12*
%TO.C,H3*%
X96400000Y-147000000D03*
%TD*%
D10*
%TO.C,U32*%
X58170000Y-136600000D03*
D11*
X58170000Y-140400000D03*
X73170000Y-135960000D03*
X73170000Y-141040000D03*
%TD*%
D15*
%TO.C,J7*%
X46670000Y-52850000D03*
X55570000Y-52850000D03*
X48820000Y-51350000D03*
X53270000Y-51350000D03*
D16*
X54410000Y-55400000D03*
D17*
X47730000Y-55400000D03*
%TD*%
D12*
%TO.C,H4*%
X44000000Y-147000000D03*
%TD*%
D15*
%TO.C,J12*%
X46670000Y-102850000D03*
X55570000Y-102850000D03*
X48820000Y-101350000D03*
X53270000Y-101350000D03*
D16*
X54410000Y-105400000D03*
D17*
X47730000Y-105400000D03*
%TD*%
D15*
%TO.C,J5*%
X46670000Y-114850000D03*
X55570000Y-114850000D03*
X48820000Y-113350000D03*
X53270000Y-113350000D03*
D16*
X54410000Y-117400000D03*
D17*
X47730000Y-117400000D03*
%TD*%
D15*
%TO.C,J10*%
X46670000Y-64850000D03*
X55570000Y-64850000D03*
X48820000Y-63350000D03*
X53270000Y-63350000D03*
D16*
X54410000Y-67400000D03*
D17*
X47730000Y-67400000D03*
%TD*%
D15*
%TO.C,J4*%
X87320000Y-126850000D03*
X96220000Y-126850000D03*
X89470000Y-125350000D03*
X93920000Y-125350000D03*
D16*
X95060000Y-129400000D03*
D17*
X88380000Y-129400000D03*
%TD*%
D15*
%TO.C,J11*%
X46670000Y-138850000D03*
X55570000Y-138850000D03*
X48820000Y-137350000D03*
X53270000Y-137350000D03*
D16*
X54410000Y-141400000D03*
D17*
X47730000Y-141400000D03*
%TD*%
D15*
%TO.C,J1*%
X87320000Y-64850000D03*
X96220000Y-64850000D03*
X89470000Y-63350000D03*
X93920000Y-63350000D03*
D16*
X95060000Y-67400000D03*
D17*
X88380000Y-67400000D03*
%TD*%
D15*
%TO.C,J8*%
X46670000Y-126850000D03*
X55570000Y-126850000D03*
X48820000Y-125350000D03*
X53270000Y-125350000D03*
D16*
X54410000Y-129400000D03*
D17*
X47730000Y-129400000D03*
%TD*%
D15*
%TO.C,J6*%
X46670000Y-76850000D03*
X55570000Y-76850000D03*
X48820000Y-75350000D03*
X53270000Y-75350000D03*
D16*
X54410000Y-79400000D03*
D17*
X47730000Y-79400000D03*
%TD*%
D18*
%TO.C,TP1*%
X88170000Y-146950000D03*
%TD*%
%TO.C,TP2*%
X53230000Y-146950000D03*
%TD*%
D19*
%TO.C,J2*%
X97085000Y-71635000D03*
D20*
X94545000Y-71635000D03*
X97085000Y-74175000D03*
X94545000Y-74175000D03*
X97085000Y-76715000D03*
X94545000Y-76715000D03*
X97085000Y-79255000D03*
X94545000Y-79255000D03*
X97085000Y-81795000D03*
X94545000Y-81795000D03*
%TD*%
M02*
