%TF.GenerationSoftware,KiCad,Pcbnew,(6.0.1)*%
%TF.CreationDate,2023-02-18T22:08:36-08:00*%
%TF.ProjectId,pipes,70697065-732e-46b6-9963-61645f706362,rev?*%
%TF.SameCoordinates,Original*%
%TF.FileFunction,Copper,L2,Inr*%
%TF.FilePolarity,Positive*%
%FSLAX46Y46*%
G04 Gerber Fmt 4.6, Leading zero omitted, Abs format (unit mm)*
G04 Created by KiCad (PCBNEW (6.0.1)) date 2023-02-18 22:08:36*
%MOMM*%
%LPD*%
G01*
G04 APERTURE LIST*
G04 Aperture macros list*
%AMRoundRect*
0 Rectangle with rounded corners*
0 $1 Rounding radius*
0 $2 $3 $4 $5 $6 $7 $8 $9 X,Y pos of 4 corners*
0 Add a 4 corners polygon primitive as box body*
4,1,4,$2,$3,$4,$5,$6,$7,$8,$9,$2,$3,0*
0 Add four circle primitives for the rounded corners*
1,1,$1+$1,$2,$3*
1,1,$1+$1,$4,$5*
1,1,$1+$1,$6,$7*
1,1,$1+$1,$8,$9*
0 Add four rect primitives between the rounded corners*
20,1,$1+$1,$2,$3,$4,$5,0*
20,1,$1+$1,$4,$5,$6,$7,0*
20,1,$1+$1,$6,$7,$8,$9,0*
20,1,$1+$1,$8,$9,$2,$3,0*%
G04 Aperture macros list end*
%TA.AperFunction,ComponentPad*%
%ADD10RoundRect,0.287500X-0.287500X-0.287500X0.287500X-0.287500X0.287500X0.287500X-0.287500X0.287500X0*%
%TD*%
%TA.AperFunction,ComponentPad*%
%ADD11C,1.150000*%
%TD*%
%TA.AperFunction,WasherPad*%
%ADD12C,4.000000*%
%TD*%
%TA.AperFunction,ComponentPad*%
%ADD13C,1.800000*%
%TD*%
%TA.AperFunction,ComponentPad*%
%ADD14C,2.250000*%
%TD*%
%TA.AperFunction,ComponentPad*%
%ADD15O,2.600000X1.600000*%
%TD*%
%TA.AperFunction,ComponentPad*%
%ADD16C,1.600000*%
%TD*%
%TA.AperFunction,ComponentPad*%
%ADD17C,2.800000*%
%TD*%
%TA.AperFunction,ComponentPad*%
%ADD18R,1.700000X1.700000*%
%TD*%
%TA.AperFunction,ComponentPad*%
%ADD19O,1.700000X1.700000*%
%TD*%
%TA.AperFunction,ViaPad*%
%ADD20C,0.400000*%
%TD*%
%TA.AperFunction,ViaPad*%
%ADD21C,0.800000*%
%TD*%
%TA.AperFunction,ViaPad*%
%ADD22C,0.450000*%
%TD*%
%TA.AperFunction,Conductor*%
%ADD23C,0.600000*%
%TD*%
%TA.AperFunction,Conductor*%
%ADD24C,0.200000*%
%TD*%
%TA.AperFunction,Conductor*%
%ADD25C,0.120000*%
%TD*%
G04 APERTURE END LIST*
D10*
%TO.N,Net-(U26-Pad1)*%
%TO.C,U26*%
X58170000Y-124600000D03*
D11*
%TO.N,Net-(R54-Pad1)*%
X58170000Y-128400000D03*
%TO.N,Net-(R59-Pad2)*%
X73170000Y-123960000D03*
%TO.N,Net-(R53-Pad2)*%
X73170000Y-129040000D03*
%TD*%
D10*
%TO.N,Net-(U27-Pad1)*%
%TO.C,U27*%
X58170000Y-86600000D03*
D11*
%TO.N,Net-(R56-Pad1)*%
X58170000Y-90400000D03*
%TO.N,Net-(R60-Pad2)*%
X73170000Y-85960000D03*
%TO.N,Net-(R55-Pad2)*%
X73170000Y-91040000D03*
%TD*%
D10*
%TO.N,Net-(U21-Pad1)*%
%TO.C,U21*%
X58170000Y-74600000D03*
D11*
%TO.N,Net-(R47-Pad1)*%
X58170000Y-78400000D03*
%TO.N,Net-(R51-Pad2)*%
X73170000Y-73960000D03*
%TO.N,Net-(R46-Pad2)*%
X73170000Y-79040000D03*
%TD*%
D10*
%TO.N,Net-(U22-Pad1)*%
%TO.C,U22*%
X58170000Y-50600000D03*
D11*
%TO.N,Net-(R49-Pad1)*%
X58170000Y-54400000D03*
%TO.N,Net-(R52-Pad2)*%
X73170000Y-49960000D03*
%TO.N,Net-(R48-Pad2)*%
X73170000Y-55040000D03*
%TD*%
D12*
%TO.N,*%
%TO.C,RV1*%
X94420000Y-101030000D03*
X85620000Y-101030000D03*
D13*
%TO.N,unconnected-(RV1-Pad1)*%
X92520000Y-108030000D03*
%TO.N,Net-(R68-Pad2)*%
X90020000Y-108030000D03*
%TO.N,Net-(R10-Pad1)*%
X87520000Y-108030000D03*
%TD*%
D10*
%TO.N,Net-(U20-Pad1)*%
%TO.C,U20*%
X58170000Y-112600000D03*
D11*
%TO.N,Net-(R45-Pad1)*%
X58170000Y-116400000D03*
%TO.N,Net-(R50-Pad2)*%
X73170000Y-111960000D03*
%TO.N,Net-(R44-Pad2)*%
X73170000Y-117040000D03*
%TD*%
D14*
%TO.N,GND*%
%TO.C,J9*%
X46670000Y-88850000D03*
%TO.N,Net-(J9-Pad2)*%
X55570000Y-88850000D03*
%TO.N,GND*%
X48820000Y-87350000D03*
X53270000Y-87350000D03*
D15*
%TO.N,N/C*%
X54410000Y-91400000D03*
D16*
X47730000Y-91400000D03*
%TD*%
D10*
%TO.N,Net-(U28-Pad1)*%
%TO.C,U28*%
X58170000Y-62600000D03*
D11*
%TO.N,Net-(R58-Pad1)*%
X58170000Y-66400000D03*
%TO.N,Net-(R61-Pad2)*%
X73170000Y-61960000D03*
%TO.N,Net-(R57-Pad2)*%
X73170000Y-67040000D03*
%TD*%
D10*
%TO.N,Net-(U33-Pad1)*%
%TO.C,U33*%
X58170000Y-100600000D03*
D11*
%TO.N,Net-(R65-Pad1)*%
X58170000Y-104400000D03*
%TO.N,Net-(R67-Pad2)*%
X73170000Y-99960000D03*
%TO.N,Net-(R64-Pad2)*%
X73170000Y-105040000D03*
%TD*%
D10*
%TO.N,Net-(U32-Pad1)*%
%TO.C,U32*%
X58170000Y-136600000D03*
D11*
%TO.N,Net-(R63-Pad1)*%
X58170000Y-140400000D03*
%TO.N,Net-(R66-Pad2)*%
X73170000Y-135960000D03*
%TO.N,Net-(R62-Pad2)*%
X73170000Y-141040000D03*
%TD*%
D14*
%TO.N,GND*%
%TO.C,J7*%
X46670000Y-52850000D03*
%TO.N,Net-(J7-Pad2)*%
X55570000Y-52850000D03*
%TO.N,GND*%
X48820000Y-51350000D03*
X53270000Y-51350000D03*
D15*
%TO.N,N/C*%
X54410000Y-55400000D03*
D16*
X47730000Y-55400000D03*
%TD*%
D14*
%TO.N,GND*%
%TO.C,J12*%
X46670000Y-102850000D03*
%TO.N,Net-(J12-Pad2)*%
X55570000Y-102850000D03*
%TO.N,GND*%
X48820000Y-101350000D03*
X53270000Y-101350000D03*
D15*
%TO.N,N/C*%
X54410000Y-105400000D03*
D16*
X47730000Y-105400000D03*
%TD*%
D14*
%TO.N,GND*%
%TO.C,J5*%
X46670000Y-114850000D03*
%TO.N,Net-(J5-Pad2)*%
X55570000Y-114850000D03*
%TO.N,GND*%
X48820000Y-113350000D03*
X53270000Y-113350000D03*
D15*
%TO.N,N/C*%
X54410000Y-117400000D03*
D16*
X47730000Y-117400000D03*
%TD*%
D14*
%TO.N,GND*%
%TO.C,J10*%
X46670000Y-64850000D03*
%TO.N,Net-(J10-Pad2)*%
X55570000Y-64850000D03*
%TO.N,GND*%
X48820000Y-63350000D03*
X53270000Y-63350000D03*
D15*
%TO.N,N/C*%
X54410000Y-67400000D03*
D16*
X47730000Y-67400000D03*
%TD*%
D14*
%TO.N,GND*%
%TO.C,J4*%
X87320000Y-126850000D03*
%TO.N,Net-(J4-Pad2)*%
X96220000Y-126850000D03*
%TO.N,GND*%
X89470000Y-125350000D03*
%TO.N,unconnected-(J4-Pad4)*%
X93920000Y-125350000D03*
D15*
%TO.N,N/C*%
X95060000Y-129400000D03*
D16*
X88380000Y-129400000D03*
%TD*%
D14*
%TO.N,GND*%
%TO.C,J11*%
X46670000Y-138850000D03*
%TO.N,Net-(J11-Pad2)*%
X55570000Y-138850000D03*
%TO.N,GND*%
X48820000Y-137350000D03*
X53270000Y-137350000D03*
D15*
%TO.N,N/C*%
X54410000Y-141400000D03*
D16*
X47730000Y-141400000D03*
%TD*%
D14*
%TO.N,GND*%
%TO.C,J1*%
X87320000Y-64850000D03*
%TO.N,Net-(J1-Pad2)*%
X96220000Y-64850000D03*
%TO.N,GND*%
X89470000Y-63350000D03*
X93920000Y-63350000D03*
D15*
%TO.N,N/C*%
X95060000Y-67400000D03*
D16*
X88380000Y-67400000D03*
%TD*%
D14*
%TO.N,GND*%
%TO.C,J8*%
X46670000Y-126850000D03*
%TO.N,Net-(J8-Pad2)*%
X55570000Y-126850000D03*
%TO.N,GND*%
X48820000Y-125350000D03*
X53270000Y-125350000D03*
D15*
%TO.N,N/C*%
X54410000Y-129400000D03*
D16*
X47730000Y-129400000D03*
%TD*%
D14*
%TO.N,GND*%
%TO.C,J6*%
X46670000Y-76850000D03*
%TO.N,Net-(J6-Pad2)*%
X55570000Y-76850000D03*
%TO.N,GND*%
X48820000Y-75350000D03*
X53270000Y-75350000D03*
D15*
%TO.N,N/C*%
X54410000Y-79400000D03*
D16*
X47730000Y-79400000D03*
%TD*%
D17*
%TO.N,GND*%
%TO.C,TP1*%
X88170000Y-146950000D03*
%TD*%
%TO.N,GND*%
%TO.C,TP2*%
X53230000Y-146950000D03*
%TD*%
D18*
%TO.N,Net-(D3-Pad1)*%
%TO.C,J2*%
X97085000Y-71635000D03*
D19*
X94545000Y-71635000D03*
%TO.N,GND*%
X97085000Y-74175000D03*
X94545000Y-74175000D03*
X97085000Y-76715000D03*
X94545000Y-76715000D03*
X97085000Y-79255000D03*
X94545000Y-79255000D03*
%TO.N,Net-(D4-Pad2)*%
X97085000Y-81795000D03*
X94545000Y-81795000D03*
%TD*%
D20*
%TO.N,Net-(J7-Pad2)*%
X50890000Y-47210000D03*
%TO.N,Net-(U22-Pad1)*%
X47764520Y-46435480D03*
%TO.N,Net-(U3-Pad1)*%
X83200000Y-87700000D03*
X91181250Y-87681250D03*
X77200000Y-83700000D03*
%TO.N,Net-(Q1-Pad1)*%
X87800000Y-91000000D03*
X87800000Y-84900000D03*
D21*
%TO.N,+12V*%
X98400000Y-85600000D03*
D22*
X42692520Y-70647480D03*
X42295000Y-45675000D03*
X42740000Y-120090000D03*
X89827500Y-80447500D03*
X86775000Y-50415000D03*
X42900000Y-95870000D03*
D20*
X85347500Y-109277500D03*
D22*
X42690000Y-108120000D03*
X97170000Y-54480000D03*
X42860000Y-132050000D03*
D20*
X85660000Y-82240000D03*
D22*
X42550000Y-82240000D03*
X42985000Y-59355000D03*
%TO.N,-12V*%
X44980000Y-75060000D03*
X44940000Y-101130000D03*
X91151250Y-59848750D03*
X44980000Y-81310000D03*
X89592500Y-70327500D03*
D20*
X47860000Y-89990000D03*
X44940000Y-104470000D03*
D22*
X90600000Y-77820000D03*
X91151250Y-55661250D03*
X44950000Y-87110000D03*
D20*
X44940000Y-121180000D03*
X44960000Y-116460000D03*
D22*
X93845000Y-115405000D03*
D20*
X44950000Y-90530000D03*
X52600000Y-121170000D03*
X48010000Y-116030000D03*
D22*
X44940000Y-113130000D03*
X44985000Y-50355000D03*
X44940000Y-125220000D03*
X44940000Y-137160000D03*
X44985000Y-63185000D03*
D20*
X47950000Y-104030000D03*
D22*
X98430000Y-59730000D03*
D20*
%TO.N,+5V*%
X73407500Y-46802500D03*
X77115000Y-73055000D03*
X76850000Y-112040000D03*
X63720000Y-87740000D03*
X63815000Y-138705000D03*
X77030000Y-136550000D03*
D21*
X75640000Y-98030000D03*
D20*
X63835000Y-101125000D03*
X77115000Y-85555000D03*
X84670000Y-43880000D03*
X63885000Y-126205000D03*
X63925000Y-113725000D03*
X76995000Y-60555000D03*
X63805000Y-50345000D03*
X77075000Y-124035000D03*
X63675000Y-75225000D03*
D21*
X83050000Y-92760000D03*
D20*
X63785000Y-62725000D03*
%TO.N,Net-(C13-Pad1)*%
X96220000Y-118350000D03*
X94173750Y-110266250D03*
%TO.N,Net-(J5-Pad2)*%
X51050000Y-110600000D03*
%TO.N,Net-(J6-Pad2)*%
X50970000Y-72520000D03*
%TO.N,Net-(J8-Pad2)*%
X51150000Y-123150000D03*
%TO.N,Net-(J9-Pad2)*%
X50900000Y-84590000D03*
%TO.N,Net-(J10-Pad2)*%
X51270000Y-59960000D03*
%TO.N,Net-(J11-Pad2)*%
X51580000Y-135150000D03*
%TO.N,Net-(J12-Pad2)*%
X51080000Y-98580000D03*
%TO.N,Clk*%
X63805000Y-140005000D03*
X63775000Y-76525000D03*
X63715000Y-51645000D03*
X63735000Y-89025000D03*
X63795000Y-115025000D03*
X87780000Y-43880000D03*
X63715000Y-127505000D03*
X63755000Y-64025000D03*
X63775000Y-102425000D03*
%TO.N,VCO1*%
X78700000Y-112690000D03*
X41240000Y-55580000D03*
X78630000Y-57670000D03*
%TO.N,VCO2*%
X78425480Y-114035480D03*
X41250000Y-68430000D03*
X78160479Y-68569521D03*
D22*
%TO.N,VCO3*%
X77665000Y-80475000D03*
X77795480Y-115305480D03*
X41310000Y-80200000D03*
D20*
%TO.N,VCO4*%
X87030000Y-94400000D03*
X41280000Y-92220000D03*
X86990000Y-117920000D03*
%TO.N,VCO5*%
X88570000Y-117920000D03*
X41270000Y-106300000D03*
X88680480Y-106569520D03*
%TO.N,VCO6*%
X90160000Y-117900000D03*
X41320000Y-118240000D03*
%TO.N,VCO7*%
X91700000Y-119490000D03*
X43445000Y-122625000D03*
%TO.N,VCO8*%
X93175000Y-134615000D03*
X93280000Y-119490000D03*
X42965000Y-134615000D03*
%TO.N,Net-(R45-Pad1)*%
X47730000Y-110600000D03*
%TO.N,Net-(R47-Pad1)*%
X49220000Y-72520000D03*
D22*
%TO.N,Net-(R49-Pad1)*%
X49121069Y-47778931D03*
D20*
%TO.N,Net-(R50-Pad2)*%
X43795000Y-111855000D03*
X44140000Y-116640000D03*
%TO.N,Net-(R51-Pad2)*%
X44140000Y-78570000D03*
X44140000Y-73750000D03*
D22*
%TO.N,Net-(R52-Pad2)*%
X42339511Y-56740489D03*
X43670000Y-49090000D03*
X42310359Y-49629641D03*
D20*
%TO.N,Net-(R54-Pad1)*%
X49100000Y-123180000D03*
%TO.N,Net-(R56-Pad1)*%
X47720000Y-84590000D03*
%TO.N,Net-(R58-Pad1)*%
X47707500Y-60047500D03*
%TO.N,Net-(R59-Pad2)*%
X44340000Y-128700000D03*
X43415000Y-123895000D03*
%TO.N,Net-(R60-Pad2)*%
X44210000Y-90760000D03*
X44260000Y-85720000D03*
%TO.N,Net-(R61-Pad2)*%
X44120000Y-66750000D03*
X44180000Y-61760000D03*
%TO.N,Net-(R63-Pad1)*%
X49220000Y-135140000D03*
%TO.N,Net-(R65-Pad1)*%
X47705000Y-98585000D03*
%TO.N,Net-(R66-Pad2)*%
X42990000Y-135880000D03*
X44280000Y-140650000D03*
%TO.N,Net-(R67-Pad2)*%
X43815000Y-99855000D03*
X44330000Y-104680000D03*
%TO.N,{slash}6*%
X79235000Y-117135000D03*
X79175000Y-113325000D03*
%TO.N,{slash}3*%
X79200000Y-80300000D03*
X77575000Y-74325000D03*
%TO.N,Net-(R68-Pad2)*%
X92485000Y-111035000D03*
%TO.N,Net-(U4-Pad3)*%
X78600000Y-114700000D03*
X69575000Y-115025000D03*
%TO.N,Net-(U5-Pad3)*%
X71775480Y-74924520D03*
X79275480Y-74924520D03*
%TO.N,{slash}4*%
X76975000Y-93175000D03*
X76975000Y-86825000D03*
%TO.N,{slash}7*%
X76895000Y-125305000D03*
X79300000Y-130400000D03*
X79195000Y-125305000D03*
%TO.N,Net-(U10-Pad3)*%
X79205000Y-88095000D03*
X69575000Y-89025000D03*
%TO.N,Net-(U11-Pad3)*%
X69450000Y-64030000D03*
X79395000Y-63095000D03*
%TO.N,Net-(U12-Pad3)*%
X70046891Y-126646891D03*
X78600000Y-126575000D03*
%TO.N,{slash}8*%
X76995000Y-137805000D03*
X76975000Y-145425000D03*
%TO.N,Net-(U16-Pad3)*%
X79225000Y-139075000D03*
X67405000Y-140005000D03*
%TO.N,Net-(U17-Pad3)*%
X69475000Y-102425000D03*
X79305000Y-101495000D03*
%TO.N,Net-(U20-Pad1)*%
X47785000Y-109315000D03*
%TO.N,Net-(U21-Pad1)*%
X47593000Y-71247000D03*
%TO.N,Net-(U26-Pad1)*%
X47630000Y-121790000D03*
%TO.N,Net-(U27-Pad1)*%
X47860000Y-83440000D03*
%TO.N,Net-(U28-Pad1)*%
X47585000Y-59355000D03*
%TO.N,Net-(U32-Pad1)*%
X47715000Y-133345000D03*
%TO.N,Net-(U33-Pad1)*%
X47825000Y-97315000D03*
%TO.N,Net-(R10-Pad1)*%
X85495000Y-111665000D03*
X90140000Y-116240000D03*
X91230000Y-112890000D03*
%TD*%
D23*
%TO.N,+12V*%
X88035000Y-82240000D02*
X85660000Y-82240000D01*
X89827500Y-80447500D02*
X88035000Y-82240000D01*
X85660000Y-82240000D02*
X42550000Y-82240000D01*
D24*
%TO.N,-12V*%
X47260053Y-104274511D02*
X45135489Y-104274511D01*
X47950000Y-104030000D02*
X47749521Y-104230479D01*
X47619521Y-90230479D02*
X47304085Y-90230479D01*
X47260053Y-90274511D02*
X45205489Y-90274511D01*
X44960000Y-116460000D02*
X45305489Y-116274511D01*
D23*
X44980000Y-81310000D02*
X87110000Y-81310000D01*
D24*
X45305489Y-116274511D02*
X47345489Y-116274511D01*
X47304085Y-104230479D02*
X47260053Y-104274511D01*
X47345489Y-116274511D02*
X47590000Y-116030000D01*
X45205489Y-90274511D02*
X44950000Y-90530000D01*
X47860000Y-89990000D02*
X47619521Y-90230479D01*
X47590000Y-116030000D02*
X48010000Y-116030000D01*
D23*
X87110000Y-81310000D02*
X90600000Y-77820000D01*
D24*
X52600000Y-121170000D02*
X44930000Y-121170000D01*
X47304085Y-90230479D02*
X47260053Y-90274511D01*
X45135489Y-104274511D02*
X44940000Y-104470000D01*
X47749521Y-104230479D02*
X47304085Y-104230479D01*
%TO.N,VCO1*%
X46256046Y-55580000D02*
X48346046Y-57670000D01*
X41240000Y-55580000D02*
X46256046Y-55580000D01*
X48346046Y-57670000D02*
X78630000Y-57670000D01*
%TO.N,VCO2*%
X41250000Y-68430000D02*
X41389521Y-68569521D01*
X41389521Y-68569521D02*
X78160479Y-68569521D01*
D25*
%TO.N,VCO3*%
X77429520Y-80710480D02*
X77665000Y-80475000D01*
X41820480Y-80710480D02*
X77429520Y-80710480D01*
X41310000Y-80200000D02*
X41820480Y-80710480D01*
D24*
%TO.N,VCO4*%
X41280000Y-92220000D02*
X43460000Y-94400000D01*
X43460000Y-94400000D02*
X87030000Y-94400000D01*
%TO.N,VCO5*%
X41539520Y-106569520D02*
X88680480Y-106569520D01*
X41270000Y-106300000D02*
X41539520Y-106569520D01*
%TO.N,VCO6*%
X41320000Y-118240000D02*
X41929511Y-118849511D01*
X89430489Y-118849511D02*
X90160000Y-117900000D01*
X41929511Y-118849511D02*
X89430489Y-118849511D01*
%TO.N,VCO7*%
X43445000Y-122625000D02*
X88565000Y-122625000D01*
X88565000Y-122625000D02*
X91700000Y-119490000D01*
%TO.N,VCO8*%
X42965000Y-134615000D02*
X93175000Y-134615000D01*
%TO.N,Net-(R50-Pad2)*%
X43924520Y-111725480D02*
X72935480Y-111725480D01*
X43795000Y-111855000D02*
X43924520Y-111725480D01*
X72935480Y-111725480D02*
X73170000Y-111960000D01*
%TO.N,Net-(R51-Pad2)*%
X72935480Y-73725480D02*
X73170000Y-73960000D01*
X44164520Y-73725480D02*
X72935480Y-73725480D01*
X44140000Y-73750000D02*
X44164520Y-73725480D01*
%TO.N,Net-(R52-Pad2)*%
X59834511Y-50844511D02*
X58080000Y-49090000D01*
X58080000Y-49090000D02*
X43670000Y-49090000D01*
X73170000Y-49960000D02*
X72285489Y-50844511D01*
X72285489Y-50844511D02*
X59834511Y-50844511D01*
%TO.N,Net-(R59-Pad2)*%
X43415000Y-123895000D02*
X43584520Y-123725480D01*
X43584520Y-123725480D02*
X72935480Y-123725480D01*
X72935480Y-123725480D02*
X73170000Y-123960000D01*
%TO.N,Net-(R60-Pad2)*%
X72935480Y-85725480D02*
X73170000Y-85960000D01*
X44260000Y-85720000D02*
X72935480Y-85725480D01*
D25*
%TO.N,Net-(R61-Pad2)*%
X72975480Y-61765480D02*
X73170000Y-61960000D01*
X44180000Y-61760000D02*
X72975480Y-61765480D01*
D24*
%TO.N,Net-(R66-Pad2)*%
X72935480Y-135725480D02*
X73170000Y-135960000D01*
X42990000Y-135880000D02*
X43144520Y-135725480D01*
X43144520Y-135725480D02*
X72935480Y-135725480D01*
%TO.N,Net-(R67-Pad2)*%
X43815000Y-99855000D02*
X44284999Y-99385001D01*
X44284999Y-99385001D02*
X72595001Y-99385001D01*
X72595001Y-99385001D02*
X73170000Y-99960000D01*
%TO.N,Net-(U4-Pad3)*%
X69900000Y-114700000D02*
X78600000Y-114700000D01*
X69575000Y-115025000D02*
X69900000Y-114700000D01*
%TO.N,Net-(U5-Pad3)*%
X71775480Y-74924520D02*
X79275480Y-74924520D01*
%TO.N,{slash}7*%
X76895000Y-125305000D02*
X79195000Y-125305000D01*
%TO.N,Net-(U10-Pad3)*%
X70505000Y-88095000D02*
X79205000Y-88095000D01*
X69575000Y-89025000D02*
X70505000Y-88095000D01*
%TO.N,Net-(U12-Pad3)*%
X78528109Y-126646891D02*
X78600000Y-126575000D01*
X70046891Y-126646891D02*
X78528109Y-126646891D01*
%TO.N,Net-(U16-Pad3)*%
X67405000Y-140005000D02*
X78295000Y-140005000D01*
X78295000Y-140005000D02*
X79225000Y-139075000D01*
%TO.N,Net-(U17-Pad3)*%
X78375000Y-102425000D02*
X79305000Y-101495000D01*
X69475000Y-102425000D02*
X78375000Y-102425000D01*
%TD*%
M02*
