%TF.GenerationSoftware,KiCad,Pcbnew,(6.0.1)*%
%TF.CreationDate,2023-02-18T17:41:42-08:00*%
%TF.ProjectId,pipes,70697065-732e-46b6-9963-61645f706362,rev?*%
%TF.SameCoordinates,Original*%
%TF.FileFunction,Legend,Top*%
%TF.FilePolarity,Positive*%
%FSLAX46Y46*%
G04 Gerber Fmt 4.6, Leading zero omitted, Abs format (unit mm)*
G04 Created by KiCad (PCBNEW (6.0.1)) date 2023-02-18 17:41:42*
%MOMM*%
%LPD*%
G01*
G04 APERTURE LIST*
%ADD10C,0.150000*%
%ADD11C,0.300000*%
%ADD12C,0.120000*%
G04 APERTURE END LIST*
D10*
X77171428Y-44385714D02*
X77409523Y-45052380D01*
X77647619Y-44385714D01*
X78552380Y-45052380D02*
X77980952Y-45052380D01*
X78266666Y-45052380D02*
X78266666Y-44052380D01*
X78171428Y-44195238D01*
X78076190Y-44290476D01*
X77980952Y-44338095D01*
X78980952Y-44957142D02*
X79028571Y-45004761D01*
X78980952Y-45052380D01*
X78933333Y-45004761D01*
X78980952Y-44957142D01*
X78980952Y-45052380D01*
X79647619Y-44052380D02*
X79742857Y-44052380D01*
X79838095Y-44100000D01*
X79885714Y-44147619D01*
X79933333Y-44242857D01*
X79980952Y-44433333D01*
X79980952Y-44671428D01*
X79933333Y-44861904D01*
X79885714Y-44957142D01*
X79838095Y-45004761D01*
X79742857Y-45052380D01*
X79647619Y-45052380D01*
X79552380Y-45004761D01*
X79504761Y-44957142D01*
X79457142Y-44861904D01*
X79409523Y-44671428D01*
X79409523Y-44433333D01*
X79457142Y-44242857D01*
X79504761Y-44147619D01*
X79552380Y-44100000D01*
X79647619Y-44052380D01*
D11*
X67707142Y-43378571D02*
X67707142Y-43664285D01*
X68278571Y-43378571D02*
X68278571Y-43664285D01*
X68921428Y-44878571D02*
X68921428Y-43378571D01*
X69492857Y-43378571D01*
X69635714Y-43450000D01*
X69707142Y-43521428D01*
X69778571Y-43664285D01*
X69778571Y-43878571D01*
X69707142Y-44021428D01*
X69635714Y-44092857D01*
X69492857Y-44164285D01*
X68921428Y-44164285D01*
X70421428Y-44878571D02*
X70421428Y-43878571D01*
X70421428Y-43378571D02*
X70350000Y-43450000D01*
X70421428Y-43521428D01*
X70492857Y-43450000D01*
X70421428Y-43378571D01*
X70421428Y-43521428D01*
X71135714Y-43878571D02*
X71135714Y-45378571D01*
X71135714Y-43950000D02*
X71278571Y-43878571D01*
X71564285Y-43878571D01*
X71707142Y-43950000D01*
X71778571Y-44021428D01*
X71850000Y-44164285D01*
X71850000Y-44592857D01*
X71778571Y-44735714D01*
X71707142Y-44807142D01*
X71564285Y-44878571D01*
X71278571Y-44878571D01*
X71135714Y-44807142D01*
X73064285Y-44807142D02*
X72921428Y-44878571D01*
X72635714Y-44878571D01*
X72492857Y-44807142D01*
X72421428Y-44664285D01*
X72421428Y-44092857D01*
X72492857Y-43950000D01*
X72635714Y-43878571D01*
X72921428Y-43878571D01*
X73064285Y-43950000D01*
X73135714Y-44092857D01*
X73135714Y-44235714D01*
X72421428Y-44378571D01*
X73707142Y-44807142D02*
X73850000Y-44878571D01*
X74135714Y-44878571D01*
X74278571Y-44807142D01*
X74350000Y-44664285D01*
X74350000Y-44592857D01*
X74278571Y-44450000D01*
X74135714Y-44378571D01*
X73921428Y-44378571D01*
X73778571Y-44307142D01*
X73707142Y-44164285D01*
X73707142Y-44092857D01*
X73778571Y-43950000D01*
X73921428Y-43878571D01*
X74135714Y-43878571D01*
X74278571Y-43950000D01*
X74921428Y-43378571D02*
X74921428Y-43664285D01*
X75492857Y-43378571D02*
X75492857Y-43664285D01*
X64228571Y-40850000D02*
X64085714Y-40778571D01*
X63871428Y-40778571D01*
X63657142Y-40850000D01*
X63514285Y-40992857D01*
X63442857Y-41135714D01*
X63371428Y-41421428D01*
X63371428Y-41635714D01*
X63442857Y-41921428D01*
X63514285Y-42064285D01*
X63657142Y-42207142D01*
X63871428Y-42278571D01*
X64014285Y-42278571D01*
X64228571Y-42207142D01*
X64300000Y-42135714D01*
X64300000Y-41635714D01*
X64014285Y-41635714D01*
X64942857Y-42278571D02*
X64942857Y-41278571D01*
X64942857Y-41564285D02*
X65014285Y-41421428D01*
X65085714Y-41350000D01*
X65228571Y-41278571D01*
X65371428Y-41278571D01*
X66442857Y-42207142D02*
X66300000Y-42278571D01*
X66014285Y-42278571D01*
X65871428Y-42207142D01*
X65800000Y-42064285D01*
X65800000Y-41492857D01*
X65871428Y-41350000D01*
X66014285Y-41278571D01*
X66300000Y-41278571D01*
X66442857Y-41350000D01*
X66514285Y-41492857D01*
X66514285Y-41635714D01*
X65800000Y-41778571D01*
X67728571Y-42207142D02*
X67585714Y-42278571D01*
X67300000Y-42278571D01*
X67157142Y-42207142D01*
X67085714Y-42064285D01*
X67085714Y-41492857D01*
X67157142Y-41350000D01*
X67300000Y-41278571D01*
X67585714Y-41278571D01*
X67728571Y-41350000D01*
X67800000Y-41492857D01*
X67800000Y-41635714D01*
X67085714Y-41778571D01*
X68442857Y-41278571D02*
X68442857Y-42278571D01*
X68442857Y-41421428D02*
X68514285Y-41350000D01*
X68657142Y-41278571D01*
X68871428Y-41278571D01*
X69014285Y-41350000D01*
X69085714Y-41492857D01*
X69085714Y-42278571D01*
X69585714Y-41278571D02*
X70157142Y-41278571D01*
X69800000Y-42278571D02*
X69800000Y-40992857D01*
X69871428Y-40850000D01*
X70014285Y-40778571D01*
X70157142Y-40778571D01*
X71300000Y-42278571D02*
X71300000Y-41492857D01*
X71228571Y-41350000D01*
X71085714Y-41278571D01*
X70800000Y-41278571D01*
X70657142Y-41350000D01*
X71300000Y-42207142D02*
X71157142Y-42278571D01*
X70800000Y-42278571D01*
X70657142Y-42207142D01*
X70585714Y-42064285D01*
X70585714Y-41921428D01*
X70657142Y-41778571D01*
X70800000Y-41707142D01*
X71157142Y-41707142D01*
X71300000Y-41635714D01*
X72657142Y-42207142D02*
X72514285Y-42278571D01*
X72228571Y-42278571D01*
X72085714Y-42207142D01*
X72014285Y-42135714D01*
X71942857Y-41992857D01*
X71942857Y-41564285D01*
X72014285Y-41421428D01*
X72085714Y-41350000D01*
X72228571Y-41278571D01*
X72514285Y-41278571D01*
X72657142Y-41350000D01*
X73871428Y-42207142D02*
X73728571Y-42278571D01*
X73442857Y-42278571D01*
X73300000Y-42207142D01*
X73228571Y-42064285D01*
X73228571Y-41492857D01*
X73300000Y-41350000D01*
X73442857Y-41278571D01*
X73728571Y-41278571D01*
X73871428Y-41350000D01*
X73942857Y-41492857D01*
X73942857Y-41635714D01*
X73228571Y-41778571D01*
X76442857Y-42278571D02*
X75728571Y-42278571D01*
X75728571Y-40778571D01*
X77585714Y-42278571D02*
X77585714Y-41492857D01*
X77514285Y-41350000D01*
X77371428Y-41278571D01*
X77085714Y-41278571D01*
X76942857Y-41350000D01*
X77585714Y-42207142D02*
X77442857Y-42278571D01*
X77085714Y-42278571D01*
X76942857Y-42207142D01*
X76871428Y-42064285D01*
X76871428Y-41921428D01*
X76942857Y-41778571D01*
X77085714Y-41707142D01*
X77442857Y-41707142D01*
X77585714Y-41635714D01*
X78300000Y-42278571D02*
X78300000Y-40778571D01*
X78300000Y-41350000D02*
X78442857Y-41278571D01*
X78728571Y-41278571D01*
X78871428Y-41350000D01*
X78942857Y-41421428D01*
X79014285Y-41564285D01*
X79014285Y-41992857D01*
X78942857Y-42135714D01*
X78871428Y-42207142D01*
X78728571Y-42278571D01*
X78442857Y-42278571D01*
X78300000Y-42207142D01*
X79585714Y-42207142D02*
X79728571Y-42278571D01*
X80014285Y-42278571D01*
X80157142Y-42207142D01*
X80228571Y-42064285D01*
X80228571Y-41992857D01*
X80157142Y-41850000D01*
X80014285Y-41778571D01*
X79800000Y-41778571D01*
X79657142Y-41707142D01*
X79585714Y-41564285D01*
X79585714Y-41492857D01*
X79657142Y-41350000D01*
X79800000Y-41278571D01*
X80014285Y-41278571D01*
X80157142Y-41350000D01*
D10*
%TO.C,U26*%
X64431904Y-119952380D02*
X64431904Y-120761904D01*
X64479523Y-120857142D01*
X64527142Y-120904761D01*
X64622380Y-120952380D01*
X64812857Y-120952380D01*
X64908095Y-120904761D01*
X64955714Y-120857142D01*
X65003333Y-120761904D01*
X65003333Y-119952380D01*
X65431904Y-120047619D02*
X65479523Y-120000000D01*
X65574761Y-119952380D01*
X65812857Y-119952380D01*
X65908095Y-120000000D01*
X65955714Y-120047619D01*
X66003333Y-120142857D01*
X66003333Y-120238095D01*
X65955714Y-120380952D01*
X65384285Y-120952380D01*
X66003333Y-120952380D01*
X66860476Y-119952380D02*
X66670000Y-119952380D01*
X66574761Y-120000000D01*
X66527142Y-120047619D01*
X66431904Y-120190476D01*
X66384285Y-120380952D01*
X66384285Y-120761904D01*
X66431904Y-120857142D01*
X66479523Y-120904761D01*
X66574761Y-120952380D01*
X66765238Y-120952380D01*
X66860476Y-120904761D01*
X66908095Y-120857142D01*
X66955714Y-120761904D01*
X66955714Y-120523809D01*
X66908095Y-120428571D01*
X66860476Y-120380952D01*
X66765238Y-120333333D01*
X66574761Y-120333333D01*
X66479523Y-120380952D01*
X66431904Y-120428571D01*
X66384285Y-120523809D01*
%TO.C,U27*%
X64431904Y-81952380D02*
X64431904Y-82761904D01*
X64479523Y-82857142D01*
X64527142Y-82904761D01*
X64622380Y-82952380D01*
X64812857Y-82952380D01*
X64908095Y-82904761D01*
X64955714Y-82857142D01*
X65003333Y-82761904D01*
X65003333Y-81952380D01*
X65431904Y-82047619D02*
X65479523Y-82000000D01*
X65574761Y-81952380D01*
X65812857Y-81952380D01*
X65908095Y-82000000D01*
X65955714Y-82047619D01*
X66003333Y-82142857D01*
X66003333Y-82238095D01*
X65955714Y-82380952D01*
X65384285Y-82952380D01*
X66003333Y-82952380D01*
X66336666Y-81952380D02*
X67003333Y-81952380D01*
X66574761Y-82952380D01*
%TO.C,U21*%
X64431904Y-69952380D02*
X64431904Y-70761904D01*
X64479523Y-70857142D01*
X64527142Y-70904761D01*
X64622380Y-70952380D01*
X64812857Y-70952380D01*
X64908095Y-70904761D01*
X64955714Y-70857142D01*
X65003333Y-70761904D01*
X65003333Y-69952380D01*
X65431904Y-70047619D02*
X65479523Y-70000000D01*
X65574761Y-69952380D01*
X65812857Y-69952380D01*
X65908095Y-70000000D01*
X65955714Y-70047619D01*
X66003333Y-70142857D01*
X66003333Y-70238095D01*
X65955714Y-70380952D01*
X65384285Y-70952380D01*
X66003333Y-70952380D01*
X66955714Y-70952380D02*
X66384285Y-70952380D01*
X66670000Y-70952380D02*
X66670000Y-69952380D01*
X66574761Y-70095238D01*
X66479523Y-70190476D01*
X66384285Y-70238095D01*
%TO.C,U22*%
X64431904Y-45952380D02*
X64431904Y-46761904D01*
X64479523Y-46857142D01*
X64527142Y-46904761D01*
X64622380Y-46952380D01*
X64812857Y-46952380D01*
X64908095Y-46904761D01*
X64955714Y-46857142D01*
X65003333Y-46761904D01*
X65003333Y-45952380D01*
X65431904Y-46047619D02*
X65479523Y-46000000D01*
X65574761Y-45952380D01*
X65812857Y-45952380D01*
X65908095Y-46000000D01*
X65955714Y-46047619D01*
X66003333Y-46142857D01*
X66003333Y-46238095D01*
X65955714Y-46380952D01*
X65384285Y-46952380D01*
X66003333Y-46952380D01*
X66384285Y-46047619D02*
X66431904Y-46000000D01*
X66527142Y-45952380D01*
X66765238Y-45952380D01*
X66860476Y-46000000D01*
X66908095Y-46047619D01*
X66955714Y-46142857D01*
X66955714Y-46238095D01*
X66908095Y-46380952D01*
X66336666Y-46952380D01*
X66955714Y-46952380D01*
%TO.C,RV1*%
X82822380Y-102575238D02*
X82346190Y-102908571D01*
X82822380Y-103146666D02*
X81822380Y-103146666D01*
X81822380Y-102765714D01*
X81870000Y-102670476D01*
X81917619Y-102622857D01*
X82012857Y-102575238D01*
X82155714Y-102575238D01*
X82250952Y-102622857D01*
X82298571Y-102670476D01*
X82346190Y-102765714D01*
X82346190Y-103146666D01*
X81822380Y-102289523D02*
X82822380Y-101956190D01*
X81822380Y-101622857D01*
X82822380Y-100765714D02*
X82822380Y-101337142D01*
X82822380Y-101051428D02*
X81822380Y-101051428D01*
X81965238Y-101146666D01*
X82060476Y-101241904D01*
X82108095Y-101337142D01*
%TO.C,U20*%
X64431904Y-107952380D02*
X64431904Y-108761904D01*
X64479523Y-108857142D01*
X64527142Y-108904761D01*
X64622380Y-108952380D01*
X64812857Y-108952380D01*
X64908095Y-108904761D01*
X64955714Y-108857142D01*
X65003333Y-108761904D01*
X65003333Y-107952380D01*
X65431904Y-108047619D02*
X65479523Y-108000000D01*
X65574761Y-107952380D01*
X65812857Y-107952380D01*
X65908095Y-108000000D01*
X65955714Y-108047619D01*
X66003333Y-108142857D01*
X66003333Y-108238095D01*
X65955714Y-108380952D01*
X65384285Y-108952380D01*
X66003333Y-108952380D01*
X66622380Y-107952380D02*
X66717619Y-107952380D01*
X66812857Y-108000000D01*
X66860476Y-108047619D01*
X66908095Y-108142857D01*
X66955714Y-108333333D01*
X66955714Y-108571428D01*
X66908095Y-108761904D01*
X66860476Y-108857142D01*
X66812857Y-108904761D01*
X66717619Y-108952380D01*
X66622380Y-108952380D01*
X66527142Y-108904761D01*
X66479523Y-108857142D01*
X66431904Y-108761904D01*
X66384285Y-108571428D01*
X66384285Y-108333333D01*
X66431904Y-108142857D01*
X66479523Y-108047619D01*
X66527142Y-108000000D01*
X66622380Y-107952380D01*
%TO.C,J9*%
X50916666Y-83052380D02*
X50916666Y-83766666D01*
X50869047Y-83909523D01*
X50773809Y-84004761D01*
X50630952Y-84052380D01*
X50535714Y-84052380D01*
X51440476Y-84052380D02*
X51630952Y-84052380D01*
X51726190Y-84004761D01*
X51773809Y-83957142D01*
X51869047Y-83814285D01*
X51916666Y-83623809D01*
X51916666Y-83242857D01*
X51869047Y-83147619D01*
X51821428Y-83100000D01*
X51726190Y-83052380D01*
X51535714Y-83052380D01*
X51440476Y-83100000D01*
X51392857Y-83147619D01*
X51345238Y-83242857D01*
X51345238Y-83480952D01*
X51392857Y-83576190D01*
X51440476Y-83623809D01*
X51535714Y-83671428D01*
X51726190Y-83671428D01*
X51821428Y-83623809D01*
X51869047Y-83576190D01*
X51916666Y-83480952D01*
%TO.C,U28*%
X64431904Y-57952380D02*
X64431904Y-58761904D01*
X64479523Y-58857142D01*
X64527142Y-58904761D01*
X64622380Y-58952380D01*
X64812857Y-58952380D01*
X64908095Y-58904761D01*
X64955714Y-58857142D01*
X65003333Y-58761904D01*
X65003333Y-57952380D01*
X65431904Y-58047619D02*
X65479523Y-58000000D01*
X65574761Y-57952380D01*
X65812857Y-57952380D01*
X65908095Y-58000000D01*
X65955714Y-58047619D01*
X66003333Y-58142857D01*
X66003333Y-58238095D01*
X65955714Y-58380952D01*
X65384285Y-58952380D01*
X66003333Y-58952380D01*
X66574761Y-58380952D02*
X66479523Y-58333333D01*
X66431904Y-58285714D01*
X66384285Y-58190476D01*
X66384285Y-58142857D01*
X66431904Y-58047619D01*
X66479523Y-58000000D01*
X66574761Y-57952380D01*
X66765238Y-57952380D01*
X66860476Y-58000000D01*
X66908095Y-58047619D01*
X66955714Y-58142857D01*
X66955714Y-58190476D01*
X66908095Y-58285714D01*
X66860476Y-58333333D01*
X66765238Y-58380952D01*
X66574761Y-58380952D01*
X66479523Y-58428571D01*
X66431904Y-58476190D01*
X66384285Y-58571428D01*
X66384285Y-58761904D01*
X66431904Y-58857142D01*
X66479523Y-58904761D01*
X66574761Y-58952380D01*
X66765238Y-58952380D01*
X66860476Y-58904761D01*
X66908095Y-58857142D01*
X66955714Y-58761904D01*
X66955714Y-58571428D01*
X66908095Y-58476190D01*
X66860476Y-58428571D01*
X66765238Y-58380952D01*
%TO.C,U33*%
X64431904Y-95952380D02*
X64431904Y-96761904D01*
X64479523Y-96857142D01*
X64527142Y-96904761D01*
X64622380Y-96952380D01*
X64812857Y-96952380D01*
X64908095Y-96904761D01*
X64955714Y-96857142D01*
X65003333Y-96761904D01*
X65003333Y-95952380D01*
X65384285Y-95952380D02*
X66003333Y-95952380D01*
X65670000Y-96333333D01*
X65812857Y-96333333D01*
X65908095Y-96380952D01*
X65955714Y-96428571D01*
X66003333Y-96523809D01*
X66003333Y-96761904D01*
X65955714Y-96857142D01*
X65908095Y-96904761D01*
X65812857Y-96952380D01*
X65527142Y-96952380D01*
X65431904Y-96904761D01*
X65384285Y-96857142D01*
X66336666Y-95952380D02*
X66955714Y-95952380D01*
X66622380Y-96333333D01*
X66765238Y-96333333D01*
X66860476Y-96380952D01*
X66908095Y-96428571D01*
X66955714Y-96523809D01*
X66955714Y-96761904D01*
X66908095Y-96857142D01*
X66860476Y-96904761D01*
X66765238Y-96952380D01*
X66479523Y-96952380D01*
X66384285Y-96904761D01*
X66336666Y-96857142D01*
%TO.C,H3*%
X95638095Y-143952380D02*
X95638095Y-142952380D01*
X95638095Y-143428571D02*
X96209523Y-143428571D01*
X96209523Y-143952380D02*
X96209523Y-142952380D01*
X96590476Y-142952380D02*
X97209523Y-142952380D01*
X96876190Y-143333333D01*
X97019047Y-143333333D01*
X97114285Y-143380952D01*
X97161904Y-143428571D01*
X97209523Y-143523809D01*
X97209523Y-143761904D01*
X97161904Y-143857142D01*
X97114285Y-143904761D01*
X97019047Y-143952380D01*
X96733333Y-143952380D01*
X96638095Y-143904761D01*
X96590476Y-143857142D01*
%TO.C,U32*%
X64431904Y-131952380D02*
X64431904Y-132761904D01*
X64479523Y-132857142D01*
X64527142Y-132904761D01*
X64622380Y-132952380D01*
X64812857Y-132952380D01*
X64908095Y-132904761D01*
X64955714Y-132857142D01*
X65003333Y-132761904D01*
X65003333Y-131952380D01*
X65384285Y-131952380D02*
X66003333Y-131952380D01*
X65670000Y-132333333D01*
X65812857Y-132333333D01*
X65908095Y-132380952D01*
X65955714Y-132428571D01*
X66003333Y-132523809D01*
X66003333Y-132761904D01*
X65955714Y-132857142D01*
X65908095Y-132904761D01*
X65812857Y-132952380D01*
X65527142Y-132952380D01*
X65431904Y-132904761D01*
X65384285Y-132857142D01*
X66384285Y-132047619D02*
X66431904Y-132000000D01*
X66527142Y-131952380D01*
X66765238Y-131952380D01*
X66860476Y-132000000D01*
X66908095Y-132047619D01*
X66955714Y-132142857D01*
X66955714Y-132238095D01*
X66908095Y-132380952D01*
X66336666Y-132952380D01*
X66955714Y-132952380D01*
%TO.C,J7*%
X50916666Y-47052380D02*
X50916666Y-47766666D01*
X50869047Y-47909523D01*
X50773809Y-48004761D01*
X50630952Y-48052380D01*
X50535714Y-48052380D01*
X51297619Y-47052380D02*
X51964285Y-47052380D01*
X51535714Y-48052380D01*
%TO.C,H4*%
X43238095Y-143952380D02*
X43238095Y-142952380D01*
X43238095Y-143428571D02*
X43809523Y-143428571D01*
X43809523Y-143952380D02*
X43809523Y-142952380D01*
X44714285Y-143285714D02*
X44714285Y-143952380D01*
X44476190Y-142904761D02*
X44238095Y-143619047D01*
X44857142Y-143619047D01*
%TO.C,J12*%
X50440476Y-97052380D02*
X50440476Y-97766666D01*
X50392857Y-97909523D01*
X50297619Y-98004761D01*
X50154761Y-98052380D01*
X50059523Y-98052380D01*
X51440476Y-98052380D02*
X50869047Y-98052380D01*
X51154761Y-98052380D02*
X51154761Y-97052380D01*
X51059523Y-97195238D01*
X50964285Y-97290476D01*
X50869047Y-97338095D01*
X51821428Y-97147619D02*
X51869047Y-97100000D01*
X51964285Y-97052380D01*
X52202380Y-97052380D01*
X52297619Y-97100000D01*
X52345238Y-97147619D01*
X52392857Y-97242857D01*
X52392857Y-97338095D01*
X52345238Y-97480952D01*
X51773809Y-98052380D01*
X52392857Y-98052380D01*
%TO.C,J5*%
X50916666Y-109052380D02*
X50916666Y-109766666D01*
X50869047Y-109909523D01*
X50773809Y-110004761D01*
X50630952Y-110052380D01*
X50535714Y-110052380D01*
X51869047Y-109052380D02*
X51392857Y-109052380D01*
X51345238Y-109528571D01*
X51392857Y-109480952D01*
X51488095Y-109433333D01*
X51726190Y-109433333D01*
X51821428Y-109480952D01*
X51869047Y-109528571D01*
X51916666Y-109623809D01*
X51916666Y-109861904D01*
X51869047Y-109957142D01*
X51821428Y-110004761D01*
X51726190Y-110052380D01*
X51488095Y-110052380D01*
X51392857Y-110004761D01*
X51345238Y-109957142D01*
%TO.C,J10*%
X50440476Y-59052380D02*
X50440476Y-59766666D01*
X50392857Y-59909523D01*
X50297619Y-60004761D01*
X50154761Y-60052380D01*
X50059523Y-60052380D01*
X51440476Y-60052380D02*
X50869047Y-60052380D01*
X51154761Y-60052380D02*
X51154761Y-59052380D01*
X51059523Y-59195238D01*
X50964285Y-59290476D01*
X50869047Y-59338095D01*
X52059523Y-59052380D02*
X52154761Y-59052380D01*
X52250000Y-59100000D01*
X52297619Y-59147619D01*
X52345238Y-59242857D01*
X52392857Y-59433333D01*
X52392857Y-59671428D01*
X52345238Y-59861904D01*
X52297619Y-59957142D01*
X52250000Y-60004761D01*
X52154761Y-60052380D01*
X52059523Y-60052380D01*
X51964285Y-60004761D01*
X51916666Y-59957142D01*
X51869047Y-59861904D01*
X51821428Y-59671428D01*
X51821428Y-59433333D01*
X51869047Y-59242857D01*
X51916666Y-59147619D01*
X51964285Y-59100000D01*
X52059523Y-59052380D01*
%TO.C,J4*%
X91566666Y-121052380D02*
X91566666Y-121766666D01*
X91519047Y-121909523D01*
X91423809Y-122004761D01*
X91280952Y-122052380D01*
X91185714Y-122052380D01*
X92471428Y-121385714D02*
X92471428Y-122052380D01*
X92233333Y-121004761D02*
X91995238Y-121719047D01*
X92614285Y-121719047D01*
%TO.C,J11*%
X50440476Y-133052380D02*
X50440476Y-133766666D01*
X50392857Y-133909523D01*
X50297619Y-134004761D01*
X50154761Y-134052380D01*
X50059523Y-134052380D01*
X51440476Y-134052380D02*
X50869047Y-134052380D01*
X51154761Y-134052380D02*
X51154761Y-133052380D01*
X51059523Y-133195238D01*
X50964285Y-133290476D01*
X50869047Y-133338095D01*
X52392857Y-134052380D02*
X51821428Y-134052380D01*
X52107142Y-134052380D02*
X52107142Y-133052380D01*
X52011904Y-133195238D01*
X51916666Y-133290476D01*
X51821428Y-133338095D01*
%TO.C,J1*%
X91566666Y-59052380D02*
X91566666Y-59766666D01*
X91519047Y-59909523D01*
X91423809Y-60004761D01*
X91280952Y-60052380D01*
X91185714Y-60052380D01*
X92566666Y-60052380D02*
X91995238Y-60052380D01*
X92280952Y-60052380D02*
X92280952Y-59052380D01*
X92185714Y-59195238D01*
X92090476Y-59290476D01*
X91995238Y-59338095D01*
%TO.C,J8*%
X50916666Y-121052380D02*
X50916666Y-121766666D01*
X50869047Y-121909523D01*
X50773809Y-122004761D01*
X50630952Y-122052380D01*
X50535714Y-122052380D01*
X51535714Y-121480952D02*
X51440476Y-121433333D01*
X51392857Y-121385714D01*
X51345238Y-121290476D01*
X51345238Y-121242857D01*
X51392857Y-121147619D01*
X51440476Y-121100000D01*
X51535714Y-121052380D01*
X51726190Y-121052380D01*
X51821428Y-121100000D01*
X51869047Y-121147619D01*
X51916666Y-121242857D01*
X51916666Y-121290476D01*
X51869047Y-121385714D01*
X51821428Y-121433333D01*
X51726190Y-121480952D01*
X51535714Y-121480952D01*
X51440476Y-121528571D01*
X51392857Y-121576190D01*
X51345238Y-121671428D01*
X51345238Y-121861904D01*
X51392857Y-121957142D01*
X51440476Y-122004761D01*
X51535714Y-122052380D01*
X51726190Y-122052380D01*
X51821428Y-122004761D01*
X51869047Y-121957142D01*
X51916666Y-121861904D01*
X51916666Y-121671428D01*
X51869047Y-121576190D01*
X51821428Y-121528571D01*
X51726190Y-121480952D01*
%TO.C,J6*%
X50916666Y-71052380D02*
X50916666Y-71766666D01*
X50869047Y-71909523D01*
X50773809Y-72004761D01*
X50630952Y-72052380D01*
X50535714Y-72052380D01*
X51821428Y-71052380D02*
X51630952Y-71052380D01*
X51535714Y-71100000D01*
X51488095Y-71147619D01*
X51392857Y-71290476D01*
X51345238Y-71480952D01*
X51345238Y-71861904D01*
X51392857Y-71957142D01*
X51440476Y-72004761D01*
X51535714Y-72052380D01*
X51726190Y-72052380D01*
X51821428Y-72004761D01*
X51869047Y-71957142D01*
X51916666Y-71861904D01*
X51916666Y-71623809D01*
X51869047Y-71528571D01*
X51821428Y-71480952D01*
X51726190Y-71433333D01*
X51535714Y-71433333D01*
X51440476Y-71480952D01*
X51392857Y-71528571D01*
X51345238Y-71623809D01*
D12*
%TO.C,U26*%
X60660000Y-124070000D02*
X60660000Y-131510000D01*
X60660000Y-131510000D02*
X70680000Y-131510000D01*
X70680000Y-121490000D02*
X63240000Y-121490000D01*
X70680000Y-131510000D02*
X70680000Y-121490000D01*
X63240000Y-121490000D02*
X60660000Y-124070000D01*
%TO.C,U27*%
X60660000Y-86070000D02*
X60660000Y-93510000D01*
X70680000Y-93510000D02*
X70680000Y-83490000D01*
X70680000Y-83490000D02*
X63240000Y-83490000D01*
X60660000Y-93510000D02*
X70680000Y-93510000D01*
X63240000Y-83490000D02*
X60660000Y-86070000D01*
%TO.C,U21*%
X60660000Y-74070000D02*
X60660000Y-81510000D01*
X70680000Y-81510000D02*
X70680000Y-71490000D01*
X70680000Y-71490000D02*
X63240000Y-71490000D01*
X63240000Y-71490000D02*
X60660000Y-74070000D01*
X60660000Y-81510000D02*
X70680000Y-81510000D01*
%TO.C,U22*%
X60660000Y-57510000D02*
X70680000Y-57510000D01*
X63240000Y-47490000D02*
X60660000Y-50070000D01*
X70680000Y-47490000D02*
X63240000Y-47490000D01*
X60660000Y-50070000D02*
X60660000Y-57510000D01*
X70680000Y-57510000D02*
X70680000Y-47490000D01*
%TO.C,RV1*%
X85050000Y-98775000D02*
X85050000Y-94910000D01*
X94990000Y-98775000D02*
X94990000Y-94910000D01*
X85050000Y-107150000D02*
X85050000Y-103285000D01*
X85050000Y-94910000D02*
X94990000Y-94910000D01*
X90891000Y-107150000D02*
X91650000Y-107150000D01*
X93390000Y-107150000D02*
X94990000Y-107150000D01*
X94990000Y-107150000D02*
X94990000Y-103285000D01*
X88391000Y-107150000D02*
X89150000Y-107150000D01*
X85050000Y-107150000D02*
X86649000Y-107150000D01*
%TO.C,U20*%
X70680000Y-109490000D02*
X63240000Y-109490000D01*
X60660000Y-112070000D02*
X60660000Y-119510000D01*
X70680000Y-119510000D02*
X70680000Y-109490000D01*
X63240000Y-109490000D02*
X60660000Y-112070000D01*
X60660000Y-119510000D02*
X70680000Y-119510000D01*
%TO.C,J9*%
X44870000Y-92900000D02*
X57130000Y-92900000D01*
X44870000Y-92900000D02*
X44870000Y-84800000D01*
X44870000Y-84800000D02*
X57130000Y-84800000D01*
X57130000Y-84800000D02*
X57130000Y-92900000D01*
%TO.C,U28*%
X70680000Y-59490000D02*
X63240000Y-59490000D01*
X60660000Y-69510000D02*
X70680000Y-69510000D01*
X63240000Y-59490000D02*
X60660000Y-62070000D01*
X60660000Y-62070000D02*
X60660000Y-69510000D01*
X70680000Y-69510000D02*
X70680000Y-59490000D01*
%TO.C,U33*%
X63240000Y-97490000D02*
X60660000Y-100070000D01*
X60660000Y-100070000D02*
X60660000Y-107510000D01*
X60660000Y-107510000D02*
X70680000Y-107510000D01*
X70680000Y-97490000D02*
X63240000Y-97490000D01*
X70680000Y-107510000D02*
X70680000Y-97490000D01*
%TO.C,U32*%
X60660000Y-143510000D02*
X70680000Y-143510000D01*
X70680000Y-143510000D02*
X70680000Y-133490000D01*
X70680000Y-133490000D02*
X63240000Y-133490000D01*
X60660000Y-136070000D02*
X60660000Y-143510000D01*
X63240000Y-133490000D02*
X60660000Y-136070000D01*
%TO.C,J7*%
X44870000Y-56900000D02*
X44870000Y-48800000D01*
X57130000Y-48800000D02*
X57130000Y-56900000D01*
X44870000Y-56900000D02*
X57130000Y-56900000D01*
X44870000Y-48800000D02*
X57130000Y-48800000D01*
%TO.C,J12*%
X44870000Y-106900000D02*
X57130000Y-106900000D01*
X44870000Y-98800000D02*
X57130000Y-98800000D01*
X44870000Y-106900000D02*
X44870000Y-98800000D01*
X57130000Y-98800000D02*
X57130000Y-106900000D01*
%TO.C,J5*%
X44870000Y-118900000D02*
X57130000Y-118900000D01*
X44870000Y-118900000D02*
X44870000Y-110800000D01*
X57130000Y-110800000D02*
X57130000Y-118900000D01*
X44870000Y-110800000D02*
X57130000Y-110800000D01*
%TO.C,J10*%
X44870000Y-68900000D02*
X57130000Y-68900000D01*
X44870000Y-60800000D02*
X57130000Y-60800000D01*
X44870000Y-68900000D02*
X44870000Y-60800000D01*
X57130000Y-60800000D02*
X57130000Y-68900000D01*
%TO.C,J4*%
X85520000Y-122800000D02*
X97780000Y-122800000D01*
X97780000Y-122800000D02*
X97780000Y-130900000D01*
X85520000Y-130900000D02*
X97780000Y-130900000D01*
X85520000Y-130900000D02*
X85520000Y-122800000D01*
%TO.C,J11*%
X44870000Y-142900000D02*
X57130000Y-142900000D01*
X44870000Y-142900000D02*
X44870000Y-134800000D01*
X44870000Y-134800000D02*
X57130000Y-134800000D01*
X57130000Y-134800000D02*
X57130000Y-142900000D01*
%TO.C,J1*%
X85520000Y-68900000D02*
X85520000Y-60800000D01*
X85520000Y-68900000D02*
X97780000Y-68900000D01*
X97780000Y-60800000D02*
X97780000Y-68900000D01*
X85520000Y-60800000D02*
X97780000Y-60800000D01*
%TO.C,J8*%
X44870000Y-130900000D02*
X57130000Y-130900000D01*
X44870000Y-122800000D02*
X57130000Y-122800000D01*
X44870000Y-130900000D02*
X44870000Y-122800000D01*
X57130000Y-122800000D02*
X57130000Y-130900000D01*
%TO.C,J6*%
X44870000Y-72800000D02*
X57130000Y-72800000D01*
X44870000Y-80900000D02*
X57130000Y-80900000D01*
X44870000Y-80900000D02*
X44870000Y-72800000D01*
X57130000Y-72800000D02*
X57130000Y-80900000D01*
%TD*%
M02*
