M48
; DRILL file {KiCad (6.0.1)} date Sat Feb 18 17:41:37 2023
; FORMAT={-:-/ absolute / inch / decimal}
; #@! TF.CreationDate,2023-02-18T17:41:37-08:00
; #@! TF.GenerationSoftware,Kicad,Pcbnew,(6.0.1)
; #@! TF.FileFunction,Plated,1,4,PTH
FMAT,2
INCH
; #@! TA.AperFunction,Plated,PTH,ViaDrill
T1C0.0079
; #@! TA.AperFunction,Plated,PTH,ViaDrill
T2C0.0157
; #@! TA.AperFunction,Plated,PTH,ComponentDrill
T3C0.0217
; #@! TA.AperFunction,Plated,PTH,ComponentDrill
T4C0.0394
; #@! TA.AperFunction,Plated,PTH,ComponentDrill
T5C0.0591
; #@! TA.AperFunction,Plated,PTH,ComponentDrill
T6C0.0630
%
G90
G05
T1
X1.6236Y-2.1882
X1.624Y-2.6941
X1.6248Y-4.185
X1.6252Y-3.6307
X1.6264Y-3.1575
X1.6268Y-4.6551
X1.6652Y-1.7982
X1.6658Y-1.9539
X1.6669Y-2.2339
X1.6752Y-3.2378
X1.6807Y-4.2567
X1.6808Y-2.7814
X1.6827Y-4.728
X1.6874Y-5.1988
X1.689Y-3.7744
X1.6915Y-5.2998
X1.6923Y-2.3368
X1.6925Y-5.3496
X1.7093Y-4.8778
X1.7104Y-4.8278
X1.7193Y-1.9327
X1.7242Y-4.4037
X1.725Y-3.9313
X1.737Y-2.628
X1.7378Y-2.9035
X1.7378Y-3.0933
X1.7378Y-4.5921
X1.7394Y-2.4315
X1.7406Y-3.5732
X1.7425Y-3.3748
X1.7433Y-5.5374
X1.7453Y-4.1213
X1.7457Y-5.0669
X1.7693Y-3.9815
X1.7693Y-4.113
X1.7693Y-4.4539
X1.7693Y-4.7709
X1.7693Y-4.9299
X1.7693Y-5.4
X1.7697Y-3.4295
X1.7697Y-3.5642
X1.7701Y-4.585
X1.7709Y-2.9551
X1.7709Y-3.2012
X1.7711Y-1.9825
X1.7711Y-2.4876
X1.8734Y-2.3368
X1.8737Y-2.805
X1.8752Y-4.7949
X1.8781Y-3.8813
X1.8782Y-2.3641
X1.8785Y-5.2498
X1.8787Y-3.3303
X1.8791Y-4.3543
X1.8813Y-4.3037
X1.8829Y-3.8313
X1.8843Y-3.285
X1.8843Y-3.5429
X1.8878Y-4.0957
X1.8902Y-4.5681
X1.9331Y-4.8496
X1.9339Y-1.8811
X1.9378Y-2.8551
X1.9378Y-5.3205
X2.0039Y-3.3303
X2.0067Y-2.8551
X2.0098Y-4.3543
X2.011Y-3.8811
X2.0138Y-4.8484
X2.0185Y-2.3606
X2.0307Y-5.3209
X2.0709Y-4.7705
X2.5069Y-2.9616
X2.5085Y-2.0333
X2.5085Y-5.0199
X2.5087Y-3.4543
X2.5093Y-3.5049
X2.51Y-2.5207
X2.5108Y-3.0128
X2.5108Y-4.0325
X2.5112Y-2.4695
X2.5116Y-4.5285
X2.512Y-1.9821
X2.512Y-5.512
X2.5124Y-5.4608
X2.5132Y-3.9813
X2.5152Y-4.9687
X2.5167Y-4.4774
X2.6537Y-5.512
X2.7343Y-2.5209
X2.7352Y-4.0325
X2.7392Y-3.5049
X2.7392Y-4.5285
X2.7578Y-4.9861
X2.8258Y-2.9498
X2.8901Y-1.8426
X3.0256Y-4.411
X3.0274Y-4.9333
X3.0305Y-3.4183
X3.0305Y-3.6683
X3.0305Y-5.7254
X3.0313Y-2.3841
X3.0313Y-5.4254
X3.0327Y-5.376
X3.0344Y-4.8833
X3.036Y-2.8762
X3.036Y-3.3683
X3.0541Y-2.9262
X3.0577Y-3.1683
X3.0628Y-4.5396
X3.0772Y-2.6996
X3.0876Y-4.4896
X3.0945Y-4.5157
X3.0945Y-4.9833
X3.0957Y-2.2705
X3.0984Y-4.4366
X3.1171Y-4.4616
X3.1179Y-4.9333
X3.1181Y-3.1614
X3.1183Y-3.4683
X3.1191Y-5.4754
X3.1195Y-4.6116
X3.1211Y-2.9498
X3.122Y-5.1339
X3.1222Y-3.9959
X3.1258Y-2.4841
X3.3335Y-1.7276
X3.3601Y-4.3023
X3.3659Y-4.3963
X3.3724Y-3.2378
X3.4163Y-1.9848
X3.4248Y-4.6425
X3.4264Y-3.7165
X3.4559Y-1.7276
X3.487Y-4.6425
X3.4914Y-4.1957
X3.5273Y-2.7688
X3.5365Y-3.1672
X3.5488Y-4.5764
X3.5496Y-4.6417
X3.5669Y-3.0638
X3.5886Y-2.1914
X3.5886Y-2.3562
X3.5917Y-4.4445
X3.6102Y-4.7043
X3.615Y-3.5417
X3.6411Y-4.3715
X3.6683Y-5.2998
X3.6724Y-4.7043
X3.6947Y-4.5435
X3.7076Y-4.3412
X3.7882Y-4.6594
X3.8256Y-2.1449
X3.8752Y-2.3516
T2
X2.978Y-3.8594
X3.2697Y-3.652
T3
X2.2902Y-1.9921
X2.2902Y-2.1417
X2.2902Y-2.4646
X2.2902Y-2.6142
X2.2902Y-2.937
X2.2902Y-3.0866
X2.2902Y-3.4094
X2.2902Y-3.5591
X2.2902Y-3.9606
X2.2902Y-4.1102
X2.2902Y-4.4331
X2.2902Y-4.5827
X2.2902Y-4.9055
X2.2902Y-5.0551
X2.2902Y-5.378
X2.2902Y-5.5276
X2.8807Y-1.9669
X2.8807Y-2.1669
X2.8807Y-2.4394
X2.8807Y-2.6394
X2.8807Y-2.9118
X2.8807Y-3.1118
X2.8807Y-3.3843
X2.8807Y-3.5843
X2.8807Y-3.9354
X2.8807Y-4.1354
X2.8807Y-4.4079
X2.8807Y-4.6079
X2.8807Y-4.8803
X2.8807Y-5.0803
X2.8807Y-5.3528
X2.8807Y-5.5528
T4
X3.4457Y-4.2531
X3.5441Y-4.2531
X3.6425Y-4.2531
X3.7222Y-2.8203
X3.7222Y-2.9203
X3.7222Y-3.0203
X3.7222Y-3.1203
X3.7222Y-3.2203
X3.8222Y-2.8203
X3.8222Y-2.9203
X3.8222Y-3.0203
X3.8222Y-3.1203
X3.8222Y-3.2203
T5
X1.8374Y-2.0807
X1.8374Y-2.5531
X1.8374Y-3.0256
X1.8374Y-3.498
X1.8374Y-4.0492
X1.8374Y-4.5217
X1.8374Y-4.9941
X1.8374Y-5.4665
X1.922Y-2.0217
X1.922Y-2.4941
X1.922Y-2.9665
X1.922Y-3.439
X1.922Y-3.9902
X1.922Y-4.4626
X1.922Y-4.935
X1.922Y-5.4075
X2.0972Y-2.0217
X2.0972Y-2.4941
X2.0972Y-2.9665
X2.0972Y-3.439
X2.0972Y-3.9902
X2.0972Y-4.4626
X2.0972Y-4.935
X2.0972Y-5.4075
X2.1878Y-2.0807
X2.1878Y-2.5531
X2.1878Y-3.0256
X2.1878Y-3.498
X2.1878Y-4.0492
X2.1878Y-4.5217
X2.1878Y-4.9941
X2.1878Y-5.4665
X3.4378Y-2.5531
X3.4378Y-4.9941
X3.5224Y-2.4941
X3.5224Y-4.935
X3.6976Y-2.4941
X3.6976Y-4.935
X3.7882Y-2.5531
X3.7882Y-4.9941
T6
X1.8791Y-2.1811
X1.8791Y-2.6535
X1.8791Y-3.126
X1.8791Y-3.5984
X1.8791Y-4.1496
X1.8791Y-4.622
X1.8791Y-5.0945
X1.8791Y-5.5669
X2.0957Y-5.7854
X3.4713Y-5.7854
X3.4795Y-2.6535
X3.4795Y-5.0945
T6
G00X2.1224Y-2.1811
M15
G01X2.1618Y-2.1811
M16
G05
G00X2.1224Y-2.6535
M15
G01X2.1618Y-2.6535
M16
G05
G00X2.1224Y-3.126
M15
G01X2.1618Y-3.126
M16
G05
G00X2.1224Y-3.5984
M15
G01X2.1618Y-3.5984
M16
G05
G00X2.1224Y-4.1496
M15
G01X2.1618Y-4.1496
M16
G05
G00X2.1224Y-4.622
M15
G01X2.1618Y-4.622
M16
G05
G00X2.1224Y-5.0945
M15
G01X2.1618Y-5.0945
M16
G05
G00X2.1224Y-5.5669
M15
G01X2.1618Y-5.5669
M16
G05
G00X3.7228Y-2.6535
M15
G01X3.7622Y-2.6535
M16
G05
G00X3.7228Y-5.0945
M15
G01X3.7622Y-5.0945
M16
G05
T0
M30
