%TF.GenerationSoftware,KiCad,Pcbnew,(6.0.1)*%
%TF.CreationDate,2023-02-18T22:08:36-08:00*%
%TF.ProjectId,pipes,70697065-732e-46b6-9963-61645f706362,rev?*%
%TF.SameCoordinates,Original*%
%TF.FileFunction,Paste,Bot*%
%TF.FilePolarity,Positive*%
%FSLAX46Y46*%
G04 Gerber Fmt 4.6, Leading zero omitted, Abs format (unit mm)*
G04 Created by KiCad (PCBNEW (6.0.1)) date 2023-02-18 22:08:36*
%MOMM*%
%LPD*%
G01*
G04 APERTURE LIST*
G04 Aperture macros list*
%AMRoundRect*
0 Rectangle with rounded corners*
0 $1 Rounding radius*
0 $2 $3 $4 $5 $6 $7 $8 $9 X,Y pos of 4 corners*
0 Add a 4 corners polygon primitive as box body*
4,1,4,$2,$3,$4,$5,$6,$7,$8,$9,$2,$3,0*
0 Add four circle primitives for the rounded corners*
1,1,$1+$1,$2,$3*
1,1,$1+$1,$4,$5*
1,1,$1+$1,$6,$7*
1,1,$1+$1,$8,$9*
0 Add four rect primitives between the rounded corners*
20,1,$1+$1,$2,$3,$4,$5,0*
20,1,$1+$1,$4,$5,$6,$7,0*
20,1,$1+$1,$6,$7,$8,$9,0*
20,1,$1+$1,$8,$9,$2,$3,0*%
G04 Aperture macros list end*
%ADD10R,1.500000X2.000000*%
%ADD11R,3.800000X2.000000*%
%ADD12RoundRect,0.250000X0.450000X-0.350000X0.450000X0.350000X-0.450000X0.350000X-0.450000X-0.350000X0*%
%ADD13RoundRect,0.250000X-0.350000X-0.450000X0.350000X-0.450000X0.350000X0.450000X-0.350000X0.450000X0*%
%ADD14RoundRect,0.200000X-0.275000X0.200000X-0.275000X-0.200000X0.275000X-0.200000X0.275000X0.200000X0*%
%ADD15RoundRect,0.250000X0.350000X0.450000X-0.350000X0.450000X-0.350000X-0.450000X0.350000X-0.450000X0*%
%ADD16RoundRect,0.150000X0.587500X0.150000X-0.587500X0.150000X-0.587500X-0.150000X0.587500X-0.150000X0*%
%ADD17RoundRect,0.200000X0.200000X0.275000X-0.200000X0.275000X-0.200000X-0.275000X0.200000X-0.275000X0*%
%ADD18RoundRect,0.250000X0.337500X0.475000X-0.337500X0.475000X-0.337500X-0.475000X0.337500X-0.475000X0*%
%ADD19RoundRect,0.250000X-0.337500X-0.475000X0.337500X-0.475000X0.337500X0.475000X-0.337500X0.475000X0*%
%ADD20RoundRect,0.200000X-0.200000X-0.275000X0.200000X-0.275000X0.200000X0.275000X-0.200000X0.275000X0*%
%ADD21R,1.600000X1.300000*%
%ADD22R,1.600000X2.000000*%
%ADD23RoundRect,0.250000X-0.450000X-0.425000X0.450000X-0.425000X0.450000X0.425000X-0.450000X0.425000X0*%
%ADD24RoundRect,0.100000X0.637500X0.100000X-0.637500X0.100000X-0.637500X-0.100000X0.637500X-0.100000X0*%
%ADD25RoundRect,0.250000X-0.450000X0.350000X-0.450000X-0.350000X0.450000X-0.350000X0.450000X0.350000X0*%
%ADD26RoundRect,0.150000X0.825000X0.150000X-0.825000X0.150000X-0.825000X-0.150000X0.825000X-0.150000X0*%
%ADD27RoundRect,0.250000X-0.550000X1.500000X-0.550000X-1.500000X0.550000X-1.500000X0.550000X1.500000X0*%
%ADD28RoundRect,0.150000X0.150000X-0.587500X0.150000X0.587500X-0.150000X0.587500X-0.150000X-0.587500X0*%
%ADD29RoundRect,0.250000X-0.475000X0.337500X-0.475000X-0.337500X0.475000X-0.337500X0.475000X0.337500X0*%
%ADD30R,0.900000X1.200000*%
%ADD31RoundRect,0.250000X0.475000X-0.337500X0.475000X0.337500X-0.475000X0.337500X-0.475000X-0.337500X0*%
%ADD32RoundRect,0.200000X0.275000X-0.200000X0.275000X0.200000X-0.275000X0.200000X-0.275000X-0.200000X0*%
%ADD33RoundRect,0.250000X-0.450000X0.325000X-0.450000X-0.325000X0.450000X-0.325000X0.450000X0.325000X0*%
%ADD34RoundRect,0.250000X0.325000X0.450000X-0.325000X0.450000X-0.325000X-0.450000X0.325000X-0.450000X0*%
%ADD35RoundRect,0.250000X-0.325000X-0.450000X0.325000X-0.450000X0.325000X0.450000X-0.325000X0.450000X0*%
%ADD36RoundRect,0.250000X-1.500000X-0.550000X1.500000X-0.550000X1.500000X0.550000X-1.500000X0.550000X0*%
G04 APERTURE END LIST*
D10*
%TO.C,U3*%
X83200000Y-86300000D03*
D11*
X85500000Y-92600000D03*
D10*
X85500000Y-86300000D03*
X87800000Y-86300000D03*
%TD*%
D12*
%TO.C,R70*%
X90300000Y-86400000D03*
X90300000Y-84400000D03*
%TD*%
D13*
%TO.C,R69*%
X76200000Y-83700000D03*
X78200000Y-83700000D03*
%TD*%
D14*
%TO.C,R66*%
X46000000Y-140775000D03*
X46000000Y-142425000D03*
%TD*%
D15*
%TO.C,R36*%
X60650000Y-126550000D03*
X58650000Y-126550000D03*
%TD*%
D16*
%TO.C,Q2*%
X90737500Y-42930000D03*
X90737500Y-44830000D03*
X88862500Y-43880000D03*
%TD*%
D17*
%TO.C,R39*%
X63725000Y-107000000D03*
X62075000Y-107000000D03*
%TD*%
D18*
%TO.C,C8*%
X85347500Y-110490000D03*
X83272500Y-110490000D03*
%TD*%
D19*
%TO.C,C28*%
X65262500Y-107300000D03*
X67337500Y-107300000D03*
%TD*%
D18*
%TO.C,C9*%
X96917500Y-115120000D03*
X94842500Y-115120000D03*
%TD*%
D20*
%TO.C,R63*%
X48425000Y-134650000D03*
X50075000Y-134650000D03*
%TD*%
D14*
%TO.C,R14*%
X88570000Y-117005000D03*
X88570000Y-118655000D03*
%TD*%
D18*
%TO.C,C40*%
X60387500Y-110900000D03*
X58312500Y-110900000D03*
%TD*%
D17*
%TO.C,R30*%
X63835000Y-68770000D03*
X62185000Y-68770000D03*
%TD*%
D20*
%TO.C,R47*%
X48445000Y-72520000D03*
X50095000Y-72520000D03*
%TD*%
D15*
%TO.C,R32*%
X60650000Y-88550000D03*
X58650000Y-88550000D03*
%TD*%
D18*
%TO.C,C57*%
X50697500Y-61060000D03*
X48622500Y-61060000D03*
%TD*%
D21*
%TO.C,RV7*%
X44150000Y-65430000D03*
D22*
X41250000Y-66680000D03*
D21*
X44150000Y-67930000D03*
%TD*%
D19*
%TO.C,C64*%
X48612500Y-108120000D03*
X50687500Y-108120000D03*
%TD*%
D17*
%TO.C,R38*%
X63825000Y-144500000D03*
X62175000Y-144500000D03*
%TD*%
D14*
%TO.C,R13*%
X86990000Y-117005000D03*
X86990000Y-118655000D03*
%TD*%
D19*
%TO.C,C52*%
X71150000Y-139250000D03*
X73225000Y-139250000D03*
%TD*%
D18*
%TO.C,C36*%
X73467500Y-84140000D03*
X71392500Y-84140000D03*
%TD*%
D14*
%TO.C,R50*%
X46100000Y-116775000D03*
X46100000Y-118425000D03*
%TD*%
D15*
%TO.C,R28*%
X60420000Y-58770000D03*
X58420000Y-58770000D03*
%TD*%
D23*
%TO.C,C12*%
X90250000Y-93100000D03*
X92950000Y-93100000D03*
%TD*%
D19*
%TO.C,C27*%
X65362500Y-144800000D03*
X67437500Y-144800000D03*
%TD*%
%TO.C,C10*%
X90062500Y-90900000D03*
X92137500Y-90900000D03*
%TD*%
%TO.C,C54*%
X47652500Y-44170000D03*
X49727500Y-44170000D03*
%TD*%
D18*
%TO.C,C1*%
X82037500Y-83730000D03*
X79962500Y-83730000D03*
%TD*%
D24*
%TO.C,U10*%
X68422500Y-87725000D03*
X68422500Y-88375000D03*
X68422500Y-89025000D03*
X68422500Y-89675000D03*
X68422500Y-90325000D03*
X68422500Y-90975000D03*
X68422500Y-91625000D03*
X68422500Y-92275000D03*
X62697500Y-92275000D03*
X62697500Y-91625000D03*
X62697500Y-90975000D03*
X62697500Y-90325000D03*
X62697500Y-89675000D03*
X62697500Y-89025000D03*
X62697500Y-88375000D03*
X62697500Y-87725000D03*
%TD*%
D25*
%TO.C,R7*%
X84480000Y-51200000D03*
X84480000Y-53200000D03*
%TD*%
D20*
%TO.C,R65*%
X48455000Y-98580000D03*
X50105000Y-98580000D03*
%TD*%
D18*
%TO.C,C41*%
X60337500Y-122750000D03*
X58262500Y-122750000D03*
%TD*%
D26*
%TO.C,U19*%
X80585000Y-98955000D03*
X80585000Y-100225000D03*
X80585000Y-101495000D03*
X80585000Y-102765000D03*
X80585000Y-104035000D03*
X80585000Y-105305000D03*
X80585000Y-106575000D03*
X80585000Y-107845000D03*
X75635000Y-107845000D03*
X75635000Y-106575000D03*
X75635000Y-105305000D03*
X75635000Y-104035000D03*
X75635000Y-102765000D03*
X75635000Y-101495000D03*
X75635000Y-100225000D03*
X75635000Y-98955000D03*
%TD*%
D17*
%TO.C,R29*%
X64025000Y-93600000D03*
X62375000Y-93600000D03*
%TD*%
D24*
%TO.C,U17*%
X68422500Y-101125000D03*
X68422500Y-101775000D03*
X68422500Y-102425000D03*
X68422500Y-103075000D03*
X68422500Y-103725000D03*
X68422500Y-104375000D03*
X68422500Y-105025000D03*
X68422500Y-105675000D03*
X62697500Y-105675000D03*
X62697500Y-105025000D03*
X62697500Y-104375000D03*
X62697500Y-103725000D03*
X62697500Y-103075000D03*
X62697500Y-102425000D03*
X62697500Y-101775000D03*
X62697500Y-101125000D03*
%TD*%
D18*
%TO.C,C23*%
X60387500Y-92800000D03*
X58312500Y-92800000D03*
%TD*%
D17*
%TO.C,R20*%
X63925000Y-119700000D03*
X62275000Y-119700000D03*
%TD*%
D27*
%TO.C,C3*%
X96600000Y-85600000D03*
X96600000Y-91000000D03*
%TD*%
D15*
%TO.C,R43*%
X60300000Y-108900000D03*
X58300000Y-108900000D03*
%TD*%
D18*
%TO.C,C42*%
X73447500Y-110140000D03*
X71372500Y-110140000D03*
%TD*%
D19*
%TO.C,C56*%
X45292500Y-57530000D03*
X47367500Y-57530000D03*
%TD*%
D21*
%TO.C,RV9*%
X44170000Y-103390000D03*
D22*
X41270000Y-104640000D03*
D21*
X44170000Y-105890000D03*
%TD*%
D24*
%TO.C,U12*%
X68422500Y-126205000D03*
X68422500Y-126855000D03*
X68422500Y-127505000D03*
X68422500Y-128155000D03*
X68422500Y-128805000D03*
X68422500Y-129455000D03*
X68422500Y-130105000D03*
X68422500Y-130755000D03*
X62697500Y-130755000D03*
X62697500Y-130105000D03*
X62697500Y-129455000D03*
X62697500Y-128805000D03*
X62697500Y-128155000D03*
X62697500Y-127505000D03*
X62697500Y-126855000D03*
X62697500Y-126205000D03*
%TD*%
D18*
%TO.C,C26*%
X60657500Y-48230000D03*
X58582500Y-48230000D03*
%TD*%
%TO.C,C61*%
X51070000Y-89700000D03*
X48995000Y-89700000D03*
%TD*%
D19*
%TO.C,C15*%
X65362500Y-81400000D03*
X67437500Y-81400000D03*
%TD*%
D20*
%TO.C,R46*%
X71225000Y-80750000D03*
X72875000Y-80750000D03*
%TD*%
D15*
%TO.C,R41*%
X60300000Y-144950000D03*
X58300000Y-144950000D03*
%TD*%
D19*
%TO.C,C20*%
X65562500Y-93900000D03*
X67637500Y-93900000D03*
%TD*%
D28*
%TO.C,Q1*%
X87740000Y-83687500D03*
X85840000Y-83687500D03*
X86790000Y-81812500D03*
%TD*%
D25*
%TO.C,R19*%
X96220000Y-119560000D03*
X96220000Y-121560000D03*
%TD*%
D24*
%TO.C,U4*%
X68422500Y-113725000D03*
X68422500Y-114375000D03*
X68422500Y-115025000D03*
X68422500Y-115675000D03*
X68422500Y-116325000D03*
X68422500Y-116975000D03*
X68422500Y-117625000D03*
X68422500Y-118275000D03*
X62697500Y-118275000D03*
X62697500Y-117625000D03*
X62697500Y-116975000D03*
X62697500Y-116325000D03*
X62697500Y-115675000D03*
X62697500Y-115025000D03*
X62697500Y-114375000D03*
X62697500Y-113725000D03*
%TD*%
D29*
%TO.C,C59*%
X52600000Y-70635000D03*
X52600000Y-72710000D03*
%TD*%
D30*
%TO.C,D5*%
X87137500Y-46780000D03*
X83837500Y-46780000D03*
%TD*%
D17*
%TO.C,R21*%
X63825000Y-81100000D03*
X62175000Y-81100000D03*
%TD*%
D18*
%TO.C,C31*%
X60407500Y-72890000D03*
X58332500Y-72890000D03*
%TD*%
%TO.C,C55*%
X50807500Y-48980000D03*
X48732500Y-48980000D03*
%TD*%
D19*
%TO.C,C48*%
X71122500Y-53380000D03*
X73197500Y-53380000D03*
%TD*%
D20*
%TO.C,R53*%
X71075000Y-130750000D03*
X72725000Y-130750000D03*
%TD*%
D12*
%TO.C,R1*%
X83930000Y-83670000D03*
X83930000Y-81670000D03*
%TD*%
D14*
%TO.C,R59*%
X46050000Y-128775000D03*
X46050000Y-130425000D03*
%TD*%
D26*
%TO.C,U31*%
X46375000Y-59355000D03*
X46375000Y-60625000D03*
X46375000Y-61895000D03*
X46375000Y-63165000D03*
X41425000Y-63165000D03*
X41425000Y-61895000D03*
X41425000Y-60625000D03*
X41425000Y-59355000D03*
%TD*%
D20*
%TO.C,R45*%
X48475000Y-110600000D03*
X50125000Y-110600000D03*
%TD*%
D14*
%TO.C,R2*%
X96220000Y-60595000D03*
X96220000Y-62245000D03*
%TD*%
D21*
%TO.C,RV8*%
X44160000Y-139420000D03*
D22*
X41260000Y-140670000D03*
D21*
X44160000Y-141920000D03*
%TD*%
D17*
%TO.C,R12*%
X85505000Y-115750000D03*
X83855000Y-115750000D03*
%TD*%
%TO.C,R22*%
X63795000Y-56710000D03*
X62145000Y-56710000D03*
%TD*%
D15*
%TO.C,R26*%
X60450000Y-82750000D03*
X58450000Y-82750000D03*
%TD*%
D19*
%TO.C,C14*%
X65462500Y-120000000D03*
X67537500Y-120000000D03*
%TD*%
D26*
%TO.C,U13*%
X80585000Y-85555000D03*
X80585000Y-86825000D03*
X80585000Y-88095000D03*
X80585000Y-89365000D03*
X80585000Y-90635000D03*
X80585000Y-91905000D03*
X80585000Y-93175000D03*
X80585000Y-94445000D03*
X75635000Y-94445000D03*
X75635000Y-93175000D03*
X75635000Y-91905000D03*
X75635000Y-90635000D03*
X75635000Y-89365000D03*
X75635000Y-88095000D03*
X75635000Y-86825000D03*
X75635000Y-85555000D03*
%TD*%
D20*
%TO.C,R49*%
X48535000Y-47210000D03*
X50185000Y-47210000D03*
%TD*%
D26*
%TO.C,U30*%
X46405000Y-83335000D03*
X46405000Y-84605000D03*
X46405000Y-85875000D03*
X46405000Y-87145000D03*
X41455000Y-87145000D03*
X41455000Y-85875000D03*
X41455000Y-84605000D03*
X41455000Y-83335000D03*
%TD*%
D12*
%TO.C,R3*%
X94110000Y-56840000D03*
X94110000Y-54840000D03*
%TD*%
D21*
%TO.C,RV6*%
X44180000Y-89460000D03*
D22*
X41280000Y-90710000D03*
D21*
X44180000Y-91960000D03*
%TD*%
D18*
%TO.C,C44*%
X60387500Y-134900000D03*
X58312500Y-134900000D03*
%TD*%
D19*
%TO.C,C62*%
X48592500Y-95870000D03*
X50667500Y-95870000D03*
%TD*%
D20*
%TO.C,R62*%
X70925000Y-142750000D03*
X72575000Y-142750000D03*
%TD*%
D25*
%TO.C,R40*%
X60650000Y-139000000D03*
X60650000Y-141000000D03*
%TD*%
D15*
%TO.C,R34*%
X60650000Y-64700000D03*
X58650000Y-64700000D03*
%TD*%
D20*
%TO.C,R44*%
X70875000Y-118700000D03*
X72525000Y-118700000D03*
%TD*%
D15*
%TO.C,R8*%
X90730000Y-46800000D03*
X88730000Y-46800000D03*
%TD*%
D26*
%TO.C,U18*%
X80585000Y-136535000D03*
X80585000Y-137805000D03*
X80585000Y-139075000D03*
X80585000Y-140345000D03*
X80585000Y-141615000D03*
X80585000Y-142885000D03*
X80585000Y-144155000D03*
X80585000Y-145425000D03*
X75635000Y-145425000D03*
X75635000Y-144155000D03*
X75635000Y-142885000D03*
X75635000Y-141615000D03*
X75635000Y-140345000D03*
X75635000Y-139075000D03*
X75635000Y-137805000D03*
X75635000Y-136535000D03*
%TD*%
D15*
%TO.C,R27*%
X60650000Y-52500000D03*
X58650000Y-52500000D03*
%TD*%
D19*
%TO.C,C58*%
X48642500Y-70680000D03*
X50717500Y-70680000D03*
%TD*%
D31*
%TO.C,C7*%
X90060000Y-58827500D03*
X90060000Y-56752500D03*
%TD*%
D18*
%TO.C,C65*%
X51057500Y-115710000D03*
X48982500Y-115710000D03*
%TD*%
D19*
%TO.C,C60*%
X48662500Y-82240000D03*
X50737500Y-82240000D03*
%TD*%
D29*
%TO.C,C11*%
X92110000Y-56742500D03*
X92110000Y-58817500D03*
%TD*%
D18*
%TO.C,C6*%
X86780000Y-49110000D03*
X84705000Y-49110000D03*
%TD*%
D20*
%TO.C,R18*%
X89095000Y-109930000D03*
X90745000Y-109930000D03*
%TD*%
D21*
%TO.C,RV4*%
X44140000Y-52610000D03*
D22*
X41240000Y-53860000D03*
D21*
X44140000Y-55110000D03*
%TD*%
D18*
%TO.C,C25*%
X60387500Y-130900000D03*
X58312500Y-130900000D03*
%TD*%
%TO.C,C63*%
X51087500Y-103710000D03*
X49012500Y-103710000D03*
%TD*%
%TO.C,C29*%
X73407500Y-48190000D03*
X71332500Y-48190000D03*
%TD*%
D20*
%TO.C,R55*%
X71275000Y-92700000D03*
X72925000Y-92700000D03*
%TD*%
D26*
%TO.C,U14*%
X80585000Y-124035000D03*
X80585000Y-125305000D03*
X80585000Y-126575000D03*
X80585000Y-127845000D03*
X80585000Y-129115000D03*
X80585000Y-130385000D03*
X80585000Y-131655000D03*
X80585000Y-132925000D03*
X75635000Y-132925000D03*
X75635000Y-131655000D03*
X75635000Y-130385000D03*
X75635000Y-129115000D03*
X75635000Y-127845000D03*
X75635000Y-126575000D03*
X75635000Y-125305000D03*
X75635000Y-124035000D03*
%TD*%
D21*
%TO.C,RV5*%
X44210000Y-127420000D03*
D22*
X41310000Y-128670000D03*
D21*
X44210000Y-129920000D03*
%TD*%
D19*
%TO.C,C50*%
X71112500Y-89250000D03*
X73187500Y-89250000D03*
%TD*%
%TO.C,C18*%
X58462500Y-80750000D03*
X60537500Y-80750000D03*
%TD*%
%TO.C,C49*%
X71112500Y-127250000D03*
X73187500Y-127250000D03*
%TD*%
D20*
%TO.C,R48*%
X71355000Y-56910000D03*
X73005000Y-56910000D03*
%TD*%
D18*
%TO.C,C38*%
X60387500Y-106900000D03*
X58312500Y-106900000D03*
%TD*%
D26*
%TO.C,U1*%
X91725000Y-51105000D03*
X91725000Y-52375000D03*
X91725000Y-53645000D03*
X91725000Y-54915000D03*
X86775000Y-54915000D03*
X86775000Y-53645000D03*
X86775000Y-52375000D03*
X86775000Y-51105000D03*
%TD*%
D18*
%TO.C,C33*%
X60487500Y-84750000D03*
X58412500Y-84750000D03*
%TD*%
D19*
%TO.C,C66*%
X48592500Y-120050000D03*
X50667500Y-120050000D03*
%TD*%
%TO.C,C19*%
X58412500Y-56720000D03*
X60487500Y-56720000D03*
%TD*%
D20*
%TO.C,R54*%
X48425000Y-122650000D03*
X50075000Y-122650000D03*
%TD*%
D24*
%TO.C,U5*%
X68422500Y-75225000D03*
X68422500Y-75875000D03*
X68422500Y-76525000D03*
X68422500Y-77175000D03*
X68422500Y-77825000D03*
X68422500Y-78475000D03*
X68422500Y-79125000D03*
X68422500Y-79775000D03*
X62697500Y-79775000D03*
X62697500Y-79125000D03*
X62697500Y-78475000D03*
X62697500Y-77825000D03*
X62697500Y-77175000D03*
X62697500Y-76525000D03*
X62697500Y-75875000D03*
X62697500Y-75225000D03*
%TD*%
D18*
%TO.C,C45*%
X73457500Y-134130000D03*
X71382500Y-134130000D03*
%TD*%
D19*
%TO.C,C21*%
X65442500Y-68860000D03*
X67517500Y-68860000D03*
%TD*%
D20*
%TO.C,R57*%
X71275000Y-68800000D03*
X72925000Y-68800000D03*
%TD*%
D19*
%TO.C,C51*%
X71122500Y-65140000D03*
X73197500Y-65140000D03*
%TD*%
D18*
%TO.C,C34*%
X73467500Y-72160000D03*
X71392500Y-72160000D03*
%TD*%
D19*
%TO.C,C22*%
X65162500Y-132400000D03*
X67237500Y-132400000D03*
%TD*%
D15*
%TO.C,R35*%
X60410000Y-70850000D03*
X58410000Y-70850000D03*
%TD*%
D19*
%TO.C,C24*%
X58392500Y-68790000D03*
X60467500Y-68790000D03*
%TD*%
D15*
%TO.C,R42*%
X60650000Y-102550000D03*
X58650000Y-102550000D03*
%TD*%
D32*
%TO.C,R68*%
X96900000Y-113175000D03*
X96900000Y-111525000D03*
%TD*%
D17*
%TO.C,R11*%
X85495000Y-114100000D03*
X83845000Y-114100000D03*
%TD*%
D15*
%TO.C,R33*%
X60300000Y-94800000D03*
X58300000Y-94800000D03*
%TD*%
D17*
%TO.C,R4*%
X95465000Y-51070000D03*
X93815000Y-51070000D03*
%TD*%
D18*
%TO.C,C30*%
X60657500Y-60810000D03*
X58582500Y-60810000D03*
%TD*%
D14*
%TO.C,R51*%
X46060000Y-78575000D03*
X46060000Y-80225000D03*
%TD*%
D24*
%TO.C,U6*%
X68422500Y-50345000D03*
X68422500Y-50995000D03*
X68422500Y-51645000D03*
X68422500Y-52295000D03*
X68422500Y-52945000D03*
X68422500Y-53595000D03*
X68422500Y-54245000D03*
X68422500Y-54895000D03*
X62697500Y-54895000D03*
X62697500Y-54245000D03*
X62697500Y-53595000D03*
X62697500Y-52945000D03*
X62697500Y-52295000D03*
X62697500Y-51645000D03*
X62697500Y-50995000D03*
X62697500Y-50345000D03*
%TD*%
D26*
%TO.C,U25*%
X46375000Y-46545000D03*
X46375000Y-47815000D03*
X46375000Y-49085000D03*
X46375000Y-50355000D03*
X41425000Y-50355000D03*
X41425000Y-49085000D03*
X41425000Y-47815000D03*
X41425000Y-46545000D03*
%TD*%
D33*
%TO.C,D2*%
X98430000Y-56507500D03*
X98430000Y-58557500D03*
%TD*%
D20*
%TO.C,R9*%
X85385000Y-43880000D03*
X87035000Y-43880000D03*
%TD*%
D26*
%TO.C,U29*%
X46425000Y-121355000D03*
X46425000Y-122625000D03*
X46425000Y-123895000D03*
X46425000Y-125165000D03*
X41475000Y-125165000D03*
X41475000Y-123895000D03*
X41475000Y-122625000D03*
X41475000Y-121355000D03*
%TD*%
D24*
%TO.C,U11*%
X68422500Y-62725000D03*
X68422500Y-63375000D03*
X68422500Y-64025000D03*
X68422500Y-64675000D03*
X68422500Y-65325000D03*
X68422500Y-65975000D03*
X68422500Y-66625000D03*
X68422500Y-67275000D03*
X62697500Y-67275000D03*
X62697500Y-66625000D03*
X62697500Y-65975000D03*
X62697500Y-65325000D03*
X62697500Y-64675000D03*
X62697500Y-64025000D03*
X62697500Y-63375000D03*
X62697500Y-62725000D03*
%TD*%
D14*
%TO.C,R67*%
X46050000Y-104775000D03*
X46050000Y-106425000D03*
%TD*%
D15*
%TO.C,R23*%
X60650000Y-114550000D03*
X58650000Y-114550000D03*
%TD*%
D19*
%TO.C,C2*%
X92137500Y-88800000D03*
X90062500Y-88800000D03*
%TD*%
D18*
%TO.C,C17*%
X60387500Y-118750000D03*
X58312500Y-118750000D03*
%TD*%
D24*
%TO.C,U16*%
X68422500Y-138705000D03*
X68422500Y-139355000D03*
X68422500Y-140005000D03*
X68422500Y-140655000D03*
X68422500Y-141305000D03*
X68422500Y-141955000D03*
X68422500Y-142605000D03*
X68422500Y-143255000D03*
X62697500Y-143255000D03*
X62697500Y-142605000D03*
X62697500Y-141955000D03*
X62697500Y-141305000D03*
X62697500Y-140655000D03*
X62697500Y-140005000D03*
X62697500Y-139355000D03*
X62697500Y-138705000D03*
%TD*%
D19*
%TO.C,C16*%
X66502500Y-56460000D03*
X68577500Y-56460000D03*
%TD*%
D21*
%TO.C,RV2*%
X44220000Y-115400000D03*
D22*
X41320000Y-116650000D03*
D21*
X44220000Y-117900000D03*
%TD*%
D29*
%TO.C,C67*%
X52600000Y-120042500D03*
X52600000Y-122117500D03*
%TD*%
D18*
%TO.C,C39*%
X73467500Y-98110000D03*
X71392500Y-98110000D03*
%TD*%
D15*
%TO.C,R37*%
X60300000Y-132900000D03*
X58300000Y-132900000D03*
%TD*%
D26*
%TO.C,U8*%
X80585000Y-73055000D03*
X80585000Y-74325000D03*
X80585000Y-75595000D03*
X80585000Y-76865000D03*
X80585000Y-78135000D03*
X80585000Y-79405000D03*
X80585000Y-80675000D03*
X80585000Y-81945000D03*
X75635000Y-81945000D03*
X75635000Y-80675000D03*
X75635000Y-79405000D03*
X75635000Y-78135000D03*
X75635000Y-76865000D03*
X75635000Y-75595000D03*
X75635000Y-74325000D03*
X75635000Y-73055000D03*
%TD*%
D19*
%TO.C,C47*%
X71142500Y-77120000D03*
X73217500Y-77120000D03*
%TD*%
D18*
%TO.C,C5*%
X96187500Y-58800000D03*
X94112500Y-58800000D03*
%TD*%
D15*
%TO.C,R25*%
X60650000Y-76700000D03*
X58650000Y-76700000D03*
%TD*%
D17*
%TO.C,R52*%
X43315000Y-57520000D03*
X41665000Y-57520000D03*
%TD*%
D14*
%TO.C,R16*%
X91700000Y-116995000D03*
X91700000Y-118645000D03*
%TD*%
D20*
%TO.C,R58*%
X48435000Y-59320000D03*
X50085000Y-59320000D03*
%TD*%
D17*
%TO.C,R10*%
X85495000Y-112410000D03*
X83845000Y-112410000D03*
%TD*%
D18*
%TO.C,C43*%
X73467500Y-122110000D03*
X71392500Y-122110000D03*
%TD*%
D26*
%TO.C,U24*%
X46417000Y-71247000D03*
X46417000Y-72517000D03*
X46417000Y-73787000D03*
X46417000Y-75057000D03*
X41467000Y-75057000D03*
X41467000Y-73787000D03*
X41467000Y-72517000D03*
X41467000Y-71247000D03*
%TD*%
D31*
%TO.C,C69*%
X51050000Y-139037500D03*
X51050000Y-136962500D03*
%TD*%
D14*
%TO.C,R17*%
X93280000Y-116995000D03*
X93280000Y-118645000D03*
%TD*%
D34*
%TO.C,D3*%
X91642500Y-71650000D03*
X89592500Y-71650000D03*
%TD*%
D18*
%TO.C,C37*%
X60387500Y-142910000D03*
X58312500Y-142910000D03*
%TD*%
D13*
%TO.C,R5*%
X91810000Y-49180000D03*
X93810000Y-49180000D03*
%TD*%
D14*
%TO.C,R60*%
X46050000Y-90775000D03*
X46050000Y-92425000D03*
%TD*%
D17*
%TO.C,R31*%
X63625000Y-132100000D03*
X61975000Y-132100000D03*
%TD*%
D14*
%TO.C,R61*%
X45974000Y-66739000D03*
X45974000Y-68389000D03*
%TD*%
D19*
%TO.C,C46*%
X71062500Y-115250000D03*
X73137500Y-115250000D03*
%TD*%
D18*
%TO.C,C35*%
X60887500Y-98800000D03*
X58812500Y-98800000D03*
%TD*%
D35*
%TO.C,D4*%
X89827500Y-81810000D03*
X91877500Y-81810000D03*
%TD*%
D26*
%TO.C,U7*%
X80585000Y-112055000D03*
X80585000Y-113325000D03*
X80585000Y-114595000D03*
X80585000Y-115865000D03*
X80585000Y-117135000D03*
X80585000Y-118405000D03*
X80585000Y-119675000D03*
X80585000Y-120945000D03*
X75635000Y-120945000D03*
X75635000Y-119675000D03*
X75635000Y-118405000D03*
X75635000Y-117135000D03*
X75635000Y-115865000D03*
X75635000Y-114595000D03*
X75635000Y-113325000D03*
X75635000Y-112055000D03*
%TD*%
%TO.C,U35*%
X46405000Y-97315000D03*
X46405000Y-98585000D03*
X46405000Y-99855000D03*
X46405000Y-101125000D03*
X41455000Y-101125000D03*
X41455000Y-99855000D03*
X41455000Y-98585000D03*
X41455000Y-97315000D03*
%TD*%
D20*
%TO.C,R64*%
X71275000Y-106700000D03*
X72925000Y-106700000D03*
%TD*%
D26*
%TO.C,U34*%
X46385000Y-133345000D03*
X46385000Y-134615000D03*
X46385000Y-135885000D03*
X46385000Y-137155000D03*
X41435000Y-137155000D03*
X41435000Y-135885000D03*
X41435000Y-134615000D03*
X41435000Y-133345000D03*
%TD*%
D19*
%TO.C,C68*%
X48552500Y-132050000D03*
X50627500Y-132050000D03*
%TD*%
D29*
%TO.C,C13*%
X95010000Y-111102500D03*
X95010000Y-113177500D03*
%TD*%
D36*
%TO.C,C4*%
X85200000Y-76510000D03*
X90600000Y-76510000D03*
%TD*%
D26*
%TO.C,U2*%
X92485000Y-111595000D03*
X92485000Y-112865000D03*
X92485000Y-114135000D03*
X92485000Y-115405000D03*
X87535000Y-115405000D03*
X87535000Y-114135000D03*
X87535000Y-112865000D03*
X87535000Y-111595000D03*
%TD*%
D14*
%TO.C,R15*%
X90140000Y-117005000D03*
X90140000Y-118655000D03*
%TD*%
D19*
%TO.C,C53*%
X71112500Y-103150000D03*
X73187500Y-103150000D03*
%TD*%
D15*
%TO.C,R24*%
X60300000Y-120750000D03*
X58300000Y-120750000D03*
%TD*%
D21*
%TO.C,RV3*%
X44210000Y-77320000D03*
D22*
X41310000Y-78570000D03*
D21*
X44210000Y-79820000D03*
%TD*%
D26*
%TO.C,U15*%
X80585000Y-60555000D03*
X80585000Y-61825000D03*
X80585000Y-63095000D03*
X80585000Y-64365000D03*
X80585000Y-65635000D03*
X80585000Y-66905000D03*
X80585000Y-68175000D03*
X80585000Y-69445000D03*
X75635000Y-69445000D03*
X75635000Y-68175000D03*
X75635000Y-66905000D03*
X75635000Y-65635000D03*
X75635000Y-64365000D03*
X75635000Y-63095000D03*
X75635000Y-61825000D03*
X75635000Y-60555000D03*
%TD*%
%TO.C,U23*%
X46445000Y-109315000D03*
X46445000Y-110585000D03*
X46445000Y-111855000D03*
X46445000Y-113125000D03*
X41495000Y-113125000D03*
X41495000Y-111855000D03*
X41495000Y-110585000D03*
X41495000Y-109315000D03*
%TD*%
D20*
%TO.C,R6*%
X86685000Y-56650000D03*
X88335000Y-56650000D03*
%TD*%
D33*
%TO.C,D1*%
X96190000Y-54480000D03*
X96190000Y-56530000D03*
%TD*%
D18*
%TO.C,C32*%
X73407500Y-60060000D03*
X71332500Y-60060000D03*
%TD*%
D20*
%TO.C,R56*%
X48455000Y-84590000D03*
X50105000Y-84590000D03*
%TD*%
M02*
