M48
; DRILL file {KiCad (6.0.1)} date Tue Mar  7 05:59:18 2023
; FORMAT={-:-/ absolute / inch / decimal}
; #@! TF.CreationDate,2023-03-07T05:59:18-08:00
; #@! TF.GenerationSoftware,Kicad,Pcbnew,(6.0.1)
; #@! TF.FileFunction,Plated,1,4,PTH
FMAT,2
INCH
; #@! TA.AperFunction,Plated,PTH,ViaDrill
T1C0.0079
; #@! TA.AperFunction,Plated,PTH,ViaDrill
T2C0.0157
; #@! TA.AperFunction,Plated,PTH,ComponentDrill
T3C0.0394
; #@! TA.AperFunction,Plated,PTH,ComponentDrill
T4C0.0472
; #@! TA.AperFunction,Plated,PTH,ComponentDrill
T5C0.0591
; #@! TA.AperFunction,Plated,PTH,ComponentDrill
T6C0.0630
%
G90
G05
T1
X1.5906Y-2.1181
X1.5906Y-4.185
X1.9508Y-3.837
X1.9508Y-5.6567
X1.9882Y-3.937
X1.9882Y-4.6358
X1.9941Y-2.7067
X2.014Y-4.2006
X2.0458Y-1.9975
X2.0709Y-3.0482
X2.074Y-1.8943
X2.074Y-2.4656
X2.074Y-2.5602
X2.074Y-3.2378
X2.074Y-4.0976
X2.0748Y-2.7382
X2.1476Y-2.8543
X2.1476Y-5.2736
X2.1693Y-3.6142
X2.1697Y-4.037
X2.1709Y-2.9059
X2.1772Y-5.1457
X2.1917Y-2.8059
X2.1961Y-2.7059
X2.1976Y-4.137
X2.2047Y-3.837
X2.2717Y-2.3199
X2.2717Y-2.4665
X2.2724Y-2.6406
X2.2736Y-2.9469
X2.2736Y-3.0453
X2.2736Y-4.689
X2.3528Y-3.1024
X2.3528Y-4.037
X2.3642Y-2.1772
X2.4016Y-2.5886
X2.4024Y-4.0976
X2.4252Y-5.0039
X2.4253Y-5.1731
X2.4272Y-5.5
X2.4273Y-5.6574
X2.4331Y-3.9843
X2.4331Y-4.6555
X2.4332Y-4.179
X2.437Y-4.5354
X2.4488Y-2.4665
X2.4685Y-3.6319
X2.5866Y-3.6329
X2.6057Y-2.7407
X2.6057Y-2.8549
X2.6259Y-3.9548
X2.6259Y-4.179
X2.6259Y-5.1731
X2.6259Y-5.6574
X2.6644Y-2.9616
X2.6659Y-5.0199
X2.6661Y-3.4543
X2.6667Y-3.5049
X2.6675Y-2.5207
X2.6683Y-3.0128
X2.6683Y-4.0325
X2.6687Y-2.4695
X2.6691Y-4.5285
X2.6693Y-4.6565
X2.6695Y-5.512
X2.6699Y-5.4608
X2.7008Y-2.2402
X2.7323Y-5.4331
X2.8112Y-5.512
X2.8917Y-2.5209
X2.8927Y-4.0325
X2.8937Y-3.5305
X2.8967Y-3.5049
X2.8967Y-4.5285
X2.9094Y-2.9498
X2.9094Y-4.4646
X2.9104Y-4.0581
X2.9114Y-4.9547
X2.9152Y-4.9861
X2.9232Y-5.4587
X2.9291Y-3.4685
X2.9646Y-4.3346
X3.0256Y-4.411
X3.0274Y-2.4841
X3.0274Y-4.9333
X3.0305Y-3.4183
X3.0305Y-3.6683
X3.0305Y-5.7254
X3.0313Y-2.3841
X3.0313Y-5.4254
X3.0327Y-5.376
X3.0344Y-4.8833
X3.036Y-2.8762
X3.036Y-3.3683
X3.0394Y-3.2953
X3.0541Y-2.9262
X3.0945Y-4.5157
X3.0945Y-4.9833
X3.1171Y-4.4616
X3.1179Y-4.9333
X3.1181Y-3.1614
X3.1183Y-3.4683
X3.1191Y-5.4754
X3.1195Y-4.6116
X3.1211Y-2.9498
X3.122Y-5.1339
X3.1222Y-3.9959
X3.1258Y-2.4841
X3.2756Y-3.4528
X3.3335Y-1.7276
X3.3601Y-4.3023
X3.3701Y-4.3963
X3.3724Y-3.2378
X3.4163Y-1.9848
X3.4559Y-1.7276
X3.4567Y-3.3425
X3.4567Y-3.5827
X3.5273Y-2.7688
X3.5365Y-3.1672
X3.5415Y-4.5435
X3.5669Y-3.0638
X3.5768Y-5.2736
X3.5886Y-2.1914
X3.5886Y-2.3562
X3.5898Y-3.452
X3.6181Y-4.1201
X3.6461Y-2.1335
X3.663Y-2.9059
X3.6766Y-2.2093
X3.6947Y-4.5435
X3.7076Y-4.3412
X3.7502Y-2.4132
X3.7882Y-4.6594
X3.8256Y-2.1449
X3.8346Y-4.0984
X3.8459Y-1.8313
X3.8659Y-4.2207
X3.8738Y-5.1301
X3.874Y-1.9882
X3.8752Y-2.3516
X3.8996Y-4.998
X3.9055Y-2.7205
X3.9232Y-2.1063
X3.9252Y-2.2992
X3.936Y-4.4331
X3.938Y-5.2825
X3.9409Y-3.7992
X3.9419Y-4.2943
X3.9488Y-5.1929
X3.9537Y-2.6683
X3.9537Y-3.4656
X3.9606Y-4.811
X3.9705Y-5.5354
X3.9764Y-5.3996
X3.9778Y-2.4238
X3.9813Y-3.6841
X3.9843Y-2.9882
X3.9955Y-1.8943
X4.0278Y-2.7242
X4.03Y-4.7357
X4.0394Y-2.2559
X4.0404Y-3.1112
X4.0429Y-4.2673
X4.0571Y-2.7795
X4.0585Y-1.9573
X4.0786Y-4.4923
X4.1575Y-2.4921
X4.3425Y-1.622
X4.3425Y-1.9606
X4.3425Y-2.2165
X4.3425Y-2.5276
X4.3425Y-2.9843
X4.3425Y-3.748
X4.3425Y-4.4921
X4.3425Y-4.7756
X4.3425Y-5.5354
T2
X2.978Y-3.8594
X3.2697Y-3.652
X3.874Y-3.3701
T3
X3.4457Y-4.2531
X3.5441Y-4.2531
X3.6425Y-4.2531
T4
X2.1732Y-2.4559
X2.1732Y-3.0559
X2.1732Y-3.787
X2.1732Y-4.087
T5
X1.7717Y-1.7236
X1.7717Y-2.074
X1.7717Y-2.2354
X1.7717Y-2.5858
X1.7717Y-2.7472
X1.7717Y-3.0976
X1.7717Y-3.2591
X1.7717Y-3.6094
X1.7717Y-3.7709
X1.7717Y-4.1213
X1.7717Y-4.2827
X1.7717Y-4.6331
X1.7717Y-4.7945
X1.7717Y-5.1449
X1.7717Y-5.3063
X1.7717Y-5.6567
X1.8307Y-1.8083
X1.8307Y-1.9835
X1.8307Y-2.3201
X1.8307Y-2.4953
X1.8307Y-2.8319
X1.8307Y-3.0071
X1.8307Y-3.3437
X1.8307Y-3.5189
X1.8307Y-3.8555
X1.8307Y-4.0307
X1.8307Y-4.3673
X1.8307Y-4.5425
X1.8307Y-4.8791
X1.8307Y-5.0543
X1.8307Y-5.3909
X1.8307Y-5.5661
X3.4378Y-2.5531
X3.4378Y-4.9941
X3.5224Y-2.4941
X3.5224Y-4.935
X3.6976Y-2.4941
X3.6976Y-4.935
X3.7882Y-2.5531
X3.7882Y-4.9941
X4.1142Y-1.8732
X4.1142Y-2.0484
X4.1142Y-2.385
X4.1142Y-2.5602
X4.1142Y-2.8969
X4.1142Y-3.072
X4.1142Y-3.4087
X4.1142Y-3.5839
X4.1142Y-3.9205
X4.1142Y-4.0957
X4.1142Y-4.4323
X4.1142Y-4.6075
X4.1142Y-4.9441
X4.1142Y-5.1193
X4.1142Y-5.4559
X4.1142Y-5.6311
X4.1732Y-1.7827
X4.1732Y-2.1331
X4.1732Y-2.2945
X4.1732Y-2.6449
X4.1732Y-2.8063
X4.1732Y-3.1567
X4.1732Y-3.3181
X4.1732Y-3.6685
X4.1732Y-3.8299
X4.1732Y-4.1803
X4.1732Y-4.3417
X4.1732Y-4.6921
X4.1732Y-4.8535
X4.1732Y-5.2039
X4.1732Y-5.3654
X4.1732Y-5.7157
T6
X1.6713Y-1.7654
X1.6713Y-2.2772
X1.6713Y-2.789
X1.6713Y-3.3008
X1.6713Y-3.8126
X1.6713Y-4.3244
X1.6713Y-4.8362
X1.6713Y-5.348
X2.2945Y-5.7854
X3.4713Y-5.7854
X3.4795Y-2.6535
X3.4795Y-5.0945
X4.2736Y-2.0913
X4.2736Y-2.6031
X4.2736Y-3.115
X4.2736Y-3.6268
X4.2736Y-4.1386
X4.2736Y-4.6504
X4.2736Y-5.1622
X4.2736Y-5.674
T6
G00X1.6713Y-2.0087
M15
G01X1.6713Y-2.048
M16
G05
G00X1.6713Y-2.5205
M15
G01X1.6713Y-2.5598
M16
G05
G00X1.6713Y-3.0323
M15
G01X1.6713Y-3.0717
M16
G05
G00X1.6713Y-3.5441
M15
G01X1.6713Y-3.5835
M16
G05
G00X1.6713Y-4.0559
M15
G01X1.6713Y-4.0953
M16
G05
G00X1.6713Y-4.5677
M15
G01X1.6713Y-4.6071
M16
G05
G00X1.6713Y-5.0795
M15
G01X1.6713Y-5.1189
M16
G05
G00X1.6713Y-5.5913
M15
G01X1.6713Y-5.6307
M16
G05
G00X3.7228Y-2.6535
M15
G01X3.7622Y-2.6535
M16
G05
G00X3.7228Y-5.0945
M15
G01X3.7622Y-5.0945
M16
G05
G00X4.2736Y-1.848
M15
G01X4.2736Y-1.8087
M16
G05
G00X4.2736Y-2.3598
M15
G01X4.2736Y-2.3205
M16
G05
G00X4.2736Y-2.8717
M15
G01X4.2736Y-2.8323
M16
G05
G00X4.2736Y-3.3835
M15
G01X4.2736Y-3.3441
M16
G05
G00X4.2736Y-3.8953
M15
G01X4.2736Y-3.8559
M16
G05
G00X4.2736Y-4.4071
M15
G01X4.2736Y-4.3677
M16
G05
G00X4.2736Y-4.9189
M15
G01X4.2736Y-4.8795
M16
G05
G00X4.2736Y-5.4307
M15
G01X4.2736Y-5.3913
M16
G05
T0
M30
