%TF.GenerationSoftware,KiCad,Pcbnew,(6.0.1)*%
%TF.CreationDate,2023-03-15T08:08:40-07:00*%
%TF.ProjectId,pipes_main,70697065-735f-46d6-9169-6e2e6b696361,rev?*%
%TF.SameCoordinates,Original*%
%TF.FileFunction,Paste,Bot*%
%TF.FilePolarity,Positive*%
%FSLAX46Y46*%
G04 Gerber Fmt 4.6, Leading zero omitted, Abs format (unit mm)*
G04 Created by KiCad (PCBNEW (6.0.1)) date 2023-03-15 08:08:40*
%MOMM*%
%LPD*%
G01*
G04 APERTURE LIST*
G04 Aperture macros list*
%AMRoundRect*
0 Rectangle with rounded corners*
0 $1 Rounding radius*
0 $2 $3 $4 $5 $6 $7 $8 $9 X,Y pos of 4 corners*
0 Add a 4 corners polygon primitive as box body*
4,1,4,$2,$3,$4,$5,$6,$7,$8,$9,$2,$3,0*
0 Add four circle primitives for the rounded corners*
1,1,$1+$1,$2,$3*
1,1,$1+$1,$4,$5*
1,1,$1+$1,$6,$7*
1,1,$1+$1,$8,$9*
0 Add four rect primitives between the rounded corners*
20,1,$1+$1,$2,$3,$4,$5,0*
20,1,$1+$1,$4,$5,$6,$7,0*
20,1,$1+$1,$6,$7,$8,$9,0*
20,1,$1+$1,$8,$9,$2,$3,0*%
G04 Aperture macros list end*
%ADD10RoundRect,0.250000X-0.450000X0.325000X-0.450000X-0.325000X0.450000X-0.325000X0.450000X0.325000X0*%
%ADD11R,1.500000X2.000000*%
%ADD12R,3.800000X2.000000*%
%ADD13RoundRect,0.250000X0.350000X0.450000X-0.350000X0.450000X-0.350000X-0.450000X0.350000X-0.450000X0*%
%ADD14RoundRect,0.150000X0.587500X0.150000X-0.587500X0.150000X-0.587500X-0.150000X0.587500X-0.150000X0*%
%ADD15RoundRect,0.200000X0.200000X0.275000X-0.200000X0.275000X-0.200000X-0.275000X0.200000X-0.275000X0*%
%ADD16RoundRect,0.250000X-0.350000X-0.450000X0.350000X-0.450000X0.350000X0.450000X-0.350000X0.450000X0*%
%ADD17RoundRect,0.250000X0.337500X0.475000X-0.337500X0.475000X-0.337500X-0.475000X0.337500X-0.475000X0*%
%ADD18RoundRect,0.250000X-0.337500X-0.475000X0.337500X-0.475000X0.337500X0.475000X-0.337500X0.475000X0*%
%ADD19RoundRect,0.250000X0.475000X-0.337500X0.475000X0.337500X-0.475000X0.337500X-0.475000X-0.337500X0*%
%ADD20RoundRect,0.250000X0.450000X-0.325000X0.450000X0.325000X-0.450000X0.325000X-0.450000X-0.325000X0*%
%ADD21RoundRect,0.250000X0.450000X-0.350000X0.450000X0.350000X-0.450000X0.350000X-0.450000X-0.350000X0*%
%ADD22R,1.300000X1.600000*%
%ADD23R,2.000000X1.600000*%
%ADD24R,1.600000X1.300000*%
%ADD25R,1.600000X2.000000*%
%ADD26RoundRect,0.150000X-0.150000X0.825000X-0.150000X-0.825000X0.150000X-0.825000X0.150000X0.825000X0*%
%ADD27RoundRect,0.250000X0.325000X0.450000X-0.325000X0.450000X-0.325000X-0.450000X0.325000X-0.450000X0*%
%ADD28RoundRect,0.250000X-0.450000X-0.425000X0.450000X-0.425000X0.450000X0.425000X-0.450000X0.425000X0*%
%ADD29RoundRect,0.100000X0.637500X0.100000X-0.637500X0.100000X-0.637500X-0.100000X0.637500X-0.100000X0*%
%ADD30RoundRect,0.250000X-0.450000X0.350000X-0.450000X-0.350000X0.450000X-0.350000X0.450000X0.350000X0*%
%ADD31RoundRect,0.150000X0.825000X0.150000X-0.825000X0.150000X-0.825000X-0.150000X0.825000X-0.150000X0*%
%ADD32RoundRect,0.250000X-0.475000X0.337500X-0.475000X-0.337500X0.475000X-0.337500X0.475000X0.337500X0*%
%ADD33RoundRect,0.150000X0.150000X-0.587500X0.150000X0.587500X-0.150000X0.587500X-0.150000X-0.587500X0*%
%ADD34R,0.900000X1.200000*%
%ADD35R,3.000000X1.000000*%
%ADD36RoundRect,0.250000X-0.325000X-0.450000X0.325000X-0.450000X0.325000X0.450000X-0.325000X0.450000X0*%
%ADD37RoundRect,0.200000X-0.275000X0.200000X-0.275000X-0.200000X0.275000X-0.200000X0.275000X0.200000X0*%
%ADD38R,2.000000X1.500000*%
%ADD39R,2.000000X3.800000*%
%ADD40RoundRect,0.200000X-0.200000X-0.275000X0.200000X-0.275000X0.200000X0.275000X-0.200000X0.275000X0*%
%ADD41RoundRect,0.250000X0.325000X0.650000X-0.325000X0.650000X-0.325000X-0.650000X0.325000X-0.650000X0*%
G04 APERTURE END LIST*
D10*
%TO.C,D15*%
X100600000Y-54375000D03*
X100600000Y-56425000D03*
%TD*%
D11*
%TO.C,U3*%
X83200000Y-86300000D03*
X85500000Y-86300000D03*
D12*
X85500000Y-92600000D03*
D11*
X87800000Y-86300000D03*
%TD*%
D13*
%TO.C,R36*%
X64700000Y-125100000D03*
X62700000Y-125100000D03*
%TD*%
D14*
%TO.C,Q2*%
X90737500Y-42930000D03*
X90737500Y-44830000D03*
X88862500Y-43880000D03*
%TD*%
D15*
%TO.C,R39*%
X64925000Y-105100000D03*
X63275000Y-105100000D03*
%TD*%
D13*
%TO.C,R82*%
X105450000Y-121250000D03*
X103450000Y-121250000D03*
%TD*%
D16*
%TO.C,R27*%
X100300000Y-60500000D03*
X102300000Y-60500000D03*
%TD*%
D17*
%TO.C,C8*%
X85347500Y-110490000D03*
X83272500Y-110490000D03*
%TD*%
D18*
%TO.C,C28*%
X69262500Y-107300000D03*
X71337500Y-107300000D03*
%TD*%
D17*
%TO.C,C9*%
X96917500Y-115400000D03*
X94842500Y-115400000D03*
%TD*%
D19*
%TO.C,C40*%
X69400000Y-111437500D03*
X69400000Y-109362500D03*
%TD*%
D20*
%TO.C,D14*%
X102800000Y-56425000D03*
X102800000Y-54375000D03*
%TD*%
D21*
%TO.C,R79*%
X108300000Y-69850000D03*
X108300000Y-67850000D03*
%TD*%
D15*
%TO.C,R30*%
X67835000Y-68770000D03*
X66185000Y-68770000D03*
%TD*%
D21*
%TO.C,R78*%
X103800000Y-110300000D03*
X103800000Y-108300000D03*
%TD*%
%TO.C,R73*%
X100600000Y-84300000D03*
X100600000Y-82300000D03*
%TD*%
D17*
%TO.C,C76*%
X101487500Y-118050000D03*
X99412500Y-118050000D03*
%TD*%
D22*
%TO.C,RV17*%
X63250000Y-107350000D03*
D23*
X64500000Y-110250000D03*
D22*
X65750000Y-107350000D03*
%TD*%
D24*
%TO.C,RV13*%
X65750000Y-94150000D03*
D25*
X62850000Y-95400000D03*
D24*
X65750000Y-96650000D03*
%TD*%
D13*
%TO.C,R32*%
X64700000Y-89200000D03*
X62700000Y-89200000D03*
%TD*%
D26*
%TO.C,U38*%
X98195000Y-104125000D03*
X99465000Y-104125000D03*
X100735000Y-104125000D03*
X102005000Y-104125000D03*
X102005000Y-109075000D03*
X100735000Y-109075000D03*
X99465000Y-109075000D03*
X98195000Y-109075000D03*
%TD*%
D15*
%TO.C,R38*%
X64925000Y-143500000D03*
X63275000Y-143500000D03*
%TD*%
D27*
%TO.C,D9*%
X94425000Y-60900000D03*
X92375000Y-60900000D03*
%TD*%
D17*
%TO.C,C36*%
X73467500Y-84140000D03*
X71392500Y-84140000D03*
%TD*%
D28*
%TO.C,C12*%
X90250000Y-93600000D03*
X92950000Y-93600000D03*
%TD*%
D18*
%TO.C,C27*%
X69362500Y-144800000D03*
X71437500Y-144800000D03*
%TD*%
%TO.C,C10*%
X90062500Y-90900000D03*
X92137500Y-90900000D03*
%TD*%
D17*
%TO.C,C1*%
X82037500Y-83730000D03*
X79962500Y-83730000D03*
%TD*%
D29*
%TO.C,U10*%
X72422500Y-87725000D03*
X72422500Y-88375000D03*
X72422500Y-89025000D03*
X72422500Y-89675000D03*
X72422500Y-90325000D03*
X72422500Y-90975000D03*
X72422500Y-91625000D03*
X72422500Y-92275000D03*
X66697500Y-92275000D03*
X66697500Y-91625000D03*
X66697500Y-90975000D03*
X66697500Y-90325000D03*
X66697500Y-89675000D03*
X66697500Y-89025000D03*
X66697500Y-88375000D03*
X66697500Y-87725000D03*
%TD*%
D15*
%TO.C,R10*%
X89675000Y-110050000D03*
X88025000Y-110050000D03*
%TD*%
D30*
%TO.C,R7*%
X84480000Y-51200000D03*
X84480000Y-53200000D03*
%TD*%
D18*
%TO.C,C75*%
X105262500Y-114800000D03*
X107337500Y-114800000D03*
%TD*%
D17*
%TO.C,C41*%
X70137500Y-124600000D03*
X68062500Y-124600000D03*
%TD*%
D31*
%TO.C,U19*%
X80585000Y-98955000D03*
X80585000Y-100225000D03*
X80585000Y-101495000D03*
X80585000Y-102765000D03*
X80585000Y-104035000D03*
X80585000Y-105305000D03*
X80585000Y-106575000D03*
X80585000Y-107845000D03*
X75635000Y-107845000D03*
X75635000Y-106575000D03*
X75635000Y-105305000D03*
X75635000Y-104035000D03*
X75635000Y-102765000D03*
X75635000Y-101495000D03*
X75635000Y-100225000D03*
X75635000Y-98955000D03*
%TD*%
D27*
%TO.C,D8*%
X108825000Y-64200000D03*
X106775000Y-64200000D03*
%TD*%
D17*
%TO.C,C72*%
X96437500Y-109100000D03*
X94362500Y-109100000D03*
%TD*%
D22*
%TO.C,RV10*%
X63250000Y-120050000D03*
D23*
X64500000Y-122950000D03*
D22*
X65750000Y-120050000D03*
%TD*%
D15*
%TO.C,R29*%
X69325000Y-93600000D03*
X67675000Y-93600000D03*
%TD*%
D29*
%TO.C,U17*%
X72422500Y-101125000D03*
X72422500Y-101775000D03*
X72422500Y-102425000D03*
X72422500Y-103075000D03*
X72422500Y-103725000D03*
X72422500Y-104375000D03*
X72422500Y-105025000D03*
X72422500Y-105675000D03*
X66697500Y-105675000D03*
X66697500Y-105025000D03*
X66697500Y-104375000D03*
X66697500Y-103725000D03*
X66697500Y-103075000D03*
X66697500Y-102425000D03*
X66697500Y-101775000D03*
X66697500Y-101125000D03*
%TD*%
D32*
%TO.C,C23*%
X68000000Y-95362500D03*
X68000000Y-97437500D03*
%TD*%
D21*
%TO.C,R70*%
X90300000Y-86400000D03*
X90300000Y-84400000D03*
%TD*%
D15*
%TO.C,R20*%
X64950000Y-118200000D03*
X63300000Y-118200000D03*
%TD*%
D16*
%TO.C,R43*%
X62700000Y-101200000D03*
X64700000Y-101200000D03*
%TD*%
D17*
%TO.C,C42*%
X73447500Y-110140000D03*
X71372500Y-110140000D03*
%TD*%
D21*
%TO.C,R71*%
X99500000Y-124200000D03*
X99500000Y-122200000D03*
%TD*%
D29*
%TO.C,U12*%
X72422500Y-126205000D03*
X72422500Y-126855000D03*
X72422500Y-127505000D03*
X72422500Y-128155000D03*
X72422500Y-128805000D03*
X72422500Y-129455000D03*
X72422500Y-130105000D03*
X72422500Y-130755000D03*
X66697500Y-130755000D03*
X66697500Y-130105000D03*
X66697500Y-129455000D03*
X66697500Y-128805000D03*
X66697500Y-128155000D03*
X66697500Y-127505000D03*
X66697500Y-126855000D03*
X66697500Y-126205000D03*
%TD*%
D18*
%TO.C,C15*%
X70762500Y-81400000D03*
X72837500Y-81400000D03*
%TD*%
D16*
%TO.C,R41*%
X62700000Y-139700000D03*
X64700000Y-139700000D03*
%TD*%
D21*
%TO.C,R75*%
X102100000Y-95600000D03*
X102100000Y-93600000D03*
%TD*%
D18*
%TO.C,C20*%
X70962500Y-93900000D03*
X73037500Y-93900000D03*
%TD*%
D33*
%TO.C,Q1*%
X87740000Y-83687500D03*
X85840000Y-83687500D03*
X86790000Y-81812500D03*
%TD*%
D30*
%TO.C,R74*%
X102900000Y-134200000D03*
X102900000Y-136200000D03*
%TD*%
D16*
%TO.C,R19*%
X87800000Y-121500000D03*
X89800000Y-121500000D03*
%TD*%
D20*
%TO.C,D11*%
X102200000Y-43225000D03*
X102200000Y-41175000D03*
%TD*%
D10*
%TO.C,D19*%
X99000000Y-134175000D03*
X99000000Y-136225000D03*
%TD*%
D29*
%TO.C,U4*%
X72422500Y-113725000D03*
X72422500Y-114375000D03*
X72422500Y-115025000D03*
X72422500Y-115675000D03*
X72422500Y-116325000D03*
X72422500Y-116975000D03*
X72422500Y-117625000D03*
X72422500Y-118275000D03*
X66697500Y-118275000D03*
X66697500Y-117625000D03*
X66697500Y-116975000D03*
X66697500Y-116325000D03*
X66697500Y-115675000D03*
X66697500Y-115025000D03*
X66697500Y-114375000D03*
X66697500Y-113725000D03*
%TD*%
D34*
%TO.C,D5*%
X87137500Y-46780000D03*
X83837500Y-46780000D03*
%TD*%
D15*
%TO.C,R21*%
X69125000Y-81100000D03*
X67475000Y-81100000D03*
%TD*%
D18*
%TO.C,C3*%
X51962500Y-49500000D03*
X54037500Y-49500000D03*
%TD*%
D17*
%TO.C,C31*%
X64737500Y-75700000D03*
X62662500Y-75700000D03*
%TD*%
D35*
%TO.C,J21*%
X52680000Y-61110000D03*
X57720000Y-61110000D03*
X52680000Y-63650000D03*
X57720000Y-63650000D03*
X52680000Y-66190000D03*
X57720000Y-66190000D03*
X52680000Y-68730000D03*
X57720000Y-68730000D03*
X52680000Y-71270000D03*
X57720000Y-71270000D03*
X52680000Y-73810000D03*
X57720000Y-73810000D03*
X52680000Y-76350000D03*
X57720000Y-76350000D03*
X52680000Y-78890000D03*
X57720000Y-78890000D03*
%TD*%
D21*
%TO.C,R1*%
X83930000Y-83670000D03*
X83930000Y-81670000D03*
%TD*%
D24*
%TO.C,RV11*%
X65650000Y-82250000D03*
D25*
X62750000Y-83500000D03*
D24*
X65650000Y-84750000D03*
%TD*%
D20*
%TO.C,D18*%
X101000000Y-136225000D03*
X101000000Y-134175000D03*
%TD*%
D13*
%TO.C,R85*%
X104000000Y-97450000D03*
X102000000Y-97450000D03*
%TD*%
D36*
%TO.C,D16*%
X100575000Y-80300000D03*
X102625000Y-80300000D03*
%TD*%
D37*
%TO.C,R2*%
X96220000Y-60595000D03*
X96220000Y-62245000D03*
%TD*%
D18*
%TO.C,C19*%
X87512500Y-119050000D03*
X89587500Y-119050000D03*
%TD*%
D10*
%TO.C,D17*%
X102100000Y-86075000D03*
X102100000Y-88125000D03*
%TD*%
D22*
%TO.C,RV14*%
X65850000Y-73650000D03*
D23*
X64600000Y-70750000D03*
D22*
X63350000Y-73650000D03*
%TD*%
D16*
%TO.C,R26*%
X62600000Y-79700000D03*
X64600000Y-79700000D03*
%TD*%
D18*
%TO.C,C14*%
X69462500Y-120000000D03*
X71537500Y-120000000D03*
%TD*%
D31*
%TO.C,U13*%
X80585000Y-85555000D03*
X80585000Y-86825000D03*
X80585000Y-88095000D03*
X80585000Y-89365000D03*
X80585000Y-90635000D03*
X80585000Y-91905000D03*
X80585000Y-93175000D03*
X80585000Y-94445000D03*
X75635000Y-94445000D03*
X75635000Y-93175000D03*
X75635000Y-91905000D03*
X75635000Y-90635000D03*
X75635000Y-89365000D03*
X75635000Y-88095000D03*
X75635000Y-86825000D03*
X75635000Y-85555000D03*
%TD*%
D35*
%TO.C,J22*%
X57720000Y-105080000D03*
X52680000Y-105080000D03*
X57720000Y-102540000D03*
X52680000Y-102540000D03*
X57720000Y-100000000D03*
X52680000Y-100000000D03*
X57720000Y-97460000D03*
X52680000Y-97460000D03*
X57720000Y-94920000D03*
X52680000Y-94920000D03*
%TD*%
D19*
%TO.C,C70*%
X96300000Y-49337500D03*
X96300000Y-47262500D03*
%TD*%
D21*
%TO.C,R3*%
X94110000Y-56840000D03*
X94110000Y-54840000D03*
%TD*%
D10*
%TO.C,D20*%
X100100000Y-93575000D03*
X100100000Y-95625000D03*
%TD*%
D19*
%TO.C,C44*%
X69400000Y-136937500D03*
X69400000Y-134862500D03*
%TD*%
D13*
%TO.C,R40*%
X64700000Y-137700000D03*
X62700000Y-137700000D03*
%TD*%
%TO.C,R34*%
X64650000Y-64700000D03*
X62650000Y-64700000D03*
%TD*%
%TO.C,R8*%
X90730000Y-46800000D03*
X88730000Y-46800000D03*
%TD*%
D31*
%TO.C,U18*%
X80585000Y-136535000D03*
X80585000Y-137805000D03*
X80585000Y-139075000D03*
X80585000Y-140345000D03*
X80585000Y-141615000D03*
X80585000Y-142885000D03*
X80585000Y-144155000D03*
X80585000Y-145425000D03*
X75635000Y-145425000D03*
X75635000Y-144155000D03*
X75635000Y-142885000D03*
X75635000Y-141615000D03*
X75635000Y-140345000D03*
X75635000Y-139075000D03*
X75635000Y-137805000D03*
X75635000Y-136535000D03*
%TD*%
D38*
%TO.C,U6*%
X51975476Y-56580000D03*
X51975476Y-54280000D03*
D39*
X58275476Y-54280000D03*
D38*
X51975476Y-51980000D03*
%TD*%
D27*
%TO.C,D7*%
X102025000Y-115800000D03*
X99975000Y-115800000D03*
%TD*%
D19*
%TO.C,C7*%
X90060000Y-58827500D03*
X90060000Y-56752500D03*
%TD*%
D26*
%TO.C,U39*%
X98395000Y-126950000D03*
X99665000Y-126950000D03*
X100935000Y-126950000D03*
X102205000Y-126950000D03*
X102205000Y-131900000D03*
X100935000Y-131900000D03*
X99665000Y-131900000D03*
X98395000Y-131900000D03*
%TD*%
D28*
%TO.C,C4*%
X61570476Y-56830000D03*
X64270476Y-56830000D03*
%TD*%
D26*
%TO.C,U37*%
X98495000Y-62825000D03*
X99765000Y-62825000D03*
X101035000Y-62825000D03*
X102305000Y-62825000D03*
X102305000Y-67775000D03*
X101035000Y-67775000D03*
X99765000Y-67775000D03*
X98495000Y-67775000D03*
%TD*%
D32*
%TO.C,C11*%
X92110000Y-56742500D03*
X92110000Y-58817500D03*
%TD*%
D17*
%TO.C,C79*%
X109237500Y-121200000D03*
X107162500Y-121200000D03*
%TD*%
%TO.C,C6*%
X86780000Y-49110000D03*
X84705000Y-49110000D03*
%TD*%
%TO.C,C26*%
X96737500Y-111350000D03*
X94662500Y-111350000D03*
%TD*%
D15*
%TO.C,R18*%
X87525000Y-117050000D03*
X85875000Y-117050000D03*
%TD*%
D17*
%TO.C,C25*%
X64737500Y-129100000D03*
X62662500Y-129100000D03*
%TD*%
D31*
%TO.C,U14*%
X80585000Y-124035000D03*
X80585000Y-125305000D03*
X80585000Y-126575000D03*
X80585000Y-127845000D03*
X80585000Y-129115000D03*
X80585000Y-130385000D03*
X80585000Y-131655000D03*
X80585000Y-132925000D03*
X75635000Y-132925000D03*
X75635000Y-131655000D03*
X75635000Y-130385000D03*
X75635000Y-129115000D03*
X75635000Y-127845000D03*
X75635000Y-126575000D03*
X75635000Y-125305000D03*
X75635000Y-124035000D03*
%TD*%
D32*
%TO.C,C18*%
X67900000Y-82962500D03*
X67900000Y-85037500D03*
%TD*%
D17*
%TO.C,C38*%
X64737500Y-103300000D03*
X62662500Y-103300000D03*
%TD*%
D31*
%TO.C,U1*%
X91725000Y-51105000D03*
X91725000Y-52375000D03*
X91725000Y-53645000D03*
X91725000Y-54915000D03*
X86775000Y-54915000D03*
X86775000Y-53645000D03*
X86775000Y-52375000D03*
X86775000Y-51105000D03*
%TD*%
D32*
%TO.C,C73*%
X108400000Y-49362500D03*
X108400000Y-51437500D03*
%TD*%
D17*
%TO.C,C33*%
X64737500Y-87200000D03*
X62662500Y-87200000D03*
%TD*%
%TO.C,C74*%
X108837500Y-62000000D03*
X106762500Y-62000000D03*
%TD*%
D29*
%TO.C,U5*%
X72422500Y-75225000D03*
X72422500Y-75875000D03*
X72422500Y-76525000D03*
X72422500Y-77175000D03*
X72422500Y-77825000D03*
X72422500Y-78475000D03*
X72422500Y-79125000D03*
X72422500Y-79775000D03*
X66697500Y-79775000D03*
X66697500Y-79125000D03*
X66697500Y-78475000D03*
X66697500Y-77825000D03*
X66697500Y-77175000D03*
X66697500Y-76525000D03*
X66697500Y-75875000D03*
X66697500Y-75225000D03*
%TD*%
D17*
%TO.C,C45*%
X73457500Y-135700000D03*
X71382500Y-135700000D03*
%TD*%
D18*
%TO.C,C21*%
X69442500Y-68860000D03*
X71517500Y-68860000D03*
%TD*%
D17*
%TO.C,C34*%
X73467500Y-72160000D03*
X71392500Y-72160000D03*
%TD*%
D18*
%TO.C,C22*%
X69162500Y-132400000D03*
X71237500Y-132400000D03*
%TD*%
D22*
%TO.C,RV15*%
X63250000Y-132750000D03*
D23*
X64500000Y-135650000D03*
D22*
X65750000Y-132750000D03*
%TD*%
D16*
%TO.C,R35*%
X62600000Y-66700000D03*
X64600000Y-66700000D03*
%TD*%
D17*
%TO.C,C24*%
X64637500Y-68700000D03*
X62562500Y-68700000D03*
%TD*%
D13*
%TO.C,R42*%
X64650000Y-99200000D03*
X62650000Y-99200000D03*
%TD*%
D40*
%TO.C,R68*%
X88950000Y-117050000D03*
X90600000Y-117050000D03*
%TD*%
D13*
%TO.C,R84*%
X106750000Y-134300000D03*
X104750000Y-134300000D03*
%TD*%
D16*
%TO.C,R69*%
X76200000Y-83700000D03*
X78200000Y-83700000D03*
%TD*%
%TO.C,R72*%
X100600000Y-58400000D03*
X102600000Y-58400000D03*
%TD*%
%TO.C,R33*%
X62700000Y-91200000D03*
X64700000Y-91200000D03*
%TD*%
D15*
%TO.C,R4*%
X95465000Y-51070000D03*
X93815000Y-51070000D03*
%TD*%
D17*
%TO.C,C30*%
X64657500Y-60810000D03*
X62582500Y-60810000D03*
%TD*%
%TO.C,C77*%
X108437500Y-75800000D03*
X106362500Y-75800000D03*
%TD*%
D13*
%TO.C,R81*%
X106600000Y-56250000D03*
X104600000Y-56250000D03*
%TD*%
D32*
%TO.C,C71*%
X100800000Y-70062500D03*
X100800000Y-72137500D03*
%TD*%
D10*
%TO.C,D2*%
X98430000Y-56507500D03*
X98430000Y-58557500D03*
%TD*%
D40*
%TO.C,R9*%
X85385000Y-43880000D03*
X87035000Y-43880000D03*
%TD*%
D29*
%TO.C,U11*%
X72422500Y-62725000D03*
X72422500Y-63375000D03*
X72422500Y-64025000D03*
X72422500Y-64675000D03*
X72422500Y-65325000D03*
X72422500Y-65975000D03*
X72422500Y-66625000D03*
X72422500Y-67275000D03*
X66697500Y-67275000D03*
X66697500Y-66625000D03*
X66697500Y-65975000D03*
X66697500Y-65325000D03*
X66697500Y-64675000D03*
X66697500Y-64025000D03*
X66697500Y-63375000D03*
X66697500Y-62725000D03*
%TD*%
D13*
%TO.C,R23*%
X64700000Y-112400000D03*
X62700000Y-112400000D03*
%TD*%
D18*
%TO.C,C2*%
X90062500Y-88800000D03*
X92137500Y-88800000D03*
%TD*%
D17*
%TO.C,C17*%
X64737500Y-116400000D03*
X62662500Y-116400000D03*
%TD*%
D29*
%TO.C,U16*%
X72422500Y-138705000D03*
X72422500Y-139355000D03*
X72422500Y-140005000D03*
X72422500Y-140655000D03*
X72422500Y-141305000D03*
X72422500Y-141955000D03*
X72422500Y-142605000D03*
X72422500Y-143255000D03*
X66697500Y-143255000D03*
X66697500Y-142605000D03*
X66697500Y-141955000D03*
X66697500Y-141305000D03*
X66697500Y-140655000D03*
X66697500Y-140005000D03*
X66697500Y-139355000D03*
X66697500Y-138705000D03*
%TD*%
D10*
%TO.C,D12*%
X101600000Y-122175000D03*
X101600000Y-124225000D03*
%TD*%
D36*
%TO.C,D6*%
X99975000Y-113700000D03*
X102025000Y-113700000D03*
%TD*%
D17*
%TO.C,C39*%
X73467500Y-98110000D03*
X71392500Y-98110000D03*
%TD*%
D16*
%TO.C,R28*%
X104000000Y-49800000D03*
X106000000Y-49800000D03*
%TD*%
%TO.C,R37*%
X62700000Y-127100000D03*
X64700000Y-127100000D03*
%TD*%
D31*
%TO.C,U8*%
X80585000Y-73055000D03*
X80585000Y-74325000D03*
X80585000Y-75595000D03*
X80585000Y-76865000D03*
X80585000Y-78135000D03*
X80585000Y-79405000D03*
X80585000Y-80675000D03*
X80585000Y-81945000D03*
X75635000Y-81945000D03*
X75635000Y-80675000D03*
X75635000Y-79405000D03*
X75635000Y-78135000D03*
X75635000Y-76865000D03*
X75635000Y-75595000D03*
X75635000Y-74325000D03*
X75635000Y-73055000D03*
%TD*%
D17*
%TO.C,C5*%
X96187500Y-58800000D03*
X94112500Y-58800000D03*
%TD*%
%TO.C,C80*%
X109337500Y-95200000D03*
X107262500Y-95200000D03*
%TD*%
D13*
%TO.C,R25*%
X64650000Y-77700000D03*
X62650000Y-77700000D03*
%TD*%
%TO.C,R80*%
X104000000Y-45050000D03*
X102000000Y-45050000D03*
%TD*%
%TO.C,R22*%
X102000000Y-111600000D03*
X100000000Y-111600000D03*
%TD*%
D17*
%TO.C,C43*%
X73467500Y-122110000D03*
X71392500Y-122110000D03*
%TD*%
%TO.C,C37*%
X64737500Y-141700000D03*
X62662500Y-141700000D03*
%TD*%
D16*
%TO.C,R5*%
X91810000Y-49180000D03*
X93810000Y-49180000D03*
%TD*%
D15*
%TO.C,R31*%
X64125000Y-130900000D03*
X62475000Y-130900000D03*
%TD*%
D18*
%TO.C,C35*%
X67562500Y-99500000D03*
X69637500Y-99500000D03*
%TD*%
D27*
%TO.C,D13*%
X101500000Y-120100000D03*
X99450000Y-120100000D03*
%TD*%
D21*
%TO.C,R83*%
X103600000Y-84250000D03*
X103600000Y-82250000D03*
%TD*%
D10*
%TO.C,D21*%
X100100000Y-97475000D03*
X100100000Y-99525000D03*
%TD*%
D17*
%TO.C,C29*%
X96637500Y-132100000D03*
X94562500Y-132100000D03*
%TD*%
D31*
%TO.C,U7*%
X80585000Y-112055000D03*
X80585000Y-113325000D03*
X80585000Y-114595000D03*
X80585000Y-115865000D03*
X80585000Y-117135000D03*
X80585000Y-118405000D03*
X80585000Y-119675000D03*
X80585000Y-120945000D03*
X75635000Y-120945000D03*
X75635000Y-119675000D03*
X75635000Y-118405000D03*
X75635000Y-117135000D03*
X75635000Y-115865000D03*
X75635000Y-114595000D03*
X75635000Y-113325000D03*
X75635000Y-112055000D03*
%TD*%
D41*
%TO.C,C16*%
X96175000Y-121500000D03*
X93225000Y-121500000D03*
%TD*%
D26*
%TO.C,U36*%
X98395000Y-47225000D03*
X99665000Y-47225000D03*
X100935000Y-47225000D03*
X102205000Y-47225000D03*
X102205000Y-52175000D03*
X100935000Y-52175000D03*
X99665000Y-52175000D03*
X98395000Y-52175000D03*
%TD*%
D15*
%TO.C,R11*%
X92725000Y-110050000D03*
X91075000Y-110050000D03*
%TD*%
D19*
%TO.C,C78*%
X108450000Y-56937500D03*
X108450000Y-54862500D03*
%TD*%
D10*
%TO.C,D10*%
X104500000Y-41175000D03*
X104500000Y-43225000D03*
%TD*%
D32*
%TO.C,C13*%
X85000000Y-112862500D03*
X85000000Y-114937500D03*
%TD*%
D18*
%TO.C,C46*%
X94662500Y-113400000D03*
X96737500Y-113400000D03*
%TD*%
D31*
%TO.C,U2*%
X92485000Y-111595000D03*
X92485000Y-112865000D03*
X92485000Y-114135000D03*
X92485000Y-115405000D03*
X87535000Y-115405000D03*
X87535000Y-114135000D03*
X87535000Y-112865000D03*
X87535000Y-111595000D03*
%TD*%
D16*
%TO.C,R24*%
X62700000Y-114400000D03*
X64700000Y-114400000D03*
%TD*%
D31*
%TO.C,U15*%
X80585000Y-60555000D03*
X80585000Y-61825000D03*
X80585000Y-63095000D03*
X80585000Y-64365000D03*
X80585000Y-65635000D03*
X80585000Y-66905000D03*
X80585000Y-68175000D03*
X80585000Y-69445000D03*
X75635000Y-69445000D03*
X75635000Y-68175000D03*
X75635000Y-66905000D03*
X75635000Y-65635000D03*
X75635000Y-64365000D03*
X75635000Y-63095000D03*
X75635000Y-61825000D03*
X75635000Y-60555000D03*
%TD*%
D24*
%TO.C,RV16*%
X65750000Y-145750000D03*
D25*
X62850000Y-147000000D03*
D24*
X65750000Y-148250000D03*
%TD*%
D40*
%TO.C,R6*%
X86685000Y-56650000D03*
X88335000Y-56650000D03*
%TD*%
D10*
%TO.C,D1*%
X96190000Y-54480000D03*
X96190000Y-56530000D03*
%TD*%
D17*
%TO.C,C32*%
X73407500Y-60060000D03*
X71332500Y-60060000D03*
%TD*%
M02*
