%TF.GenerationSoftware,KiCad,Pcbnew,(6.0.1)*%
%TF.CreationDate,2023-03-19T18:02:46-07:00*%
%TF.ProjectId,pipes_main,70697065-735f-46d6-9169-6e2e6b696361,rev?*%
%TF.SameCoordinates,Original*%
%TF.FileFunction,Copper,L2,Inr*%
%TF.FilePolarity,Positive*%
%FSLAX46Y46*%
G04 Gerber Fmt 4.6, Leading zero omitted, Abs format (unit mm)*
G04 Created by KiCad (PCBNEW (6.0.1)) date 2023-03-19 18:02:46*
%MOMM*%
%LPD*%
G01*
G04 APERTURE LIST*
%TA.AperFunction,ComponentPad*%
%ADD10C,2.250000*%
%TD*%
%TA.AperFunction,ComponentPad*%
%ADD11O,1.600000X2.600000*%
%TD*%
%TA.AperFunction,ComponentPad*%
%ADD12C,1.600000*%
%TD*%
%TA.AperFunction,WasherPad*%
%ADD13C,4.000000*%
%TD*%
%TA.AperFunction,ComponentPad*%
%ADD14C,1.800000*%
%TD*%
%TA.AperFunction,ComponentPad*%
%ADD15O,2.600000X1.600000*%
%TD*%
%TA.AperFunction,ComponentPad*%
%ADD16C,2.800000*%
%TD*%
%TA.AperFunction,ComponentPad*%
%ADD17C,1.200000*%
%TD*%
%TA.AperFunction,ViaPad*%
%ADD18C,0.450000*%
%TD*%
%TA.AperFunction,ViaPad*%
%ADD19C,0.800000*%
%TD*%
%TA.AperFunction,ViaPad*%
%ADD20C,0.400000*%
%TD*%
%TA.AperFunction,Conductor*%
%ADD21C,0.600000*%
%TD*%
%TA.AperFunction,Conductor*%
%ADD22C,0.200000*%
%TD*%
%TA.AperFunction,Conductor*%
%ADD23C,0.400000*%
%TD*%
G04 APERTURE END LIST*
D10*
%TO.N,GND*%
%TO.C,J16*%
X106000000Y-132180000D03*
%TO.N,Net-(J16-Pad2)*%
X106000000Y-123280000D03*
%TO.N,GND*%
X104500000Y-130030000D03*
%TO.N,unconnected-(J16-Pad4)*%
X104500000Y-125580000D03*
D11*
%TO.N,N/C*%
X108550000Y-124440000D03*
D12*
X108550000Y-131120000D03*
%TD*%
D10*
%TO.N,GND*%
%TO.C,J14*%
X106000000Y-80180000D03*
%TO.N,Net-(J14-Pad2)*%
X106000000Y-71280000D03*
%TO.N,GND*%
X104500000Y-78030000D03*
%TO.N,unconnected-(J14-Pad4)*%
X104500000Y-73580000D03*
D11*
%TO.N,N/C*%
X108550000Y-72440000D03*
D12*
X108550000Y-79120000D03*
%TD*%
D13*
%TO.N,*%
%TO.C,RV1*%
X94420000Y-101030000D03*
X85620000Y-101030000D03*
D14*
%TO.N,SIG*%
X92520000Y-108030000D03*
%TO.N,Net-(R10-Pad2)*%
X90020000Y-108030000D03*
%TO.N,GND*%
X87520000Y-108030000D03*
%TD*%
D10*
%TO.N,GND*%
%TO.C,J9*%
X45000000Y-82780000D03*
%TO.N,Net-(J9-Pad2)*%
X45000000Y-91680000D03*
%TO.N,GND*%
X46500000Y-84930000D03*
X46500000Y-89380000D03*
D11*
%TO.N,N/C*%
X42450000Y-90520000D03*
D12*
X42450000Y-83840000D03*
%TD*%
D10*
%TO.N,GND*%
%TO.C,J15*%
X106000000Y-54180000D03*
%TO.N,Net-(J15-Pad2)*%
X106000000Y-45280000D03*
%TO.N,GND*%
X104500000Y-52030000D03*
%TO.N,unconnected-(J15-Pad4)*%
X104500000Y-47580000D03*
D11*
%TO.N,N/C*%
X108550000Y-46440000D03*
D12*
X108550000Y-53120000D03*
%TD*%
D10*
%TO.N,GND*%
%TO.C,J19*%
X106000000Y-145180000D03*
%TO.N,Net-(J19-Pad2)*%
X106000000Y-136280000D03*
%TO.N,GND*%
X104500000Y-143030000D03*
%TO.N,unconnected-(J19-Pad4)*%
X104500000Y-138580000D03*
D11*
%TO.N,N/C*%
X108550000Y-137440000D03*
D12*
X108550000Y-144120000D03*
%TD*%
D10*
%TO.N,GND*%
%TO.C,J13*%
X106000000Y-119180000D03*
%TO.N,Net-(J13-Pad2)*%
X106000000Y-110280000D03*
%TO.N,GND*%
X104500000Y-117030000D03*
%TO.N,unconnected-(J13-Pad4)*%
X104500000Y-112580000D03*
D11*
%TO.N,N/C*%
X108550000Y-111440000D03*
D12*
X108550000Y-118120000D03*
%TD*%
D10*
%TO.N,GND*%
%TO.C,J7*%
X45000000Y-43780000D03*
%TO.N,Net-(J7-Pad2)*%
X45000000Y-52680000D03*
%TO.N,GND*%
X46500000Y-45930000D03*
X46500000Y-50380000D03*
D11*
%TO.N,N/C*%
X42450000Y-51520000D03*
D12*
X42450000Y-44840000D03*
%TD*%
D10*
%TO.N,GND*%
%TO.C,J20*%
X106000000Y-106180000D03*
%TO.N,Net-(J20-Pad2)*%
X106000000Y-97280000D03*
%TO.N,GND*%
X104500000Y-104030000D03*
%TO.N,unconnected-(J20-Pad4)*%
X104500000Y-99580000D03*
D11*
%TO.N,N/C*%
X108550000Y-98440000D03*
D12*
X108550000Y-105120000D03*
%TD*%
D10*
%TO.N,GND*%
%TO.C,J12*%
X45000000Y-95780000D03*
%TO.N,Net-(J12-Pad2)*%
X45000000Y-104680000D03*
%TO.N,GND*%
X46500000Y-97930000D03*
X46500000Y-102380000D03*
D11*
%TO.N,N/C*%
X42450000Y-103520000D03*
D12*
X42450000Y-96840000D03*
%TD*%
D10*
%TO.N,GND*%
%TO.C,J5*%
X45000000Y-108780000D03*
%TO.N,Net-(J5-Pad2)*%
X45000000Y-117680000D03*
%TO.N,GND*%
X46500000Y-110930000D03*
X46500000Y-115380000D03*
D11*
%TO.N,N/C*%
X42450000Y-116520000D03*
D12*
X42450000Y-109840000D03*
%TD*%
D10*
%TO.N,GND*%
%TO.C,J10*%
X45000000Y-56780000D03*
%TO.N,Net-(J10-Pad2)*%
X45000000Y-65680000D03*
%TO.N,GND*%
X46500000Y-58930000D03*
X46500000Y-63380000D03*
D11*
%TO.N,N/C*%
X42450000Y-64520000D03*
D12*
X42450000Y-57840000D03*
%TD*%
D10*
%TO.N,GND*%
%TO.C,J4*%
X87320000Y-126850000D03*
%TO.N,Net-(C16-Pad1)*%
X96220000Y-126850000D03*
%TO.N,GND*%
X89470000Y-125350000D03*
%TO.N,unconnected-(J4-Pad4)*%
X93920000Y-125350000D03*
D15*
%TO.N,N/C*%
X95060000Y-129400000D03*
D12*
X88380000Y-129400000D03*
%TD*%
D10*
%TO.N,GND*%
%TO.C,J11*%
X45000000Y-134780000D03*
%TO.N,Net-(J11-Pad2)*%
X45000000Y-143680000D03*
%TO.N,GND*%
X46500000Y-136930000D03*
X46500000Y-141380000D03*
D11*
%TO.N,N/C*%
X42450000Y-142520000D03*
D12*
X42450000Y-135840000D03*
%TD*%
D10*
%TO.N,GND*%
%TO.C,J18*%
X106000000Y-93180000D03*
%TO.N,Net-(J18-Pad2)*%
X106000000Y-84280000D03*
%TO.N,GND*%
X104500000Y-91030000D03*
%TO.N,unconnected-(J18-Pad4)*%
X104500000Y-86580000D03*
D11*
%TO.N,N/C*%
X108550000Y-85440000D03*
D12*
X108550000Y-92120000D03*
%TD*%
D10*
%TO.N,GND*%
%TO.C,J1*%
X87320000Y-64850000D03*
%TO.N,Net-(J1-Pad2)*%
X96220000Y-64850000D03*
%TO.N,GND*%
X89470000Y-63350000D03*
X93920000Y-63350000D03*
D15*
%TO.N,N/C*%
X95060000Y-67400000D03*
D12*
X88380000Y-67400000D03*
%TD*%
D10*
%TO.N,GND*%
%TO.C,J8*%
X45000000Y-121780000D03*
%TO.N,Net-(J8-Pad2)*%
X45000000Y-130680000D03*
%TO.N,GND*%
X46500000Y-123930000D03*
X46500000Y-128380000D03*
D11*
%TO.N,N/C*%
X42450000Y-129520000D03*
D12*
X42450000Y-122840000D03*
%TD*%
D10*
%TO.N,GND*%
%TO.C,J6*%
X45000000Y-69780000D03*
%TO.N,Net-(J6-Pad2)*%
X45000000Y-78680000D03*
%TO.N,GND*%
X46500000Y-71930000D03*
X46500000Y-76380000D03*
D11*
%TO.N,N/C*%
X42450000Y-77520000D03*
D12*
X42450000Y-70840000D03*
%TD*%
D10*
%TO.N,GND*%
%TO.C,J17*%
X106000000Y-67180000D03*
%TO.N,Net-(J17-Pad2)*%
X106000000Y-58280000D03*
%TO.N,GND*%
X104500000Y-65030000D03*
%TO.N,unconnected-(J17-Pad4)*%
X104500000Y-60580000D03*
D11*
%TO.N,N/C*%
X108550000Y-59440000D03*
D12*
X108550000Y-66120000D03*
%TD*%
D16*
%TO.N,GND*%
%TO.C,TP1*%
X88170000Y-146950000D03*
%TD*%
D17*
%TO.N,N/C*%
%TO.C,J21*%
X55200000Y-62380000D03*
X55200000Y-77620000D03*
%TD*%
D16*
%TO.N,GND*%
%TO.C,TP2*%
X58280000Y-146950000D03*
%TD*%
D17*
%TO.N,N/C*%
%TO.C,J22*%
X55200000Y-103810000D03*
X55200000Y-96190000D03*
%TD*%
D18*
%TO.N,+12V*%
X52600000Y-139050000D03*
%TO.N,VCA7*%
X50275000Y-128725000D03*
D19*
%TO.N,+12V*%
X52600000Y-126100000D03*
D18*
X52600000Y-77425000D03*
X52600000Y-98725000D03*
X51962500Y-50737500D03*
D19*
X98400000Y-85600000D03*
D18*
X89827500Y-80447500D03*
X52575000Y-113175000D03*
X86775000Y-50415000D03*
D20*
X85347500Y-109277500D03*
D18*
X97170000Y-54480000D03*
X52680000Y-82240000D03*
X51955489Y-59769511D03*
X52600000Y-87150000D03*
D20*
X85660000Y-82240000D03*
D18*
%TO.N,-12V*%
X91151250Y-59848750D03*
X89592500Y-70327500D03*
X57750000Y-77350000D03*
X90600000Y-77820000D03*
X93850000Y-116950000D03*
X91151250Y-55661250D03*
X93845000Y-115405000D03*
X84550000Y-116950000D03*
X98430000Y-59730000D03*
D20*
%TO.N,Net-(C11-Pad2)*%
X92610359Y-54189641D03*
X93385000Y-56115000D03*
D18*
%TO.N,Net-(C13-Pad1)*%
X88750000Y-121500000D03*
X88785000Y-112865000D03*
D20*
%TO.N,F6*%
X75300000Y-110100000D03*
X100125000Y-109075000D03*
X73900000Y-113400000D03*
%TO.N,F7*%
X99050000Y-126950000D03*
X73950000Y-125850000D03*
%TO.N,F4*%
X100425000Y-67775000D03*
X100425000Y-88025000D03*
D18*
X74400000Y-88100000D03*
D20*
X73500000Y-89675000D03*
%TO.N,F2*%
X99650000Y-53500000D03*
X76895000Y-63095000D03*
%TO.N,F8*%
X100300000Y-131900000D03*
X74250000Y-138650000D03*
%TO.N,F5*%
X97400000Y-104100000D03*
X73925000Y-103075000D03*
D18*
%TO.N,VCA6*%
X50500000Y-100000000D03*
X50525000Y-111150000D03*
%TO.N,VCA3*%
X48037500Y-75337500D03*
X59760000Y-102540000D03*
X59760000Y-78800000D03*
%TO.N,VCA1*%
X40400000Y-106300000D03*
X57150000Y-106150000D03*
X45125000Y-48425000D03*
X40400000Y-48425000D03*
%TO.N,VCA4*%
X47750000Y-88200000D03*
X55110000Y-102540000D03*
X55100000Y-91800000D03*
%TO.N,VCA2*%
X61020000Y-104080000D03*
X61000000Y-65750000D03*
X48712500Y-62162500D03*
X55000000Y-105075000D03*
%TO.N,VCA5*%
X48000000Y-101800000D03*
X55750000Y-100000000D03*
D20*
%TO.N,Clk*%
X67805000Y-140005000D03*
X67775000Y-76525000D03*
X67735000Y-89025000D03*
X67795000Y-115025000D03*
X97685000Y-46515000D03*
X87780000Y-43880000D03*
X67715000Y-127505000D03*
X68600000Y-56900000D03*
X67755000Y-64025000D03*
X67775000Y-102425000D03*
D18*
%TO.N,Net-(R23-Pad2)*%
X67800000Y-118275000D03*
X61800000Y-118250000D03*
X61900000Y-115200000D03*
%TO.N,Net-(R32-Pad2)*%
X65700000Y-92275000D03*
X62700000Y-92250000D03*
%TO.N,Net-(R36-Pad2)*%
X66697500Y-131397500D03*
X61600000Y-127100000D03*
X61602500Y-131397500D03*
%TO.N,Net-(R40-Pad2)*%
X66697500Y-143697500D03*
X61650000Y-139700000D03*
X61652500Y-143697500D03*
%TO.N,Net-(R42-Pad2)*%
X61800000Y-101200000D03*
X66697500Y-106147500D03*
X61802500Y-106147500D03*
D20*
%TO.N,1f*%
X101484642Y-48115358D03*
D18*
X52680000Y-62625000D03*
D20*
X103084642Y-49715358D03*
D18*
X52680000Y-48115358D03*
%TO.N,2f*%
X57700000Y-58924720D03*
X99700000Y-58400000D03*
X57700000Y-62650000D03*
%TO.N,3f*%
X95255480Y-61294520D03*
X52680000Y-65030000D03*
D20*
X105600000Y-63300000D03*
X101035000Y-61565000D03*
%TO.N,4f*%
X102625000Y-79025000D03*
X102305000Y-69195000D03*
D18*
X57720000Y-67070000D03*
%TO.N,5f*%
X52700000Y-69550000D03*
X103050000Y-70600000D03*
X100100000Y-96500000D03*
%TO.N,6f*%
X55780000Y-68730000D03*
X50650000Y-68750000D03*
X102690000Y-108390000D03*
X51154511Y-106695489D03*
%TO.N,7f*%
X57750000Y-119100000D03*
X55670000Y-71270000D03*
X102362500Y-120287500D03*
%TO.N,8f*%
X100025000Y-134175000D03*
X90850000Y-133950000D03*
X54550000Y-133950000D03*
X54550000Y-72500000D03*
D20*
%TO.N,{slash}6*%
X79235000Y-117135000D03*
X79175000Y-113325000D03*
%TO.N,{slash}3*%
X79200000Y-80300000D03*
X77575000Y-74325000D03*
%TO.N,Net-(U4-Pad3)*%
X78600000Y-114700000D03*
X73575000Y-115025000D03*
%TO.N,Net-(U5-Pad3)*%
X73900000Y-74924520D03*
X79275480Y-74924520D03*
%TO.N,{slash}4*%
X76975000Y-93175000D03*
X76975000Y-86825000D03*
%TO.N,{slash}7*%
X76895000Y-125305000D03*
X79300000Y-130400000D03*
X79195000Y-125305000D03*
%TO.N,Net-(U10-Pad3)*%
X79205000Y-88095000D03*
X73575000Y-89025000D03*
%TO.N,Net-(U11-Pad3)*%
X73450000Y-64030000D03*
X79395000Y-63095000D03*
%TO.N,Net-(U12-Pad3)*%
X74046891Y-126646891D03*
X78600000Y-126575000D03*
%TO.N,{slash}8*%
X76995000Y-137805000D03*
X76975000Y-145425000D03*
%TO.N,Net-(U16-Pad3)*%
X79225000Y-139075000D03*
X71405000Y-140005000D03*
%TO.N,Net-(U17-Pad3)*%
X73475000Y-102425000D03*
X79305000Y-101495000D03*
%TO.N,Net-(C2-Pad1)*%
X83200000Y-87700000D03*
X77200000Y-83700000D03*
X91181250Y-87681250D03*
%TO.N,Net-(C10-Pad1)*%
X87800000Y-91000000D03*
X87800000Y-84900000D03*
D18*
%TO.N,Net-(R30-Pad2)*%
X66185000Y-69615000D03*
X66185000Y-72515000D03*
D20*
%TO.N,+9V*%
X77115000Y-73055000D03*
X98395000Y-130305000D03*
X76850000Y-112040000D03*
X67720000Y-87740000D03*
X99200000Y-69100000D03*
X67815000Y-138705000D03*
X77030000Y-136550000D03*
D19*
X75640000Y-98030000D03*
D20*
X98400000Y-50500000D03*
X77115000Y-85555000D03*
X84670000Y-43880000D03*
X98195000Y-107205000D03*
D18*
X69400000Y-138000000D03*
X62200000Y-62650000D03*
D20*
X76995000Y-60555000D03*
X77075000Y-124035000D03*
X67675000Y-75225000D03*
D19*
X83050000Y-92760000D03*
D20*
X67785000Y-62725000D03*
D18*
X66697500Y-100452500D03*
D20*
%TO.N,+5V*%
X110300000Y-49800000D03*
X110300000Y-95200000D03*
X100850000Y-140600000D03*
X100600000Y-122200000D03*
D18*
X101000000Y-137150000D03*
D20*
X110300000Y-121300000D03*
X110300000Y-114100000D03*
X110300000Y-140600000D03*
X101125000Y-93575000D03*
X110300000Y-64200000D03*
D18*
X57750000Y-74850000D03*
D20*
X102600000Y-57300000D03*
X110300000Y-75800000D03*
X110300000Y-41200000D03*
X101200000Y-75900000D03*
X110300000Y-56300000D03*
X99975000Y-112600000D03*
X103595489Y-114104511D03*
D18*
X60050000Y-55300000D03*
%TO.N,Net-(C46-Pad1)*%
X93400000Y-110050000D03*
X93927500Y-114135000D03*
%TO.N,SIG*%
X93040000Y-73810000D03*
X55140000Y-73810000D03*
X91900000Y-104650000D03*
%TO.N,VCA7*%
X56350000Y-128700000D03*
X56000000Y-97460000D03*
%TO.N,VCA8*%
X49550000Y-97460000D03*
X49550000Y-137750000D03*
%TD*%
D21*
%TO.N,+12V*%
X88035000Y-82240000D02*
X85660000Y-82240000D01*
X89827500Y-80447500D02*
X88035000Y-82240000D01*
X85660000Y-82240000D02*
X52680000Y-82240000D01*
%TO.N,-12V*%
X57750000Y-77350000D02*
X58650000Y-78050000D01*
X90345489Y-78074511D02*
X90600000Y-77820000D01*
X58650000Y-78050000D02*
X90345489Y-78074511D01*
D22*
%TO.N,F6*%
X86101905Y-109229511D02*
X85231416Y-110100000D01*
X100125000Y-109075000D02*
X99970489Y-109229511D01*
X85231416Y-110100000D02*
X75300000Y-110100000D01*
X99970489Y-109229511D02*
X86101905Y-109229511D01*
%TO.N,F7*%
X96025489Y-123925489D02*
X99050000Y-126950000D01*
X86305436Y-125850000D02*
X88229947Y-123925489D01*
X73950000Y-125850000D02*
X86305436Y-125850000D01*
X88229947Y-123925489D02*
X96025489Y-123925489D01*
%TO.N,F8*%
X82479073Y-135114511D02*
X97085489Y-135114511D01*
X78943584Y-138650000D02*
X82479073Y-135114511D01*
X97085489Y-135114511D02*
X100300000Y-131900000D01*
X74250000Y-138650000D02*
X78943584Y-138650000D01*
%TO.N,F5*%
X74950000Y-104100000D02*
X73925000Y-103075000D01*
X97400000Y-104100000D02*
X74950000Y-104100000D01*
%TO.N,1f*%
X101484642Y-48115358D02*
X52680000Y-48115358D01*
%TO.N,2f*%
X99675000Y-58425000D02*
X99700000Y-58400000D01*
X87575280Y-58924720D02*
X88075000Y-58425000D01*
X88075000Y-58425000D02*
X99675000Y-58425000D01*
X57700000Y-58924720D02*
X87575280Y-58924720D01*
%TO.N,3f*%
X53921111Y-65030000D02*
X52680000Y-65030000D01*
X95255480Y-61294520D02*
X57650000Y-61294520D01*
X56415480Y-62535631D02*
X53921111Y-65030000D01*
X57650000Y-61294520D02*
X56415480Y-62535631D01*
%TO.N,4f*%
X57720000Y-67070000D02*
X59219521Y-68569521D01*
X101679521Y-68569521D02*
X102305000Y-69195000D01*
X59219521Y-68569521D02*
X101679521Y-68569521D01*
%TO.N,5f*%
X52700000Y-69550000D02*
X53289511Y-70139511D01*
X53289511Y-70139511D02*
X88662739Y-70139511D01*
X89375239Y-70852011D02*
X102797989Y-70852011D01*
X88662739Y-70139511D02*
X89375239Y-70852011D01*
X102797989Y-70852011D02*
X103050000Y-70600000D01*
%TO.N,6f*%
X102690000Y-108390000D02*
X101005489Y-106705489D01*
X101005489Y-106705489D02*
X51205489Y-106705489D01*
%TO.N,7f*%
X102362500Y-120287500D02*
X101175000Y-119100000D01*
X101175000Y-119100000D02*
X57750000Y-119100000D01*
%TO.N,8f*%
X90850000Y-133950000D02*
X54550000Y-133950000D01*
%TO.N,Net-(U4-Pad3)*%
X73575000Y-115025000D02*
X73900000Y-114700000D01*
X73900000Y-114700000D02*
X78600000Y-114700000D01*
%TO.N,Net-(U5-Pad3)*%
X73900000Y-74924520D02*
X79275480Y-74924520D01*
%TO.N,{slash}7*%
X76895000Y-125305000D02*
X79195000Y-125305000D01*
%TO.N,Net-(U12-Pad3)*%
X74046891Y-126646891D02*
X78528109Y-126646891D01*
X78528109Y-126646891D02*
X78600000Y-126575000D01*
%TO.N,Net-(U16-Pad3)*%
X71405000Y-140005000D02*
X78295000Y-140005000D01*
X78295000Y-140005000D02*
X79225000Y-139075000D01*
%TO.N,Net-(U17-Pad3)*%
X78375000Y-102425000D02*
X79305000Y-101495000D01*
X73475000Y-102425000D02*
X78375000Y-102425000D01*
D23*
%TO.N,+5V*%
X100750000Y-75450000D02*
X101200000Y-75900000D01*
X59550000Y-75900000D02*
X91988413Y-75925489D01*
X57750000Y-74850000D02*
X59550000Y-75900000D01*
X91988413Y-75925489D02*
X92463902Y-75450000D01*
X92463902Y-75450000D02*
X100750000Y-75450000D01*
D22*
%TO.N,SIG*%
X55140000Y-73810000D02*
X93040000Y-73810000D01*
%TD*%
M02*
