%TF.GenerationSoftware,KiCad,Pcbnew,(6.0.1)*%
%TF.CreationDate,2023-03-15T08:08:40-07:00*%
%TF.ProjectId,pipes_main,70697065-735f-46d6-9169-6e2e6b696361,rev?*%
%TF.SameCoordinates,Original*%
%TF.FileFunction,Legend,Top*%
%TF.FilePolarity,Positive*%
%FSLAX46Y46*%
G04 Gerber Fmt 4.6, Leading zero omitted, Abs format (unit mm)*
G04 Created by KiCad (PCBNEW (6.0.1)) date 2023-03-15 08:08:40*
%MOMM*%
%LPD*%
G01*
G04 APERTURE LIST*
%ADD10C,0.150000*%
%ADD11C,0.300000*%
%ADD12C,0.120000*%
%ADD13C,0.010000*%
G04 APERTURE END LIST*
D10*
X79871428Y-44485714D02*
X80109523Y-45152380D01*
X80347619Y-44485714D01*
X81252380Y-45152380D02*
X80680952Y-45152380D01*
X80966666Y-45152380D02*
X80966666Y-44152380D01*
X80871428Y-44295238D01*
X80776190Y-44390476D01*
X80680952Y-44438095D01*
X81680952Y-45057142D02*
X81728571Y-45104761D01*
X81680952Y-45152380D01*
X81633333Y-45104761D01*
X81680952Y-45057142D01*
X81680952Y-45152380D01*
X82347619Y-44152380D02*
X82442857Y-44152380D01*
X82538095Y-44200000D01*
X82585714Y-44247619D01*
X82633333Y-44342857D01*
X82680952Y-44533333D01*
X82680952Y-44771428D01*
X82633333Y-44961904D01*
X82585714Y-45057142D01*
X82538095Y-45104761D01*
X82442857Y-45152380D01*
X82347619Y-45152380D01*
X82252380Y-45104761D01*
X82204761Y-45057142D01*
X82157142Y-44961904D01*
X82109523Y-44771428D01*
X82109523Y-44533333D01*
X82157142Y-44342857D01*
X82204761Y-44247619D01*
X82252380Y-44200000D01*
X82347619Y-44152380D01*
D11*
X67828571Y-40850000D02*
X67685714Y-40778571D01*
X67471428Y-40778571D01*
X67257142Y-40850000D01*
X67114285Y-40992857D01*
X67042857Y-41135714D01*
X66971428Y-41421428D01*
X66971428Y-41635714D01*
X67042857Y-41921428D01*
X67114285Y-42064285D01*
X67257142Y-42207142D01*
X67471428Y-42278571D01*
X67614285Y-42278571D01*
X67828571Y-42207142D01*
X67900000Y-42135714D01*
X67900000Y-41635714D01*
X67614285Y-41635714D01*
X68542857Y-42278571D02*
X68542857Y-41278571D01*
X68542857Y-41564285D02*
X68614285Y-41421428D01*
X68685714Y-41350000D01*
X68828571Y-41278571D01*
X68971428Y-41278571D01*
X70042857Y-42207142D02*
X69900000Y-42278571D01*
X69614285Y-42278571D01*
X69471428Y-42207142D01*
X69400000Y-42064285D01*
X69400000Y-41492857D01*
X69471428Y-41350000D01*
X69614285Y-41278571D01*
X69900000Y-41278571D01*
X70042857Y-41350000D01*
X70114285Y-41492857D01*
X70114285Y-41635714D01*
X69400000Y-41778571D01*
X71328571Y-42207142D02*
X71185714Y-42278571D01*
X70900000Y-42278571D01*
X70757142Y-42207142D01*
X70685714Y-42064285D01*
X70685714Y-41492857D01*
X70757142Y-41350000D01*
X70900000Y-41278571D01*
X71185714Y-41278571D01*
X71328571Y-41350000D01*
X71400000Y-41492857D01*
X71400000Y-41635714D01*
X70685714Y-41778571D01*
X72042857Y-41278571D02*
X72042857Y-42278571D01*
X72042857Y-41421428D02*
X72114285Y-41350000D01*
X72257142Y-41278571D01*
X72471428Y-41278571D01*
X72614285Y-41350000D01*
X72685714Y-41492857D01*
X72685714Y-42278571D01*
X73185714Y-41278571D02*
X73757142Y-41278571D01*
X73400000Y-42278571D02*
X73400000Y-40992857D01*
X73471428Y-40850000D01*
X73614285Y-40778571D01*
X73757142Y-40778571D01*
X74900000Y-42278571D02*
X74900000Y-41492857D01*
X74828571Y-41350000D01*
X74685714Y-41278571D01*
X74400000Y-41278571D01*
X74257142Y-41350000D01*
X74900000Y-42207142D02*
X74757142Y-42278571D01*
X74400000Y-42278571D01*
X74257142Y-42207142D01*
X74185714Y-42064285D01*
X74185714Y-41921428D01*
X74257142Y-41778571D01*
X74400000Y-41707142D01*
X74757142Y-41707142D01*
X74900000Y-41635714D01*
X76257142Y-42207142D02*
X76114285Y-42278571D01*
X75828571Y-42278571D01*
X75685714Y-42207142D01*
X75614285Y-42135714D01*
X75542857Y-41992857D01*
X75542857Y-41564285D01*
X75614285Y-41421428D01*
X75685714Y-41350000D01*
X75828571Y-41278571D01*
X76114285Y-41278571D01*
X76257142Y-41350000D01*
X77471428Y-42207142D02*
X77328571Y-42278571D01*
X77042857Y-42278571D01*
X76900000Y-42207142D01*
X76828571Y-42064285D01*
X76828571Y-41492857D01*
X76900000Y-41350000D01*
X77042857Y-41278571D01*
X77328571Y-41278571D01*
X77471428Y-41350000D01*
X77542857Y-41492857D01*
X77542857Y-41635714D01*
X76828571Y-41778571D01*
X80042857Y-42278571D02*
X79328571Y-42278571D01*
X79328571Y-40778571D01*
X81185714Y-42278571D02*
X81185714Y-41492857D01*
X81114285Y-41350000D01*
X80971428Y-41278571D01*
X80685714Y-41278571D01*
X80542857Y-41350000D01*
X81185714Y-42207142D02*
X81042857Y-42278571D01*
X80685714Y-42278571D01*
X80542857Y-42207142D01*
X80471428Y-42064285D01*
X80471428Y-41921428D01*
X80542857Y-41778571D01*
X80685714Y-41707142D01*
X81042857Y-41707142D01*
X81185714Y-41635714D01*
X81900000Y-42278571D02*
X81900000Y-40778571D01*
X81900000Y-41350000D02*
X82042857Y-41278571D01*
X82328571Y-41278571D01*
X82471428Y-41350000D01*
X82542857Y-41421428D01*
X82614285Y-41564285D01*
X82614285Y-41992857D01*
X82542857Y-42135714D01*
X82471428Y-42207142D01*
X82328571Y-42278571D01*
X82042857Y-42278571D01*
X81900000Y-42207142D01*
X83185714Y-42207142D02*
X83328571Y-42278571D01*
X83614285Y-42278571D01*
X83757142Y-42207142D01*
X83828571Y-42064285D01*
X83828571Y-41992857D01*
X83757142Y-41850000D01*
X83614285Y-41778571D01*
X83400000Y-41778571D01*
X83257142Y-41707142D01*
X83185714Y-41564285D01*
X83185714Y-41492857D01*
X83257142Y-41350000D01*
X83400000Y-41278571D01*
X83614285Y-41278571D01*
X83757142Y-41350000D01*
X71507142Y-43378571D02*
X71507142Y-43664285D01*
X72078571Y-43378571D02*
X72078571Y-43664285D01*
X72721428Y-44878571D02*
X72721428Y-43378571D01*
X73292857Y-43378571D01*
X73435714Y-43450000D01*
X73507142Y-43521428D01*
X73578571Y-43664285D01*
X73578571Y-43878571D01*
X73507142Y-44021428D01*
X73435714Y-44092857D01*
X73292857Y-44164285D01*
X72721428Y-44164285D01*
X74221428Y-44878571D02*
X74221428Y-43878571D01*
X74221428Y-43378571D02*
X74150000Y-43450000D01*
X74221428Y-43521428D01*
X74292857Y-43450000D01*
X74221428Y-43378571D01*
X74221428Y-43521428D01*
X74935714Y-43878571D02*
X74935714Y-45378571D01*
X74935714Y-43950000D02*
X75078571Y-43878571D01*
X75364285Y-43878571D01*
X75507142Y-43950000D01*
X75578571Y-44021428D01*
X75650000Y-44164285D01*
X75650000Y-44592857D01*
X75578571Y-44735714D01*
X75507142Y-44807142D01*
X75364285Y-44878571D01*
X75078571Y-44878571D01*
X74935714Y-44807142D01*
X76864285Y-44807142D02*
X76721428Y-44878571D01*
X76435714Y-44878571D01*
X76292857Y-44807142D01*
X76221428Y-44664285D01*
X76221428Y-44092857D01*
X76292857Y-43950000D01*
X76435714Y-43878571D01*
X76721428Y-43878571D01*
X76864285Y-43950000D01*
X76935714Y-44092857D01*
X76935714Y-44235714D01*
X76221428Y-44378571D01*
X77507142Y-44807142D02*
X77650000Y-44878571D01*
X77935714Y-44878571D01*
X78078571Y-44807142D01*
X78150000Y-44664285D01*
X78150000Y-44592857D01*
X78078571Y-44450000D01*
X77935714Y-44378571D01*
X77721428Y-44378571D01*
X77578571Y-44307142D01*
X77507142Y-44164285D01*
X77507142Y-44092857D01*
X77578571Y-43950000D01*
X77721428Y-43878571D01*
X77935714Y-43878571D01*
X78078571Y-43950000D01*
X78721428Y-43378571D02*
X78721428Y-43664285D01*
X79292857Y-43378571D02*
X79292857Y-43664285D01*
D10*
%TO.C,J16*%
X100202380Y-128409523D02*
X100916666Y-128409523D01*
X101059523Y-128457142D01*
X101154761Y-128552380D01*
X101202380Y-128695238D01*
X101202380Y-128790476D01*
X101202380Y-127409523D02*
X101202380Y-127980952D01*
X101202380Y-127695238D02*
X100202380Y-127695238D01*
X100345238Y-127790476D01*
X100440476Y-127885714D01*
X100488095Y-127980952D01*
X100202380Y-126552380D02*
X100202380Y-126742857D01*
X100250000Y-126838095D01*
X100297619Y-126885714D01*
X100440476Y-126980952D01*
X100630952Y-127028571D01*
X101011904Y-127028571D01*
X101107142Y-126980952D01*
X101154761Y-126933333D01*
X101202380Y-126838095D01*
X101202380Y-126647619D01*
X101154761Y-126552380D01*
X101107142Y-126504761D01*
X101011904Y-126457142D01*
X100773809Y-126457142D01*
X100678571Y-126504761D01*
X100630952Y-126552380D01*
X100583333Y-126647619D01*
X100583333Y-126838095D01*
X100630952Y-126933333D01*
X100678571Y-126980952D01*
X100773809Y-127028571D01*
%TO.C,J14*%
X100202380Y-76409523D02*
X100916666Y-76409523D01*
X101059523Y-76457142D01*
X101154761Y-76552380D01*
X101202380Y-76695238D01*
X101202380Y-76790476D01*
X101202380Y-75409523D02*
X101202380Y-75980952D01*
X101202380Y-75695238D02*
X100202380Y-75695238D01*
X100345238Y-75790476D01*
X100440476Y-75885714D01*
X100488095Y-75980952D01*
X100535714Y-74552380D02*
X101202380Y-74552380D01*
X100154761Y-74790476D02*
X100869047Y-75028571D01*
X100869047Y-74409523D01*
%TO.C,RV1*%
X82822380Y-102575238D02*
X82346190Y-102908571D01*
X82822380Y-103146666D02*
X81822380Y-103146666D01*
X81822380Y-102765714D01*
X81870000Y-102670476D01*
X81917619Y-102622857D01*
X82012857Y-102575238D01*
X82155714Y-102575238D01*
X82250952Y-102622857D01*
X82298571Y-102670476D01*
X82346190Y-102765714D01*
X82346190Y-103146666D01*
X81822380Y-102289523D02*
X82822380Y-101956190D01*
X81822380Y-101622857D01*
X82822380Y-100765714D02*
X82822380Y-101337142D01*
X82822380Y-101051428D02*
X81822380Y-101051428D01*
X81965238Y-101146666D01*
X82060476Y-101241904D01*
X82108095Y-101337142D01*
%TO.C,J9*%
X49666666Y-81052380D02*
X49666666Y-81766666D01*
X49619047Y-81909523D01*
X49523809Y-82004761D01*
X49380952Y-82052380D01*
X49285714Y-82052380D01*
X50190476Y-82052380D02*
X50380952Y-82052380D01*
X50476190Y-82004761D01*
X50523809Y-81957142D01*
X50619047Y-81814285D01*
X50666666Y-81623809D01*
X50666666Y-81242857D01*
X50619047Y-81147619D01*
X50571428Y-81100000D01*
X50476190Y-81052380D01*
X50285714Y-81052380D01*
X50190476Y-81100000D01*
X50142857Y-81147619D01*
X50095238Y-81242857D01*
X50095238Y-81480952D01*
X50142857Y-81576190D01*
X50190476Y-81623809D01*
X50285714Y-81671428D01*
X50476190Y-81671428D01*
X50571428Y-81623809D01*
X50619047Y-81576190D01*
X50666666Y-81480952D01*
%TO.C,J15*%
X100202380Y-50409523D02*
X100916666Y-50409523D01*
X101059523Y-50457142D01*
X101154761Y-50552380D01*
X101202380Y-50695238D01*
X101202380Y-50790476D01*
X101202380Y-49409523D02*
X101202380Y-49980952D01*
X101202380Y-49695238D02*
X100202380Y-49695238D01*
X100345238Y-49790476D01*
X100440476Y-49885714D01*
X100488095Y-49980952D01*
X100202380Y-48504761D02*
X100202380Y-48980952D01*
X100678571Y-49028571D01*
X100630952Y-48980952D01*
X100583333Y-48885714D01*
X100583333Y-48647619D01*
X100630952Y-48552380D01*
X100678571Y-48504761D01*
X100773809Y-48457142D01*
X101011904Y-48457142D01*
X101107142Y-48504761D01*
X101154761Y-48552380D01*
X101202380Y-48647619D01*
X101202380Y-48885714D01*
X101154761Y-48980952D01*
X101107142Y-49028571D01*
%TO.C,J19*%
X100202380Y-141409523D02*
X100916666Y-141409523D01*
X101059523Y-141457142D01*
X101154761Y-141552380D01*
X101202380Y-141695238D01*
X101202380Y-141790476D01*
X101202380Y-140409523D02*
X101202380Y-140980952D01*
X101202380Y-140695238D02*
X100202380Y-140695238D01*
X100345238Y-140790476D01*
X100440476Y-140885714D01*
X100488095Y-140980952D01*
X101202380Y-139933333D02*
X101202380Y-139742857D01*
X101154761Y-139647619D01*
X101107142Y-139600000D01*
X100964285Y-139504761D01*
X100773809Y-139457142D01*
X100392857Y-139457142D01*
X100297619Y-139504761D01*
X100250000Y-139552380D01*
X100202380Y-139647619D01*
X100202380Y-139838095D01*
X100250000Y-139933333D01*
X100297619Y-139980952D01*
X100392857Y-140028571D01*
X100630952Y-140028571D01*
X100726190Y-139980952D01*
X100773809Y-139933333D01*
X100821428Y-139838095D01*
X100821428Y-139647619D01*
X100773809Y-139552380D01*
X100726190Y-139504761D01*
X100630952Y-139457142D01*
%TO.C,J13*%
X100202380Y-115409523D02*
X100916666Y-115409523D01*
X101059523Y-115457142D01*
X101154761Y-115552380D01*
X101202380Y-115695238D01*
X101202380Y-115790476D01*
X101202380Y-114409523D02*
X101202380Y-114980952D01*
X101202380Y-114695238D02*
X100202380Y-114695238D01*
X100345238Y-114790476D01*
X100440476Y-114885714D01*
X100488095Y-114980952D01*
X100202380Y-114076190D02*
X100202380Y-113457142D01*
X100583333Y-113790476D01*
X100583333Y-113647619D01*
X100630952Y-113552380D01*
X100678571Y-113504761D01*
X100773809Y-113457142D01*
X101011904Y-113457142D01*
X101107142Y-113504761D01*
X101154761Y-113552380D01*
X101202380Y-113647619D01*
X101202380Y-113933333D01*
X101154761Y-114028571D01*
X101107142Y-114076190D01*
%TO.C,J7*%
X49816666Y-46402380D02*
X49816666Y-47116666D01*
X49769047Y-47259523D01*
X49673809Y-47354761D01*
X49530952Y-47402380D01*
X49435714Y-47402380D01*
X50197619Y-46402380D02*
X50864285Y-46402380D01*
X50435714Y-47402380D01*
%TO.C,J20*%
X100202380Y-102409523D02*
X100916666Y-102409523D01*
X101059523Y-102457142D01*
X101154761Y-102552380D01*
X101202380Y-102695238D01*
X101202380Y-102790476D01*
X100297619Y-101980952D02*
X100250000Y-101933333D01*
X100202380Y-101838095D01*
X100202380Y-101600000D01*
X100250000Y-101504761D01*
X100297619Y-101457142D01*
X100392857Y-101409523D01*
X100488095Y-101409523D01*
X100630952Y-101457142D01*
X101202380Y-102028571D01*
X101202380Y-101409523D01*
X100202380Y-100790476D02*
X100202380Y-100695238D01*
X100250000Y-100600000D01*
X100297619Y-100552380D01*
X100392857Y-100504761D01*
X100583333Y-100457142D01*
X100821428Y-100457142D01*
X101011904Y-100504761D01*
X101107142Y-100552380D01*
X101154761Y-100600000D01*
X101202380Y-100695238D01*
X101202380Y-100790476D01*
X101154761Y-100885714D01*
X101107142Y-100933333D01*
X101011904Y-100980952D01*
X100821428Y-101028571D01*
X100583333Y-101028571D01*
X100392857Y-100980952D01*
X100297619Y-100933333D01*
X100250000Y-100885714D01*
X100202380Y-100790476D01*
%TO.C,J12*%
X49840476Y-92902380D02*
X49840476Y-93616666D01*
X49792857Y-93759523D01*
X49697619Y-93854761D01*
X49554761Y-93902380D01*
X49459523Y-93902380D01*
X50840476Y-93902380D02*
X50269047Y-93902380D01*
X50554761Y-93902380D02*
X50554761Y-92902380D01*
X50459523Y-93045238D01*
X50364285Y-93140476D01*
X50269047Y-93188095D01*
X51221428Y-92997619D02*
X51269047Y-92950000D01*
X51364285Y-92902380D01*
X51602380Y-92902380D01*
X51697619Y-92950000D01*
X51745238Y-92997619D01*
X51792857Y-93092857D01*
X51792857Y-93188095D01*
X51745238Y-93330952D01*
X51173809Y-93902380D01*
X51792857Y-93902380D01*
%TO.C,J5*%
X49766666Y-107352380D02*
X49766666Y-108066666D01*
X49719047Y-108209523D01*
X49623809Y-108304761D01*
X49480952Y-108352380D01*
X49385714Y-108352380D01*
X50719047Y-107352380D02*
X50242857Y-107352380D01*
X50195238Y-107828571D01*
X50242857Y-107780952D01*
X50338095Y-107733333D01*
X50576190Y-107733333D01*
X50671428Y-107780952D01*
X50719047Y-107828571D01*
X50766666Y-107923809D01*
X50766666Y-108161904D01*
X50719047Y-108257142D01*
X50671428Y-108304761D01*
X50576190Y-108352380D01*
X50338095Y-108352380D01*
X50242857Y-108304761D01*
X50195238Y-108257142D01*
%TO.C,J10*%
X49990476Y-55152380D02*
X49990476Y-55866666D01*
X49942857Y-56009523D01*
X49847619Y-56104761D01*
X49704761Y-56152380D01*
X49609523Y-56152380D01*
X50990476Y-56152380D02*
X50419047Y-56152380D01*
X50704761Y-56152380D02*
X50704761Y-55152380D01*
X50609523Y-55295238D01*
X50514285Y-55390476D01*
X50419047Y-55438095D01*
X51609523Y-55152380D02*
X51704761Y-55152380D01*
X51800000Y-55200000D01*
X51847619Y-55247619D01*
X51895238Y-55342857D01*
X51942857Y-55533333D01*
X51942857Y-55771428D01*
X51895238Y-55961904D01*
X51847619Y-56057142D01*
X51800000Y-56104761D01*
X51704761Y-56152380D01*
X51609523Y-56152380D01*
X51514285Y-56104761D01*
X51466666Y-56057142D01*
X51419047Y-55961904D01*
X51371428Y-55771428D01*
X51371428Y-55533333D01*
X51419047Y-55342857D01*
X51466666Y-55247619D01*
X51514285Y-55200000D01*
X51609523Y-55152380D01*
%TO.C,J4*%
X91566666Y-121052380D02*
X91566666Y-121766666D01*
X91519047Y-121909523D01*
X91423809Y-122004761D01*
X91280952Y-122052380D01*
X91185714Y-122052380D01*
X92471428Y-121385714D02*
X92471428Y-122052380D01*
X92233333Y-121004761D02*
X91995238Y-121719047D01*
X92614285Y-121719047D01*
%TO.C,J11*%
X49690476Y-133102380D02*
X49690476Y-133816666D01*
X49642857Y-133959523D01*
X49547619Y-134054761D01*
X49404761Y-134102380D01*
X49309523Y-134102380D01*
X50690476Y-134102380D02*
X50119047Y-134102380D01*
X50404761Y-134102380D02*
X50404761Y-133102380D01*
X50309523Y-133245238D01*
X50214285Y-133340476D01*
X50119047Y-133388095D01*
X51642857Y-134102380D02*
X51071428Y-134102380D01*
X51357142Y-134102380D02*
X51357142Y-133102380D01*
X51261904Y-133245238D01*
X51166666Y-133340476D01*
X51071428Y-133388095D01*
%TO.C,J18*%
X100202380Y-89409523D02*
X100916666Y-89409523D01*
X101059523Y-89457142D01*
X101154761Y-89552380D01*
X101202380Y-89695238D01*
X101202380Y-89790476D01*
X101202380Y-88409523D02*
X101202380Y-88980952D01*
X101202380Y-88695238D02*
X100202380Y-88695238D01*
X100345238Y-88790476D01*
X100440476Y-88885714D01*
X100488095Y-88980952D01*
X100630952Y-87838095D02*
X100583333Y-87933333D01*
X100535714Y-87980952D01*
X100440476Y-88028571D01*
X100392857Y-88028571D01*
X100297619Y-87980952D01*
X100250000Y-87933333D01*
X100202380Y-87838095D01*
X100202380Y-87647619D01*
X100250000Y-87552380D01*
X100297619Y-87504761D01*
X100392857Y-87457142D01*
X100440476Y-87457142D01*
X100535714Y-87504761D01*
X100583333Y-87552380D01*
X100630952Y-87647619D01*
X100630952Y-87838095D01*
X100678571Y-87933333D01*
X100726190Y-87980952D01*
X100821428Y-88028571D01*
X101011904Y-88028571D01*
X101107142Y-87980952D01*
X101154761Y-87933333D01*
X101202380Y-87838095D01*
X101202380Y-87647619D01*
X101154761Y-87552380D01*
X101107142Y-87504761D01*
X101011904Y-87457142D01*
X100821428Y-87457142D01*
X100726190Y-87504761D01*
X100678571Y-87552380D01*
X100630952Y-87647619D01*
%TO.C,J1*%
X91566666Y-59052380D02*
X91566666Y-59766666D01*
X91519047Y-59909523D01*
X91423809Y-60004761D01*
X91280952Y-60052380D01*
X91185714Y-60052380D01*
X92566666Y-60052380D02*
X91995238Y-60052380D01*
X92280952Y-60052380D02*
X92280952Y-59052380D01*
X92185714Y-59195238D01*
X92090476Y-59290476D01*
X91995238Y-59338095D01*
%TO.C,J8*%
X49666666Y-120002380D02*
X49666666Y-120716666D01*
X49619047Y-120859523D01*
X49523809Y-120954761D01*
X49380952Y-121002380D01*
X49285714Y-121002380D01*
X50285714Y-120430952D02*
X50190476Y-120383333D01*
X50142857Y-120335714D01*
X50095238Y-120240476D01*
X50095238Y-120192857D01*
X50142857Y-120097619D01*
X50190476Y-120050000D01*
X50285714Y-120002380D01*
X50476190Y-120002380D01*
X50571428Y-120050000D01*
X50619047Y-120097619D01*
X50666666Y-120192857D01*
X50666666Y-120240476D01*
X50619047Y-120335714D01*
X50571428Y-120383333D01*
X50476190Y-120430952D01*
X50285714Y-120430952D01*
X50190476Y-120478571D01*
X50142857Y-120526190D01*
X50095238Y-120621428D01*
X50095238Y-120811904D01*
X50142857Y-120907142D01*
X50190476Y-120954761D01*
X50285714Y-121002380D01*
X50476190Y-121002380D01*
X50571428Y-120954761D01*
X50619047Y-120907142D01*
X50666666Y-120811904D01*
X50666666Y-120621428D01*
X50619047Y-120526190D01*
X50571428Y-120478571D01*
X50476190Y-120430952D01*
%TO.C,J6*%
X49666666Y-68102380D02*
X49666666Y-68816666D01*
X49619047Y-68959523D01*
X49523809Y-69054761D01*
X49380952Y-69102380D01*
X49285714Y-69102380D01*
X50571428Y-68102380D02*
X50380952Y-68102380D01*
X50285714Y-68150000D01*
X50238095Y-68197619D01*
X50142857Y-68340476D01*
X50095238Y-68530952D01*
X50095238Y-68911904D01*
X50142857Y-69007142D01*
X50190476Y-69054761D01*
X50285714Y-69102380D01*
X50476190Y-69102380D01*
X50571428Y-69054761D01*
X50619047Y-69007142D01*
X50666666Y-68911904D01*
X50666666Y-68673809D01*
X50619047Y-68578571D01*
X50571428Y-68530952D01*
X50476190Y-68483333D01*
X50285714Y-68483333D01*
X50190476Y-68530952D01*
X50142857Y-68578571D01*
X50095238Y-68673809D01*
%TO.C,J17*%
X100202380Y-63409523D02*
X100916666Y-63409523D01*
X101059523Y-63457142D01*
X101154761Y-63552380D01*
X101202380Y-63695238D01*
X101202380Y-63790476D01*
X101202380Y-62409523D02*
X101202380Y-62980952D01*
X101202380Y-62695238D02*
X100202380Y-62695238D01*
X100345238Y-62790476D01*
X100440476Y-62885714D01*
X100488095Y-62980952D01*
X100202380Y-62076190D02*
X100202380Y-61409523D01*
X101202380Y-61838095D01*
D12*
%TO.C,J16*%
X101950000Y-121720000D02*
X110050000Y-121720000D01*
X101950000Y-133980000D02*
X101950000Y-121720000D01*
X110050000Y-133980000D02*
X101950000Y-133980000D01*
X110050000Y-133980000D02*
X110050000Y-121720000D01*
%TO.C,J14*%
X110050000Y-81980000D02*
X101950000Y-81980000D01*
X101950000Y-69720000D02*
X110050000Y-69720000D01*
X110050000Y-81980000D02*
X110050000Y-69720000D01*
X101950000Y-81980000D02*
X101950000Y-69720000D01*
%TO.C,RV1*%
X85050000Y-98775000D02*
X85050000Y-94910000D01*
X94990000Y-98775000D02*
X94990000Y-94910000D01*
X85050000Y-107150000D02*
X85050000Y-103285000D01*
X85050000Y-94910000D02*
X94990000Y-94910000D01*
X90891000Y-107150000D02*
X91650000Y-107150000D01*
X93390000Y-107150000D02*
X94990000Y-107150000D01*
X94990000Y-107150000D02*
X94990000Y-103285000D01*
X88391000Y-107150000D02*
X89150000Y-107150000D01*
X85050000Y-107150000D02*
X86649000Y-107150000D01*
%TO.C,J9*%
X40950000Y-80980000D02*
X40950000Y-93240000D01*
X40950000Y-80980000D02*
X49050000Y-80980000D01*
X49050000Y-80980000D02*
X49050000Y-93240000D01*
X49050000Y-93240000D02*
X40950000Y-93240000D01*
%TO.C,J15*%
X101950000Y-55980000D02*
X101950000Y-43720000D01*
X110050000Y-55980000D02*
X101950000Y-55980000D01*
X101950000Y-43720000D02*
X110050000Y-43720000D01*
X110050000Y-55980000D02*
X110050000Y-43720000D01*
%TO.C,J19*%
X110050000Y-146980000D02*
X110050000Y-134720000D01*
X101950000Y-146980000D02*
X101950000Y-134720000D01*
X110050000Y-146980000D02*
X101950000Y-146980000D01*
X101950000Y-134720000D02*
X110050000Y-134720000D01*
%TO.C,J13*%
X110050000Y-120980000D02*
X110050000Y-108720000D01*
X101950000Y-120980000D02*
X101950000Y-108720000D01*
X101950000Y-108720000D02*
X110050000Y-108720000D01*
X110050000Y-120980000D02*
X101950000Y-120980000D01*
D13*
%TO.C,GR2*%
X77269503Y-62911883D02*
X77400006Y-62979883D01*
X77400006Y-62979883D02*
X77471080Y-63044414D01*
X77471080Y-63044414D02*
X77614392Y-63295594D01*
X77614392Y-63295594D02*
X77645831Y-63605427D01*
X77645831Y-63605427D02*
X77561081Y-63901776D01*
X77561081Y-63901776D02*
X77525799Y-63958881D01*
X77525799Y-63958881D02*
X77384111Y-64079615D01*
X77384111Y-64079615D02*
X77131825Y-64172777D01*
X77131825Y-64172777D02*
X76827299Y-64236348D01*
X76827299Y-64236348D02*
X75919650Y-64442105D01*
X75919650Y-64442105D02*
X75157163Y-64725399D01*
X75157163Y-64725399D02*
X74532199Y-65090793D01*
X74532199Y-65090793D02*
X74037118Y-65542849D01*
X74037118Y-65542849D02*
X73664281Y-66086130D01*
X73664281Y-66086130D02*
X73634808Y-66142918D01*
X73634808Y-66142918D02*
X73438272Y-66677913D01*
X73438272Y-66677913D02*
X73327493Y-67314117D01*
X73327493Y-67314117D02*
X73310347Y-68002376D01*
X73310347Y-68002376D02*
X73317500Y-68123684D01*
X73317500Y-68123684D02*
X73340107Y-68351607D01*
X73340107Y-68351607D02*
X73388957Y-68450266D01*
X73388957Y-68450266D02*
X73501413Y-68459362D01*
X73501413Y-68459362D02*
X73613833Y-68438573D01*
X73613833Y-68438573D02*
X74525179Y-68287702D01*
X74525179Y-68287702D02*
X75528457Y-68178970D01*
X75528457Y-68178970D02*
X76573700Y-68114303D01*
X76573700Y-68114303D02*
X77610946Y-68095629D01*
X77610946Y-68095629D02*
X78590229Y-68124875D01*
X78590229Y-68124875D02*
X79461586Y-68203969D01*
X79461586Y-68203969D02*
X79514000Y-68210978D01*
X79514000Y-68210978D02*
X80894357Y-68456654D01*
X80894357Y-68456654D02*
X82273075Y-68810305D01*
X82273075Y-68810305D02*
X83595199Y-69256040D01*
X83595199Y-69256040D02*
X84610625Y-69684742D01*
X84610625Y-69684742D02*
X84987517Y-69856055D01*
X84987517Y-69856055D02*
X85242077Y-69957087D01*
X85242077Y-69957087D02*
X85402052Y-69995975D01*
X85402052Y-69995975D02*
X85495190Y-69980856D01*
X85495190Y-69980856D02*
X85527132Y-69953499D01*
X85527132Y-69953499D02*
X85650784Y-69860753D01*
X85650784Y-69860753D02*
X85893003Y-69719993D01*
X85893003Y-69719993D02*
X86216578Y-69549593D01*
X86216578Y-69549593D02*
X86584302Y-69367930D01*
X86584302Y-69367930D02*
X86958964Y-69193377D01*
X86958964Y-69193377D02*
X87303355Y-69044311D01*
X87303355Y-69044311D02*
X87580266Y-68939106D01*
X87580266Y-68939106D02*
X87583373Y-68938070D01*
X87583373Y-68938070D02*
X88054772Y-68804927D01*
X88054772Y-68804927D02*
X88593420Y-68689739D01*
X88593420Y-68689739D02*
X89131139Y-68604589D01*
X89131139Y-68604589D02*
X89599751Y-68561564D01*
X89599751Y-68561564D02*
X89723781Y-68558667D01*
X89723781Y-68558667D02*
X90045670Y-68579569D01*
X90045670Y-68579569D02*
X90255098Y-68651678D01*
X90255098Y-68651678D02*
X90349180Y-68725847D01*
X90349180Y-68725847D02*
X90541111Y-69009204D01*
X90541111Y-69009204D02*
X90573482Y-69302220D01*
X90573482Y-69302220D02*
X90459579Y-69560173D01*
X90459579Y-69560173D02*
X90355755Y-69677913D01*
X90355755Y-69677913D02*
X90226026Y-69766021D01*
X90226026Y-69766021D02*
X90038594Y-69834558D01*
X90038594Y-69834558D02*
X89761660Y-69893586D01*
X89761660Y-69893586D02*
X89363426Y-69953165D01*
X89363426Y-69953165D02*
X89115406Y-69985478D01*
X89115406Y-69985478D02*
X88612261Y-70074184D01*
X88612261Y-70074184D02*
X88080497Y-70209450D01*
X88080497Y-70209450D02*
X87574359Y-70374339D01*
X87574359Y-70374339D02*
X87148094Y-70551908D01*
X87148094Y-70551908D02*
X86943121Y-70663834D01*
X86943121Y-70663834D02*
X86689830Y-70824207D01*
X86689830Y-70824207D02*
X87229415Y-71187079D01*
X87229415Y-71187079D02*
X87565050Y-71421676D01*
X87565050Y-71421676D02*
X87910063Y-71676886D01*
X87910063Y-71676886D02*
X88168477Y-71880274D01*
X88168477Y-71880274D02*
X88567954Y-72210598D01*
X88567954Y-72210598D02*
X89061701Y-71921221D01*
X89061701Y-71921221D02*
X90079817Y-71414742D01*
X90079817Y-71414742D02*
X91129102Y-71072805D01*
X91129102Y-71072805D02*
X92222006Y-70891656D01*
X92222006Y-70891656D02*
X92553725Y-70868422D01*
X92553725Y-70868422D02*
X93243423Y-70863771D01*
X93243423Y-70863771D02*
X93839864Y-70933442D01*
X93839864Y-70933442D02*
X94407790Y-71090854D01*
X94407790Y-71090854D02*
X95011946Y-71349426D01*
X95011946Y-71349426D02*
X95111109Y-71398476D01*
X95111109Y-71398476D02*
X95959914Y-71917776D01*
X95959914Y-71917776D02*
X96722868Y-72574953D01*
X96722868Y-72574953D02*
X97389630Y-73356320D01*
X97389630Y-73356320D02*
X97949862Y-74248191D01*
X97949862Y-74248191D02*
X98393224Y-75236877D01*
X98393224Y-75236877D02*
X98658246Y-76094000D01*
X98658246Y-76094000D02*
X98735827Y-76551859D01*
X98735827Y-76551859D02*
X98775783Y-77120392D01*
X98775783Y-77120392D02*
X98779339Y-77745458D01*
X98779339Y-77745458D02*
X98747718Y-78372915D01*
X98747718Y-78372915D02*
X98682146Y-78948620D01*
X98682146Y-78948620D02*
X98583845Y-79418432D01*
X98583845Y-79418432D02*
X98583013Y-79421331D01*
X98583013Y-79421331D02*
X98212735Y-80431232D01*
X98212735Y-80431232D02*
X97706235Y-81349890D01*
X97706235Y-81349890D02*
X97053862Y-82192889D01*
X97053862Y-82192889D02*
X96547464Y-82707233D01*
X96547464Y-82707233D02*
X96244262Y-82996674D01*
X96244262Y-82996674D02*
X96052265Y-83201223D01*
X96052265Y-83201223D02*
X95953118Y-83345018D01*
X95953118Y-83345018D02*
X95928466Y-83452202D01*
X95928466Y-83452202D02*
X95940475Y-83505538D01*
X95940475Y-83505538D02*
X95981755Y-83652223D01*
X95981755Y-83652223D02*
X96047166Y-83926645D01*
X96047166Y-83926645D02*
X96127940Y-84290434D01*
X96127940Y-84290434D02*
X96215307Y-84705221D01*
X96215307Y-84705221D02*
X96221040Y-84733205D01*
X96221040Y-84733205D02*
X96495990Y-86458976D01*
X96495990Y-86458976D02*
X96606356Y-88146765D01*
X96606356Y-88146765D02*
X96551657Y-89800354D01*
X96551657Y-89800354D02*
X96331410Y-91423525D01*
X96331410Y-91423525D02*
X95945133Y-93020060D01*
X95945133Y-93020060D02*
X95392346Y-94593740D01*
X95392346Y-94593740D02*
X94798444Y-95901792D01*
X94798444Y-95901792D02*
X94009811Y-97288260D01*
X94009811Y-97288260D02*
X93072694Y-98606169D01*
X93072694Y-98606169D02*
X91996937Y-99847001D01*
X91996937Y-99847001D02*
X90792385Y-101002241D01*
X90792385Y-101002241D02*
X89468885Y-102063375D01*
X89468885Y-102063375D02*
X88036281Y-103021884D01*
X88036281Y-103021884D02*
X86504418Y-103869255D01*
X86504418Y-103869255D02*
X84883142Y-104596972D01*
X84883142Y-104596972D02*
X84631392Y-104695844D01*
X84631392Y-104695844D02*
X83688889Y-105045558D01*
X83688889Y-105045558D02*
X82837141Y-105328853D01*
X82837141Y-105328853D02*
X82018914Y-105561616D01*
X82018914Y-105561616D02*
X81176978Y-105759733D01*
X81176978Y-105759733D02*
X80254101Y-105939088D01*
X80254101Y-105939088D02*
X79979667Y-105987036D01*
X79979667Y-105987036D02*
X79362970Y-106070349D01*
X79362970Y-106070349D02*
X78622576Y-106134675D01*
X78622576Y-106134675D02*
X77803166Y-106178983D01*
X77803166Y-106178983D02*
X76949422Y-106202241D01*
X76949422Y-106202241D02*
X76106024Y-106203419D01*
X76106024Y-106203419D02*
X75317655Y-106181484D01*
X75317655Y-106181484D02*
X74628995Y-106135406D01*
X74628995Y-106135406D02*
X74434000Y-106115047D01*
X74434000Y-106115047D02*
X72715051Y-105835511D01*
X72715051Y-105835511D02*
X71035047Y-105403539D01*
X71035047Y-105403539D02*
X69417866Y-104826145D01*
X69417866Y-104826145D02*
X68259141Y-104301174D01*
X68259141Y-104301174D02*
X66897233Y-103551518D01*
X66897233Y-103551518D02*
X65634588Y-102703241D01*
X65634588Y-102703241D02*
X64446564Y-101736970D01*
X64446564Y-101736970D02*
X63308522Y-100633330D01*
X63308522Y-100633330D02*
X62599885Y-99851578D01*
X62599885Y-99851578D02*
X62402874Y-99631122D01*
X62402874Y-99631122D02*
X62277761Y-99522385D01*
X62277761Y-99522385D02*
X62189119Y-99506105D01*
X62189119Y-99506105D02*
X62101521Y-99563025D01*
X62101521Y-99563025D02*
X62089265Y-99573979D01*
X62089265Y-99573979D02*
X61892231Y-99707944D01*
X61892231Y-99707944D02*
X61575391Y-99874568D01*
X61575391Y-99874568D02*
X61180422Y-100055538D01*
X61180422Y-100055538D02*
X60748997Y-100232539D01*
X60748997Y-100232539D02*
X60322791Y-100387259D01*
X60322791Y-100387259D02*
X60034971Y-100476721D01*
X60034971Y-100476721D02*
X59488612Y-100596228D01*
X59488612Y-100596228D02*
X58865899Y-100677272D01*
X58865899Y-100677272D02*
X58226512Y-100716170D01*
X58226512Y-100716170D02*
X57630134Y-100709237D01*
X57630134Y-100709237D02*
X57147706Y-100654955D01*
X57147706Y-100654955D02*
X56218173Y-100407928D01*
X56218173Y-100407928D02*
X55380413Y-100031636D01*
X55380413Y-100031636D02*
X54611536Y-99513298D01*
X54611536Y-99513298D02*
X53888654Y-98840130D01*
X53888654Y-98840130D02*
X53878514Y-98829292D01*
X53878514Y-98829292D02*
X53305260Y-98124571D01*
X53305260Y-98124571D02*
X52886860Y-97396206D01*
X52886860Y-97396206D02*
X52608865Y-96617194D01*
X52608865Y-96617194D02*
X52543347Y-96333940D01*
X52543347Y-96333940D02*
X52443161Y-95431014D01*
X52443161Y-95431014D02*
X52468768Y-95090527D01*
X52468768Y-95090527D02*
X53803857Y-95090527D01*
X53803857Y-95090527D02*
X53808908Y-95789248D01*
X53808908Y-95789248D02*
X53957758Y-96488491D01*
X53957758Y-96488491D02*
X54260785Y-97171011D01*
X54260785Y-97171011D02*
X54298202Y-97234742D01*
X54298202Y-97234742D02*
X54683976Y-97755622D01*
X54683976Y-97755622D02*
X55183753Y-98248889D01*
X55183753Y-98248889D02*
X55756051Y-98684025D01*
X55756051Y-98684025D02*
X56359388Y-99030513D01*
X56359388Y-99030513D02*
X56952281Y-99257834D01*
X56952281Y-99257834D02*
X57095731Y-99292834D01*
X57095731Y-99292834D02*
X57530590Y-99346486D01*
X57530590Y-99346486D02*
X58068566Y-99355860D01*
X58068566Y-99355860D02*
X58650499Y-99325054D01*
X58650499Y-99325054D02*
X59217232Y-99258166D01*
X59217232Y-99258166D02*
X59709604Y-99159293D01*
X59709604Y-99159293D02*
X59913667Y-99097645D01*
X59913667Y-99097645D02*
X60512544Y-98875003D01*
X60512544Y-98875003D02*
X60960920Y-98684746D01*
X60960920Y-98684746D02*
X61253601Y-98529235D01*
X61253601Y-98529235D02*
X61368247Y-98436304D01*
X61368247Y-98436304D02*
X61400515Y-98341060D01*
X61400515Y-98341060D02*
X61360878Y-98189808D01*
X61360878Y-98189808D02*
X61238119Y-97951190D01*
X61238119Y-97951190D02*
X61129408Y-97768570D01*
X61129408Y-97768570D02*
X60930929Y-97429811D01*
X60930929Y-97429811D02*
X60699689Y-97014124D01*
X60699689Y-97014124D02*
X60477268Y-96596725D01*
X60477268Y-96596725D02*
X60418713Y-96482879D01*
X60418713Y-96482879D02*
X60244670Y-96145946D01*
X60244670Y-96145946D02*
X60122979Y-95935321D01*
X60122979Y-95935321D02*
X60030507Y-95825739D01*
X60030507Y-95825739D02*
X59944120Y-95791930D01*
X59944120Y-95791930D02*
X59840684Y-95808627D01*
X59840684Y-95808627D02*
X59809685Y-95817662D01*
X59809685Y-95817662D02*
X59409125Y-95956829D01*
X59409125Y-95956829D02*
X59126866Y-96105703D01*
X59126866Y-96105703D02*
X58967781Y-96233672D01*
X58967781Y-96233672D02*
X58771522Y-96483301D01*
X58771522Y-96483301D02*
X58725639Y-96741119D01*
X58725639Y-96741119D02*
X58824314Y-97049272D01*
X58824314Y-97049272D02*
X58848552Y-97097331D01*
X58848552Y-97097331D02*
X59000249Y-97488858D01*
X59000249Y-97488858D02*
X59007223Y-97800862D01*
X59007223Y-97800862D02*
X58869632Y-98029374D01*
X58869632Y-98029374D02*
X58809532Y-98075058D01*
X58809532Y-98075058D02*
X58567687Y-98161773D01*
X58567687Y-98161773D02*
X58339597Y-98090244D01*
X58339597Y-98090244D02*
X58118296Y-97856437D01*
X58118296Y-97856437D02*
X57957372Y-97581649D01*
X57957372Y-97581649D02*
X57765255Y-97040576D01*
X57765255Y-97040576D02*
X57737730Y-96517239D01*
X57737730Y-96517239D02*
X57870438Y-96028267D01*
X57870438Y-96028267D02*
X58159020Y-95590294D01*
X58159020Y-95590294D02*
X58571707Y-95237844D01*
X58571707Y-95237844D02*
X58800229Y-95093535D01*
X58800229Y-95093535D02*
X58972027Y-94997943D01*
X58972027Y-94997943D02*
X59033671Y-94974667D01*
X59033671Y-94974667D02*
X59153053Y-94947131D01*
X59153053Y-94947131D02*
X59328571Y-94887122D01*
X59328571Y-94887122D02*
X59558832Y-94799577D01*
X59558832Y-94799577D02*
X59312916Y-94538027D01*
X59312916Y-94538027D02*
X58978732Y-94261849D01*
X58978732Y-94261849D02*
X58587422Y-94102610D01*
X58587422Y-94102610D02*
X58096905Y-94044351D01*
X58096905Y-94044351D02*
X58008572Y-94043334D01*
X58008572Y-94043334D02*
X57416494Y-94121871D01*
X57416494Y-94121871D02*
X56894309Y-94349978D01*
X56894309Y-94349978D02*
X56458919Y-94716392D01*
X56458919Y-94716392D02*
X56127228Y-95209852D01*
X56127228Y-95209852D02*
X56069550Y-95335052D01*
X56069550Y-95335052D02*
X55875769Y-95674454D01*
X55875769Y-95674454D02*
X55655905Y-95850691D01*
X55655905Y-95850691D02*
X55413638Y-95861697D01*
X55413638Y-95861697D02*
X55260468Y-95789058D01*
X55260468Y-95789058D02*
X55093107Y-95589916D01*
X55093107Y-95589916D02*
X55049851Y-95313707D01*
X55049851Y-95313707D02*
X55117764Y-94982832D01*
X55117764Y-94982832D02*
X55283909Y-94619690D01*
X55283909Y-94619690D02*
X55535350Y-94246679D01*
X55535350Y-94246679D02*
X55859150Y-93886198D01*
X55859150Y-93886198D02*
X56242372Y-93560647D01*
X56242372Y-93560647D02*
X56672080Y-93292425D01*
X56672080Y-93292425D02*
X56714957Y-93270686D01*
X56714957Y-93270686D02*
X56915243Y-93181038D01*
X56915243Y-93181038D02*
X57113089Y-93122479D01*
X57113089Y-93122479D02*
X57352141Y-93088643D01*
X57352141Y-93088643D02*
X57676044Y-93073165D01*
X57676044Y-93073165D02*
X58093334Y-93069667D01*
X58093334Y-93069667D02*
X59067000Y-93069667D01*
X59067000Y-93069667D02*
X58897667Y-92376218D01*
X58897667Y-92376218D02*
X58813735Y-92045084D01*
X58813735Y-92045084D02*
X58731579Y-91823130D01*
X58731579Y-91823130D02*
X58617747Y-91688463D01*
X58617747Y-91688463D02*
X58438783Y-91619187D01*
X58438783Y-91619187D02*
X58161235Y-91593411D01*
X58161235Y-91593411D02*
X57751647Y-91589240D01*
X57751647Y-91589240D02*
X57695018Y-91589156D01*
X57695018Y-91589156D02*
X56923237Y-91662823D01*
X56923237Y-91662823D02*
X56212241Y-91874984D01*
X56212241Y-91874984D02*
X55572407Y-92208392D01*
X55572407Y-92208392D02*
X55014113Y-92645802D01*
X55014113Y-92645802D02*
X54547733Y-93169967D01*
X54547733Y-93169967D02*
X54183646Y-93763641D01*
X54183646Y-93763641D02*
X53932229Y-94409576D01*
X53932229Y-94409576D02*
X53803857Y-95090527D01*
X53803857Y-95090527D02*
X52468768Y-95090527D01*
X52468768Y-95090527D02*
X52509574Y-94547956D01*
X52509574Y-94547956D02*
X52740295Y-93692377D01*
X52740295Y-93692377D02*
X53133034Y-92871889D01*
X53133034Y-92871889D02*
X53685500Y-92094106D01*
X53685500Y-92094106D02*
X53888638Y-91863072D01*
X53888638Y-91863072D02*
X54442488Y-91361037D01*
X54442488Y-91361037D02*
X55098473Y-90928395D01*
X55098473Y-90928395D02*
X55443355Y-90762735D01*
X55443355Y-90762735D02*
X59920309Y-90762735D01*
X59920309Y-90762735D02*
X59951378Y-91004520D01*
X59951378Y-91004520D02*
X60019437Y-91353743D01*
X60019437Y-91353743D02*
X60118470Y-91783084D01*
X60118470Y-91783084D02*
X60242456Y-92265222D01*
X60242456Y-92265222D02*
X60385376Y-92772838D01*
X60385376Y-92772838D02*
X60436088Y-92942667D01*
X60436088Y-92942667D02*
X61012397Y-94566156D01*
X61012397Y-94566156D02*
X61724395Y-96092723D01*
X61724395Y-96092723D02*
X62565633Y-97516862D01*
X62565633Y-97516862D02*
X63529661Y-98833070D01*
X63529661Y-98833070D02*
X64610027Y-100035843D01*
X64610027Y-100035843D02*
X65800284Y-101119676D01*
X65800284Y-101119676D02*
X67093979Y-102079067D01*
X67093979Y-102079067D02*
X68484664Y-102908509D01*
X68484664Y-102908509D02*
X69965887Y-103602501D01*
X69965887Y-103602501D02*
X71531200Y-104155537D01*
X71531200Y-104155537D02*
X73174153Y-104562113D01*
X73174153Y-104562113D02*
X74264667Y-104743088D01*
X74264667Y-104743088D02*
X74872226Y-104804640D01*
X74872226Y-104804640D02*
X75598157Y-104845437D01*
X75598157Y-104845437D02*
X76392759Y-104865334D01*
X76392759Y-104865334D02*
X77206327Y-104864186D01*
X77206327Y-104864186D02*
X77989162Y-104841849D01*
X77989162Y-104841849D02*
X78691559Y-104798177D01*
X78691559Y-104798177D02*
X79090667Y-104757130D01*
X79090667Y-104757130D02*
X80872628Y-104453983D01*
X80872628Y-104453983D02*
X82611794Y-104000314D01*
X82611794Y-104000314D02*
X84294636Y-103402585D01*
X84294636Y-103402585D02*
X85907628Y-102667254D01*
X85907628Y-102667254D02*
X87437243Y-101800780D01*
X87437243Y-101800780D02*
X88869953Y-100809623D01*
X88869953Y-100809623D02*
X90192232Y-99700241D01*
X90192232Y-99700241D02*
X90696798Y-99215230D01*
X90696798Y-99215230D02*
X91758129Y-98059811D01*
X91758129Y-98059811D02*
X92666291Y-96864516D01*
X92666291Y-96864516D02*
X93436726Y-95605089D01*
X93436726Y-95605089D02*
X94084876Y-94257274D01*
X94084876Y-94257274D02*
X94447428Y-93323667D01*
X94447428Y-93323667D02*
X94831548Y-92018488D01*
X94831548Y-92018488D02*
X95092311Y-90625937D01*
X95092311Y-90625937D02*
X95228305Y-89176127D01*
X95228305Y-89176127D02*
X95238121Y-87699170D01*
X95238121Y-87699170D02*
X95120349Y-86225179D01*
X95120349Y-86225179D02*
X94873577Y-84784268D01*
X94873577Y-84784268D02*
X94851946Y-84687667D01*
X94851946Y-84687667D02*
X94780151Y-84374067D01*
X94780151Y-84374067D02*
X94713018Y-84170961D01*
X94713018Y-84170961D02*
X94618223Y-84064981D01*
X94618223Y-84064981D02*
X94463442Y-84042761D01*
X94463442Y-84042761D02*
X94216353Y-84090935D01*
X94216353Y-84090935D02*
X93844630Y-84196135D01*
X93844630Y-84196135D02*
X93738000Y-84227022D01*
X93738000Y-84227022D02*
X93369634Y-84317893D01*
X93369634Y-84317893D02*
X92985878Y-84376226D01*
X92985878Y-84376226D02*
X92533245Y-84408082D01*
X92533245Y-84408082D02*
X92044667Y-84418954D01*
X92044667Y-84418954D02*
X91601115Y-84419466D01*
X91601115Y-84419466D02*
X91252142Y-84407541D01*
X91252142Y-84407541D02*
X90946210Y-84375652D01*
X90946210Y-84375652D02*
X90631780Y-84316271D01*
X90631780Y-84316271D02*
X90257314Y-84221870D01*
X90257314Y-84221870D02*
X89785263Y-84088943D01*
X89785263Y-84088943D02*
X89749206Y-84106550D01*
X89749206Y-84106550D02*
X89776915Y-84204443D01*
X89776915Y-84204443D02*
X89874668Y-84393455D01*
X89874668Y-84393455D02*
X90048747Y-84684425D01*
X90048747Y-84684425D02*
X90305432Y-85088186D01*
X90305432Y-85088186D02*
X90651003Y-85615577D01*
X90651003Y-85615577D02*
X90802094Y-85843379D01*
X90802094Y-85843379D02*
X91383194Y-86736036D01*
X91383194Y-86736036D02*
X91880497Y-87539121D01*
X91880497Y-87539121D02*
X92290010Y-88245210D01*
X92290010Y-88245210D02*
X92607745Y-88846884D01*
X92607745Y-88846884D02*
X92829711Y-89336720D01*
X92829711Y-89336720D02*
X92951918Y-89707298D01*
X92951918Y-89707298D02*
X92976000Y-89886395D01*
X92976000Y-89886395D02*
X92893375Y-90221536D01*
X92893375Y-90221536D02*
X92648456Y-90525664D01*
X92648456Y-90525664D02*
X92245674Y-90797364D01*
X92245674Y-90797364D02*
X91689462Y-91035217D01*
X91689462Y-91035217D02*
X90984253Y-91237807D01*
X90984253Y-91237807D02*
X90134480Y-91403715D01*
X90134480Y-91403715D02*
X89144573Y-91531526D01*
X89144573Y-91531526D02*
X88018967Y-91619820D01*
X88018967Y-91619820D02*
X87472667Y-91646152D01*
X87472667Y-91646152D02*
X86988753Y-91663733D01*
X86988753Y-91663733D02*
X86643657Y-91670064D01*
X86643657Y-91670064D02*
X86407087Y-91662594D01*
X86407087Y-91662594D02*
X86248752Y-91638772D01*
X86248752Y-91638772D02*
X86138359Y-91596050D01*
X86138359Y-91596050D02*
X86045618Y-91531877D01*
X86045618Y-91531877D02*
X86037567Y-91525342D01*
X86037567Y-91525342D02*
X85872525Y-91291744D01*
X85872525Y-91291744D02*
X85825717Y-90998752D01*
X85825717Y-90998752D02*
X85899239Y-90710205D01*
X85899239Y-90710205D02*
X86005947Y-90561757D01*
X86005947Y-90561757D02*
X86090017Y-90493725D01*
X86090017Y-90493725D02*
X86205023Y-90442225D01*
X86205023Y-90442225D02*
X86378642Y-90402673D01*
X86378642Y-90402673D02*
X86638549Y-90370484D01*
X86638549Y-90370484D02*
X87012420Y-90341072D01*
X87012420Y-90341072D02*
X87525714Y-90309979D01*
X87525714Y-90309979D02*
X88286172Y-90257560D01*
X88286172Y-90257560D02*
X89014051Y-90189530D01*
X89014051Y-90189530D02*
X89689402Y-90109144D01*
X89689402Y-90109144D02*
X90292280Y-90019657D01*
X90292280Y-90019657D02*
X90802739Y-89924324D01*
X90802739Y-89924324D02*
X91200831Y-89826398D01*
X91200831Y-89826398D02*
X91466610Y-89729136D01*
X91466610Y-89729136D02*
X91573558Y-89649473D01*
X91573558Y-89649473D02*
X91554160Y-89533159D01*
X91554160Y-89533159D02*
X91437435Y-89288286D01*
X91437435Y-89288286D02*
X91227910Y-88921568D01*
X91227910Y-88921568D02*
X90930115Y-88439720D01*
X90930115Y-88439720D02*
X90548578Y-87849457D01*
X90548578Y-87849457D02*
X90087828Y-87157494D01*
X90087828Y-87157494D02*
X89552392Y-86370546D01*
X89552392Y-86370546D02*
X88946800Y-85495327D01*
X88946800Y-85495327D02*
X88275580Y-84538552D01*
X88275580Y-84538552D02*
X87543261Y-83506935D01*
X87543261Y-83506935D02*
X86754371Y-82407193D01*
X86754371Y-82407193D02*
X85913438Y-81246039D01*
X85913438Y-81246039D02*
X85814874Y-81110623D01*
X85814874Y-81110623D02*
X85524985Y-80714175D01*
X85524985Y-80714175D02*
X85313119Y-80434344D01*
X85313119Y-80434344D02*
X85157685Y-80250813D01*
X85157685Y-80250813D02*
X85037091Y-80143267D01*
X85037091Y-80143267D02*
X84929743Y-80091391D01*
X84929743Y-80091391D02*
X84814051Y-80074868D01*
X84814051Y-80074868D02*
X84712537Y-80073456D01*
X84712537Y-80073456D02*
X84320463Y-80153729D01*
X84320463Y-80153729D02*
X83935120Y-80379937D01*
X83935120Y-80379937D02*
X83582279Y-80729757D01*
X83582279Y-80729757D02*
X83287714Y-81180867D01*
X83287714Y-81180867D02*
X83188121Y-81393858D01*
X83188121Y-81393858D02*
X83132306Y-81538794D01*
X83132306Y-81538794D02*
X83110444Y-81663719D01*
X83110444Y-81663719D02*
X83130854Y-81806559D01*
X83130854Y-81806559D02*
X83201852Y-82005239D01*
X83201852Y-82005239D02*
X83331756Y-82297684D01*
X83331756Y-82297684D02*
X83435222Y-82520603D01*
X83435222Y-82520603D02*
X83854154Y-83606950D01*
X83854154Y-83606950D02*
X84111057Y-84707139D01*
X84111057Y-84707139D02*
X84208310Y-85807680D01*
X84208310Y-85807680D02*
X84148294Y-86895081D01*
X84148294Y-86895081D02*
X83933389Y-87955853D01*
X83933389Y-87955853D02*
X83565975Y-88976503D01*
X83565975Y-88976503D02*
X83048432Y-89943543D01*
X83048432Y-89943543D02*
X82383140Y-90843482D01*
X82383140Y-90843482D02*
X81870750Y-91387859D01*
X81870750Y-91387859D02*
X80997112Y-92124383D01*
X80997112Y-92124383D02*
X80057492Y-92705024D01*
X80057492Y-92705024D02*
X79050244Y-93130500D01*
X79050244Y-93130500D02*
X77973719Y-93401531D01*
X77973719Y-93401531D02*
X77015959Y-93510299D01*
X77015959Y-93510299D02*
X75854662Y-93501087D01*
X75854662Y-93501087D02*
X74763402Y-93338382D01*
X74763402Y-93338382D02*
X73736464Y-93020017D01*
X73736464Y-93020017D02*
X72768133Y-92543825D01*
X72768133Y-92543825D02*
X71852695Y-91907640D01*
X71852695Y-91907640D02*
X71164313Y-91291667D01*
X71164313Y-91291667D02*
X70400003Y-90436465D01*
X70400003Y-90436465D02*
X69798508Y-89539903D01*
X69798508Y-89539903D02*
X69356865Y-88595146D01*
X69356865Y-88595146D02*
X69072112Y-87595360D01*
X69072112Y-87595360D02*
X68941288Y-86533710D01*
X68941288Y-86533710D02*
X68931430Y-86143999D01*
X68931430Y-86143999D02*
X70286585Y-86143999D01*
X70286585Y-86143999D02*
X70301841Y-86727276D01*
X70301841Y-86727276D02*
X70358914Y-87221680D01*
X70358914Y-87221680D02*
X70471639Y-87685712D01*
X70471639Y-87685712D02*
X70653854Y-88177872D01*
X70653854Y-88177872D02*
X70890311Y-88696569D01*
X70890311Y-88696569D02*
X71119988Y-89148339D01*
X71119988Y-89148339D02*
X71335311Y-89502153D01*
X71335311Y-89502153D02*
X71579197Y-89819411D01*
X71579197Y-89819411D02*
X71894563Y-90161511D01*
X71894563Y-90161511D02*
X71963107Y-90231351D01*
X71963107Y-90231351D02*
X72290874Y-90545050D01*
X72290874Y-90545050D02*
X72632732Y-90841711D01*
X72632732Y-90841711D02*
X72959060Y-91098671D01*
X72959060Y-91098671D02*
X73240233Y-91293264D01*
X73240233Y-91293264D02*
X73446628Y-91402824D01*
X73446628Y-91402824D02*
X73514923Y-91418667D01*
X73514923Y-91418667D02*
X73527209Y-91350681D01*
X73527209Y-91350681D02*
X73478497Y-91181739D01*
X73478497Y-91181739D02*
X73456013Y-91125053D01*
X73456013Y-91125053D02*
X73341040Y-90644593D01*
X73341040Y-90644593D02*
X73374972Y-90155798D01*
X73374972Y-90155798D02*
X73542009Y-89689654D01*
X73542009Y-89689654D02*
X73826351Y-89277148D01*
X73826351Y-89277148D02*
X74212199Y-88949267D01*
X74212199Y-88949267D02*
X74671929Y-88740390D01*
X74671929Y-88740390D02*
X75223606Y-88651997D01*
X75223606Y-88651997D02*
X75726954Y-88724962D01*
X75726954Y-88724962D02*
X76191099Y-88961638D01*
X76191099Y-88961638D02*
X76478244Y-89206526D01*
X76478244Y-89206526D02*
X76825935Y-89650150D01*
X76825935Y-89650150D02*
X77009937Y-90129064D01*
X77009937Y-90129064D02*
X77034109Y-90654057D01*
X77034109Y-90654057D02*
X77024719Y-90733602D01*
X77024719Y-90733602D02*
X76914136Y-91141518D01*
X76914136Y-91141518D02*
X76713521Y-91538006D01*
X76713521Y-91538006D02*
X76457552Y-91864216D01*
X76457552Y-91864216D02*
X76268822Y-92016323D01*
X76268822Y-92016323D02*
X76000334Y-92180034D01*
X76000334Y-92180034D02*
X76677667Y-92178880D01*
X76677667Y-92178880D02*
X77107008Y-92160632D01*
X77107008Y-92160632D02*
X77569124Y-92114038D01*
X77569124Y-92114038D02*
X77945238Y-92052698D01*
X77945238Y-92052698D02*
X78709388Y-91823331D01*
X78709388Y-91823331D02*
X79487094Y-91468399D01*
X79487094Y-91468399D02*
X80227756Y-91017082D01*
X80227756Y-91017082D02*
X80880775Y-90498560D01*
X80880775Y-90498560D02*
X81203949Y-90173492D01*
X81203949Y-90173492D02*
X81759462Y-89447674D01*
X81759462Y-89447674D02*
X82225112Y-88623899D01*
X82225112Y-88623899D02*
X82580889Y-87747006D01*
X82580889Y-87747006D02*
X82806783Y-86861835D01*
X82806783Y-86861835D02*
X82862230Y-86457409D01*
X82862230Y-86457409D02*
X82877302Y-85874989D01*
X82877302Y-85874989D02*
X82828562Y-85210457D01*
X82828562Y-85210457D02*
X82724385Y-84534877D01*
X82724385Y-84534877D02*
X82573146Y-83919316D01*
X82573146Y-83919316D02*
X82557070Y-83867901D01*
X82557070Y-83867901D02*
X82262488Y-83133181D01*
X82262488Y-83133181D02*
X81857377Y-82392693D01*
X81857377Y-82392693D02*
X81373492Y-81693957D01*
X81373492Y-81693957D02*
X80842590Y-81084492D01*
X80842590Y-81084492D02*
X80469691Y-80744294D01*
X80469691Y-80744294D02*
X79691823Y-80215222D01*
X79691823Y-80215222D02*
X78858820Y-79843551D01*
X78858820Y-79843551D02*
X77979919Y-79630061D01*
X77979919Y-79630061D02*
X77064357Y-79575531D01*
X77064357Y-79575531D02*
X76121371Y-79680742D01*
X76121371Y-79680742D02*
X75160199Y-79946475D01*
X75160199Y-79946475D02*
X74463299Y-80237053D01*
X74463299Y-80237053D02*
X73769915Y-80592023D01*
X73769915Y-80592023D02*
X73188325Y-80950098D01*
X73188325Y-80950098D02*
X72664171Y-81347062D01*
X72664171Y-81347062D02*
X72330053Y-81641478D01*
X72330053Y-81641478D02*
X71607638Y-82414618D01*
X71607638Y-82414618D02*
X71039987Y-83251285D01*
X71039987Y-83251285D02*
X70629224Y-84146805D01*
X70629224Y-84146805D02*
X70377469Y-85096503D01*
X70377469Y-85096503D02*
X70286844Y-86095704D01*
X70286844Y-86095704D02*
X70286585Y-86143999D01*
X70286585Y-86143999D02*
X68931430Y-86143999D01*
X68931430Y-86143999D02*
X68931306Y-86139108D01*
X68931306Y-86139108D02*
X68925663Y-85832455D01*
X68925663Y-85832455D02*
X68904272Y-85663795D01*
X68904272Y-85663795D02*
X68859171Y-85601967D01*
X68859171Y-85601967D02*
X68796117Y-85610182D01*
X68796117Y-85610182D02*
X68700421Y-85660243D01*
X68700421Y-85660243D02*
X68474117Y-85785151D01*
X68474117Y-85785151D02*
X68132987Y-85975921D01*
X68132987Y-85975921D02*
X67692814Y-86223570D01*
X67692814Y-86223570D02*
X67169380Y-86519114D01*
X67169380Y-86519114D02*
X66578469Y-86853568D01*
X66578469Y-86853568D02*
X65935862Y-87217950D01*
X65935862Y-87217950D02*
X65257343Y-87603274D01*
X65257343Y-87603274D02*
X64558694Y-88000558D01*
X64558694Y-88000558D02*
X63855698Y-88400818D01*
X63855698Y-88400818D02*
X63164138Y-88795069D01*
X63164138Y-88795069D02*
X62499795Y-89174327D01*
X62499795Y-89174327D02*
X61878454Y-89529609D01*
X61878454Y-89529609D02*
X61315896Y-89851931D01*
X61315896Y-89851931D02*
X60827904Y-90132309D01*
X60827904Y-90132309D02*
X60430261Y-90361760D01*
X60430261Y-90361760D02*
X60138749Y-90531298D01*
X60138749Y-90531298D02*
X59969152Y-90631941D01*
X59969152Y-90631941D02*
X59932252Y-90655710D01*
X59932252Y-90655710D02*
X59920309Y-90762735D01*
X59920309Y-90762735D02*
X55443355Y-90762735D01*
X55443355Y-90762735D02*
X55814783Y-90584324D01*
X55814783Y-90584324D02*
X56549611Y-90348005D01*
X56549611Y-90348005D02*
X57261148Y-90238618D01*
X57261148Y-90238618D02*
X57441102Y-90233334D01*
X57441102Y-90233334D02*
X57776683Y-90209281D01*
X57776683Y-90209281D02*
X58072092Y-90146900D01*
X58072092Y-90146900D02*
X58185330Y-90102543D01*
X58185330Y-90102543D02*
X58348630Y-90001005D01*
X58348630Y-90001005D02*
X58402791Y-89884791D01*
X58402791Y-89884791D02*
X58377613Y-89683096D01*
X58377613Y-89683096D02*
X58372413Y-89658043D01*
X58372413Y-89658043D02*
X58340718Y-89402936D01*
X58340718Y-89402936D02*
X58319047Y-89009781D01*
X58319047Y-89009781D02*
X58306865Y-88509533D01*
X58306865Y-88509533D02*
X58303633Y-87933150D01*
X58303633Y-87933150D02*
X58305708Y-87684127D01*
X58305708Y-87684127D02*
X59616462Y-87684127D01*
X59616462Y-87684127D02*
X59625142Y-88168720D01*
X59625142Y-88168720D02*
X59645178Y-88585913D01*
X59645178Y-88585913D02*
X59676090Y-88911073D01*
X59676090Y-88911073D02*
X59717393Y-89119562D01*
X59717393Y-89119562D02*
X59768607Y-89186747D01*
X59768607Y-89186747D02*
X59775809Y-89183910D01*
X59775809Y-89183910D02*
X59857039Y-89137578D01*
X59857039Y-89137578D02*
X60072409Y-89014854D01*
X60072409Y-89014854D02*
X60408917Y-88823144D01*
X60408917Y-88823144D02*
X60853558Y-88569855D01*
X60853558Y-88569855D02*
X61393328Y-88262394D01*
X61393328Y-88262394D02*
X62015225Y-87908169D01*
X62015225Y-87908169D02*
X62706245Y-87514585D01*
X62706245Y-87514585D02*
X63453384Y-87089051D01*
X63453384Y-87089051D02*
X64189334Y-86669902D01*
X64189334Y-86669902D02*
X64989628Y-86214311D01*
X64989628Y-86214311D02*
X65755888Y-85778478D01*
X65755888Y-85778478D02*
X66473718Y-85370566D01*
X66473718Y-85370566D02*
X67128723Y-84998737D01*
X67128723Y-84998737D02*
X67706508Y-84671153D01*
X67706508Y-84671153D02*
X68192678Y-84395976D01*
X68192678Y-84395976D02*
X68572837Y-84181370D01*
X68572837Y-84181370D02*
X68832592Y-84035496D01*
X68832592Y-84035496D02*
X68948311Y-83971451D01*
X68948311Y-83971451D02*
X69221405Y-83794869D01*
X69221405Y-83794869D02*
X69391605Y-83592621D01*
X69391605Y-83592621D02*
X69491768Y-83375334D01*
X69491768Y-83375334D02*
X69780119Y-82769585D01*
X69780119Y-82769585D02*
X70190186Y-82121801D01*
X70190186Y-82121801D02*
X70692910Y-81467022D01*
X70692910Y-81467022D02*
X71259232Y-80840288D01*
X71259232Y-80840288D02*
X71860093Y-80276640D01*
X71860093Y-80276640D02*
X72422877Y-79840842D01*
X72422877Y-79840842D02*
X73454674Y-79214044D01*
X73454674Y-79214044D02*
X74500708Y-78741541D01*
X74500708Y-78741541D02*
X75550543Y-78423130D01*
X75550543Y-78423130D02*
X76593743Y-78258607D01*
X76593743Y-78258607D02*
X77619874Y-78247769D01*
X77619874Y-78247769D02*
X78618500Y-78390412D01*
X78618500Y-78390412D02*
X79579186Y-78686331D01*
X79579186Y-78686331D02*
X80491496Y-79135325D01*
X80491496Y-79135325D02*
X81344996Y-79737188D01*
X81344996Y-79737188D02*
X81668209Y-80021268D01*
X81668209Y-80021268D02*
X81885876Y-80218072D01*
X81885876Y-80218072D02*
X82054214Y-80358445D01*
X82054214Y-80358445D02*
X82136783Y-80412000D01*
X82136783Y-80412000D02*
X82136788Y-80412000D01*
X82136788Y-80412000D02*
X82208971Y-80346737D01*
X82208971Y-80346737D02*
X82319418Y-80187113D01*
X82319418Y-80187113D02*
X82334422Y-80162137D01*
X82334422Y-80162137D02*
X82718753Y-79667869D01*
X82718753Y-79667869D02*
X83222995Y-79254743D01*
X83222995Y-79254743D02*
X83807665Y-78946739D01*
X83807665Y-78946739D02*
X84433279Y-78767836D01*
X84433279Y-78767836D02*
X84678755Y-78738313D01*
X84678755Y-78738313D02*
X85264954Y-78696370D01*
X85264954Y-78696370D02*
X85265228Y-78110850D01*
X85265228Y-78110850D02*
X86593486Y-78110850D01*
X86593486Y-78110850D02*
X86626411Y-78661369D01*
X86626411Y-78661369D02*
X86706668Y-79128545D01*
X86706668Y-79128545D02*
X86748557Y-79269000D01*
X86748557Y-79269000D02*
X87027897Y-79956642D01*
X87027897Y-79956642D02*
X87356954Y-80575120D01*
X87356954Y-80575120D02*
X87710396Y-81077701D01*
X87710396Y-81077701D02*
X87761123Y-81136995D01*
X87761123Y-81136995D02*
X88123605Y-81548928D01*
X88123605Y-81548928D02*
X88116742Y-81043801D01*
X88116742Y-81043801D02*
X88160842Y-80570500D01*
X88160842Y-80570500D02*
X88321968Y-80180726D01*
X88321968Y-80180726D02*
X88621759Y-79829854D01*
X88621759Y-79829854D02*
X88765133Y-79706619D01*
X88765133Y-79706619D02*
X89171439Y-79479889D01*
X89171439Y-79479889D02*
X89625527Y-79394502D01*
X89625527Y-79394502D02*
X90090796Y-79444989D01*
X90090796Y-79444989D02*
X90530645Y-79625883D01*
X90530645Y-79625883D02*
X90908474Y-79931714D01*
X90908474Y-79931714D02*
X90999230Y-80040382D01*
X90999230Y-80040382D02*
X91146481Y-80275949D01*
X91146481Y-80275949D02*
X91228768Y-80539196D01*
X91228768Y-80539196D02*
X91267820Y-80885032D01*
X91267820Y-80885032D02*
X91276887Y-81214081D01*
X91276887Y-81214081D02*
X91242781Y-81452450D01*
X91242781Y-81452450D02*
X91149919Y-81676534D01*
X91149919Y-81676534D02*
X91081434Y-81798833D01*
X91081434Y-81798833D02*
X90751381Y-82205512D01*
X90751381Y-82205512D02*
X90321163Y-82477024D01*
X90321163Y-82477024D02*
X90012667Y-82573287D01*
X90012667Y-82573287D02*
X89822973Y-82617529D01*
X89822973Y-82617529D02*
X89784851Y-82651656D01*
X89784851Y-82651656D02*
X89884038Y-82699812D01*
X89884038Y-82699812D02*
X89928000Y-82716638D01*
X89928000Y-82716638D02*
X90798715Y-82971666D01*
X90798715Y-82971666D02*
X91695615Y-83093286D01*
X91695615Y-83093286D02*
X92581741Y-83080322D01*
X92581741Y-83080322D02*
X93420129Y-82931597D01*
X93420129Y-82931597D02*
X93723342Y-82837541D01*
X93723342Y-82837541D02*
X94625953Y-82434306D01*
X94625953Y-82434306D02*
X95423383Y-81901517D01*
X95423383Y-81901517D02*
X96106877Y-81248561D01*
X96106877Y-81248561D02*
X96667675Y-80484826D01*
X96667675Y-80484826D02*
X97097023Y-79619701D01*
X97097023Y-79619701D02*
X97303766Y-78999066D01*
X97303766Y-78999066D02*
X97426463Y-78320412D01*
X97426463Y-78320412D02*
X97456460Y-77565292D01*
X97456460Y-77565292D02*
X97396275Y-76797271D01*
X97396275Y-76797271D02*
X97248422Y-76079910D01*
X97248422Y-76079910D02*
X97179583Y-75861576D01*
X97179583Y-75861576D02*
X96788677Y-74948442D01*
X96788677Y-74948442D02*
X96294170Y-74141785D01*
X96294170Y-74141785D02*
X95707262Y-73455149D01*
X95707262Y-73455149D02*
X95039153Y-72902077D01*
X95039153Y-72902077D02*
X94453454Y-72564759D01*
X94453454Y-72564759D02*
X94110873Y-72409899D01*
X94110873Y-72409899D02*
X93833045Y-72311936D01*
X93833045Y-72311936D02*
X93554217Y-72255370D01*
X93554217Y-72255370D02*
X93208633Y-72224701D01*
X93208633Y-72224701D02*
X92961481Y-72213062D01*
X92961481Y-72213062D02*
X92513330Y-72204284D01*
X92513330Y-72204284D02*
X92153666Y-72225891D01*
X92153666Y-72225891D02*
X91802953Y-72287273D01*
X91802953Y-72287273D02*
X91381652Y-72397817D01*
X91381652Y-72397817D02*
X91371442Y-72400742D01*
X91371442Y-72400742D02*
X90383364Y-72760120D01*
X90383364Y-72760120D02*
X89473715Y-73242616D01*
X89473715Y-73242616D02*
X88657885Y-73834391D01*
X88657885Y-73834391D02*
X87951263Y-74521605D01*
X87951263Y-74521605D02*
X87369239Y-75290418D01*
X87369239Y-75290418D02*
X86927201Y-76126991D01*
X86927201Y-76126991D02*
X86773454Y-76535775D01*
X86773454Y-76535775D02*
X86667532Y-76990399D01*
X86667532Y-76990399D02*
X86607368Y-77534642D01*
X86607368Y-77534642D02*
X86593486Y-78110850D01*
X86593486Y-78110850D02*
X85265228Y-78110850D01*
X85265228Y-78110850D02*
X85265336Y-77882019D01*
X85265336Y-77882019D02*
X85338263Y-76933042D01*
X85338263Y-76933042D02*
X85547686Y-76002560D01*
X85547686Y-76002560D02*
X85742669Y-75458069D01*
X85742669Y-75458069D02*
X85946921Y-75051191D01*
X85946921Y-75051191D02*
X86238494Y-74578852D01*
X86238494Y-74578852D02*
X86582441Y-74092741D01*
X86582441Y-74092741D02*
X86943818Y-73644550D01*
X86943818Y-73644550D02*
X87046507Y-73529464D01*
X87046507Y-73529464D02*
X87233319Y-73331141D01*
X87233319Y-73331141D02*
X87356006Y-73188348D01*
X87356006Y-73188348D02*
X87403511Y-73075034D01*
X87403511Y-73075034D02*
X87364774Y-72965148D01*
X87364774Y-72965148D02*
X87228737Y-72832639D01*
X87228737Y-72832639D02*
X86984340Y-72651456D01*
X86984340Y-72651456D02*
X86620526Y-72395547D01*
X86620526Y-72395547D02*
X86541334Y-72339416D01*
X86541334Y-72339416D02*
X86153139Y-72064712D01*
X86153139Y-72064712D02*
X85875595Y-71879107D01*
X85875595Y-71879107D02*
X85680662Y-71774552D01*
X85680662Y-71774552D02*
X85540296Y-71742994D01*
X85540296Y-71742994D02*
X85426458Y-71776384D01*
X85426458Y-71776384D02*
X85311106Y-71866670D01*
X85311106Y-71866670D02*
X85215206Y-71958673D01*
X85215206Y-71958673D02*
X84835479Y-72402785D01*
X84835479Y-72402785D02*
X84499489Y-72937050D01*
X84499489Y-72937050D02*
X84293325Y-73384667D01*
X84293325Y-73384667D02*
X84101865Y-73763090D01*
X84101865Y-73763090D02*
X83868184Y-73985373D01*
X83868184Y-73985373D02*
X83581199Y-74061821D01*
X83581199Y-74061821D02*
X83564772Y-74062000D01*
X83564772Y-74062000D02*
X83309797Y-73993695D01*
X83309797Y-73993695D02*
X83080434Y-73821947D01*
X83080434Y-73821947D02*
X82930761Y-73596504D01*
X82930761Y-73596504D02*
X82901701Y-73452015D01*
X82901701Y-73452015D02*
X82945281Y-73228225D01*
X82945281Y-73228225D02*
X83060926Y-72904892D01*
X83060926Y-72904892D02*
X83228540Y-72524529D01*
X83228540Y-72524529D02*
X83428028Y-72129652D01*
X83428028Y-72129652D02*
X83639296Y-71762774D01*
X83639296Y-71762774D02*
X83837035Y-71473141D01*
X83837035Y-71473141D02*
X84010018Y-71238939D01*
X84010018Y-71238939D02*
X84126410Y-71061830D01*
X84126410Y-71061830D02*
X84162248Y-70978434D01*
X84162248Y-70978434D02*
X84161458Y-70977344D01*
X84161458Y-70977344D02*
X84042741Y-70907537D01*
X84042741Y-70907537D02*
X83801881Y-70796498D01*
X83801881Y-70796498D02*
X83476354Y-70659512D01*
X83476354Y-70659512D02*
X83103642Y-70511864D01*
X83103642Y-70511864D02*
X82721222Y-70368840D01*
X82721222Y-70368840D02*
X82371650Y-70247397D01*
X82371650Y-70247397D02*
X80763112Y-69804270D01*
X80763112Y-69804270D02*
X79134920Y-69528829D01*
X79134920Y-69528829D02*
X77489776Y-69420907D01*
X77489776Y-69420907D02*
X75830385Y-69480340D01*
X75830385Y-69480340D02*
X74159447Y-69706962D01*
X74159447Y-69706962D02*
X72479667Y-70100607D01*
X72479667Y-70100607D02*
X70793746Y-70661110D01*
X70793746Y-70661110D02*
X69937412Y-71009015D01*
X69937412Y-71009015D02*
X68548781Y-71697359D01*
X68548781Y-71697359D02*
X67211990Y-72538552D01*
X67211990Y-72538552D02*
X65940769Y-73520453D01*
X65940769Y-73520453D02*
X64748852Y-74630922D01*
X64748852Y-74630922D02*
X63649969Y-75857818D01*
X63649969Y-75857818D02*
X62657852Y-77189000D01*
X62657852Y-77189000D02*
X62267803Y-77789940D01*
X62267803Y-77789940D02*
X61552555Y-79080584D01*
X61552555Y-79080584D02*
X60933904Y-80485542D01*
X60933904Y-80485542D02*
X60422204Y-81973400D01*
X60422204Y-81973400D02*
X60027810Y-83512745D01*
X60027810Y-83512745D02*
X59761078Y-85072162D01*
X59761078Y-85072162D02*
X59704957Y-85564471D01*
X59704957Y-85564471D02*
X59663387Y-86072308D01*
X59663387Y-86072308D02*
X59635102Y-86611286D01*
X59635102Y-86611286D02*
X59619621Y-87156771D01*
X59619621Y-87156771D02*
X59616462Y-87684127D01*
X59616462Y-87684127D02*
X58305708Y-87684127D01*
X58305708Y-87684127D02*
X58308814Y-87311586D01*
X58308814Y-87311586D02*
X58321871Y-86675798D01*
X58321871Y-86675798D02*
X58342266Y-86056741D01*
X58342266Y-86056741D02*
X58369463Y-85485372D01*
X58369463Y-85485372D02*
X58402923Y-84992644D01*
X58402923Y-84992644D02*
X58442109Y-84609516D01*
X58442109Y-84609516D02*
X58462371Y-84476000D01*
X58462371Y-84476000D02*
X58617636Y-83659651D01*
X58617636Y-83659651D02*
X58782280Y-82894077D01*
X58782280Y-82894077D02*
X58947611Y-82216998D01*
X58947611Y-82216998D02*
X59104936Y-81666131D01*
X59104936Y-81666131D02*
X59122645Y-81610974D01*
X59122645Y-81610974D02*
X59201144Y-81330058D01*
X59201144Y-81330058D02*
X59237526Y-81113764D01*
X59237526Y-81113764D02*
X59224574Y-81010539D01*
X59224574Y-81010539D02*
X59106901Y-80959140D01*
X59106901Y-80959140D02*
X58879170Y-80892971D01*
X58879170Y-80892971D02*
X58672525Y-80844381D01*
X58672525Y-80844381D02*
X57948431Y-80616675D01*
X57948431Y-80616675D02*
X57228603Y-80256962D01*
X57228603Y-80256962D02*
X56554169Y-79793449D01*
X56554169Y-79793449D02*
X55966257Y-79254344D01*
X55966257Y-79254344D02*
X55511416Y-78676334D01*
X55511416Y-78676334D02*
X55211053Y-78151560D01*
X55211053Y-78151560D02*
X55010728Y-77648761D01*
X55010728Y-77648761D02*
X54894431Y-77111168D01*
X54894431Y-77111168D02*
X54846155Y-76482014D01*
X54846155Y-76482014D02*
X54842856Y-76305667D01*
X54842856Y-76305667D02*
X54844402Y-75852043D01*
X54844402Y-75852043D02*
X54865480Y-75503521D01*
X54865480Y-75503521D02*
X54915139Y-75196191D01*
X54915139Y-75196191D02*
X55002426Y-74866146D01*
X55002426Y-74866146D02*
X55082591Y-74612334D01*
X55082591Y-74612334D02*
X55285806Y-74078905D01*
X55285806Y-74078905D02*
X55498382Y-73704061D01*
X55498382Y-73704061D02*
X55728701Y-73477056D01*
X55728701Y-73477056D02*
X55985142Y-73387144D01*
X55985142Y-73387144D02*
X56040062Y-73384667D01*
X56040062Y-73384667D02*
X56311343Y-73460454D01*
X56311343Y-73460454D02*
X56479342Y-73590665D01*
X56479342Y-73590665D02*
X56588920Y-73751125D01*
X56588920Y-73751125D02*
X56634260Y-73951298D01*
X56634260Y-73951298D02*
X56613165Y-74219522D01*
X56613165Y-74219522D02*
X56523439Y-74584137D01*
X56523439Y-74584137D02*
X56364835Y-75067916D01*
X56364835Y-75067916D02*
X56177983Y-75822622D01*
X56177983Y-75822622D02*
X56151668Y-76547885D01*
X56151668Y-76547885D02*
X56283131Y-77231716D01*
X56283131Y-77231716D02*
X56569612Y-77862130D01*
X56569612Y-77862130D02*
X57008351Y-78427138D01*
X57008351Y-78427138D02*
X57175133Y-78587396D01*
X57175133Y-78587396D02*
X57682653Y-78975431D01*
X57682653Y-78975431D02*
X58248268Y-79293019D01*
X58248268Y-79293019D02*
X58826525Y-79520080D01*
X58826525Y-79520080D02*
X59371968Y-79636531D01*
X59371968Y-79636531D02*
X59575000Y-79647642D01*
X59575000Y-79647642D02*
X59692227Y-79637694D01*
X59692227Y-79637694D02*
X59787362Y-79590015D01*
X59787362Y-79590015D02*
X59881330Y-79477291D01*
X59881330Y-79477291D02*
X59995052Y-79272208D01*
X59995052Y-79272208D02*
X60149452Y-78947454D01*
X60149452Y-78947454D02*
X60206585Y-78823146D01*
X60206585Y-78823146D02*
X60918549Y-77447690D01*
X60918549Y-77447690D02*
X61781792Y-76102475D01*
X61781792Y-76102475D02*
X62803610Y-74776641D01*
X62803610Y-74776641D02*
X63340800Y-74157014D01*
X63340800Y-74157014D02*
X63652545Y-73806506D01*
X63652545Y-73806506D02*
X63862424Y-73559159D01*
X63862424Y-73559159D02*
X63983972Y-73394214D01*
X63983972Y-73394214D02*
X64030727Y-73290914D01*
X64030727Y-73290914D02*
X64016224Y-73228501D01*
X64016224Y-73228501D02*
X63968976Y-73193724D01*
X63968976Y-73193724D02*
X63768947Y-73049078D01*
X63768947Y-73049078D02*
X63500868Y-72802237D01*
X63500868Y-72802237D02*
X63196189Y-72488021D01*
X63196189Y-72488021D02*
X62886359Y-72141254D01*
X62886359Y-72141254D02*
X62602826Y-71796757D01*
X62602826Y-71796757D02*
X62377041Y-71489351D01*
X62377041Y-71489351D02*
X62267464Y-71309731D01*
X62267464Y-71309731D02*
X61901642Y-70447797D01*
X61901642Y-70447797D02*
X61697621Y-69573705D01*
X61697621Y-69573705D02*
X61653319Y-68702724D01*
X61653319Y-68702724D02*
X61766656Y-67850125D01*
X61766656Y-67850125D02*
X62035553Y-67031177D01*
X62035553Y-67031177D02*
X62457929Y-66261150D01*
X62457929Y-66261150D02*
X63031703Y-65555314D01*
X63031703Y-65555314D02*
X63054626Y-65531834D01*
X63054626Y-65531834D02*
X63415960Y-65190135D01*
X63415960Y-65190135D02*
X63706866Y-64983220D01*
X63706866Y-64983220D02*
X63949850Y-64904322D01*
X63949850Y-64904322D02*
X64167420Y-64946673D01*
X64167420Y-64946673D02*
X64382081Y-65103505D01*
X64382081Y-65103505D02*
X64404849Y-65125818D01*
X64404849Y-65125818D02*
X64557933Y-65320734D01*
X64557933Y-65320734D02*
X64606357Y-65516886D01*
X64606357Y-65516886D02*
X64542965Y-65740473D01*
X64542965Y-65740473D02*
X64360604Y-66017693D01*
X64360604Y-66017693D02*
X64068682Y-66356735D01*
X64068682Y-66356735D02*
X63545053Y-67019715D01*
X63545053Y-67019715D02*
X63188760Y-67689524D01*
X63188760Y-67689524D02*
X62997814Y-68374907D01*
X62997814Y-68374907D02*
X62970228Y-69084610D01*
X62970228Y-69084610D02*
X63104014Y-69827378D01*
X63104014Y-69827378D02*
X63206892Y-70148643D01*
X63206892Y-70148643D02*
X63476221Y-70708322D01*
X63476221Y-70708322D02*
X63864805Y-71263700D01*
X63864805Y-71263700D02*
X64329962Y-71763514D01*
X64329962Y-71763514D02*
X64829011Y-72156497D01*
X64829011Y-72156497D02*
X64929995Y-72218264D01*
X64929995Y-72218264D02*
X65181554Y-72364194D01*
X65181554Y-72364194D02*
X65807277Y-71894331D01*
X65807277Y-71894331D02*
X67246920Y-70917841D01*
X67246920Y-70917841D02*
X68783234Y-70074941D01*
X68783234Y-70074941D02*
X70397480Y-69375307D01*
X70397480Y-69375307D02*
X71295413Y-69060342D01*
X71295413Y-69060342D02*
X72009158Y-68830092D01*
X72009158Y-68830092D02*
X71990410Y-67911213D01*
X71990410Y-67911213D02*
X72038372Y-66955315D01*
X72038372Y-66955315D02*
X72224182Y-66097294D01*
X72224182Y-66097294D02*
X72549176Y-65334835D01*
X72549176Y-65334835D02*
X73014687Y-64665626D01*
X73014687Y-64665626D02*
X73622052Y-64087352D01*
X73622052Y-64087352D02*
X74372606Y-63597702D01*
X74372606Y-63597702D02*
X74526105Y-63517231D01*
X74526105Y-63517231D02*
X74893324Y-63364002D01*
X74893324Y-63364002D02*
X75371318Y-63211033D01*
X75371318Y-63211033D02*
X75902201Y-63073683D01*
X75902201Y-63073683D02*
X76428089Y-62967309D01*
X76428089Y-62967309D02*
X76790402Y-62916465D01*
X76790402Y-62916465D02*
X77085122Y-62894282D01*
X77085122Y-62894282D02*
X77269503Y-62911883D01*
X77269503Y-62911883D02*
X77269503Y-62911883D01*
G36*
X52740295Y-93692377D02*
G01*
X53133034Y-92871889D01*
X53685500Y-92094106D01*
X53888638Y-91863072D01*
X54442488Y-91361037D01*
X55098473Y-90928395D01*
X55443355Y-90762735D01*
X59920309Y-90762735D01*
X59951378Y-91004520D01*
X60019437Y-91353743D01*
X60118470Y-91783084D01*
X60242456Y-92265222D01*
X60385376Y-92772838D01*
X60436088Y-92942667D01*
X61012397Y-94566156D01*
X61724395Y-96092723D01*
X62565633Y-97516862D01*
X63529661Y-98833070D01*
X64610027Y-100035843D01*
X65800284Y-101119676D01*
X67093979Y-102079067D01*
X68484664Y-102908509D01*
X69965887Y-103602501D01*
X71531200Y-104155537D01*
X73174153Y-104562113D01*
X74264667Y-104743088D01*
X74872226Y-104804640D01*
X75598157Y-104845437D01*
X76392759Y-104865334D01*
X77206327Y-104864186D01*
X77989162Y-104841849D01*
X78691559Y-104798177D01*
X79090667Y-104757130D01*
X80872628Y-104453983D01*
X82611794Y-104000314D01*
X84294636Y-103402585D01*
X85907628Y-102667254D01*
X87437243Y-101800780D01*
X88869953Y-100809623D01*
X90192232Y-99700241D01*
X90696798Y-99215230D01*
X91758129Y-98059811D01*
X92666291Y-96864516D01*
X93436726Y-95605089D01*
X94084876Y-94257274D01*
X94447428Y-93323667D01*
X94831548Y-92018488D01*
X95092311Y-90625937D01*
X95228305Y-89176127D01*
X95238121Y-87699170D01*
X95120349Y-86225179D01*
X94873577Y-84784268D01*
X94851946Y-84687667D01*
X94780151Y-84374067D01*
X94713018Y-84170961D01*
X94618223Y-84064981D01*
X94463442Y-84042761D01*
X94216353Y-84090935D01*
X93844630Y-84196135D01*
X93738000Y-84227022D01*
X93369634Y-84317893D01*
X92985878Y-84376226D01*
X92533245Y-84408082D01*
X92044667Y-84418954D01*
X91601115Y-84419466D01*
X91252142Y-84407541D01*
X90946210Y-84375652D01*
X90631780Y-84316271D01*
X90257314Y-84221870D01*
X89785263Y-84088943D01*
X89749206Y-84106550D01*
X89776915Y-84204443D01*
X89874668Y-84393455D01*
X90048747Y-84684425D01*
X90305432Y-85088186D01*
X90651003Y-85615577D01*
X90802094Y-85843379D01*
X91383194Y-86736036D01*
X91880497Y-87539121D01*
X92290010Y-88245210D01*
X92607745Y-88846884D01*
X92829711Y-89336720D01*
X92951918Y-89707298D01*
X92976000Y-89886395D01*
X92893375Y-90221536D01*
X92648456Y-90525664D01*
X92245674Y-90797364D01*
X91689462Y-91035217D01*
X90984253Y-91237807D01*
X90134480Y-91403715D01*
X89144573Y-91531526D01*
X88018967Y-91619820D01*
X87472667Y-91646152D01*
X86988753Y-91663733D01*
X86643657Y-91670064D01*
X86407087Y-91662594D01*
X86248752Y-91638772D01*
X86138359Y-91596050D01*
X86045618Y-91531877D01*
X86037567Y-91525342D01*
X85872525Y-91291744D01*
X85825717Y-90998752D01*
X85899239Y-90710205D01*
X86005947Y-90561757D01*
X86090017Y-90493725D01*
X86205023Y-90442225D01*
X86378642Y-90402673D01*
X86638549Y-90370484D01*
X87012420Y-90341072D01*
X87525714Y-90309979D01*
X88286172Y-90257560D01*
X89014051Y-90189530D01*
X89689402Y-90109144D01*
X90292280Y-90019657D01*
X90802739Y-89924324D01*
X91200831Y-89826398D01*
X91466610Y-89729136D01*
X91573558Y-89649473D01*
X91554160Y-89533159D01*
X91437435Y-89288286D01*
X91227910Y-88921568D01*
X90930115Y-88439720D01*
X90548578Y-87849457D01*
X90087828Y-87157494D01*
X89552392Y-86370546D01*
X88946800Y-85495327D01*
X88275580Y-84538552D01*
X87543261Y-83506935D01*
X86754371Y-82407193D01*
X85913438Y-81246039D01*
X85814874Y-81110623D01*
X85524985Y-80714175D01*
X85313119Y-80434344D01*
X85157685Y-80250813D01*
X85037091Y-80143267D01*
X84929743Y-80091391D01*
X84814051Y-80074868D01*
X84712537Y-80073456D01*
X84320463Y-80153729D01*
X83935120Y-80379937D01*
X83582279Y-80729757D01*
X83287714Y-81180867D01*
X83188121Y-81393858D01*
X83132306Y-81538794D01*
X83110444Y-81663719D01*
X83130854Y-81806559D01*
X83201852Y-82005239D01*
X83331756Y-82297684D01*
X83435222Y-82520603D01*
X83854154Y-83606950D01*
X84111057Y-84707139D01*
X84208310Y-85807680D01*
X84148294Y-86895081D01*
X83933389Y-87955853D01*
X83565975Y-88976503D01*
X83048432Y-89943543D01*
X82383140Y-90843482D01*
X81870750Y-91387859D01*
X80997112Y-92124383D01*
X80057492Y-92705024D01*
X79050244Y-93130500D01*
X77973719Y-93401531D01*
X77015959Y-93510299D01*
X75854662Y-93501087D01*
X74763402Y-93338382D01*
X73736464Y-93020017D01*
X72768133Y-92543825D01*
X71852695Y-91907640D01*
X71164313Y-91291667D01*
X70400003Y-90436465D01*
X69798508Y-89539903D01*
X69356865Y-88595146D01*
X69072112Y-87595360D01*
X68941288Y-86533710D01*
X68931430Y-86143999D01*
X70286585Y-86143999D01*
X70301841Y-86727276D01*
X70358914Y-87221680D01*
X70471639Y-87685712D01*
X70653854Y-88177872D01*
X70890311Y-88696569D01*
X71119988Y-89148339D01*
X71335311Y-89502153D01*
X71579197Y-89819411D01*
X71894563Y-90161511D01*
X71963107Y-90231351D01*
X72290874Y-90545050D01*
X72632732Y-90841711D01*
X72959060Y-91098671D01*
X73240233Y-91293264D01*
X73446628Y-91402824D01*
X73514923Y-91418667D01*
X73527209Y-91350681D01*
X73478497Y-91181739D01*
X73456013Y-91125053D01*
X73341040Y-90644593D01*
X73374972Y-90155798D01*
X73542009Y-89689654D01*
X73826351Y-89277148D01*
X74212199Y-88949267D01*
X74671929Y-88740390D01*
X75223606Y-88651997D01*
X75726954Y-88724962D01*
X76191099Y-88961638D01*
X76478244Y-89206526D01*
X76825935Y-89650150D01*
X77009937Y-90129064D01*
X77034109Y-90654057D01*
X77024719Y-90733602D01*
X76914136Y-91141518D01*
X76713521Y-91538006D01*
X76457552Y-91864216D01*
X76268822Y-92016323D01*
X76000334Y-92180034D01*
X76677667Y-92178880D01*
X77107008Y-92160632D01*
X77569124Y-92114038D01*
X77945238Y-92052698D01*
X78709388Y-91823331D01*
X79487094Y-91468399D01*
X80227756Y-91017082D01*
X80880775Y-90498560D01*
X81203949Y-90173492D01*
X81759462Y-89447674D01*
X82225112Y-88623899D01*
X82580889Y-87747006D01*
X82806783Y-86861835D01*
X82862230Y-86457409D01*
X82877302Y-85874989D01*
X82828562Y-85210457D01*
X82724385Y-84534877D01*
X82573146Y-83919316D01*
X82557070Y-83867901D01*
X82262488Y-83133181D01*
X81857377Y-82392693D01*
X81373492Y-81693957D01*
X80842590Y-81084492D01*
X80469691Y-80744294D01*
X79691823Y-80215222D01*
X78858820Y-79843551D01*
X77979919Y-79630061D01*
X77064357Y-79575531D01*
X76121371Y-79680742D01*
X75160199Y-79946475D01*
X74463299Y-80237053D01*
X73769915Y-80592023D01*
X73188325Y-80950098D01*
X72664171Y-81347062D01*
X72330053Y-81641478D01*
X71607638Y-82414618D01*
X71039987Y-83251285D01*
X70629224Y-84146805D01*
X70377469Y-85096503D01*
X70286844Y-86095704D01*
X70286585Y-86143999D01*
X68931430Y-86143999D01*
X68931306Y-86139108D01*
X68925663Y-85832455D01*
X68904272Y-85663795D01*
X68859171Y-85601967D01*
X68796117Y-85610182D01*
X68700421Y-85660243D01*
X68474117Y-85785151D01*
X68132987Y-85975921D01*
X67692814Y-86223570D01*
X67169380Y-86519114D01*
X66578469Y-86853568D01*
X65935862Y-87217950D01*
X65257343Y-87603274D01*
X64558694Y-88000558D01*
X63855698Y-88400818D01*
X63164138Y-88795069D01*
X62499795Y-89174327D01*
X61878454Y-89529609D01*
X61315896Y-89851931D01*
X60827904Y-90132309D01*
X60430261Y-90361760D01*
X60138749Y-90531298D01*
X59969152Y-90631941D01*
X59932252Y-90655710D01*
X59920309Y-90762735D01*
X55443355Y-90762735D01*
X55814783Y-90584324D01*
X56549611Y-90348005D01*
X57261148Y-90238618D01*
X57441102Y-90233334D01*
X57776683Y-90209281D01*
X58072092Y-90146900D01*
X58185330Y-90102543D01*
X58348630Y-90001005D01*
X58402791Y-89884791D01*
X58377613Y-89683096D01*
X58372413Y-89658043D01*
X58340718Y-89402936D01*
X58319047Y-89009781D01*
X58306865Y-88509533D01*
X58303633Y-87933150D01*
X58305708Y-87684127D01*
X59616462Y-87684127D01*
X59625142Y-88168720D01*
X59645178Y-88585913D01*
X59676090Y-88911073D01*
X59717393Y-89119562D01*
X59768607Y-89186747D01*
X59775809Y-89183910D01*
X59857039Y-89137578D01*
X60072409Y-89014854D01*
X60408917Y-88823144D01*
X60853558Y-88569855D01*
X61393328Y-88262394D01*
X62015225Y-87908169D01*
X62706245Y-87514585D01*
X63453384Y-87089051D01*
X64189334Y-86669902D01*
X64989628Y-86214311D01*
X65755888Y-85778478D01*
X66473718Y-85370566D01*
X67128723Y-84998737D01*
X67706508Y-84671153D01*
X68192678Y-84395976D01*
X68572837Y-84181370D01*
X68832592Y-84035496D01*
X68948311Y-83971451D01*
X69221405Y-83794869D01*
X69391605Y-83592621D01*
X69491768Y-83375334D01*
X69780119Y-82769585D01*
X70190186Y-82121801D01*
X70692910Y-81467022D01*
X71259232Y-80840288D01*
X71860093Y-80276640D01*
X72422877Y-79840842D01*
X73454674Y-79214044D01*
X74500708Y-78741541D01*
X75550543Y-78423130D01*
X76593743Y-78258607D01*
X77619874Y-78247769D01*
X78618500Y-78390412D01*
X79579186Y-78686331D01*
X80491496Y-79135325D01*
X81344996Y-79737188D01*
X81668209Y-80021268D01*
X81885876Y-80218072D01*
X82054214Y-80358445D01*
X82136783Y-80412000D01*
X82136788Y-80412000D01*
X82208971Y-80346737D01*
X82319418Y-80187113D01*
X82334422Y-80162137D01*
X82718753Y-79667869D01*
X83222995Y-79254743D01*
X83807665Y-78946739D01*
X84433279Y-78767836D01*
X84678755Y-78738313D01*
X85264954Y-78696370D01*
X85265228Y-78110850D01*
X86593486Y-78110850D01*
X86626411Y-78661369D01*
X86706668Y-79128545D01*
X86748557Y-79269000D01*
X87027897Y-79956642D01*
X87356954Y-80575120D01*
X87710396Y-81077701D01*
X87761123Y-81136995D01*
X88123605Y-81548928D01*
X88116742Y-81043801D01*
X88160842Y-80570500D01*
X88321968Y-80180726D01*
X88621759Y-79829854D01*
X88765133Y-79706619D01*
X89171439Y-79479889D01*
X89625527Y-79394502D01*
X90090796Y-79444989D01*
X90530645Y-79625883D01*
X90908474Y-79931714D01*
X90999230Y-80040382D01*
X91146481Y-80275949D01*
X91228768Y-80539196D01*
X91267820Y-80885032D01*
X91276887Y-81214081D01*
X91242781Y-81452450D01*
X91149919Y-81676534D01*
X91081434Y-81798833D01*
X90751381Y-82205512D01*
X90321163Y-82477024D01*
X90012667Y-82573287D01*
X89822973Y-82617529D01*
X89784851Y-82651656D01*
X89884038Y-82699812D01*
X89928000Y-82716638D01*
X90798715Y-82971666D01*
X91695615Y-83093286D01*
X92581741Y-83080322D01*
X93420129Y-82931597D01*
X93723342Y-82837541D01*
X94625953Y-82434306D01*
X95423383Y-81901517D01*
X96106877Y-81248561D01*
X96667675Y-80484826D01*
X97097023Y-79619701D01*
X97303766Y-78999066D01*
X97426463Y-78320412D01*
X97456460Y-77565292D01*
X97396275Y-76797271D01*
X97248422Y-76079910D01*
X97179583Y-75861576D01*
X96788677Y-74948442D01*
X96294170Y-74141785D01*
X95707262Y-73455149D01*
X95039153Y-72902077D01*
X94453454Y-72564759D01*
X94110873Y-72409899D01*
X93833045Y-72311936D01*
X93554217Y-72255370D01*
X93208633Y-72224701D01*
X92961481Y-72213062D01*
X92513330Y-72204284D01*
X92153666Y-72225891D01*
X91802953Y-72287273D01*
X91381652Y-72397817D01*
X91371442Y-72400742D01*
X90383364Y-72760120D01*
X89473715Y-73242616D01*
X88657885Y-73834391D01*
X87951263Y-74521605D01*
X87369239Y-75290418D01*
X86927201Y-76126991D01*
X86773454Y-76535775D01*
X86667532Y-76990399D01*
X86607368Y-77534642D01*
X86593486Y-78110850D01*
X85265228Y-78110850D01*
X85265336Y-77882019D01*
X85338263Y-76933042D01*
X85547686Y-76002560D01*
X85742669Y-75458069D01*
X85946921Y-75051191D01*
X86238494Y-74578852D01*
X86582441Y-74092741D01*
X86943818Y-73644550D01*
X87046507Y-73529464D01*
X87233319Y-73331141D01*
X87356006Y-73188348D01*
X87403511Y-73075034D01*
X87364774Y-72965148D01*
X87228737Y-72832639D01*
X86984340Y-72651456D01*
X86620526Y-72395547D01*
X86541334Y-72339416D01*
X86153139Y-72064712D01*
X85875595Y-71879107D01*
X85680662Y-71774552D01*
X85540296Y-71742994D01*
X85426458Y-71776384D01*
X85311106Y-71866670D01*
X85215206Y-71958673D01*
X84835479Y-72402785D01*
X84499489Y-72937050D01*
X84293325Y-73384667D01*
X84101865Y-73763090D01*
X83868184Y-73985373D01*
X83581199Y-74061821D01*
X83564772Y-74062000D01*
X83309797Y-73993695D01*
X83080434Y-73821947D01*
X82930761Y-73596504D01*
X82901701Y-73452015D01*
X82945281Y-73228225D01*
X83060926Y-72904892D01*
X83228540Y-72524529D01*
X83428028Y-72129652D01*
X83639296Y-71762774D01*
X83837035Y-71473141D01*
X84010018Y-71238939D01*
X84126410Y-71061830D01*
X84162248Y-70978434D01*
X84161458Y-70977344D01*
X84042741Y-70907537D01*
X83801881Y-70796498D01*
X83476354Y-70659512D01*
X83103642Y-70511864D01*
X82721222Y-70368840D01*
X82371650Y-70247397D01*
X80763112Y-69804270D01*
X79134920Y-69528829D01*
X77489776Y-69420907D01*
X75830385Y-69480340D01*
X74159447Y-69706962D01*
X72479667Y-70100607D01*
X70793746Y-70661110D01*
X69937412Y-71009015D01*
X68548781Y-71697359D01*
X67211990Y-72538552D01*
X65940769Y-73520453D01*
X64748852Y-74630922D01*
X63649969Y-75857818D01*
X62657852Y-77189000D01*
X62267803Y-77789940D01*
X61552555Y-79080584D01*
X60933904Y-80485542D01*
X60422204Y-81973400D01*
X60027810Y-83512745D01*
X59761078Y-85072162D01*
X59704957Y-85564471D01*
X59663387Y-86072308D01*
X59635102Y-86611286D01*
X59619621Y-87156771D01*
X59616462Y-87684127D01*
X58305708Y-87684127D01*
X58308814Y-87311586D01*
X58321871Y-86675798D01*
X58342266Y-86056741D01*
X58369463Y-85485372D01*
X58402923Y-84992644D01*
X58442109Y-84609516D01*
X58462371Y-84476000D01*
X58617636Y-83659651D01*
X58782280Y-82894077D01*
X58947611Y-82216998D01*
X59104936Y-81666131D01*
X59122645Y-81610974D01*
X59201144Y-81330058D01*
X59237526Y-81113764D01*
X59224574Y-81010539D01*
X59106901Y-80959140D01*
X58879170Y-80892971D01*
X58672525Y-80844381D01*
X57948431Y-80616675D01*
X57228603Y-80256962D01*
X56554169Y-79793449D01*
X55966257Y-79254344D01*
X55511416Y-78676334D01*
X55211053Y-78151560D01*
X55010728Y-77648761D01*
X54894431Y-77111168D01*
X54846155Y-76482014D01*
X54842856Y-76305667D01*
X54844402Y-75852043D01*
X54865480Y-75503521D01*
X54915139Y-75196191D01*
X55002426Y-74866146D01*
X55082591Y-74612334D01*
X55285806Y-74078905D01*
X55498382Y-73704061D01*
X55728701Y-73477056D01*
X55985142Y-73387144D01*
X56040062Y-73384667D01*
X56311343Y-73460454D01*
X56479342Y-73590665D01*
X56588920Y-73751125D01*
X56634260Y-73951298D01*
X56613165Y-74219522D01*
X56523439Y-74584137D01*
X56364835Y-75067916D01*
X56177983Y-75822622D01*
X56151668Y-76547885D01*
X56283131Y-77231716D01*
X56569612Y-77862130D01*
X57008351Y-78427138D01*
X57175133Y-78587396D01*
X57682653Y-78975431D01*
X58248268Y-79293019D01*
X58826525Y-79520080D01*
X59371968Y-79636531D01*
X59575000Y-79647642D01*
X59692227Y-79637694D01*
X59787362Y-79590015D01*
X59881330Y-79477291D01*
X59995052Y-79272208D01*
X60149452Y-78947454D01*
X60206585Y-78823146D01*
X60918549Y-77447690D01*
X61781792Y-76102475D01*
X62803610Y-74776641D01*
X63340800Y-74157014D01*
X63652545Y-73806506D01*
X63862424Y-73559159D01*
X63983972Y-73394214D01*
X64030727Y-73290914D01*
X64016224Y-73228501D01*
X63968976Y-73193724D01*
X63768947Y-73049078D01*
X63500868Y-72802237D01*
X63196189Y-72488021D01*
X62886359Y-72141254D01*
X62602826Y-71796757D01*
X62377041Y-71489351D01*
X62267464Y-71309731D01*
X61901642Y-70447797D01*
X61697621Y-69573705D01*
X61653319Y-68702724D01*
X61766656Y-67850125D01*
X62035553Y-67031177D01*
X62457929Y-66261150D01*
X63031703Y-65555314D01*
X63054626Y-65531834D01*
X63415960Y-65190135D01*
X63706866Y-64983220D01*
X63949850Y-64904322D01*
X64167420Y-64946673D01*
X64382081Y-65103505D01*
X64404849Y-65125818D01*
X64557933Y-65320734D01*
X64606357Y-65516886D01*
X64542965Y-65740473D01*
X64360604Y-66017693D01*
X64068682Y-66356735D01*
X63545053Y-67019715D01*
X63188760Y-67689524D01*
X62997814Y-68374907D01*
X62970228Y-69084610D01*
X63104014Y-69827378D01*
X63206892Y-70148643D01*
X63476221Y-70708322D01*
X63864805Y-71263700D01*
X64329962Y-71763514D01*
X64829011Y-72156497D01*
X64929995Y-72218264D01*
X65181554Y-72364194D01*
X65807277Y-71894331D01*
X67246920Y-70917841D01*
X68783234Y-70074941D01*
X70397480Y-69375307D01*
X71295413Y-69060342D01*
X72009158Y-68830092D01*
X71990410Y-67911213D01*
X72038372Y-66955315D01*
X72224182Y-66097294D01*
X72549176Y-65334835D01*
X73014687Y-64665626D01*
X73622052Y-64087352D01*
X74372606Y-63597702D01*
X74526105Y-63517231D01*
X74893324Y-63364002D01*
X75371318Y-63211033D01*
X75902201Y-63073683D01*
X76428089Y-62967309D01*
X76790402Y-62916465D01*
X77085122Y-62894282D01*
X77269503Y-62911883D01*
X77400006Y-62979883D01*
X77471080Y-63044414D01*
X77614392Y-63295594D01*
X77645831Y-63605427D01*
X77561081Y-63901776D01*
X77525799Y-63958881D01*
X77384111Y-64079615D01*
X77131825Y-64172777D01*
X76827299Y-64236348D01*
X75919650Y-64442105D01*
X75157163Y-64725399D01*
X74532199Y-65090793D01*
X74037118Y-65542849D01*
X73664281Y-66086130D01*
X73634808Y-66142918D01*
X73438272Y-66677913D01*
X73327493Y-67314117D01*
X73310347Y-68002376D01*
X73317500Y-68123684D01*
X73340107Y-68351607D01*
X73388957Y-68450266D01*
X73501413Y-68459362D01*
X73613833Y-68438573D01*
X74525179Y-68287702D01*
X75528457Y-68178970D01*
X76573700Y-68114303D01*
X77610946Y-68095629D01*
X78590229Y-68124875D01*
X79461586Y-68203969D01*
X79514000Y-68210978D01*
X80894357Y-68456654D01*
X82273075Y-68810305D01*
X83595199Y-69256040D01*
X84610625Y-69684742D01*
X84987517Y-69856055D01*
X85242077Y-69957087D01*
X85402052Y-69995975D01*
X85495190Y-69980856D01*
X85527132Y-69953499D01*
X85650784Y-69860753D01*
X85893003Y-69719993D01*
X86216578Y-69549593D01*
X86584302Y-69367930D01*
X86958964Y-69193377D01*
X87303355Y-69044311D01*
X87580266Y-68939106D01*
X87583373Y-68938070D01*
X88054772Y-68804927D01*
X88593420Y-68689739D01*
X89131139Y-68604589D01*
X89599751Y-68561564D01*
X89723781Y-68558667D01*
X90045670Y-68579569D01*
X90255098Y-68651678D01*
X90349180Y-68725847D01*
X90541111Y-69009204D01*
X90573482Y-69302220D01*
X90459579Y-69560173D01*
X90355755Y-69677913D01*
X90226026Y-69766021D01*
X90038594Y-69834558D01*
X89761660Y-69893586D01*
X89363426Y-69953165D01*
X89115406Y-69985478D01*
X88612261Y-70074184D01*
X88080497Y-70209450D01*
X87574359Y-70374339D01*
X87148094Y-70551908D01*
X86943121Y-70663834D01*
X86689830Y-70824207D01*
X87229415Y-71187079D01*
X87565050Y-71421676D01*
X87910063Y-71676886D01*
X88168477Y-71880274D01*
X88567954Y-72210598D01*
X89061701Y-71921221D01*
X90079817Y-71414742D01*
X91129102Y-71072805D01*
X92222006Y-70891656D01*
X92553725Y-70868422D01*
X93243423Y-70863771D01*
X93839864Y-70933442D01*
X94407790Y-71090854D01*
X95011946Y-71349426D01*
X95111109Y-71398476D01*
X95959914Y-71917776D01*
X96722868Y-72574953D01*
X97389630Y-73356320D01*
X97949862Y-74248191D01*
X98393224Y-75236877D01*
X98658246Y-76094000D01*
X98735827Y-76551859D01*
X98775783Y-77120392D01*
X98779339Y-77745458D01*
X98747718Y-78372915D01*
X98682146Y-78948620D01*
X98583845Y-79418432D01*
X98583013Y-79421331D01*
X98212735Y-80431232D01*
X97706235Y-81349890D01*
X97053862Y-82192889D01*
X96547464Y-82707233D01*
X96244262Y-82996674D01*
X96052265Y-83201223D01*
X95953118Y-83345018D01*
X95928466Y-83452202D01*
X95940475Y-83505538D01*
X95981755Y-83652223D01*
X96047166Y-83926645D01*
X96127940Y-84290434D01*
X96215307Y-84705221D01*
X96221040Y-84733205D01*
X96495990Y-86458976D01*
X96606356Y-88146765D01*
X96551657Y-89800354D01*
X96331410Y-91423525D01*
X95945133Y-93020060D01*
X95392346Y-94593740D01*
X94798444Y-95901792D01*
X94009811Y-97288260D01*
X93072694Y-98606169D01*
X91996937Y-99847001D01*
X90792385Y-101002241D01*
X89468885Y-102063375D01*
X88036281Y-103021884D01*
X86504418Y-103869255D01*
X84883142Y-104596972D01*
X84631392Y-104695844D01*
X83688889Y-105045558D01*
X82837141Y-105328853D01*
X82018914Y-105561616D01*
X81176978Y-105759733D01*
X80254101Y-105939088D01*
X79979667Y-105987036D01*
X79362970Y-106070349D01*
X78622576Y-106134675D01*
X77803166Y-106178983D01*
X76949422Y-106202241D01*
X76106024Y-106203419D01*
X75317655Y-106181484D01*
X74628995Y-106135406D01*
X74434000Y-106115047D01*
X72715051Y-105835511D01*
X71035047Y-105403539D01*
X69417866Y-104826145D01*
X68259141Y-104301174D01*
X66897233Y-103551518D01*
X65634588Y-102703241D01*
X64446564Y-101736970D01*
X63308522Y-100633330D01*
X62599885Y-99851578D01*
X62402874Y-99631122D01*
X62277761Y-99522385D01*
X62189119Y-99506105D01*
X62101521Y-99563025D01*
X62089265Y-99573979D01*
X61892231Y-99707944D01*
X61575391Y-99874568D01*
X61180422Y-100055538D01*
X60748997Y-100232539D01*
X60322791Y-100387259D01*
X60034971Y-100476721D01*
X59488612Y-100596228D01*
X58865899Y-100677272D01*
X58226512Y-100716170D01*
X57630134Y-100709237D01*
X57147706Y-100654955D01*
X56218173Y-100407928D01*
X55380413Y-100031636D01*
X54611536Y-99513298D01*
X53888654Y-98840130D01*
X53878514Y-98829292D01*
X53305260Y-98124571D01*
X52886860Y-97396206D01*
X52608865Y-96617194D01*
X52543347Y-96333940D01*
X52443161Y-95431014D01*
X52468768Y-95090527D01*
X53803857Y-95090527D01*
X53808908Y-95789248D01*
X53957758Y-96488491D01*
X54260785Y-97171011D01*
X54298202Y-97234742D01*
X54683976Y-97755622D01*
X55183753Y-98248889D01*
X55756051Y-98684025D01*
X56359388Y-99030513D01*
X56952281Y-99257834D01*
X57095731Y-99292834D01*
X57530590Y-99346486D01*
X58068566Y-99355860D01*
X58650499Y-99325054D01*
X59217232Y-99258166D01*
X59709604Y-99159293D01*
X59913667Y-99097645D01*
X60512544Y-98875003D01*
X60960920Y-98684746D01*
X61253601Y-98529235D01*
X61368247Y-98436304D01*
X61400515Y-98341060D01*
X61360878Y-98189808D01*
X61238119Y-97951190D01*
X61129408Y-97768570D01*
X60930929Y-97429811D01*
X60699689Y-97014124D01*
X60477268Y-96596725D01*
X60418713Y-96482879D01*
X60244670Y-96145946D01*
X60122979Y-95935321D01*
X60030507Y-95825739D01*
X59944120Y-95791930D01*
X59840684Y-95808627D01*
X59809685Y-95817662D01*
X59409125Y-95956829D01*
X59126866Y-96105703D01*
X58967781Y-96233672D01*
X58771522Y-96483301D01*
X58725639Y-96741119D01*
X58824314Y-97049272D01*
X58848552Y-97097331D01*
X59000249Y-97488858D01*
X59007223Y-97800862D01*
X58869632Y-98029374D01*
X58809532Y-98075058D01*
X58567687Y-98161773D01*
X58339597Y-98090244D01*
X58118296Y-97856437D01*
X57957372Y-97581649D01*
X57765255Y-97040576D01*
X57737730Y-96517239D01*
X57870438Y-96028267D01*
X58159020Y-95590294D01*
X58571707Y-95237844D01*
X58800229Y-95093535D01*
X58972027Y-94997943D01*
X59033671Y-94974667D01*
X59153053Y-94947131D01*
X59328571Y-94887122D01*
X59558832Y-94799577D01*
X59312916Y-94538027D01*
X58978732Y-94261849D01*
X58587422Y-94102610D01*
X58096905Y-94044351D01*
X58008572Y-94043334D01*
X57416494Y-94121871D01*
X56894309Y-94349978D01*
X56458919Y-94716392D01*
X56127228Y-95209852D01*
X56069550Y-95335052D01*
X55875769Y-95674454D01*
X55655905Y-95850691D01*
X55413638Y-95861697D01*
X55260468Y-95789058D01*
X55093107Y-95589916D01*
X55049851Y-95313707D01*
X55117764Y-94982832D01*
X55283909Y-94619690D01*
X55535350Y-94246679D01*
X55859150Y-93886198D01*
X56242372Y-93560647D01*
X56672080Y-93292425D01*
X56714957Y-93270686D01*
X56915243Y-93181038D01*
X57113089Y-93122479D01*
X57352141Y-93088643D01*
X57676044Y-93073165D01*
X58093334Y-93069667D01*
X59067000Y-93069667D01*
X58897667Y-92376218D01*
X58813735Y-92045084D01*
X58731579Y-91823130D01*
X58617747Y-91688463D01*
X58438783Y-91619187D01*
X58161235Y-91593411D01*
X57751647Y-91589240D01*
X57695018Y-91589156D01*
X56923237Y-91662823D01*
X56212241Y-91874984D01*
X55572407Y-92208392D01*
X55014113Y-92645802D01*
X54547733Y-93169967D01*
X54183646Y-93763641D01*
X53932229Y-94409576D01*
X53803857Y-95090527D01*
X52468768Y-95090527D01*
X52509574Y-94547956D01*
X52740295Y-93692377D01*
G37*
X52740295Y-93692377D02*
X53133034Y-92871889D01*
X53685500Y-92094106D01*
X53888638Y-91863072D01*
X54442488Y-91361037D01*
X55098473Y-90928395D01*
X55443355Y-90762735D01*
X59920309Y-90762735D01*
X59951378Y-91004520D01*
X60019437Y-91353743D01*
X60118470Y-91783084D01*
X60242456Y-92265222D01*
X60385376Y-92772838D01*
X60436088Y-92942667D01*
X61012397Y-94566156D01*
X61724395Y-96092723D01*
X62565633Y-97516862D01*
X63529661Y-98833070D01*
X64610027Y-100035843D01*
X65800284Y-101119676D01*
X67093979Y-102079067D01*
X68484664Y-102908509D01*
X69965887Y-103602501D01*
X71531200Y-104155537D01*
X73174153Y-104562113D01*
X74264667Y-104743088D01*
X74872226Y-104804640D01*
X75598157Y-104845437D01*
X76392759Y-104865334D01*
X77206327Y-104864186D01*
X77989162Y-104841849D01*
X78691559Y-104798177D01*
X79090667Y-104757130D01*
X80872628Y-104453983D01*
X82611794Y-104000314D01*
X84294636Y-103402585D01*
X85907628Y-102667254D01*
X87437243Y-101800780D01*
X88869953Y-100809623D01*
X90192232Y-99700241D01*
X90696798Y-99215230D01*
X91758129Y-98059811D01*
X92666291Y-96864516D01*
X93436726Y-95605089D01*
X94084876Y-94257274D01*
X94447428Y-93323667D01*
X94831548Y-92018488D01*
X95092311Y-90625937D01*
X95228305Y-89176127D01*
X95238121Y-87699170D01*
X95120349Y-86225179D01*
X94873577Y-84784268D01*
X94851946Y-84687667D01*
X94780151Y-84374067D01*
X94713018Y-84170961D01*
X94618223Y-84064981D01*
X94463442Y-84042761D01*
X94216353Y-84090935D01*
X93844630Y-84196135D01*
X93738000Y-84227022D01*
X93369634Y-84317893D01*
X92985878Y-84376226D01*
X92533245Y-84408082D01*
X92044667Y-84418954D01*
X91601115Y-84419466D01*
X91252142Y-84407541D01*
X90946210Y-84375652D01*
X90631780Y-84316271D01*
X90257314Y-84221870D01*
X89785263Y-84088943D01*
X89749206Y-84106550D01*
X89776915Y-84204443D01*
X89874668Y-84393455D01*
X90048747Y-84684425D01*
X90305432Y-85088186D01*
X90651003Y-85615577D01*
X90802094Y-85843379D01*
X91383194Y-86736036D01*
X91880497Y-87539121D01*
X92290010Y-88245210D01*
X92607745Y-88846884D01*
X92829711Y-89336720D01*
X92951918Y-89707298D01*
X92976000Y-89886395D01*
X92893375Y-90221536D01*
X92648456Y-90525664D01*
X92245674Y-90797364D01*
X91689462Y-91035217D01*
X90984253Y-91237807D01*
X90134480Y-91403715D01*
X89144573Y-91531526D01*
X88018967Y-91619820D01*
X87472667Y-91646152D01*
X86988753Y-91663733D01*
X86643657Y-91670064D01*
X86407087Y-91662594D01*
X86248752Y-91638772D01*
X86138359Y-91596050D01*
X86045618Y-91531877D01*
X86037567Y-91525342D01*
X85872525Y-91291744D01*
X85825717Y-90998752D01*
X85899239Y-90710205D01*
X86005947Y-90561757D01*
X86090017Y-90493725D01*
X86205023Y-90442225D01*
X86378642Y-90402673D01*
X86638549Y-90370484D01*
X87012420Y-90341072D01*
X87525714Y-90309979D01*
X88286172Y-90257560D01*
X89014051Y-90189530D01*
X89689402Y-90109144D01*
X90292280Y-90019657D01*
X90802739Y-89924324D01*
X91200831Y-89826398D01*
X91466610Y-89729136D01*
X91573558Y-89649473D01*
X91554160Y-89533159D01*
X91437435Y-89288286D01*
X91227910Y-88921568D01*
X90930115Y-88439720D01*
X90548578Y-87849457D01*
X90087828Y-87157494D01*
X89552392Y-86370546D01*
X88946800Y-85495327D01*
X88275580Y-84538552D01*
X87543261Y-83506935D01*
X86754371Y-82407193D01*
X85913438Y-81246039D01*
X85814874Y-81110623D01*
X85524985Y-80714175D01*
X85313119Y-80434344D01*
X85157685Y-80250813D01*
X85037091Y-80143267D01*
X84929743Y-80091391D01*
X84814051Y-80074868D01*
X84712537Y-80073456D01*
X84320463Y-80153729D01*
X83935120Y-80379937D01*
X83582279Y-80729757D01*
X83287714Y-81180867D01*
X83188121Y-81393858D01*
X83132306Y-81538794D01*
X83110444Y-81663719D01*
X83130854Y-81806559D01*
X83201852Y-82005239D01*
X83331756Y-82297684D01*
X83435222Y-82520603D01*
X83854154Y-83606950D01*
X84111057Y-84707139D01*
X84208310Y-85807680D01*
X84148294Y-86895081D01*
X83933389Y-87955853D01*
X83565975Y-88976503D01*
X83048432Y-89943543D01*
X82383140Y-90843482D01*
X81870750Y-91387859D01*
X80997112Y-92124383D01*
X80057492Y-92705024D01*
X79050244Y-93130500D01*
X77973719Y-93401531D01*
X77015959Y-93510299D01*
X75854662Y-93501087D01*
X74763402Y-93338382D01*
X73736464Y-93020017D01*
X72768133Y-92543825D01*
X71852695Y-91907640D01*
X71164313Y-91291667D01*
X70400003Y-90436465D01*
X69798508Y-89539903D01*
X69356865Y-88595146D01*
X69072112Y-87595360D01*
X68941288Y-86533710D01*
X68931430Y-86143999D01*
X70286585Y-86143999D01*
X70301841Y-86727276D01*
X70358914Y-87221680D01*
X70471639Y-87685712D01*
X70653854Y-88177872D01*
X70890311Y-88696569D01*
X71119988Y-89148339D01*
X71335311Y-89502153D01*
X71579197Y-89819411D01*
X71894563Y-90161511D01*
X71963107Y-90231351D01*
X72290874Y-90545050D01*
X72632732Y-90841711D01*
X72959060Y-91098671D01*
X73240233Y-91293264D01*
X73446628Y-91402824D01*
X73514923Y-91418667D01*
X73527209Y-91350681D01*
X73478497Y-91181739D01*
X73456013Y-91125053D01*
X73341040Y-90644593D01*
X73374972Y-90155798D01*
X73542009Y-89689654D01*
X73826351Y-89277148D01*
X74212199Y-88949267D01*
X74671929Y-88740390D01*
X75223606Y-88651997D01*
X75726954Y-88724962D01*
X76191099Y-88961638D01*
X76478244Y-89206526D01*
X76825935Y-89650150D01*
X77009937Y-90129064D01*
X77034109Y-90654057D01*
X77024719Y-90733602D01*
X76914136Y-91141518D01*
X76713521Y-91538006D01*
X76457552Y-91864216D01*
X76268822Y-92016323D01*
X76000334Y-92180034D01*
X76677667Y-92178880D01*
X77107008Y-92160632D01*
X77569124Y-92114038D01*
X77945238Y-92052698D01*
X78709388Y-91823331D01*
X79487094Y-91468399D01*
X80227756Y-91017082D01*
X80880775Y-90498560D01*
X81203949Y-90173492D01*
X81759462Y-89447674D01*
X82225112Y-88623899D01*
X82580889Y-87747006D01*
X82806783Y-86861835D01*
X82862230Y-86457409D01*
X82877302Y-85874989D01*
X82828562Y-85210457D01*
X82724385Y-84534877D01*
X82573146Y-83919316D01*
X82557070Y-83867901D01*
X82262488Y-83133181D01*
X81857377Y-82392693D01*
X81373492Y-81693957D01*
X80842590Y-81084492D01*
X80469691Y-80744294D01*
X79691823Y-80215222D01*
X78858820Y-79843551D01*
X77979919Y-79630061D01*
X77064357Y-79575531D01*
X76121371Y-79680742D01*
X75160199Y-79946475D01*
X74463299Y-80237053D01*
X73769915Y-80592023D01*
X73188325Y-80950098D01*
X72664171Y-81347062D01*
X72330053Y-81641478D01*
X71607638Y-82414618D01*
X71039987Y-83251285D01*
X70629224Y-84146805D01*
X70377469Y-85096503D01*
X70286844Y-86095704D01*
X70286585Y-86143999D01*
X68931430Y-86143999D01*
X68931306Y-86139108D01*
X68925663Y-85832455D01*
X68904272Y-85663795D01*
X68859171Y-85601967D01*
X68796117Y-85610182D01*
X68700421Y-85660243D01*
X68474117Y-85785151D01*
X68132987Y-85975921D01*
X67692814Y-86223570D01*
X67169380Y-86519114D01*
X66578469Y-86853568D01*
X65935862Y-87217950D01*
X65257343Y-87603274D01*
X64558694Y-88000558D01*
X63855698Y-88400818D01*
X63164138Y-88795069D01*
X62499795Y-89174327D01*
X61878454Y-89529609D01*
X61315896Y-89851931D01*
X60827904Y-90132309D01*
X60430261Y-90361760D01*
X60138749Y-90531298D01*
X59969152Y-90631941D01*
X59932252Y-90655710D01*
X59920309Y-90762735D01*
X55443355Y-90762735D01*
X55814783Y-90584324D01*
X56549611Y-90348005D01*
X57261148Y-90238618D01*
X57441102Y-90233334D01*
X57776683Y-90209281D01*
X58072092Y-90146900D01*
X58185330Y-90102543D01*
X58348630Y-90001005D01*
X58402791Y-89884791D01*
X58377613Y-89683096D01*
X58372413Y-89658043D01*
X58340718Y-89402936D01*
X58319047Y-89009781D01*
X58306865Y-88509533D01*
X58303633Y-87933150D01*
X58305708Y-87684127D01*
X59616462Y-87684127D01*
X59625142Y-88168720D01*
X59645178Y-88585913D01*
X59676090Y-88911073D01*
X59717393Y-89119562D01*
X59768607Y-89186747D01*
X59775809Y-89183910D01*
X59857039Y-89137578D01*
X60072409Y-89014854D01*
X60408917Y-88823144D01*
X60853558Y-88569855D01*
X61393328Y-88262394D01*
X62015225Y-87908169D01*
X62706245Y-87514585D01*
X63453384Y-87089051D01*
X64189334Y-86669902D01*
X64989628Y-86214311D01*
X65755888Y-85778478D01*
X66473718Y-85370566D01*
X67128723Y-84998737D01*
X67706508Y-84671153D01*
X68192678Y-84395976D01*
X68572837Y-84181370D01*
X68832592Y-84035496D01*
X68948311Y-83971451D01*
X69221405Y-83794869D01*
X69391605Y-83592621D01*
X69491768Y-83375334D01*
X69780119Y-82769585D01*
X70190186Y-82121801D01*
X70692910Y-81467022D01*
X71259232Y-80840288D01*
X71860093Y-80276640D01*
X72422877Y-79840842D01*
X73454674Y-79214044D01*
X74500708Y-78741541D01*
X75550543Y-78423130D01*
X76593743Y-78258607D01*
X77619874Y-78247769D01*
X78618500Y-78390412D01*
X79579186Y-78686331D01*
X80491496Y-79135325D01*
X81344996Y-79737188D01*
X81668209Y-80021268D01*
X81885876Y-80218072D01*
X82054214Y-80358445D01*
X82136783Y-80412000D01*
X82136788Y-80412000D01*
X82208971Y-80346737D01*
X82319418Y-80187113D01*
X82334422Y-80162137D01*
X82718753Y-79667869D01*
X83222995Y-79254743D01*
X83807665Y-78946739D01*
X84433279Y-78767836D01*
X84678755Y-78738313D01*
X85264954Y-78696370D01*
X85265228Y-78110850D01*
X86593486Y-78110850D01*
X86626411Y-78661369D01*
X86706668Y-79128545D01*
X86748557Y-79269000D01*
X87027897Y-79956642D01*
X87356954Y-80575120D01*
X87710396Y-81077701D01*
X87761123Y-81136995D01*
X88123605Y-81548928D01*
X88116742Y-81043801D01*
X88160842Y-80570500D01*
X88321968Y-80180726D01*
X88621759Y-79829854D01*
X88765133Y-79706619D01*
X89171439Y-79479889D01*
X89625527Y-79394502D01*
X90090796Y-79444989D01*
X90530645Y-79625883D01*
X90908474Y-79931714D01*
X90999230Y-80040382D01*
X91146481Y-80275949D01*
X91228768Y-80539196D01*
X91267820Y-80885032D01*
X91276887Y-81214081D01*
X91242781Y-81452450D01*
X91149919Y-81676534D01*
X91081434Y-81798833D01*
X90751381Y-82205512D01*
X90321163Y-82477024D01*
X90012667Y-82573287D01*
X89822973Y-82617529D01*
X89784851Y-82651656D01*
X89884038Y-82699812D01*
X89928000Y-82716638D01*
X90798715Y-82971666D01*
X91695615Y-83093286D01*
X92581741Y-83080322D01*
X93420129Y-82931597D01*
X93723342Y-82837541D01*
X94625953Y-82434306D01*
X95423383Y-81901517D01*
X96106877Y-81248561D01*
X96667675Y-80484826D01*
X97097023Y-79619701D01*
X97303766Y-78999066D01*
X97426463Y-78320412D01*
X97456460Y-77565292D01*
X97396275Y-76797271D01*
X97248422Y-76079910D01*
X97179583Y-75861576D01*
X96788677Y-74948442D01*
X96294170Y-74141785D01*
X95707262Y-73455149D01*
X95039153Y-72902077D01*
X94453454Y-72564759D01*
X94110873Y-72409899D01*
X93833045Y-72311936D01*
X93554217Y-72255370D01*
X93208633Y-72224701D01*
X92961481Y-72213062D01*
X92513330Y-72204284D01*
X92153666Y-72225891D01*
X91802953Y-72287273D01*
X91381652Y-72397817D01*
X91371442Y-72400742D01*
X90383364Y-72760120D01*
X89473715Y-73242616D01*
X88657885Y-73834391D01*
X87951263Y-74521605D01*
X87369239Y-75290418D01*
X86927201Y-76126991D01*
X86773454Y-76535775D01*
X86667532Y-76990399D01*
X86607368Y-77534642D01*
X86593486Y-78110850D01*
X85265228Y-78110850D01*
X85265336Y-77882019D01*
X85338263Y-76933042D01*
X85547686Y-76002560D01*
X85742669Y-75458069D01*
X85946921Y-75051191D01*
X86238494Y-74578852D01*
X86582441Y-74092741D01*
X86943818Y-73644550D01*
X87046507Y-73529464D01*
X87233319Y-73331141D01*
X87356006Y-73188348D01*
X87403511Y-73075034D01*
X87364774Y-72965148D01*
X87228737Y-72832639D01*
X86984340Y-72651456D01*
X86620526Y-72395547D01*
X86541334Y-72339416D01*
X86153139Y-72064712D01*
X85875595Y-71879107D01*
X85680662Y-71774552D01*
X85540296Y-71742994D01*
X85426458Y-71776384D01*
X85311106Y-71866670D01*
X85215206Y-71958673D01*
X84835479Y-72402785D01*
X84499489Y-72937050D01*
X84293325Y-73384667D01*
X84101865Y-73763090D01*
X83868184Y-73985373D01*
X83581199Y-74061821D01*
X83564772Y-74062000D01*
X83309797Y-73993695D01*
X83080434Y-73821947D01*
X82930761Y-73596504D01*
X82901701Y-73452015D01*
X82945281Y-73228225D01*
X83060926Y-72904892D01*
X83228540Y-72524529D01*
X83428028Y-72129652D01*
X83639296Y-71762774D01*
X83837035Y-71473141D01*
X84010018Y-71238939D01*
X84126410Y-71061830D01*
X84162248Y-70978434D01*
X84161458Y-70977344D01*
X84042741Y-70907537D01*
X83801881Y-70796498D01*
X83476354Y-70659512D01*
X83103642Y-70511864D01*
X82721222Y-70368840D01*
X82371650Y-70247397D01*
X80763112Y-69804270D01*
X79134920Y-69528829D01*
X77489776Y-69420907D01*
X75830385Y-69480340D01*
X74159447Y-69706962D01*
X72479667Y-70100607D01*
X70793746Y-70661110D01*
X69937412Y-71009015D01*
X68548781Y-71697359D01*
X67211990Y-72538552D01*
X65940769Y-73520453D01*
X64748852Y-74630922D01*
X63649969Y-75857818D01*
X62657852Y-77189000D01*
X62267803Y-77789940D01*
X61552555Y-79080584D01*
X60933904Y-80485542D01*
X60422204Y-81973400D01*
X60027810Y-83512745D01*
X59761078Y-85072162D01*
X59704957Y-85564471D01*
X59663387Y-86072308D01*
X59635102Y-86611286D01*
X59619621Y-87156771D01*
X59616462Y-87684127D01*
X58305708Y-87684127D01*
X58308814Y-87311586D01*
X58321871Y-86675798D01*
X58342266Y-86056741D01*
X58369463Y-85485372D01*
X58402923Y-84992644D01*
X58442109Y-84609516D01*
X58462371Y-84476000D01*
X58617636Y-83659651D01*
X58782280Y-82894077D01*
X58947611Y-82216998D01*
X59104936Y-81666131D01*
X59122645Y-81610974D01*
X59201144Y-81330058D01*
X59237526Y-81113764D01*
X59224574Y-81010539D01*
X59106901Y-80959140D01*
X58879170Y-80892971D01*
X58672525Y-80844381D01*
X57948431Y-80616675D01*
X57228603Y-80256962D01*
X56554169Y-79793449D01*
X55966257Y-79254344D01*
X55511416Y-78676334D01*
X55211053Y-78151560D01*
X55010728Y-77648761D01*
X54894431Y-77111168D01*
X54846155Y-76482014D01*
X54842856Y-76305667D01*
X54844402Y-75852043D01*
X54865480Y-75503521D01*
X54915139Y-75196191D01*
X55002426Y-74866146D01*
X55082591Y-74612334D01*
X55285806Y-74078905D01*
X55498382Y-73704061D01*
X55728701Y-73477056D01*
X55985142Y-73387144D01*
X56040062Y-73384667D01*
X56311343Y-73460454D01*
X56479342Y-73590665D01*
X56588920Y-73751125D01*
X56634260Y-73951298D01*
X56613165Y-74219522D01*
X56523439Y-74584137D01*
X56364835Y-75067916D01*
X56177983Y-75822622D01*
X56151668Y-76547885D01*
X56283131Y-77231716D01*
X56569612Y-77862130D01*
X57008351Y-78427138D01*
X57175133Y-78587396D01*
X57682653Y-78975431D01*
X58248268Y-79293019D01*
X58826525Y-79520080D01*
X59371968Y-79636531D01*
X59575000Y-79647642D01*
X59692227Y-79637694D01*
X59787362Y-79590015D01*
X59881330Y-79477291D01*
X59995052Y-79272208D01*
X60149452Y-78947454D01*
X60206585Y-78823146D01*
X60918549Y-77447690D01*
X61781792Y-76102475D01*
X62803610Y-74776641D01*
X63340800Y-74157014D01*
X63652545Y-73806506D01*
X63862424Y-73559159D01*
X63983972Y-73394214D01*
X64030727Y-73290914D01*
X64016224Y-73228501D01*
X63968976Y-73193724D01*
X63768947Y-73049078D01*
X63500868Y-72802237D01*
X63196189Y-72488021D01*
X62886359Y-72141254D01*
X62602826Y-71796757D01*
X62377041Y-71489351D01*
X62267464Y-71309731D01*
X61901642Y-70447797D01*
X61697621Y-69573705D01*
X61653319Y-68702724D01*
X61766656Y-67850125D01*
X62035553Y-67031177D01*
X62457929Y-66261150D01*
X63031703Y-65555314D01*
X63054626Y-65531834D01*
X63415960Y-65190135D01*
X63706866Y-64983220D01*
X63949850Y-64904322D01*
X64167420Y-64946673D01*
X64382081Y-65103505D01*
X64404849Y-65125818D01*
X64557933Y-65320734D01*
X64606357Y-65516886D01*
X64542965Y-65740473D01*
X64360604Y-66017693D01*
X64068682Y-66356735D01*
X63545053Y-67019715D01*
X63188760Y-67689524D01*
X62997814Y-68374907D01*
X62970228Y-69084610D01*
X63104014Y-69827378D01*
X63206892Y-70148643D01*
X63476221Y-70708322D01*
X63864805Y-71263700D01*
X64329962Y-71763514D01*
X64829011Y-72156497D01*
X64929995Y-72218264D01*
X65181554Y-72364194D01*
X65807277Y-71894331D01*
X67246920Y-70917841D01*
X68783234Y-70074941D01*
X70397480Y-69375307D01*
X71295413Y-69060342D01*
X72009158Y-68830092D01*
X71990410Y-67911213D01*
X72038372Y-66955315D01*
X72224182Y-66097294D01*
X72549176Y-65334835D01*
X73014687Y-64665626D01*
X73622052Y-64087352D01*
X74372606Y-63597702D01*
X74526105Y-63517231D01*
X74893324Y-63364002D01*
X75371318Y-63211033D01*
X75902201Y-63073683D01*
X76428089Y-62967309D01*
X76790402Y-62916465D01*
X77085122Y-62894282D01*
X77269503Y-62911883D01*
X77400006Y-62979883D01*
X77471080Y-63044414D01*
X77614392Y-63295594D01*
X77645831Y-63605427D01*
X77561081Y-63901776D01*
X77525799Y-63958881D01*
X77384111Y-64079615D01*
X77131825Y-64172777D01*
X76827299Y-64236348D01*
X75919650Y-64442105D01*
X75157163Y-64725399D01*
X74532199Y-65090793D01*
X74037118Y-65542849D01*
X73664281Y-66086130D01*
X73634808Y-66142918D01*
X73438272Y-66677913D01*
X73327493Y-67314117D01*
X73310347Y-68002376D01*
X73317500Y-68123684D01*
X73340107Y-68351607D01*
X73388957Y-68450266D01*
X73501413Y-68459362D01*
X73613833Y-68438573D01*
X74525179Y-68287702D01*
X75528457Y-68178970D01*
X76573700Y-68114303D01*
X77610946Y-68095629D01*
X78590229Y-68124875D01*
X79461586Y-68203969D01*
X79514000Y-68210978D01*
X80894357Y-68456654D01*
X82273075Y-68810305D01*
X83595199Y-69256040D01*
X84610625Y-69684742D01*
X84987517Y-69856055D01*
X85242077Y-69957087D01*
X85402052Y-69995975D01*
X85495190Y-69980856D01*
X85527132Y-69953499D01*
X85650784Y-69860753D01*
X85893003Y-69719993D01*
X86216578Y-69549593D01*
X86584302Y-69367930D01*
X86958964Y-69193377D01*
X87303355Y-69044311D01*
X87580266Y-68939106D01*
X87583373Y-68938070D01*
X88054772Y-68804927D01*
X88593420Y-68689739D01*
X89131139Y-68604589D01*
X89599751Y-68561564D01*
X89723781Y-68558667D01*
X90045670Y-68579569D01*
X90255098Y-68651678D01*
X90349180Y-68725847D01*
X90541111Y-69009204D01*
X90573482Y-69302220D01*
X90459579Y-69560173D01*
X90355755Y-69677913D01*
X90226026Y-69766021D01*
X90038594Y-69834558D01*
X89761660Y-69893586D01*
X89363426Y-69953165D01*
X89115406Y-69985478D01*
X88612261Y-70074184D01*
X88080497Y-70209450D01*
X87574359Y-70374339D01*
X87148094Y-70551908D01*
X86943121Y-70663834D01*
X86689830Y-70824207D01*
X87229415Y-71187079D01*
X87565050Y-71421676D01*
X87910063Y-71676886D01*
X88168477Y-71880274D01*
X88567954Y-72210598D01*
X89061701Y-71921221D01*
X90079817Y-71414742D01*
X91129102Y-71072805D01*
X92222006Y-70891656D01*
X92553725Y-70868422D01*
X93243423Y-70863771D01*
X93839864Y-70933442D01*
X94407790Y-71090854D01*
X95011946Y-71349426D01*
X95111109Y-71398476D01*
X95959914Y-71917776D01*
X96722868Y-72574953D01*
X97389630Y-73356320D01*
X97949862Y-74248191D01*
X98393224Y-75236877D01*
X98658246Y-76094000D01*
X98735827Y-76551859D01*
X98775783Y-77120392D01*
X98779339Y-77745458D01*
X98747718Y-78372915D01*
X98682146Y-78948620D01*
X98583845Y-79418432D01*
X98583013Y-79421331D01*
X98212735Y-80431232D01*
X97706235Y-81349890D01*
X97053862Y-82192889D01*
X96547464Y-82707233D01*
X96244262Y-82996674D01*
X96052265Y-83201223D01*
X95953118Y-83345018D01*
X95928466Y-83452202D01*
X95940475Y-83505538D01*
X95981755Y-83652223D01*
X96047166Y-83926645D01*
X96127940Y-84290434D01*
X96215307Y-84705221D01*
X96221040Y-84733205D01*
X96495990Y-86458976D01*
X96606356Y-88146765D01*
X96551657Y-89800354D01*
X96331410Y-91423525D01*
X95945133Y-93020060D01*
X95392346Y-94593740D01*
X94798444Y-95901792D01*
X94009811Y-97288260D01*
X93072694Y-98606169D01*
X91996937Y-99847001D01*
X90792385Y-101002241D01*
X89468885Y-102063375D01*
X88036281Y-103021884D01*
X86504418Y-103869255D01*
X84883142Y-104596972D01*
X84631392Y-104695844D01*
X83688889Y-105045558D01*
X82837141Y-105328853D01*
X82018914Y-105561616D01*
X81176978Y-105759733D01*
X80254101Y-105939088D01*
X79979667Y-105987036D01*
X79362970Y-106070349D01*
X78622576Y-106134675D01*
X77803166Y-106178983D01*
X76949422Y-106202241D01*
X76106024Y-106203419D01*
X75317655Y-106181484D01*
X74628995Y-106135406D01*
X74434000Y-106115047D01*
X72715051Y-105835511D01*
X71035047Y-105403539D01*
X69417866Y-104826145D01*
X68259141Y-104301174D01*
X66897233Y-103551518D01*
X65634588Y-102703241D01*
X64446564Y-101736970D01*
X63308522Y-100633330D01*
X62599885Y-99851578D01*
X62402874Y-99631122D01*
X62277761Y-99522385D01*
X62189119Y-99506105D01*
X62101521Y-99563025D01*
X62089265Y-99573979D01*
X61892231Y-99707944D01*
X61575391Y-99874568D01*
X61180422Y-100055538D01*
X60748997Y-100232539D01*
X60322791Y-100387259D01*
X60034971Y-100476721D01*
X59488612Y-100596228D01*
X58865899Y-100677272D01*
X58226512Y-100716170D01*
X57630134Y-100709237D01*
X57147706Y-100654955D01*
X56218173Y-100407928D01*
X55380413Y-100031636D01*
X54611536Y-99513298D01*
X53888654Y-98840130D01*
X53878514Y-98829292D01*
X53305260Y-98124571D01*
X52886860Y-97396206D01*
X52608865Y-96617194D01*
X52543347Y-96333940D01*
X52443161Y-95431014D01*
X52468768Y-95090527D01*
X53803857Y-95090527D01*
X53808908Y-95789248D01*
X53957758Y-96488491D01*
X54260785Y-97171011D01*
X54298202Y-97234742D01*
X54683976Y-97755622D01*
X55183753Y-98248889D01*
X55756051Y-98684025D01*
X56359388Y-99030513D01*
X56952281Y-99257834D01*
X57095731Y-99292834D01*
X57530590Y-99346486D01*
X58068566Y-99355860D01*
X58650499Y-99325054D01*
X59217232Y-99258166D01*
X59709604Y-99159293D01*
X59913667Y-99097645D01*
X60512544Y-98875003D01*
X60960920Y-98684746D01*
X61253601Y-98529235D01*
X61368247Y-98436304D01*
X61400515Y-98341060D01*
X61360878Y-98189808D01*
X61238119Y-97951190D01*
X61129408Y-97768570D01*
X60930929Y-97429811D01*
X60699689Y-97014124D01*
X60477268Y-96596725D01*
X60418713Y-96482879D01*
X60244670Y-96145946D01*
X60122979Y-95935321D01*
X60030507Y-95825739D01*
X59944120Y-95791930D01*
X59840684Y-95808627D01*
X59809685Y-95817662D01*
X59409125Y-95956829D01*
X59126866Y-96105703D01*
X58967781Y-96233672D01*
X58771522Y-96483301D01*
X58725639Y-96741119D01*
X58824314Y-97049272D01*
X58848552Y-97097331D01*
X59000249Y-97488858D01*
X59007223Y-97800862D01*
X58869632Y-98029374D01*
X58809532Y-98075058D01*
X58567687Y-98161773D01*
X58339597Y-98090244D01*
X58118296Y-97856437D01*
X57957372Y-97581649D01*
X57765255Y-97040576D01*
X57737730Y-96517239D01*
X57870438Y-96028267D01*
X58159020Y-95590294D01*
X58571707Y-95237844D01*
X58800229Y-95093535D01*
X58972027Y-94997943D01*
X59033671Y-94974667D01*
X59153053Y-94947131D01*
X59328571Y-94887122D01*
X59558832Y-94799577D01*
X59312916Y-94538027D01*
X58978732Y-94261849D01*
X58587422Y-94102610D01*
X58096905Y-94044351D01*
X58008572Y-94043334D01*
X57416494Y-94121871D01*
X56894309Y-94349978D01*
X56458919Y-94716392D01*
X56127228Y-95209852D01*
X56069550Y-95335052D01*
X55875769Y-95674454D01*
X55655905Y-95850691D01*
X55413638Y-95861697D01*
X55260468Y-95789058D01*
X55093107Y-95589916D01*
X55049851Y-95313707D01*
X55117764Y-94982832D01*
X55283909Y-94619690D01*
X55535350Y-94246679D01*
X55859150Y-93886198D01*
X56242372Y-93560647D01*
X56672080Y-93292425D01*
X56714957Y-93270686D01*
X56915243Y-93181038D01*
X57113089Y-93122479D01*
X57352141Y-93088643D01*
X57676044Y-93073165D01*
X58093334Y-93069667D01*
X59067000Y-93069667D01*
X58897667Y-92376218D01*
X58813735Y-92045084D01*
X58731579Y-91823130D01*
X58617747Y-91688463D01*
X58438783Y-91619187D01*
X58161235Y-91593411D01*
X57751647Y-91589240D01*
X57695018Y-91589156D01*
X56923237Y-91662823D01*
X56212241Y-91874984D01*
X55572407Y-92208392D01*
X55014113Y-92645802D01*
X54547733Y-93169967D01*
X54183646Y-93763641D01*
X53932229Y-94409576D01*
X53803857Y-95090527D01*
X52468768Y-95090527D01*
X52509574Y-94547956D01*
X52740295Y-93692377D01*
X74273605Y-98736002D02*
X74573405Y-98830117D01*
X74573405Y-98830117D02*
X74872953Y-98953928D01*
X74872953Y-98953928D02*
X75494525Y-99191420D01*
X75494525Y-99191420D02*
X76252508Y-99384337D01*
X76252508Y-99384337D02*
X77156423Y-99534649D01*
X77156423Y-99534649D02*
X78201667Y-99643211D01*
X78201667Y-99643211D02*
X79045510Y-99690557D01*
X79045510Y-99690557D02*
X79772344Y-99684030D01*
X79772344Y-99684030D02*
X80426992Y-99619591D01*
X80426992Y-99619591D02*
X81054281Y-99493199D01*
X81054281Y-99493199D02*
X81587167Y-99338055D01*
X81587167Y-99338055D02*
X81943852Y-99228879D01*
X81943852Y-99228879D02*
X82186783Y-99176771D01*
X82186783Y-99176771D02*
X82359342Y-99175700D01*
X82359342Y-99175700D02*
X82488702Y-99212709D01*
X82488702Y-99212709D02*
X82721537Y-99392445D01*
X82721537Y-99392445D02*
X82852391Y-99664171D01*
X82852391Y-99664171D02*
X82855725Y-99968782D01*
X82855725Y-99968782D02*
X82839862Y-100025416D01*
X82839862Y-100025416D02*
X82681849Y-100248240D01*
X82681849Y-100248240D02*
X82375868Y-100451136D01*
X82375868Y-100451136D02*
X81942526Y-100630171D01*
X81942526Y-100630171D02*
X81402430Y-100781413D01*
X81402430Y-100781413D02*
X80776190Y-100900932D01*
X80776190Y-100900932D02*
X80084411Y-100984796D01*
X80084411Y-100984796D02*
X79347702Y-101029072D01*
X79347702Y-101029072D02*
X78586670Y-101029829D01*
X78586670Y-101029829D02*
X77821922Y-100983136D01*
X77821922Y-100983136D02*
X77820667Y-100983017D01*
X77820667Y-100983017D02*
X77044392Y-100888021D01*
X77044392Y-100888021D02*
X76280875Y-100754350D01*
X76280875Y-100754350D02*
X75557987Y-100589669D01*
X75557987Y-100589669D02*
X74903598Y-100401639D01*
X74903598Y-100401639D02*
X74345580Y-100197926D01*
X74345580Y-100197926D02*
X73911803Y-99986191D01*
X73911803Y-99986191D02*
X73718567Y-99855124D01*
X73718567Y-99855124D02*
X73524944Y-99613471D01*
X73524944Y-99613471D02*
X73459030Y-99337238D01*
X73459030Y-99337238D02*
X73508627Y-99068114D01*
X73508627Y-99068114D02*
X73661532Y-98847790D01*
X73661532Y-98847790D02*
X73905545Y-98717956D01*
X73905545Y-98717956D02*
X74056617Y-98700000D01*
X74056617Y-98700000D02*
X74273605Y-98736002D01*
X74273605Y-98736002D02*
X74273605Y-98736002D01*
G36*
X74273605Y-98736002D02*
G01*
X74573405Y-98830117D01*
X74872953Y-98953928D01*
X75494525Y-99191420D01*
X76252508Y-99384337D01*
X77156423Y-99534649D01*
X78201667Y-99643211D01*
X79045510Y-99690557D01*
X79772344Y-99684030D01*
X80426992Y-99619591D01*
X81054281Y-99493199D01*
X81587167Y-99338055D01*
X81943852Y-99228879D01*
X82186783Y-99176771D01*
X82359342Y-99175700D01*
X82488702Y-99212709D01*
X82721537Y-99392445D01*
X82852391Y-99664171D01*
X82855725Y-99968782D01*
X82839862Y-100025416D01*
X82681849Y-100248240D01*
X82375868Y-100451136D01*
X81942526Y-100630171D01*
X81402430Y-100781413D01*
X80776190Y-100900932D01*
X80084411Y-100984796D01*
X79347702Y-101029072D01*
X78586670Y-101029829D01*
X77821922Y-100983136D01*
X77820667Y-100983017D01*
X77044392Y-100888021D01*
X76280875Y-100754350D01*
X75557987Y-100589669D01*
X74903598Y-100401639D01*
X74345580Y-100197926D01*
X73911803Y-99986191D01*
X73718567Y-99855124D01*
X73524944Y-99613471D01*
X73459030Y-99337238D01*
X73508627Y-99068114D01*
X73661532Y-98847790D01*
X73905545Y-98717956D01*
X74056617Y-98700000D01*
X74273605Y-98736002D01*
G37*
X74273605Y-98736002D02*
X74573405Y-98830117D01*
X74872953Y-98953928D01*
X75494525Y-99191420D01*
X76252508Y-99384337D01*
X77156423Y-99534649D01*
X78201667Y-99643211D01*
X79045510Y-99690557D01*
X79772344Y-99684030D01*
X80426992Y-99619591D01*
X81054281Y-99493199D01*
X81587167Y-99338055D01*
X81943852Y-99228879D01*
X82186783Y-99176771D01*
X82359342Y-99175700D01*
X82488702Y-99212709D01*
X82721537Y-99392445D01*
X82852391Y-99664171D01*
X82855725Y-99968782D01*
X82839862Y-100025416D01*
X82681849Y-100248240D01*
X82375868Y-100451136D01*
X81942526Y-100630171D01*
X81402430Y-100781413D01*
X80776190Y-100900932D01*
X80084411Y-100984796D01*
X79347702Y-101029072D01*
X78586670Y-101029829D01*
X77821922Y-100983136D01*
X77820667Y-100983017D01*
X77044392Y-100888021D01*
X76280875Y-100754350D01*
X75557987Y-100589669D01*
X74903598Y-100401639D01*
X74345580Y-100197926D01*
X73911803Y-99986191D01*
X73718567Y-99855124D01*
X73524944Y-99613471D01*
X73459030Y-99337238D01*
X73508627Y-99068114D01*
X73661532Y-98847790D01*
X73905545Y-98717956D01*
X74056617Y-98700000D01*
X74273605Y-98736002D01*
X75923562Y-75052742D02*
X76135381Y-75076883D01*
X76135381Y-75076883D02*
X76283753Y-75120581D01*
X76283753Y-75120581D02*
X76403944Y-75188530D01*
X76403944Y-75188530D02*
X76438522Y-75213411D01*
X76438522Y-75213411D02*
X76632096Y-75442557D01*
X76632096Y-75442557D02*
X76712985Y-75724023D01*
X76712985Y-75724023D02*
X76673330Y-76000255D01*
X76673330Y-76000255D02*
X76567973Y-76161360D01*
X76567973Y-76161360D02*
X76477315Y-76229571D01*
X76477315Y-76229571D02*
X76343368Y-76279457D01*
X76343368Y-76279457D02*
X76136161Y-76315915D01*
X76136161Y-76315915D02*
X75825722Y-76343843D01*
X75825722Y-76343843D02*
X75382079Y-76368137D01*
X75382079Y-76368137D02*
X75271983Y-76373112D01*
X75271983Y-76373112D02*
X74579019Y-76418033D01*
X74579019Y-76418033D02*
X74004809Y-76492653D01*
X74004809Y-76492653D02*
X73499739Y-76608599D01*
X73499739Y-76608599D02*
X73014198Y-76777494D01*
X73014198Y-76777494D02*
X72498574Y-77010966D01*
X72498574Y-77010966D02*
X72452597Y-77033749D01*
X72452597Y-77033749D02*
X71690968Y-77470956D01*
X71690968Y-77470956D02*
X70959990Y-78000019D01*
X70959990Y-78000019D02*
X70283068Y-78596750D01*
X70283068Y-78596750D02*
X69683606Y-79236967D01*
X69683606Y-79236967D02*
X69185009Y-79896483D01*
X69185009Y-79896483D02*
X68810680Y-80551114D01*
X68810680Y-80551114D02*
X68642287Y-80971140D01*
X68642287Y-80971140D02*
X68471056Y-81333997D01*
X68471056Y-81333997D02*
X68245443Y-81536861D01*
X68245443Y-81536861D02*
X67966200Y-81579359D01*
X67966200Y-81579359D02*
X67645314Y-81467286D01*
X67645314Y-81467286D02*
X67419058Y-81263898D01*
X67419058Y-81263898D02*
X67325839Y-80970078D01*
X67325839Y-80970078D02*
X67366202Y-80583725D01*
X67366202Y-80583725D02*
X67540693Y-80102733D01*
X67540693Y-80102733D02*
X67849856Y-79525001D01*
X67849856Y-79525001D02*
X68294237Y-78848425D01*
X68294237Y-78848425D02*
X68341235Y-78782119D01*
X68341235Y-78782119D02*
X68993866Y-77987089D01*
X68993866Y-77987089D02*
X69775796Y-77235427D01*
X69775796Y-77235427D02*
X70647458Y-76557937D01*
X70647458Y-76557937D02*
X71569284Y-75985428D01*
X71569284Y-75985428D02*
X72486667Y-75554559D01*
X72486667Y-75554559D02*
X73136103Y-75323423D01*
X73136103Y-75323423D02*
X73724168Y-75170669D01*
X73724168Y-75170669D02*
X74321237Y-75082908D01*
X74321237Y-75082908D02*
X74997686Y-75046752D01*
X74997686Y-75046752D02*
X75168522Y-75044356D01*
X75168522Y-75044356D02*
X75613031Y-75043465D01*
X75613031Y-75043465D02*
X75923562Y-75052742D01*
X75923562Y-75052742D02*
X75923562Y-75052742D01*
G36*
X75923562Y-75052742D02*
G01*
X76135381Y-75076883D01*
X76283753Y-75120581D01*
X76403944Y-75188530D01*
X76438522Y-75213411D01*
X76632096Y-75442557D01*
X76712985Y-75724023D01*
X76673330Y-76000255D01*
X76567973Y-76161360D01*
X76477315Y-76229571D01*
X76343368Y-76279457D01*
X76136161Y-76315915D01*
X75825722Y-76343843D01*
X75382079Y-76368137D01*
X75271983Y-76373112D01*
X74579019Y-76418033D01*
X74004809Y-76492653D01*
X73499739Y-76608599D01*
X73014198Y-76777494D01*
X72498574Y-77010966D01*
X72452597Y-77033749D01*
X71690968Y-77470956D01*
X70959990Y-78000019D01*
X70283068Y-78596750D01*
X69683606Y-79236967D01*
X69185009Y-79896483D01*
X68810680Y-80551114D01*
X68642287Y-80971140D01*
X68471056Y-81333997D01*
X68245443Y-81536861D01*
X67966200Y-81579359D01*
X67645314Y-81467286D01*
X67419058Y-81263898D01*
X67325839Y-80970078D01*
X67366202Y-80583725D01*
X67540693Y-80102733D01*
X67849856Y-79525001D01*
X68294237Y-78848425D01*
X68341235Y-78782119D01*
X68993866Y-77987089D01*
X69775796Y-77235427D01*
X70647458Y-76557937D01*
X71569284Y-75985428D01*
X72486667Y-75554559D01*
X73136103Y-75323423D01*
X73724168Y-75170669D01*
X74321237Y-75082908D01*
X74997686Y-75046752D01*
X75168522Y-75044356D01*
X75613031Y-75043465D01*
X75923562Y-75052742D01*
G37*
X75923562Y-75052742D02*
X76135381Y-75076883D01*
X76283753Y-75120581D01*
X76403944Y-75188530D01*
X76438522Y-75213411D01*
X76632096Y-75442557D01*
X76712985Y-75724023D01*
X76673330Y-76000255D01*
X76567973Y-76161360D01*
X76477315Y-76229571D01*
X76343368Y-76279457D01*
X76136161Y-76315915D01*
X75825722Y-76343843D01*
X75382079Y-76368137D01*
X75271983Y-76373112D01*
X74579019Y-76418033D01*
X74004809Y-76492653D01*
X73499739Y-76608599D01*
X73014198Y-76777494D01*
X72498574Y-77010966D01*
X72452597Y-77033749D01*
X71690968Y-77470956D01*
X70959990Y-78000019D01*
X70283068Y-78596750D01*
X69683606Y-79236967D01*
X69185009Y-79896483D01*
X68810680Y-80551114D01*
X68642287Y-80971140D01*
X68471056Y-81333997D01*
X68245443Y-81536861D01*
X67966200Y-81579359D01*
X67645314Y-81467286D01*
X67419058Y-81263898D01*
X67325839Y-80970078D01*
X67366202Y-80583725D01*
X67540693Y-80102733D01*
X67849856Y-79525001D01*
X68294237Y-78848425D01*
X68341235Y-78782119D01*
X68993866Y-77987089D01*
X69775796Y-77235427D01*
X70647458Y-76557937D01*
X71569284Y-75985428D01*
X72486667Y-75554559D01*
X73136103Y-75323423D01*
X73724168Y-75170669D01*
X74321237Y-75082908D01*
X74997686Y-75046752D01*
X75168522Y-75044356D01*
X75613031Y-75043465D01*
X75923562Y-75052742D01*
D12*
%TO.C,J7*%
X40950000Y-41980000D02*
X49050000Y-41980000D01*
X49050000Y-54240000D02*
X40950000Y-54240000D01*
X40950000Y-41980000D02*
X40950000Y-54240000D01*
X49050000Y-41980000D02*
X49050000Y-54240000D01*
%TO.C,J20*%
X110050000Y-107980000D02*
X101950000Y-107980000D01*
X101950000Y-95720000D02*
X110050000Y-95720000D01*
X101950000Y-107980000D02*
X101950000Y-95720000D01*
X110050000Y-107980000D02*
X110050000Y-95720000D01*
%TO.C,J12*%
X40950000Y-93980000D02*
X40950000Y-106240000D01*
X49050000Y-93980000D02*
X49050000Y-106240000D01*
X40950000Y-93980000D02*
X49050000Y-93980000D01*
X49050000Y-106240000D02*
X40950000Y-106240000D01*
%TO.C,J5*%
X40950000Y-106980000D02*
X40950000Y-119240000D01*
X40950000Y-106980000D02*
X49050000Y-106980000D01*
X49050000Y-119240000D02*
X40950000Y-119240000D01*
X49050000Y-106980000D02*
X49050000Y-119240000D01*
%TO.C,J10*%
X40950000Y-54980000D02*
X40950000Y-67240000D01*
X49050000Y-54980000D02*
X49050000Y-67240000D01*
X40950000Y-54980000D02*
X49050000Y-54980000D01*
X49050000Y-67240000D02*
X40950000Y-67240000D01*
%TO.C,J4*%
X85520000Y-122800000D02*
X97780000Y-122800000D01*
X97780000Y-122800000D02*
X97780000Y-130900000D01*
X85520000Y-130900000D02*
X97780000Y-130900000D01*
X85520000Y-130900000D02*
X85520000Y-122800000D01*
%TO.C,J11*%
X40950000Y-132980000D02*
X40950000Y-145240000D01*
X40950000Y-132980000D02*
X49050000Y-132980000D01*
X49050000Y-132980000D02*
X49050000Y-145240000D01*
X49050000Y-145240000D02*
X40950000Y-145240000D01*
%TO.C,J18*%
X101950000Y-94980000D02*
X101950000Y-82720000D01*
X110050000Y-94980000D02*
X110050000Y-82720000D01*
X101950000Y-82720000D02*
X110050000Y-82720000D01*
X110050000Y-94980000D02*
X101950000Y-94980000D01*
%TO.C,J1*%
X85520000Y-68900000D02*
X85520000Y-60800000D01*
X85520000Y-68900000D02*
X97780000Y-68900000D01*
X97780000Y-60800000D02*
X97780000Y-68900000D01*
X85520000Y-60800000D02*
X97780000Y-60800000D01*
%TO.C,J8*%
X40950000Y-119980000D02*
X40950000Y-132240000D01*
X49050000Y-119980000D02*
X49050000Y-132240000D01*
X40950000Y-119980000D02*
X49050000Y-119980000D01*
X49050000Y-132240000D02*
X40950000Y-132240000D01*
%TO.C,J6*%
X49050000Y-67980000D02*
X49050000Y-80240000D01*
X40950000Y-67980000D02*
X40950000Y-80240000D01*
X40950000Y-67980000D02*
X49050000Y-67980000D01*
X49050000Y-80240000D02*
X40950000Y-80240000D01*
%TO.C,J17*%
X110050000Y-68980000D02*
X101950000Y-68980000D01*
X101950000Y-68980000D02*
X101950000Y-56720000D01*
X110050000Y-68980000D02*
X110050000Y-56720000D01*
X101950000Y-56720000D02*
X110050000Y-56720000D01*
%TD*%
M02*
