%TF.GenerationSoftware,KiCad,Pcbnew,(6.0.1)*%
%TF.CreationDate,2023-08-04T16:44:47-07:00*%
%TF.ProjectId,pipes_main,70697065-735f-46d6-9169-6e2e6b696361,rev?*%
%TF.SameCoordinates,Original*%
%TF.FileFunction,Copper,L1,Top*%
%TF.FilePolarity,Positive*%
%FSLAX46Y46*%
G04 Gerber Fmt 4.6, Leading zero omitted, Abs format (unit mm)*
G04 Created by KiCad (PCBNEW (6.0.1)) date 2023-08-04 16:44:47*
%MOMM*%
%LPD*%
G01*
G04 APERTURE LIST*
%TA.AperFunction,ComponentPad*%
%ADD10C,2.250000*%
%TD*%
%TA.AperFunction,ComponentPad*%
%ADD11O,1.600000X2.600000*%
%TD*%
%TA.AperFunction,ComponentPad*%
%ADD12C,1.600000*%
%TD*%
%TA.AperFunction,WasherPad*%
%ADD13C,4.000000*%
%TD*%
%TA.AperFunction,ComponentPad*%
%ADD14C,1.800000*%
%TD*%
%TA.AperFunction,ComponentPad*%
%ADD15O,2.600000X1.600000*%
%TD*%
%TA.AperFunction,ComponentPad*%
%ADD16C,2.800000*%
%TD*%
%TA.AperFunction,ComponentPad*%
%ADD17C,1.200000*%
%TD*%
%TA.AperFunction,ViaPad*%
%ADD18C,0.450000*%
%TD*%
%TA.AperFunction,ViaPad*%
%ADD19C,0.800000*%
%TD*%
%TA.AperFunction,ViaPad*%
%ADD20C,0.400000*%
%TD*%
%TA.AperFunction,Conductor*%
%ADD21C,0.250000*%
%TD*%
%TA.AperFunction,Conductor*%
%ADD22C,0.400000*%
%TD*%
%TA.AperFunction,Conductor*%
%ADD23C,0.200000*%
%TD*%
%TA.AperFunction,Conductor*%
%ADD24C,0.600000*%
%TD*%
%TA.AperFunction,Conductor*%
%ADD25C,0.120000*%
%TD*%
G04 APERTURE END LIST*
D10*
%TO.P,J16,1,G*%
%TO.N,GND*%
X106000000Y-132180000D03*
%TO.P,J16,2,T*%
%TO.N,Net-(J16-Pad2)*%
X106000000Y-123280000D03*
%TO.P,J16,3,S*%
%TO.N,GND*%
X104500000Y-130030000D03*
%TO.P,J16,4,SW*%
%TO.N,unconnected-(J16-Pad4)*%
X104500000Y-125580000D03*
D11*
%TO.P,J16,5*%
%TO.N,N/C*%
X108550000Y-124440000D03*
D12*
%TO.P,J16,6*%
X108550000Y-131120000D03*
%TD*%
D10*
%TO.P,J14,1,G*%
%TO.N,GND*%
X106000000Y-80180000D03*
%TO.P,J14,2,T*%
%TO.N,Net-(J14-Pad2)*%
X106000000Y-71280000D03*
%TO.P,J14,3,S*%
%TO.N,GND*%
X104500000Y-78030000D03*
%TO.P,J14,4,SW*%
%TO.N,unconnected-(J14-Pad4)*%
X104500000Y-73580000D03*
D11*
%TO.P,J14,5*%
%TO.N,N/C*%
X108550000Y-72440000D03*
D12*
%TO.P,J14,6*%
X108550000Y-79120000D03*
%TD*%
D13*
%TO.P,RV1,*%
%TO.N,*%
X94420000Y-101030000D03*
X85620000Y-101030000D03*
D14*
%TO.P,RV1,1,1*%
%TO.N,SIG*%
X92520000Y-108030000D03*
%TO.P,RV1,2,2*%
%TO.N,Net-(R10-Pad2)*%
X90020000Y-108030000D03*
%TO.P,RV1,3,3*%
%TO.N,GND*%
X87520000Y-108030000D03*
%TD*%
D10*
%TO.P,J9,1,G*%
%TO.N,GND*%
X45000000Y-82780000D03*
%TO.P,J9,2,T*%
%TO.N,Net-(J9-Pad2)*%
X45000000Y-91680000D03*
%TO.P,J9,3,S*%
%TO.N,GND*%
X46500000Y-84930000D03*
%TO.P,J9,4,SW*%
X46500000Y-89380000D03*
D11*
%TO.P,J9,5*%
%TO.N,N/C*%
X42450000Y-90520000D03*
D12*
%TO.P,J9,6*%
X42450000Y-83840000D03*
%TD*%
D10*
%TO.P,J15,1,G*%
%TO.N,GND*%
X106000000Y-54180000D03*
%TO.P,J15,2,T*%
%TO.N,Net-(J15-Pad2)*%
X106000000Y-45280000D03*
%TO.P,J15,3,S*%
%TO.N,GND*%
X104500000Y-52030000D03*
%TO.P,J15,4,SW*%
%TO.N,unconnected-(J15-Pad4)*%
X104500000Y-47580000D03*
D11*
%TO.P,J15,5*%
%TO.N,N/C*%
X108550000Y-46440000D03*
D12*
%TO.P,J15,6*%
X108550000Y-53120000D03*
%TD*%
D10*
%TO.P,J19,1,G*%
%TO.N,GND*%
X106000000Y-145180000D03*
%TO.P,J19,2,T*%
%TO.N,Net-(J19-Pad2)*%
X106000000Y-136280000D03*
%TO.P,J19,3,S*%
%TO.N,GND*%
X104500000Y-143030000D03*
%TO.P,J19,4,SW*%
%TO.N,unconnected-(J19-Pad4)*%
X104500000Y-138580000D03*
D11*
%TO.P,J19,5*%
%TO.N,N/C*%
X108550000Y-137440000D03*
D12*
%TO.P,J19,6*%
X108550000Y-144120000D03*
%TD*%
D10*
%TO.P,J13,1,G*%
%TO.N,GND*%
X106000000Y-119180000D03*
%TO.P,J13,2,T*%
%TO.N,Net-(J13-Pad2)*%
X106000000Y-110280000D03*
%TO.P,J13,3,S*%
%TO.N,GND*%
X104500000Y-117030000D03*
%TO.P,J13,4,SW*%
%TO.N,unconnected-(J13-Pad4)*%
X104500000Y-112580000D03*
D11*
%TO.P,J13,5*%
%TO.N,N/C*%
X108550000Y-111440000D03*
D12*
%TO.P,J13,6*%
X108550000Y-118120000D03*
%TD*%
D10*
%TO.P,J7,1,G*%
%TO.N,GND*%
X45000000Y-43780000D03*
%TO.P,J7,2,T*%
%TO.N,Net-(J7-Pad2)*%
X45000000Y-52680000D03*
%TO.P,J7,3,S*%
%TO.N,GND*%
X46500000Y-45930000D03*
%TO.P,J7,4,SW*%
X46500000Y-50380000D03*
D11*
%TO.P,J7,5*%
%TO.N,N/C*%
X42450000Y-51520000D03*
D12*
%TO.P,J7,6*%
X42450000Y-44840000D03*
%TD*%
D10*
%TO.P,J20,1,G*%
%TO.N,GND*%
X106000000Y-106180000D03*
%TO.P,J20,2,T*%
%TO.N,Net-(J20-Pad2)*%
X106000000Y-97280000D03*
%TO.P,J20,3,S*%
%TO.N,GND*%
X104500000Y-104030000D03*
%TO.P,J20,4,SW*%
%TO.N,unconnected-(J20-Pad4)*%
X104500000Y-99580000D03*
D11*
%TO.P,J20,5*%
%TO.N,N/C*%
X108550000Y-98440000D03*
D12*
%TO.P,J20,6*%
X108550000Y-105120000D03*
%TD*%
D10*
%TO.P,J12,1,G*%
%TO.N,GND*%
X45000000Y-95780000D03*
%TO.P,J12,2,T*%
%TO.N,Net-(J12-Pad2)*%
X45000000Y-104680000D03*
%TO.P,J12,3,S*%
%TO.N,GND*%
X46500000Y-97930000D03*
%TO.P,J12,4,SW*%
X46500000Y-102380000D03*
D11*
%TO.P,J12,5*%
%TO.N,N/C*%
X42450000Y-103520000D03*
D12*
%TO.P,J12,6*%
X42450000Y-96840000D03*
%TD*%
D10*
%TO.P,J5,1,G*%
%TO.N,GND*%
X45000000Y-108780000D03*
%TO.P,J5,2,T*%
%TO.N,Net-(J5-Pad2)*%
X45000000Y-117680000D03*
%TO.P,J5,3,S*%
%TO.N,GND*%
X46500000Y-110930000D03*
%TO.P,J5,4,SW*%
X46500000Y-115380000D03*
D11*
%TO.P,J5,5*%
%TO.N,N/C*%
X42450000Y-116520000D03*
D12*
%TO.P,J5,6*%
X42450000Y-109840000D03*
%TD*%
D10*
%TO.P,J10,1,G*%
%TO.N,GND*%
X45000000Y-56780000D03*
%TO.P,J10,2,T*%
%TO.N,Net-(J10-Pad2)*%
X45000000Y-65680000D03*
%TO.P,J10,3,S*%
%TO.N,GND*%
X46500000Y-58930000D03*
%TO.P,J10,4,SW*%
X46500000Y-63380000D03*
D11*
%TO.P,J10,5*%
%TO.N,N/C*%
X42450000Y-64520000D03*
D12*
%TO.P,J10,6*%
X42450000Y-57840000D03*
%TD*%
D10*
%TO.P,J4,1,G*%
%TO.N,GND*%
X87320000Y-126850000D03*
%TO.P,J4,2,T*%
%TO.N,Net-(C16-Pad1)*%
X96220000Y-126850000D03*
%TO.P,J4,3,S*%
%TO.N,GND*%
X89470000Y-125350000D03*
%TO.P,J4,4,SW*%
%TO.N,unconnected-(J4-Pad4)*%
X93920000Y-125350000D03*
D15*
%TO.P,J4,5*%
%TO.N,N/C*%
X95060000Y-129400000D03*
D12*
%TO.P,J4,6*%
X88380000Y-129400000D03*
%TD*%
D10*
%TO.P,J11,1,G*%
%TO.N,GND*%
X45000000Y-134780000D03*
%TO.P,J11,2,T*%
%TO.N,Net-(J11-Pad2)*%
X45000000Y-143680000D03*
%TO.P,J11,3,S*%
%TO.N,GND*%
X46500000Y-136930000D03*
%TO.P,J11,4,SW*%
X46500000Y-141380000D03*
D11*
%TO.P,J11,5*%
%TO.N,N/C*%
X42450000Y-142520000D03*
D12*
%TO.P,J11,6*%
X42450000Y-135840000D03*
%TD*%
D10*
%TO.P,J18,1,G*%
%TO.N,GND*%
X106000000Y-93180000D03*
%TO.P,J18,2,T*%
%TO.N,Net-(J18-Pad2)*%
X106000000Y-84280000D03*
%TO.P,J18,3,S*%
%TO.N,GND*%
X104500000Y-91030000D03*
%TO.P,J18,4,SW*%
%TO.N,unconnected-(J18-Pad4)*%
X104500000Y-86580000D03*
D11*
%TO.P,J18,5*%
%TO.N,N/C*%
X108550000Y-85440000D03*
D12*
%TO.P,J18,6*%
X108550000Y-92120000D03*
%TD*%
D10*
%TO.P,J1,1,G*%
%TO.N,GND*%
X87320000Y-64850000D03*
%TO.P,J1,2,T*%
%TO.N,Net-(J1-Pad2)*%
X96220000Y-64850000D03*
%TO.P,J1,3,S*%
%TO.N,GND*%
X89470000Y-63350000D03*
%TO.P,J1,4,SW*%
X93920000Y-63350000D03*
D15*
%TO.P,J1,5*%
%TO.N,N/C*%
X95060000Y-67400000D03*
D12*
%TO.P,J1,6*%
X88380000Y-67400000D03*
%TD*%
D10*
%TO.P,J8,1,G*%
%TO.N,GND*%
X45000000Y-121780000D03*
%TO.P,J8,2,T*%
%TO.N,Net-(J8-Pad2)*%
X45000000Y-130680000D03*
%TO.P,J8,3,S*%
%TO.N,GND*%
X46500000Y-123930000D03*
%TO.P,J8,4,SW*%
X46500000Y-128380000D03*
D11*
%TO.P,J8,5*%
%TO.N,N/C*%
X42450000Y-129520000D03*
D12*
%TO.P,J8,6*%
X42450000Y-122840000D03*
%TD*%
D10*
%TO.P,J6,1,G*%
%TO.N,GND*%
X45000000Y-69780000D03*
%TO.P,J6,2,T*%
%TO.N,Net-(J6-Pad2)*%
X45000000Y-78680000D03*
%TO.P,J6,3,S*%
%TO.N,GND*%
X46500000Y-71930000D03*
%TO.P,J6,4,SW*%
X46500000Y-76380000D03*
D11*
%TO.P,J6,5*%
%TO.N,N/C*%
X42450000Y-77520000D03*
D12*
%TO.P,J6,6*%
X42450000Y-70840000D03*
%TD*%
D10*
%TO.P,J17,1,G*%
%TO.N,GND*%
X106000000Y-67180000D03*
%TO.P,J17,2,T*%
%TO.N,Net-(J17-Pad2)*%
X106000000Y-58280000D03*
%TO.P,J17,3,S*%
%TO.N,GND*%
X104500000Y-65030000D03*
%TO.P,J17,4,SW*%
%TO.N,unconnected-(J17-Pad4)*%
X104500000Y-60580000D03*
D11*
%TO.P,J17,5*%
%TO.N,N/C*%
X108550000Y-59440000D03*
D12*
%TO.P,J17,6*%
X108550000Y-66120000D03*
%TD*%
D16*
%TO.P,TP1,1,1*%
%TO.N,GND*%
X88170000Y-146950000D03*
%TD*%
D17*
%TO.P,J21,17*%
%TO.N,N/C*%
X55200000Y-62380000D03*
%TO.P,J21,18*%
X55200000Y-77620000D03*
%TD*%
D16*
%TO.P,TP2,1,1*%
%TO.N,GND*%
X58280000Y-146950000D03*
%TD*%
D17*
%TO.P,J22,11*%
%TO.N,N/C*%
X55200000Y-103810000D03*
%TO.P,J22,12*%
X55200000Y-96190000D03*
%TD*%
D18*
%TO.N,Net-(C1-Pad1)*%
X82980000Y-83670000D03*
X87112500Y-83687500D03*
%TO.N,+12V*%
X52600000Y-77425000D03*
X52600000Y-98725000D03*
X51962500Y-50737500D03*
D19*
X98400000Y-85600000D03*
D18*
X89827500Y-80447500D03*
X52575000Y-113175000D03*
X86775000Y-50415000D03*
D20*
X85347500Y-109277500D03*
D19*
X52600000Y-126100000D03*
D18*
X97170000Y-54480000D03*
X52600000Y-139050000D03*
X52680000Y-82240000D03*
X51955489Y-59769511D03*
X52600000Y-87150000D03*
D20*
X85660000Y-82200000D03*
D18*
%TO.N,-12V*%
X91151250Y-59848750D03*
X89592500Y-70327500D03*
X57750000Y-77350000D03*
X90600000Y-77820000D03*
X93850000Y-116950000D03*
X91151250Y-55661250D03*
X93845000Y-115405000D03*
X84550000Y-116950000D03*
X98430000Y-59730000D03*
D20*
%TO.N,Net-(C11-Pad2)*%
X92610359Y-54189641D03*
X93385000Y-56115000D03*
D18*
%TO.N,Net-(C13-Pad1)*%
X88750000Y-121500000D03*
X88785000Y-112865000D03*
D20*
%TO.N,F6*%
X75300000Y-110100000D03*
X100125000Y-109075000D03*
X73900000Y-113400000D03*
%TO.N,F7*%
X99050000Y-126950000D03*
X73950000Y-125850000D03*
%TO.N,F4*%
X100425000Y-67775000D03*
X100425000Y-88025000D03*
D18*
X74400000Y-88100000D03*
D20*
X73500000Y-89675000D03*
%TO.N,F2*%
X99650000Y-53500000D03*
X76895000Y-63095000D03*
%TO.N,F8*%
X100300000Y-131900000D03*
X74250000Y-138650000D03*
%TO.N,F5*%
X97400000Y-104100000D03*
X73925000Y-103075000D03*
D18*
%TO.N,VCA6*%
X50500000Y-100000000D03*
X50525000Y-111150000D03*
%TO.N,VCA3*%
X48037500Y-75337500D03*
X59760000Y-102540000D03*
X59760000Y-78800000D03*
%TO.N,VCA1*%
X40400000Y-106300000D03*
X57150000Y-106150000D03*
X45125000Y-48425000D03*
X40400000Y-48425000D03*
%TO.N,VCA7*%
X56350000Y-128700000D03*
X50275000Y-128725000D03*
X56000000Y-97460000D03*
%TO.N,VCA4*%
X47750000Y-88200000D03*
X55110000Y-102540000D03*
X55100000Y-91800000D03*
%TO.N,VCA2*%
X61020000Y-104080000D03*
X61000000Y-65750000D03*
X48712500Y-62162500D03*
X55000000Y-105075000D03*
%TO.N,VCA8*%
X49550000Y-97460000D03*
X49550000Y-137750000D03*
%TO.N,VCA5*%
X48000000Y-101800000D03*
X55750000Y-100000000D03*
D20*
%TO.N,Clk*%
X67805000Y-140005000D03*
X67775000Y-76525000D03*
X67735000Y-89025000D03*
X67795000Y-115025000D03*
X97685000Y-46515000D03*
X88900000Y-43880000D03*
X67715000Y-127505000D03*
X68600000Y-56900000D03*
X67755000Y-64025000D03*
X67775000Y-102425000D03*
D18*
%TO.N,Net-(R23-Pad2)*%
X67800000Y-118275000D03*
X61800000Y-118250000D03*
X61900000Y-115200000D03*
%TO.N,Net-(R32-Pad2)*%
X65700000Y-92275000D03*
X62700000Y-92250000D03*
%TO.N,Net-(R36-Pad2)*%
X66697500Y-131397500D03*
X61600000Y-127100000D03*
X61602500Y-131397500D03*
%TO.N,Net-(R40-Pad2)*%
X66697500Y-143697500D03*
X61650000Y-139700000D03*
X61652500Y-143697500D03*
%TO.N,Net-(R42-Pad2)*%
X61800000Y-101200000D03*
X66697500Y-106147500D03*
X61802500Y-106147500D03*
D20*
%TO.N,1f*%
X101484642Y-48115358D03*
D18*
X52680000Y-62625000D03*
D20*
X103084642Y-49715358D03*
D18*
X52680000Y-48115358D03*
%TO.N,2f*%
X57700000Y-58924720D03*
X99700000Y-58400000D03*
X57700000Y-62650000D03*
%TO.N,3f*%
X95255480Y-61294520D03*
X52680000Y-65030000D03*
D20*
X105600000Y-63300000D03*
X101035000Y-61565000D03*
%TO.N,4f*%
X102625000Y-79025000D03*
X102305000Y-69195000D03*
D18*
X57720000Y-67070000D03*
%TO.N,5f*%
X52700000Y-69550000D03*
X103050000Y-70600000D03*
X100100000Y-96500000D03*
%TO.N,6f*%
X55780000Y-68730000D03*
X50650000Y-68750000D03*
X102690000Y-108390000D03*
X51154511Y-106695489D03*
%TO.N,7f*%
X57750000Y-119100000D03*
X55670000Y-71270000D03*
X102362500Y-120287500D03*
%TO.N,8f*%
X100025000Y-134175000D03*
X90850000Y-133950000D03*
X54550000Y-133950000D03*
X54550000Y-72500000D03*
D20*
%TO.N,{slash}6*%
X79235000Y-117135000D03*
X79175000Y-113325000D03*
%TO.N,{slash}3*%
X79200000Y-80300000D03*
X77575000Y-74325000D03*
%TO.N,Net-(U4-Pad3)*%
X78600000Y-114700000D03*
X73575000Y-115025000D03*
%TO.N,Net-(U5-Pad3)*%
X73900000Y-74924520D03*
X79275480Y-74924520D03*
%TO.N,{slash}4*%
X76975000Y-93175000D03*
X76975000Y-86825000D03*
%TO.N,{slash}7*%
X76895000Y-125305000D03*
X79300000Y-130400000D03*
X79195000Y-125305000D03*
%TO.N,Net-(U10-Pad3)*%
X79205000Y-88095000D03*
X73575000Y-89025000D03*
%TO.N,Net-(U11-Pad3)*%
X73450000Y-64030000D03*
X79395000Y-63095000D03*
%TO.N,Net-(U12-Pad3)*%
X74046891Y-126646891D03*
X78600000Y-126575000D03*
%TO.N,{slash}8*%
X76995000Y-137805000D03*
X76975000Y-145425000D03*
%TO.N,Net-(U16-Pad3)*%
X79225000Y-139075000D03*
X71405000Y-140005000D03*
%TO.N,Net-(U17-Pad3)*%
X73475000Y-102425000D03*
X79305000Y-101495000D03*
%TO.N,Net-(C2-Pad1)*%
X83200000Y-87700000D03*
X77200000Y-83700000D03*
X91181250Y-87681250D03*
%TO.N,Net-(C10-Pad1)*%
X87800000Y-91000000D03*
X87800000Y-84900000D03*
D18*
%TO.N,Net-(R30-Pad2)*%
X66185000Y-69615000D03*
X66185000Y-72515000D03*
D20*
%TO.N,+9V*%
X77115000Y-73055000D03*
X98395000Y-130305000D03*
X76850000Y-112040000D03*
X67720000Y-87740000D03*
X99200000Y-69100000D03*
X67815000Y-138705000D03*
X77030000Y-136550000D03*
D19*
X75640000Y-98030000D03*
D20*
X98400000Y-50500000D03*
X77115000Y-85555000D03*
X84670000Y-43880000D03*
X98195000Y-107205000D03*
D18*
X69400000Y-138000000D03*
X62200000Y-62650000D03*
D20*
X76995000Y-60555000D03*
X77075000Y-124035000D03*
X67675000Y-75225000D03*
D19*
X83050000Y-92760000D03*
D20*
X67785000Y-62725000D03*
D18*
X66697500Y-100452500D03*
D20*
%TO.N,+5V*%
X110300000Y-49800000D03*
X110300000Y-95200000D03*
X100850000Y-140600000D03*
X100600000Y-122200000D03*
D18*
X101000000Y-137150000D03*
D20*
X110300000Y-121300000D03*
X110300000Y-114100000D03*
X110300000Y-140600000D03*
X101125000Y-93575000D03*
X110300000Y-64200000D03*
D18*
X57750000Y-74850000D03*
D20*
X102600000Y-57300000D03*
X110300000Y-75800000D03*
X110300000Y-41200000D03*
X101200000Y-75900000D03*
X110300000Y-56300000D03*
X99975000Y-112600000D03*
X103595489Y-114104511D03*
D18*
X60050000Y-55300000D03*
%TO.N,Net-(C46-Pad1)*%
X93400000Y-110050000D03*
X93927500Y-114135000D03*
%TO.N,SIG*%
X93040000Y-73810000D03*
X55140000Y-73810000D03*
X91900000Y-104650000D03*
%TD*%
D21*
%TO.N,Net-(C1-Pad1)*%
X87095000Y-83670000D02*
X87112500Y-83687500D01*
X82980000Y-83670000D02*
X87095000Y-83670000D01*
D22*
%TO.N,+12V*%
X86775000Y-50415000D02*
X93105000Y-50415000D01*
X93105000Y-50415000D02*
X97170000Y-54480000D01*
D23*
%TO.N,-12V*%
X98430000Y-59730000D02*
X91270000Y-59730000D01*
D24*
X84550000Y-116950000D02*
X93850000Y-116950000D01*
D23*
X91270000Y-59730000D02*
X91151250Y-59848750D01*
%TO.N,F4*%
X73500000Y-89675000D02*
X98775000Y-89675000D01*
X98775000Y-89675000D02*
X100425000Y-88025000D01*
%TO.N,F2*%
X80665761Y-59324239D02*
X94675761Y-59324239D01*
X76895000Y-63095000D02*
X80665761Y-59324239D01*
X94675761Y-59324239D02*
X99650000Y-53500000D01*
%TO.N,VCA3*%
X59760000Y-78800000D02*
X51500000Y-78800000D01*
X51500000Y-78800000D02*
X48037500Y-75337500D01*
D21*
%TO.N,VCA1*%
X45125000Y-48425000D02*
X40400000Y-48425000D01*
D23*
X54729022Y-106170978D02*
X40529022Y-106170978D01*
X40529022Y-106170978D02*
X40400000Y-106300000D01*
X57150000Y-106150000D02*
X54729022Y-106170978D01*
%TO.N,VCA7*%
X50275000Y-128725000D02*
X56325000Y-128725000D01*
%TO.N,VCA4*%
X51350000Y-91800000D02*
X55100000Y-91800000D01*
X47750000Y-88200000D02*
X51350000Y-91800000D01*
%TO.N,VCA2*%
X48712500Y-62162500D02*
X52300000Y-65750000D01*
X55000000Y-105075000D02*
X60025000Y-105075000D01*
X52300000Y-65750000D02*
X61000000Y-65750000D01*
X60025000Y-105075000D02*
X61020000Y-104080000D01*
%TO.N,VCA5*%
X53950000Y-101800000D02*
X55750000Y-100000000D01*
X48000000Y-101800000D02*
X53950000Y-101800000D01*
D25*
%TO.N,Clk*%
X85510178Y-43880000D02*
X72490178Y-56900000D01*
X88900000Y-43880000D02*
X85510178Y-43880000D01*
D23*
X88900000Y-43880000D02*
X95050000Y-43880000D01*
D25*
X72490178Y-56900000D02*
X68600000Y-56900000D01*
D23*
X95050000Y-43880000D02*
X97685000Y-46515000D01*
%TO.N,Net-(R23-Pad2)*%
X61975000Y-118275000D02*
X67800000Y-118275000D01*
X61800000Y-118250000D02*
X61975000Y-118275000D01*
%TO.N,Net-(R32-Pad2)*%
X65675000Y-92250000D02*
X65700000Y-92275000D01*
X62700000Y-92250000D02*
X65675000Y-92250000D01*
%TO.N,Net-(R36-Pad2)*%
X66697500Y-131397500D02*
X61602500Y-131397500D01*
%TO.N,Net-(R40-Pad2)*%
X66697500Y-143697500D02*
X61652500Y-143697500D01*
%TO.N,Net-(R42-Pad2)*%
X66697500Y-106147500D02*
X61802500Y-106147500D01*
%TO.N,3f*%
X101035000Y-61565000D02*
X103049564Y-61565000D01*
X103049564Y-61565000D02*
X105600000Y-63300000D01*
%TO.N,6f*%
X55760000Y-68750000D02*
X55780000Y-68730000D01*
X50650000Y-68750000D02*
X55760000Y-68750000D01*
%TO.N,8f*%
X99800000Y-133950000D02*
X90850000Y-133950000D01*
X100025000Y-134175000D02*
X99800000Y-133950000D01*
%TO.N,{slash}3*%
X77575000Y-74325000D02*
X79200000Y-75950000D01*
X79200000Y-75950000D02*
X79200000Y-80300000D01*
%TO.N,Net-(U10-Pad3)*%
X78275000Y-89025000D02*
X79205000Y-88095000D01*
X73575000Y-89025000D02*
X78275000Y-89025000D01*
%TO.N,Net-(U11-Pad3)*%
X78460000Y-64030000D02*
X73450000Y-64030000D01*
X78460000Y-64030000D02*
X79395000Y-63095000D01*
%TO.N,Net-(C2-Pad1)*%
X77200000Y-83700000D02*
X81181250Y-87681250D01*
X81181250Y-87681250D02*
X91181250Y-87681250D01*
D22*
%TO.N,+9V*%
X76330000Y-43880000D02*
X84670000Y-43880000D01*
X69100000Y-50000000D02*
X76330000Y-43880000D01*
D24*
X83050000Y-92760000D02*
X83050000Y-94350000D01*
X83050000Y-94350000D02*
X81300000Y-96100000D01*
D22*
%TO.N,+5V*%
X110300000Y-95200000D02*
X102750000Y-95200000D01*
X99975000Y-112600000D02*
X101479511Y-114104511D01*
X102750000Y-95200000D02*
X101125000Y-93575000D01*
X103595489Y-114104511D02*
X110295489Y-114104511D01*
X101300000Y-75800000D02*
X101200000Y-75900000D01*
X110300000Y-56300000D02*
X103600000Y-56300000D01*
X110300000Y-121300000D02*
X101500000Y-121300000D01*
X101479511Y-114104511D02*
X103595489Y-114104511D01*
X103600000Y-56300000D02*
X102600000Y-57300000D01*
X101500000Y-121300000D02*
X100600000Y-122200000D01*
X110295489Y-114104511D02*
X110300000Y-114100000D01*
X100850000Y-140600000D02*
X110300000Y-140600000D01*
X110300000Y-75800000D02*
X101300000Y-75800000D01*
%TD*%
%TA.AperFunction,Conductor*%
%TO.N,+9V*%
G36*
X69382256Y-49660002D02*
G01*
X69428749Y-49713658D01*
X69440135Y-49765865D01*
X69447039Y-56192798D01*
X69447052Y-56205365D01*
X69427123Y-56273507D01*
X69373517Y-56320057D01*
X69321052Y-56331500D01*
X69070468Y-56331500D01*
X69008335Y-56312027D01*
X69007321Y-56313943D01*
X68862481Y-56237254D01*
X68862482Y-56237254D01*
X68855769Y-56233700D01*
X68838196Y-56229286D01*
X68696822Y-56193775D01*
X68696818Y-56193775D01*
X68689451Y-56191924D01*
X68681852Y-56191884D01*
X68681850Y-56191884D01*
X68610394Y-56191510D01*
X68517969Y-56191026D01*
X68510589Y-56192798D01*
X68510587Y-56192798D01*
X68358602Y-56229286D01*
X68358598Y-56229287D01*
X68351223Y-56231058D01*
X68198839Y-56309709D01*
X68069615Y-56422439D01*
X67971010Y-56562739D01*
X67908718Y-56722509D01*
X67886335Y-56892526D01*
X67905153Y-57062975D01*
X67964085Y-57224015D01*
X68059730Y-57366349D01*
X68186565Y-57481760D01*
X68337268Y-57563585D01*
X68503139Y-57607101D01*
X68590586Y-57608474D01*
X68667003Y-57609675D01*
X68667006Y-57609675D01*
X68674602Y-57609794D01*
X68682006Y-57608098D01*
X68682008Y-57608098D01*
X68744846Y-57593706D01*
X68841759Y-57571510D01*
X68994958Y-57494459D01*
X69000708Y-57489548D01*
X69070422Y-57468500D01*
X69322544Y-57468500D01*
X69390665Y-57488502D01*
X69437158Y-57542158D01*
X69448544Y-57594365D01*
X69450000Y-58950000D01*
X79875261Y-58950000D01*
X79943382Y-58970002D01*
X79989875Y-59023658D01*
X79999979Y-59093932D01*
X79970485Y-59158512D01*
X79964356Y-59165095D01*
X76746583Y-62382868D01*
X76686902Y-62416292D01*
X76653602Y-62424286D01*
X76653598Y-62424287D01*
X76646223Y-62426058D01*
X76493839Y-62504709D01*
X76364615Y-62617439D01*
X76266010Y-62757739D01*
X76203718Y-62917509D01*
X76181335Y-63087526D01*
X76200153Y-63257975D01*
X76202762Y-63265104D01*
X76203143Y-63266729D01*
X76199224Y-63337618D01*
X76157602Y-63395134D01*
X76091492Y-63421017D01*
X76080472Y-63421500D01*
X73846232Y-63421500D01*
X73787276Y-63406856D01*
X73705769Y-63363700D01*
X73695251Y-63361058D01*
X73546822Y-63323775D01*
X73546818Y-63323775D01*
X73539451Y-63321924D01*
X73531852Y-63321884D01*
X73531850Y-63321884D01*
X73460394Y-63321510D01*
X73367969Y-63321026D01*
X73360589Y-63322798D01*
X73360587Y-63322798D01*
X73208602Y-63359286D01*
X73208598Y-63359287D01*
X73201223Y-63361058D01*
X73048839Y-63439709D01*
X72919615Y-63552439D01*
X72821010Y-63692739D01*
X72818250Y-63699819D01*
X72763428Y-63840429D01*
X72758718Y-63852509D01*
X72757726Y-63860042D01*
X72757726Y-63860043D01*
X72737985Y-64009995D01*
X72736335Y-64022526D01*
X72755153Y-64192975D01*
X72757762Y-64200106D01*
X72757763Y-64200108D01*
X72761281Y-64209720D01*
X72814085Y-64354015D01*
X72909730Y-64496349D01*
X73036565Y-64611760D01*
X73187268Y-64693585D01*
X73353139Y-64737101D01*
X73440586Y-64738474D01*
X73517003Y-64739675D01*
X73517006Y-64739675D01*
X73524602Y-64739794D01*
X73532006Y-64738098D01*
X73532008Y-64738098D01*
X73594846Y-64723706D01*
X73691759Y-64701510D01*
X73790329Y-64651935D01*
X73846942Y-64638500D01*
X78411864Y-64638500D01*
X78428307Y-64639578D01*
X78460000Y-64643750D01*
X78468189Y-64642672D01*
X78499874Y-64638501D01*
X78499884Y-64638500D01*
X78499885Y-64638500D01*
X78599457Y-64625391D01*
X78610664Y-64623916D01*
X78610666Y-64623915D01*
X78618851Y-64622838D01*
X78766876Y-64561524D01*
X78862072Y-64488477D01*
X78862075Y-64488474D01*
X78893987Y-64463987D01*
X78899017Y-64457432D01*
X78913452Y-64438621D01*
X78924319Y-64426230D01*
X79542745Y-63807804D01*
X79603710Y-63774079D01*
X79629359Y-63768205D01*
X79629361Y-63768204D01*
X79636759Y-63766510D01*
X79789958Y-63689459D01*
X79795729Y-63684530D01*
X79795732Y-63684528D01*
X79914578Y-63583023D01*
X79920355Y-63578089D01*
X80020424Y-63438830D01*
X80084385Y-63279720D01*
X80108547Y-63109947D01*
X80108704Y-63095000D01*
X80104258Y-63058262D01*
X80089015Y-62932299D01*
X80089014Y-62932296D01*
X80088102Y-62924758D01*
X80027487Y-62764344D01*
X79930357Y-62623019D01*
X79924686Y-62617966D01*
X79807993Y-62513996D01*
X79807990Y-62513994D01*
X79802321Y-62508943D01*
X79794325Y-62504709D01*
X79657481Y-62432254D01*
X79657482Y-62432254D01*
X79650769Y-62428700D01*
X79633196Y-62424286D01*
X79491822Y-62388775D01*
X79491818Y-62388775D01*
X79484451Y-62386924D01*
X79476852Y-62386884D01*
X79476850Y-62386884D01*
X79405394Y-62386510D01*
X79312969Y-62386026D01*
X79305589Y-62387798D01*
X79305587Y-62387798D01*
X79153602Y-62424286D01*
X79153598Y-62424287D01*
X79146223Y-62426058D01*
X78993839Y-62504709D01*
X78864615Y-62617439D01*
X78766010Y-62757739D01*
X78728165Y-62854807D01*
X78708065Y-62906359D01*
X78679767Y-62949684D01*
X78244856Y-63384595D01*
X78182544Y-63418621D01*
X78155761Y-63421500D01*
X77733239Y-63421500D01*
X77665118Y-63401498D01*
X77618625Y-63347842D01*
X77608521Y-63277568D01*
X77638015Y-63212988D01*
X77644144Y-63206405D01*
X80880905Y-59969644D01*
X80943217Y-59935618D01*
X80970000Y-59932739D01*
X81912480Y-59932739D01*
X81980601Y-59952741D01*
X82027094Y-60006397D01*
X82038480Y-60058912D01*
X82001634Y-86946923D01*
X81981538Y-87015016D01*
X81927819Y-87061435D01*
X81875634Y-87072750D01*
X81485489Y-87072750D01*
X81417368Y-87052748D01*
X81396394Y-87035845D01*
X77913983Y-83553434D01*
X77885212Y-83508877D01*
X77835171Y-83376447D01*
X77832487Y-83369344D01*
X77735357Y-83228019D01*
X77729686Y-83222966D01*
X77612993Y-83118996D01*
X77612990Y-83118994D01*
X77607321Y-83113943D01*
X77599325Y-83109709D01*
X77462481Y-83037254D01*
X77462482Y-83037254D01*
X77455769Y-83033700D01*
X77438196Y-83029286D01*
X77296822Y-82993775D01*
X77296818Y-82993775D01*
X77289451Y-82991924D01*
X77281852Y-82991884D01*
X77281850Y-82991884D01*
X77210394Y-82991510D01*
X77117969Y-82991026D01*
X77110589Y-82992798D01*
X77110587Y-82992798D01*
X76958602Y-83029286D01*
X76958598Y-83029287D01*
X76951223Y-83031058D01*
X76798839Y-83109709D01*
X76669615Y-83222439D01*
X76571010Y-83362739D01*
X76508718Y-83522509D01*
X76507726Y-83530042D01*
X76507726Y-83530043D01*
X76504647Y-83553434D01*
X76486335Y-83692526D01*
X76505153Y-83862975D01*
X76564085Y-84024015D01*
X76659730Y-84166349D01*
X76786565Y-84281760D01*
X76937268Y-84363585D01*
X76993431Y-84378319D01*
X77050551Y-84411100D01*
X80716935Y-88077484D01*
X80727802Y-88089875D01*
X80747263Y-88115237D01*
X80753813Y-88120263D01*
X80779171Y-88139721D01*
X80779187Y-88139735D01*
X80828555Y-88177616D01*
X80874374Y-88212774D01*
X81022399Y-88274088D01*
X81030586Y-88275166D01*
X81030587Y-88275166D01*
X81041792Y-88276641D01*
X81065180Y-88279720D01*
X81141365Y-88289750D01*
X81141368Y-88289750D01*
X81141376Y-88289751D01*
X81173061Y-88293922D01*
X81181250Y-88295000D01*
X81189439Y-88293922D01*
X81212943Y-88290828D01*
X81229388Y-88289750D01*
X81873622Y-88289750D01*
X81941743Y-88309752D01*
X81988236Y-88363408D01*
X81999622Y-88415923D01*
X81999243Y-88692871D01*
X81998903Y-88940673D01*
X81978808Y-89008766D01*
X81925088Y-89055185D01*
X81872903Y-89066500D01*
X79398239Y-89066500D01*
X79330118Y-89046498D01*
X79283625Y-88992842D01*
X79273521Y-88922568D01*
X79303015Y-88857988D01*
X79309144Y-88851405D01*
X79352745Y-88807804D01*
X79413710Y-88774079D01*
X79439359Y-88768205D01*
X79439361Y-88768204D01*
X79446759Y-88766510D01*
X79599958Y-88689459D01*
X79605729Y-88684530D01*
X79605732Y-88684528D01*
X79724578Y-88583023D01*
X79730355Y-88578089D01*
X79830424Y-88438830D01*
X79894385Y-88279720D01*
X79903913Y-88212774D01*
X79917966Y-88114031D01*
X79917966Y-88114027D01*
X79918547Y-88109947D01*
X79918621Y-88102857D01*
X79918661Y-88099133D01*
X79918661Y-88099127D01*
X79918704Y-88095000D01*
X79905771Y-87988126D01*
X79899015Y-87932299D01*
X79899014Y-87932296D01*
X79898102Y-87924758D01*
X79837487Y-87764344D01*
X79740357Y-87623019D01*
X79734686Y-87617966D01*
X79617993Y-87513996D01*
X79617990Y-87513994D01*
X79612321Y-87508943D01*
X79604325Y-87504709D01*
X79482753Y-87440340D01*
X79460769Y-87428700D01*
X79404348Y-87414528D01*
X79301822Y-87388775D01*
X79301818Y-87388775D01*
X79294451Y-87386924D01*
X79286852Y-87386884D01*
X79286850Y-87386884D01*
X79215394Y-87386510D01*
X79122969Y-87386026D01*
X79115589Y-87387798D01*
X79115587Y-87387798D01*
X78963602Y-87424286D01*
X78963598Y-87424287D01*
X78956223Y-87426058D01*
X78803839Y-87504709D01*
X78674615Y-87617439D01*
X78576010Y-87757739D01*
X78564322Y-87787717D01*
X78518065Y-87906359D01*
X78489767Y-87949684D01*
X78059856Y-88379595D01*
X77997544Y-88413621D01*
X77970761Y-88416500D01*
X75241215Y-88416500D01*
X75173094Y-88396498D01*
X75126601Y-88342842D01*
X75116441Y-88272964D01*
X75137302Y-88124534D01*
X75137303Y-88124527D01*
X75137853Y-88120610D01*
X75138141Y-88100000D01*
X75119798Y-87936466D01*
X75113998Y-87919809D01*
X75067998Y-87787717D01*
X75065680Y-87781060D01*
X75055532Y-87764819D01*
X74982209Y-87647479D01*
X74978476Y-87641505D01*
X74920499Y-87583122D01*
X74867486Y-87529737D01*
X74867482Y-87529734D01*
X74862522Y-87524739D01*
X74723580Y-87436563D01*
X74625533Y-87401650D01*
X74575189Y-87383723D01*
X74575187Y-87383722D01*
X74568555Y-87381361D01*
X74561569Y-87380528D01*
X74561565Y-87380527D01*
X74447071Y-87366875D01*
X74405153Y-87361877D01*
X74398150Y-87362613D01*
X74398149Y-87362613D01*
X74354935Y-87367155D01*
X74241495Y-87379078D01*
X74234827Y-87381348D01*
X74092382Y-87429840D01*
X74092379Y-87429841D01*
X74085715Y-87432110D01*
X73945555Y-87518337D01*
X73827982Y-87633473D01*
X73738838Y-87771797D01*
X73736427Y-87778420D01*
X73736426Y-87778423D01*
X73684966Y-87919809D01*
X73684965Y-87919814D01*
X73682556Y-87926432D01*
X73661931Y-88089694D01*
X73666837Y-88139728D01*
X73670590Y-88178002D01*
X73657331Y-88247750D01*
X73608468Y-88299257D01*
X73544531Y-88316296D01*
X73541901Y-88316282D01*
X73492969Y-88316026D01*
X73485589Y-88317798D01*
X73485587Y-88317798D01*
X73333602Y-88354286D01*
X73333598Y-88354287D01*
X73326223Y-88356058D01*
X73173839Y-88434709D01*
X73044615Y-88547439D01*
X72946010Y-88687739D01*
X72883718Y-88847509D01*
X72882726Y-88855042D01*
X72882726Y-88855043D01*
X72864585Y-88992842D01*
X72861335Y-89017526D01*
X72880153Y-89187975D01*
X72890426Y-89216047D01*
X72895051Y-89286893D01*
X72878403Y-89324526D01*
X72878968Y-89324829D01*
X72875380Y-89331522D01*
X72871010Y-89337739D01*
X72808718Y-89497509D01*
X72807726Y-89505042D01*
X72807726Y-89505043D01*
X72793858Y-89610384D01*
X72786335Y-89667526D01*
X72805153Y-89837975D01*
X72864085Y-89999015D01*
X72959730Y-90141349D01*
X73086565Y-90256760D01*
X73237268Y-90338585D01*
X73403139Y-90382101D01*
X73490586Y-90383474D01*
X73567003Y-90384675D01*
X73567006Y-90384675D01*
X73574602Y-90384794D01*
X73582006Y-90383098D01*
X73582008Y-90383098D01*
X73695267Y-90357158D01*
X73741759Y-90346510D01*
X73840329Y-90296935D01*
X73896942Y-90283500D01*
X81870890Y-90283500D01*
X81939011Y-90303502D01*
X81985504Y-90357158D01*
X81996890Y-90409672D01*
X81976183Y-105520318D01*
X81920173Y-146393486D01*
X81900077Y-146461579D01*
X81846358Y-146507998D01*
X81793488Y-146519311D01*
X71197091Y-146461579D01*
X61855223Y-146410682D01*
X61787212Y-146390309D01*
X61741012Y-146336401D01*
X61729909Y-146284775D01*
X61729801Y-146134675D01*
X61729282Y-145417526D01*
X76261335Y-145417526D01*
X76280153Y-145587975D01*
X76282762Y-145595106D01*
X76282763Y-145595108D01*
X76290688Y-145616764D01*
X76339085Y-145749015D01*
X76434730Y-145891349D01*
X76561565Y-146006760D01*
X76712268Y-146088585D01*
X76878139Y-146132101D01*
X76965586Y-146133474D01*
X77042003Y-146134675D01*
X77042006Y-146134675D01*
X77049602Y-146134794D01*
X77057006Y-146133098D01*
X77057008Y-146133098D01*
X77119846Y-146118706D01*
X77216759Y-146096510D01*
X77369958Y-146019459D01*
X77375729Y-146014530D01*
X77375732Y-146014528D01*
X77494578Y-145913023D01*
X77500355Y-145908089D01*
X77600424Y-145768830D01*
X77664385Y-145609720D01*
X77688547Y-145439947D01*
X77688704Y-145425000D01*
X77668102Y-145254758D01*
X77607487Y-145094344D01*
X77510357Y-144953019D01*
X77504686Y-144947966D01*
X77387993Y-144843996D01*
X77387990Y-144843994D01*
X77382321Y-144838943D01*
X77374325Y-144834709D01*
X77237481Y-144762254D01*
X77237482Y-144762254D01*
X77230769Y-144758700D01*
X77213196Y-144754286D01*
X77071822Y-144718775D01*
X77071818Y-144718775D01*
X77064451Y-144716924D01*
X77056852Y-144716884D01*
X77056850Y-144716884D01*
X76985394Y-144716510D01*
X76892969Y-144716026D01*
X76885589Y-144717798D01*
X76885587Y-144717798D01*
X76733602Y-144754286D01*
X76733598Y-144754287D01*
X76726223Y-144756058D01*
X76573839Y-144834709D01*
X76444615Y-144947439D01*
X76346010Y-145087739D01*
X76283718Y-145247509D01*
X76261335Y-145417526D01*
X61729282Y-145417526D01*
X61728644Y-144535684D01*
X61748597Y-144467550D01*
X61802219Y-144421018D01*
X61815703Y-144415763D01*
X61883354Y-144393782D01*
X61950730Y-144371890D01*
X61950733Y-144371889D01*
X61957429Y-144369713D01*
X62034497Y-144323771D01*
X62099015Y-144306000D01*
X66250178Y-144306000D01*
X66319171Y-144326568D01*
X66364689Y-144356354D01*
X66518928Y-144413715D01*
X66525909Y-144414646D01*
X66525911Y-144414647D01*
X66675061Y-144434548D01*
X66675065Y-144434548D01*
X66682042Y-144435479D01*
X66689053Y-144434841D01*
X66689057Y-144434841D01*
X66838903Y-144421204D01*
X66838904Y-144421204D01*
X66845924Y-144420565D01*
X66874562Y-144411260D01*
X66995730Y-144371890D01*
X66995733Y-144371889D01*
X67002429Y-144369713D01*
X67143779Y-144285451D01*
X67262949Y-144171968D01*
X67354015Y-144034903D01*
X67412451Y-143881068D01*
X67435353Y-143718110D01*
X67435641Y-143697500D01*
X67417298Y-143533966D01*
X67363180Y-143378560D01*
X67275976Y-143239005D01*
X67217999Y-143180622D01*
X67164986Y-143127237D01*
X67164982Y-143127234D01*
X67160022Y-143122239D01*
X67021080Y-143034063D01*
X66971947Y-143016568D01*
X66872689Y-142981223D01*
X66872687Y-142981222D01*
X66866055Y-142978861D01*
X66859069Y-142978028D01*
X66859065Y-142978027D01*
X66744571Y-142964375D01*
X66702653Y-142959377D01*
X66695650Y-142960113D01*
X66695649Y-142960113D01*
X66652435Y-142964655D01*
X66538995Y-142976578D01*
X66532327Y-142978848D01*
X66389882Y-143027340D01*
X66389879Y-143027341D01*
X66383215Y-143029610D01*
X66327748Y-143063734D01*
X66317045Y-143070318D01*
X66251023Y-143089000D01*
X62099253Y-143089000D01*
X62031738Y-143069385D01*
X61976080Y-143034063D01*
X61938225Y-143020584D01*
X61827695Y-142981225D01*
X61827692Y-142981224D01*
X61821055Y-142978861D01*
X61821171Y-142978535D01*
X61762905Y-142945483D01*
X61729893Y-142882628D01*
X61727431Y-142857933D01*
X61725753Y-140538313D01*
X61745706Y-140470178D01*
X61799328Y-140423646D01*
X61812816Y-140418389D01*
X61948232Y-140374389D01*
X61954929Y-140372213D01*
X62096279Y-140287951D01*
X62215449Y-140174468D01*
X62306515Y-140037403D01*
X62321663Y-139997526D01*
X67091335Y-139997526D01*
X67095010Y-140030813D01*
X67108210Y-140150373D01*
X67110153Y-140167975D01*
X67112762Y-140175106D01*
X67112763Y-140175108D01*
X67120688Y-140196764D01*
X67169085Y-140329015D01*
X67264730Y-140471349D01*
X67391565Y-140586760D01*
X67542268Y-140668585D01*
X67708139Y-140712101D01*
X67795586Y-140713474D01*
X67872003Y-140714675D01*
X67872006Y-140714675D01*
X67879602Y-140714794D01*
X67887006Y-140713098D01*
X67887008Y-140713098D01*
X67949846Y-140698706D01*
X68046759Y-140676510D01*
X68199958Y-140599459D01*
X68205729Y-140594530D01*
X68205732Y-140594528D01*
X68324578Y-140493023D01*
X68330355Y-140488089D01*
X68430424Y-140348830D01*
X68494385Y-140189720D01*
X68518547Y-140019947D01*
X68518704Y-140005000D01*
X68517800Y-139997526D01*
X70691335Y-139997526D01*
X70695010Y-140030813D01*
X70708210Y-140150373D01*
X70710153Y-140167975D01*
X70712762Y-140175106D01*
X70712763Y-140175108D01*
X70720688Y-140196764D01*
X70769085Y-140329015D01*
X70864730Y-140471349D01*
X70991565Y-140586760D01*
X71142268Y-140668585D01*
X71308139Y-140712101D01*
X71395586Y-140713474D01*
X71472003Y-140714675D01*
X71472006Y-140714675D01*
X71479602Y-140714794D01*
X71487006Y-140713098D01*
X71487008Y-140713098D01*
X71549846Y-140698706D01*
X71646759Y-140676510D01*
X71799958Y-140599459D01*
X71805729Y-140594530D01*
X71805732Y-140594528D01*
X71924578Y-140493023D01*
X71930355Y-140488089D01*
X72030424Y-140348830D01*
X72094385Y-140189720D01*
X72118547Y-140019947D01*
X72118704Y-140005000D01*
X72103165Y-139876593D01*
X72099015Y-139842299D01*
X72099014Y-139842296D01*
X72098102Y-139834758D01*
X72079223Y-139784794D01*
X72040171Y-139681447D01*
X72037487Y-139674344D01*
X71949594Y-139546459D01*
X71944659Y-139539278D01*
X71944658Y-139539276D01*
X71940357Y-139533019D01*
X71934686Y-139527966D01*
X71817993Y-139423996D01*
X71817990Y-139423994D01*
X71812321Y-139418943D01*
X71804325Y-139414709D01*
X71667481Y-139342254D01*
X71667482Y-139342254D01*
X71660769Y-139338700D01*
X71599081Y-139323205D01*
X71501822Y-139298775D01*
X71501818Y-139298775D01*
X71494451Y-139296924D01*
X71486852Y-139296884D01*
X71486850Y-139296884D01*
X71415394Y-139296510D01*
X71322969Y-139296026D01*
X71315589Y-139297798D01*
X71315587Y-139297798D01*
X71163602Y-139334286D01*
X71163598Y-139334287D01*
X71156223Y-139336058D01*
X71003839Y-139414709D01*
X70874615Y-139527439D01*
X70776010Y-139667739D01*
X70749801Y-139734962D01*
X70731376Y-139782220D01*
X70713718Y-139827509D01*
X70712726Y-139835042D01*
X70712726Y-139835043D01*
X70705471Y-139890154D01*
X70691335Y-139997526D01*
X68517800Y-139997526D01*
X68503165Y-139876593D01*
X68499015Y-139842299D01*
X68499014Y-139842296D01*
X68498102Y-139834758D01*
X68479223Y-139784794D01*
X68440171Y-139681447D01*
X68437487Y-139674344D01*
X68349594Y-139546459D01*
X68344659Y-139539278D01*
X68344658Y-139539276D01*
X68340357Y-139533019D01*
X68334686Y-139527966D01*
X68217993Y-139423996D01*
X68217990Y-139423994D01*
X68212321Y-139418943D01*
X68204325Y-139414709D01*
X68067481Y-139342254D01*
X68067482Y-139342254D01*
X68060769Y-139338700D01*
X67999081Y-139323205D01*
X67901822Y-139298775D01*
X67901818Y-139298775D01*
X67894451Y-139296924D01*
X67886852Y-139296884D01*
X67886850Y-139296884D01*
X67815394Y-139296510D01*
X67722969Y-139296026D01*
X67715589Y-139297798D01*
X67715587Y-139297798D01*
X67563602Y-139334286D01*
X67563598Y-139334287D01*
X67556223Y-139336058D01*
X67403839Y-139414709D01*
X67274615Y-139527439D01*
X67176010Y-139667739D01*
X67149801Y-139734962D01*
X67131376Y-139782220D01*
X67113718Y-139827509D01*
X67112726Y-139835042D01*
X67112726Y-139835043D01*
X67105471Y-139890154D01*
X67091335Y-139997526D01*
X62321663Y-139997526D01*
X62364951Y-139883568D01*
X62378833Y-139784794D01*
X62387302Y-139724534D01*
X62387303Y-139724527D01*
X62387853Y-139720610D01*
X62388141Y-139700000D01*
X62369798Y-139536466D01*
X62366655Y-139527439D01*
X62327398Y-139414709D01*
X62315680Y-139381060D01*
X62302392Y-139359794D01*
X62232209Y-139247479D01*
X62228476Y-139241505D01*
X62125714Y-139138023D01*
X62117486Y-139129737D01*
X62117482Y-139129734D01*
X62112522Y-139124739D01*
X61973580Y-139036563D01*
X61818555Y-138981361D01*
X61818632Y-138981144D01*
X61760012Y-138947891D01*
X61727001Y-138885036D01*
X61724539Y-138860341D01*
X61724381Y-138642526D01*
X73536335Y-138642526D01*
X73555153Y-138812975D01*
X73557762Y-138820106D01*
X73557763Y-138820108D01*
X73565688Y-138841764D01*
X73614085Y-138974015D01*
X73618322Y-138980321D01*
X73618324Y-138980324D01*
X73656116Y-139036563D01*
X73709730Y-139116349D01*
X73836565Y-139231760D01*
X73987268Y-139313585D01*
X74153139Y-139357101D01*
X74240586Y-139358474D01*
X74317003Y-139359675D01*
X74317006Y-139359675D01*
X74324602Y-139359794D01*
X74332006Y-139358098D01*
X74332008Y-139358098D01*
X74428239Y-139336058D01*
X74491759Y-139321510D01*
X74644958Y-139244459D01*
X74650729Y-139239530D01*
X74650732Y-139239528D01*
X74769578Y-139138023D01*
X74775355Y-139133089D01*
X74822467Y-139067526D01*
X78511335Y-139067526D01*
X78517892Y-139126919D01*
X78528903Y-139226650D01*
X78530153Y-139237975D01*
X78532762Y-139245106D01*
X78532763Y-139245108D01*
X78555802Y-139308064D01*
X78589085Y-139399015D01*
X78593322Y-139405321D01*
X78593324Y-139405324D01*
X78606545Y-139424998D01*
X78684730Y-139541349D01*
X78811565Y-139656760D01*
X78962268Y-139738585D01*
X79128139Y-139782101D01*
X79215586Y-139783474D01*
X79292003Y-139784675D01*
X79292006Y-139784675D01*
X79299602Y-139784794D01*
X79307006Y-139783098D01*
X79307008Y-139783098D01*
X79369846Y-139768706D01*
X79466759Y-139746510D01*
X79619958Y-139669459D01*
X79625729Y-139664530D01*
X79625732Y-139664528D01*
X79744578Y-139563023D01*
X79750355Y-139558089D01*
X79850424Y-139418830D01*
X79914385Y-139259720D01*
X79917689Y-139236507D01*
X79937966Y-139094031D01*
X79937966Y-139094027D01*
X79938547Y-139089947D01*
X79938704Y-139075000D01*
X79928029Y-138986785D01*
X79919015Y-138912299D01*
X79919014Y-138912296D01*
X79918102Y-138904758D01*
X79901319Y-138860341D01*
X79860171Y-138751447D01*
X79857487Y-138744344D01*
X79795487Y-138654133D01*
X79764659Y-138609278D01*
X79764658Y-138609276D01*
X79760357Y-138603019D01*
X79754686Y-138597966D01*
X79637993Y-138493996D01*
X79637990Y-138493994D01*
X79632321Y-138488943D01*
X79624325Y-138484709D01*
X79487481Y-138412254D01*
X79487482Y-138412254D01*
X79480769Y-138408700D01*
X79424348Y-138394528D01*
X79321822Y-138368775D01*
X79321818Y-138368775D01*
X79314451Y-138366924D01*
X79306852Y-138366884D01*
X79306850Y-138366884D01*
X79235394Y-138366510D01*
X79142969Y-138366026D01*
X79135589Y-138367798D01*
X79135587Y-138367798D01*
X78983602Y-138404286D01*
X78983598Y-138404287D01*
X78976223Y-138406058D01*
X78823839Y-138484709D01*
X78694615Y-138597439D01*
X78596010Y-138737739D01*
X78569620Y-138805425D01*
X78558199Y-138834720D01*
X78533718Y-138897509D01*
X78532726Y-138905042D01*
X78532726Y-138905043D01*
X78515723Y-139034198D01*
X78511335Y-139067526D01*
X74822467Y-139067526D01*
X74875424Y-138993830D01*
X74939385Y-138834720D01*
X74943554Y-138805425D01*
X74962966Y-138669031D01*
X74962966Y-138669027D01*
X74963547Y-138664947D01*
X74963704Y-138650000D01*
X74947137Y-138513098D01*
X74944015Y-138487299D01*
X74944014Y-138487296D01*
X74943102Y-138479758D01*
X74910897Y-138394528D01*
X74885171Y-138326447D01*
X74882487Y-138319344D01*
X74785357Y-138178019D01*
X74779686Y-138172966D01*
X74662993Y-138068996D01*
X74662990Y-138068994D01*
X74657321Y-138063943D01*
X74649325Y-138059709D01*
X74530442Y-137996764D01*
X74505769Y-137983700D01*
X74471563Y-137975108D01*
X74346822Y-137943775D01*
X74346818Y-137943775D01*
X74339451Y-137941924D01*
X74331852Y-137941884D01*
X74331850Y-137941884D01*
X74260394Y-137941510D01*
X74167969Y-137941026D01*
X74160589Y-137942798D01*
X74160587Y-137942798D01*
X74008602Y-137979286D01*
X74008598Y-137979287D01*
X74001223Y-137981058D01*
X73848839Y-138059709D01*
X73719615Y-138172439D01*
X73621010Y-138312739D01*
X73594143Y-138381650D01*
X73582211Y-138412254D01*
X73558718Y-138472509D01*
X73557726Y-138480042D01*
X73557726Y-138480043D01*
X73541453Y-138603653D01*
X73536335Y-138642526D01*
X61724381Y-138642526D01*
X61723770Y-137797526D01*
X76281335Y-137797526D01*
X76290744Y-137882750D01*
X76297178Y-137941026D01*
X76300153Y-137967975D01*
X76302762Y-137975106D01*
X76302763Y-137975108D01*
X76310688Y-137996764D01*
X76359085Y-138129015D01*
X76363322Y-138135321D01*
X76363324Y-138135324D01*
X76396220Y-138184278D01*
X76454730Y-138271349D01*
X76493386Y-138306523D01*
X76559766Y-138366924D01*
X76581565Y-138386760D01*
X76732268Y-138468585D01*
X76898139Y-138512101D01*
X76985586Y-138513474D01*
X77062003Y-138514675D01*
X77062006Y-138514675D01*
X77069602Y-138514794D01*
X77077006Y-138513098D01*
X77077008Y-138513098D01*
X77179177Y-138489698D01*
X77236759Y-138476510D01*
X77389958Y-138399459D01*
X77395729Y-138394530D01*
X77395732Y-138394528D01*
X77514578Y-138293023D01*
X77520355Y-138288089D01*
X77620424Y-138148830D01*
X77684385Y-137989720D01*
X77691193Y-137941884D01*
X77707966Y-137824031D01*
X77707966Y-137824027D01*
X77708547Y-137819947D01*
X77708704Y-137805000D01*
X77688102Y-137634758D01*
X77627487Y-137474344D01*
X77530357Y-137333019D01*
X77524686Y-137327966D01*
X77407993Y-137223996D01*
X77407990Y-137223994D01*
X77402321Y-137218943D01*
X77394325Y-137214709D01*
X77257481Y-137142254D01*
X77257482Y-137142254D01*
X77250769Y-137138700D01*
X77233196Y-137134286D01*
X77091822Y-137098775D01*
X77091818Y-137098775D01*
X77084451Y-137096924D01*
X77076852Y-137096884D01*
X77076850Y-137096884D01*
X77005394Y-137096510D01*
X76912969Y-137096026D01*
X76905589Y-137097798D01*
X76905587Y-137097798D01*
X76753602Y-137134286D01*
X76753598Y-137134287D01*
X76746223Y-137136058D01*
X76593839Y-137214709D01*
X76464615Y-137327439D01*
X76366010Y-137467739D01*
X76303718Y-137627509D01*
X76281335Y-137797526D01*
X61723770Y-137797526D01*
X61719738Y-132222333D01*
X61739691Y-132154198D01*
X61793313Y-132107666D01*
X61806802Y-132102409D01*
X61900730Y-132071890D01*
X61900733Y-132071889D01*
X61907429Y-132069713D01*
X61984497Y-132023771D01*
X62049015Y-132006000D01*
X66250178Y-132006000D01*
X66319171Y-132026568D01*
X66364689Y-132056354D01*
X66518928Y-132113715D01*
X66525909Y-132114646D01*
X66525911Y-132114647D01*
X66675061Y-132134548D01*
X66675065Y-132134548D01*
X66682042Y-132135479D01*
X66689053Y-132134841D01*
X66689057Y-132134841D01*
X66838903Y-132121204D01*
X66838904Y-132121204D01*
X66845924Y-132120565D01*
X66901802Y-132102409D01*
X66995730Y-132071890D01*
X66995733Y-132071889D01*
X67002429Y-132069713D01*
X67143779Y-131985451D01*
X67262949Y-131871968D01*
X67354015Y-131734903D01*
X67412451Y-131581068D01*
X67435353Y-131418110D01*
X67435641Y-131397500D01*
X67417298Y-131233966D01*
X67363180Y-131078560D01*
X67275976Y-130939005D01*
X67197563Y-130860043D01*
X67164986Y-130827237D01*
X67164982Y-130827234D01*
X67160022Y-130822239D01*
X67021080Y-130734063D01*
X66971947Y-130716568D01*
X66872689Y-130681223D01*
X66872687Y-130681222D01*
X66866055Y-130678861D01*
X66859069Y-130678028D01*
X66859065Y-130678027D01*
X66744571Y-130664375D01*
X66702653Y-130659377D01*
X66695650Y-130660113D01*
X66695649Y-130660113D01*
X66652435Y-130664655D01*
X66538995Y-130676578D01*
X66532327Y-130678848D01*
X66389882Y-130727340D01*
X66389879Y-130727341D01*
X66383215Y-130729610D01*
X66360101Y-130743830D01*
X66317045Y-130770318D01*
X66251023Y-130789000D01*
X62049253Y-130789000D01*
X61981738Y-130769385D01*
X61941470Y-130743830D01*
X61926080Y-130734063D01*
X61877822Y-130716879D01*
X61802276Y-130689978D01*
X61744812Y-130648284D01*
X61719012Y-130582141D01*
X61718543Y-130571370D01*
X61718414Y-130392526D01*
X78586335Y-130392526D01*
X78605153Y-130562975D01*
X78607762Y-130570106D01*
X78607763Y-130570108D01*
X78615688Y-130591764D01*
X78664085Y-130724015D01*
X78668322Y-130730321D01*
X78668324Y-130730324D01*
X78695199Y-130770318D01*
X78759730Y-130866349D01*
X78886565Y-130981760D01*
X79037268Y-131063585D01*
X79203139Y-131107101D01*
X79290586Y-131108474D01*
X79367003Y-131109675D01*
X79367006Y-131109675D01*
X79374602Y-131109794D01*
X79382006Y-131108098D01*
X79382008Y-131108098D01*
X79444846Y-131093706D01*
X79541759Y-131071510D01*
X79694958Y-130994459D01*
X79700729Y-130989530D01*
X79700732Y-130989528D01*
X79819578Y-130888023D01*
X79825355Y-130883089D01*
X79925424Y-130743830D01*
X79989385Y-130584720D01*
X80013547Y-130414947D01*
X80013704Y-130400000D01*
X79993102Y-130229758D01*
X79932487Y-130069344D01*
X79835357Y-129928019D01*
X79829686Y-129922966D01*
X79712993Y-129818996D01*
X79712990Y-129818994D01*
X79707321Y-129813943D01*
X79699325Y-129809709D01*
X79562481Y-129737254D01*
X79562482Y-129737254D01*
X79555769Y-129733700D01*
X79538196Y-129729286D01*
X79396822Y-129693775D01*
X79396818Y-129693775D01*
X79389451Y-129691924D01*
X79381852Y-129691884D01*
X79381850Y-129691884D01*
X79310394Y-129691510D01*
X79217969Y-129691026D01*
X79210589Y-129692798D01*
X79210587Y-129692798D01*
X79058602Y-129729286D01*
X79058598Y-129729287D01*
X79051223Y-129731058D01*
X78898839Y-129809709D01*
X78769615Y-129922439D01*
X78671010Y-130062739D01*
X78608718Y-130222509D01*
X78586335Y-130392526D01*
X61718414Y-130392526D01*
X61716629Y-127925031D01*
X61736582Y-127856896D01*
X61790204Y-127810364D01*
X61803689Y-127805108D01*
X61904929Y-127772213D01*
X62046279Y-127687951D01*
X62165449Y-127574468D01*
X62181458Y-127550373D01*
X62216570Y-127497526D01*
X67001335Y-127497526D01*
X67020153Y-127667975D01*
X67022762Y-127675106D01*
X67022763Y-127675108D01*
X67028782Y-127691555D01*
X67079085Y-127829015D01*
X67083322Y-127835321D01*
X67083324Y-127835324D01*
X67087666Y-127841785D01*
X67174730Y-127971349D01*
X67301565Y-128086760D01*
X67452268Y-128168585D01*
X67618139Y-128212101D01*
X67705586Y-128213474D01*
X67782003Y-128214675D01*
X67782006Y-128214675D01*
X67789602Y-128214794D01*
X67797006Y-128213098D01*
X67797008Y-128213098D01*
X67859846Y-128198706D01*
X67956759Y-128176510D01*
X68109958Y-128099459D01*
X68115729Y-128094530D01*
X68115732Y-128094528D01*
X68234578Y-127993023D01*
X68240355Y-127988089D01*
X68340424Y-127848830D01*
X68404385Y-127689720D01*
X68428547Y-127519947D01*
X68428704Y-127505000D01*
X68410741Y-127356566D01*
X68409015Y-127342299D01*
X68409014Y-127342296D01*
X68408102Y-127334758D01*
X68401922Y-127318401D01*
X68350171Y-127181447D01*
X68347487Y-127174344D01*
X68320388Y-127134914D01*
X68254659Y-127039278D01*
X68254658Y-127039276D01*
X68250357Y-127033019D01*
X68244686Y-127027966D01*
X68127993Y-126923996D01*
X68127990Y-126923994D01*
X68122321Y-126918943D01*
X68114325Y-126914709D01*
X67977481Y-126842254D01*
X67977482Y-126842254D01*
X67970769Y-126838700D01*
X67953196Y-126834286D01*
X67811822Y-126798775D01*
X67811818Y-126798775D01*
X67804451Y-126796924D01*
X67796852Y-126796884D01*
X67796850Y-126796884D01*
X67725394Y-126796510D01*
X67632969Y-126796026D01*
X67625589Y-126797798D01*
X67625587Y-126797798D01*
X67473602Y-126834286D01*
X67473598Y-126834287D01*
X67466223Y-126836058D01*
X67313839Y-126914709D01*
X67184615Y-127027439D01*
X67086010Y-127167739D01*
X67064254Y-127223541D01*
X67041376Y-127282220D01*
X67023718Y-127327509D01*
X67022726Y-127335042D01*
X67022726Y-127335043D01*
X67012909Y-127409615D01*
X67001335Y-127497526D01*
X62216570Y-127497526D01*
X62252614Y-127443275D01*
X62252615Y-127443273D01*
X62256515Y-127437403D01*
X62314951Y-127283568D01*
X62330301Y-127174344D01*
X62337302Y-127124534D01*
X62337303Y-127124527D01*
X62337853Y-127120610D01*
X62338141Y-127100000D01*
X62319798Y-126936466D01*
X62315805Y-126924998D01*
X62286990Y-126842254D01*
X62265680Y-126781060D01*
X62247648Y-126752202D01*
X62182209Y-126647479D01*
X62178476Y-126641505D01*
X62112509Y-126575076D01*
X62067486Y-126529737D01*
X62067482Y-126529734D01*
X62062522Y-126524739D01*
X61923580Y-126436563D01*
X61835062Y-126405043D01*
X61799167Y-126392261D01*
X61741703Y-126350567D01*
X61715903Y-126284424D01*
X61715434Y-126273653D01*
X61715367Y-126180318D01*
X61715123Y-125842526D01*
X73236335Y-125842526D01*
X73245744Y-125927750D01*
X73252500Y-125988943D01*
X73255153Y-126012975D01*
X73257762Y-126020106D01*
X73257763Y-126020108D01*
X73265688Y-126041764D01*
X73314085Y-126174015D01*
X73376504Y-126266904D01*
X73397896Y-126334600D01*
X73389315Y-126382949D01*
X73368412Y-126436563D01*
X73355609Y-126469400D01*
X73354617Y-126476933D01*
X73354617Y-126476934D01*
X73339739Y-126589947D01*
X73333226Y-126639417D01*
X73342635Y-126724642D01*
X73350820Y-126798775D01*
X73352044Y-126809866D01*
X73354653Y-126816997D01*
X73354654Y-126816999D01*
X73362579Y-126838655D01*
X73410976Y-126970906D01*
X73415213Y-126977212D01*
X73415215Y-126977215D01*
X73456920Y-127039278D01*
X73506621Y-127113240D01*
X73633456Y-127228651D01*
X73784159Y-127310476D01*
X73950030Y-127353992D01*
X74037477Y-127355365D01*
X74113894Y-127356566D01*
X74113897Y-127356566D01*
X74121493Y-127356685D01*
X74128897Y-127354989D01*
X74128899Y-127354989D01*
X74217231Y-127334758D01*
X74288650Y-127318401D01*
X74441849Y-127241350D01*
X74447620Y-127236421D01*
X74447623Y-127236419D01*
X74566469Y-127134914D01*
X74572246Y-127129980D01*
X74672315Y-126990721D01*
X74736276Y-126831611D01*
X74741335Y-126796066D01*
X74759857Y-126665922D01*
X74759857Y-126665918D01*
X74760438Y-126661838D01*
X74760595Y-126646891D01*
X74750990Y-126567526D01*
X77886335Y-126567526D01*
X77905153Y-126737975D01*
X77907762Y-126745106D01*
X77907763Y-126745108D01*
X77928698Y-126802316D01*
X77964085Y-126899015D01*
X77968322Y-126905321D01*
X77968324Y-126905324D01*
X77984780Y-126929812D01*
X78059730Y-127041349D01*
X78112860Y-127089694D01*
X78162557Y-127134914D01*
X78186565Y-127156760D01*
X78337268Y-127238585D01*
X78503139Y-127282101D01*
X78590586Y-127283474D01*
X78667003Y-127284675D01*
X78667006Y-127284675D01*
X78674602Y-127284794D01*
X78682006Y-127283098D01*
X78682008Y-127283098D01*
X78744846Y-127268706D01*
X78841759Y-127246510D01*
X78994958Y-127169459D01*
X79000729Y-127164530D01*
X79000732Y-127164528D01*
X79119578Y-127063023D01*
X79125355Y-127058089D01*
X79217533Y-126929812D01*
X79220992Y-126924998D01*
X79220993Y-126924997D01*
X79225424Y-126918830D01*
X79289385Y-126759720D01*
X79306209Y-126641505D01*
X79312966Y-126594031D01*
X79312966Y-126594027D01*
X79313547Y-126589947D01*
X79313704Y-126575000D01*
X79302715Y-126484190D01*
X79294015Y-126412299D01*
X79294014Y-126412296D01*
X79293102Y-126404758D01*
X79283399Y-126379078D01*
X79235171Y-126251447D01*
X79232487Y-126244344D01*
X79206239Y-126206153D01*
X79184139Y-126138684D01*
X79202024Y-126069977D01*
X79254216Y-126021846D01*
X79281948Y-126011966D01*
X79382474Y-125988943D01*
X79429359Y-125978205D01*
X79429360Y-125978205D01*
X79436759Y-125976510D01*
X79589958Y-125899459D01*
X79595729Y-125894530D01*
X79595732Y-125894528D01*
X79714578Y-125793023D01*
X79720355Y-125788089D01*
X79820424Y-125648830D01*
X79884385Y-125489720D01*
X79888554Y-125460425D01*
X79907966Y-125324031D01*
X79907966Y-125324027D01*
X79908547Y-125319947D01*
X79908704Y-125305000D01*
X79894455Y-125187254D01*
X79889015Y-125142299D01*
X79889014Y-125142296D01*
X79888102Y-125134758D01*
X79827487Y-124974344D01*
X79730357Y-124833019D01*
X79724686Y-124827966D01*
X79607993Y-124723996D01*
X79607990Y-124723994D01*
X79602321Y-124718943D01*
X79594325Y-124714709D01*
X79457481Y-124642254D01*
X79457482Y-124642254D01*
X79450769Y-124638700D01*
X79433196Y-124634286D01*
X79291822Y-124598775D01*
X79291818Y-124598775D01*
X79284451Y-124596924D01*
X79276852Y-124596884D01*
X79276850Y-124596884D01*
X79205394Y-124596510D01*
X79112969Y-124596026D01*
X79105589Y-124597798D01*
X79105587Y-124597798D01*
X78953602Y-124634286D01*
X78953598Y-124634287D01*
X78946223Y-124636058D01*
X78793839Y-124714709D01*
X78664615Y-124827439D01*
X78566010Y-124967739D01*
X78503718Y-125127509D01*
X78502726Y-125135042D01*
X78502726Y-125135043D01*
X78485657Y-125264698D01*
X78481335Y-125297526D01*
X78500153Y-125467975D01*
X78502762Y-125475106D01*
X78502763Y-125475108D01*
X78510688Y-125496764D01*
X78559085Y-125629015D01*
X78563322Y-125635321D01*
X78563324Y-125635324D01*
X78589400Y-125674128D01*
X78610793Y-125741825D01*
X78592189Y-125810341D01*
X78539497Y-125857922D01*
X78514233Y-125866923D01*
X78358602Y-125904286D01*
X78358598Y-125904287D01*
X78351223Y-125906058D01*
X78198839Y-125984709D01*
X78069615Y-126097439D01*
X77971010Y-126237739D01*
X77957008Y-126273653D01*
X77914395Y-126382949D01*
X77908718Y-126397509D01*
X77907726Y-126405042D01*
X77907726Y-126405043D01*
X77892465Y-126520965D01*
X77886335Y-126567526D01*
X74750990Y-126567526D01*
X74750079Y-126559995D01*
X74740906Y-126484190D01*
X74740905Y-126484187D01*
X74739993Y-126476649D01*
X74715678Y-126412299D01*
X74682062Y-126323338D01*
X74679378Y-126316235D01*
X74645473Y-126266903D01*
X74621008Y-126231306D01*
X74598908Y-126163837D01*
X74607940Y-126112943D01*
X74636553Y-126041764D01*
X74639385Y-126034720D01*
X74647428Y-125978205D01*
X74662966Y-125869031D01*
X74662966Y-125869027D01*
X74663547Y-125864947D01*
X74663704Y-125850000D01*
X74643102Y-125679758D01*
X74631416Y-125648830D01*
X74585171Y-125526447D01*
X74582487Y-125519344D01*
X74556960Y-125482202D01*
X74489659Y-125384278D01*
X74489658Y-125384276D01*
X74485357Y-125378019D01*
X74479686Y-125372966D01*
X74395014Y-125297526D01*
X76181335Y-125297526D01*
X76200153Y-125467975D01*
X76202762Y-125475106D01*
X76202763Y-125475108D01*
X76210688Y-125496764D01*
X76259085Y-125629015D01*
X76263322Y-125635321D01*
X76263324Y-125635324D01*
X76298250Y-125687299D01*
X76354730Y-125771349D01*
X76397582Y-125810341D01*
X76459766Y-125866924D01*
X76481565Y-125886760D01*
X76632268Y-125968585D01*
X76798139Y-126012101D01*
X76885586Y-126013474D01*
X76962003Y-126014675D01*
X76962006Y-126014675D01*
X76969602Y-126014794D01*
X76977006Y-126013098D01*
X76977008Y-126013098D01*
X77079177Y-125989698D01*
X77136759Y-125976510D01*
X77289958Y-125899459D01*
X77295729Y-125894530D01*
X77295732Y-125894528D01*
X77414578Y-125793023D01*
X77420355Y-125788089D01*
X77520424Y-125648830D01*
X77584385Y-125489720D01*
X77588554Y-125460425D01*
X77607966Y-125324031D01*
X77607966Y-125324027D01*
X77608547Y-125319947D01*
X77608704Y-125305000D01*
X77594455Y-125187254D01*
X77589015Y-125142299D01*
X77589014Y-125142296D01*
X77588102Y-125134758D01*
X77527487Y-124974344D01*
X77430357Y-124833019D01*
X77424686Y-124827966D01*
X77307993Y-124723996D01*
X77307990Y-124723994D01*
X77302321Y-124718943D01*
X77294325Y-124714709D01*
X77157481Y-124642254D01*
X77157482Y-124642254D01*
X77150769Y-124638700D01*
X77133196Y-124634286D01*
X76991822Y-124598775D01*
X76991818Y-124598775D01*
X76984451Y-124596924D01*
X76976852Y-124596884D01*
X76976850Y-124596884D01*
X76905394Y-124596510D01*
X76812969Y-124596026D01*
X76805589Y-124597798D01*
X76805587Y-124597798D01*
X76653602Y-124634286D01*
X76653598Y-124634287D01*
X76646223Y-124636058D01*
X76493839Y-124714709D01*
X76364615Y-124827439D01*
X76266010Y-124967739D01*
X76203718Y-125127509D01*
X76202726Y-125135042D01*
X76202726Y-125135043D01*
X76185657Y-125264698D01*
X76181335Y-125297526D01*
X74395014Y-125297526D01*
X74362993Y-125268996D01*
X74362990Y-125268994D01*
X74357321Y-125263943D01*
X74349325Y-125259709D01*
X74212481Y-125187254D01*
X74212482Y-125187254D01*
X74205769Y-125183700D01*
X74188196Y-125179286D01*
X74046822Y-125143775D01*
X74046818Y-125143775D01*
X74039451Y-125141924D01*
X74031852Y-125141884D01*
X74031850Y-125141884D01*
X73960394Y-125141510D01*
X73867969Y-125141026D01*
X73860589Y-125142798D01*
X73860587Y-125142798D01*
X73708602Y-125179286D01*
X73708598Y-125179287D01*
X73701223Y-125181058D01*
X73548839Y-125259709D01*
X73419615Y-125372439D01*
X73321010Y-125512739D01*
X73289864Y-125592624D01*
X73275676Y-125629015D01*
X73258718Y-125672509D01*
X73257726Y-125680042D01*
X73257726Y-125680043D01*
X73243502Y-125788089D01*
X73236335Y-125842526D01*
X61715123Y-125842526D01*
X61710252Y-119109884D01*
X61730205Y-119041749D01*
X61783827Y-118995217D01*
X61824831Y-118984313D01*
X61924466Y-118975245D01*
X61941403Y-118973704D01*
X61941404Y-118973704D01*
X61948424Y-118973065D01*
X62039086Y-118943607D01*
X62098230Y-118924390D01*
X62098233Y-118924389D01*
X62104929Y-118922213D01*
X62140059Y-118901271D01*
X62204577Y-118883500D01*
X67352678Y-118883500D01*
X67421671Y-118904068D01*
X67467189Y-118933854D01*
X67621428Y-118991215D01*
X67628409Y-118992146D01*
X67628411Y-118992147D01*
X67777561Y-119012048D01*
X67777565Y-119012048D01*
X67784542Y-119012979D01*
X67791553Y-119012341D01*
X67791557Y-119012341D01*
X67941403Y-118998704D01*
X67941404Y-118998704D01*
X67948424Y-118998065D01*
X68023399Y-118973704D01*
X68098230Y-118949390D01*
X68098233Y-118949389D01*
X68104929Y-118947213D01*
X68246279Y-118862951D01*
X68365449Y-118749468D01*
X68456515Y-118612403D01*
X68514951Y-118458568D01*
X68537853Y-118295610D01*
X68538141Y-118275000D01*
X68519798Y-118111466D01*
X68465680Y-117956060D01*
X68393266Y-117840173D01*
X68382209Y-117822479D01*
X68378476Y-117816505D01*
X68295424Y-117732871D01*
X68267486Y-117704737D01*
X68267482Y-117704734D01*
X68262522Y-117699739D01*
X68123580Y-117611563D01*
X68046730Y-117584198D01*
X67975189Y-117558723D01*
X67975187Y-117558722D01*
X67968555Y-117556361D01*
X67961569Y-117555528D01*
X67961565Y-117555527D01*
X67847071Y-117541875D01*
X67805153Y-117536877D01*
X67798150Y-117537613D01*
X67798149Y-117537613D01*
X67754935Y-117542155D01*
X67641495Y-117554078D01*
X67634827Y-117556348D01*
X67492382Y-117604840D01*
X67492379Y-117604841D01*
X67485715Y-117607110D01*
X67467869Y-117618089D01*
X67419545Y-117647818D01*
X67353523Y-117666500D01*
X62286146Y-117666500D01*
X62218632Y-117646885D01*
X62129534Y-117590341D01*
X62129530Y-117590339D01*
X62123580Y-117586563D01*
X62074447Y-117569068D01*
X61975189Y-117533723D01*
X61975187Y-117533722D01*
X61968555Y-117531361D01*
X61961567Y-117530528D01*
X61961564Y-117530527D01*
X61820089Y-117513658D01*
X61754815Y-117485731D01*
X61715002Y-117426948D01*
X61709007Y-117388635D01*
X61708826Y-117139133D01*
X61708818Y-117127526D01*
X78521335Y-117127526D01*
X78540153Y-117297975D01*
X78542762Y-117305106D01*
X78542763Y-117305108D01*
X78550688Y-117326764D01*
X78599085Y-117459015D01*
X78603322Y-117465321D01*
X78603324Y-117465324D01*
X78634607Y-117511877D01*
X78694730Y-117601349D01*
X78744773Y-117646885D01*
X78798712Y-117695965D01*
X78821565Y-117716760D01*
X78972268Y-117798585D01*
X79138139Y-117842101D01*
X79225586Y-117843474D01*
X79302003Y-117844675D01*
X79302006Y-117844675D01*
X79309602Y-117844794D01*
X79317006Y-117843098D01*
X79317008Y-117843098D01*
X79379846Y-117828706D01*
X79476759Y-117806510D01*
X79629958Y-117729459D01*
X79635729Y-117724530D01*
X79635732Y-117724528D01*
X79754578Y-117623023D01*
X79760355Y-117618089D01*
X79860424Y-117478830D01*
X79924385Y-117319720D01*
X79948547Y-117149947D01*
X79948704Y-117135000D01*
X79928102Y-116964758D01*
X79867487Y-116804344D01*
X79770357Y-116663019D01*
X79764686Y-116657966D01*
X79647993Y-116553996D01*
X79647990Y-116553994D01*
X79642321Y-116548943D01*
X79634325Y-116544709D01*
X79497481Y-116472254D01*
X79497482Y-116472254D01*
X79490769Y-116468700D01*
X79473196Y-116464286D01*
X79331822Y-116428775D01*
X79331818Y-116428775D01*
X79324451Y-116426924D01*
X79316852Y-116426884D01*
X79316850Y-116426884D01*
X79245394Y-116426510D01*
X79152969Y-116426026D01*
X79145589Y-116427798D01*
X79145587Y-116427798D01*
X78993602Y-116464286D01*
X78993598Y-116464287D01*
X78986223Y-116466058D01*
X78833839Y-116544709D01*
X78704615Y-116657439D01*
X78606010Y-116797739D01*
X78543718Y-116957509D01*
X78521335Y-117127526D01*
X61708818Y-117127526D01*
X61708045Y-116058446D01*
X61727997Y-115990314D01*
X61781619Y-115943782D01*
X61850707Y-115933465D01*
X61868600Y-115935852D01*
X61884542Y-115937979D01*
X61891553Y-115937341D01*
X61891557Y-115937341D01*
X62041403Y-115923704D01*
X62041404Y-115923704D01*
X62048424Y-115923065D01*
X62071455Y-115915582D01*
X62198230Y-115874390D01*
X62198233Y-115874389D01*
X62204929Y-115872213D01*
X62346279Y-115787951D01*
X62465449Y-115674468D01*
X62505273Y-115614528D01*
X62552614Y-115543275D01*
X62552615Y-115543273D01*
X62556515Y-115537403D01*
X62614951Y-115383568D01*
X62637853Y-115220610D01*
X62638141Y-115200000D01*
X62619798Y-115036466D01*
X62617245Y-115029133D01*
X62613203Y-115017526D01*
X67081335Y-115017526D01*
X67084920Y-115049998D01*
X67098330Y-115171459D01*
X67100153Y-115187975D01*
X67102762Y-115195106D01*
X67102763Y-115195108D01*
X67125802Y-115258064D01*
X67159085Y-115349015D01*
X67163322Y-115355321D01*
X67163324Y-115355324D01*
X67186729Y-115390154D01*
X67254730Y-115491349D01*
X67381565Y-115606760D01*
X67532268Y-115688585D01*
X67698139Y-115732101D01*
X67785586Y-115733474D01*
X67862003Y-115734675D01*
X67862006Y-115734675D01*
X67869602Y-115734794D01*
X67877006Y-115733098D01*
X67877008Y-115733098D01*
X67939846Y-115718706D01*
X68036759Y-115696510D01*
X68189958Y-115619459D01*
X68195729Y-115614530D01*
X68195732Y-115614528D01*
X68314578Y-115513023D01*
X68320355Y-115508089D01*
X68420424Y-115368830D01*
X68484385Y-115209720D01*
X68508547Y-115039947D01*
X68508648Y-115030324D01*
X68508661Y-115029133D01*
X68508661Y-115029127D01*
X68508704Y-115025000D01*
X68507800Y-115017526D01*
X72861335Y-115017526D01*
X72864920Y-115049998D01*
X72878330Y-115171459D01*
X72880153Y-115187975D01*
X72882762Y-115195106D01*
X72882763Y-115195108D01*
X72905802Y-115258064D01*
X72939085Y-115349015D01*
X72943322Y-115355321D01*
X72943324Y-115355324D01*
X72966729Y-115390154D01*
X73034730Y-115491349D01*
X73161565Y-115606760D01*
X73312268Y-115688585D01*
X73478139Y-115732101D01*
X73565586Y-115733474D01*
X73642003Y-115734675D01*
X73642006Y-115734675D01*
X73649602Y-115734794D01*
X73657006Y-115733098D01*
X73657008Y-115733098D01*
X73719846Y-115718706D01*
X73816759Y-115696510D01*
X73969958Y-115619459D01*
X73975729Y-115614530D01*
X73975732Y-115614528D01*
X74094578Y-115513023D01*
X74100355Y-115508089D01*
X74200424Y-115368830D01*
X74264385Y-115209720D01*
X74288547Y-115039947D01*
X74288648Y-115030324D01*
X74288661Y-115029133D01*
X74288661Y-115029127D01*
X74288704Y-115025000D01*
X74284258Y-114988262D01*
X74269015Y-114862299D01*
X74269014Y-114862296D01*
X74268102Y-114854758D01*
X74213714Y-114710822D01*
X74210171Y-114701447D01*
X74207487Y-114694344D01*
X74206238Y-114692526D01*
X77886335Y-114692526D01*
X77892402Y-114747479D01*
X77904246Y-114854758D01*
X77905153Y-114862975D01*
X77907762Y-114870106D01*
X77907763Y-114870108D01*
X77914207Y-114887717D01*
X77964085Y-115024015D01*
X77968322Y-115030321D01*
X77968324Y-115030324D01*
X77977155Y-115043465D01*
X78059730Y-115166349D01*
X78186565Y-115281760D01*
X78337268Y-115363585D01*
X78503139Y-115407101D01*
X78590586Y-115408474D01*
X78667003Y-115409675D01*
X78667006Y-115409675D01*
X78674602Y-115409794D01*
X78682006Y-115408098D01*
X78682008Y-115408098D01*
X78760355Y-115390154D01*
X78841759Y-115371510D01*
X78994958Y-115294459D01*
X79000729Y-115289530D01*
X79000732Y-115289528D01*
X79119578Y-115188023D01*
X79125355Y-115183089D01*
X79225424Y-115043830D01*
X79289385Y-114884720D01*
X79294681Y-114847509D01*
X79312966Y-114719031D01*
X79312966Y-114719027D01*
X79313547Y-114714947D01*
X79313704Y-114700000D01*
X79304140Y-114620965D01*
X79294015Y-114537299D01*
X79294014Y-114537296D01*
X79293102Y-114529758D01*
X79274815Y-114481361D01*
X79235171Y-114376447D01*
X79232487Y-114369344D01*
X79222028Y-114354126D01*
X79138132Y-114232056D01*
X79116032Y-114164587D01*
X79133918Y-114095880D01*
X79186109Y-114047749D01*
X79234596Y-114036816D01*
X79234454Y-114035468D01*
X79242004Y-114034675D01*
X79249602Y-114034794D01*
X79257006Y-114033098D01*
X79257008Y-114033098D01*
X79319846Y-114018706D01*
X79416759Y-113996510D01*
X79569958Y-113919459D01*
X79575729Y-113914530D01*
X79575732Y-113914528D01*
X79694578Y-113813023D01*
X79700355Y-113808089D01*
X79800424Y-113668830D01*
X79864385Y-113509720D01*
X79879412Y-113404133D01*
X79887966Y-113344031D01*
X79887966Y-113344027D01*
X79888547Y-113339947D01*
X79888704Y-113325000D01*
X79877178Y-113229758D01*
X79869015Y-113162299D01*
X79869014Y-113162296D01*
X79868102Y-113154758D01*
X79836007Y-113069819D01*
X79810171Y-113001447D01*
X79807487Y-112994344D01*
X79710357Y-112853019D01*
X79704686Y-112847966D01*
X79587993Y-112743996D01*
X79587990Y-112743994D01*
X79582321Y-112738943D01*
X79574325Y-112734709D01*
X79437481Y-112662254D01*
X79437482Y-112662254D01*
X79430769Y-112658700D01*
X79413196Y-112654286D01*
X79271822Y-112618775D01*
X79271818Y-112618775D01*
X79264451Y-112616924D01*
X79256852Y-112616884D01*
X79256850Y-112616884D01*
X79185394Y-112616510D01*
X79092969Y-112616026D01*
X79085589Y-112617798D01*
X79085587Y-112617798D01*
X78933602Y-112654286D01*
X78933598Y-112654287D01*
X78926223Y-112656058D01*
X78773839Y-112734709D01*
X78644615Y-112847439D01*
X78546010Y-112987739D01*
X78483718Y-113147509D01*
X78482726Y-113155042D01*
X78482726Y-113155043D01*
X78472890Y-113229758D01*
X78461335Y-113317526D01*
X78468784Y-113384995D01*
X78472091Y-113414947D01*
X78480153Y-113487975D01*
X78482762Y-113495106D01*
X78482763Y-113495108D01*
X78490688Y-113516764D01*
X78539085Y-113649015D01*
X78543322Y-113655321D01*
X78543324Y-113655324D01*
X78634730Y-113791349D01*
X78632968Y-113792533D01*
X78657903Y-113847410D01*
X78647666Y-113917664D01*
X78601071Y-113971231D01*
X78532493Y-113991102D01*
X78531087Y-113991095D01*
X78517969Y-113991026D01*
X78510589Y-113992798D01*
X78510587Y-113992798D01*
X78358602Y-114029286D01*
X78358598Y-114029287D01*
X78351223Y-114031058D01*
X78198839Y-114109709D01*
X78069615Y-114222439D01*
X77971010Y-114362739D01*
X77953822Y-114406823D01*
X77932071Y-114462613D01*
X77908718Y-114522509D01*
X77907726Y-114530042D01*
X77907726Y-114530043D01*
X77887784Y-114681523D01*
X77886335Y-114692526D01*
X74206238Y-114692526D01*
X74110357Y-114553019D01*
X74104686Y-114547966D01*
X73987993Y-114443996D01*
X73987990Y-114443994D01*
X73982321Y-114438943D01*
X73974325Y-114434709D01*
X73850872Y-114369344D01*
X73830769Y-114358700D01*
X73821569Y-114356389D01*
X73820307Y-114356072D01*
X73818296Y-114354889D01*
X73816308Y-114354126D01*
X73816435Y-114353795D01*
X73759111Y-114320078D01*
X73727256Y-114257044D01*
X73696498Y-114294695D01*
X73624672Y-114316716D01*
X73492969Y-114316026D01*
X73485589Y-114317798D01*
X73485587Y-114317798D01*
X73333602Y-114354286D01*
X73333598Y-114354287D01*
X73326223Y-114356058D01*
X73173839Y-114434709D01*
X73044615Y-114547439D01*
X72946010Y-114687739D01*
X72883718Y-114847509D01*
X72882726Y-114855042D01*
X72882726Y-114855043D01*
X72878425Y-114887717D01*
X72861335Y-115017526D01*
X68507800Y-115017526D01*
X68504258Y-114988262D01*
X68489015Y-114862299D01*
X68489014Y-114862296D01*
X68488102Y-114854758D01*
X68433714Y-114710822D01*
X68430171Y-114701447D01*
X68427487Y-114694344D01*
X68330357Y-114553019D01*
X68324686Y-114547966D01*
X68207993Y-114443996D01*
X68207990Y-114443994D01*
X68202321Y-114438943D01*
X68194325Y-114434709D01*
X68070872Y-114369344D01*
X68050769Y-114358700D01*
X68042102Y-114356523D01*
X67891822Y-114318775D01*
X67891818Y-114318775D01*
X67884451Y-114316924D01*
X67876852Y-114316884D01*
X67876850Y-114316884D01*
X67805394Y-114316510D01*
X67712969Y-114316026D01*
X67705589Y-114317798D01*
X67705587Y-114317798D01*
X67553602Y-114354286D01*
X67553598Y-114354287D01*
X67546223Y-114356058D01*
X67393839Y-114434709D01*
X67264615Y-114547439D01*
X67166010Y-114687739D01*
X67103718Y-114847509D01*
X67102726Y-114855042D01*
X67102726Y-114855043D01*
X67098425Y-114887717D01*
X67081335Y-115017526D01*
X62613203Y-115017526D01*
X62595709Y-114967292D01*
X62565680Y-114881060D01*
X62558837Y-114870108D01*
X62482209Y-114747479D01*
X62478476Y-114741505D01*
X62418911Y-114681523D01*
X62367486Y-114629737D01*
X62367482Y-114629734D01*
X62362522Y-114624739D01*
X62223580Y-114536563D01*
X62164229Y-114515429D01*
X62075189Y-114483723D01*
X62075187Y-114483722D01*
X62068555Y-114481361D01*
X62061569Y-114480528D01*
X62061565Y-114480527D01*
X61947071Y-114466875D01*
X61905153Y-114461877D01*
X61845974Y-114468097D01*
X61776136Y-114455325D01*
X61724290Y-114406823D01*
X61706804Y-114342878D01*
X61706116Y-113392526D01*
X73186335Y-113392526D01*
X73195744Y-113477750D01*
X73199274Y-113509720D01*
X73205153Y-113562975D01*
X73207762Y-113570106D01*
X73207763Y-113570108D01*
X73215688Y-113591764D01*
X73264085Y-113724015D01*
X73359730Y-113866349D01*
X73486565Y-113981760D01*
X73637268Y-114063585D01*
X73644611Y-114065511D01*
X73644615Y-114065513D01*
X73657307Y-114068843D01*
X73718121Y-114105477D01*
X73748890Y-114167984D01*
X73778746Y-114130644D01*
X73852980Y-114107884D01*
X73967003Y-114109675D01*
X73967006Y-114109675D01*
X73974602Y-114109794D01*
X73982006Y-114108098D01*
X73982008Y-114108098D01*
X74044846Y-114093706D01*
X74141759Y-114071510D01*
X74294958Y-113994459D01*
X74300729Y-113989530D01*
X74300732Y-113989528D01*
X74419578Y-113888023D01*
X74425355Y-113883089D01*
X74525424Y-113743830D01*
X74589385Y-113584720D01*
X74593554Y-113555425D01*
X74612966Y-113419031D01*
X74612966Y-113419027D01*
X74613547Y-113414947D01*
X74613704Y-113400000D01*
X74606437Y-113339947D01*
X74594015Y-113237299D01*
X74594014Y-113237296D01*
X74593102Y-113229758D01*
X74532487Y-113069344D01*
X74485823Y-113001447D01*
X74439659Y-112934278D01*
X74439658Y-112934276D01*
X74435357Y-112928019D01*
X74429686Y-112922966D01*
X74312993Y-112818996D01*
X74312990Y-112818994D01*
X74307321Y-112813943D01*
X74299325Y-112809709D01*
X74246723Y-112781858D01*
X74155769Y-112733700D01*
X74138196Y-112729286D01*
X73996822Y-112693775D01*
X73996818Y-112693775D01*
X73989451Y-112691924D01*
X73981852Y-112691884D01*
X73981850Y-112691884D01*
X73910394Y-112691510D01*
X73817969Y-112691026D01*
X73810589Y-112692798D01*
X73810587Y-112692798D01*
X73658602Y-112729286D01*
X73658598Y-112729287D01*
X73651223Y-112731058D01*
X73498839Y-112809709D01*
X73369615Y-112922439D01*
X73271010Y-113062739D01*
X73208718Y-113222509D01*
X73207726Y-113230042D01*
X73207726Y-113230043D01*
X73194681Y-113329133D01*
X73186335Y-113392526D01*
X61706116Y-113392526D01*
X61703729Y-110092526D01*
X74586335Y-110092526D01*
X74605153Y-110262975D01*
X74607762Y-110270106D01*
X74607763Y-110270108D01*
X74615688Y-110291764D01*
X74664085Y-110424015D01*
X74759730Y-110566349D01*
X74886565Y-110681760D01*
X75037268Y-110763585D01*
X75203139Y-110807101D01*
X75290586Y-110808474D01*
X75367003Y-110809675D01*
X75367006Y-110809675D01*
X75374602Y-110809794D01*
X75382006Y-110808098D01*
X75382008Y-110808098D01*
X75444846Y-110793706D01*
X75541759Y-110771510D01*
X75694958Y-110694459D01*
X75700729Y-110689530D01*
X75700732Y-110689528D01*
X75819578Y-110588023D01*
X75825355Y-110583089D01*
X75925424Y-110443830D01*
X75989385Y-110284720D01*
X76013547Y-110114947D01*
X76013704Y-110100000D01*
X75993102Y-109929758D01*
X75932487Y-109769344D01*
X75835357Y-109628019D01*
X75829686Y-109622966D01*
X75712993Y-109518996D01*
X75712990Y-109518994D01*
X75707321Y-109513943D01*
X75699325Y-109509709D01*
X75562481Y-109437254D01*
X75562482Y-109437254D01*
X75555769Y-109433700D01*
X75538196Y-109429286D01*
X75396822Y-109393775D01*
X75396818Y-109393775D01*
X75389451Y-109391924D01*
X75381852Y-109391884D01*
X75381850Y-109391884D01*
X75310394Y-109391510D01*
X75217969Y-109391026D01*
X75210589Y-109392798D01*
X75210587Y-109392798D01*
X75058602Y-109429286D01*
X75058598Y-109429287D01*
X75051223Y-109431058D01*
X74898839Y-109509709D01*
X74769615Y-109622439D01*
X74671010Y-109762739D01*
X74608718Y-109922509D01*
X74586335Y-110092526D01*
X61703729Y-110092526D01*
X61703601Y-109915429D01*
X61701498Y-107008407D01*
X61721451Y-106940273D01*
X61775073Y-106893741D01*
X61816070Y-106882837D01*
X61950924Y-106870565D01*
X61979562Y-106861260D01*
X62100730Y-106821890D01*
X62100733Y-106821889D01*
X62107429Y-106819713D01*
X62184497Y-106773771D01*
X62249015Y-106756000D01*
X66250178Y-106756000D01*
X66319171Y-106776568D01*
X66364689Y-106806354D01*
X66518928Y-106863715D01*
X66525909Y-106864646D01*
X66525911Y-106864647D01*
X66675061Y-106884548D01*
X66675065Y-106884548D01*
X66682042Y-106885479D01*
X66689053Y-106884841D01*
X66689057Y-106884841D01*
X66838903Y-106871204D01*
X66838904Y-106871204D01*
X66845924Y-106870565D01*
X66874562Y-106861260D01*
X66995730Y-106821890D01*
X66995733Y-106821889D01*
X67002429Y-106819713D01*
X67143779Y-106735451D01*
X67262949Y-106621968D01*
X67354015Y-106484903D01*
X67412451Y-106331068D01*
X67435353Y-106168110D01*
X67435641Y-106147500D01*
X67417298Y-105983966D01*
X67363180Y-105828560D01*
X67275976Y-105689005D01*
X67217999Y-105630622D01*
X67164986Y-105577237D01*
X67164982Y-105577234D01*
X67160022Y-105572239D01*
X67021080Y-105484063D01*
X66971947Y-105466568D01*
X66872689Y-105431223D01*
X66872687Y-105431222D01*
X66866055Y-105428861D01*
X66859069Y-105428028D01*
X66859065Y-105428027D01*
X66744571Y-105414375D01*
X66702653Y-105409377D01*
X66695650Y-105410113D01*
X66695649Y-105410113D01*
X66652435Y-105414655D01*
X66538995Y-105426578D01*
X66532327Y-105428848D01*
X66389882Y-105477340D01*
X66389879Y-105477341D01*
X66383215Y-105479610D01*
X66327748Y-105513734D01*
X66317045Y-105520318D01*
X66251023Y-105539000D01*
X62249253Y-105539000D01*
X62181738Y-105519385D01*
X62126080Y-105484063D01*
X62076947Y-105466568D01*
X61977689Y-105431223D01*
X61977687Y-105431222D01*
X61971055Y-105428861D01*
X61964067Y-105428028D01*
X61964064Y-105428027D01*
X61813825Y-105410113D01*
X61811334Y-105409816D01*
X61746060Y-105381889D01*
X61706247Y-105323106D01*
X61700252Y-105284793D01*
X61699597Y-104379855D01*
X61707809Y-104335021D01*
X61732449Y-104270155D01*
X61732449Y-104270154D01*
X61734951Y-104263568D01*
X61757853Y-104100610D01*
X61758141Y-104080000D01*
X61739798Y-103916466D01*
X61706171Y-103819902D01*
X61699162Y-103778556D01*
X61698650Y-103070894D01*
X61698178Y-102417526D01*
X67061335Y-102417526D01*
X67080153Y-102587975D01*
X67082762Y-102595106D01*
X67082763Y-102595108D01*
X67090688Y-102616764D01*
X67139085Y-102749015D01*
X67234730Y-102891349D01*
X67361565Y-103006760D01*
X67512268Y-103088585D01*
X67678139Y-103132101D01*
X67765586Y-103133474D01*
X67842003Y-103134675D01*
X67842006Y-103134675D01*
X67849602Y-103134794D01*
X67857006Y-103133098D01*
X67857008Y-103133098D01*
X67919846Y-103118706D01*
X68016759Y-103096510D01*
X68169958Y-103019459D01*
X68175729Y-103014530D01*
X68175732Y-103014528D01*
X68294578Y-102913023D01*
X68300355Y-102908089D01*
X68400424Y-102768830D01*
X68464385Y-102609720D01*
X68481574Y-102488943D01*
X68487966Y-102444031D01*
X68487966Y-102444027D01*
X68488547Y-102439947D01*
X68488704Y-102425000D01*
X68487800Y-102417526D01*
X72761335Y-102417526D01*
X72780153Y-102587975D01*
X72782762Y-102595106D01*
X72782763Y-102595108D01*
X72790688Y-102616764D01*
X72839085Y-102749015D01*
X72934730Y-102891349D01*
X73061565Y-103006760D01*
X73068240Y-103010384D01*
X73155860Y-103057958D01*
X73206182Y-103108041D01*
X73220977Y-103154861D01*
X73230153Y-103237975D01*
X73232762Y-103245106D01*
X73232763Y-103245108D01*
X73240688Y-103266764D01*
X73289085Y-103399015D01*
X73293322Y-103405321D01*
X73293324Y-103405324D01*
X73302400Y-103418830D01*
X73384730Y-103541349D01*
X73511565Y-103656760D01*
X73662268Y-103738585D01*
X73828139Y-103782101D01*
X73915586Y-103783474D01*
X73992003Y-103784675D01*
X73992006Y-103784675D01*
X73999602Y-103784794D01*
X74007006Y-103783098D01*
X74007008Y-103783098D01*
X74103230Y-103761060D01*
X74166759Y-103746510D01*
X74319958Y-103669459D01*
X74325729Y-103664530D01*
X74325732Y-103664528D01*
X74444578Y-103563023D01*
X74450355Y-103558089D01*
X74550424Y-103418830D01*
X74614385Y-103259720D01*
X74629308Y-103154862D01*
X74637966Y-103094031D01*
X74637966Y-103094027D01*
X74638547Y-103089947D01*
X74638704Y-103075000D01*
X74631386Y-103014528D01*
X74619015Y-102912299D01*
X74619014Y-102912296D01*
X74618102Y-102904758D01*
X74613036Y-102891349D01*
X74560171Y-102751447D01*
X74557487Y-102744344D01*
X74469804Y-102616764D01*
X74464659Y-102609278D01*
X74464658Y-102609276D01*
X74460357Y-102603019D01*
X74434998Y-102580425D01*
X74337994Y-102493997D01*
X74337992Y-102493995D01*
X74332321Y-102488943D01*
X74245352Y-102442895D01*
X74194511Y-102393344D01*
X74179226Y-102346680D01*
X74169015Y-102262299D01*
X74169014Y-102262296D01*
X74168102Y-102254758D01*
X74149223Y-102204794D01*
X74110171Y-102101447D01*
X74107487Y-102094344D01*
X74010357Y-101953019D01*
X74004686Y-101947966D01*
X73887993Y-101843996D01*
X73887990Y-101843994D01*
X73882321Y-101838943D01*
X73874325Y-101834709D01*
X73737481Y-101762254D01*
X73737482Y-101762254D01*
X73730769Y-101758700D01*
X73713196Y-101754286D01*
X73571822Y-101718775D01*
X73571818Y-101718775D01*
X73564451Y-101716924D01*
X73556852Y-101716884D01*
X73556850Y-101716884D01*
X73485394Y-101716510D01*
X73392969Y-101716026D01*
X73385589Y-101717798D01*
X73385587Y-101717798D01*
X73233602Y-101754286D01*
X73233598Y-101754287D01*
X73226223Y-101756058D01*
X73073839Y-101834709D01*
X72944615Y-101947439D01*
X72846010Y-102087739D01*
X72819801Y-102154962D01*
X72801376Y-102202220D01*
X72783718Y-102247509D01*
X72782726Y-102255042D01*
X72782726Y-102255043D01*
X72764519Y-102393344D01*
X72761335Y-102417526D01*
X68487800Y-102417526D01*
X68468102Y-102254758D01*
X68449223Y-102204794D01*
X68410171Y-102101447D01*
X68407487Y-102094344D01*
X68310357Y-101953019D01*
X68304686Y-101947966D01*
X68187993Y-101843996D01*
X68187990Y-101843994D01*
X68182321Y-101838943D01*
X68174325Y-101834709D01*
X68037481Y-101762254D01*
X68037482Y-101762254D01*
X68030769Y-101758700D01*
X68013196Y-101754286D01*
X67871822Y-101718775D01*
X67871818Y-101718775D01*
X67864451Y-101716924D01*
X67856852Y-101716884D01*
X67856850Y-101716884D01*
X67785394Y-101716510D01*
X67692969Y-101716026D01*
X67685589Y-101717798D01*
X67685587Y-101717798D01*
X67533602Y-101754286D01*
X67533598Y-101754287D01*
X67526223Y-101756058D01*
X67373839Y-101834709D01*
X67244615Y-101947439D01*
X67146010Y-102087739D01*
X67119801Y-102154962D01*
X67101376Y-102202220D01*
X67083718Y-102247509D01*
X67082726Y-102255042D01*
X67082726Y-102255043D01*
X67064519Y-102393344D01*
X67061335Y-102417526D01*
X61698178Y-102417526D01*
X61697920Y-102061005D01*
X61717872Y-101992872D01*
X61771494Y-101946340D01*
X61812499Y-101935435D01*
X61941404Y-101923704D01*
X61941405Y-101923704D01*
X61948424Y-101923065D01*
X61971455Y-101915582D01*
X62098230Y-101874390D01*
X62098233Y-101874389D01*
X62104929Y-101872213D01*
X62246279Y-101787951D01*
X62365449Y-101674468D01*
X62456515Y-101537403D01*
X62475461Y-101487526D01*
X78591335Y-101487526D01*
X78596114Y-101530813D01*
X78609314Y-101650373D01*
X78610153Y-101657975D01*
X78612762Y-101665106D01*
X78612763Y-101665108D01*
X78635802Y-101728064D01*
X78669085Y-101819015D01*
X78673322Y-101825321D01*
X78673324Y-101825324D01*
X78704833Y-101872213D01*
X78764730Y-101961349D01*
X78891565Y-102076760D01*
X79042268Y-102158585D01*
X79208139Y-102202101D01*
X79295586Y-102203474D01*
X79372003Y-102204675D01*
X79372006Y-102204675D01*
X79379602Y-102204794D01*
X79387006Y-102203098D01*
X79387008Y-102203098D01*
X79449846Y-102188706D01*
X79546759Y-102166510D01*
X79699958Y-102089459D01*
X79705729Y-102084530D01*
X79705732Y-102084528D01*
X79824578Y-101983023D01*
X79830355Y-101978089D01*
X79930424Y-101838830D01*
X79994385Y-101679720D01*
X80013804Y-101543275D01*
X80017966Y-101514031D01*
X80017966Y-101514027D01*
X80018547Y-101509947D01*
X80018704Y-101495000D01*
X80004375Y-101376593D01*
X79999015Y-101332299D01*
X79999014Y-101332296D01*
X79998102Y-101324758D01*
X79937487Y-101164344D01*
X79840357Y-101023019D01*
X79834686Y-101017966D01*
X79717993Y-100913996D01*
X79717990Y-100913994D01*
X79712321Y-100908943D01*
X79704325Y-100904709D01*
X79567481Y-100832254D01*
X79567482Y-100832254D01*
X79560769Y-100828700D01*
X79543196Y-100824286D01*
X79401822Y-100788775D01*
X79401818Y-100788775D01*
X79394451Y-100786924D01*
X79386852Y-100786884D01*
X79386850Y-100786884D01*
X79315394Y-100786510D01*
X79222969Y-100786026D01*
X79215589Y-100787798D01*
X79215587Y-100787798D01*
X79063602Y-100824286D01*
X79063598Y-100824287D01*
X79056223Y-100826058D01*
X78903839Y-100904709D01*
X78774615Y-101017439D01*
X78676010Y-101157739D01*
X78613718Y-101317509D01*
X78612726Y-101325042D01*
X78612726Y-101325043D01*
X78605940Y-101376593D01*
X78591335Y-101487526D01*
X62475461Y-101487526D01*
X62514951Y-101383568D01*
X62537853Y-101220610D01*
X62538141Y-101200000D01*
X62519798Y-101036466D01*
X62465680Y-100881060D01*
X62378476Y-100741505D01*
X62320499Y-100683122D01*
X62267486Y-100629737D01*
X62267482Y-100629734D01*
X62262522Y-100624739D01*
X62123580Y-100536563D01*
X62074447Y-100519068D01*
X61975189Y-100483723D01*
X61975187Y-100483722D01*
X61968555Y-100481361D01*
X61961569Y-100480528D01*
X61961565Y-100480527D01*
X61807754Y-100462187D01*
X61742481Y-100434260D01*
X61702668Y-100375477D01*
X61696673Y-100337164D01*
X61691486Y-93167526D01*
X76261335Y-93167526D01*
X76280153Y-93337975D01*
X76282762Y-93345106D01*
X76282763Y-93345108D01*
X76290688Y-93366764D01*
X76339085Y-93499015D01*
X76434730Y-93641349D01*
X76561565Y-93756760D01*
X76712268Y-93838585D01*
X76878139Y-93882101D01*
X76965586Y-93883474D01*
X77042003Y-93884675D01*
X77042006Y-93884675D01*
X77049602Y-93884794D01*
X77057006Y-93883098D01*
X77057008Y-93883098D01*
X77119846Y-93868706D01*
X77216759Y-93846510D01*
X77369958Y-93769459D01*
X77375729Y-93764530D01*
X77375732Y-93764528D01*
X77494578Y-93663023D01*
X77500355Y-93658089D01*
X77600424Y-93518830D01*
X77664385Y-93359720D01*
X77688547Y-93189947D01*
X77688704Y-93175000D01*
X77668102Y-93004758D01*
X77656127Y-92973065D01*
X77610171Y-92851447D01*
X77607487Y-92844344D01*
X77542281Y-92749468D01*
X77514659Y-92709278D01*
X77514658Y-92709276D01*
X77510357Y-92703019D01*
X77504686Y-92697966D01*
X77387993Y-92593996D01*
X77387990Y-92593994D01*
X77382321Y-92588943D01*
X77374325Y-92584709D01*
X77237481Y-92512254D01*
X77237482Y-92512254D01*
X77230769Y-92508700D01*
X77213196Y-92504286D01*
X77071822Y-92468775D01*
X77071818Y-92468775D01*
X77064451Y-92466924D01*
X77056852Y-92466884D01*
X77056850Y-92466884D01*
X76985394Y-92466510D01*
X76892969Y-92466026D01*
X76885589Y-92467798D01*
X76885587Y-92467798D01*
X76733602Y-92504286D01*
X76733598Y-92504287D01*
X76726223Y-92506058D01*
X76573839Y-92584709D01*
X76444615Y-92697439D01*
X76346010Y-92837739D01*
X76319788Y-92904994D01*
X76287434Y-92987979D01*
X76283718Y-92997509D01*
X76261335Y-93167526D01*
X61691486Y-93167526D01*
X61690815Y-92239694D01*
X61961931Y-92239694D01*
X61977989Y-92403468D01*
X62029932Y-92559615D01*
X62033581Y-92565640D01*
X62110379Y-92692447D01*
X62115179Y-92700373D01*
X62229491Y-92818747D01*
X62367189Y-92908854D01*
X62521428Y-92966215D01*
X62528409Y-92967146D01*
X62528411Y-92967147D01*
X62677561Y-92987048D01*
X62677565Y-92987048D01*
X62684542Y-92987979D01*
X62691553Y-92987341D01*
X62691557Y-92987341D01*
X62841403Y-92973704D01*
X62841404Y-92973704D01*
X62848424Y-92973065D01*
X62939086Y-92943607D01*
X62998230Y-92924390D01*
X62998233Y-92924389D01*
X63004929Y-92922213D01*
X63081997Y-92876271D01*
X63146515Y-92858500D01*
X65214474Y-92858500D01*
X65283467Y-92879068D01*
X65367189Y-92933854D01*
X65521428Y-92991215D01*
X65528409Y-92992146D01*
X65528411Y-92992147D01*
X65677561Y-93012048D01*
X65677565Y-93012048D01*
X65684542Y-93012979D01*
X65691553Y-93012341D01*
X65691557Y-93012341D01*
X65841403Y-92998704D01*
X65841404Y-92998704D01*
X65848424Y-92998065D01*
X65923399Y-92973704D01*
X65998230Y-92949390D01*
X65998233Y-92949389D01*
X66004929Y-92947213D01*
X66146279Y-92862951D01*
X66265449Y-92749468D01*
X66269350Y-92743597D01*
X66352614Y-92618275D01*
X66352615Y-92618273D01*
X66356515Y-92612403D01*
X66414951Y-92458568D01*
X66437853Y-92295610D01*
X66438141Y-92275000D01*
X66419798Y-92111466D01*
X66365680Y-91956060D01*
X66348411Y-91928423D01*
X66282209Y-91822479D01*
X66278476Y-91816505D01*
X66220499Y-91758122D01*
X66167486Y-91704737D01*
X66167482Y-91704734D01*
X66162522Y-91699739D01*
X66023580Y-91611563D01*
X65946730Y-91584198D01*
X65875189Y-91558723D01*
X65875187Y-91558722D01*
X65868555Y-91556361D01*
X65861569Y-91555528D01*
X65861565Y-91555527D01*
X65747071Y-91541875D01*
X65705153Y-91536877D01*
X65698150Y-91537613D01*
X65698149Y-91537613D01*
X65654935Y-91542155D01*
X65541495Y-91554078D01*
X65534827Y-91556348D01*
X65392382Y-91604840D01*
X65392379Y-91604841D01*
X65385715Y-91607110D01*
X65362359Y-91621479D01*
X65360182Y-91622818D01*
X65294160Y-91641500D01*
X63146753Y-91641500D01*
X63079238Y-91621885D01*
X63062973Y-91611563D01*
X63023580Y-91586563D01*
X62974447Y-91569068D01*
X62875189Y-91533723D01*
X62875187Y-91533722D01*
X62868555Y-91531361D01*
X62861569Y-91530528D01*
X62861565Y-91530527D01*
X62747071Y-91516875D01*
X62705153Y-91511877D01*
X62698150Y-91512613D01*
X62698149Y-91512613D01*
X62654935Y-91517155D01*
X62541495Y-91529078D01*
X62534827Y-91531348D01*
X62392382Y-91579840D01*
X62392379Y-91579841D01*
X62385715Y-91582110D01*
X62245555Y-91668337D01*
X62127982Y-91783473D01*
X62038838Y-91921797D01*
X62036427Y-91928420D01*
X62036426Y-91928423D01*
X61984966Y-92069809D01*
X61984965Y-92069814D01*
X61982556Y-92076432D01*
X61961931Y-92239694D01*
X61690815Y-92239694D01*
X61688484Y-89017526D01*
X67021335Y-89017526D01*
X67040153Y-89187975D01*
X67042762Y-89195106D01*
X67042763Y-89195108D01*
X67050426Y-89216047D01*
X67099085Y-89349015D01*
X67194730Y-89491349D01*
X67321565Y-89606760D01*
X67472268Y-89688585D01*
X67638139Y-89732101D01*
X67725586Y-89733474D01*
X67802003Y-89734675D01*
X67802006Y-89734675D01*
X67809602Y-89734794D01*
X67817006Y-89733098D01*
X67817008Y-89733098D01*
X67879846Y-89718706D01*
X67976759Y-89696510D01*
X68129958Y-89619459D01*
X68135729Y-89614530D01*
X68135732Y-89614528D01*
X68254578Y-89513023D01*
X68260355Y-89508089D01*
X68360424Y-89368830D01*
X68424385Y-89209720D01*
X68444768Y-89066500D01*
X68447966Y-89044031D01*
X68447966Y-89044027D01*
X68448547Y-89039947D01*
X68448704Y-89025000D01*
X68428102Y-88854758D01*
X68367487Y-88694344D01*
X68270357Y-88553019D01*
X68264686Y-88547966D01*
X68147993Y-88443996D01*
X68147990Y-88443994D01*
X68142321Y-88438943D01*
X68134325Y-88434709D01*
X68062157Y-88396498D01*
X67990769Y-88358700D01*
X67973196Y-88354286D01*
X67831822Y-88318775D01*
X67831818Y-88318775D01*
X67824451Y-88316924D01*
X67816852Y-88316884D01*
X67816850Y-88316884D01*
X67745394Y-88316510D01*
X67652969Y-88316026D01*
X67645589Y-88317798D01*
X67645587Y-88317798D01*
X67493602Y-88354286D01*
X67493598Y-88354287D01*
X67486223Y-88356058D01*
X67333839Y-88434709D01*
X67204615Y-88547439D01*
X67106010Y-88687739D01*
X67043718Y-88847509D01*
X67042726Y-88855042D01*
X67042726Y-88855043D01*
X67024585Y-88992842D01*
X67021335Y-89017526D01*
X61688484Y-89017526D01*
X61686893Y-86817526D01*
X76261335Y-86817526D01*
X76270744Y-86902751D01*
X76275621Y-86946923D01*
X76280153Y-86987975D01*
X76282762Y-86995106D01*
X76282763Y-86995108D01*
X76290688Y-87016764D01*
X76339085Y-87149015D01*
X76434730Y-87291349D01*
X76498147Y-87349054D01*
X76539766Y-87386924D01*
X76561565Y-87406760D01*
X76712268Y-87488585D01*
X76878139Y-87532101D01*
X76965586Y-87533474D01*
X77042003Y-87534675D01*
X77042006Y-87534675D01*
X77049602Y-87534794D01*
X77057006Y-87533098D01*
X77057008Y-87533098D01*
X77159177Y-87509698D01*
X77216759Y-87496510D01*
X77369958Y-87419459D01*
X77375729Y-87414530D01*
X77375732Y-87414528D01*
X77494578Y-87313023D01*
X77500355Y-87308089D01*
X77600424Y-87168830D01*
X77664385Y-87009720D01*
X77688547Y-86839947D01*
X77688704Y-86825000D01*
X77668102Y-86654758D01*
X77607487Y-86494344D01*
X77510357Y-86353019D01*
X77504686Y-86347966D01*
X77387993Y-86243996D01*
X77387990Y-86243994D01*
X77382321Y-86238943D01*
X77374325Y-86234709D01*
X77237481Y-86162254D01*
X77237482Y-86162254D01*
X77230769Y-86158700D01*
X77213196Y-86154286D01*
X77071822Y-86118775D01*
X77071818Y-86118775D01*
X77064451Y-86116924D01*
X77056852Y-86116884D01*
X77056850Y-86116884D01*
X76985394Y-86116510D01*
X76892969Y-86116026D01*
X76885589Y-86117798D01*
X76885587Y-86117798D01*
X76733602Y-86154286D01*
X76733598Y-86154287D01*
X76726223Y-86156058D01*
X76573839Y-86234709D01*
X76444615Y-86347439D01*
X76346010Y-86487739D01*
X76283718Y-86647509D01*
X76261335Y-86817526D01*
X61686893Y-86817526D01*
X61679443Y-76517526D01*
X67061335Y-76517526D01*
X67080153Y-76687975D01*
X67082762Y-76695106D01*
X67082763Y-76695108D01*
X67090688Y-76716764D01*
X67139085Y-76849015D01*
X67234730Y-76991349D01*
X67361565Y-77106760D01*
X67512268Y-77188585D01*
X67678139Y-77232101D01*
X67765586Y-77233474D01*
X67842003Y-77234675D01*
X67842006Y-77234675D01*
X67849602Y-77234794D01*
X67857006Y-77233098D01*
X67857008Y-77233098D01*
X67919846Y-77218706D01*
X68016759Y-77196510D01*
X68169958Y-77119459D01*
X68175729Y-77114530D01*
X68175732Y-77114528D01*
X68294578Y-77013023D01*
X68300355Y-77008089D01*
X68400424Y-76868830D01*
X68464385Y-76709720D01*
X68488547Y-76539947D01*
X68488704Y-76525000D01*
X68468102Y-76354758D01*
X68407487Y-76194344D01*
X68310357Y-76053019D01*
X68304686Y-76047966D01*
X68187993Y-75943996D01*
X68187990Y-75943994D01*
X68182321Y-75938943D01*
X68174325Y-75934709D01*
X68037481Y-75862254D01*
X68037482Y-75862254D01*
X68030769Y-75858700D01*
X68013196Y-75854286D01*
X67871822Y-75818775D01*
X67871818Y-75818775D01*
X67864451Y-75816924D01*
X67856852Y-75816884D01*
X67856850Y-75816884D01*
X67785394Y-75816510D01*
X67692969Y-75816026D01*
X67685589Y-75817798D01*
X67685587Y-75817798D01*
X67533602Y-75854286D01*
X67533598Y-75854287D01*
X67526223Y-75856058D01*
X67373839Y-75934709D01*
X67244615Y-76047439D01*
X67146010Y-76187739D01*
X67083718Y-76347509D01*
X67061335Y-76517526D01*
X61679443Y-76517526D01*
X61678285Y-74917046D01*
X73186335Y-74917046D01*
X73193833Y-74984962D01*
X73196816Y-75011976D01*
X73205153Y-75087495D01*
X73207762Y-75094626D01*
X73207763Y-75094628D01*
X73215688Y-75116284D01*
X73264085Y-75248535D01*
X73359730Y-75390869D01*
X73486565Y-75506280D01*
X73637268Y-75588105D01*
X73803139Y-75631621D01*
X73890586Y-75632994D01*
X73967003Y-75634195D01*
X73967006Y-75634195D01*
X73974602Y-75634314D01*
X73982006Y-75632618D01*
X73982008Y-75632618D01*
X74044846Y-75618226D01*
X74141759Y-75596030D01*
X74294958Y-75518979D01*
X74300729Y-75514050D01*
X74300732Y-75514048D01*
X74409697Y-75420982D01*
X74425355Y-75407609D01*
X74525424Y-75268350D01*
X74589385Y-75109240D01*
X74604460Y-75003319D01*
X74612966Y-74943551D01*
X74612966Y-74943547D01*
X74613547Y-74939467D01*
X74613704Y-74924520D01*
X74598207Y-74796459D01*
X74594015Y-74761819D01*
X74594014Y-74761816D01*
X74593102Y-74754278D01*
X74532487Y-74593864D01*
X74464614Y-74495108D01*
X74439659Y-74458798D01*
X74439658Y-74458796D01*
X74435357Y-74452539D01*
X74429686Y-74447486D01*
X74312993Y-74343516D01*
X74312990Y-74343514D01*
X74307321Y-74338463D01*
X74299325Y-74334229D01*
X74267778Y-74317526D01*
X76861335Y-74317526D01*
X76870744Y-74402751D01*
X76876932Y-74458798D01*
X76880153Y-74487975D01*
X76939085Y-74649015D01*
X77034730Y-74791349D01*
X77161565Y-74906760D01*
X77312268Y-74988585D01*
X77368431Y-75003319D01*
X77425551Y-75036100D01*
X78554595Y-76165144D01*
X78588621Y-76227456D01*
X78591500Y-76254239D01*
X78591500Y-79894808D01*
X78576543Y-79954351D01*
X78575377Y-79956525D01*
X78571010Y-79962739D01*
X78508718Y-80122509D01*
X78486335Y-80292526D01*
X78505153Y-80462975D01*
X78507762Y-80470106D01*
X78507763Y-80470108D01*
X78515688Y-80491764D01*
X78564085Y-80624015D01*
X78659730Y-80766349D01*
X78786565Y-80881760D01*
X78937268Y-80963585D01*
X79103139Y-81007101D01*
X79190586Y-81008474D01*
X79267003Y-81009675D01*
X79267006Y-81009675D01*
X79274602Y-81009794D01*
X79282006Y-81008098D01*
X79282008Y-81008098D01*
X79344846Y-80993706D01*
X79441759Y-80971510D01*
X79594958Y-80894459D01*
X79600729Y-80889530D01*
X79600732Y-80889528D01*
X79719578Y-80788023D01*
X79725355Y-80783089D01*
X79825424Y-80643830D01*
X79889385Y-80484720D01*
X79913547Y-80314947D01*
X79913704Y-80300000D01*
X79893102Y-80129758D01*
X79832487Y-79969344D01*
X79828187Y-79963087D01*
X79824665Y-79956350D01*
X79827063Y-79955096D01*
X79808500Y-79895318D01*
X79808500Y-75998136D01*
X79809578Y-75981690D01*
X79812672Y-75958188D01*
X79813750Y-75950000D01*
X79808500Y-75910120D01*
X79808500Y-75910115D01*
X79792838Y-75791150D01*
X79731524Y-75643125D01*
X79731524Y-75643124D01*
X79722582Y-75631471D01*
X79696982Y-75565252D01*
X79711246Y-75495703D01*
X79740715Y-75458957D01*
X79795055Y-75412546D01*
X79795058Y-75412543D01*
X79800835Y-75407609D01*
X79900904Y-75268350D01*
X79964865Y-75109240D01*
X79979940Y-75003319D01*
X79988446Y-74943551D01*
X79988446Y-74943547D01*
X79989027Y-74939467D01*
X79989184Y-74924520D01*
X79973687Y-74796459D01*
X79969495Y-74761819D01*
X79969494Y-74761816D01*
X79968582Y-74754278D01*
X79907967Y-74593864D01*
X79840094Y-74495108D01*
X79815139Y-74458798D01*
X79815138Y-74458796D01*
X79810837Y-74452539D01*
X79805166Y-74447486D01*
X79688473Y-74343516D01*
X79688470Y-74343514D01*
X79682801Y-74338463D01*
X79674805Y-74334229D01*
X79537961Y-74261774D01*
X79537962Y-74261774D01*
X79531249Y-74258220D01*
X79513676Y-74253806D01*
X79372302Y-74218295D01*
X79372298Y-74218295D01*
X79364931Y-74216444D01*
X79357332Y-74216404D01*
X79357330Y-74216404D01*
X79285874Y-74216030D01*
X79193449Y-74215546D01*
X79186069Y-74217318D01*
X79186067Y-74217318D01*
X79034082Y-74253806D01*
X79034078Y-74253807D01*
X79026703Y-74255578D01*
X78874319Y-74334229D01*
X78745095Y-74446959D01*
X78743781Y-74448829D01*
X78685263Y-74484881D01*
X78614280Y-74483531D01*
X78562976Y-74452427D01*
X78288983Y-74178434D01*
X78260212Y-74133877D01*
X78210171Y-74001447D01*
X78207487Y-73994344D01*
X78110357Y-73853019D01*
X78104686Y-73847966D01*
X77987993Y-73743996D01*
X77987990Y-73743994D01*
X77982321Y-73738943D01*
X77974325Y-73734709D01*
X77837481Y-73662254D01*
X77837482Y-73662254D01*
X77830769Y-73658700D01*
X77813196Y-73654286D01*
X77671822Y-73618775D01*
X77671818Y-73618775D01*
X77664451Y-73616924D01*
X77656852Y-73616884D01*
X77656850Y-73616884D01*
X77585394Y-73616510D01*
X77492969Y-73616026D01*
X77485589Y-73617798D01*
X77485587Y-73617798D01*
X77333602Y-73654286D01*
X77333598Y-73654287D01*
X77326223Y-73656058D01*
X77173839Y-73734709D01*
X77044615Y-73847439D01*
X76946010Y-73987739D01*
X76883718Y-74147509D01*
X76882726Y-74155042D01*
X76882726Y-74155043D01*
X76868675Y-74261774D01*
X76861335Y-74317526D01*
X74267778Y-74317526D01*
X74162481Y-74261774D01*
X74162482Y-74261774D01*
X74155769Y-74258220D01*
X74138196Y-74253806D01*
X73996822Y-74218295D01*
X73996818Y-74218295D01*
X73989451Y-74216444D01*
X73981852Y-74216404D01*
X73981850Y-74216404D01*
X73910394Y-74216030D01*
X73817969Y-74215546D01*
X73810589Y-74217318D01*
X73810587Y-74217318D01*
X73658602Y-74253806D01*
X73658598Y-74253807D01*
X73651223Y-74255578D01*
X73498839Y-74334229D01*
X73369615Y-74446959D01*
X73271010Y-74587259D01*
X73208718Y-74747029D01*
X73207726Y-74754562D01*
X73207726Y-74754563D01*
X73188362Y-74901650D01*
X73186335Y-74917046D01*
X61678285Y-74917046D01*
X61676540Y-72504694D01*
X65446931Y-72504694D01*
X65462989Y-72668468D01*
X65514932Y-72824615D01*
X65600179Y-72965373D01*
X65714491Y-73083747D01*
X65852189Y-73173854D01*
X66006428Y-73231215D01*
X66013409Y-73232146D01*
X66013411Y-73232147D01*
X66162561Y-73252048D01*
X66162565Y-73252048D01*
X66169542Y-73252979D01*
X66176553Y-73252341D01*
X66176557Y-73252341D01*
X66326403Y-73238704D01*
X66326404Y-73238704D01*
X66333424Y-73238065D01*
X66362062Y-73228760D01*
X66483230Y-73189390D01*
X66483233Y-73189389D01*
X66489929Y-73187213D01*
X66631279Y-73102951D01*
X66750449Y-72989468D01*
X66766458Y-72965373D01*
X66837614Y-72858275D01*
X66837615Y-72858273D01*
X66841515Y-72852403D01*
X66899951Y-72698568D01*
X66922853Y-72535610D01*
X66923141Y-72515000D01*
X66904798Y-72351466D01*
X66898998Y-72334809D01*
X66852998Y-72202717D01*
X66850680Y-72196060D01*
X66763476Y-72056505D01*
X66705499Y-71998122D01*
X66652486Y-71944737D01*
X66652482Y-71944734D01*
X66647522Y-71939739D01*
X66508580Y-71851563D01*
X66459447Y-71834068D01*
X66360189Y-71798723D01*
X66360187Y-71798722D01*
X66353555Y-71796361D01*
X66346569Y-71795528D01*
X66346565Y-71795527D01*
X66232071Y-71781875D01*
X66190153Y-71776877D01*
X66183150Y-71777613D01*
X66183149Y-71777613D01*
X66139935Y-71782155D01*
X66026495Y-71794078D01*
X66019827Y-71796348D01*
X65877382Y-71844840D01*
X65877379Y-71844841D01*
X65870715Y-71847110D01*
X65730555Y-71933337D01*
X65612982Y-72048473D01*
X65523838Y-72186797D01*
X65521427Y-72193420D01*
X65521426Y-72193423D01*
X65469966Y-72334809D01*
X65469965Y-72334814D01*
X65467556Y-72341432D01*
X65446931Y-72504694D01*
X61676540Y-72504694D01*
X61674442Y-69604694D01*
X65446931Y-69604694D01*
X65462989Y-69768468D01*
X65514932Y-69924615D01*
X65600179Y-70065373D01*
X65714491Y-70183747D01*
X65852189Y-70273854D01*
X66006428Y-70331215D01*
X66013409Y-70332146D01*
X66013411Y-70332147D01*
X66162561Y-70352048D01*
X66162565Y-70352048D01*
X66169542Y-70352979D01*
X66176553Y-70352341D01*
X66176557Y-70352341D01*
X66326403Y-70338704D01*
X66326404Y-70338704D01*
X66333424Y-70338065D01*
X66362062Y-70328760D01*
X66483230Y-70289390D01*
X66483233Y-70289389D01*
X66489929Y-70287213D01*
X66631279Y-70202951D01*
X66750449Y-70089468D01*
X66766458Y-70065373D01*
X66837614Y-69958275D01*
X66837615Y-69958273D01*
X66841515Y-69952403D01*
X66899951Y-69798568D01*
X66922853Y-69635610D01*
X66923141Y-69615000D01*
X66904798Y-69451466D01*
X66898998Y-69434809D01*
X66852998Y-69302717D01*
X66850680Y-69296060D01*
X66763476Y-69156505D01*
X66705499Y-69098122D01*
X66652486Y-69044737D01*
X66652482Y-69044734D01*
X66647522Y-69039739D01*
X66508580Y-68951563D01*
X66459447Y-68934068D01*
X66360189Y-68898723D01*
X66360187Y-68898722D01*
X66353555Y-68896361D01*
X66346569Y-68895528D01*
X66346565Y-68895527D01*
X66232071Y-68881875D01*
X66190153Y-68876877D01*
X66183150Y-68877613D01*
X66183149Y-68877613D01*
X66139935Y-68882155D01*
X66026495Y-68894078D01*
X66019827Y-68896348D01*
X65877382Y-68944840D01*
X65877379Y-68944841D01*
X65870715Y-68947110D01*
X65730555Y-69033337D01*
X65612982Y-69148473D01*
X65523838Y-69286797D01*
X65521427Y-69293420D01*
X65521426Y-69293423D01*
X65469966Y-69434809D01*
X65469965Y-69434814D01*
X65467556Y-69441432D01*
X65446931Y-69604694D01*
X61674442Y-69604694D01*
X61671885Y-66070157D01*
X61680097Y-66025323D01*
X61712449Y-65940154D01*
X61714951Y-65933568D01*
X61737853Y-65770610D01*
X61738141Y-65750000D01*
X61719798Y-65586466D01*
X61716304Y-65576432D01*
X61678428Y-65467664D01*
X61671420Y-65426319D01*
X61670401Y-64017526D01*
X67041335Y-64017526D01*
X67060153Y-64187975D01*
X67062762Y-64195106D01*
X67062763Y-64195108D01*
X67070688Y-64216764D01*
X67119085Y-64349015D01*
X67214730Y-64491349D01*
X67341565Y-64606760D01*
X67492268Y-64688585D01*
X67658139Y-64732101D01*
X67745586Y-64733474D01*
X67822003Y-64734675D01*
X67822006Y-64734675D01*
X67829602Y-64734794D01*
X67837006Y-64733098D01*
X67837008Y-64733098D01*
X67899846Y-64718706D01*
X67996759Y-64696510D01*
X68149958Y-64619459D01*
X68155729Y-64614530D01*
X68155732Y-64614528D01*
X68274578Y-64513023D01*
X68280355Y-64508089D01*
X68380424Y-64368830D01*
X68444385Y-64209720D01*
X68468547Y-64039947D01*
X68468704Y-64025000D01*
X68448102Y-63854758D01*
X68387487Y-63694344D01*
X68290357Y-63553019D01*
X68284103Y-63547447D01*
X68167993Y-63443996D01*
X68167990Y-63443994D01*
X68162321Y-63438943D01*
X68154325Y-63434709D01*
X68091600Y-63401498D01*
X68010769Y-63358700D01*
X67993196Y-63354286D01*
X67851822Y-63318775D01*
X67851818Y-63318775D01*
X67844451Y-63316924D01*
X67836852Y-63316884D01*
X67836850Y-63316884D01*
X67765394Y-63316510D01*
X67672969Y-63316026D01*
X67665589Y-63317798D01*
X67665587Y-63317798D01*
X67513602Y-63354286D01*
X67513598Y-63354287D01*
X67506223Y-63356058D01*
X67353839Y-63434709D01*
X67224615Y-63547439D01*
X67126010Y-63687739D01*
X67063718Y-63847509D01*
X67041335Y-64017526D01*
X61670401Y-64017526D01*
X61660091Y-49766091D01*
X61680044Y-49697956D01*
X61733666Y-49651424D01*
X61786091Y-49640000D01*
X69314135Y-49640000D01*
X69382256Y-49660002D01*
G37*
%TD.AperFunction*%
%TD*%
M02*
