%TF.GenerationSoftware,KiCad,Pcbnew,(6.0.1)*%
%TF.CreationDate,2023-03-14T21:46:11-07:00*%
%TF.ProjectId,pipes_sub,70697065-735f-4737-9562-2e6b69636164,rev?*%
%TF.SameCoordinates,Original*%
%TF.FileFunction,Soldermask,Top*%
%TF.FilePolarity,Negative*%
%FSLAX46Y46*%
G04 Gerber Fmt 4.6, Leading zero omitted, Abs format (unit mm)*
G04 Created by KiCad (PCBNEW (6.0.1)) date 2023-03-14 21:46:11*
%MOMM*%
%LPD*%
G01*
G04 APERTURE LIST*
G04 Aperture macros list*
%AMRoundRect*
0 Rectangle with rounded corners*
0 $1 Rounding radius*
0 $2 $3 $4 $5 $6 $7 $8 $9 X,Y pos of 4 corners*
0 Add a 4 corners polygon primitive as box body*
4,1,4,$2,$3,$4,$5,$6,$7,$8,$9,$2,$3,0*
0 Add four circle primitives for the rounded corners*
1,1,$1+$1,$2,$3*
1,1,$1+$1,$4,$5*
1,1,$1+$1,$6,$7*
1,1,$1+$1,$8,$9*
0 Add four rect primitives between the rounded corners*
20,1,$1+$1,$2,$3,$4,$5,0*
20,1,$1+$1,$4,$5,$6,$7,0*
20,1,$1+$1,$6,$7,$8,$9,0*
20,1,$1+$1,$8,$9,$2,$3,0*%
G04 Aperture macros list end*
%ADD10RoundRect,0.287500X-0.287500X-0.287500X0.287500X-0.287500X0.287500X0.287500X-0.287500X0.287500X0*%
%ADD11C,1.150000*%
%ADD12C,2.500000*%
%ADD13R,3.150000X1.000000*%
%ADD14C,2.800000*%
G04 APERTURE END LIST*
D10*
%TO.C,U26*%
X65170000Y-124600000D03*
D11*
X65170000Y-128400000D03*
X80170000Y-123960000D03*
X80170000Y-129040000D03*
%TD*%
D12*
%TO.C,H2*%
X98000000Y-43000000D03*
%TD*%
D10*
%TO.C,U27*%
X65170000Y-86600000D03*
D11*
X65170000Y-90400000D03*
X80170000Y-85960000D03*
X80170000Y-91040000D03*
%TD*%
D10*
%TO.C,U21*%
X65170000Y-74600000D03*
D11*
X65170000Y-78400000D03*
X80170000Y-73960000D03*
X80170000Y-79040000D03*
%TD*%
D10*
%TO.C,U22*%
X65170000Y-50600000D03*
D11*
X65170000Y-54400000D03*
X80170000Y-49960000D03*
X80170000Y-55040000D03*
%TD*%
D10*
%TO.C,U20*%
X65170000Y-112600000D03*
D11*
X65170000Y-116400000D03*
X80170000Y-111960000D03*
X80170000Y-117040000D03*
%TD*%
D10*
%TO.C,U28*%
X65170000Y-62600000D03*
D11*
X65170000Y-66400000D03*
X80170000Y-61960000D03*
X80170000Y-67040000D03*
%TD*%
D12*
%TO.C,H1*%
X52600000Y-43000000D03*
%TD*%
D10*
%TO.C,U33*%
X65170000Y-100600000D03*
D11*
X65170000Y-104400000D03*
X80170000Y-99960000D03*
X80170000Y-105040000D03*
%TD*%
D12*
%TO.C,H3*%
X98000000Y-147000000D03*
%TD*%
D10*
%TO.C,U32*%
X65170000Y-136600000D03*
D11*
X65170000Y-140400000D03*
X80170000Y-135960000D03*
X80170000Y-141040000D03*
%TD*%
D12*
%TO.C,H4*%
X52600000Y-147000000D03*
%TD*%
D13*
%TO.C,J4*%
X57725000Y-105080000D03*
X52675000Y-105080000D03*
X57725000Y-102540000D03*
X52675000Y-102540000D03*
X57725000Y-100000000D03*
X52675000Y-100000000D03*
X57725000Y-97460000D03*
X52675000Y-97460000D03*
X57725000Y-94920000D03*
X52675000Y-94920000D03*
%TD*%
%TO.C,J1*%
X52675000Y-61110000D03*
X57725000Y-61110000D03*
X52675000Y-63650000D03*
X57725000Y-63650000D03*
X52675000Y-66190000D03*
X57725000Y-66190000D03*
X52675000Y-68730000D03*
X57725000Y-68730000D03*
X52675000Y-71270000D03*
X57725000Y-71270000D03*
X52675000Y-73810000D03*
X57725000Y-73810000D03*
X52675000Y-76350000D03*
X57725000Y-76350000D03*
X52675000Y-78890000D03*
X57725000Y-78890000D03*
%TD*%
D14*
%TO.C,TP1*%
X106250000Y-146950000D03*
%TD*%
%TO.C,TP2*%
X45230000Y-146950000D03*
%TD*%
M02*
