M48
; DRILL file {KiCad (6.0.1)} date Fri Aug  4 16:14:00 2023
; FORMAT={-:-/ absolute / inch / decimal}
; #@! TF.CreationDate,2023-08-04T16:14:00-07:00
; #@! TF.GenerationSoftware,Kicad,Pcbnew,(6.0.1)
; #@! TF.FileFunction,Plated,1,4,PTH
FMAT,2
INCH
; #@! TA.AperFunction,Plated,PTH,ViaDrill
T1C0.0079
; #@! TA.AperFunction,Plated,PTH,ViaDrill
T2C0.0157
; #@! TA.AperFunction,Plated,PTH,ComponentDrill
T3C0.0217
; #@! TA.AperFunction,Plated,PTH,ComponentDrill
T4C0.0630
%
G90
G05
T1
X1.6236Y-2.1882
X1.624Y-2.6941
X1.6248Y-4.185
X1.6252Y-3.6307
X1.6264Y-3.1575
X1.6268Y-4.6551
X1.6652Y-1.7982
X1.6658Y-1.9539
X1.6669Y-2.2339
X1.6752Y-3.2378
X1.6807Y-4.2567
X1.6808Y-2.7814
X1.6808Y-3.0042
X1.6827Y-4.728
X1.6874Y-5.1988
X1.689Y-3.7744
X1.6915Y-5.2998
X1.6923Y-2.3368
X1.6925Y-5.3496
X1.7093Y-4.8778
X1.7104Y-4.8278
X1.7136Y-3.9311
X1.7193Y-1.9327
X1.7242Y-4.4037
X1.737Y-2.628
X1.7378Y-2.9035
X1.7378Y-3.0933
X1.7378Y-4.5921
X1.7394Y-2.4315
X1.7406Y-3.5732
X1.7425Y-3.3748
X1.7433Y-5.5374
X1.7441Y-4.122
X1.7441Y-5.0669
X1.7693Y-3.9815
X1.7693Y-4.0236
X1.7693Y-4.4539
X1.7693Y-4.9299
X1.7693Y-5.4
X1.7697Y-3.4295
X1.7697Y-3.4764
X1.7701Y-4.4882
X1.7709Y-2.9551
X1.7711Y-1.9825
X1.7711Y-2.4876
X1.8737Y-2.805
X1.874Y-4.0827
X1.8752Y-4.7949
X1.876Y-4.7264
X1.8762Y-3.7744
X1.877Y-2.3868
X1.878Y-1.8839
X1.8785Y-5.2498
X1.8787Y-3.3303
X1.8791Y-4.2567
X1.8791Y-4.3543
X1.8797Y-2.3368
X1.8815Y-4.3037
X1.8829Y-3.8313
X1.8843Y-3.285
X1.8898Y-3.5315
X1.8898Y-3.938
X1.8898Y-4.5551
X1.8976Y-1.9094
X1.9114Y-5.0906
X1.9163Y-2.9252
X1.9169Y-3.1461
X1.9173Y-2.9803
X1.9331Y-4.8496
X1.9339Y-1.8327
X1.9339Y-2.1406
X1.9378Y-2.8551
X1.9378Y-5.3205
X1.9402Y-3.8811
X1.9409Y-3.9685
X1.941Y-5.1693
X1.9606Y-4.4764
X1.9717Y-2.4319
X1.9717Y-4.137
X1.9724Y-2.5531
X1.9724Y-2.6181
X1.9941Y-3.3976
X1.9941Y-3.5945
X1.9941Y-3.6614
X1.9941Y-4.0354
X2.0291Y-3.1461
X2.0291Y-3.689
X2.0307Y-5.3209
X2.0498Y-3.777
X2.063Y-4.2579
X2.0738Y-2.6624
X2.0738Y-2.7667
X2.0906Y-4.9094
X2.1299Y-5.1437
X2.1496Y-2.5059
X2.1496Y-3.937
X2.1516Y-2.0669
X2.1535Y-3.0354
X2.1535Y-3.8839
X2.1571Y-2.6059
X2.1575Y-2.6535
X2.1575Y-2.8622
X2.1614Y-3.837
X2.1673Y-3.4331
X2.1713Y-4.4232
X2.1799Y-2.8059
X2.1811Y-3.689
X2.1811Y-3.9469
X2.2008Y-1.9547
X2.2012Y-2.1083
X2.2224Y-4.0965
X2.2441Y-3.8839
X2.2717Y-3.685
X2.2726Y-2.7411
X2.2736Y-4.0
X2.2882Y-5.2498
X2.2882Y-5.5283
X2.3031Y-3.2844
X2.3031Y-3.5581
X2.352Y-3.837
X2.3598Y-2.6059
X2.378Y-3.4331
X2.3898Y-4.5295
X2.4016Y-2.5374
X2.4016Y-2.6535
X2.4193Y-3.3307
X2.4193Y-3.4094
X2.4291Y-5.4902
X2.4705Y-3.2736
X2.4764Y-3.7402
X2.4862Y-4.7461
X2.4862Y-5.1516
X2.4931Y-3.503
X2.5098Y-4.1654
X2.5138Y-2.7815
X2.5157Y-5.2579
X2.5181Y-4.7949
X2.5213Y-4.3037
X2.5313Y-2.8358
X2.5313Y-3.8102
X2.6161Y-2.0669
X2.622Y-2.3368
X2.6811Y-2.5
X2.7156Y-5.2313
X2.7195Y-4.247
X2.7234Y-3.2687
X2.7238Y-2.7474
X2.7274Y-4.7451
X2.7323Y-3.7402
X2.7756Y-2.4055
X2.7825Y-2.9616
X2.7825Y-3.5049
X2.7843Y-3.4543
X2.7852Y-5.512
X2.7864Y-2.0246
X2.7868Y-2.4695
X2.7872Y-4.5285
X2.7872Y-5.0199
X2.7874Y-4.0335
X2.788Y-5.4608
X2.7884Y-3.0128
X2.7888Y-3.9813
X2.7907Y-4.9687
X2.7923Y-4.4774
X2.8649Y-2.576
X2.8661Y-2.4409
X2.9293Y-5.512
X2.9813Y-2.373
X3.0096Y-5.0455
X3.0098Y-2.5209
X3.0108Y-2.0758
X3.0108Y-3.0384
X3.0108Y-4.0325
X3.0116Y-5.5376
X3.0148Y-3.5049
X3.0148Y-4.5285
X3.0157Y-2.5463
X3.0285Y-4.0581
X3.0285Y-4.5541
X3.0333Y-4.9861
X3.0354Y-3.5305
X3.0753Y-3.5551
X3.0768Y-5.4331
X3.1014Y-2.9498
X3.1134Y-3.0362
X3.1142Y-2.5709
X3.1161Y-4.061
X3.185Y-4.4646
X3.187Y-4.9547
X3.1969Y-2.4843
X3.1969Y-3.4683
X3.197Y-2.9762
X3.1986Y-1.9037
X3.1988Y-5.4587
X3.201Y-3.9959
X3.2028Y-5.0098
X3.2047Y-4.4862
X3.2402Y-4.3346
X3.2533Y-2.6628
X3.2533Y-2.7612
X3.2533Y-3.7435
X3.2569Y-2.2923
X3.2744Y-4.2669
X3.2874Y-3.689
X3.2963Y-4.2195
X3.2972Y-5.699
X3.3012Y-4.411
X3.3012Y-5.2097
X3.3022Y-4.7352
X3.303Y-3.6183
X3.3049Y-2.6341
X3.3049Y-2.7675
X3.3053Y-3.2026
X3.3053Y-3.1262
X3.3053Y-4.1459
X3.3081Y-3.8041
X3.3083Y-5.376
X3.3089Y-2.1537
X3.31Y-4.8833
X3.311Y-2.2037
X3.311Y-2.374
X3.3116Y-2.8762
X3.3116Y-3.3683
X3.3163Y-5.1333
X3.3209Y-4.7067
X3.3218Y-5.2589
X3.3268Y-4.2854
X3.3287Y-4.7992
X3.3321Y-5.6254
X3.3321Y-5.7848
X3.3327Y-2.2972
X3.3327Y-3.2598
X3.3642Y-1.9724
X3.3642Y-2.4331
X3.3701Y-4.5157
X3.3701Y-4.9833
X3.376Y-3.8346
X3.378Y-4.3091
X3.3939Y-3.4683
X3.3947Y-5.4754
X3.3967Y-2.9498
X3.3978Y-3.9959
X3.4014Y-2.4841
X3.4045Y-2.8297
X3.439Y-2.3189
X3.4941Y-3.7736
X3.4947Y-2.5341
X3.4959Y-2.6341
X3.497Y-2.9262
X3.4978Y-4.9333
X3.498Y-3.0256
X3.498Y-3.8071
X3.499Y-2.4341
X3.499Y-4.4616
X3.4998Y-4.1459
X3.4998Y-5.5254
X3.5002Y-5.4254
X3.5006Y-3.5183
X3.501Y-3.4183
X3.501Y-3.9459
X3.5014Y-4.5616
X3.5018Y-3.6183
X3.502Y-3.124
X3.502Y-4.0472
X3.502Y-5.626
X3.5022Y-2.0037
X3.5033Y-5.1333
X3.5037Y-5.0333
X3.5059Y-4.6555
X3.5571Y-2.7697
X3.561Y-2.2933
X3.5728Y-5.2402
X3.5896Y-5.2156
X3.6063Y-2.7323
X3.6102Y-3.122
X3.6122Y-3.0256
X3.6122Y-3.4154
X3.6122Y-4.1437
X3.6122Y-4.2461
X3.6122Y-4.7579
X3.6122Y-5.0335
X3.6122Y-5.1319
X3.6122Y-5.4232
X3.6142Y-2.9252
X3.6142Y-3.5118
X3.6142Y-3.6142
X3.6142Y-4.0453
X3.6142Y-4.561
X3.6142Y-4.6594
X3.6142Y-4.9311
X3.6142Y-5.624
X3.6161Y-3.2205
X3.6161Y-4.4587
X3.6161Y-5.5236
X3.6161Y-5.7244
X3.6181Y-2.4331
X3.6181Y-2.5315
X3.6181Y-2.6339
X3.6181Y-3.9429
X3.6201Y-2.2421
X3.626Y-2.0039
X3.626Y-2.1024
X3.6272Y-1.9043
X3.6693Y-3.7165
X3.6831Y-5.3366
X3.685Y-2.2717
X3.7087Y-5.2638
X3.7096Y-3.2726
X3.7205Y-3.1594
X3.7312Y-5.4005
X3.7402Y-4.3346
X3.7431Y-3.5305
X3.748Y-2.252
X3.748Y-2.6996
X3.753Y-4.1919
X3.7821Y-2.0171
X3.7821Y-2.0841
X3.7825Y-2.1545
X3.7874Y-2.6457
X3.8031Y-2.5236
X3.8091Y-3.7106
X3.8169Y-4.3071
X3.8219Y-4.4163
X3.8238Y-4.2411
X3.8248Y-2.2362
X3.8268Y-5.4843
X3.8504Y-2.4528
X3.8504Y-3.4921
X3.8504Y-4.122
X3.8504Y-5.2559
X3.8583Y-1.8898
X3.8753Y-1.9475
X3.8754Y-2.5526
X3.8907Y-3.5404
X3.8917Y-3.2736
X3.8927Y-1.7982
X3.8951Y-2.5026
X3.8976Y-2.3031
X3.8996Y-5.3071
X3.9244Y-3.6386
X3.9244Y-5.4075
X3.925Y-4.2719
X3.9252Y-2.6026
X3.9291Y-2.0354
X3.9537Y-1.9203
X3.9681Y-2.3661
X3.9681Y-4.0398
X4.0128Y-4.6801
X4.0295Y-2.2953
X4.0299Y-2.1398
X4.0335Y-3.065
X4.0335Y-3.4902
X4.0335Y-4.9547
X4.0335Y-5.2559
X4.0356Y-4.1219
X4.0394Y-2.5531
X4.0433Y-2.4528
X4.06Y-4.4163
X4.06Y-5.4104
X4.062Y-4.2746
X4.0691Y-1.9569
X4.0728Y-2.0079
X4.0913Y-2.2677
X4.0925Y-4.8287
X4.125Y-5.3474
X4.127Y-4.2037
X4.1535Y-2.2677
X4.1634Y-5.3051
X4.1732Y-2.1069
X4.185Y-1.8898
X4.1969Y-2.5
X4.1969Y-3.5512
X4.1969Y-3.7106
X4.1969Y-4.2028
T2
X2.1728Y-2.4059
X2.1736Y-3.1059
X3.2535Y-3.8594
T3
X2.5657Y-1.9921
X2.5657Y-2.1417
X2.5657Y-2.4646
X2.5657Y-2.6142
X2.5657Y-2.937
X2.5657Y-3.0866
X2.5657Y-3.4094
X2.5657Y-3.5591
X2.5657Y-3.9606
X2.5657Y-4.1102
X2.5657Y-4.4331
X2.5657Y-4.5827
X2.5657Y-4.9055
X2.5657Y-5.0551
X2.5657Y-5.378
X2.5657Y-5.5276
X3.1563Y-1.9669
X3.1563Y-2.1669
X3.1563Y-2.4394
X3.1563Y-2.6394
X3.1563Y-2.9118
X3.1563Y-3.1118
X3.1563Y-3.3843
X3.1563Y-3.5843
X3.1563Y-3.9354
X3.1563Y-4.1354
X3.1563Y-4.4079
X3.1563Y-4.6079
X3.1563Y-4.8803
X3.1563Y-5.0803
X3.1563Y-5.3528
X3.1563Y-5.5528
T4
X1.7807Y-5.7854
X4.1831Y-5.7854
T0
M30
