%TF.GenerationSoftware,KiCad,Pcbnew,(6.0.1)*%
%TF.CreationDate,2023-03-14T21:46:10-07:00*%
%TF.ProjectId,pipes_sub,70697065-735f-4737-9562-2e6b69636164,rev?*%
%TF.SameCoordinates,Original*%
%TF.FileFunction,Copper,L1,Top*%
%TF.FilePolarity,Positive*%
%FSLAX46Y46*%
G04 Gerber Fmt 4.6, Leading zero omitted, Abs format (unit mm)*
G04 Created by KiCad (PCBNEW (6.0.1)) date 2023-03-14 21:46:10*
%MOMM*%
%LPD*%
G01*
G04 APERTURE LIST*
G04 Aperture macros list*
%AMRoundRect*
0 Rectangle with rounded corners*
0 $1 Rounding radius*
0 $2 $3 $4 $5 $6 $7 $8 $9 X,Y pos of 4 corners*
0 Add a 4 corners polygon primitive as box body*
4,1,4,$2,$3,$4,$5,$6,$7,$8,$9,$2,$3,0*
0 Add four circle primitives for the rounded corners*
1,1,$1+$1,$2,$3*
1,1,$1+$1,$4,$5*
1,1,$1+$1,$6,$7*
1,1,$1+$1,$8,$9*
0 Add four rect primitives between the rounded corners*
20,1,$1+$1,$2,$3,$4,$5,0*
20,1,$1+$1,$4,$5,$6,$7,0*
20,1,$1+$1,$6,$7,$8,$9,0*
20,1,$1+$1,$8,$9,$2,$3,0*%
G04 Aperture macros list end*
%TA.AperFunction,ComponentPad*%
%ADD10RoundRect,0.287500X-0.287500X-0.287500X0.287500X-0.287500X0.287500X0.287500X-0.287500X0.287500X0*%
%TD*%
%TA.AperFunction,ComponentPad*%
%ADD11C,1.150000*%
%TD*%
%TA.AperFunction,SMDPad,CuDef*%
%ADD12R,3.150000X1.000000*%
%TD*%
%TA.AperFunction,ComponentPad*%
%ADD13C,2.800000*%
%TD*%
%TA.AperFunction,ViaPad*%
%ADD14C,0.450000*%
%TD*%
%TA.AperFunction,ViaPad*%
%ADD15C,0.800000*%
%TD*%
%TA.AperFunction,Conductor*%
%ADD16C,0.400000*%
%TD*%
%TA.AperFunction,Conductor*%
%ADD17C,0.200000*%
%TD*%
%TA.AperFunction,Conductor*%
%ADD18C,0.120000*%
%TD*%
%TA.AperFunction,Conductor*%
%ADD19C,0.250000*%
%TD*%
G04 APERTURE END LIST*
D10*
%TO.P,U26,1,-*%
%TO.N,Net-(U26-Pad1)*%
X65170000Y-124600000D03*
D11*
%TO.P,U26,2,+*%
%TO.N,Net-(R54-Pad1)*%
X65170000Y-128400000D03*
%TO.P,U26,3*%
%TO.N,Net-(R59-Pad2)*%
X80170000Y-123960000D03*
%TO.P,U26,4*%
%TO.N,Net-(R53-Pad2)*%
X80170000Y-129040000D03*
%TD*%
D10*
%TO.P,U27,1,-*%
%TO.N,Net-(U27-Pad1)*%
X65170000Y-86600000D03*
D11*
%TO.P,U27,2,+*%
%TO.N,Net-(R56-Pad1)*%
X65170000Y-90400000D03*
%TO.P,U27,3*%
%TO.N,Net-(R60-Pad2)*%
X80170000Y-85960000D03*
%TO.P,U27,4*%
%TO.N,Net-(R55-Pad2)*%
X80170000Y-91040000D03*
%TD*%
D10*
%TO.P,U21,1,-*%
%TO.N,Net-(U21-Pad1)*%
X65170000Y-74600000D03*
D11*
%TO.P,U21,2,+*%
%TO.N,Net-(R47-Pad1)*%
X65170000Y-78400000D03*
%TO.P,U21,3*%
%TO.N,Net-(R51-Pad2)*%
X80170000Y-73960000D03*
%TO.P,U21,4*%
%TO.N,Net-(R46-Pad2)*%
X80170000Y-79040000D03*
%TD*%
D10*
%TO.P,U22,1,-*%
%TO.N,Net-(U22-Pad1)*%
X65170000Y-50600000D03*
D11*
%TO.P,U22,2,+*%
%TO.N,Net-(R49-Pad1)*%
X65170000Y-54400000D03*
%TO.P,U22,3*%
%TO.N,Net-(R52-Pad2)*%
X80170000Y-49960000D03*
%TO.P,U22,4*%
%TO.N,Net-(R48-Pad2)*%
X80170000Y-55040000D03*
%TD*%
D10*
%TO.P,U20,1,-*%
%TO.N,Net-(U20-Pad1)*%
X65170000Y-112600000D03*
D11*
%TO.P,U20,2,+*%
%TO.N,Net-(R45-Pad1)*%
X65170000Y-116400000D03*
%TO.P,U20,3*%
%TO.N,Net-(R50-Pad2)*%
X80170000Y-111960000D03*
%TO.P,U20,4*%
%TO.N,Net-(R44-Pad2)*%
X80170000Y-117040000D03*
%TD*%
D10*
%TO.P,U28,1,-*%
%TO.N,Net-(U28-Pad1)*%
X65170000Y-62600000D03*
D11*
%TO.P,U28,2,+*%
%TO.N,Net-(R58-Pad1)*%
X65170000Y-66400000D03*
%TO.P,U28,3*%
%TO.N,Net-(R61-Pad2)*%
X80170000Y-61960000D03*
%TO.P,U28,4*%
%TO.N,Net-(R57-Pad2)*%
X80170000Y-67040000D03*
%TD*%
D10*
%TO.P,U33,1,-*%
%TO.N,Net-(U33-Pad1)*%
X65170000Y-100600000D03*
D11*
%TO.P,U33,2,+*%
%TO.N,Net-(R65-Pad1)*%
X65170000Y-104400000D03*
%TO.P,U33,3*%
%TO.N,Net-(R67-Pad2)*%
X80170000Y-99960000D03*
%TO.P,U33,4*%
%TO.N,Net-(R64-Pad2)*%
X80170000Y-105040000D03*
%TD*%
D10*
%TO.P,U32,1,-*%
%TO.N,Net-(U32-Pad1)*%
X65170000Y-136600000D03*
D11*
%TO.P,U32,2,+*%
%TO.N,Net-(R63-Pad1)*%
X65170000Y-140400000D03*
%TO.P,U32,3*%
%TO.N,Net-(R66-Pad2)*%
X80170000Y-135960000D03*
%TO.P,U32,4*%
%TO.N,Net-(R62-Pad2)*%
X80170000Y-141040000D03*
%TD*%
D12*
%TO.P,J4,1,Pin_1*%
%TO.N,VCA1*%
X57725000Y-105080000D03*
%TO.P,J4,2,Pin_2*%
%TO.N,VCA2*%
X52675000Y-105080000D03*
%TO.P,J4,3,Pin_3*%
%TO.N,VCA3*%
X57725000Y-102540000D03*
%TO.P,J4,4,Pin_4*%
%TO.N,VCA4*%
X52675000Y-102540000D03*
%TO.P,J4,5,Pin_5*%
%TO.N,VCA5*%
X57725000Y-100000000D03*
%TO.P,J4,6,Pin_6*%
%TO.N,VCA6*%
X52675000Y-100000000D03*
%TO.P,J4,7,Pin_7*%
%TO.N,VCA7*%
X57725000Y-97460000D03*
%TO.P,J4,8,Pin_8*%
%TO.N,VCA8*%
X52675000Y-97460000D03*
%TO.P,J4,9,Pin_9*%
%TO.N,GND*%
X57725000Y-94920000D03*
%TO.P,J4,10,Pin_10*%
X52675000Y-94920000D03*
%TD*%
%TO.P,J1,1,Pin_1*%
%TO.N,GND*%
X52675000Y-61110000D03*
%TO.P,J1,2,Pin_2*%
%TO.N,+9V*%
X57725000Y-61110000D03*
%TO.P,J1,3,Pin_3*%
%TO.N,1f*%
X52675000Y-63650000D03*
%TO.P,J1,4,Pin_4*%
%TO.N,2f*%
X57725000Y-63650000D03*
%TO.P,J1,5,Pin_5*%
%TO.N,3f*%
X52675000Y-66190000D03*
%TO.P,J1,6,Pin_6*%
%TO.N,4f*%
X57725000Y-66190000D03*
%TO.P,J1,7,Pin_7*%
%TO.N,5f*%
X52675000Y-68730000D03*
%TO.P,J1,8,Pin_8*%
%TO.N,6f*%
X57725000Y-68730000D03*
%TO.P,J1,9,Pin_9*%
%TO.N,7f*%
X52675000Y-71270000D03*
%TO.P,J1,10,Pin_10*%
%TO.N,8f*%
X57725000Y-71270000D03*
%TO.P,J1,11,Pin_11*%
%TO.N,SIG*%
X52675000Y-73810000D03*
%TO.P,J1,12,Pin_12*%
%TO.N,+5V*%
X57725000Y-73810000D03*
%TO.P,J1,13,Pin_13*%
%TO.N,+12V*%
X52675000Y-76350000D03*
%TO.P,J1,14,Pin_14*%
%TO.N,-12V*%
X57725000Y-76350000D03*
%TO.P,J1,15,Pin_15*%
%TO.N,GND*%
X52675000Y-78890000D03*
%TO.P,J1,16,Pin_16*%
X57725000Y-78890000D03*
%TD*%
D13*
%TO.P,TP1,1,1*%
%TO.N,GND*%
X106250000Y-146950000D03*
%TD*%
%TO.P,TP2,1,1*%
%TO.N,GND*%
X45230000Y-146950000D03*
%TD*%
D14*
%TO.N,+12V*%
X98433750Y-49466250D03*
X42692520Y-70647480D03*
X49301250Y-131301250D03*
X97800000Y-104700000D03*
X42295000Y-45675000D03*
X98875000Y-45675000D03*
X42740000Y-120090000D03*
X97800000Y-88700000D03*
X42900000Y-95870000D03*
X42690000Y-108120000D03*
X97800000Y-62300000D03*
X54100000Y-130650000D03*
X42692520Y-76307480D03*
X42860000Y-132050000D03*
X42550000Y-82240000D03*
X42985000Y-59355000D03*
X97800000Y-133500000D03*
%TO.N,-12V*%
X44980000Y-75060000D03*
X44940000Y-101130000D03*
X99695000Y-108505000D03*
X49800000Y-113700000D03*
X48000000Y-89700000D03*
X51100000Y-124400000D03*
X44940000Y-102200000D03*
X44950000Y-87110000D03*
X44940000Y-121180000D03*
X44960000Y-114000000D03*
X106000000Y-53515000D03*
X44950000Y-88300000D03*
X49900000Y-121170000D03*
X48000000Y-115700000D03*
X44940000Y-113130000D03*
X55150000Y-112350000D03*
X99680489Y-137350000D03*
X44985000Y-50355000D03*
X99680489Y-92419511D03*
X44940000Y-125220000D03*
X44940000Y-137160000D03*
X99700000Y-66105000D03*
X44985000Y-63185000D03*
X47600000Y-103700000D03*
%TO.N,OSC6*%
X95000000Y-110100000D03*
X95000000Y-109600000D03*
X82300000Y-110100000D03*
X80900000Y-113400000D03*
X95325000Y-106475000D03*
%TO.N,OSC3*%
X102450000Y-77850000D03*
X102450000Y-88650000D03*
X79080000Y-77120000D03*
%TO.N,OSC1*%
X70500000Y-61100000D03*
X102700000Y-62300000D03*
%TO.N,OSC7*%
X80950000Y-125850000D03*
X102450000Y-133500000D03*
X102450000Y-125850000D03*
%TO.N,OSC4*%
X78112500Y-90300000D03*
X95075000Y-89675000D03*
%TO.N,OSC2*%
X79100000Y-65300000D03*
X96200000Y-67200000D03*
X96600000Y-64100000D03*
%TO.N,OSC8*%
X93550000Y-135550000D03*
X78150000Y-138000000D03*
%TO.N,Net-(R6-Pad1)*%
X76475000Y-52725000D03*
X88955000Y-50895000D03*
%TO.N,SIG*%
X85450000Y-61800000D03*
X61000000Y-64450000D03*
X103355000Y-49705000D03*
X61000000Y-67400000D03*
X54800000Y-67400000D03*
X54800000Y-72700000D03*
X85450000Y-50100000D03*
%TO.N,SIG1*%
X96065000Y-51235000D03*
X41240000Y-55580000D03*
X93600000Y-57700000D03*
%TO.N,SIG2*%
X96065000Y-52935000D03*
X41250000Y-68430000D03*
X95200000Y-68569521D03*
%TO.N,SIG3*%
X94500000Y-80250000D03*
X41310000Y-80200000D03*
X96075000Y-54725000D03*
%TO.N,SIG4*%
X93200000Y-94400000D03*
X41280000Y-92220000D03*
X97150000Y-56800000D03*
%TO.N,SIG5*%
X100790000Y-102610000D03*
X100790000Y-60100000D03*
X41270000Y-106300000D03*
%TO.N,SIG6*%
X102350000Y-58300000D03*
X41320000Y-118240000D03*
X101925489Y-118875489D03*
%TO.N,SIG7*%
X103950000Y-122650000D03*
X103920000Y-57600000D03*
X43445000Y-122625000D03*
%TO.N,Net-(R47-Pad1)*%
X49220000Y-72520000D03*
%TO.N,Net-(R49-Pad1)*%
X49121069Y-54371069D03*
X49121069Y-47778931D03*
%TO.N,Net-(R50-Pad2)*%
X43795000Y-111855000D03*
X44140000Y-116640000D03*
%TO.N,Net-(R51-Pad2)*%
X44140000Y-78570000D03*
X44140000Y-73750000D03*
%TO.N,Net-(R52-Pad2)*%
X42339511Y-56740489D03*
X43670000Y-49090000D03*
X42310359Y-49629641D03*
%TO.N,Net-(R56-Pad1)*%
X47720000Y-84590000D03*
%TO.N,Net-(R58-Pad1)*%
X47707500Y-60047500D03*
X63947500Y-60047500D03*
%TO.N,Net-(R59-Pad2)*%
X44300000Y-128700000D03*
X43415000Y-123895000D03*
%TO.N,Net-(R60-Pad2)*%
X44210000Y-90760000D03*
X44260000Y-85720000D03*
%TO.N,Net-(R61-Pad2)*%
X72799652Y-61999652D03*
X44120000Y-66750000D03*
X44180000Y-61760000D03*
X72769511Y-65430489D03*
%TO.N,Net-(R66-Pad2)*%
X42990000Y-135880000D03*
X44280000Y-140650000D03*
%TO.N,Net-(R67-Pad2)*%
X43815000Y-99855000D03*
X44300000Y-104700000D03*
%TO.N,OSC5*%
X102505000Y-104695000D03*
X79150000Y-103150000D03*
%TO.N,1f*%
X66450000Y-52500000D03*
X54650000Y-52500000D03*
X54600000Y-63650000D03*
%TO.N,2f*%
X68100000Y-63500000D03*
%TO.N,3f*%
X70825000Y-76525000D03*
X54790000Y-66190000D03*
X54700000Y-77100000D03*
%TO.N,4f*%
X70675000Y-89025000D03*
X63325489Y-88975489D03*
X59940000Y-66190000D03*
%TO.N,5f*%
X52064022Y-95935978D03*
X70800000Y-102450000D03*
X52675000Y-67625000D03*
%TO.N,6f*%
X57725000Y-69625000D03*
X60700000Y-115050000D03*
X70795000Y-115025000D03*
%TO.N,Net-(R141-Pad2)*%
X95200000Y-57200000D03*
X99000000Y-58500000D03*
X92100000Y-53400000D03*
X98935000Y-63565000D03*
X92100000Y-50900000D03*
X92130000Y-48370000D03*
%TO.N,7f*%
X52675000Y-70275000D03*
X70795000Y-127505000D03*
X48550000Y-127500000D03*
%TO.N,8f*%
X61700000Y-139450000D03*
X60400000Y-87200000D03*
X70745000Y-140005000D03*
X55050000Y-87200000D03*
X55370000Y-71270000D03*
%TO.N,SIG8*%
X105500000Y-57600000D03*
X42965000Y-134615000D03*
X105750000Y-134750000D03*
%TO.N,VCA1*%
X50890000Y-47210000D03*
X56450000Y-104050000D03*
%TO.N,VCA2*%
X50900000Y-59300000D03*
X50080978Y-105080978D03*
%TO.N,VCA3*%
X55400000Y-100250000D03*
X51539511Y-93700000D03*
X50970000Y-72520000D03*
X55400000Y-93700000D03*
X57750000Y-101600000D03*
%TO.N,VCA4*%
X50900000Y-84590000D03*
X50650000Y-102500000D03*
%TO.N,VCA5*%
X51200000Y-98600000D03*
%TO.N,VCA6*%
X54600000Y-100000000D03*
X52400000Y-110600000D03*
%TO.N,VCA7*%
X53100000Y-123150000D03*
X59740000Y-97460000D03*
%TO.N,VCA8*%
X51580000Y-135150000D03*
X54900000Y-97460000D03*
%TO.N,Net-(R142-Pad2)*%
X98850000Y-83150000D03*
X98825000Y-89925000D03*
X94225000Y-83125000D03*
%TO.N,Net-(R1-Pad2)*%
X102360000Y-54350000D03*
X103450000Y-51000000D03*
%TO.N,Net-(R145-Pad2)*%
X102600000Y-64850000D03*
X98435000Y-64835000D03*
%TO.N,Net-(R8-Pad1)*%
X84100000Y-55975000D03*
X91950000Y-56950000D03*
%TO.N,Net-(R18-Pad1)*%
X78775480Y-74924520D03*
X86275480Y-74924520D03*
%TO.N,Net-(R141-Pad1)*%
X87350000Y-58900000D03*
X82725000Y-58225000D03*
%TO.N,Net-(R19-Pad1)*%
X88850000Y-76850000D03*
X91750000Y-76850000D03*
%TO.N,Net-(R22-Pad1)*%
X91850000Y-81800000D03*
X83954520Y-81345480D03*
%TO.N,+9V*%
X98000000Y-48000000D03*
X84115000Y-73055000D03*
X83850000Y-112040000D03*
X70720000Y-87740000D03*
X70815000Y-138705000D03*
X84030000Y-136550000D03*
D15*
X82640000Y-98030000D03*
D14*
X70835000Y-101125000D03*
X84115000Y-85555000D03*
X70775000Y-51425000D03*
X70885000Y-126205000D03*
X81245000Y-48355000D03*
X70925000Y-113725000D03*
X84100000Y-60300000D03*
X84075000Y-124035000D03*
X70675000Y-75225000D03*
X70785000Y-62725000D03*
%TO.N,Net-(R72-Pad1)*%
X88825000Y-74325000D03*
X91800000Y-74300000D03*
%TO.N,Net-(R75-Pad1)*%
X91700000Y-79300000D03*
X88950000Y-79350000D03*
%TO.N,Net-(R143-Pad1)*%
X84650000Y-58350000D03*
X84045000Y-54705000D03*
X90450000Y-58250000D03*
%TO.N,Net-(R144-Pad1)*%
X84650000Y-82800000D03*
X83955000Y-79405000D03*
%TO.N,Net-(R87-Pad1)*%
X88875000Y-61825000D03*
X91900000Y-61800000D03*
%TO.N,Net-(R145-Pad1)*%
X86475000Y-71875000D03*
X82635000Y-70135000D03*
%TO.N,Net-(R90-Pad1)*%
X88795000Y-66905000D03*
X91900000Y-66900000D03*
%TO.N,Net-(R92-Pad1)*%
X91750000Y-86750000D03*
X88925000Y-86825000D03*
%TO.N,Net-(R95-Pad1)*%
X88945000Y-91905000D03*
X91800000Y-91800000D03*
%TO.N,Net-(R99-Pad1)*%
X76475000Y-102425000D03*
X86305000Y-101495000D03*
%TO.N,Net-(R146-Pad1)*%
X82635000Y-95085000D03*
X85750000Y-97400000D03*
%TO.N,Net-(U20-Pad1)*%
X47785000Y-109315000D03*
%TO.N,Net-(U21-Pad1)*%
X47593000Y-71247000D03*
%TO.N,Net-(U22-Pad1)*%
X47764520Y-46435480D03*
%TO.N,Net-(U26-Pad1)*%
X47630000Y-121790000D03*
%TO.N,Net-(U32-Pad1)*%
X47715000Y-133345000D03*
%TO.N,Net-(U33-Pad1)*%
X47825000Y-97315000D03*
%TO.N,Net-(R48-Pad2)*%
X75725000Y-60275000D03*
%TO.N,Net-(R20-Pad2)*%
X63150000Y-120550000D03*
X69275000Y-120525000D03*
X63150000Y-130850000D03*
%TO.N,Net-(R21-Pad2)*%
X62750000Y-83150000D03*
X69175000Y-83025000D03*
%TO.N,Net-(R29-Pad2)*%
X62900000Y-95000000D03*
X69400000Y-95000000D03*
%TO.N,Net-(R30-Pad2)*%
X63850000Y-70650000D03*
X69185000Y-69785000D03*
%TO.N,Net-(R31-Pad2)*%
X68975000Y-132875000D03*
X63900000Y-133550000D03*
%TO.N,Net-(R39-Pad2)*%
X69075000Y-107875000D03*
X63750000Y-105800000D03*
%TO.N,Net-(R100-Pad1)*%
X91800000Y-102750000D03*
X88950000Y-102800000D03*
%TO.N,Net-(R101-Pad1)*%
X91750000Y-107850000D03*
X83725480Y-107174520D03*
%TO.N,Net-(R103-Pad1)*%
X77046891Y-126646891D03*
X85600000Y-126575000D03*
%TO.N,Net-(R103-Pad2)*%
X99050000Y-134800000D03*
X94200000Y-133700000D03*
X91175000Y-132475000D03*
%TO.N,Net-(R104-Pad1)*%
X88995000Y-127845000D03*
X91750000Y-127850000D03*
%TO.N,Net-(R105-Pad1)*%
X90750000Y-133100000D03*
X83850000Y-132325480D03*
%TO.N,Net-(R79-Pad1)*%
X76450000Y-64030000D03*
X86395000Y-63095000D03*
%TO.N,Net-(R80-Pad1)*%
X91900000Y-64300000D03*
X88765000Y-64365000D03*
%TO.N,Net-(R81-Pad1)*%
X82635000Y-67635000D03*
X91600000Y-69400000D03*
%TO.N,Net-(R83-Pad1)*%
X86205000Y-88095000D03*
X76575000Y-89025000D03*
%TO.N,Net-(R84-Pad1)*%
X88915000Y-89365000D03*
X91800000Y-89200000D03*
%TO.N,Net-(R85-Pad1)*%
X88750000Y-95850000D03*
X83500359Y-93699641D03*
%TO.N,Net-(R107-Pad1)*%
X88925000Y-100225000D03*
X91900000Y-100150000D03*
%TO.N,Net-(R110-Pad1)*%
X91750000Y-105250000D03*
X88895000Y-105305000D03*
%TO.N,Net-(R112-Pad1)*%
X88845000Y-125305000D03*
X91800000Y-125250000D03*
%TO.N,Net-(R115-Pad1)*%
X91750000Y-130350000D03*
X88985000Y-130385000D03*
%TO.N,Net-(R119-Pad1)*%
X86225000Y-139075000D03*
X74405000Y-140005000D03*
%TO.N,Net-(R119-Pad2)*%
X94772141Y-137172141D03*
X103125000Y-137425000D03*
%TO.N,Net-(R120-Pad1)*%
X88895000Y-140345000D03*
X91850000Y-140300000D03*
%TO.N,Net-(R121-Pad1)*%
X83750000Y-144754520D03*
X91850000Y-145400000D03*
%TO.N,Net-(R123-Pad1)*%
X85600000Y-114700000D03*
X76575000Y-115025000D03*
%TO.N,Net-(R123-Pad2)*%
X97075000Y-112175000D03*
X103125000Y-112175000D03*
X96950000Y-109400000D03*
X97125000Y-107725000D03*
X103175000Y-108575000D03*
%TO.N,Net-(R124-Pad1)*%
X88935000Y-115865000D03*
X91800000Y-115850000D03*
%TO.N,Net-(R125-Pad1)*%
X83875480Y-120274520D03*
X91750000Y-120850000D03*
%TO.N,Net-(R127-Pad1)*%
X91750000Y-137750000D03*
X88905000Y-137805000D03*
%TO.N,Net-(R130-Pad1)*%
X91800000Y-142850000D03*
X88950000Y-142900000D03*
%TO.N,Net-(R132-Pad1)*%
X91850000Y-113250000D03*
X88875000Y-113325000D03*
%TO.N,Net-(R135-Pad1)*%
X91800000Y-118350000D03*
X89050000Y-118250000D03*
%TO.N,Net-(R147-Pad1)*%
X83945000Y-70295000D03*
X90350000Y-70350000D03*
X83945000Y-66905000D03*
%TO.N,Net-(R148-Pad1)*%
X83895000Y-91905000D03*
X88850000Y-96700000D03*
X84024870Y-96625130D03*
%TO.N,Net-(U5-Pad4)*%
X81205000Y-75595000D03*
X76475000Y-77175000D03*
%TO.N,Net-(R149-Pad1)*%
X85800000Y-109450000D03*
X83170000Y-108380000D03*
%TO.N,Net-(U10-Pad4)*%
X77100000Y-89675000D03*
X81200000Y-88095000D03*
%TO.N,Net-(U11-Pad4)*%
X76600000Y-64675000D03*
X81200000Y-63100000D03*
%TO.N,Net-(U12-Pad4)*%
X81350000Y-127250000D03*
X76445000Y-128155000D03*
%TO.N,Net-(R151-Pad1)*%
X83955000Y-105305000D03*
X84500000Y-108850000D03*
%TO.N,Net-(R152-Pad1)*%
X84374511Y-133575489D03*
X84235000Y-130385000D03*
%TO.N,Net-(U17-Pad4)*%
X81305000Y-101495000D03*
X76925000Y-103075000D03*
%TO.N,Net-(R155-Pad1)*%
X84635000Y-142885000D03*
X84635000Y-146935000D03*
%TO.N,Net-(R156-Pad1)*%
X84550000Y-121900000D03*
X84350000Y-119550000D03*
D15*
%TO.N,GND*%
X55190000Y-61110000D03*
X55210000Y-78890000D03*
D14*
X57700000Y-93600000D03*
%TO.N,Net-(U4-Pad4)*%
X81400000Y-113950000D03*
X76925000Y-115675000D03*
%TO.N,Net-(R45-Pad1)*%
X47730000Y-110600000D03*
%TO.N,Net-(R54-Pad1)*%
X49100000Y-123180000D03*
%TO.N,Net-(R63-Pad1)*%
X49220000Y-135140000D03*
%TO.N,Net-(R65-Pad1)*%
X47705000Y-98585000D03*
%TO.N,Net-(U16-Pad4)*%
X81250000Y-138650000D03*
X76495000Y-140655000D03*
%TO.N,Net-(U27-Pad1)*%
X47860000Y-83440000D03*
%TO.N,Net-(U28-Pad1)*%
X47585000Y-59355000D03*
%TO.N,Net-(R139-Pad1)*%
X100425000Y-48775000D03*
X99800000Y-51700000D03*
%TO.N,-9V*%
X106600000Y-63500000D03*
X106600000Y-106750000D03*
X106600000Y-94250000D03*
X106600000Y-90200000D03*
X104825000Y-106775000D03*
X96750000Y-94250000D03*
X104775000Y-135825000D03*
X106300000Y-48000000D03*
%TD*%
D16*
%TO.N,+12V*%
X52675000Y-76350000D02*
X42750000Y-76350000D01*
X49952500Y-130650000D02*
X54100000Y-130650000D01*
X49301250Y-131301250D02*
X49952500Y-130650000D01*
%TO.N,-12V*%
X44980000Y-75060000D02*
X54259022Y-75060000D01*
X55549022Y-76350000D02*
X57725000Y-76350000D01*
X54259022Y-75060000D02*
X55549022Y-76350000D01*
X48000000Y-115700000D02*
X46660000Y-115700000D01*
X46660000Y-115700000D02*
X44960000Y-114000000D01*
X46600000Y-88300000D02*
X48000000Y-89700000D01*
X44950000Y-88300000D02*
X46600000Y-88300000D01*
X46440000Y-103700000D02*
X44940000Y-102200000D01*
X47600000Y-103700000D02*
X46440000Y-103700000D01*
D17*
%TO.N,OSC3*%
X79080000Y-77120000D02*
X79810000Y-77850000D01*
X79810000Y-77850000D02*
X102450000Y-77850000D01*
D18*
%TO.N,OSC1*%
X102700000Y-62300000D02*
X101485489Y-61085489D01*
X70514511Y-61085489D02*
X70500000Y-61100000D01*
X101485489Y-61085489D02*
X70514511Y-61085489D01*
D17*
%TO.N,OSC2*%
X93000000Y-67200000D02*
X96200000Y-67200000D01*
X79100000Y-65300000D02*
X91006416Y-65300000D01*
X91006416Y-65300000D02*
X93000000Y-67200000D01*
%TO.N,Net-(R6-Pad1)*%
X76475000Y-52725000D02*
X87125000Y-52725000D01*
X87125000Y-52725000D02*
X88955000Y-50895000D01*
%TO.N,SIG*%
X102960000Y-50100000D02*
X103355000Y-49705000D01*
X85450000Y-50100000D02*
X102960000Y-50100000D01*
D18*
X53785000Y-72700000D02*
X54800000Y-72700000D01*
X54800000Y-67400000D02*
X61000000Y-67400000D01*
X52675000Y-73810000D02*
X53785000Y-72700000D01*
%TO.N,Net-(R47-Pad1)*%
X61370000Y-74600000D02*
X65170000Y-78400000D01*
X50870978Y-74600000D02*
X61370000Y-74600000D01*
X49220000Y-72949022D02*
X50870978Y-74600000D01*
X49220000Y-72520000D02*
X49220000Y-72949022D01*
D17*
%TO.N,Net-(R49-Pad1)*%
X49121069Y-54371069D02*
X49150000Y-54400000D01*
X49150000Y-54400000D02*
X65170000Y-54400000D01*
%TO.N,Net-(R56-Pad1)*%
X53530000Y-90400000D02*
X65170000Y-90400000D01*
X47720000Y-84590000D02*
X53530000Y-90400000D01*
D18*
%TO.N,Net-(R61-Pad2)*%
X44120000Y-66750000D02*
X45439511Y-65430489D01*
X72800000Y-61960000D02*
X80170000Y-61960000D01*
X45439511Y-65430489D02*
X72769511Y-65430489D01*
X72799652Y-61999652D02*
X72800000Y-61960000D01*
D17*
%TO.N,OSC5*%
X101134511Y-103324511D02*
X102505000Y-104695000D01*
X79324511Y-103324511D02*
X101134511Y-103324511D01*
X79150000Y-103150000D02*
X79324511Y-103324511D01*
%TO.N,1f*%
X54650000Y-52500000D02*
X66425000Y-52525000D01*
X52675000Y-63650000D02*
X54600000Y-63650000D01*
D18*
%TO.N,2f*%
X57725000Y-63650000D02*
X67950000Y-63650000D01*
X67950000Y-63650000D02*
X68100000Y-63500000D01*
D17*
%TO.N,3f*%
X52675000Y-66190000D02*
X54790000Y-66190000D01*
%TO.N,4f*%
X63375000Y-89025000D02*
X70675000Y-89025000D01*
X57725000Y-66190000D02*
X59940000Y-66190000D01*
X63325489Y-88975489D02*
X63375000Y-89025000D01*
%TO.N,5f*%
X64285978Y-95935978D02*
X70800000Y-102450000D01*
X52675000Y-68730000D02*
X52675000Y-67625000D01*
X52064022Y-95935978D02*
X64285978Y-95935978D01*
%TO.N,6f*%
X57725000Y-68730000D02*
X57725000Y-69625000D01*
X70770000Y-115050000D02*
X70795000Y-115025000D01*
X60700000Y-115050000D02*
X70770000Y-115050000D01*
%TO.N,Net-(R141-Pad2)*%
X95200000Y-57200000D02*
X96600000Y-58500000D01*
X96600000Y-58500000D02*
X99000000Y-58500000D01*
%TO.N,7f*%
X48550000Y-127500000D02*
X50324511Y-129274511D01*
X52675000Y-71270000D02*
X52675000Y-70275000D01*
X69025489Y-129274511D02*
X70795000Y-127505000D01*
X50324511Y-129274511D02*
X69025489Y-129274511D01*
%TO.N,8f*%
X55050000Y-87200000D02*
X60400000Y-87200000D01*
X70190000Y-139450000D02*
X70745000Y-140005000D01*
X57725000Y-71270000D02*
X55370000Y-71270000D01*
X61700000Y-139450000D02*
X70190000Y-139450000D01*
%TO.N,VCA1*%
X57725000Y-105080000D02*
X56450000Y-104050000D01*
%TO.N,VCA2*%
X50081956Y-105080000D02*
X50080978Y-105080978D01*
X52675000Y-105080000D02*
X50081956Y-105080000D01*
%TO.N,VCA3*%
X57725000Y-102540000D02*
X57725000Y-101575000D01*
%TO.N,VCA4*%
X50620978Y-102540000D02*
X52675000Y-102540000D01*
X50650000Y-102500000D02*
X50620978Y-102540000D01*
%TO.N,VCA5*%
X56305000Y-98580000D02*
X57725000Y-100000000D01*
X51200000Y-98600000D02*
X56305000Y-98580000D01*
%TO.N,VCA6*%
X52675000Y-100000000D02*
X54600000Y-100000000D01*
D18*
%TO.N,VCA7*%
X57725000Y-97460000D02*
X59740000Y-97460000D01*
D17*
%TO.N,VCA8*%
X52675000Y-97460000D02*
X54900000Y-97460000D01*
%TO.N,Net-(R142-Pad2)*%
X94250000Y-83150000D02*
X98850000Y-83150000D01*
X94225000Y-83125000D02*
X94250000Y-83150000D01*
%TO.N,Net-(R145-Pad2)*%
X102600000Y-64850000D02*
X102450000Y-64835000D01*
X102450000Y-64835000D02*
X98435000Y-64835000D01*
%TO.N,Net-(R8-Pad1)*%
X86064283Y-55975000D02*
X86734763Y-56645480D01*
X89045480Y-56645480D02*
X89600000Y-56950000D01*
X84100000Y-55975000D02*
X86064283Y-55975000D01*
X89600000Y-56950000D02*
X91950000Y-56950000D01*
X86734763Y-56645480D02*
X89045480Y-56645480D01*
%TO.N,Net-(R141-Pad1)*%
X83400000Y-58900000D02*
X87350000Y-58900000D01*
X82725000Y-58225000D02*
X83400000Y-58900000D01*
%TO.N,Net-(R19-Pad1)*%
X88850000Y-76850000D02*
X91750000Y-76850000D01*
%TO.N,Net-(R22-Pad1)*%
X83954520Y-81345480D02*
X89045480Y-81345480D01*
X89045480Y-81345480D02*
X89500000Y-81800000D01*
X89500000Y-81800000D02*
X91850000Y-81800000D01*
D18*
%TO.N,+9V*%
X98000000Y-48000000D02*
X97100000Y-48900000D01*
D16*
X57725000Y-61110000D02*
X61710000Y-61110000D01*
D18*
X97100000Y-48900000D02*
X81790000Y-48900000D01*
X81790000Y-48900000D02*
X81245000Y-48355000D01*
D17*
%TO.N,Net-(R72-Pad1)*%
X88850000Y-74300000D02*
X91800000Y-74300000D01*
X88825000Y-74325000D02*
X88850000Y-74300000D01*
%TO.N,Net-(R75-Pad1)*%
X91650000Y-79350000D02*
X91700000Y-79300000D01*
X88950000Y-79350000D02*
X91650000Y-79350000D01*
%TO.N,Net-(R143-Pad1)*%
X90350000Y-58350000D02*
X90450000Y-58250000D01*
X84650000Y-58350000D02*
X90350000Y-58350000D01*
%TO.N,Net-(R87-Pad1)*%
X88875000Y-61825000D02*
X88900000Y-61800000D01*
X88900000Y-61800000D02*
X91900000Y-61800000D01*
%TO.N,Net-(R145-Pad1)*%
X84375000Y-71875000D02*
X86475000Y-71875000D01*
X82635000Y-70135000D02*
X84375000Y-71875000D01*
%TO.N,Net-(R90-Pad1)*%
X91895000Y-66905000D02*
X91900000Y-66900000D01*
X88795000Y-66905000D02*
X91895000Y-66905000D01*
%TO.N,Net-(R92-Pad1)*%
X89000000Y-86750000D02*
X91750000Y-86750000D01*
X88925000Y-86825000D02*
X89000000Y-86750000D01*
%TO.N,Net-(R95-Pad1)*%
X88945000Y-91905000D02*
X91695000Y-91905000D01*
X91695000Y-91905000D02*
X91800000Y-91800000D01*
%TO.N,Net-(U20-Pad1)*%
X47785000Y-109315000D02*
X54885000Y-109315000D01*
X54885000Y-109315000D02*
X58170000Y-112600000D01*
X58170000Y-112600000D02*
X65170000Y-112600000D01*
D18*
%TO.N,Net-(U21-Pad1)*%
X48375511Y-72029511D02*
X62599511Y-72029511D01*
X62599511Y-72029511D02*
X65170000Y-74600000D01*
X47593000Y-71247000D02*
X48375511Y-72029511D01*
D17*
%TO.N,Net-(U22-Pad1)*%
X54005480Y-46435480D02*
X58170000Y-50600000D01*
X47764520Y-46435480D02*
X54005480Y-46435480D01*
X65170000Y-50600000D02*
X58170000Y-50600000D01*
%TO.N,Net-(U26-Pad1)*%
X47630000Y-121790000D02*
X55360000Y-121790000D01*
X55360000Y-121790000D02*
X58170000Y-124600000D01*
X58170000Y-124600000D02*
X65170000Y-124600000D01*
%TO.N,Net-(U32-Pad1)*%
X58170000Y-136600000D02*
X65170000Y-136600000D01*
X54915000Y-133345000D02*
X58170000Y-136600000D01*
X47715000Y-133345000D02*
X54915000Y-133345000D01*
%TO.N,Net-(U33-Pad1)*%
X47825000Y-97315000D02*
X48479511Y-96660489D01*
X48479511Y-96660489D02*
X61230489Y-96660489D01*
X61230489Y-96660489D02*
X65170000Y-100600000D01*
%TO.N,Net-(R20-Pad2)*%
X63150000Y-120550000D02*
X63300000Y-120525000D01*
X63300000Y-120525000D02*
X69300000Y-120525000D01*
%TO.N,Net-(R21-Pad2)*%
X62875000Y-83025000D02*
X69175000Y-83025000D01*
%TO.N,Net-(R29-Pad2)*%
X62900000Y-95000000D02*
X69400000Y-95000000D01*
%TO.N,Net-(R30-Pad2)*%
X63850000Y-70650000D02*
X64715000Y-69785000D01*
X64715000Y-69785000D02*
X69185000Y-69785000D01*
D19*
%TO.N,Net-(R31-Pad2)*%
X64675000Y-132875000D02*
X68975000Y-132875000D01*
X63900000Y-133550000D02*
X64612500Y-132875000D01*
D17*
%TO.N,Net-(R39-Pad2)*%
X67000000Y-105800000D02*
X69075000Y-107875000D01*
X63750000Y-105800000D02*
X67000000Y-105800000D01*
%TO.N,Net-(R100-Pad1)*%
X89000000Y-102750000D02*
X91800000Y-102750000D01*
X88950000Y-102800000D02*
X89000000Y-102750000D01*
%TO.N,Net-(R101-Pad1)*%
X89600000Y-107850000D02*
X91750000Y-107850000D01*
X83725480Y-107174520D02*
X88924520Y-107174520D01*
X88924520Y-107174520D02*
X89600000Y-107850000D01*
%TO.N,Net-(R103-Pad2)*%
X99050000Y-134800000D02*
X95300000Y-134800000D01*
X92400000Y-133700000D02*
X94200000Y-133700000D01*
X91175000Y-132475000D02*
X92400000Y-133700000D01*
X95300000Y-134800000D02*
X94200000Y-133700000D01*
%TO.N,Net-(R104-Pad1)*%
X88995000Y-127845000D02*
X91745000Y-127845000D01*
X91745000Y-127845000D02*
X91750000Y-127850000D01*
%TO.N,Net-(R105-Pad1)*%
X89750000Y-133100000D02*
X90750000Y-133100000D01*
X88975480Y-132325480D02*
X89750000Y-133100000D01*
X83850000Y-132325480D02*
X88975480Y-132325480D01*
%TO.N,Net-(R79-Pad1)*%
X76450000Y-64030000D02*
X85460000Y-64030000D01*
X85460000Y-64030000D02*
X86395000Y-63095000D01*
%TO.N,Net-(R80-Pad1)*%
X88765000Y-64365000D02*
X88830000Y-64300000D01*
X88830000Y-64300000D02*
X91900000Y-64300000D01*
%TO.N,Net-(R81-Pad1)*%
X84400000Y-69400000D02*
X91600000Y-69400000D01*
X82635000Y-67635000D02*
X84400000Y-69400000D01*
%TO.N,Net-(R84-Pad1)*%
X91635000Y-89365000D02*
X91800000Y-89200000D01*
X88915000Y-89365000D02*
X91635000Y-89365000D01*
%TO.N,Net-(R85-Pad1)*%
X83500359Y-93699641D02*
X85650717Y-95850000D01*
X85650717Y-95850000D02*
X88750000Y-95850000D01*
%TO.N,Net-(R107-Pad1)*%
X88925000Y-100225000D02*
X89000000Y-100150000D01*
X89000000Y-100150000D02*
X91900000Y-100150000D01*
%TO.N,Net-(R110-Pad1)*%
X88895000Y-105305000D02*
X91695000Y-105305000D01*
%TO.N,Net-(R112-Pad1)*%
X91745000Y-125305000D02*
X91800000Y-125250000D01*
X88845000Y-125305000D02*
X91745000Y-125305000D01*
%TO.N,Net-(R115-Pad1)*%
X88985000Y-130385000D02*
X91715000Y-130385000D01*
X91715000Y-130385000D02*
X91750000Y-130350000D01*
%TO.N,Net-(R119-Pad2)*%
X94772141Y-137172141D02*
X95474511Y-137874511D01*
X102675489Y-137874511D02*
X103125000Y-137425000D01*
X95474511Y-137874511D02*
X102675489Y-137874511D01*
%TO.N,Net-(R120-Pad1)*%
X91805000Y-140345000D02*
X91850000Y-140300000D01*
X88895000Y-140345000D02*
X91805000Y-140345000D01*
%TO.N,Net-(R121-Pad1)*%
X89550000Y-145400000D02*
X88904520Y-144754520D01*
X91850000Y-145400000D02*
X89550000Y-145400000D01*
X88904520Y-144754520D02*
X83750000Y-144754520D01*
%TO.N,Net-(R123-Pad2)*%
X97075000Y-112175000D02*
X103125000Y-112175000D01*
%TO.N,Net-(R124-Pad1)*%
X88935000Y-115865000D02*
X88950000Y-115850000D01*
X88950000Y-115850000D02*
X91800000Y-115850000D01*
%TO.N,Net-(R125-Pad1)*%
X89500000Y-120850000D02*
X91750000Y-120850000D01*
X88924520Y-120274520D02*
X89500000Y-120850000D01*
X83875480Y-120274520D02*
X88924520Y-120274520D01*
%TO.N,Net-(R127-Pad1)*%
X88905000Y-137805000D02*
X91695000Y-137805000D01*
X91695000Y-137805000D02*
X91750000Y-137750000D01*
%TO.N,Net-(R130-Pad1)*%
X88950000Y-142900000D02*
X91750000Y-142900000D01*
X91750000Y-142900000D02*
X91800000Y-142850000D01*
%TO.N,Net-(R132-Pad1)*%
X88875000Y-113325000D02*
X91775000Y-113325000D01*
X91775000Y-113325000D02*
X91850000Y-113250000D01*
%TO.N,Net-(R135-Pad1)*%
X89050000Y-118250000D02*
X91700000Y-118250000D01*
%TO.N,Net-(R147-Pad1)*%
X83945000Y-70295000D02*
X90295000Y-70295000D01*
X90295000Y-70295000D02*
X90350000Y-70350000D01*
%TO.N,Net-(R148-Pad1)*%
X84024870Y-96625130D02*
X88775130Y-96625130D01*
X88775130Y-96625130D02*
X88850000Y-96700000D01*
%TO.N,Net-(U5-Pad4)*%
X76475000Y-77175000D02*
X78055000Y-75595000D01*
X78055000Y-75595000D02*
X81205000Y-75595000D01*
%TO.N,Net-(R149-Pad1)*%
X83170000Y-108380000D02*
X84240000Y-109450000D01*
X84240000Y-109450000D02*
X85800000Y-109450000D01*
%TO.N,Net-(U10-Pad4)*%
X77100000Y-89675000D02*
X79620000Y-89675000D01*
X79620000Y-89675000D02*
X81200000Y-88095000D01*
%TO.N,Net-(U12-Pad4)*%
X76445000Y-128155000D02*
X77350000Y-127250000D01*
X77350000Y-127250000D02*
X81350000Y-127250000D01*
%TO.N,Net-(U17-Pad4)*%
X76925000Y-103075000D02*
X78505000Y-101495000D01*
X78505000Y-101495000D02*
X81305000Y-101495000D01*
D16*
%TO.N,GND*%
X55180000Y-94920000D02*
X57725000Y-94920000D01*
X55210000Y-78890000D02*
X57725000Y-78890000D01*
X52675000Y-78890000D02*
X55210000Y-78890000D01*
X57725000Y-94920000D02*
X57725000Y-93625000D01*
X52675000Y-94920000D02*
X55180000Y-94920000D01*
X52675000Y-61110000D02*
X55190000Y-61110000D01*
D17*
%TO.N,Net-(U4-Pad4)*%
X76925000Y-115675000D02*
X78650000Y-113950000D01*
X78650000Y-113950000D02*
X81400000Y-113950000D01*
%TO.N,Net-(R45-Pad1)*%
X47730000Y-110600000D02*
X53530000Y-116400000D01*
X53530000Y-116400000D02*
X65170000Y-116400000D01*
%TO.N,Net-(R54-Pad1)*%
X54320000Y-128400000D02*
X65170000Y-128400000D01*
X49100000Y-123180000D02*
X54320000Y-128400000D01*
%TO.N,Net-(R63-Pad1)*%
X54480000Y-140400000D02*
X65170000Y-140400000D01*
X49220000Y-135140000D02*
X54480000Y-140400000D01*
%TO.N,Net-(R65-Pad1)*%
X49919511Y-100799511D02*
X61569511Y-100799511D01*
X47705000Y-98585000D02*
X49919511Y-100799511D01*
X61569511Y-100799511D02*
X65170000Y-104400000D01*
%TO.N,Net-(U16-Pad4)*%
X76495000Y-140655000D02*
X79245000Y-140655000D01*
X79245000Y-140655000D02*
X81250000Y-138650000D01*
%TO.N,Net-(U27-Pad1)*%
X47860000Y-83440000D02*
X55010000Y-83440000D01*
X55010000Y-83440000D02*
X58170000Y-86600000D01*
X58170000Y-86600000D02*
X65170000Y-86600000D01*
D18*
%TO.N,Net-(U28-Pad1)*%
X47700203Y-59355000D02*
X50945203Y-62600000D01*
X65170000Y-62600000D02*
X51100000Y-62600000D01*
X50945203Y-62600000D02*
X51100000Y-62600000D01*
X51100000Y-62600000D02*
X50909848Y-62600000D01*
X47585000Y-59355000D02*
X47700203Y-59355000D01*
D17*
%TO.N,-9V*%
X96750000Y-94250000D02*
X106600000Y-94250000D01*
X104825000Y-106775000D02*
X106575000Y-106775000D01*
X106575000Y-106775000D02*
X106600000Y-106750000D01*
%TD*%
%TA.AperFunction,Conductor*%
%TO.N,+9V*%
G36*
X76671476Y-47408712D02*
G01*
X84721140Y-47410723D01*
X84789256Y-47430742D01*
X84835736Y-47484409D01*
X84847109Y-47536877D01*
X84844595Y-49564865D01*
X84844491Y-49648513D01*
X84824402Y-49716612D01*
X84788838Y-49771797D01*
X84769114Y-49825989D01*
X84734966Y-49919809D01*
X84734965Y-49919814D01*
X84732556Y-49926432D01*
X84711931Y-50089694D01*
X84727989Y-50253468D01*
X84779932Y-50409615D01*
X84783582Y-50415642D01*
X84783583Y-50415644D01*
X84825149Y-50484278D01*
X84843373Y-50549705D01*
X84842758Y-51045822D01*
X84841591Y-51987711D01*
X84841587Y-51990656D01*
X84821500Y-52058752D01*
X84767787Y-52105178D01*
X84715587Y-52116500D01*
X76921753Y-52116500D01*
X76854238Y-52096885D01*
X76798580Y-52061563D01*
X76742251Y-52041505D01*
X76650189Y-52008723D01*
X76650187Y-52008722D01*
X76643555Y-52006361D01*
X76636569Y-52005528D01*
X76636565Y-52005527D01*
X76511845Y-51990656D01*
X76480153Y-51986877D01*
X76473150Y-51987613D01*
X76473149Y-51987613D01*
X76429935Y-51992155D01*
X76316495Y-52004078D01*
X76309827Y-52006348D01*
X76167382Y-52054840D01*
X76167379Y-52054841D01*
X76160715Y-52057110D01*
X76020555Y-52143337D01*
X75902982Y-52258473D01*
X75813838Y-52396797D01*
X75811427Y-52403420D01*
X75811426Y-52403423D01*
X75759966Y-52544809D01*
X75759965Y-52544814D01*
X75757556Y-52551432D01*
X75736931Y-52714694D01*
X75752989Y-52878468D01*
X75804932Y-53034615D01*
X75808581Y-53040640D01*
X75880175Y-53158854D01*
X75890179Y-53175373D01*
X75895070Y-53180438D01*
X75895071Y-53180439D01*
X75936234Y-53223065D01*
X76004491Y-53293747D01*
X76142189Y-53383854D01*
X76296428Y-53441215D01*
X76303409Y-53442146D01*
X76303411Y-53442147D01*
X76452561Y-53462048D01*
X76452565Y-53462048D01*
X76459542Y-53462979D01*
X76466553Y-53462341D01*
X76466557Y-53462341D01*
X76616403Y-53448704D01*
X76616404Y-53448704D01*
X76623424Y-53448065D01*
X76652062Y-53438760D01*
X76773230Y-53399390D01*
X76773233Y-53399389D01*
X76779929Y-53397213D01*
X76856997Y-53351271D01*
X76921515Y-53333500D01*
X84713766Y-53333500D01*
X84781887Y-53353502D01*
X84828380Y-53407158D01*
X84839765Y-53459654D01*
X84838901Y-54156721D01*
X84838900Y-54157899D01*
X84818813Y-54225995D01*
X84765100Y-54272421D01*
X84694814Y-54282438D01*
X84630270Y-54252865D01*
X84623791Y-54246192D01*
X84623476Y-54246505D01*
X84512486Y-54134737D01*
X84512482Y-54134734D01*
X84507522Y-54129739D01*
X84368580Y-54041563D01*
X84319447Y-54024068D01*
X84220189Y-53988723D01*
X84220187Y-53988722D01*
X84213555Y-53986361D01*
X84206569Y-53985528D01*
X84206565Y-53985527D01*
X84092071Y-53971875D01*
X84050153Y-53966877D01*
X84043150Y-53967613D01*
X84043149Y-53967613D01*
X83999935Y-53972155D01*
X83886495Y-53984078D01*
X83879827Y-53986348D01*
X83737382Y-54034840D01*
X83737379Y-54034841D01*
X83730715Y-54037110D01*
X83590555Y-54123337D01*
X83472982Y-54238473D01*
X83383838Y-54376797D01*
X83381427Y-54383420D01*
X83381426Y-54383423D01*
X83329966Y-54524809D01*
X83329965Y-54524814D01*
X83327556Y-54531432D01*
X83306931Y-54694694D01*
X83322989Y-54858468D01*
X83374932Y-55014615D01*
X83378581Y-55020640D01*
X83422550Y-55093240D01*
X83460179Y-55155373D01*
X83465070Y-55160438D01*
X83465071Y-55160439D01*
X83483447Y-55179468D01*
X83574491Y-55273747D01*
X83574228Y-55274001D01*
X83611687Y-55329452D01*
X83613314Y-55400430D01*
X83579794Y-55457735D01*
X83527982Y-55508473D01*
X83438838Y-55646797D01*
X83436427Y-55653420D01*
X83436426Y-55653423D01*
X83384966Y-55794809D01*
X83384965Y-55794814D01*
X83382556Y-55801432D01*
X83361931Y-55964694D01*
X83377989Y-56128468D01*
X83429932Y-56284615D01*
X83515179Y-56425373D01*
X83629491Y-56543747D01*
X83767189Y-56633854D01*
X83921428Y-56691215D01*
X83928409Y-56692146D01*
X83928411Y-56692147D01*
X84077561Y-56712048D01*
X84077565Y-56712048D01*
X84084542Y-56712979D01*
X84091553Y-56712341D01*
X84091557Y-56712341D01*
X84241403Y-56698704D01*
X84241404Y-56698704D01*
X84248424Y-56698065D01*
X84277062Y-56688760D01*
X84398230Y-56649390D01*
X84398233Y-56649389D01*
X84404929Y-56647213D01*
X84481997Y-56601271D01*
X84546515Y-56583500D01*
X84709736Y-56583500D01*
X84777857Y-56603502D01*
X84824350Y-56657158D01*
X84835736Y-56709656D01*
X84834766Y-57491533D01*
X84814679Y-57559629D01*
X84760966Y-57606055D01*
X84693848Y-57616491D01*
X84655153Y-57611877D01*
X84648150Y-57612613D01*
X84648149Y-57612613D01*
X84611253Y-57616491D01*
X84491495Y-57629078D01*
X84484827Y-57631348D01*
X84342382Y-57679840D01*
X84342379Y-57679841D01*
X84335715Y-57682110D01*
X84195555Y-57768337D01*
X84077982Y-57883473D01*
X83988838Y-58021797D01*
X83986427Y-58028420D01*
X83986426Y-58028423D01*
X83974400Y-58061466D01*
X83932556Y-58176432D01*
X83931673Y-58183425D01*
X83930017Y-58190268D01*
X83928217Y-58189833D01*
X83903562Y-58246367D01*
X83844503Y-58285769D01*
X83806936Y-58291500D01*
X83704239Y-58291500D01*
X83636118Y-58271498D01*
X83615144Y-58254595D01*
X83476170Y-58115621D01*
X83446037Y-58061035D01*
X83444798Y-58061466D01*
X83392998Y-57912717D01*
X83390680Y-57906060D01*
X83303476Y-57766505D01*
X83224090Y-57686563D01*
X83192486Y-57654737D01*
X83192482Y-57654734D01*
X83187522Y-57649739D01*
X83048580Y-57561563D01*
X82999447Y-57544068D01*
X82900189Y-57508723D01*
X82900187Y-57508722D01*
X82893555Y-57506361D01*
X82886569Y-57505528D01*
X82886565Y-57505527D01*
X82769200Y-57491533D01*
X82730153Y-57486877D01*
X82723150Y-57487613D01*
X82723149Y-57487613D01*
X82685854Y-57491533D01*
X82566495Y-57504078D01*
X82559827Y-57506348D01*
X82417382Y-57554840D01*
X82417379Y-57554841D01*
X82410715Y-57557110D01*
X82270555Y-57643337D01*
X82152982Y-57758473D01*
X82063838Y-57896797D01*
X82061427Y-57903420D01*
X82061426Y-57903423D01*
X82009966Y-58044809D01*
X82009965Y-58044814D01*
X82007556Y-58051432D01*
X81986931Y-58214694D01*
X82002989Y-58378468D01*
X82054932Y-58534615D01*
X82058581Y-58540640D01*
X82128977Y-58656876D01*
X82140179Y-58675373D01*
X82254491Y-58793747D01*
X82392189Y-58883854D01*
X82546428Y-58941215D01*
X82553414Y-58942147D01*
X82557055Y-58943055D01*
X82615669Y-58976218D01*
X82935685Y-59296234D01*
X82946552Y-59308625D01*
X82966013Y-59333987D01*
X82972563Y-59339013D01*
X82997925Y-59358474D01*
X82997928Y-59358477D01*
X83022511Y-59377340D01*
X83093124Y-59431524D01*
X83241149Y-59492838D01*
X83249336Y-59493916D01*
X83249337Y-59493916D01*
X83260542Y-59495391D01*
X83291738Y-59499498D01*
X83360115Y-59508500D01*
X83360118Y-59508500D01*
X83360126Y-59508501D01*
X83391811Y-59512672D01*
X83400000Y-59513750D01*
X83431693Y-59509578D01*
X83448136Y-59508500D01*
X84706110Y-59508500D01*
X84774231Y-59528502D01*
X84820724Y-59582158D01*
X84832110Y-59634654D01*
X84831194Y-60373453D01*
X84831172Y-60391145D01*
X84811085Y-60459241D01*
X84757372Y-60505667D01*
X84705172Y-60516989D01*
X76576687Y-60516989D01*
X76508566Y-60496987D01*
X76462073Y-60443331D01*
X76451913Y-60373453D01*
X76462302Y-60299534D01*
X76462303Y-60299527D01*
X76462853Y-60295610D01*
X76463141Y-60275000D01*
X76444798Y-60111466D01*
X76438998Y-60094809D01*
X76392998Y-59962717D01*
X76390680Y-59956060D01*
X76345631Y-59883966D01*
X76307209Y-59822479D01*
X76303476Y-59816505D01*
X76245499Y-59758122D01*
X76192486Y-59704737D01*
X76192482Y-59704734D01*
X76187522Y-59699739D01*
X76048580Y-59611563D01*
X75971194Y-59584007D01*
X75900189Y-59558723D01*
X75900187Y-59558722D01*
X75893555Y-59556361D01*
X75886569Y-59555528D01*
X75886565Y-59555527D01*
X75772071Y-59541875D01*
X75730153Y-59536877D01*
X75723150Y-59537613D01*
X75723149Y-59537613D01*
X75679935Y-59542155D01*
X75566495Y-59554078D01*
X75559827Y-59556348D01*
X75417382Y-59604840D01*
X75417379Y-59604841D01*
X75410715Y-59607110D01*
X75270555Y-59693337D01*
X75152982Y-59808473D01*
X75063838Y-59946797D01*
X75061427Y-59953420D01*
X75061426Y-59953423D01*
X75009966Y-60094809D01*
X75009965Y-60094814D01*
X75007556Y-60101432D01*
X74986931Y-60264694D01*
X74998109Y-60378693D01*
X74984850Y-60448441D01*
X74935987Y-60499948D01*
X74872710Y-60516989D01*
X70986917Y-60516989D01*
X70919402Y-60497374D01*
X70910698Y-60491850D01*
X70823580Y-60436563D01*
X70694993Y-60390775D01*
X70675189Y-60383723D01*
X70675187Y-60383722D01*
X70668555Y-60381361D01*
X70661569Y-60380528D01*
X70661565Y-60380527D01*
X70547071Y-60366875D01*
X70505153Y-60361877D01*
X70498150Y-60362613D01*
X70498149Y-60362613D01*
X70454935Y-60367155D01*
X70341495Y-60379078D01*
X70334827Y-60381348D01*
X70192382Y-60429840D01*
X70192379Y-60429841D01*
X70185715Y-60432110D01*
X70045555Y-60518337D01*
X70031990Y-60531621D01*
X69945573Y-60616247D01*
X69927982Y-60633473D01*
X69838838Y-60771797D01*
X69836427Y-60778420D01*
X69836426Y-60778423D01*
X69784966Y-60919809D01*
X69784965Y-60919814D01*
X69782556Y-60926432D01*
X69761931Y-61089694D01*
X69777989Y-61253468D01*
X69829932Y-61409615D01*
X69833581Y-61415640D01*
X69894697Y-61516553D01*
X69915179Y-61550373D01*
X69920070Y-61555438D01*
X69920071Y-61555439D01*
X69924485Y-61560010D01*
X70029491Y-61668747D01*
X70167189Y-61758854D01*
X70321428Y-61816215D01*
X70328409Y-61817146D01*
X70328411Y-61817147D01*
X70477561Y-61837048D01*
X70477565Y-61837048D01*
X70484542Y-61837979D01*
X70491553Y-61837341D01*
X70491557Y-61837341D01*
X70641403Y-61823704D01*
X70641404Y-61823704D01*
X70648424Y-61823065D01*
X70680819Y-61812539D01*
X70798230Y-61774390D01*
X70798233Y-61774389D01*
X70804929Y-61772213D01*
X70946279Y-61687951D01*
X70951377Y-61683097D01*
X70955949Y-61679626D01*
X71022302Y-61654373D01*
X71032128Y-61653989D01*
X71964899Y-61653989D01*
X72033020Y-61673991D01*
X72079513Y-61727647D01*
X72089617Y-61797921D01*
X72085948Y-61812539D01*
X72086274Y-61812618D01*
X72084619Y-61819461D01*
X72082208Y-61826084D01*
X72061583Y-61989346D01*
X72077641Y-62153120D01*
X72129584Y-62309267D01*
X72133233Y-62315292D01*
X72205246Y-62434198D01*
X72214831Y-62450025D01*
X72219722Y-62455090D01*
X72219723Y-62455091D01*
X72278750Y-62516215D01*
X72329143Y-62568399D01*
X72466841Y-62658506D01*
X72621080Y-62715867D01*
X72628061Y-62716798D01*
X72628063Y-62716799D01*
X72777213Y-62736700D01*
X72777217Y-62736700D01*
X72784194Y-62737631D01*
X72791205Y-62736993D01*
X72791209Y-62736993D01*
X72941055Y-62723356D01*
X72941056Y-62723356D01*
X72948076Y-62722717D01*
X72976714Y-62713412D01*
X73097882Y-62674042D01*
X73097885Y-62674041D01*
X73104581Y-62671865D01*
X73245931Y-62587603D01*
X73251025Y-62582752D01*
X73251029Y-62582749D01*
X73271500Y-62563254D01*
X73334625Y-62530762D01*
X73358392Y-62528500D01*
X79179663Y-62528500D01*
X79247784Y-62548502D01*
X79282560Y-62581780D01*
X79338520Y-62660962D01*
X79342570Y-62666692D01*
X79346712Y-62670727D01*
X79414436Y-62736700D01*
X79485210Y-62805645D01*
X79650784Y-62916278D01*
X79656087Y-62918556D01*
X79656090Y-62918558D01*
X79714063Y-62943465D01*
X79833746Y-62994885D01*
X79880477Y-63005459D01*
X80022332Y-63037558D01*
X80022337Y-63037559D01*
X80027969Y-63038833D01*
X80033740Y-63039060D01*
X80033742Y-63039060D01*
X80093969Y-63041426D01*
X80226949Y-63046651D01*
X80262441Y-63041505D01*
X80323876Y-63032598D01*
X80394162Y-63042618D01*
X80447872Y-63089048D01*
X80467354Y-63144998D01*
X80477989Y-63253468D01*
X80480213Y-63260153D01*
X80481677Y-63267041D01*
X80479161Y-63267576D01*
X80481267Y-63326670D01*
X80445034Y-63387726D01*
X80381545Y-63419500D01*
X80359183Y-63421500D01*
X76896753Y-63421500D01*
X76829238Y-63401885D01*
X76806927Y-63387726D01*
X76773580Y-63366563D01*
X76689058Y-63336466D01*
X76625189Y-63313723D01*
X76625187Y-63313722D01*
X76618555Y-63311361D01*
X76611569Y-63310528D01*
X76611565Y-63310527D01*
X76486845Y-63295656D01*
X76455153Y-63291877D01*
X76448150Y-63292613D01*
X76448149Y-63292613D01*
X76404935Y-63297155D01*
X76291495Y-63309078D01*
X76284827Y-63311348D01*
X76142382Y-63359840D01*
X76142379Y-63359841D01*
X76135715Y-63362110D01*
X75995555Y-63448337D01*
X75877982Y-63563473D01*
X75788838Y-63701797D01*
X75786427Y-63708420D01*
X75786426Y-63708423D01*
X75734966Y-63849809D01*
X75734965Y-63849814D01*
X75732556Y-63856432D01*
X75711931Y-64019694D01*
X75727989Y-64183468D01*
X75779932Y-64339615D01*
X75783581Y-64345640D01*
X75859028Y-64470217D01*
X75877207Y-64538847D01*
X75876260Y-64551272D01*
X75861931Y-64664694D01*
X75877989Y-64828468D01*
X75929932Y-64984615D01*
X75933581Y-64990640D01*
X76003188Y-65105573D01*
X76015179Y-65125373D01*
X76020070Y-65130438D01*
X76020071Y-65130439D01*
X76032778Y-65143597D01*
X76129491Y-65243747D01*
X76267189Y-65333854D01*
X76421428Y-65391215D01*
X76428409Y-65392146D01*
X76428411Y-65392147D01*
X76577561Y-65412048D01*
X76577565Y-65412048D01*
X76584542Y-65412979D01*
X76591553Y-65412341D01*
X76591557Y-65412341D01*
X76741403Y-65398704D01*
X76741404Y-65398704D01*
X76748424Y-65398065D01*
X76777062Y-65388760D01*
X76898230Y-65349390D01*
X76898233Y-65349389D01*
X76904929Y-65347213D01*
X77046279Y-65262951D01*
X77165449Y-65149468D01*
X77169350Y-65143597D01*
X77252614Y-65018275D01*
X77252615Y-65018273D01*
X77256515Y-65012403D01*
X77314951Y-64858568D01*
X77324822Y-64788331D01*
X77330636Y-64746964D01*
X77359924Y-64682290D01*
X77419528Y-64643717D01*
X77455410Y-64638500D01*
X78422657Y-64638500D01*
X78490778Y-64658502D01*
X78537271Y-64712158D01*
X78547375Y-64782432D01*
X78525632Y-64831959D01*
X78527982Y-64833473D01*
X78438838Y-64971797D01*
X78436427Y-64978420D01*
X78436426Y-64978423D01*
X78384966Y-65119809D01*
X78384965Y-65119814D01*
X78382556Y-65126432D01*
X78361931Y-65289694D01*
X78377989Y-65453468D01*
X78429932Y-65609615D01*
X78433581Y-65615640D01*
X78495084Y-65717192D01*
X78515179Y-65750373D01*
X78629491Y-65868747D01*
X78767189Y-65958854D01*
X78921428Y-66016215D01*
X78928409Y-66017146D01*
X78928411Y-66017147D01*
X79077561Y-66037048D01*
X79077565Y-66037048D01*
X79084542Y-66037979D01*
X79091553Y-66037341D01*
X79091557Y-66037341D01*
X79241403Y-66023704D01*
X79241404Y-66023704D01*
X79248424Y-66023065D01*
X79361337Y-65986377D01*
X79432304Y-65984349D01*
X79493102Y-66021012D01*
X79524428Y-66084724D01*
X79516335Y-66155258D01*
X79483350Y-66200942D01*
X79380690Y-66290972D01*
X79257407Y-66447355D01*
X79164688Y-66623586D01*
X79105637Y-66813763D01*
X79082231Y-67011516D01*
X79095255Y-67210223D01*
X79144272Y-67403229D01*
X79227641Y-67584071D01*
X79230974Y-67588787D01*
X79278709Y-67656330D01*
X79342570Y-67746692D01*
X79346712Y-67750727D01*
X79385454Y-67788468D01*
X79485210Y-67885645D01*
X79650784Y-67996278D01*
X79656087Y-67998556D01*
X79656090Y-67998558D01*
X79827527Y-68072213D01*
X79833746Y-68074885D01*
X79902485Y-68090439D01*
X80022332Y-68117558D01*
X80022337Y-68117559D01*
X80027969Y-68118833D01*
X80033740Y-68119060D01*
X80033742Y-68119060D01*
X80093969Y-68121426D01*
X80226949Y-68126651D01*
X80342506Y-68109896D01*
X80418300Y-68098907D01*
X80418304Y-68098906D01*
X80424022Y-68098077D01*
X80429494Y-68096219D01*
X80429496Y-68096219D01*
X80607119Y-68035923D01*
X80612587Y-68034067D01*
X80688498Y-67991555D01*
X80781291Y-67939588D01*
X80786330Y-67936766D01*
X80843938Y-67888855D01*
X80935001Y-67813119D01*
X80939433Y-67809433D01*
X80956869Y-67788468D01*
X81063077Y-67660766D01*
X81063079Y-67660764D01*
X81066766Y-67656330D01*
X81164067Y-67482587D01*
X81221491Y-67313423D01*
X81226219Y-67299496D01*
X81226219Y-67299494D01*
X81228077Y-67294022D01*
X81235408Y-67243465D01*
X81246995Y-67163546D01*
X81256651Y-67096949D01*
X81258142Y-67040000D01*
X81245478Y-66902181D01*
X81240450Y-66847456D01*
X81240449Y-66847453D01*
X81239921Y-66841702D01*
X81233660Y-66819500D01*
X81187436Y-66655604D01*
X81187435Y-66655602D01*
X81185868Y-66650045D01*
X81183314Y-66644865D01*
X81100349Y-66476627D01*
X81100346Y-66476623D01*
X81097794Y-66471447D01*
X81041683Y-66396305D01*
X80982100Y-66316515D01*
X80978647Y-66311891D01*
X80865670Y-66207456D01*
X80836660Y-66180639D01*
X80836658Y-66180637D01*
X80832419Y-66176719D01*
X80827536Y-66173638D01*
X80827532Y-66173635D01*
X80775907Y-66141062D01*
X80728968Y-66087795D01*
X80718279Y-66017608D01*
X80747233Y-65952784D01*
X80806638Y-65913904D01*
X80843142Y-65908500D01*
X84698175Y-65908500D01*
X84766296Y-65928502D01*
X84812789Y-65982158D01*
X84824175Y-66034655D01*
X84823988Y-66185527D01*
X84823613Y-66487566D01*
X84803526Y-66555662D01*
X84749813Y-66602088D01*
X84679527Y-66612105D01*
X84614982Y-66582532D01*
X84590759Y-66554180D01*
X84527209Y-66452479D01*
X84523476Y-66446505D01*
X84465499Y-66388122D01*
X84412486Y-66334737D01*
X84412482Y-66334734D01*
X84407522Y-66329739D01*
X84268580Y-66241563D01*
X84172797Y-66207456D01*
X84120189Y-66188723D01*
X84120187Y-66188722D01*
X84113555Y-66186361D01*
X84106569Y-66185528D01*
X84106565Y-66185527D01*
X83992071Y-66171875D01*
X83950153Y-66166877D01*
X83943150Y-66167613D01*
X83943149Y-66167613D01*
X83899935Y-66172155D01*
X83786495Y-66184078D01*
X83779827Y-66186348D01*
X83637382Y-66234840D01*
X83637379Y-66234841D01*
X83630715Y-66237110D01*
X83549349Y-66287167D01*
X83515526Y-66307975D01*
X83490555Y-66323337D01*
X83478914Y-66334737D01*
X83416043Y-66396305D01*
X83372982Y-66438473D01*
X83283838Y-66576797D01*
X83281427Y-66583420D01*
X83281426Y-66583423D01*
X83229966Y-66724809D01*
X83229965Y-66724814D01*
X83227556Y-66731432D01*
X83206931Y-66894694D01*
X83207619Y-66901707D01*
X83207612Y-66902181D01*
X83186659Y-66970015D01*
X83132358Y-67015753D01*
X83061950Y-67024872D01*
X83014110Y-67006803D01*
X82964536Y-66975342D01*
X82964530Y-66975339D01*
X82958580Y-66971563D01*
X82894618Y-66948787D01*
X82810189Y-66918723D01*
X82810187Y-66918722D01*
X82803555Y-66916361D01*
X82796569Y-66915528D01*
X82796565Y-66915527D01*
X82682071Y-66901875D01*
X82640153Y-66896877D01*
X82633150Y-66897613D01*
X82633149Y-66897613D01*
X82589935Y-66902155D01*
X82476495Y-66914078D01*
X82469827Y-66916348D01*
X82327382Y-66964840D01*
X82327379Y-66964841D01*
X82320715Y-66967110D01*
X82180555Y-67053337D01*
X82062982Y-67168473D01*
X81973838Y-67306797D01*
X81971427Y-67313420D01*
X81971426Y-67313423D01*
X81919966Y-67454809D01*
X81919965Y-67454814D01*
X81917556Y-67461432D01*
X81896931Y-67624694D01*
X81912989Y-67788468D01*
X81964932Y-67944615D01*
X81968581Y-67950640D01*
X82043527Y-68074389D01*
X82050179Y-68085373D01*
X82055070Y-68090438D01*
X82055071Y-68090439D01*
X82090954Y-68127597D01*
X82164491Y-68203747D01*
X82302189Y-68293854D01*
X82456428Y-68351215D01*
X82463414Y-68352147D01*
X82467055Y-68353055D01*
X82525669Y-68386218D01*
X83105465Y-68966013D01*
X83602006Y-69462554D01*
X83636031Y-69524866D01*
X83630967Y-69595681D01*
X83588420Y-69652517D01*
X83578941Y-69658962D01*
X83490555Y-69713337D01*
X83485525Y-69718263D01*
X83485517Y-69718269D01*
X83444906Y-69758039D01*
X83382241Y-69791410D01*
X83311482Y-69785604D01*
X83255095Y-69742465D01*
X83249894Y-69734786D01*
X83217209Y-69682479D01*
X83213476Y-69676505D01*
X83133214Y-69595681D01*
X83102486Y-69564737D01*
X83102482Y-69564734D01*
X83097522Y-69559739D01*
X82958580Y-69471563D01*
X82909447Y-69454068D01*
X82810189Y-69418723D01*
X82810187Y-69418722D01*
X82803555Y-69416361D01*
X82796569Y-69415528D01*
X82796565Y-69415527D01*
X82682071Y-69401875D01*
X82640153Y-69396877D01*
X82633150Y-69397613D01*
X82633149Y-69397613D01*
X82610439Y-69400000D01*
X82476495Y-69414078D01*
X82469827Y-69416348D01*
X82327382Y-69464840D01*
X82327379Y-69464841D01*
X82320715Y-69467110D01*
X82180555Y-69553337D01*
X82168914Y-69564737D01*
X82105221Y-69627110D01*
X82062982Y-69668473D01*
X81973838Y-69806797D01*
X81971427Y-69813420D01*
X81971426Y-69813423D01*
X81919966Y-69954809D01*
X81919965Y-69954814D01*
X81917556Y-69961432D01*
X81896931Y-70124694D01*
X81912989Y-70288468D01*
X81964932Y-70444615D01*
X81968581Y-70450640D01*
X82011828Y-70522048D01*
X82050179Y-70585373D01*
X82164491Y-70703747D01*
X82302189Y-70793854D01*
X82456428Y-70851215D01*
X82463414Y-70852147D01*
X82467055Y-70853055D01*
X82525669Y-70886218D01*
X83910685Y-72271234D01*
X83921552Y-72283625D01*
X83941013Y-72308987D01*
X83947563Y-72314013D01*
X83972921Y-72333471D01*
X83972937Y-72333485D01*
X84022305Y-72371366D01*
X84068124Y-72406524D01*
X84216149Y-72467838D01*
X84375000Y-72488751D01*
X84406699Y-72484578D01*
X84423144Y-72483500D01*
X84690023Y-72483500D01*
X84758144Y-72503502D01*
X84804637Y-72557158D01*
X84816023Y-72609656D01*
X84810436Y-77115656D01*
X84790349Y-77183752D01*
X84736636Y-77230178D01*
X84684436Y-77241500D01*
X80114239Y-77241500D01*
X80046118Y-77221498D01*
X80025144Y-77204595D01*
X79831170Y-77010621D01*
X79801037Y-76956035D01*
X79799798Y-76956466D01*
X79747998Y-76807717D01*
X79745680Y-76801060D01*
X79658476Y-76661505D01*
X79587116Y-76589645D01*
X79547486Y-76549737D01*
X79547482Y-76549734D01*
X79542522Y-76544739D01*
X79403580Y-76456563D01*
X79396941Y-76454199D01*
X79396939Y-76454198D01*
X79380091Y-76448199D01*
X79322627Y-76406505D01*
X79296827Y-76340362D01*
X79310882Y-76270771D01*
X79360330Y-76219825D01*
X79422358Y-76203500D01*
X80757678Y-76203500D01*
X80826671Y-76224068D01*
X80872189Y-76253854D01*
X81026428Y-76311215D01*
X81033409Y-76312146D01*
X81033411Y-76312147D01*
X81182561Y-76332048D01*
X81182565Y-76332048D01*
X81189542Y-76332979D01*
X81196553Y-76332341D01*
X81196557Y-76332341D01*
X81346403Y-76318704D01*
X81346404Y-76318704D01*
X81353424Y-76318065D01*
X81382062Y-76308760D01*
X81503230Y-76269390D01*
X81503233Y-76269389D01*
X81509929Y-76267213D01*
X81651279Y-76182951D01*
X81770449Y-76069468D01*
X81774350Y-76063597D01*
X81857614Y-75938275D01*
X81857615Y-75938273D01*
X81861515Y-75932403D01*
X81919951Y-75778568D01*
X81942853Y-75615610D01*
X81943141Y-75595000D01*
X81924798Y-75431466D01*
X81870680Y-75276060D01*
X81783476Y-75136505D01*
X81710955Y-75063476D01*
X81672486Y-75024737D01*
X81672482Y-75024734D01*
X81667522Y-75019739D01*
X81528580Y-74931563D01*
X81479447Y-74914068D01*
X81380189Y-74878723D01*
X81380187Y-74878722D01*
X81373555Y-74876361D01*
X81366569Y-74875528D01*
X81366565Y-74875527D01*
X81252071Y-74861875D01*
X81210153Y-74856877D01*
X81203150Y-74857613D01*
X81203149Y-74857613D01*
X81105569Y-74867869D01*
X81035731Y-74855097D01*
X80983884Y-74806595D01*
X80966490Y-74737762D01*
X80989071Y-74670452D01*
X80995525Y-74661990D01*
X81063072Y-74580773D01*
X81063078Y-74580765D01*
X81066766Y-74576330D01*
X81164067Y-74402587D01*
X81212102Y-74261083D01*
X81226219Y-74219496D01*
X81226219Y-74219494D01*
X81228077Y-74214022D01*
X81229258Y-74205881D01*
X81251382Y-74053288D01*
X81256651Y-74016949D01*
X81258142Y-73960000D01*
X81239921Y-73761702D01*
X81235516Y-73746081D01*
X81187436Y-73575604D01*
X81187435Y-73575602D01*
X81185868Y-73570045D01*
X81183314Y-73564865D01*
X81100349Y-73396627D01*
X81100346Y-73396623D01*
X81097794Y-73391447D01*
X80978647Y-73231891D01*
X80832419Y-73096719D01*
X80827536Y-73093638D01*
X80668886Y-72993537D01*
X80664006Y-72990458D01*
X80479049Y-72916668D01*
X80473389Y-72915542D01*
X80473385Y-72915541D01*
X80289410Y-72878946D01*
X80289405Y-72878946D01*
X80283742Y-72877819D01*
X80277967Y-72877743D01*
X80277963Y-72877743D01*
X80180390Y-72876466D01*
X80084625Y-72875212D01*
X79888368Y-72908936D01*
X79701543Y-72977859D01*
X79530406Y-73079675D01*
X79380690Y-73210972D01*
X79257407Y-73367355D01*
X79164688Y-73543586D01*
X79105637Y-73733763D01*
X79082231Y-73931516D01*
X79082609Y-73937282D01*
X79091579Y-74074143D01*
X79076075Y-74143426D01*
X79025575Y-74193329D01*
X78956112Y-74208007D01*
X78945296Y-74206330D01*
X78944035Y-74205881D01*
X78937045Y-74205048D01*
X78937043Y-74205047D01*
X78806790Y-74189516D01*
X78780633Y-74186397D01*
X78773630Y-74187133D01*
X78773629Y-74187133D01*
X78750957Y-74189516D01*
X78616975Y-74203598D01*
X78610307Y-74205868D01*
X78467862Y-74254360D01*
X78467859Y-74254361D01*
X78461195Y-74256630D01*
X78321035Y-74342857D01*
X78203462Y-74457993D01*
X78114318Y-74596317D01*
X78111907Y-74602940D01*
X78111906Y-74602943D01*
X78060446Y-74744329D01*
X78060445Y-74744334D01*
X78058036Y-74750952D01*
X78057153Y-74757944D01*
X78040685Y-74888296D01*
X78012303Y-74953373D01*
X77953243Y-74992774D01*
X77932127Y-74997426D01*
X77896150Y-75002162D01*
X77748125Y-75063476D01*
X77748123Y-75063477D01*
X77748124Y-75063477D01*
X77652928Y-75136523D01*
X77652925Y-75136526D01*
X77621013Y-75161013D01*
X77615983Y-75167568D01*
X77601548Y-75186379D01*
X77590681Y-75198770D01*
X76365717Y-76423734D01*
X76315519Y-76451210D01*
X76316495Y-76454078D01*
X76167382Y-76504840D01*
X76167379Y-76504841D01*
X76160715Y-76507110D01*
X76020555Y-76593337D01*
X76015522Y-76598266D01*
X75910008Y-76701593D01*
X75902982Y-76708473D01*
X75813838Y-76846797D01*
X75811427Y-76853420D01*
X75811426Y-76853423D01*
X75759966Y-76994809D01*
X75759965Y-76994814D01*
X75757556Y-77001432D01*
X75736931Y-77164694D01*
X75752989Y-77328468D01*
X75804932Y-77484615D01*
X75808581Y-77490640D01*
X75859938Y-77575439D01*
X75890179Y-77625373D01*
X76004491Y-77743747D01*
X76142189Y-77833854D01*
X76296428Y-77891215D01*
X76303409Y-77892146D01*
X76303411Y-77892147D01*
X76452561Y-77912048D01*
X76452565Y-77912048D01*
X76459542Y-77912979D01*
X76466553Y-77912341D01*
X76466557Y-77912341D01*
X76616403Y-77898704D01*
X76616404Y-77898704D01*
X76623424Y-77898065D01*
X76706050Y-77871218D01*
X76773230Y-77849390D01*
X76773233Y-77849389D01*
X76779929Y-77847213D01*
X76921279Y-77762951D01*
X77040449Y-77649468D01*
X77056458Y-77625373D01*
X77127614Y-77518275D01*
X77127615Y-77518273D01*
X77131515Y-77512403D01*
X77189951Y-77358568D01*
X77190931Y-77351592D01*
X77192684Y-77344767D01*
X77195153Y-77345401D01*
X77219588Y-77291454D01*
X77225972Y-77284577D01*
X78270144Y-76240405D01*
X78332456Y-76206379D01*
X78359239Y-76203500D01*
X78734897Y-76203500D01*
X78803018Y-76223502D01*
X78849511Y-76277158D01*
X78859615Y-76347432D01*
X78830121Y-76412012D01*
X78778667Y-76446647D01*
X78778758Y-76446840D01*
X78777502Y-76447431D01*
X78775501Y-76448778D01*
X78772387Y-76449838D01*
X78772382Y-76449840D01*
X78765715Y-76452110D01*
X78625555Y-76538337D01*
X78507982Y-76653473D01*
X78418838Y-76791797D01*
X78416427Y-76798420D01*
X78416426Y-76798423D01*
X78364966Y-76939809D01*
X78364965Y-76939814D01*
X78362556Y-76946432D01*
X78341931Y-77109694D01*
X78357989Y-77273468D01*
X78409932Y-77429615D01*
X78413581Y-77435640D01*
X78443242Y-77484615D01*
X78495179Y-77570373D01*
X78609491Y-77688747D01*
X78747189Y-77778854D01*
X78901428Y-77836215D01*
X78908414Y-77837147D01*
X78912055Y-77838055D01*
X78970669Y-77871218D01*
X79305808Y-78206357D01*
X79339834Y-78268669D01*
X79334769Y-78339484D01*
X79315663Y-78373458D01*
X79257407Y-78447355D01*
X79164688Y-78623586D01*
X79105637Y-78813763D01*
X79082231Y-79011516D01*
X79095255Y-79210223D01*
X79144272Y-79403229D01*
X79227641Y-79584071D01*
X79230974Y-79588787D01*
X79278709Y-79656330D01*
X79342570Y-79746692D01*
X79485210Y-79885645D01*
X79650784Y-79996278D01*
X79656087Y-79998556D01*
X79656090Y-79998558D01*
X79799086Y-80059994D01*
X79833746Y-80074885D01*
X79905276Y-80091071D01*
X80022332Y-80117558D01*
X80022337Y-80117559D01*
X80027969Y-80118833D01*
X80033740Y-80119060D01*
X80033742Y-80119060D01*
X80093969Y-80121426D01*
X80226949Y-80126651D01*
X80342506Y-80109896D01*
X80418300Y-80098907D01*
X80418304Y-80098906D01*
X80424022Y-80098077D01*
X80429494Y-80096219D01*
X80429496Y-80096219D01*
X80607119Y-80035923D01*
X80612587Y-80034067D01*
X80786330Y-79936766D01*
X80843938Y-79888855D01*
X80935001Y-79813119D01*
X80939433Y-79809433D01*
X80995539Y-79741972D01*
X81063077Y-79660766D01*
X81063079Y-79660764D01*
X81066766Y-79656330D01*
X81117828Y-79565153D01*
X81161244Y-79487628D01*
X81161244Y-79487627D01*
X81164067Y-79482587D01*
X81228077Y-79294022D01*
X81241064Y-79204455D01*
X81255238Y-79106692D01*
X81256651Y-79096949D01*
X81258142Y-79040000D01*
X81239921Y-78841702D01*
X81233701Y-78819645D01*
X81187436Y-78655604D01*
X81187435Y-78655602D01*
X81185868Y-78650045D01*
X81181026Y-78640226D01*
X81168838Y-78570284D01*
X81196398Y-78504855D01*
X81254956Y-78464713D01*
X81294033Y-78458500D01*
X83698021Y-78458500D01*
X83766142Y-78478502D01*
X83812635Y-78532158D01*
X83822739Y-78602432D01*
X83793245Y-78667012D01*
X83738627Y-78703778D01*
X83647382Y-78734840D01*
X83647379Y-78734841D01*
X83640715Y-78737110D01*
X83500555Y-78823337D01*
X83382982Y-78938473D01*
X83293838Y-79076797D01*
X83291427Y-79083420D01*
X83291426Y-79083423D01*
X83239966Y-79224809D01*
X83239965Y-79224814D01*
X83237556Y-79231432D01*
X83216931Y-79394694D01*
X83232989Y-79558468D01*
X83284932Y-79714615D01*
X83370179Y-79855373D01*
X83375070Y-79860438D01*
X83375071Y-79860439D01*
X83398139Y-79884327D01*
X83484491Y-79973747D01*
X83622189Y-80063854D01*
X83776428Y-80121215D01*
X83783409Y-80122146D01*
X83783411Y-80122147D01*
X83932561Y-80142048D01*
X83932565Y-80142048D01*
X83939542Y-80142979D01*
X83946553Y-80142341D01*
X83946557Y-80142341D01*
X84096403Y-80128704D01*
X84096404Y-80128704D01*
X84103424Y-80128065D01*
X84135761Y-80117558D01*
X84253230Y-80079390D01*
X84253233Y-80079389D01*
X84259929Y-80077213D01*
X84401279Y-79992951D01*
X84520449Y-79879468D01*
X84540460Y-79849350D01*
X84576079Y-79795738D01*
X84630436Y-79750067D01*
X84700856Y-79741035D01*
X84764980Y-79771508D01*
X84802450Y-79831812D01*
X84807027Y-79865621D01*
X84806107Y-80608191D01*
X84806103Y-80611136D01*
X84786016Y-80679232D01*
X84732303Y-80725658D01*
X84680103Y-80736980D01*
X84401273Y-80736980D01*
X84333758Y-80717365D01*
X84278100Y-80682043D01*
X84228967Y-80664548D01*
X84129709Y-80629203D01*
X84129707Y-80629202D01*
X84123075Y-80626841D01*
X84116089Y-80626008D01*
X84116085Y-80626007D01*
X83991365Y-80611136D01*
X83959673Y-80607357D01*
X83952670Y-80608093D01*
X83952669Y-80608093D01*
X83909455Y-80612635D01*
X83796015Y-80624558D01*
X83789347Y-80626828D01*
X83646902Y-80675320D01*
X83646899Y-80675321D01*
X83640235Y-80677590D01*
X83500075Y-80763817D01*
X83382502Y-80878953D01*
X83293358Y-81017277D01*
X83290947Y-81023900D01*
X83290946Y-81023903D01*
X83239486Y-81165289D01*
X83239485Y-81165294D01*
X83237076Y-81171912D01*
X83216451Y-81335174D01*
X83232509Y-81498948D01*
X83284452Y-81655095D01*
X83369699Y-81795853D01*
X83484011Y-81914227D01*
X83621709Y-82004334D01*
X83775948Y-82061695D01*
X83782929Y-82062626D01*
X83782931Y-82062627D01*
X83932081Y-82082528D01*
X83932085Y-82082528D01*
X83939062Y-82083459D01*
X83946073Y-82082821D01*
X83946076Y-82082821D01*
X83987202Y-82079078D01*
X84021286Y-82075976D01*
X84090938Y-82089721D01*
X84142103Y-82138942D01*
X84158534Y-82208011D01*
X84135016Y-82274999D01*
X84120862Y-82291481D01*
X84083017Y-82328542D01*
X84077982Y-82333473D01*
X83988838Y-82471797D01*
X83986427Y-82478420D01*
X83986426Y-82478423D01*
X83934966Y-82619809D01*
X83934965Y-82619814D01*
X83932556Y-82626432D01*
X83911931Y-82789694D01*
X83927989Y-82953468D01*
X83979932Y-83109615D01*
X84065179Y-83250373D01*
X84070070Y-83255438D01*
X84070071Y-83255439D01*
X84116452Y-83303468D01*
X84179491Y-83368747D01*
X84317189Y-83458854D01*
X84471428Y-83516215D01*
X84478409Y-83517146D01*
X84478411Y-83517147D01*
X84627561Y-83537048D01*
X84627565Y-83537048D01*
X84634542Y-83537979D01*
X84641553Y-83537341D01*
X84641557Y-83537341D01*
X84664903Y-83535216D01*
X84734556Y-83548961D01*
X84785720Y-83598183D01*
X84802322Y-83660851D01*
X84796489Y-88365340D01*
X84792580Y-91517920D01*
X84772493Y-91586016D01*
X84718780Y-91632442D01*
X84648494Y-91642459D01*
X84583950Y-91612886D01*
X84559726Y-91584534D01*
X84556160Y-91578826D01*
X84473476Y-91446505D01*
X84386141Y-91358558D01*
X84362486Y-91334737D01*
X84362482Y-91334734D01*
X84357522Y-91329739D01*
X84218580Y-91241563D01*
X84169447Y-91224068D01*
X84070189Y-91188723D01*
X84070187Y-91188722D01*
X84063555Y-91186361D01*
X84056569Y-91185528D01*
X84056565Y-91185527D01*
X83942071Y-91171875D01*
X83900153Y-91166877D01*
X83893150Y-91167613D01*
X83893149Y-91167613D01*
X83849935Y-91172155D01*
X83736495Y-91184078D01*
X83729827Y-91186348D01*
X83587382Y-91234840D01*
X83587379Y-91234841D01*
X83580715Y-91237110D01*
X83440555Y-91323337D01*
X83428914Y-91334737D01*
X83364691Y-91397629D01*
X83322982Y-91438473D01*
X83233838Y-91576797D01*
X83231427Y-91583420D01*
X83231426Y-91583423D01*
X83179966Y-91724809D01*
X83179965Y-91724814D01*
X83177556Y-91731432D01*
X83156931Y-91894694D01*
X83172989Y-92058468D01*
X83224932Y-92214615D01*
X83310179Y-92355373D01*
X83424491Y-92473747D01*
X83562189Y-92563854D01*
X83716428Y-92621215D01*
X83723409Y-92622146D01*
X83723411Y-92622147D01*
X83872561Y-92642048D01*
X83872565Y-92642048D01*
X83879542Y-92642979D01*
X83886553Y-92642341D01*
X83886557Y-92642341D01*
X84036403Y-92628704D01*
X84036404Y-92628704D01*
X84043424Y-92628065D01*
X84072062Y-92618760D01*
X84193230Y-92579390D01*
X84193233Y-92579389D01*
X84199929Y-92577213D01*
X84341279Y-92492951D01*
X84460449Y-92379468D01*
X84476458Y-92355373D01*
X84547614Y-92248275D01*
X84547615Y-92248273D01*
X84551515Y-92242403D01*
X84553754Y-92236510D01*
X84602478Y-92185279D01*
X84671452Y-92168453D01*
X84738573Y-92191588D01*
X84782532Y-92247339D01*
X84791617Y-92294474D01*
X84789720Y-93824420D01*
X84769633Y-93892516D01*
X84715920Y-93938942D01*
X84645634Y-93948959D01*
X84581090Y-93919386D01*
X84574625Y-93913359D01*
X84251529Y-93590263D01*
X84221396Y-93535676D01*
X84220157Y-93536107D01*
X84168357Y-93387358D01*
X84166039Y-93380701D01*
X84078835Y-93241146D01*
X84020858Y-93182763D01*
X83967845Y-93129378D01*
X83967841Y-93129375D01*
X83962881Y-93124380D01*
X83823939Y-93036204D01*
X83774806Y-93018709D01*
X83675548Y-92983364D01*
X83675546Y-92983363D01*
X83668914Y-92981002D01*
X83661928Y-92980169D01*
X83661924Y-92980168D01*
X83547430Y-92966516D01*
X83505512Y-92961518D01*
X83498509Y-92962254D01*
X83498508Y-92962254D01*
X83455294Y-92966796D01*
X83341854Y-92978719D01*
X83335186Y-92980989D01*
X83192741Y-93029481D01*
X83192738Y-93029482D01*
X83186074Y-93031751D01*
X83045914Y-93117978D01*
X82928341Y-93233114D01*
X82839197Y-93371438D01*
X82836786Y-93378061D01*
X82836785Y-93378064D01*
X82785325Y-93519450D01*
X82785324Y-93519455D01*
X82782915Y-93526073D01*
X82762290Y-93689335D01*
X82778348Y-93853109D01*
X82830291Y-94009256D01*
X82915538Y-94150014D01*
X82922045Y-94156752D01*
X82922740Y-94158079D01*
X82924729Y-94160662D01*
X82924275Y-94161011D01*
X82954979Y-94219648D01*
X82948680Y-94290365D01*
X82905149Y-94346450D01*
X82838206Y-94370098D01*
X82806066Y-94367255D01*
X82803555Y-94366361D01*
X82640153Y-94346877D01*
X82633150Y-94347613D01*
X82633149Y-94347613D01*
X82589935Y-94352155D01*
X82476495Y-94364078D01*
X82469827Y-94366348D01*
X82327382Y-94414840D01*
X82327379Y-94414841D01*
X82320715Y-94417110D01*
X82244550Y-94463967D01*
X82192883Y-94495753D01*
X82180555Y-94503337D01*
X82062982Y-94618473D01*
X81973838Y-94756797D01*
X81971427Y-94763420D01*
X81971426Y-94763423D01*
X81919966Y-94904809D01*
X81919965Y-94904814D01*
X81917556Y-94911432D01*
X81896931Y-95074694D01*
X81912989Y-95238468D01*
X81964932Y-95394615D01*
X81968581Y-95400640D01*
X82009738Y-95468597D01*
X82050179Y-95535373D01*
X82164491Y-95653747D01*
X82302189Y-95743854D01*
X82456428Y-95801215D01*
X82463409Y-95802146D01*
X82463411Y-95802147D01*
X82612561Y-95822048D01*
X82612565Y-95822048D01*
X82619542Y-95822979D01*
X82626553Y-95822341D01*
X82626557Y-95822341D01*
X82776403Y-95808704D01*
X82776404Y-95808704D01*
X82783424Y-95808065D01*
X82812062Y-95798760D01*
X82933230Y-95759390D01*
X82933233Y-95759389D01*
X82939929Y-95757213D01*
X83081279Y-95672951D01*
X83200449Y-95559468D01*
X83216458Y-95535373D01*
X83287614Y-95428275D01*
X83287615Y-95428273D01*
X83291515Y-95422403D01*
X83349951Y-95268568D01*
X83364820Y-95162767D01*
X83372302Y-95109534D01*
X83372303Y-95109527D01*
X83372853Y-95105610D01*
X83373141Y-95085000D01*
X83354798Y-94921466D01*
X83348998Y-94904809D01*
X83302998Y-94772717D01*
X83300680Y-94766060D01*
X83247566Y-94681060D01*
X83217209Y-94632478D01*
X83217206Y-94632474D01*
X83213476Y-94626505D01*
X83214169Y-94626072D01*
X83189658Y-94565517D01*
X83202828Y-94495753D01*
X83251625Y-94444184D01*
X83320556Y-94427183D01*
X83387736Y-94450148D01*
X83404136Y-94463967D01*
X84741703Y-95801535D01*
X84775729Y-95863847D01*
X84770664Y-95934663D01*
X84728117Y-95991498D01*
X84661597Y-96016309D01*
X84652608Y-96016630D01*
X84471623Y-96016630D01*
X84404108Y-95997015D01*
X84395415Y-95991498D01*
X84348450Y-95961693D01*
X84272541Y-95934663D01*
X84200059Y-95908853D01*
X84200057Y-95908852D01*
X84193425Y-95906491D01*
X84186439Y-95905658D01*
X84186435Y-95905657D01*
X84071941Y-95892005D01*
X84030023Y-95887007D01*
X84023020Y-95887743D01*
X84023019Y-95887743D01*
X83979805Y-95892285D01*
X83866365Y-95904208D01*
X83859697Y-95906478D01*
X83717252Y-95954970D01*
X83717249Y-95954971D01*
X83710585Y-95957240D01*
X83570425Y-96043467D01*
X83452852Y-96158603D01*
X83363708Y-96296927D01*
X83361297Y-96303550D01*
X83361296Y-96303553D01*
X83309836Y-96444939D01*
X83309835Y-96444944D01*
X83307426Y-96451562D01*
X83286801Y-96614824D01*
X83302859Y-96778598D01*
X83354802Y-96934745D01*
X83440049Y-97075503D01*
X83554361Y-97193877D01*
X83692059Y-97283984D01*
X83846298Y-97341345D01*
X83853279Y-97342276D01*
X83853281Y-97342277D01*
X84002431Y-97362178D01*
X84002435Y-97362178D01*
X84009412Y-97363109D01*
X84016423Y-97362471D01*
X84016427Y-97362471D01*
X84166273Y-97348834D01*
X84166274Y-97348834D01*
X84173294Y-97348195D01*
X84201932Y-97338890D01*
X84323100Y-97299520D01*
X84323103Y-97299519D01*
X84329799Y-97297343D01*
X84406867Y-97251401D01*
X84471385Y-97233630D01*
X84659338Y-97233630D01*
X84727459Y-97253632D01*
X84773952Y-97307288D01*
X84785337Y-97359783D01*
X84778876Y-102571459D01*
X84778853Y-102590167D01*
X84758766Y-102658263D01*
X84705053Y-102704689D01*
X84652853Y-102716011D01*
X79805260Y-102716011D01*
X79737139Y-102696009D01*
X79715854Y-102678795D01*
X79617486Y-102579737D01*
X79617482Y-102579734D01*
X79612522Y-102574739D01*
X79473580Y-102486563D01*
X79382026Y-102453962D01*
X79325189Y-102433723D01*
X79325187Y-102433722D01*
X79318555Y-102431361D01*
X79311569Y-102430528D01*
X79311565Y-102430527D01*
X79197071Y-102416875D01*
X79155153Y-102411877D01*
X79148150Y-102412613D01*
X79148149Y-102412613D01*
X79104935Y-102417155D01*
X78991495Y-102429078D01*
X78984827Y-102431348D01*
X78842382Y-102479840D01*
X78842379Y-102479841D01*
X78835715Y-102482110D01*
X78695555Y-102568337D01*
X78653667Y-102609357D01*
X78603726Y-102658263D01*
X78577982Y-102683473D01*
X78488838Y-102821797D01*
X78486427Y-102828420D01*
X78486426Y-102828423D01*
X78434966Y-102969809D01*
X78434965Y-102969814D01*
X78432556Y-102976432D01*
X78411931Y-103139694D01*
X78427989Y-103303468D01*
X78479932Y-103459615D01*
X78483581Y-103465640D01*
X78534350Y-103549468D01*
X78565179Y-103600373D01*
X78570070Y-103605438D01*
X78570071Y-103605439D01*
X78607065Y-103643747D01*
X78679491Y-103718747D01*
X78817189Y-103808854D01*
X78823793Y-103811310D01*
X78964826Y-103863760D01*
X78964828Y-103863761D01*
X78971428Y-103866215D01*
X78978411Y-103867147D01*
X78978412Y-103867147D01*
X79059516Y-103877969D01*
X79091068Y-103886453D01*
X79145610Y-103909044D01*
X79165660Y-103917349D01*
X79173847Y-103918427D01*
X79173848Y-103918427D01*
X79185053Y-103919902D01*
X79216249Y-103924009D01*
X79284626Y-103933011D01*
X79284629Y-103933011D01*
X79284637Y-103933012D01*
X79316322Y-103937183D01*
X79324511Y-103938261D01*
X79356204Y-103934089D01*
X79372647Y-103933011D01*
X79455494Y-103933011D01*
X79523615Y-103953013D01*
X79570108Y-104006669D01*
X79580212Y-104076943D01*
X79550718Y-104141523D01*
X79531924Y-104158772D01*
X79530406Y-104159675D01*
X79380690Y-104290972D01*
X79257407Y-104447355D01*
X79164688Y-104623586D01*
X79105637Y-104813763D01*
X79082231Y-105011516D01*
X79095255Y-105210223D01*
X79144272Y-105403229D01*
X79227641Y-105584071D01*
X79230974Y-105588787D01*
X79278709Y-105656330D01*
X79342570Y-105746692D01*
X79485210Y-105885645D01*
X79650784Y-105996278D01*
X79656087Y-105998556D01*
X79656090Y-105998558D01*
X79757316Y-106042048D01*
X79833746Y-106074885D01*
X79905276Y-106091071D01*
X80022332Y-106117558D01*
X80022337Y-106117559D01*
X80027969Y-106118833D01*
X80033740Y-106119060D01*
X80033742Y-106119060D01*
X80093969Y-106121426D01*
X80226949Y-106126651D01*
X80344445Y-106109615D01*
X80418300Y-106098907D01*
X80418304Y-106098906D01*
X80424022Y-106098077D01*
X80429494Y-106096219D01*
X80429496Y-106096219D01*
X80607119Y-106035923D01*
X80612587Y-106034067D01*
X80627194Y-106025887D01*
X80781291Y-105939588D01*
X80786330Y-105936766D01*
X80839013Y-105892951D01*
X80935001Y-105813119D01*
X80939433Y-105809433D01*
X80969235Y-105773600D01*
X81063077Y-105660766D01*
X81063079Y-105660764D01*
X81066766Y-105656330D01*
X81110170Y-105578826D01*
X81161244Y-105487628D01*
X81161244Y-105487627D01*
X81164067Y-105482587D01*
X81211952Y-105341523D01*
X81226219Y-105299496D01*
X81226219Y-105299494D01*
X81228077Y-105294022D01*
X81241064Y-105204455D01*
X81250637Y-105138424D01*
X81256651Y-105096949D01*
X81258142Y-105040000D01*
X81241938Y-104863652D01*
X81240450Y-104847456D01*
X81240449Y-104847453D01*
X81239921Y-104841702D01*
X81233660Y-104819500D01*
X81187436Y-104655604D01*
X81187435Y-104655602D01*
X81185868Y-104650045D01*
X81183314Y-104644865D01*
X81100349Y-104476627D01*
X81100346Y-104476623D01*
X81097794Y-104471447D01*
X81041683Y-104396305D01*
X80982100Y-104316515D01*
X80978647Y-104311891D01*
X80865670Y-104207456D01*
X80836660Y-104180639D01*
X80836658Y-104180637D01*
X80832419Y-104176719D01*
X80827535Y-104173638D01*
X80827528Y-104173632D01*
X80814754Y-104165572D01*
X80767816Y-104112305D01*
X80757128Y-104042118D01*
X80786082Y-103977294D01*
X80845487Y-103938414D01*
X80881990Y-103933011D01*
X84651032Y-103933011D01*
X84719153Y-103953013D01*
X84765646Y-104006669D01*
X84777031Y-104059164D01*
X84776604Y-104403704D01*
X84776118Y-104795556D01*
X84756031Y-104863652D01*
X84702318Y-104910079D01*
X84632032Y-104920095D01*
X84567487Y-104890522D01*
X84543265Y-104862170D01*
X84533476Y-104846505D01*
X84445218Y-104757629D01*
X84422486Y-104734737D01*
X84422482Y-104734734D01*
X84417522Y-104729739D01*
X84278580Y-104641563D01*
X84213744Y-104618476D01*
X84130189Y-104588723D01*
X84130187Y-104588722D01*
X84123555Y-104586361D01*
X84116569Y-104585528D01*
X84116565Y-104585527D01*
X83988214Y-104570223D01*
X83960153Y-104566877D01*
X83953150Y-104567613D01*
X83953149Y-104567613D01*
X83909935Y-104572155D01*
X83796495Y-104584078D01*
X83789827Y-104586348D01*
X83647382Y-104634840D01*
X83647379Y-104634841D01*
X83640715Y-104637110D01*
X83500555Y-104723337D01*
X83488914Y-104734737D01*
X83402357Y-104819500D01*
X83382982Y-104838473D01*
X83293838Y-104976797D01*
X83291427Y-104983420D01*
X83291426Y-104983423D01*
X83239966Y-105124809D01*
X83239965Y-105124814D01*
X83237556Y-105131432D01*
X83216931Y-105294694D01*
X83232989Y-105458468D01*
X83284932Y-105614615D01*
X83288581Y-105620640D01*
X83364922Y-105746692D01*
X83370179Y-105755373D01*
X83375070Y-105760438D01*
X83375071Y-105760439D01*
X83393447Y-105779468D01*
X83484491Y-105873747D01*
X83622189Y-105963854D01*
X83776428Y-106021215D01*
X83783409Y-106022146D01*
X83783411Y-106022147D01*
X83932561Y-106042048D01*
X83932565Y-106042048D01*
X83939542Y-106042979D01*
X83946553Y-106042341D01*
X83946557Y-106042341D01*
X84096403Y-106028704D01*
X84096404Y-106028704D01*
X84103424Y-106028065D01*
X84132062Y-106018760D01*
X84253230Y-105979390D01*
X84253233Y-105979389D01*
X84259929Y-105977213D01*
X84401279Y-105892951D01*
X84520449Y-105779468D01*
X84543908Y-105744159D01*
X84598263Y-105698490D01*
X84668683Y-105689457D01*
X84732807Y-105719929D01*
X84770277Y-105780233D01*
X84774855Y-105814043D01*
X84774079Y-106440176D01*
X84753992Y-106508272D01*
X84700279Y-106554698D01*
X84648079Y-106566020D01*
X84172233Y-106566020D01*
X84104718Y-106546405D01*
X84091441Y-106537979D01*
X84049060Y-106511083D01*
X83999927Y-106493588D01*
X83900669Y-106458243D01*
X83900667Y-106458242D01*
X83894035Y-106455881D01*
X83887049Y-106455048D01*
X83887045Y-106455047D01*
X83762325Y-106440176D01*
X83730633Y-106436397D01*
X83723630Y-106437133D01*
X83723629Y-106437133D01*
X83680415Y-106441675D01*
X83566975Y-106453598D01*
X83560307Y-106455868D01*
X83417862Y-106504360D01*
X83417859Y-106504361D01*
X83411195Y-106506630D01*
X83271035Y-106592857D01*
X83153462Y-106707993D01*
X83064318Y-106846317D01*
X83061907Y-106852940D01*
X83061906Y-106852943D01*
X83010446Y-106994329D01*
X83010445Y-106994334D01*
X83008036Y-107000952D01*
X82987411Y-107164214D01*
X83003469Y-107327988D01*
X83055412Y-107484135D01*
X83059061Y-107490160D01*
X83061342Y-107495097D01*
X83071757Y-107565326D01*
X83042549Y-107630036D01*
X82987566Y-107667224D01*
X82862384Y-107709839D01*
X82862379Y-107709841D01*
X82855715Y-107712110D01*
X82715555Y-107798337D01*
X82597982Y-107913473D01*
X82508838Y-108051797D01*
X82506427Y-108058420D01*
X82506426Y-108058423D01*
X82454966Y-108199809D01*
X82454965Y-108199814D01*
X82452556Y-108206432D01*
X82431931Y-108369694D01*
X82447989Y-108533468D01*
X82499932Y-108689615D01*
X82585179Y-108830373D01*
X82699491Y-108948747D01*
X82837189Y-109038854D01*
X82991428Y-109096215D01*
X82998414Y-109097147D01*
X83002055Y-109098055D01*
X83060669Y-109131218D01*
X83775685Y-109846234D01*
X83786552Y-109858625D01*
X83806013Y-109883987D01*
X83812563Y-109889013D01*
X83837921Y-109908471D01*
X83837937Y-109908485D01*
X83883525Y-109943465D01*
X83933124Y-109981524D01*
X84007137Y-110012181D01*
X84073520Y-110039678D01*
X84073523Y-110039679D01*
X84081150Y-110042838D01*
X84240000Y-110063751D01*
X84271699Y-110059578D01*
X84288144Y-110058500D01*
X84643437Y-110058500D01*
X84711558Y-110078502D01*
X84758051Y-110132158D01*
X84769437Y-110184656D01*
X84759592Y-118125822D01*
X84758832Y-118738459D01*
X84738745Y-118806555D01*
X84685032Y-118852981D01*
X84614746Y-118862998D01*
X84590566Y-118857003D01*
X84525185Y-118833722D01*
X84525186Y-118833722D01*
X84518555Y-118831361D01*
X84511569Y-118830528D01*
X84511565Y-118830527D01*
X84397071Y-118816875D01*
X84355153Y-118811877D01*
X84348150Y-118812613D01*
X84348149Y-118812613D01*
X84304935Y-118817155D01*
X84191495Y-118829078D01*
X84184827Y-118831348D01*
X84042382Y-118879840D01*
X84042379Y-118879841D01*
X84035715Y-118882110D01*
X83895555Y-118968337D01*
X83777982Y-119083473D01*
X83688838Y-119221797D01*
X83686427Y-119228420D01*
X83686426Y-119228423D01*
X83634966Y-119369809D01*
X83634965Y-119369814D01*
X83632556Y-119376432D01*
X83620422Y-119472485D01*
X83614604Y-119518534D01*
X83586222Y-119583611D01*
X83555621Y-119610059D01*
X83421035Y-119692857D01*
X83303462Y-119807993D01*
X83214318Y-119946317D01*
X83211907Y-119952940D01*
X83211906Y-119952943D01*
X83160446Y-120094329D01*
X83160445Y-120094334D01*
X83158036Y-120100952D01*
X83137411Y-120264214D01*
X83153469Y-120427988D01*
X83205412Y-120584135D01*
X83209061Y-120590160D01*
X83284761Y-120715154D01*
X83290659Y-120724893D01*
X83404971Y-120843267D01*
X83542669Y-120933374D01*
X83696908Y-120990735D01*
X83703889Y-120991666D01*
X83703891Y-120991667D01*
X83853041Y-121011568D01*
X83853045Y-121011568D01*
X83860022Y-121012499D01*
X83867033Y-121011861D01*
X83867037Y-121011861D01*
X84016883Y-120998224D01*
X84016884Y-120998224D01*
X84023904Y-120997585D01*
X84052542Y-120988280D01*
X84173710Y-120948910D01*
X84173713Y-120948909D01*
X84180409Y-120946733D01*
X84257477Y-120900791D01*
X84321995Y-120883020D01*
X84630017Y-120883020D01*
X84698138Y-120903022D01*
X84744631Y-120956678D01*
X84756016Y-121009173D01*
X84755973Y-121044064D01*
X84735888Y-121112157D01*
X84682175Y-121158584D01*
X84615056Y-121169020D01*
X84555153Y-121161877D01*
X84548150Y-121162613D01*
X84548149Y-121162613D01*
X84504935Y-121167155D01*
X84391495Y-121179078D01*
X84384827Y-121181348D01*
X84242382Y-121229840D01*
X84242379Y-121229841D01*
X84235715Y-121232110D01*
X84095555Y-121318337D01*
X83977982Y-121433473D01*
X83888838Y-121571797D01*
X83886427Y-121578420D01*
X83886426Y-121578423D01*
X83834966Y-121719809D01*
X83834965Y-121719814D01*
X83832556Y-121726432D01*
X83811931Y-121889694D01*
X83827989Y-122053468D01*
X83879932Y-122209615D01*
X83965179Y-122350373D01*
X84079491Y-122468747D01*
X84217189Y-122558854D01*
X84371428Y-122616215D01*
X84378409Y-122617146D01*
X84378411Y-122617147D01*
X84527561Y-122637048D01*
X84527565Y-122637048D01*
X84534542Y-122637979D01*
X84616434Y-122630526D01*
X84686085Y-122644273D01*
X84737249Y-122693494D01*
X84753851Y-122756162D01*
X84750402Y-125537717D01*
X84745350Y-129612045D01*
X84725263Y-129680141D01*
X84671550Y-129726567D01*
X84601264Y-129736584D01*
X84564302Y-129725194D01*
X84558580Y-129721563D01*
X84503481Y-129701943D01*
X84410189Y-129668723D01*
X84410187Y-129668722D01*
X84403555Y-129666361D01*
X84396569Y-129665528D01*
X84396565Y-129665527D01*
X84277171Y-129651291D01*
X84240153Y-129646877D01*
X84233150Y-129647613D01*
X84233149Y-129647613D01*
X84198156Y-129651291D01*
X84076495Y-129664078D01*
X84069827Y-129666348D01*
X83927382Y-129714840D01*
X83927379Y-129714841D01*
X83920715Y-129717110D01*
X83780555Y-129803337D01*
X83770566Y-129813119D01*
X83699194Y-129883012D01*
X83662982Y-129918473D01*
X83573838Y-130056797D01*
X83571427Y-130063420D01*
X83571426Y-130063423D01*
X83519966Y-130204809D01*
X83519965Y-130204814D01*
X83517556Y-130211432D01*
X83496931Y-130374694D01*
X83512989Y-130538468D01*
X83564932Y-130694615D01*
X83650179Y-130835373D01*
X83764491Y-130953747D01*
X83902189Y-131043854D01*
X84056428Y-131101215D01*
X84063409Y-131102146D01*
X84063411Y-131102147D01*
X84212561Y-131122048D01*
X84212565Y-131122048D01*
X84219542Y-131122979D01*
X84226553Y-131122341D01*
X84226557Y-131122341D01*
X84376403Y-131108704D01*
X84376404Y-131108704D01*
X84383424Y-131108065D01*
X84412062Y-131098760D01*
X84533230Y-131059390D01*
X84533233Y-131059389D01*
X84539929Y-131057213D01*
X84552914Y-131049472D01*
X84621670Y-131031771D01*
X84689080Y-131054052D01*
X84733743Y-131109241D01*
X84743434Y-131157856D01*
X84742901Y-131588191D01*
X84742897Y-131591136D01*
X84722810Y-131659232D01*
X84669097Y-131705658D01*
X84616897Y-131716980D01*
X84296753Y-131716980D01*
X84229238Y-131697365D01*
X84173580Y-131662043D01*
X84124447Y-131644548D01*
X84025189Y-131609203D01*
X84025187Y-131609202D01*
X84018555Y-131606841D01*
X84011569Y-131606008D01*
X84011565Y-131606007D01*
X83886845Y-131591136D01*
X83855153Y-131587357D01*
X83848150Y-131588093D01*
X83848149Y-131588093D01*
X83804935Y-131592635D01*
X83691495Y-131604558D01*
X83684827Y-131606828D01*
X83542382Y-131655320D01*
X83542379Y-131655321D01*
X83535715Y-131657590D01*
X83395555Y-131743817D01*
X83277982Y-131858953D01*
X83188838Y-131997277D01*
X83186427Y-132003900D01*
X83186426Y-132003903D01*
X83134966Y-132145289D01*
X83134965Y-132145294D01*
X83132556Y-132151912D01*
X83111931Y-132315174D01*
X83127989Y-132478948D01*
X83179932Y-132635095D01*
X83183581Y-132641120D01*
X83222155Y-132704812D01*
X83265179Y-132775853D01*
X83270070Y-132780918D01*
X83270071Y-132780919D01*
X83325991Y-132838826D01*
X83379491Y-132894227D01*
X83517189Y-132984334D01*
X83665240Y-133039394D01*
X83722115Y-133081886D01*
X83746989Y-133148382D01*
X83731964Y-133217771D01*
X83727233Y-133225742D01*
X83713349Y-133247286D01*
X83710938Y-133253909D01*
X83710937Y-133253912D01*
X83659477Y-133395298D01*
X83659476Y-133395303D01*
X83657067Y-133401921D01*
X83636442Y-133565183D01*
X83652500Y-133728957D01*
X83704443Y-133885104D01*
X83789690Y-134025862D01*
X83904002Y-134144236D01*
X84041700Y-134234343D01*
X84195939Y-134291704D01*
X84202920Y-134292635D01*
X84202922Y-134292636D01*
X84352072Y-134312537D01*
X84352076Y-134312537D01*
X84359053Y-134313468D01*
X84366064Y-134312830D01*
X84366068Y-134312830D01*
X84515914Y-134299193D01*
X84515915Y-134299193D01*
X84522935Y-134298554D01*
X84574477Y-134281807D01*
X84645443Y-134279779D01*
X84706241Y-134316441D01*
X84737566Y-134380154D01*
X84739412Y-134401796D01*
X84729961Y-142024143D01*
X84709874Y-142092239D01*
X84656161Y-142138665D01*
X84617133Y-142149296D01*
X84476495Y-142164078D01*
X84469827Y-142166348D01*
X84327382Y-142214840D01*
X84327379Y-142214841D01*
X84320715Y-142217110D01*
X84180555Y-142303337D01*
X84062982Y-142418473D01*
X83973838Y-142556797D01*
X83971427Y-142563420D01*
X83971426Y-142563423D01*
X83919966Y-142704809D01*
X83919965Y-142704814D01*
X83917556Y-142711432D01*
X83896931Y-142874694D01*
X83912989Y-143038468D01*
X83964932Y-143194615D01*
X84050179Y-143335373D01*
X84164491Y-143453747D01*
X84302189Y-143543854D01*
X84456428Y-143601215D01*
X84463409Y-143602146D01*
X84463411Y-143602147D01*
X84507766Y-143608065D01*
X84618491Y-143622839D01*
X84683366Y-143651673D01*
X84722354Y-143711006D01*
X84727825Y-143747887D01*
X84727487Y-144020176D01*
X84707400Y-144088272D01*
X84653687Y-144134699D01*
X84601487Y-144146020D01*
X84196753Y-144146020D01*
X84129238Y-144126405D01*
X84073580Y-144091083D01*
X84024447Y-144073588D01*
X83925189Y-144038243D01*
X83925187Y-144038242D01*
X83918555Y-144035881D01*
X83911569Y-144035048D01*
X83911565Y-144035047D01*
X83786845Y-144020176D01*
X83755153Y-144016397D01*
X83748150Y-144017133D01*
X83748149Y-144017133D01*
X83704935Y-144021675D01*
X83591495Y-144033598D01*
X83584827Y-144035868D01*
X83442382Y-144084360D01*
X83442379Y-144084361D01*
X83435715Y-144086630D01*
X83295555Y-144172857D01*
X83177982Y-144287993D01*
X83088838Y-144426317D01*
X83086427Y-144432940D01*
X83086426Y-144432943D01*
X83034966Y-144574329D01*
X83034965Y-144574334D01*
X83032556Y-144580952D01*
X83011931Y-144744214D01*
X83027989Y-144907988D01*
X83079932Y-145064135D01*
X83165179Y-145204893D01*
X83279491Y-145323267D01*
X83417189Y-145413374D01*
X83571428Y-145470735D01*
X83578409Y-145471666D01*
X83578411Y-145471667D01*
X83727561Y-145491568D01*
X83727565Y-145491568D01*
X83734542Y-145492499D01*
X83741553Y-145491861D01*
X83741557Y-145491861D01*
X83891403Y-145478224D01*
X83891404Y-145478224D01*
X83898424Y-145477585D01*
X83927062Y-145468280D01*
X84048230Y-145428910D01*
X84048233Y-145428909D01*
X84054929Y-145426733D01*
X84131997Y-145380791D01*
X84196515Y-145363020D01*
X84599666Y-145363020D01*
X84667787Y-145383022D01*
X84714280Y-145436678D01*
X84725666Y-145489175D01*
X84724940Y-146074670D01*
X84704853Y-146142766D01*
X84651140Y-146189192D01*
X84612111Y-146199824D01*
X84541025Y-146207296D01*
X84476495Y-146214078D01*
X84469827Y-146216348D01*
X84327382Y-146264840D01*
X84327379Y-146264841D01*
X84320715Y-146267110D01*
X84180555Y-146353337D01*
X84062982Y-146468473D01*
X84059462Y-146473935D01*
X84001087Y-146513962D01*
X83961392Y-146520179D01*
X61251455Y-146411085D01*
X61183431Y-146390755D01*
X61137196Y-146336877D01*
X61126060Y-146285187D01*
X61121938Y-141134601D01*
X61141886Y-141066464D01*
X61195504Y-141019928D01*
X61247938Y-141008500D01*
X64207932Y-141008500D01*
X64276053Y-141028502D01*
X64310828Y-141061779D01*
X64339232Y-141101970D01*
X64339237Y-141101976D01*
X64342570Y-141106692D01*
X64346712Y-141110727D01*
X64402426Y-141165001D01*
X64485210Y-141245645D01*
X64650784Y-141356278D01*
X64656087Y-141358556D01*
X64656090Y-141358558D01*
X64828439Y-141432605D01*
X64833746Y-141434885D01*
X64905276Y-141451071D01*
X65022332Y-141477558D01*
X65022337Y-141477559D01*
X65027969Y-141478833D01*
X65033740Y-141479060D01*
X65033742Y-141479060D01*
X65093969Y-141481426D01*
X65226949Y-141486651D01*
X65342506Y-141469896D01*
X65418300Y-141458907D01*
X65418304Y-141458906D01*
X65424022Y-141458077D01*
X65429494Y-141456219D01*
X65429496Y-141456219D01*
X65585597Y-141403229D01*
X65612587Y-141394067D01*
X65786330Y-141296766D01*
X65796510Y-141288300D01*
X65935001Y-141173119D01*
X65939433Y-141169433D01*
X65999717Y-141096949D01*
X66063077Y-141020766D01*
X66063079Y-141020764D01*
X66066766Y-141016330D01*
X66164067Y-140842587D01*
X66202726Y-140728704D01*
X66226219Y-140659496D01*
X66226219Y-140659494D01*
X66228077Y-140654022D01*
X66229430Y-140644694D01*
X66256118Y-140460623D01*
X66256651Y-140456949D01*
X66258142Y-140400000D01*
X66239921Y-140201702D01*
X66241051Y-140201598D01*
X66247707Y-140136828D01*
X66291996Y-140081339D01*
X66364341Y-140058500D01*
X69885761Y-140058500D01*
X69953882Y-140078502D01*
X69974856Y-140095405D01*
X69994485Y-140115034D01*
X70024948Y-140164357D01*
X70074932Y-140314615D01*
X70078581Y-140320640D01*
X70126644Y-140400000D01*
X70160179Y-140455373D01*
X70274491Y-140573747D01*
X70412189Y-140663854D01*
X70566428Y-140721215D01*
X70573409Y-140722146D01*
X70573411Y-140722147D01*
X70722561Y-140742048D01*
X70722565Y-140742048D01*
X70729542Y-140742979D01*
X70736553Y-140742341D01*
X70736557Y-140742341D01*
X70886403Y-140728704D01*
X70886404Y-140728704D01*
X70893424Y-140728065D01*
X70958640Y-140706875D01*
X71043230Y-140679390D01*
X71043233Y-140679389D01*
X71049929Y-140677213D01*
X71191279Y-140592951D01*
X71310449Y-140479468D01*
X71315778Y-140471447D01*
X71397614Y-140348275D01*
X71397615Y-140348273D01*
X71401515Y-140342403D01*
X71459951Y-140188568D01*
X71475453Y-140078266D01*
X71482302Y-140029534D01*
X71482303Y-140029527D01*
X71482853Y-140025610D01*
X71483141Y-140005000D01*
X71481985Y-139994694D01*
X73666931Y-139994694D01*
X73682989Y-140158468D01*
X73734932Y-140314615D01*
X73738581Y-140320640D01*
X73786644Y-140400000D01*
X73820179Y-140455373D01*
X73934491Y-140573747D01*
X74072189Y-140663854D01*
X74226428Y-140721215D01*
X74233409Y-140722146D01*
X74233411Y-140722147D01*
X74382561Y-140742048D01*
X74382565Y-140742048D01*
X74389542Y-140742979D01*
X74396553Y-140742341D01*
X74396557Y-140742341D01*
X74546403Y-140728704D01*
X74546404Y-140728704D01*
X74553424Y-140728065D01*
X74618640Y-140706875D01*
X74703230Y-140679390D01*
X74703233Y-140679389D01*
X74709929Y-140677213D01*
X74764480Y-140644694D01*
X75756931Y-140644694D01*
X75772989Y-140808468D01*
X75824932Y-140964615D01*
X75828581Y-140970640D01*
X75886615Y-141066464D01*
X75910179Y-141105373D01*
X76024491Y-141223747D01*
X76162189Y-141313854D01*
X76316428Y-141371215D01*
X76323409Y-141372146D01*
X76323411Y-141372147D01*
X76472561Y-141392048D01*
X76472565Y-141392048D01*
X76479542Y-141392979D01*
X76486553Y-141392341D01*
X76486557Y-141392341D01*
X76636403Y-141378704D01*
X76636404Y-141378704D01*
X76643424Y-141378065D01*
X76703460Y-141358558D01*
X76793230Y-141329390D01*
X76793233Y-141329389D01*
X76799929Y-141327213D01*
X76876997Y-141281271D01*
X76941515Y-141263500D01*
X79010786Y-141263500D01*
X79078907Y-141283502D01*
X79125400Y-141337158D01*
X79132909Y-141358486D01*
X79142417Y-141395923D01*
X79144272Y-141403229D01*
X79227641Y-141584071D01*
X79230974Y-141588787D01*
X79278709Y-141656330D01*
X79342570Y-141746692D01*
X79485210Y-141885645D01*
X79650784Y-141996278D01*
X79656087Y-141998556D01*
X79656090Y-141998558D01*
X79828439Y-142072605D01*
X79833746Y-142074885D01*
X79905276Y-142091071D01*
X80022332Y-142117558D01*
X80022337Y-142117559D01*
X80027969Y-142118833D01*
X80033740Y-142119060D01*
X80033742Y-142119060D01*
X80093969Y-142121426D01*
X80226949Y-142126651D01*
X80342506Y-142109896D01*
X80418300Y-142098907D01*
X80418304Y-142098906D01*
X80424022Y-142098077D01*
X80429494Y-142096219D01*
X80429496Y-142096219D01*
X80607119Y-142035923D01*
X80612587Y-142034067D01*
X80786330Y-141936766D01*
X80843938Y-141888855D01*
X80935001Y-141813119D01*
X80939433Y-141809433D01*
X81066766Y-141656330D01*
X81164067Y-141482587D01*
X81228077Y-141294022D01*
X81229603Y-141283502D01*
X81255238Y-141106692D01*
X81256651Y-141096949D01*
X81258142Y-141040000D01*
X81239921Y-140841702D01*
X81237746Y-140833987D01*
X81187436Y-140655604D01*
X81187435Y-140655602D01*
X81185868Y-140650045D01*
X81183314Y-140644865D01*
X81100349Y-140476627D01*
X81100346Y-140476623D01*
X81097794Y-140471447D01*
X81041683Y-140396305D01*
X80982100Y-140316515D01*
X80978647Y-140311891D01*
X80832419Y-140176719D01*
X80813368Y-140164698D01*
X80766429Y-140111435D01*
X80755739Y-140041247D01*
X80784692Y-139976423D01*
X80791507Y-139969042D01*
X81360828Y-139399721D01*
X81410987Y-139368983D01*
X81548230Y-139324390D01*
X81548233Y-139324389D01*
X81554929Y-139322213D01*
X81696279Y-139237951D01*
X81815449Y-139124468D01*
X81819350Y-139118597D01*
X81902614Y-138993275D01*
X81902615Y-138993273D01*
X81906515Y-138987403D01*
X81964951Y-138833568D01*
X81979317Y-138731348D01*
X81987302Y-138674534D01*
X81987303Y-138674527D01*
X81987853Y-138670610D01*
X81988017Y-138658854D01*
X81988086Y-138653962D01*
X81988086Y-138653956D01*
X81988141Y-138650000D01*
X81969798Y-138486466D01*
X81963576Y-138468597D01*
X81917998Y-138337717D01*
X81915680Y-138331060D01*
X81906045Y-138315640D01*
X81832209Y-138197479D01*
X81828476Y-138191505D01*
X81770499Y-138133122D01*
X81717486Y-138079737D01*
X81717482Y-138079734D01*
X81712522Y-138074739D01*
X81573580Y-137986563D01*
X81524447Y-137969068D01*
X81425189Y-137933723D01*
X81425187Y-137933722D01*
X81418555Y-137931361D01*
X81411569Y-137930528D01*
X81411565Y-137930527D01*
X81297071Y-137916875D01*
X81255153Y-137911877D01*
X81248150Y-137912613D01*
X81248149Y-137912613D01*
X81204935Y-137917155D01*
X81091495Y-137929078D01*
X81084827Y-137931348D01*
X80942382Y-137979840D01*
X80942379Y-137979841D01*
X80935715Y-137982110D01*
X80795555Y-138068337D01*
X80783914Y-138079737D01*
X80685008Y-138176593D01*
X80677982Y-138183473D01*
X80588838Y-138321797D01*
X80586427Y-138328420D01*
X80586426Y-138328423D01*
X80544802Y-138442785D01*
X80532556Y-138476432D01*
X80531886Y-138481739D01*
X80498856Y-138540595D01*
X79029856Y-140009595D01*
X78967544Y-140043621D01*
X78940761Y-140046500D01*
X76941753Y-140046500D01*
X76874238Y-140026885D01*
X76865987Y-140021649D01*
X76818580Y-139991563D01*
X76755334Y-139969042D01*
X76670189Y-139938723D01*
X76670187Y-139938722D01*
X76663555Y-139936361D01*
X76656569Y-139935528D01*
X76656565Y-139935527D01*
X76542071Y-139921875D01*
X76500153Y-139916877D01*
X76493150Y-139917613D01*
X76493149Y-139917613D01*
X76449935Y-139922155D01*
X76336495Y-139934078D01*
X76329827Y-139936348D01*
X76187382Y-139984840D01*
X76187379Y-139984841D01*
X76180715Y-139987110D01*
X76040555Y-140073337D01*
X75978066Y-140134531D01*
X75930008Y-140181593D01*
X75922982Y-140188473D01*
X75833838Y-140326797D01*
X75831427Y-140333420D01*
X75831426Y-140333423D01*
X75779966Y-140474809D01*
X75779965Y-140474814D01*
X75777556Y-140481432D01*
X75756931Y-140644694D01*
X74764480Y-140644694D01*
X74851279Y-140592951D01*
X74970449Y-140479468D01*
X74975778Y-140471447D01*
X75057614Y-140348275D01*
X75057615Y-140348273D01*
X75061515Y-140342403D01*
X75119951Y-140188568D01*
X75135453Y-140078266D01*
X75142302Y-140029534D01*
X75142303Y-140029527D01*
X75142853Y-140025610D01*
X75143141Y-140005000D01*
X75124798Y-139841466D01*
X75118998Y-139824809D01*
X75100709Y-139772292D01*
X75070680Y-139686060D01*
X74983476Y-139546505D01*
X74877408Y-139439694D01*
X74872486Y-139434737D01*
X74872482Y-139434734D01*
X74867522Y-139429739D01*
X74728580Y-139341563D01*
X74580197Y-139288726D01*
X74580189Y-139288723D01*
X74580187Y-139288722D01*
X74573555Y-139286361D01*
X74566569Y-139285528D01*
X74566565Y-139285527D01*
X74452071Y-139271875D01*
X74410153Y-139266877D01*
X74403150Y-139267613D01*
X74403149Y-139267613D01*
X74359935Y-139272155D01*
X74246495Y-139284078D01*
X74239827Y-139286348D01*
X74097382Y-139334840D01*
X74097379Y-139334841D01*
X74090715Y-139337110D01*
X73950555Y-139423337D01*
X73832982Y-139538473D01*
X73743838Y-139676797D01*
X73741427Y-139683420D01*
X73741426Y-139683423D01*
X73689966Y-139824809D01*
X73689965Y-139824814D01*
X73687556Y-139831432D01*
X73666931Y-139994694D01*
X71481985Y-139994694D01*
X71464798Y-139841466D01*
X71458998Y-139824809D01*
X71440709Y-139772292D01*
X71410680Y-139686060D01*
X71323476Y-139546505D01*
X71217408Y-139439694D01*
X71212486Y-139434737D01*
X71212482Y-139434734D01*
X71207522Y-139429739D01*
X71068580Y-139341563D01*
X70913555Y-139286361D01*
X70912582Y-139286245D01*
X70854419Y-139253870D01*
X70654315Y-139053766D01*
X70643448Y-139041375D01*
X70629013Y-139022563D01*
X70623987Y-139016013D01*
X70592075Y-138991526D01*
X70592072Y-138991523D01*
X70496876Y-138918476D01*
X70348851Y-138857162D01*
X70340664Y-138856084D01*
X70340663Y-138856084D01*
X70329458Y-138854609D01*
X70298262Y-138850502D01*
X70229885Y-138841500D01*
X70229882Y-138841500D01*
X70229874Y-138841499D01*
X70198189Y-138837328D01*
X70190000Y-138836250D01*
X70158307Y-138840422D01*
X70141864Y-138841500D01*
X62146753Y-138841500D01*
X62079238Y-138821885D01*
X62023580Y-138786563D01*
X61974447Y-138769068D01*
X61875189Y-138733723D01*
X61875187Y-138733722D01*
X61868555Y-138731361D01*
X61861569Y-138730528D01*
X61861565Y-138730527D01*
X61747071Y-138716875D01*
X61705153Y-138711877D01*
X61698150Y-138712613D01*
X61698149Y-138712613D01*
X61663879Y-138716215D01*
X61541495Y-138729078D01*
X61534827Y-138731348D01*
X61392382Y-138779840D01*
X61392379Y-138779841D01*
X61385715Y-138782110D01*
X61321062Y-138821885D01*
X61312029Y-138827442D01*
X61243528Y-138846101D01*
X61175814Y-138824763D01*
X61130385Y-138770203D01*
X61120006Y-138720226D01*
X61119421Y-137989694D01*
X77411931Y-137989694D01*
X77427989Y-138153468D01*
X77479932Y-138309615D01*
X77565179Y-138450373D01*
X77679491Y-138568747D01*
X77817189Y-138658854D01*
X77971428Y-138716215D01*
X77978409Y-138717146D01*
X77978411Y-138717147D01*
X78127561Y-138737048D01*
X78127565Y-138737048D01*
X78134542Y-138737979D01*
X78141553Y-138737341D01*
X78141557Y-138737341D01*
X78291403Y-138723704D01*
X78291404Y-138723704D01*
X78298424Y-138723065D01*
X78332857Y-138711877D01*
X78448230Y-138674390D01*
X78448233Y-138674389D01*
X78454929Y-138672213D01*
X78596279Y-138587951D01*
X78715449Y-138474468D01*
X78731458Y-138450373D01*
X78802614Y-138343275D01*
X78802615Y-138343273D01*
X78806515Y-138337403D01*
X78864951Y-138183568D01*
X78873507Y-138122689D01*
X78887302Y-138024534D01*
X78887303Y-138024527D01*
X78887853Y-138020610D01*
X78888141Y-138000000D01*
X78869798Y-137836466D01*
X78863998Y-137819809D01*
X78817998Y-137687717D01*
X78815680Y-137681060D01*
X78791933Y-137643056D01*
X78732209Y-137547479D01*
X78728476Y-137541505D01*
X78641499Y-137453919D01*
X78617486Y-137429737D01*
X78617482Y-137429734D01*
X78612522Y-137424739D01*
X78473580Y-137336563D01*
X78393397Y-137308011D01*
X78325189Y-137283723D01*
X78325187Y-137283722D01*
X78318555Y-137281361D01*
X78311569Y-137280528D01*
X78311565Y-137280527D01*
X78193622Y-137266464D01*
X78155153Y-137261877D01*
X78148150Y-137262613D01*
X78148149Y-137262613D01*
X78111510Y-137266464D01*
X77991495Y-137279078D01*
X77984827Y-137281348D01*
X77842382Y-137329840D01*
X77842379Y-137329841D01*
X77835715Y-137332110D01*
X77695555Y-137418337D01*
X77577982Y-137533473D01*
X77488838Y-137671797D01*
X77486427Y-137678420D01*
X77486426Y-137678423D01*
X77434966Y-137819809D01*
X77434965Y-137819814D01*
X77432556Y-137826432D01*
X77411931Y-137989694D01*
X61119421Y-137989694D01*
X61118897Y-137334601D01*
X61138845Y-137266464D01*
X61192463Y-137219928D01*
X61244897Y-137208500D01*
X64074457Y-137208500D01*
X64142578Y-137228502D01*
X64187898Y-137279663D01*
X64204668Y-137314354D01*
X64316081Y-137453919D01*
X64455646Y-137565332D01*
X64461984Y-137568396D01*
X64461989Y-137568399D01*
X64579676Y-137625290D01*
X64616427Y-137643056D01*
X64790431Y-137683228D01*
X64795148Y-137683500D01*
X65544852Y-137683500D01*
X65549569Y-137683228D01*
X65723573Y-137643056D01*
X65760324Y-137625290D01*
X65878011Y-137568399D01*
X65878016Y-137568396D01*
X65884354Y-137565332D01*
X66023919Y-137453919D01*
X66135332Y-137314354D01*
X66138398Y-137308012D01*
X66138399Y-137308011D01*
X66209990Y-137159915D01*
X66213056Y-137153573D01*
X66253228Y-136979569D01*
X66253500Y-136974852D01*
X66253500Y-136225148D01*
X66253228Y-136220431D01*
X66213056Y-136046427D01*
X66194075Y-136007162D01*
X66157507Y-135931516D01*
X79082231Y-135931516D01*
X79095255Y-136130223D01*
X79144272Y-136323229D01*
X79227641Y-136504071D01*
X79230974Y-136508787D01*
X79278709Y-136576330D01*
X79342570Y-136666692D01*
X79485210Y-136805645D01*
X79650784Y-136916278D01*
X79656087Y-136918556D01*
X79656090Y-136918558D01*
X79798097Y-136979569D01*
X79833746Y-136994885D01*
X79905276Y-137011071D01*
X80022332Y-137037558D01*
X80022337Y-137037559D01*
X80027969Y-137038833D01*
X80033740Y-137039060D01*
X80033742Y-137039060D01*
X80093969Y-137041426D01*
X80226949Y-137046651D01*
X80342506Y-137029896D01*
X80418300Y-137018907D01*
X80418304Y-137018906D01*
X80424022Y-137018077D01*
X80429494Y-137016219D01*
X80429496Y-137016219D01*
X80607119Y-136955923D01*
X80612587Y-136954067D01*
X80786330Y-136856766D01*
X80843938Y-136808855D01*
X80935001Y-136733119D01*
X80939433Y-136729433D01*
X81066766Y-136576330D01*
X81164067Y-136402587D01*
X81224301Y-136225146D01*
X81226219Y-136219496D01*
X81226219Y-136219494D01*
X81228077Y-136214022D01*
X81241064Y-136124455D01*
X81256118Y-136020623D01*
X81256651Y-136016949D01*
X81258142Y-135960000D01*
X81239921Y-135761702D01*
X81235516Y-135746081D01*
X81187436Y-135575604D01*
X81187435Y-135575602D01*
X81185868Y-135570045D01*
X81183314Y-135564865D01*
X81100349Y-135396627D01*
X81100346Y-135396623D01*
X81097794Y-135391447D01*
X80978647Y-135231891D01*
X80832419Y-135096719D01*
X80827536Y-135093638D01*
X80668886Y-134993537D01*
X80664006Y-134990458D01*
X80479049Y-134916668D01*
X80473389Y-134915542D01*
X80473385Y-134915541D01*
X80289410Y-134878946D01*
X80289405Y-134878946D01*
X80283742Y-134877819D01*
X80277967Y-134877743D01*
X80277963Y-134877743D01*
X80180390Y-134876466D01*
X80084625Y-134875212D01*
X79888368Y-134908936D01*
X79701543Y-134977859D01*
X79530406Y-135079675D01*
X79380690Y-135210972D01*
X79257407Y-135367355D01*
X79164688Y-135543586D01*
X79105637Y-135733763D01*
X79082231Y-135931516D01*
X66157507Y-135931516D01*
X66138399Y-135891989D01*
X66138396Y-135891984D01*
X66135332Y-135885646D01*
X66023919Y-135746081D01*
X65884354Y-135634668D01*
X65878016Y-135631604D01*
X65878011Y-135631601D01*
X65729915Y-135560010D01*
X65729916Y-135560010D01*
X65723573Y-135556944D01*
X65549569Y-135516772D01*
X65544852Y-135516500D01*
X64795148Y-135516500D01*
X64790431Y-135516772D01*
X64616427Y-135556944D01*
X64610084Y-135560010D01*
X64610085Y-135560010D01*
X64461989Y-135631601D01*
X64461984Y-135631604D01*
X64455646Y-135634668D01*
X64316081Y-135746081D01*
X64204668Y-135885646D01*
X64201603Y-135891987D01*
X64201602Y-135891988D01*
X64187898Y-135920337D01*
X64140243Y-135972963D01*
X64074457Y-135991500D01*
X61243721Y-135991500D01*
X61175600Y-135971498D01*
X61129107Y-135917842D01*
X61117721Y-135865601D01*
X61115860Y-133539694D01*
X63161931Y-133539694D01*
X63177989Y-133703468D01*
X63229932Y-133859615D01*
X63315179Y-134000373D01*
X63320070Y-134005438D01*
X63320071Y-134005439D01*
X63386561Y-134074291D01*
X63429491Y-134118747D01*
X63567189Y-134208854D01*
X63721428Y-134266215D01*
X63728409Y-134267146D01*
X63728411Y-134267147D01*
X63877561Y-134287048D01*
X63877565Y-134287048D01*
X63884542Y-134287979D01*
X63891553Y-134287341D01*
X63891557Y-134287341D01*
X64041403Y-134273704D01*
X64041404Y-134273704D01*
X64048424Y-134273065D01*
X64126483Y-134247702D01*
X64198230Y-134224390D01*
X64198233Y-134224389D01*
X64204929Y-134222213D01*
X64346279Y-134137951D01*
X64465449Y-134024468D01*
X64481458Y-134000373D01*
X64552614Y-133893275D01*
X64552615Y-133893273D01*
X64556515Y-133887403D01*
X64597749Y-133778854D01*
X64628880Y-133732128D01*
X64828484Y-133543030D01*
X64891693Y-133510701D01*
X64915140Y-133508500D01*
X68565882Y-133508500D01*
X68629660Y-133527513D01*
X68630009Y-133526821D01*
X68633853Y-133528763D01*
X68634873Y-133529067D01*
X68636288Y-133529993D01*
X68636291Y-133529995D01*
X68642189Y-133533854D01*
X68796428Y-133591215D01*
X68803409Y-133592146D01*
X68803411Y-133592147D01*
X68952561Y-133612048D01*
X68952565Y-133612048D01*
X68959542Y-133612979D01*
X68966553Y-133612341D01*
X68966557Y-133612341D01*
X69116403Y-133598704D01*
X69116404Y-133598704D01*
X69123424Y-133598065D01*
X69152062Y-133588760D01*
X69273230Y-133549390D01*
X69273233Y-133549389D01*
X69279929Y-133547213D01*
X69421279Y-133462951D01*
X69540449Y-133349468D01*
X69544350Y-133343597D01*
X69627614Y-133218275D01*
X69627615Y-133218273D01*
X69631515Y-133212403D01*
X69689951Y-133058568D01*
X69712853Y-132895610D01*
X69713042Y-132882110D01*
X69713086Y-132878962D01*
X69713086Y-132878956D01*
X69713141Y-132875000D01*
X69694798Y-132711466D01*
X69640680Y-132556060D01*
X69553476Y-132416505D01*
X69452850Y-132315174D01*
X69442486Y-132304737D01*
X69442482Y-132304734D01*
X69437522Y-132299739D01*
X69298580Y-132211563D01*
X69150697Y-132158904D01*
X69150189Y-132158723D01*
X69150187Y-132158722D01*
X69143555Y-132156361D01*
X69136569Y-132155528D01*
X69136565Y-132155527D01*
X69022071Y-132141875D01*
X68980153Y-132136877D01*
X68973150Y-132137613D01*
X68973149Y-132137613D01*
X68929935Y-132142155D01*
X68816495Y-132154078D01*
X68809827Y-132156348D01*
X68667382Y-132204840D01*
X68667379Y-132204841D01*
X68660715Y-132207110D01*
X68637359Y-132221479D01*
X68635182Y-132222818D01*
X68569160Y-132241500D01*
X64692022Y-132241500D01*
X64690830Y-132241428D01*
X64689744Y-132241154D01*
X64686554Y-132241168D01*
X64537612Y-132241823D01*
X64537611Y-132241823D01*
X64529686Y-132241858D01*
X64477536Y-132255492D01*
X64382499Y-132280339D01*
X64382495Y-132280340D01*
X64374832Y-132282344D01*
X64367907Y-132286191D01*
X64367904Y-132286192D01*
X64241839Y-132356221D01*
X64234912Y-132360069D01*
X64229159Y-132365519D01*
X64229158Y-132365520D01*
X63758910Y-132811018D01*
X63712860Y-132838826D01*
X63592382Y-132879840D01*
X63592379Y-132879841D01*
X63585715Y-132882110D01*
X63445555Y-132968337D01*
X63412989Y-133000228D01*
X63348420Y-133063459D01*
X63327982Y-133083473D01*
X63238838Y-133221797D01*
X63236427Y-133228420D01*
X63236426Y-133228423D01*
X63184966Y-133369809D01*
X63184965Y-133369814D01*
X63182556Y-133376432D01*
X63161931Y-133539694D01*
X61115860Y-133539694D01*
X61113034Y-130009111D01*
X61132982Y-129940975D01*
X61186600Y-129894439D01*
X61239034Y-129883011D01*
X62954478Y-129883011D01*
X63022599Y-129903013D01*
X63069092Y-129956669D01*
X63079196Y-130026943D01*
X63049702Y-130091523D01*
X62991454Y-130128957D01*
X62991495Y-130129078D01*
X62898955Y-130160581D01*
X62842382Y-130179840D01*
X62842379Y-130179841D01*
X62835715Y-130182110D01*
X62695555Y-130268337D01*
X62577982Y-130383473D01*
X62488838Y-130521797D01*
X62486427Y-130528420D01*
X62486426Y-130528423D01*
X62434966Y-130669809D01*
X62434965Y-130669814D01*
X62432556Y-130676432D01*
X62411931Y-130839694D01*
X62427989Y-131003468D01*
X62479932Y-131159615D01*
X62565179Y-131300373D01*
X62679491Y-131418747D01*
X62817189Y-131508854D01*
X62971428Y-131566215D01*
X62978409Y-131567146D01*
X62978411Y-131567147D01*
X63127561Y-131587048D01*
X63127565Y-131587048D01*
X63134542Y-131587979D01*
X63141553Y-131587341D01*
X63141557Y-131587341D01*
X63291403Y-131573704D01*
X63291404Y-131573704D01*
X63298424Y-131573065D01*
X63327062Y-131563760D01*
X63448230Y-131524390D01*
X63448233Y-131524389D01*
X63454929Y-131522213D01*
X63596279Y-131437951D01*
X63715449Y-131324468D01*
X63731458Y-131300373D01*
X63802614Y-131193275D01*
X63802615Y-131193273D01*
X63806515Y-131187403D01*
X63864951Y-131033568D01*
X63887853Y-130870610D01*
X63888141Y-130850000D01*
X63869798Y-130686466D01*
X63863998Y-130669809D01*
X63817998Y-130537717D01*
X63815680Y-130531060D01*
X63728476Y-130391505D01*
X63670499Y-130333122D01*
X63617486Y-130279737D01*
X63617482Y-130279734D01*
X63612522Y-130274739D01*
X63473580Y-130186563D01*
X63318555Y-130131361D01*
X63315217Y-130130963D01*
X63254730Y-130096651D01*
X63221719Y-130033796D01*
X63227930Y-129963072D01*
X63271392Y-129906933D01*
X63345257Y-129883011D01*
X68977353Y-129883011D01*
X68993796Y-129884089D01*
X69025489Y-129888261D01*
X69033678Y-129887183D01*
X69065363Y-129883012D01*
X69065373Y-129883011D01*
X69065374Y-129883011D01*
X69076001Y-129881612D01*
X69164946Y-129869902D01*
X69176153Y-129868427D01*
X69176155Y-129868426D01*
X69184340Y-129867349D01*
X69332365Y-129806035D01*
X69427561Y-129732988D01*
X69427564Y-129732985D01*
X69459476Y-129708498D01*
X69464506Y-129701943D01*
X69478941Y-129683132D01*
X69489808Y-129670741D01*
X70905828Y-128254721D01*
X70955987Y-128223983D01*
X71093230Y-128179390D01*
X71093233Y-128179389D01*
X71099929Y-128177213D01*
X71154480Y-128144694D01*
X75706931Y-128144694D01*
X75722989Y-128308468D01*
X75774932Y-128464615D01*
X75778581Y-128470640D01*
X75852294Y-128592353D01*
X75860179Y-128605373D01*
X75865070Y-128610438D01*
X75865071Y-128610439D01*
X75903318Y-128650045D01*
X75974491Y-128723747D01*
X76112189Y-128813854D01*
X76266428Y-128871215D01*
X76273409Y-128872146D01*
X76273411Y-128872147D01*
X76422561Y-128892048D01*
X76422565Y-128892048D01*
X76429542Y-128892979D01*
X76436553Y-128892341D01*
X76436557Y-128892341D01*
X76586403Y-128878704D01*
X76586404Y-128878704D01*
X76593424Y-128878065D01*
X76622062Y-128868760D01*
X76743230Y-128829390D01*
X76743233Y-128829389D01*
X76749929Y-128827213D01*
X76891279Y-128742951D01*
X77010449Y-128629468D01*
X77026458Y-128605373D01*
X77097614Y-128498275D01*
X77097615Y-128498273D01*
X77101515Y-128492403D01*
X77159951Y-128338568D01*
X77160931Y-128331592D01*
X77162684Y-128324767D01*
X77165153Y-128325401D01*
X77189588Y-128271454D01*
X77195972Y-128264577D01*
X77565144Y-127895405D01*
X77627456Y-127861379D01*
X77654239Y-127858500D01*
X79578415Y-127858500D01*
X79646536Y-127878502D01*
X79693029Y-127932158D01*
X79703133Y-128002432D01*
X79673639Y-128067012D01*
X79642838Y-128092785D01*
X79567343Y-128137700D01*
X79530406Y-128159675D01*
X79380690Y-128290972D01*
X79257407Y-128447355D01*
X79164688Y-128623586D01*
X79105637Y-128813763D01*
X79082231Y-129011516D01*
X79095255Y-129210223D01*
X79144272Y-129403229D01*
X79227641Y-129584071D01*
X79230974Y-129588787D01*
X79324811Y-129721563D01*
X79342570Y-129746692D01*
X79485210Y-129885645D01*
X79650784Y-129996278D01*
X79656087Y-129998556D01*
X79656090Y-129998558D01*
X79813205Y-130066060D01*
X79833746Y-130074885D01*
X79905276Y-130091071D01*
X80022332Y-130117558D01*
X80022337Y-130117559D01*
X80027969Y-130118833D01*
X80033740Y-130119060D01*
X80033742Y-130119060D01*
X80093969Y-130121426D01*
X80226949Y-130126651D01*
X80342506Y-130109896D01*
X80418300Y-130098907D01*
X80418304Y-130098906D01*
X80424022Y-130098077D01*
X80429494Y-130096219D01*
X80429496Y-130096219D01*
X80545627Y-130056797D01*
X80612587Y-130034067D01*
X80786330Y-129936766D01*
X80801204Y-129924396D01*
X80935001Y-129813119D01*
X80939433Y-129809433D01*
X81003011Y-129732988D01*
X81063077Y-129660766D01*
X81063079Y-129660764D01*
X81066766Y-129656330D01*
X81164067Y-129482587D01*
X81228077Y-129294022D01*
X81241064Y-129204455D01*
X81256118Y-129100623D01*
X81256651Y-129096949D01*
X81258142Y-129040000D01*
X81243062Y-128875887D01*
X81240450Y-128847456D01*
X81240449Y-128847453D01*
X81239921Y-128841702D01*
X81233660Y-128819500D01*
X81187436Y-128655604D01*
X81187435Y-128655602D01*
X81185868Y-128650045D01*
X81175721Y-128629468D01*
X81100349Y-128476627D01*
X81100346Y-128476623D01*
X81097794Y-128471447D01*
X81041683Y-128396305D01*
X80982100Y-128316515D01*
X80978647Y-128311891D01*
X80865670Y-128207456D01*
X80836660Y-128180639D01*
X80836658Y-128180637D01*
X80832419Y-128176719D01*
X80827536Y-128173638D01*
X80827532Y-128173635D01*
X80696662Y-128091062D01*
X80649723Y-128037795D01*
X80639034Y-127967608D01*
X80667989Y-127902784D01*
X80727393Y-127863904D01*
X80763897Y-127858500D01*
X80902678Y-127858500D01*
X80971671Y-127879068D01*
X81017189Y-127908854D01*
X81171428Y-127966215D01*
X81178409Y-127967146D01*
X81178411Y-127967147D01*
X81327561Y-127987048D01*
X81327565Y-127987048D01*
X81334542Y-127987979D01*
X81341553Y-127987341D01*
X81341557Y-127987341D01*
X81491403Y-127973704D01*
X81491404Y-127973704D01*
X81498424Y-127973065D01*
X81545346Y-127957819D01*
X81648230Y-127924390D01*
X81648233Y-127924389D01*
X81654929Y-127922213D01*
X81796279Y-127837951D01*
X81915449Y-127724468D01*
X81919350Y-127718597D01*
X82002614Y-127593275D01*
X82002615Y-127593273D01*
X82006515Y-127587403D01*
X82064951Y-127433568D01*
X82075458Y-127358808D01*
X82087302Y-127274534D01*
X82087303Y-127274527D01*
X82087853Y-127270610D01*
X82088141Y-127250000D01*
X82069798Y-127086466D01*
X82057963Y-127052479D01*
X82017998Y-126937717D01*
X82015680Y-126931060D01*
X81928476Y-126791505D01*
X81870499Y-126733122D01*
X81817486Y-126679737D01*
X81817482Y-126679734D01*
X81812522Y-126674739D01*
X81673580Y-126586563D01*
X81632044Y-126571773D01*
X81551107Y-126542952D01*
X81493643Y-126501258D01*
X81467843Y-126435115D01*
X81481898Y-126365523D01*
X81506483Y-126333007D01*
X81510343Y-126329332D01*
X81510350Y-126329324D01*
X81515449Y-126324468D01*
X81531458Y-126300373D01*
X81602614Y-126193275D01*
X81602615Y-126193273D01*
X81606515Y-126187403D01*
X81664951Y-126033568D01*
X81680073Y-125925969D01*
X81687302Y-125874534D01*
X81687303Y-125874527D01*
X81687853Y-125870610D01*
X81688141Y-125850000D01*
X81669798Y-125686466D01*
X81663998Y-125669809D01*
X81627615Y-125565332D01*
X81615680Y-125531060D01*
X81528476Y-125391505D01*
X81445563Y-125308011D01*
X81417486Y-125279737D01*
X81417482Y-125279734D01*
X81412522Y-125274739D01*
X81273580Y-125186563D01*
X81198744Y-125159915D01*
X81125189Y-125133723D01*
X81125187Y-125133722D01*
X81118555Y-125131361D01*
X81111569Y-125130528D01*
X81111565Y-125130527D01*
X80988623Y-125115868D01*
X80955153Y-125111877D01*
X80948150Y-125112613D01*
X80948149Y-125112613D01*
X80795658Y-125128640D01*
X80725820Y-125115868D01*
X80673973Y-125067366D01*
X80656579Y-124998533D01*
X80679161Y-124931223D01*
X80720918Y-124893398D01*
X80786330Y-124856766D01*
X80843938Y-124808855D01*
X80935001Y-124733119D01*
X80939433Y-124729433D01*
X81066766Y-124576330D01*
X81164067Y-124402587D01*
X81224301Y-124225146D01*
X81226219Y-124219496D01*
X81226219Y-124219494D01*
X81228077Y-124214022D01*
X81241064Y-124124455D01*
X81256118Y-124020623D01*
X81256651Y-124016949D01*
X81258142Y-123960000D01*
X81239921Y-123761702D01*
X81235516Y-123746081D01*
X81187436Y-123575604D01*
X81187435Y-123575602D01*
X81185868Y-123570045D01*
X81183314Y-123564865D01*
X81100349Y-123396627D01*
X81100346Y-123396623D01*
X81097794Y-123391447D01*
X80978647Y-123231891D01*
X80832419Y-123096719D01*
X80827536Y-123093638D01*
X80668886Y-122993537D01*
X80664006Y-122990458D01*
X80479049Y-122916668D01*
X80473389Y-122915542D01*
X80473385Y-122915541D01*
X80289410Y-122878946D01*
X80289405Y-122878946D01*
X80283742Y-122877819D01*
X80277967Y-122877743D01*
X80277963Y-122877743D01*
X80180390Y-122876466D01*
X80084625Y-122875212D01*
X79888368Y-122908936D01*
X79701543Y-122977859D01*
X79530406Y-123079675D01*
X79380690Y-123210972D01*
X79257407Y-123367355D01*
X79164688Y-123543586D01*
X79105637Y-123733763D01*
X79082231Y-123931516D01*
X79095255Y-124130223D01*
X79144272Y-124323229D01*
X79227641Y-124504071D01*
X79230974Y-124508787D01*
X79278709Y-124576330D01*
X79342570Y-124666692D01*
X79485210Y-124805645D01*
X79650784Y-124916278D01*
X79656087Y-124918556D01*
X79656090Y-124918558D01*
X79798097Y-124979569D01*
X79833746Y-124994885D01*
X79905276Y-125011071D01*
X80022332Y-125037558D01*
X80022337Y-125037559D01*
X80027969Y-125038833D01*
X80033740Y-125039060D01*
X80033742Y-125039060D01*
X80093969Y-125041426D01*
X80226949Y-125046651D01*
X80342506Y-125029896D01*
X80418300Y-125018907D01*
X80418304Y-125018906D01*
X80424022Y-125018077D01*
X80429494Y-125016219D01*
X80429500Y-125016218D01*
X80431647Y-125015489D01*
X80432723Y-125015444D01*
X80435110Y-125014871D01*
X80435223Y-125015340D01*
X80502582Y-125012533D01*
X80563854Y-125048396D01*
X80596011Y-125111693D01*
X80588842Y-125182327D01*
X80544623Y-125237872D01*
X80538170Y-125242120D01*
X80495555Y-125268337D01*
X80377982Y-125383473D01*
X80288838Y-125521797D01*
X80286427Y-125528420D01*
X80286426Y-125528423D01*
X80234966Y-125669809D01*
X80234965Y-125669814D01*
X80232556Y-125676432D01*
X80211931Y-125839694D01*
X80227989Y-126003468D01*
X80279932Y-126159615D01*
X80365179Y-126300373D01*
X80370070Y-126305438D01*
X80370071Y-126305439D01*
X80386040Y-126321975D01*
X80479491Y-126418747D01*
X80481381Y-126419984D01*
X80520059Y-126477245D01*
X80521684Y-126548223D01*
X80484676Y-126608812D01*
X80420787Y-126639775D01*
X80400007Y-126641500D01*
X77897085Y-126641500D01*
X77828964Y-126621498D01*
X77782471Y-126567842D01*
X77771870Y-126529546D01*
X77767474Y-126490355D01*
X77767474Y-126490354D01*
X77766689Y-126483357D01*
X77760889Y-126466700D01*
X77714889Y-126334608D01*
X77712571Y-126327951D01*
X77625367Y-126188396D01*
X77567390Y-126130013D01*
X77514377Y-126076628D01*
X77514373Y-126076625D01*
X77509413Y-126071630D01*
X77370471Y-125983454D01*
X77321338Y-125965959D01*
X77222080Y-125930614D01*
X77222078Y-125930613D01*
X77215446Y-125928252D01*
X77208460Y-125927419D01*
X77208456Y-125927418D01*
X77093962Y-125913766D01*
X77052044Y-125908768D01*
X77045041Y-125909504D01*
X77045040Y-125909504D01*
X77001826Y-125914046D01*
X76888386Y-125925969D01*
X76881718Y-125928239D01*
X76739273Y-125976731D01*
X76739270Y-125976732D01*
X76732606Y-125979001D01*
X76592446Y-126065228D01*
X76580805Y-126076628D01*
X76489909Y-126165640D01*
X76474873Y-126180364D01*
X76385729Y-126318688D01*
X76383318Y-126325311D01*
X76383317Y-126325314D01*
X76331857Y-126466700D01*
X76331856Y-126466705D01*
X76329447Y-126473323D01*
X76308822Y-126636585D01*
X76324880Y-126800359D01*
X76376823Y-126956506D01*
X76462070Y-127097264D01*
X76466963Y-127102331D01*
X76471259Y-127107909D01*
X76469491Y-127109271D01*
X76497477Y-127162724D01*
X76491177Y-127233441D01*
X76463003Y-127276448D01*
X76335717Y-127403734D01*
X76285519Y-127431210D01*
X76286495Y-127434078D01*
X76137382Y-127484840D01*
X76137379Y-127484841D01*
X76130715Y-127487110D01*
X75990555Y-127573337D01*
X75970195Y-127593275D01*
X75880008Y-127681593D01*
X75872982Y-127688473D01*
X75783838Y-127826797D01*
X75781427Y-127833420D01*
X75781426Y-127833423D01*
X75729966Y-127974809D01*
X75729965Y-127974814D01*
X75727556Y-127981432D01*
X75706931Y-128144694D01*
X71154480Y-128144694D01*
X71241279Y-128092951D01*
X71360449Y-127979468D01*
X71364703Y-127973065D01*
X71447614Y-127848275D01*
X71447615Y-127848273D01*
X71451515Y-127842403D01*
X71509951Y-127688568D01*
X71518507Y-127627689D01*
X71532302Y-127529534D01*
X71532303Y-127529527D01*
X71532853Y-127525610D01*
X71533141Y-127505000D01*
X71514798Y-127341466D01*
X71505656Y-127315212D01*
X71462998Y-127192717D01*
X71460680Y-127186060D01*
X71373476Y-127046505D01*
X71284103Y-126956506D01*
X71262486Y-126934737D01*
X71262482Y-126934734D01*
X71257522Y-126929739D01*
X71118580Y-126841563D01*
X70994778Y-126797479D01*
X70970189Y-126788723D01*
X70970187Y-126788722D01*
X70963555Y-126786361D01*
X70956569Y-126785528D01*
X70956565Y-126785527D01*
X70842071Y-126771875D01*
X70800153Y-126766877D01*
X70793150Y-126767613D01*
X70793149Y-126767613D01*
X70749935Y-126772155D01*
X70636495Y-126784078D01*
X70629827Y-126786348D01*
X70487382Y-126834840D01*
X70487379Y-126834841D01*
X70480715Y-126837110D01*
X70340555Y-126923337D01*
X70222982Y-127038473D01*
X70133838Y-127176797D01*
X70131427Y-127183420D01*
X70131426Y-127183423D01*
X70101135Y-127266649D01*
X70077556Y-127331432D01*
X70076886Y-127336739D01*
X70043856Y-127395595D01*
X68810345Y-128629106D01*
X68748033Y-128663132D01*
X68721250Y-128666011D01*
X66371925Y-128666011D01*
X66303804Y-128646009D01*
X66257311Y-128592353D01*
X66247229Y-128521931D01*
X66256118Y-128460623D01*
X66256651Y-128456949D01*
X66258142Y-128400000D01*
X66242444Y-128229160D01*
X66240450Y-128207456D01*
X66240449Y-128207453D01*
X66239921Y-128201702D01*
X66233629Y-128179390D01*
X66187436Y-128015604D01*
X66187435Y-128015602D01*
X66185868Y-128010045D01*
X66182114Y-128002432D01*
X66100349Y-127836627D01*
X66100346Y-127836623D01*
X66097794Y-127831447D01*
X66079660Y-127807162D01*
X65982100Y-127676515D01*
X65978647Y-127671891D01*
X65832419Y-127536719D01*
X65827536Y-127533638D01*
X65668886Y-127433537D01*
X65664006Y-127430458D01*
X65479049Y-127356668D01*
X65473389Y-127355542D01*
X65473385Y-127355541D01*
X65289410Y-127318946D01*
X65289405Y-127318946D01*
X65283742Y-127317819D01*
X65277967Y-127317743D01*
X65277963Y-127317743D01*
X65180390Y-127316466D01*
X65084625Y-127315212D01*
X64888368Y-127348936D01*
X64701543Y-127417859D01*
X64696582Y-127420811D01*
X64696581Y-127420811D01*
X64561692Y-127501062D01*
X64530406Y-127519675D01*
X64380690Y-127650972D01*
X64377123Y-127655497D01*
X64377118Y-127655502D01*
X64307742Y-127743506D01*
X64249861Y-127784619D01*
X64208792Y-127791500D01*
X61237159Y-127791500D01*
X61169038Y-127771498D01*
X61122545Y-127717842D01*
X61111159Y-127665601D01*
X61109294Y-125334601D01*
X61129242Y-125266464D01*
X61182860Y-125219928D01*
X61235294Y-125208500D01*
X64074457Y-125208500D01*
X64142578Y-125228502D01*
X64187898Y-125279663D01*
X64204668Y-125314354D01*
X64316081Y-125453919D01*
X64455646Y-125565332D01*
X64461984Y-125568396D01*
X64461989Y-125568399D01*
X64579676Y-125625290D01*
X64616427Y-125643056D01*
X64623288Y-125644640D01*
X64775635Y-125679812D01*
X64790431Y-125683228D01*
X64795148Y-125683500D01*
X65544852Y-125683500D01*
X65549569Y-125683228D01*
X65564366Y-125679812D01*
X65716712Y-125644640D01*
X65723573Y-125643056D01*
X65760324Y-125625290D01*
X65878011Y-125568399D01*
X65878016Y-125568396D01*
X65884354Y-125565332D01*
X66023919Y-125453919D01*
X66135332Y-125314354D01*
X66138398Y-125308012D01*
X66138399Y-125308011D01*
X66209990Y-125159915D01*
X66213056Y-125153573D01*
X66253228Y-124979569D01*
X66253500Y-124974852D01*
X66253500Y-124225148D01*
X66253228Y-124220431D01*
X66213056Y-124046427D01*
X66194075Y-124007162D01*
X66138399Y-123891989D01*
X66138396Y-123891984D01*
X66135332Y-123885646D01*
X66023919Y-123746081D01*
X65884354Y-123634668D01*
X65878016Y-123631604D01*
X65878011Y-123631601D01*
X65729915Y-123560010D01*
X65729916Y-123560010D01*
X65723573Y-123556944D01*
X65549569Y-123516772D01*
X65544852Y-123516500D01*
X64795148Y-123516500D01*
X64790431Y-123516772D01*
X64616427Y-123556944D01*
X64610084Y-123560010D01*
X64610085Y-123560010D01*
X64461989Y-123631601D01*
X64461984Y-123631604D01*
X64455646Y-123634668D01*
X64316081Y-123746081D01*
X64204668Y-123885646D01*
X64201603Y-123891987D01*
X64201602Y-123891988D01*
X64187898Y-123920337D01*
X64140243Y-123972963D01*
X64074457Y-123991500D01*
X61234118Y-123991500D01*
X61165997Y-123971498D01*
X61119504Y-123917842D01*
X61108118Y-123865601D01*
X61105820Y-120994350D01*
X61105456Y-120539694D01*
X62411931Y-120539694D01*
X62427989Y-120703468D01*
X62479932Y-120859615D01*
X62483581Y-120865640D01*
X62534012Y-120948910D01*
X62565179Y-121000373D01*
X62679491Y-121118747D01*
X62817189Y-121208854D01*
X62971428Y-121266215D01*
X62978409Y-121267146D01*
X62978411Y-121267147D01*
X63127561Y-121287048D01*
X63127565Y-121287048D01*
X63134542Y-121287979D01*
X63141553Y-121287341D01*
X63141557Y-121287341D01*
X63291403Y-121273704D01*
X63291404Y-121273704D01*
X63298424Y-121273065D01*
X63373399Y-121248704D01*
X63448230Y-121224390D01*
X63448233Y-121224389D01*
X63454929Y-121222213D01*
X63502916Y-121193607D01*
X63573935Y-121151271D01*
X63638453Y-121133500D01*
X68827678Y-121133500D01*
X68896671Y-121154068D01*
X68942189Y-121183854D01*
X69096428Y-121241215D01*
X69103409Y-121242146D01*
X69103411Y-121242147D01*
X69252561Y-121262048D01*
X69252565Y-121262048D01*
X69259542Y-121262979D01*
X69266553Y-121262341D01*
X69266557Y-121262341D01*
X69416403Y-121248704D01*
X69416404Y-121248704D01*
X69423424Y-121248065D01*
X69458823Y-121236563D01*
X69573230Y-121199390D01*
X69573233Y-121199389D01*
X69579929Y-121197213D01*
X69721279Y-121112951D01*
X69840449Y-120999468D01*
X69845632Y-120991667D01*
X69927614Y-120868275D01*
X69927615Y-120868273D01*
X69931515Y-120862403D01*
X69989951Y-120708568D01*
X70007824Y-120581396D01*
X70012302Y-120549534D01*
X70012303Y-120549527D01*
X70012853Y-120545610D01*
X70012995Y-120535430D01*
X70013086Y-120528962D01*
X70013086Y-120528956D01*
X70013141Y-120525000D01*
X69994798Y-120361466D01*
X69940680Y-120206060D01*
X69853476Y-120066505D01*
X69795499Y-120008122D01*
X69742486Y-119954737D01*
X69742482Y-119954734D01*
X69737522Y-119949739D01*
X69598580Y-119861563D01*
X69539521Y-119840533D01*
X69450189Y-119808723D01*
X69450187Y-119808722D01*
X69443555Y-119806361D01*
X69436569Y-119805528D01*
X69436565Y-119805527D01*
X69322071Y-119791875D01*
X69280153Y-119786877D01*
X69273150Y-119787613D01*
X69273149Y-119787613D01*
X69229935Y-119792155D01*
X69116495Y-119804078D01*
X69109827Y-119806348D01*
X68967382Y-119854840D01*
X68967379Y-119854841D01*
X68960715Y-119857110D01*
X68912840Y-119886563D01*
X68894545Y-119897818D01*
X68828523Y-119916500D01*
X63557359Y-119916500D01*
X63489848Y-119896887D01*
X63473580Y-119886563D01*
X63396730Y-119859198D01*
X63325189Y-119833723D01*
X63325187Y-119833722D01*
X63318555Y-119831361D01*
X63311569Y-119830528D01*
X63311565Y-119830527D01*
X63197071Y-119816875D01*
X63155153Y-119811877D01*
X63148150Y-119812613D01*
X63148149Y-119812613D01*
X63104935Y-119817155D01*
X62991495Y-119829078D01*
X62984827Y-119831348D01*
X62842382Y-119879840D01*
X62842379Y-119879841D01*
X62835715Y-119882110D01*
X62779815Y-119916500D01*
X62720578Y-119952943D01*
X62695555Y-119968337D01*
X62690522Y-119973266D01*
X62589209Y-120072479D01*
X62577982Y-120083473D01*
X62488838Y-120221797D01*
X62486427Y-120228420D01*
X62486426Y-120228423D01*
X62434966Y-120369809D01*
X62434965Y-120369814D01*
X62432556Y-120376432D01*
X62411931Y-120539694D01*
X61105456Y-120539694D01*
X61102731Y-117134600D01*
X61122679Y-117066464D01*
X61176297Y-117019928D01*
X61228731Y-117008500D01*
X64207932Y-117008500D01*
X64276053Y-117028502D01*
X64310828Y-117061779D01*
X64339232Y-117101970D01*
X64339237Y-117101976D01*
X64342570Y-117106692D01*
X64346712Y-117110727D01*
X64402426Y-117165001D01*
X64485210Y-117245645D01*
X64650784Y-117356278D01*
X64656087Y-117358556D01*
X64656090Y-117358558D01*
X64828439Y-117432605D01*
X64833746Y-117434885D01*
X64905276Y-117451071D01*
X65022332Y-117477558D01*
X65022337Y-117477559D01*
X65027969Y-117478833D01*
X65033740Y-117479060D01*
X65033742Y-117479060D01*
X65093969Y-117481426D01*
X65226949Y-117486651D01*
X65342506Y-117469896D01*
X65418300Y-117458907D01*
X65418304Y-117458906D01*
X65424022Y-117458077D01*
X65429494Y-117456219D01*
X65429496Y-117456219D01*
X65585597Y-117403229D01*
X65612587Y-117394067D01*
X65786330Y-117296766D01*
X65796510Y-117288300D01*
X65935001Y-117173119D01*
X65939433Y-117169433D01*
X65999717Y-117096949D01*
X66063077Y-117020766D01*
X66063079Y-117020764D01*
X66066766Y-117016330D01*
X66069462Y-117011516D01*
X79082231Y-117011516D01*
X79095255Y-117210223D01*
X79144272Y-117403229D01*
X79227641Y-117584071D01*
X79230974Y-117588787D01*
X79278709Y-117656330D01*
X79342570Y-117746692D01*
X79485210Y-117885645D01*
X79650784Y-117996278D01*
X79656087Y-117998556D01*
X79656090Y-117998558D01*
X79828439Y-118072605D01*
X79833746Y-118074885D01*
X79905276Y-118091071D01*
X80022332Y-118117558D01*
X80022337Y-118117559D01*
X80027969Y-118118833D01*
X80033740Y-118119060D01*
X80033742Y-118119060D01*
X80093969Y-118121426D01*
X80226949Y-118126651D01*
X80342506Y-118109896D01*
X80418300Y-118098907D01*
X80418304Y-118098906D01*
X80424022Y-118098077D01*
X80429494Y-118096219D01*
X80429496Y-118096219D01*
X80607119Y-118035923D01*
X80612587Y-118034067D01*
X80786330Y-117936766D01*
X80843938Y-117888855D01*
X80935001Y-117813119D01*
X80939433Y-117809433D01*
X81066766Y-117656330D01*
X81164067Y-117482587D01*
X81228077Y-117294022D01*
X81241064Y-117204455D01*
X81256118Y-117100623D01*
X81256651Y-117096949D01*
X81258142Y-117040000D01*
X81239921Y-116841702D01*
X81237746Y-116833987D01*
X81187436Y-116655604D01*
X81187435Y-116655602D01*
X81185868Y-116650045D01*
X81183314Y-116644865D01*
X81100349Y-116476627D01*
X81100346Y-116476623D01*
X81097794Y-116471447D01*
X81041683Y-116396305D01*
X80982100Y-116316515D01*
X80978647Y-116311891D01*
X80865670Y-116207456D01*
X80836660Y-116180639D01*
X80836658Y-116180637D01*
X80832419Y-116176719D01*
X80827536Y-116173638D01*
X80668886Y-116073537D01*
X80664006Y-116070458D01*
X80479049Y-115996668D01*
X80473389Y-115995542D01*
X80473385Y-115995541D01*
X80289410Y-115958946D01*
X80289405Y-115958946D01*
X80283742Y-115957819D01*
X80277967Y-115957743D01*
X80277963Y-115957743D01*
X80180390Y-115956466D01*
X80084625Y-115955212D01*
X79888368Y-115988936D01*
X79701543Y-116057859D01*
X79696582Y-116060811D01*
X79696581Y-116060811D01*
X79557431Y-116143597D01*
X79530406Y-116159675D01*
X79380690Y-116290972D01*
X79377118Y-116295503D01*
X79295761Y-116398704D01*
X79257407Y-116447355D01*
X79164688Y-116623586D01*
X79105637Y-116813763D01*
X79082231Y-117011516D01*
X66069462Y-117011516D01*
X66164067Y-116842587D01*
X66228077Y-116654022D01*
X66231691Y-116629100D01*
X66256118Y-116460623D01*
X66256651Y-116456949D01*
X66258142Y-116400000D01*
X66244139Y-116247605D01*
X66240450Y-116207456D01*
X66240449Y-116207453D01*
X66239921Y-116201702D01*
X66225190Y-116149468D01*
X66187436Y-116015604D01*
X66187435Y-116015602D01*
X66185868Y-116010045D01*
X66179272Y-115996668D01*
X66131818Y-115900442D01*
X66102124Y-115840227D01*
X66089934Y-115770286D01*
X66117493Y-115704856D01*
X66176052Y-115664713D01*
X66215130Y-115658500D01*
X70385882Y-115658500D01*
X70449660Y-115677513D01*
X70450009Y-115676821D01*
X70453853Y-115678763D01*
X70454873Y-115679067D01*
X70456288Y-115679993D01*
X70456291Y-115679995D01*
X70462189Y-115683854D01*
X70616428Y-115741215D01*
X70623409Y-115742146D01*
X70623411Y-115742147D01*
X70772561Y-115762048D01*
X70772565Y-115762048D01*
X70779542Y-115762979D01*
X70786553Y-115762341D01*
X70786557Y-115762341D01*
X70936403Y-115748704D01*
X70936404Y-115748704D01*
X70943424Y-115748065D01*
X71022988Y-115722213D01*
X71093230Y-115699390D01*
X71093233Y-115699389D01*
X71099929Y-115697213D01*
X71241279Y-115612951D01*
X71360449Y-115499468D01*
X71376458Y-115475373D01*
X71447614Y-115368275D01*
X71447615Y-115368273D01*
X71451515Y-115362403D01*
X71509951Y-115208568D01*
X71532853Y-115045610D01*
X71533141Y-115025000D01*
X71531985Y-115014694D01*
X75836931Y-115014694D01*
X75852989Y-115178468D01*
X75904932Y-115334615D01*
X75990179Y-115475373D01*
X76104491Y-115593747D01*
X76110388Y-115597606D01*
X76110393Y-115597610D01*
X76134633Y-115613472D01*
X76180683Y-115667508D01*
X76191041Y-115706609D01*
X76202989Y-115828468D01*
X76254932Y-115984615D01*
X76258581Y-115990640D01*
X76308786Y-116073537D01*
X76340179Y-116125373D01*
X76454491Y-116243747D01*
X76592189Y-116333854D01*
X76746428Y-116391215D01*
X76753409Y-116392146D01*
X76753411Y-116392147D01*
X76902561Y-116412048D01*
X76902565Y-116412048D01*
X76909542Y-116412979D01*
X76916553Y-116412341D01*
X76916557Y-116412341D01*
X77066403Y-116398704D01*
X77066404Y-116398704D01*
X77073424Y-116398065D01*
X77102062Y-116388760D01*
X77223230Y-116349390D01*
X77223233Y-116349389D01*
X77229929Y-116347213D01*
X77371279Y-116262951D01*
X77490449Y-116149468D01*
X77506458Y-116125373D01*
X77577614Y-116018275D01*
X77577615Y-116018273D01*
X77581515Y-116012403D01*
X77639951Y-115858568D01*
X77640931Y-115851592D01*
X77642684Y-115844767D01*
X77645153Y-115845401D01*
X77669588Y-115791454D01*
X77675972Y-115784577D01*
X78865144Y-114595405D01*
X78927456Y-114561379D01*
X78954239Y-114558500D01*
X80952678Y-114558500D01*
X81021671Y-114579068D01*
X81067189Y-114608854D01*
X81221428Y-114666215D01*
X81228409Y-114667146D01*
X81228411Y-114667147D01*
X81377561Y-114687048D01*
X81377565Y-114687048D01*
X81384542Y-114687979D01*
X81391553Y-114687341D01*
X81391557Y-114687341D01*
X81541403Y-114673704D01*
X81541404Y-114673704D01*
X81548424Y-114673065D01*
X81577062Y-114663760D01*
X81698230Y-114624390D01*
X81698233Y-114624389D01*
X81704929Y-114622213D01*
X81846279Y-114537951D01*
X81965449Y-114424468D01*
X81993592Y-114382110D01*
X82052614Y-114293275D01*
X82052615Y-114293273D01*
X82056515Y-114287403D01*
X82114951Y-114133568D01*
X82137853Y-113970610D01*
X82138141Y-113950000D01*
X82119798Y-113786466D01*
X82065680Y-113631060D01*
X82024609Y-113565332D01*
X81982209Y-113497479D01*
X81978476Y-113491505D01*
X81905955Y-113418476D01*
X81867486Y-113379737D01*
X81867482Y-113379734D01*
X81862522Y-113374739D01*
X81799274Y-113334600D01*
X81729526Y-113290336D01*
X81729523Y-113290334D01*
X81723580Y-113286563D01*
X81681892Y-113271719D01*
X81624430Y-113230027D01*
X81605172Y-113194465D01*
X81565680Y-113081060D01*
X81539436Y-113039060D01*
X81482209Y-112947479D01*
X81478476Y-112941505D01*
X81420499Y-112883122D01*
X81367486Y-112829737D01*
X81367482Y-112829734D01*
X81362522Y-112824739D01*
X81223580Y-112736563D01*
X81158607Y-112713427D01*
X81101144Y-112671732D01*
X81075344Y-112605589D01*
X81090940Y-112533164D01*
X81164067Y-112402587D01*
X81224301Y-112225146D01*
X81226219Y-112219496D01*
X81226219Y-112219494D01*
X81228077Y-112214022D01*
X81241064Y-112124455D01*
X81256118Y-112020623D01*
X81256651Y-112016949D01*
X81258142Y-111960000D01*
X81239921Y-111761702D01*
X81235516Y-111746081D01*
X81187436Y-111575604D01*
X81187435Y-111575602D01*
X81185868Y-111570045D01*
X81183314Y-111564865D01*
X81100349Y-111396627D01*
X81100346Y-111396623D01*
X81097794Y-111391447D01*
X80978647Y-111231891D01*
X80832419Y-111096719D01*
X80827536Y-111093638D01*
X80668886Y-110993537D01*
X80664006Y-110990458D01*
X80479049Y-110916668D01*
X80473389Y-110915542D01*
X80473385Y-110915541D01*
X80289410Y-110878946D01*
X80289405Y-110878946D01*
X80283742Y-110877819D01*
X80277967Y-110877743D01*
X80277963Y-110877743D01*
X80180390Y-110876466D01*
X80084625Y-110875212D01*
X79888368Y-110908936D01*
X79701543Y-110977859D01*
X79530406Y-111079675D01*
X79380690Y-111210972D01*
X79257407Y-111367355D01*
X79164688Y-111543586D01*
X79105637Y-111733763D01*
X79082231Y-111931516D01*
X79095255Y-112130223D01*
X79144272Y-112323229D01*
X79227641Y-112504071D01*
X79230974Y-112508787D01*
X79278709Y-112576330D01*
X79342570Y-112666692D01*
X79485210Y-112805645D01*
X79650784Y-112916278D01*
X79656087Y-112918556D01*
X79656090Y-112918558D01*
X79798097Y-112979569D01*
X79833746Y-112994885D01*
X79905276Y-113011071D01*
X80022332Y-113037558D01*
X80022337Y-113037559D01*
X80027969Y-113038833D01*
X80033740Y-113039060D01*
X80033742Y-113039060D01*
X80075198Y-113040689D01*
X80142481Y-113063351D01*
X80186831Y-113118791D01*
X80194167Y-113189407D01*
X80188651Y-113209686D01*
X80182556Y-113226432D01*
X80181673Y-113233425D01*
X80180017Y-113240268D01*
X80178217Y-113239833D01*
X80153562Y-113296367D01*
X80094503Y-113335769D01*
X80056936Y-113341500D01*
X78698136Y-113341500D01*
X78681690Y-113340422D01*
X78658188Y-113337328D01*
X78650000Y-113336250D01*
X78641812Y-113337328D01*
X78610129Y-113341499D01*
X78610120Y-113341500D01*
X78610115Y-113341500D01*
X78491150Y-113357162D01*
X78343125Y-113418476D01*
X78343123Y-113418477D01*
X78343124Y-113418477D01*
X78247928Y-113491523D01*
X78247925Y-113491526D01*
X78216013Y-113516013D01*
X78210983Y-113522568D01*
X78196548Y-113541379D01*
X78185681Y-113553770D01*
X77252584Y-114486867D01*
X77190272Y-114520893D01*
X77119457Y-114515828D01*
X77074083Y-114486556D01*
X77042486Y-114454737D01*
X77042482Y-114454734D01*
X77037522Y-114449739D01*
X76898580Y-114361563D01*
X76759046Y-114311877D01*
X76750189Y-114308723D01*
X76750187Y-114308722D01*
X76743555Y-114306361D01*
X76736569Y-114305528D01*
X76736565Y-114305527D01*
X76622071Y-114291875D01*
X76580153Y-114286877D01*
X76573150Y-114287613D01*
X76573149Y-114287613D01*
X76529935Y-114292155D01*
X76416495Y-114304078D01*
X76409827Y-114306348D01*
X76267382Y-114354840D01*
X76267379Y-114354841D01*
X76260715Y-114357110D01*
X76120555Y-114443337D01*
X76002982Y-114558473D01*
X75913838Y-114696797D01*
X75911427Y-114703420D01*
X75911426Y-114703423D01*
X75859966Y-114844809D01*
X75859965Y-114844814D01*
X75857556Y-114851432D01*
X75836931Y-115014694D01*
X71531985Y-115014694D01*
X71514798Y-114861466D01*
X71508998Y-114844809D01*
X71462998Y-114712717D01*
X71460680Y-114706060D01*
X71440063Y-114673065D01*
X71377209Y-114572479D01*
X71373476Y-114566505D01*
X71275991Y-114468337D01*
X71262486Y-114454737D01*
X71262482Y-114454734D01*
X71257522Y-114449739D01*
X71118580Y-114361563D01*
X70979046Y-114311877D01*
X70970189Y-114308723D01*
X70970187Y-114308722D01*
X70963555Y-114306361D01*
X70956569Y-114305528D01*
X70956565Y-114305527D01*
X70842071Y-114291875D01*
X70800153Y-114286877D01*
X70793150Y-114287613D01*
X70793149Y-114287613D01*
X70749935Y-114292155D01*
X70636495Y-114304078D01*
X70629827Y-114306348D01*
X70487382Y-114354840D01*
X70487379Y-114354841D01*
X70480715Y-114357110D01*
X70440078Y-114382110D01*
X70373908Y-114422818D01*
X70307886Y-114441500D01*
X61226475Y-114441500D01*
X61158354Y-114421498D01*
X61111861Y-114367842D01*
X61100475Y-114315601D01*
X61100470Y-114308723D01*
X61099690Y-113334600D01*
X61119638Y-113266464D01*
X61173256Y-113219928D01*
X61225690Y-113208500D01*
X64074457Y-113208500D01*
X64142578Y-113228502D01*
X64187898Y-113279663D01*
X64191234Y-113286563D01*
X64204668Y-113314354D01*
X64209059Y-113319855D01*
X64209060Y-113319856D01*
X64256862Y-113379737D01*
X64316081Y-113453919D01*
X64455646Y-113565332D01*
X64461984Y-113568396D01*
X64461989Y-113568399D01*
X64579250Y-113625084D01*
X64616427Y-113643056D01*
X64790431Y-113683228D01*
X64795148Y-113683500D01*
X65544852Y-113683500D01*
X65549569Y-113683228D01*
X65723573Y-113643056D01*
X65760750Y-113625084D01*
X65878011Y-113568399D01*
X65878016Y-113568396D01*
X65884354Y-113565332D01*
X66023919Y-113453919D01*
X66135332Y-113314354D01*
X66138398Y-113308012D01*
X66138399Y-113308011D01*
X66209990Y-113159915D01*
X66213056Y-113153573D01*
X66231177Y-113075084D01*
X66252028Y-112984767D01*
X66252028Y-112984766D01*
X66253228Y-112979569D01*
X66253500Y-112974852D01*
X66253500Y-112225148D01*
X66253228Y-112220431D01*
X66213056Y-112046427D01*
X66194075Y-112007162D01*
X66138399Y-111891989D01*
X66138396Y-111891984D01*
X66135332Y-111885646D01*
X66023919Y-111746081D01*
X65884354Y-111634668D01*
X65878016Y-111631604D01*
X65878011Y-111631601D01*
X65729915Y-111560010D01*
X65729916Y-111560010D01*
X65723573Y-111556944D01*
X65549569Y-111516772D01*
X65544852Y-111516500D01*
X64795148Y-111516500D01*
X64790431Y-111516772D01*
X64616427Y-111556944D01*
X64610084Y-111560010D01*
X64610085Y-111560010D01*
X64461989Y-111631601D01*
X64461984Y-111631604D01*
X64455646Y-111634668D01*
X64316081Y-111746081D01*
X64204668Y-111885646D01*
X64201603Y-111891987D01*
X64201602Y-111891988D01*
X64187898Y-111920337D01*
X64140243Y-111972963D01*
X64074457Y-111991500D01*
X61224514Y-111991500D01*
X61156393Y-111971498D01*
X61109900Y-111917842D01*
X61098515Y-111865604D01*
X61097094Y-110089694D01*
X81561931Y-110089694D01*
X81577989Y-110253468D01*
X81629932Y-110409615D01*
X81715179Y-110550373D01*
X81829491Y-110668747D01*
X81967189Y-110758854D01*
X82121428Y-110816215D01*
X82128409Y-110817146D01*
X82128411Y-110817147D01*
X82277561Y-110837048D01*
X82277565Y-110837048D01*
X82284542Y-110837979D01*
X82291553Y-110837341D01*
X82291557Y-110837341D01*
X82441403Y-110823704D01*
X82441404Y-110823704D01*
X82448424Y-110823065D01*
X82477062Y-110813760D01*
X82598230Y-110774390D01*
X82598233Y-110774389D01*
X82604929Y-110772213D01*
X82746279Y-110687951D01*
X82865449Y-110574468D01*
X82881458Y-110550373D01*
X82952614Y-110443275D01*
X82952615Y-110443273D01*
X82956515Y-110437403D01*
X83014951Y-110283568D01*
X83037853Y-110120610D01*
X83038141Y-110100000D01*
X83019798Y-109936466D01*
X83013998Y-109919809D01*
X82967998Y-109787717D01*
X82965680Y-109781060D01*
X82878476Y-109641505D01*
X82820499Y-109583122D01*
X82767486Y-109529737D01*
X82767482Y-109529734D01*
X82762522Y-109524739D01*
X82623580Y-109436563D01*
X82574447Y-109419068D01*
X82475189Y-109383723D01*
X82475187Y-109383722D01*
X82468555Y-109381361D01*
X82461569Y-109380528D01*
X82461565Y-109380527D01*
X82347071Y-109366875D01*
X82305153Y-109361877D01*
X82298150Y-109362613D01*
X82298149Y-109362613D01*
X82254935Y-109367155D01*
X82141495Y-109379078D01*
X82134827Y-109381348D01*
X81992382Y-109429840D01*
X81992379Y-109429841D01*
X81985715Y-109432110D01*
X81845555Y-109518337D01*
X81727982Y-109633473D01*
X81638838Y-109771797D01*
X81636427Y-109778420D01*
X81636426Y-109778423D01*
X81584966Y-109919809D01*
X81584965Y-109919814D01*
X81582556Y-109926432D01*
X81561931Y-110089694D01*
X61097094Y-110089694D01*
X61093483Y-105578826D01*
X61090247Y-101534112D01*
X61110195Y-101465975D01*
X61163813Y-101419439D01*
X61216247Y-101408011D01*
X61265272Y-101408011D01*
X61333393Y-101428013D01*
X61354367Y-101444916D01*
X64060049Y-104150598D01*
X64094075Y-104212910D01*
X64096081Y-104254501D01*
X64082231Y-104371516D01*
X64095255Y-104570223D01*
X64144272Y-104763229D01*
X64227641Y-104944071D01*
X64230973Y-104948786D01*
X64230975Y-104948789D01*
X64233477Y-104952329D01*
X64256459Y-105019503D01*
X64239475Y-105088438D01*
X64187918Y-105137248D01*
X64118157Y-105150436D01*
X64077097Y-105138795D01*
X64073580Y-105136563D01*
X64066944Y-105134200D01*
X64066942Y-105134199D01*
X63925189Y-105083723D01*
X63925187Y-105083722D01*
X63918555Y-105081361D01*
X63911569Y-105080528D01*
X63911565Y-105080527D01*
X63797071Y-105066875D01*
X63755153Y-105061877D01*
X63748150Y-105062613D01*
X63748149Y-105062613D01*
X63704935Y-105067155D01*
X63591495Y-105079078D01*
X63584827Y-105081348D01*
X63442382Y-105129840D01*
X63442379Y-105129841D01*
X63435715Y-105132110D01*
X63371691Y-105171498D01*
X63317870Y-105204609D01*
X63295555Y-105218337D01*
X63177982Y-105333473D01*
X63088838Y-105471797D01*
X63086427Y-105478420D01*
X63086426Y-105478423D01*
X63034966Y-105619809D01*
X63034965Y-105619814D01*
X63032556Y-105626432D01*
X63011931Y-105789694D01*
X63027989Y-105953468D01*
X63079932Y-106109615D01*
X63165179Y-106250373D01*
X63279491Y-106368747D01*
X63417189Y-106458854D01*
X63571428Y-106516215D01*
X63578409Y-106517146D01*
X63578411Y-106517147D01*
X63727561Y-106537048D01*
X63727565Y-106537048D01*
X63734542Y-106537979D01*
X63741553Y-106537341D01*
X63741557Y-106537341D01*
X63891403Y-106523704D01*
X63891404Y-106523704D01*
X63898424Y-106523065D01*
X63927062Y-106513760D01*
X64048230Y-106474390D01*
X64048233Y-106474389D01*
X64054929Y-106472213D01*
X64131997Y-106426271D01*
X64196515Y-106408500D01*
X66695761Y-106408500D01*
X66763882Y-106428502D01*
X66784856Y-106445405D01*
X68324485Y-107985034D01*
X68354948Y-108034357D01*
X68404932Y-108184615D01*
X68408581Y-108190640D01*
X68459514Y-108274739D01*
X68490179Y-108325373D01*
X68495070Y-108330438D01*
X68495071Y-108330439D01*
X68507778Y-108343597D01*
X68604491Y-108443747D01*
X68742189Y-108533854D01*
X68896428Y-108591215D01*
X68903409Y-108592146D01*
X68903411Y-108592147D01*
X69052561Y-108612048D01*
X69052565Y-108612048D01*
X69059542Y-108612979D01*
X69066553Y-108612341D01*
X69066557Y-108612341D01*
X69216403Y-108598704D01*
X69216404Y-108598704D01*
X69223424Y-108598065D01*
X69252062Y-108588760D01*
X69373230Y-108549390D01*
X69373233Y-108549389D01*
X69379929Y-108547213D01*
X69521279Y-108462951D01*
X69640449Y-108349468D01*
X69656458Y-108325373D01*
X69727614Y-108218275D01*
X69727615Y-108218273D01*
X69731515Y-108212403D01*
X69789951Y-108058568D01*
X69800285Y-107985034D01*
X69812302Y-107899534D01*
X69812303Y-107899527D01*
X69812853Y-107895610D01*
X69813141Y-107875000D01*
X69794798Y-107711466D01*
X69740680Y-107556060D01*
X69653476Y-107416505D01*
X69565575Y-107327988D01*
X69542486Y-107304737D01*
X69542482Y-107304734D01*
X69537522Y-107299739D01*
X69398580Y-107211563D01*
X69243555Y-107156361D01*
X69242582Y-107156245D01*
X69184419Y-107123870D01*
X67464315Y-105403766D01*
X67453448Y-105391375D01*
X67439013Y-105372563D01*
X67433987Y-105366013D01*
X67402075Y-105341526D01*
X67402072Y-105341523D01*
X67306876Y-105268476D01*
X67158851Y-105207162D01*
X67150664Y-105206084D01*
X67150663Y-105206084D01*
X67139458Y-105204609D01*
X67108262Y-105200502D01*
X67039885Y-105191500D01*
X67039882Y-105191500D01*
X67039874Y-105191499D01*
X67008189Y-105187328D01*
X67000000Y-105186250D01*
X66968307Y-105190422D01*
X66951864Y-105191500D01*
X66183642Y-105191500D01*
X66115521Y-105171498D01*
X66069028Y-105117842D01*
X66058924Y-105047568D01*
X66073708Y-105003934D01*
X66161244Y-104847628D01*
X66161244Y-104847627D01*
X66164067Y-104842587D01*
X66228077Y-104654022D01*
X66229884Y-104641563D01*
X66256118Y-104460623D01*
X66256651Y-104456949D01*
X66258142Y-104400000D01*
X66239921Y-104201702D01*
X66232005Y-104173632D01*
X66187436Y-104015604D01*
X66187435Y-104015602D01*
X66185868Y-104010045D01*
X66183314Y-104004865D01*
X66100349Y-103836627D01*
X66100346Y-103836623D01*
X66097794Y-103831447D01*
X66078041Y-103804994D01*
X65982100Y-103676515D01*
X65978647Y-103671891D01*
X65832419Y-103536719D01*
X65664006Y-103430458D01*
X65479049Y-103356668D01*
X65473389Y-103355542D01*
X65473385Y-103355541D01*
X65289410Y-103318946D01*
X65289405Y-103318946D01*
X65283742Y-103317819D01*
X65277967Y-103317743D01*
X65277963Y-103317743D01*
X65180390Y-103316466D01*
X65084625Y-103315212D01*
X65030423Y-103324526D01*
X64959900Y-103316350D01*
X64919990Y-103289441D01*
X62033826Y-100403277D01*
X62022959Y-100390886D01*
X62008524Y-100372074D01*
X62003498Y-100365524D01*
X61971586Y-100341037D01*
X61971583Y-100341034D01*
X61876387Y-100267987D01*
X61728362Y-100206673D01*
X61720175Y-100205595D01*
X61720174Y-100205595D01*
X61708969Y-100204120D01*
X61677773Y-100200013D01*
X61609396Y-100191011D01*
X61609393Y-100191011D01*
X61609385Y-100191010D01*
X61577700Y-100186839D01*
X61569511Y-100185761D01*
X61537818Y-100189933D01*
X61521375Y-100191011D01*
X61215071Y-100191011D01*
X61146950Y-100171009D01*
X61100457Y-100117353D01*
X61089071Y-100065112D01*
X61087164Y-97682004D01*
X61107112Y-97613867D01*
X61160730Y-97567331D01*
X61230996Y-97557171D01*
X61295600Y-97586613D01*
X61302259Y-97592808D01*
X64049595Y-100340144D01*
X64083621Y-100402456D01*
X64086500Y-100429239D01*
X64086500Y-100974852D01*
X64086772Y-100979569D01*
X64126944Y-101153573D01*
X64130010Y-101159915D01*
X64201601Y-101308011D01*
X64201604Y-101308016D01*
X64204668Y-101314354D01*
X64316081Y-101453919D01*
X64455646Y-101565332D01*
X64461984Y-101568396D01*
X64461989Y-101568399D01*
X64579676Y-101625290D01*
X64616427Y-101643056D01*
X64790431Y-101683228D01*
X64795148Y-101683500D01*
X65544852Y-101683500D01*
X65549569Y-101683228D01*
X65723573Y-101643056D01*
X65760324Y-101625290D01*
X65878011Y-101568399D01*
X65878016Y-101568396D01*
X65884354Y-101565332D01*
X66023919Y-101453919D01*
X66135332Y-101314354D01*
X66138396Y-101308016D01*
X66138399Y-101308011D01*
X66209990Y-101159915D01*
X66213056Y-101153573D01*
X66253228Y-100979569D01*
X66253500Y-100974852D01*
X66253500Y-100225148D01*
X66253228Y-100220431D01*
X66213056Y-100046427D01*
X66195290Y-100009676D01*
X66138399Y-99891989D01*
X66138396Y-99891984D01*
X66135332Y-99885646D01*
X66023919Y-99746081D01*
X65884354Y-99634668D01*
X65878016Y-99631604D01*
X65878011Y-99631601D01*
X65729915Y-99560010D01*
X65729916Y-99560010D01*
X65723573Y-99556944D01*
X65549569Y-99516772D01*
X65544852Y-99516500D01*
X64999239Y-99516500D01*
X64931118Y-99496498D01*
X64910144Y-99479595D01*
X62190122Y-96759573D01*
X62156096Y-96697261D01*
X62161161Y-96626446D01*
X62203708Y-96569610D01*
X62270228Y-96544799D01*
X62279217Y-96544478D01*
X63981739Y-96544478D01*
X64049860Y-96564480D01*
X64070834Y-96581383D01*
X70049485Y-102560034D01*
X70079948Y-102609357D01*
X70129932Y-102759615D01*
X70133581Y-102765640D01*
X70196391Y-102869350D01*
X70215179Y-102900373D01*
X70329491Y-103018747D01*
X70467189Y-103108854D01*
X70621428Y-103166215D01*
X70628409Y-103167146D01*
X70628411Y-103167147D01*
X70777561Y-103187048D01*
X70777565Y-103187048D01*
X70784542Y-103187979D01*
X70791553Y-103187341D01*
X70791557Y-103187341D01*
X70941403Y-103173704D01*
X70941404Y-103173704D01*
X70948424Y-103173065D01*
X71029545Y-103146707D01*
X71098230Y-103124390D01*
X71098233Y-103124389D01*
X71104929Y-103122213D01*
X71246279Y-103037951D01*
X71365449Y-102924468D01*
X71381458Y-102900373D01*
X71452614Y-102793275D01*
X71452615Y-102793273D01*
X71456515Y-102787403D01*
X71514951Y-102633568D01*
X71525285Y-102560034D01*
X71537302Y-102474534D01*
X71537303Y-102474527D01*
X71537853Y-102470610D01*
X71538141Y-102450000D01*
X71534181Y-102414694D01*
X75736931Y-102414694D01*
X75752989Y-102578468D01*
X75804932Y-102734615D01*
X75890179Y-102875373D01*
X76004491Y-102993747D01*
X76077550Y-103041555D01*
X76141491Y-103083397D01*
X76187540Y-103137434D01*
X76197897Y-103176533D01*
X76202989Y-103228468D01*
X76254932Y-103384615D01*
X76258581Y-103390640D01*
X76284561Y-103433537D01*
X76340179Y-103525373D01*
X76454491Y-103643747D01*
X76592189Y-103733854D01*
X76746428Y-103791215D01*
X76753409Y-103792146D01*
X76753411Y-103792147D01*
X76902561Y-103812048D01*
X76902565Y-103812048D01*
X76909542Y-103812979D01*
X76916553Y-103812341D01*
X76916557Y-103812341D01*
X77066403Y-103798704D01*
X77066404Y-103798704D01*
X77073424Y-103798065D01*
X77195198Y-103758498D01*
X77223230Y-103749390D01*
X77223233Y-103749389D01*
X77229929Y-103747213D01*
X77371279Y-103662951D01*
X77490449Y-103549468D01*
X77496315Y-103540639D01*
X77577614Y-103418275D01*
X77577615Y-103418273D01*
X77581515Y-103412403D01*
X77639951Y-103258568D01*
X77640931Y-103251592D01*
X77642684Y-103244767D01*
X77645153Y-103245401D01*
X77669588Y-103191454D01*
X77675972Y-103184577D01*
X78720144Y-102140405D01*
X78782456Y-102106379D01*
X78809239Y-102103500D01*
X80857678Y-102103500D01*
X80926671Y-102124068D01*
X80972189Y-102153854D01*
X81126428Y-102211215D01*
X81133409Y-102212146D01*
X81133411Y-102212147D01*
X81282561Y-102232048D01*
X81282565Y-102232048D01*
X81289542Y-102232979D01*
X81296553Y-102232341D01*
X81296557Y-102232341D01*
X81446403Y-102218704D01*
X81446404Y-102218704D01*
X81453424Y-102218065D01*
X81482062Y-102208760D01*
X81603230Y-102169390D01*
X81603233Y-102169389D01*
X81609929Y-102167213D01*
X81751279Y-102082951D01*
X81870449Y-101969468D01*
X81891994Y-101937041D01*
X81957614Y-101838275D01*
X81957615Y-101838273D01*
X81961515Y-101832403D01*
X82019951Y-101678568D01*
X82042853Y-101515610D01*
X82043141Y-101495000D01*
X82024798Y-101331466D01*
X81970680Y-101176060D01*
X81960592Y-101159915D01*
X81887209Y-101042479D01*
X81883476Y-101036505D01*
X81810955Y-100963476D01*
X81772486Y-100924737D01*
X81772482Y-100924734D01*
X81767522Y-100919739D01*
X81628580Y-100831563D01*
X81538568Y-100799511D01*
X81480189Y-100778723D01*
X81480187Y-100778722D01*
X81473555Y-100776361D01*
X81466569Y-100775528D01*
X81466565Y-100775527D01*
X81352071Y-100761875D01*
X81310153Y-100756877D01*
X81185193Y-100770011D01*
X81115356Y-100757239D01*
X81063510Y-100708737D01*
X81046115Y-100639904D01*
X81067121Y-100576529D01*
X81066766Y-100576330D01*
X81067798Y-100574487D01*
X81164067Y-100402587D01*
X81224301Y-100225146D01*
X81226219Y-100219496D01*
X81226219Y-100219494D01*
X81228077Y-100214022D01*
X81231414Y-100191011D01*
X81256118Y-100020623D01*
X81256651Y-100016949D01*
X81258142Y-99960000D01*
X81239921Y-99761702D01*
X81235516Y-99746081D01*
X81187436Y-99575604D01*
X81187435Y-99575602D01*
X81185868Y-99570045D01*
X81183314Y-99564865D01*
X81100349Y-99396627D01*
X81100346Y-99396623D01*
X81097794Y-99391447D01*
X80978647Y-99231891D01*
X80832419Y-99096719D01*
X80827536Y-99093638D01*
X80668886Y-98993537D01*
X80664006Y-98990458D01*
X80479049Y-98916668D01*
X80473389Y-98915542D01*
X80473385Y-98915541D01*
X80289410Y-98878946D01*
X80289405Y-98878946D01*
X80283742Y-98877819D01*
X80277967Y-98877743D01*
X80277963Y-98877743D01*
X80180390Y-98876466D01*
X80084625Y-98875212D01*
X79888368Y-98908936D01*
X79701543Y-98977859D01*
X79530406Y-99079675D01*
X79380690Y-99210972D01*
X79257407Y-99367355D01*
X79164688Y-99543586D01*
X79105637Y-99733763D01*
X79082231Y-99931516D01*
X79095255Y-100130223D01*
X79144272Y-100323229D01*
X79227641Y-100504071D01*
X79230974Y-100508787D01*
X79278709Y-100576330D01*
X79342570Y-100666692D01*
X79346711Y-100670726D01*
X79350459Y-100675114D01*
X79349448Y-100675978D01*
X79381057Y-100732112D01*
X79376917Y-100802988D01*
X79335116Y-100860374D01*
X79268925Y-100886051D01*
X79258297Y-100886500D01*
X78553136Y-100886500D01*
X78536690Y-100885422D01*
X78513188Y-100882328D01*
X78505000Y-100881250D01*
X78496812Y-100882328D01*
X78465129Y-100886499D01*
X78465120Y-100886500D01*
X78465115Y-100886500D01*
X78346150Y-100902162D01*
X78198125Y-100963476D01*
X78198123Y-100963477D01*
X78198124Y-100963477D01*
X78102928Y-101036523D01*
X78102925Y-101036526D01*
X78071013Y-101061013D01*
X78065983Y-101067568D01*
X78051548Y-101086379D01*
X78040681Y-101098770D01*
X77202410Y-101937041D01*
X77140098Y-101971067D01*
X77069283Y-101966002D01*
X77023910Y-101936731D01*
X76942486Y-101854738D01*
X76937522Y-101849739D01*
X76798580Y-101761563D01*
X76713763Y-101731361D01*
X76650189Y-101708723D01*
X76650187Y-101708722D01*
X76643555Y-101706361D01*
X76636569Y-101705528D01*
X76636565Y-101705527D01*
X76522071Y-101691875D01*
X76480153Y-101686877D01*
X76473150Y-101687613D01*
X76473149Y-101687613D01*
X76429935Y-101692155D01*
X76316495Y-101704078D01*
X76309827Y-101706348D01*
X76167382Y-101754840D01*
X76167379Y-101754841D01*
X76160715Y-101757110D01*
X76020555Y-101843337D01*
X75983385Y-101879737D01*
X75924868Y-101937041D01*
X75902982Y-101958473D01*
X75813838Y-102096797D01*
X75811427Y-102103420D01*
X75811426Y-102103423D01*
X75759966Y-102244809D01*
X75759965Y-102244814D01*
X75757556Y-102251432D01*
X75736931Y-102414694D01*
X71534181Y-102414694D01*
X71519798Y-102286466D01*
X71465680Y-102131060D01*
X71448411Y-102103423D01*
X71382209Y-101997479D01*
X71378476Y-101991505D01*
X71320499Y-101933122D01*
X71267486Y-101879737D01*
X71267482Y-101879734D01*
X71262522Y-101874739D01*
X71123580Y-101786563D01*
X70968555Y-101731361D01*
X70967582Y-101731245D01*
X70909419Y-101698870D01*
X65034144Y-95823595D01*
X65000118Y-95761283D01*
X65005183Y-95690468D01*
X65047730Y-95633632D01*
X65114250Y-95608821D01*
X65123239Y-95608500D01*
X68952678Y-95608500D01*
X69021671Y-95629068D01*
X69067189Y-95658854D01*
X69221428Y-95716215D01*
X69228409Y-95717146D01*
X69228411Y-95717147D01*
X69377561Y-95737048D01*
X69377565Y-95737048D01*
X69384542Y-95737979D01*
X69391553Y-95737341D01*
X69391557Y-95737341D01*
X69541403Y-95723704D01*
X69541404Y-95723704D01*
X69548424Y-95723065D01*
X69577062Y-95713760D01*
X69698230Y-95674390D01*
X69698233Y-95674389D01*
X69704929Y-95672213D01*
X69846279Y-95587951D01*
X69965449Y-95474468D01*
X70000041Y-95422403D01*
X70052614Y-95343275D01*
X70052615Y-95343273D01*
X70056515Y-95337403D01*
X70114951Y-95183568D01*
X70128804Y-95085000D01*
X70137302Y-95024534D01*
X70137303Y-95024527D01*
X70137853Y-95020610D01*
X70138141Y-95000000D01*
X70119798Y-94836466D01*
X70113998Y-94819809D01*
X70067998Y-94687717D01*
X70065680Y-94681060D01*
X70035323Y-94632478D01*
X69982209Y-94547479D01*
X69978476Y-94541505D01*
X69901477Y-94463967D01*
X69867486Y-94429737D01*
X69867482Y-94429734D01*
X69862522Y-94424739D01*
X69723580Y-94336563D01*
X69674447Y-94319068D01*
X69575189Y-94283723D01*
X69575187Y-94283722D01*
X69568555Y-94281361D01*
X69561569Y-94280528D01*
X69561565Y-94280527D01*
X69447071Y-94266875D01*
X69405153Y-94261877D01*
X69398150Y-94262613D01*
X69398149Y-94262613D01*
X69354935Y-94267155D01*
X69241495Y-94279078D01*
X69234827Y-94281348D01*
X69092382Y-94329840D01*
X69092379Y-94329841D01*
X69085715Y-94332110D01*
X69060356Y-94347711D01*
X69019545Y-94372818D01*
X68953523Y-94391500D01*
X63346753Y-94391500D01*
X63279238Y-94371885D01*
X63266936Y-94364078D01*
X63223580Y-94336563D01*
X63174447Y-94319068D01*
X63075189Y-94283723D01*
X63075187Y-94283722D01*
X63068555Y-94281361D01*
X63061569Y-94280528D01*
X63061565Y-94280527D01*
X62947071Y-94266875D01*
X62905153Y-94261877D01*
X62898150Y-94262613D01*
X62898149Y-94262613D01*
X62854935Y-94267155D01*
X62741495Y-94279078D01*
X62734827Y-94281348D01*
X62592382Y-94329840D01*
X62592379Y-94329841D01*
X62585715Y-94332110D01*
X62445555Y-94418337D01*
X62436522Y-94427183D01*
X62353723Y-94508266D01*
X62327982Y-94533473D01*
X62238838Y-94671797D01*
X62236427Y-94678420D01*
X62236426Y-94678423D01*
X62184966Y-94819809D01*
X62184965Y-94819814D01*
X62182556Y-94826432D01*
X62161931Y-94989694D01*
X62177989Y-95153468D01*
X62180212Y-95160151D01*
X62180213Y-95160155D01*
X62180731Y-95161712D01*
X62180768Y-95162767D01*
X62181677Y-95167041D01*
X62180926Y-95167201D01*
X62183251Y-95232664D01*
X62147011Y-95293714D01*
X62083517Y-95325481D01*
X62061171Y-95327478D01*
X61211179Y-95327478D01*
X61143058Y-95307476D01*
X61096565Y-95253820D01*
X61085179Y-95201579D01*
X61082642Y-92031244D01*
X61081924Y-91134601D01*
X61101872Y-91066464D01*
X61155490Y-91019928D01*
X61207924Y-91008500D01*
X64207932Y-91008500D01*
X64276053Y-91028502D01*
X64310828Y-91061779D01*
X64339232Y-91101970D01*
X64339237Y-91101976D01*
X64342570Y-91106692D01*
X64346712Y-91110727D01*
X64402426Y-91165001D01*
X64485210Y-91245645D01*
X64650784Y-91356278D01*
X64656087Y-91358556D01*
X64656090Y-91358558D01*
X64828439Y-91432605D01*
X64833746Y-91434885D01*
X64905276Y-91451071D01*
X65022332Y-91477558D01*
X65022337Y-91477559D01*
X65027969Y-91478833D01*
X65033740Y-91479060D01*
X65033742Y-91479060D01*
X65093969Y-91481426D01*
X65226949Y-91486651D01*
X65342506Y-91469896D01*
X65418300Y-91458907D01*
X65418304Y-91458906D01*
X65424022Y-91458077D01*
X65429494Y-91456219D01*
X65429496Y-91456219D01*
X65585597Y-91403229D01*
X65612587Y-91394067D01*
X65786330Y-91296766D01*
X65796510Y-91288300D01*
X65935001Y-91173119D01*
X65939433Y-91169433D01*
X65999717Y-91096949D01*
X66063077Y-91020766D01*
X66063079Y-91020764D01*
X66066766Y-91016330D01*
X66164067Y-90842587D01*
X66228077Y-90654022D01*
X66229636Y-90643275D01*
X66243684Y-90546378D01*
X66256651Y-90456949D01*
X66258142Y-90400000D01*
X66244139Y-90247605D01*
X66240450Y-90207456D01*
X66240449Y-90207453D01*
X66239921Y-90201702D01*
X66216696Y-90119350D01*
X66187436Y-90015604D01*
X66187435Y-90015602D01*
X66185868Y-90010045D01*
X66180327Y-89998808D01*
X66100352Y-89836633D01*
X66100349Y-89836628D01*
X66097794Y-89831447D01*
X66094335Y-89826814D01*
X66093428Y-89825335D01*
X66074890Y-89756801D01*
X66096346Y-89689125D01*
X66150986Y-89643792D01*
X66200861Y-89633500D01*
X70227678Y-89633500D01*
X70296671Y-89654068D01*
X70342189Y-89683854D01*
X70496428Y-89741215D01*
X70503409Y-89742146D01*
X70503411Y-89742147D01*
X70652561Y-89762048D01*
X70652565Y-89762048D01*
X70659542Y-89762979D01*
X70666553Y-89762341D01*
X70666557Y-89762341D01*
X70816403Y-89748704D01*
X70816404Y-89748704D01*
X70823424Y-89748065D01*
X70876572Y-89730796D01*
X70973230Y-89699390D01*
X70973233Y-89699389D01*
X70979929Y-89697213D01*
X71121279Y-89612951D01*
X71240449Y-89499468D01*
X71256458Y-89475373D01*
X71327614Y-89368275D01*
X71327615Y-89368273D01*
X71331515Y-89362403D01*
X71389951Y-89208568D01*
X71400200Y-89135642D01*
X71412302Y-89049534D01*
X71412303Y-89049527D01*
X71412853Y-89045610D01*
X71413141Y-89025000D01*
X71411985Y-89014694D01*
X75836931Y-89014694D01*
X75852989Y-89178468D01*
X75904932Y-89334615D01*
X75990179Y-89475373D01*
X76104491Y-89593747D01*
X76242189Y-89683854D01*
X76248790Y-89686309D01*
X76248798Y-89686313D01*
X76294617Y-89703353D01*
X76351493Y-89745846D01*
X76376094Y-89809153D01*
X76377300Y-89821450D01*
X76377302Y-89821458D01*
X76377989Y-89828468D01*
X76429932Y-89984615D01*
X76433581Y-89990640D01*
X76483786Y-90073537D01*
X76515179Y-90125373D01*
X76629491Y-90243747D01*
X76767189Y-90333854D01*
X76921428Y-90391215D01*
X76928409Y-90392146D01*
X76928411Y-90392147D01*
X77077561Y-90412048D01*
X77077565Y-90412048D01*
X77084542Y-90412979D01*
X77091553Y-90412341D01*
X77091557Y-90412341D01*
X77158771Y-90406224D01*
X77248424Y-90398065D01*
X77254560Y-90396071D01*
X77325078Y-90401950D01*
X77381409Y-90445163D01*
X77399217Y-90479707D01*
X77425545Y-90558850D01*
X77442432Y-90609615D01*
X77527679Y-90750373D01*
X77641991Y-90868747D01*
X77779689Y-90958854D01*
X77933928Y-91016215D01*
X77940909Y-91017146D01*
X77940911Y-91017147D01*
X78090061Y-91037048D01*
X78090065Y-91037048D01*
X78097042Y-91037979D01*
X78104053Y-91037341D01*
X78104057Y-91037341D01*
X78253903Y-91023704D01*
X78253904Y-91023704D01*
X78260924Y-91023065D01*
X78314118Y-91005781D01*
X78410730Y-90974390D01*
X78410733Y-90974389D01*
X78417429Y-90972213D01*
X78558779Y-90887951D01*
X78677949Y-90774468D01*
X78693958Y-90750373D01*
X78765114Y-90643275D01*
X78765115Y-90643273D01*
X78769015Y-90637403D01*
X78827451Y-90483568D01*
X78840325Y-90391964D01*
X78869613Y-90327290D01*
X78929217Y-90288717D01*
X78965099Y-90283500D01*
X79134948Y-90283500D01*
X79203069Y-90303502D01*
X79249562Y-90357158D01*
X79259666Y-90427432D01*
X79246457Y-90468167D01*
X79214542Y-90528828D01*
X79164688Y-90623586D01*
X79105637Y-90813763D01*
X79082231Y-91011516D01*
X79095255Y-91210223D01*
X79144272Y-91403229D01*
X79227641Y-91584071D01*
X79230974Y-91588787D01*
X79338877Y-91741466D01*
X79342570Y-91746692D01*
X79485210Y-91885645D01*
X79650784Y-91996278D01*
X79656087Y-91998556D01*
X79656090Y-91998558D01*
X79811094Y-92065153D01*
X79833746Y-92074885D01*
X79905276Y-92091071D01*
X80022332Y-92117558D01*
X80022337Y-92117559D01*
X80027969Y-92118833D01*
X80033740Y-92119060D01*
X80033742Y-92119060D01*
X80093969Y-92121426D01*
X80226949Y-92126651D01*
X80342506Y-92109896D01*
X80418300Y-92098907D01*
X80418304Y-92098906D01*
X80424022Y-92098077D01*
X80429494Y-92096219D01*
X80429496Y-92096219D01*
X80607119Y-92035923D01*
X80612587Y-92034067D01*
X80786330Y-91936766D01*
X80828485Y-91901707D01*
X80935001Y-91813119D01*
X80939433Y-91809433D01*
X81066766Y-91656330D01*
X81164067Y-91482587D01*
X81228077Y-91294022D01*
X81235136Y-91245340D01*
X81256118Y-91100623D01*
X81256651Y-91096949D01*
X81258142Y-91040000D01*
X81242406Y-90868747D01*
X81240450Y-90847456D01*
X81240449Y-90847453D01*
X81239921Y-90841702D01*
X81237746Y-90833987D01*
X81187436Y-90655604D01*
X81187435Y-90655602D01*
X81185868Y-90650045D01*
X81183314Y-90644865D01*
X81100349Y-90476627D01*
X81100346Y-90476623D01*
X81097794Y-90471447D01*
X81084369Y-90453468D01*
X80982100Y-90316515D01*
X80978647Y-90311891D01*
X80865670Y-90207456D01*
X80836660Y-90180639D01*
X80836658Y-90180637D01*
X80832419Y-90176719D01*
X80664006Y-90070458D01*
X80479049Y-89996668D01*
X80443199Y-89989537D01*
X80380290Y-89956629D01*
X80345158Y-89894934D01*
X80348958Y-89824039D01*
X80378686Y-89776863D01*
X81310828Y-88844721D01*
X81360987Y-88813983D01*
X81498230Y-88769390D01*
X81498233Y-88769389D01*
X81504929Y-88767213D01*
X81646279Y-88682951D01*
X81765449Y-88569468D01*
X81769350Y-88563597D01*
X81852614Y-88438275D01*
X81852615Y-88438273D01*
X81856515Y-88432403D01*
X81914951Y-88278568D01*
X81937853Y-88115610D01*
X81938141Y-88095000D01*
X81919798Y-87931466D01*
X81916873Y-87923065D01*
X81867998Y-87782717D01*
X81865680Y-87776060D01*
X81861111Y-87768747D01*
X81782209Y-87642479D01*
X81778476Y-87636505D01*
X81707798Y-87565332D01*
X81667486Y-87524737D01*
X81667482Y-87524734D01*
X81662522Y-87519739D01*
X81523580Y-87431563D01*
X81388795Y-87383568D01*
X81375189Y-87378723D01*
X81375187Y-87378722D01*
X81368555Y-87376361D01*
X81361569Y-87375528D01*
X81361565Y-87375527D01*
X81247071Y-87361875D01*
X81205153Y-87356877D01*
X81198150Y-87357613D01*
X81198149Y-87357613D01*
X81154935Y-87362155D01*
X81041495Y-87374078D01*
X81034827Y-87376348D01*
X80892382Y-87424840D01*
X80892379Y-87424841D01*
X80885715Y-87427110D01*
X80745555Y-87513337D01*
X80627982Y-87628473D01*
X80538838Y-87766797D01*
X80536427Y-87773420D01*
X80536426Y-87773423D01*
X80505332Y-87858854D01*
X80482556Y-87921432D01*
X80481886Y-87926739D01*
X80448856Y-87985595D01*
X79404856Y-89029595D01*
X79342544Y-89063621D01*
X79315761Y-89066500D01*
X77546753Y-89066500D01*
X77479238Y-89046885D01*
X77470987Y-89041649D01*
X77423580Y-89011563D01*
X77381148Y-88996454D01*
X77323685Y-88954760D01*
X77298201Y-88891802D01*
X77295583Y-88868464D01*
X77294798Y-88861466D01*
X77288998Y-88844809D01*
X77242998Y-88712717D01*
X77240680Y-88706060D01*
X77153476Y-88566505D01*
X77091440Y-88504035D01*
X77042486Y-88454737D01*
X77042482Y-88454734D01*
X77037522Y-88449739D01*
X76898580Y-88361563D01*
X76849447Y-88344068D01*
X76750189Y-88308723D01*
X76750187Y-88308722D01*
X76743555Y-88306361D01*
X76736569Y-88305528D01*
X76736565Y-88305527D01*
X76622071Y-88291875D01*
X76580153Y-88286877D01*
X76573150Y-88287613D01*
X76573149Y-88287613D01*
X76529935Y-88292155D01*
X76416495Y-88304078D01*
X76409827Y-88306348D01*
X76267382Y-88354840D01*
X76267379Y-88354841D01*
X76260715Y-88357110D01*
X76120555Y-88443337D01*
X76002982Y-88558473D01*
X75913838Y-88696797D01*
X75911427Y-88703420D01*
X75911426Y-88703423D01*
X75859966Y-88844809D01*
X75859965Y-88844814D01*
X75857556Y-88851432D01*
X75836931Y-89014694D01*
X71411985Y-89014694D01*
X71394798Y-88861466D01*
X71388998Y-88844809D01*
X71342998Y-88712717D01*
X71340680Y-88706060D01*
X71253476Y-88566505D01*
X71191440Y-88504035D01*
X71142486Y-88454737D01*
X71142482Y-88454734D01*
X71137522Y-88449739D01*
X70998580Y-88361563D01*
X70949447Y-88344068D01*
X70850189Y-88308723D01*
X70850187Y-88308722D01*
X70843555Y-88306361D01*
X70836569Y-88305528D01*
X70836565Y-88305527D01*
X70722071Y-88291875D01*
X70680153Y-88286877D01*
X70673150Y-88287613D01*
X70673149Y-88287613D01*
X70629935Y-88292155D01*
X70516495Y-88304078D01*
X70509827Y-88306348D01*
X70367382Y-88354840D01*
X70367379Y-88354841D01*
X70360715Y-88357110D01*
X70307035Y-88390134D01*
X70294545Y-88397818D01*
X70228523Y-88416500D01*
X63850258Y-88416500D01*
X63782743Y-88396885D01*
X63777923Y-88393826D01*
X63649069Y-88312052D01*
X63580712Y-88287711D01*
X63500678Y-88259212D01*
X63500676Y-88259211D01*
X63494044Y-88256850D01*
X63487058Y-88256017D01*
X63487054Y-88256016D01*
X63372560Y-88242364D01*
X63330642Y-88237366D01*
X63323639Y-88238102D01*
X63323638Y-88238102D01*
X63280424Y-88242644D01*
X63166984Y-88254567D01*
X63160316Y-88256837D01*
X63017871Y-88305329D01*
X63017868Y-88305330D01*
X63011204Y-88307599D01*
X62871044Y-88393826D01*
X62753471Y-88508962D01*
X62664327Y-88647286D01*
X62661916Y-88653909D01*
X62661915Y-88653912D01*
X62610455Y-88795298D01*
X62610454Y-88795303D01*
X62608045Y-88801921D01*
X62587420Y-88965183D01*
X62603478Y-89128957D01*
X62655421Y-89285104D01*
X62740668Y-89425862D01*
X62854980Y-89544236D01*
X62879176Y-89560069D01*
X62925222Y-89614105D01*
X62934746Y-89684460D01*
X62904722Y-89748795D01*
X62844681Y-89786685D01*
X62810181Y-89791500D01*
X61206748Y-89791500D01*
X61138627Y-89771498D01*
X61092134Y-89717842D01*
X61080749Y-89665603D01*
X61079621Y-88256837D01*
X61079017Y-87501393D01*
X61087228Y-87456550D01*
X61095285Y-87435340D01*
X61114951Y-87383568D01*
X61124311Y-87316964D01*
X61153598Y-87252291D01*
X61213202Y-87213717D01*
X61249085Y-87208500D01*
X64074457Y-87208500D01*
X64142578Y-87228502D01*
X64187898Y-87279663D01*
X64204668Y-87314354D01*
X64209059Y-87319855D01*
X64209060Y-87319856D01*
X64297626Y-87430801D01*
X64316081Y-87453919D01*
X64455646Y-87565332D01*
X64461984Y-87568396D01*
X64461989Y-87568399D01*
X64576068Y-87623546D01*
X64616427Y-87643056D01*
X64790431Y-87683228D01*
X64795148Y-87683500D01*
X65544852Y-87683500D01*
X65549569Y-87683228D01*
X65723573Y-87643056D01*
X65763932Y-87623546D01*
X65878011Y-87568399D01*
X65878016Y-87568396D01*
X65884354Y-87565332D01*
X66023919Y-87453919D01*
X66135332Y-87314354D01*
X66138398Y-87308012D01*
X66138399Y-87308011D01*
X66209990Y-87159915D01*
X66213056Y-87153573D01*
X66253228Y-86979569D01*
X66253500Y-86974852D01*
X66253500Y-86225148D01*
X66253228Y-86220431D01*
X66213056Y-86046427D01*
X66194075Y-86007162D01*
X66157507Y-85931516D01*
X79082231Y-85931516D01*
X79095255Y-86130223D01*
X79144272Y-86323229D01*
X79227641Y-86504071D01*
X79230974Y-86508787D01*
X79278709Y-86576330D01*
X79342570Y-86666692D01*
X79485210Y-86805645D01*
X79650784Y-86916278D01*
X79656087Y-86918556D01*
X79656090Y-86918558D01*
X79798097Y-86979569D01*
X79833746Y-86994885D01*
X79905276Y-87011071D01*
X80022332Y-87037558D01*
X80022337Y-87037559D01*
X80027969Y-87038833D01*
X80033740Y-87039060D01*
X80033742Y-87039060D01*
X80093969Y-87041426D01*
X80226949Y-87046651D01*
X80342506Y-87029896D01*
X80418300Y-87018907D01*
X80418304Y-87018906D01*
X80424022Y-87018077D01*
X80429494Y-87016219D01*
X80429496Y-87016219D01*
X80607119Y-86955923D01*
X80612587Y-86954067D01*
X80786330Y-86856766D01*
X80843938Y-86808855D01*
X80935001Y-86733119D01*
X80939433Y-86729433D01*
X81066766Y-86576330D01*
X81164067Y-86402587D01*
X81224301Y-86225146D01*
X81226219Y-86219496D01*
X81226219Y-86219494D01*
X81228077Y-86214022D01*
X81241064Y-86124455D01*
X81256118Y-86020623D01*
X81256651Y-86016949D01*
X81258142Y-85960000D01*
X81239921Y-85761702D01*
X81235516Y-85746081D01*
X81187436Y-85575604D01*
X81187435Y-85575602D01*
X81185868Y-85570045D01*
X81183314Y-85564865D01*
X81100349Y-85396627D01*
X81100346Y-85396623D01*
X81097794Y-85391447D01*
X80978647Y-85231891D01*
X80832419Y-85096719D01*
X80827536Y-85093638D01*
X80668886Y-84993537D01*
X80664006Y-84990458D01*
X80479049Y-84916668D01*
X80473389Y-84915542D01*
X80473385Y-84915541D01*
X80289410Y-84878946D01*
X80289405Y-84878946D01*
X80283742Y-84877819D01*
X80277967Y-84877743D01*
X80277963Y-84877743D01*
X80180390Y-84876466D01*
X80084625Y-84875212D01*
X79888368Y-84908936D01*
X79701543Y-84977859D01*
X79530406Y-85079675D01*
X79380690Y-85210972D01*
X79257407Y-85367355D01*
X79164688Y-85543586D01*
X79105637Y-85733763D01*
X79082231Y-85931516D01*
X66157507Y-85931516D01*
X66138399Y-85891989D01*
X66138396Y-85891984D01*
X66135332Y-85885646D01*
X66023919Y-85746081D01*
X65884354Y-85634668D01*
X65878016Y-85631604D01*
X65878011Y-85631601D01*
X65729915Y-85560010D01*
X65729916Y-85560010D01*
X65723573Y-85556944D01*
X65549569Y-85516772D01*
X65544852Y-85516500D01*
X64795148Y-85516500D01*
X64790431Y-85516772D01*
X64616427Y-85556944D01*
X64610084Y-85560010D01*
X64610085Y-85560010D01*
X64461989Y-85631601D01*
X64461984Y-85631604D01*
X64455646Y-85634668D01*
X64316081Y-85746081D01*
X64204668Y-85885646D01*
X64201603Y-85891987D01*
X64201602Y-85891988D01*
X64187898Y-85920337D01*
X64140243Y-85972963D01*
X64074457Y-85991500D01*
X61203707Y-85991500D01*
X61135586Y-85971498D01*
X61089093Y-85917842D01*
X61077707Y-85865601D01*
X61077629Y-85767456D01*
X61075526Y-83139694D01*
X62011931Y-83139694D01*
X62027989Y-83303468D01*
X62079932Y-83459615D01*
X62083581Y-83465640D01*
X62126828Y-83537048D01*
X62165179Y-83600373D01*
X62279491Y-83718747D01*
X62417189Y-83808854D01*
X62571428Y-83866215D01*
X62578409Y-83867146D01*
X62578411Y-83867147D01*
X62727561Y-83887048D01*
X62727565Y-83887048D01*
X62734542Y-83887979D01*
X62741553Y-83887341D01*
X62741557Y-83887341D01*
X62891403Y-83873704D01*
X62891404Y-83873704D01*
X62898424Y-83873065D01*
X62927062Y-83863760D01*
X63048230Y-83824390D01*
X63048233Y-83824389D01*
X63054929Y-83822213D01*
X63196279Y-83737951D01*
X63201373Y-83733100D01*
X63201377Y-83733097D01*
X63269468Y-83668254D01*
X63332593Y-83635762D01*
X63356360Y-83633500D01*
X68727678Y-83633500D01*
X68796671Y-83654068D01*
X68842189Y-83683854D01*
X68996428Y-83741215D01*
X69003409Y-83742146D01*
X69003411Y-83742147D01*
X69152561Y-83762048D01*
X69152565Y-83762048D01*
X69159542Y-83762979D01*
X69166553Y-83762341D01*
X69166557Y-83762341D01*
X69316403Y-83748704D01*
X69316404Y-83748704D01*
X69323424Y-83748065D01*
X69354551Y-83737951D01*
X69473230Y-83699390D01*
X69473233Y-83699389D01*
X69479929Y-83697213D01*
X69621279Y-83612951D01*
X69740449Y-83499468D01*
X69744350Y-83493597D01*
X69827614Y-83368275D01*
X69827615Y-83368273D01*
X69831515Y-83362403D01*
X69889951Y-83208568D01*
X69899631Y-83139694D01*
X69912302Y-83049534D01*
X69912303Y-83049527D01*
X69912853Y-83045610D01*
X69913141Y-83025000D01*
X69894798Y-82861466D01*
X69880571Y-82820610D01*
X69842998Y-82712717D01*
X69840680Y-82706060D01*
X69753476Y-82566505D01*
X69695499Y-82508122D01*
X69642486Y-82454737D01*
X69642482Y-82454734D01*
X69637522Y-82449739D01*
X69498580Y-82361563D01*
X69419694Y-82333473D01*
X69350189Y-82308723D01*
X69350187Y-82308722D01*
X69343555Y-82306361D01*
X69336569Y-82305528D01*
X69336565Y-82305527D01*
X69218764Y-82291481D01*
X69180153Y-82286877D01*
X69173150Y-82287613D01*
X69173149Y-82287613D01*
X69136348Y-82291481D01*
X69016495Y-82304078D01*
X69009827Y-82306348D01*
X68867382Y-82354840D01*
X68867379Y-82354841D01*
X68860715Y-82357110D01*
X68805248Y-82391234D01*
X68794545Y-82397818D01*
X68728523Y-82416500D01*
X62835115Y-82416500D01*
X62831024Y-82417038D01*
X62826913Y-82417308D01*
X62826896Y-82417041D01*
X62799847Y-82417206D01*
X62788202Y-82415818D01*
X62755153Y-82411877D01*
X62748150Y-82412613D01*
X62748149Y-82412613D01*
X62711168Y-82416500D01*
X62591495Y-82429078D01*
X62584827Y-82431348D01*
X62442382Y-82479840D01*
X62442379Y-82479841D01*
X62435715Y-82482110D01*
X62295555Y-82568337D01*
X62177982Y-82683473D01*
X62088838Y-82821797D01*
X62086427Y-82828420D01*
X62086426Y-82828423D01*
X62034966Y-82969809D01*
X62034965Y-82969814D01*
X62032556Y-82976432D01*
X62011931Y-83139694D01*
X61075526Y-83139694D01*
X61069338Y-75407609D01*
X61089286Y-75339473D01*
X61142904Y-75292937D01*
X61213170Y-75282777D01*
X61277774Y-75312219D01*
X61284433Y-75318414D01*
X64066035Y-78100016D01*
X64100061Y-78162328D01*
X64102067Y-78203921D01*
X64091764Y-78290972D01*
X64082231Y-78371516D01*
X64095255Y-78570223D01*
X64144272Y-78763229D01*
X64227641Y-78944071D01*
X64230974Y-78948787D01*
X64317254Y-79070870D01*
X64342570Y-79106692D01*
X64485210Y-79245645D01*
X64650784Y-79356278D01*
X64656087Y-79358556D01*
X64656090Y-79358558D01*
X64812158Y-79425610D01*
X64833746Y-79434885D01*
X64905276Y-79451071D01*
X65022332Y-79477558D01*
X65022337Y-79477559D01*
X65027969Y-79478833D01*
X65033740Y-79479060D01*
X65033742Y-79479060D01*
X65093969Y-79481426D01*
X65226949Y-79486651D01*
X65342506Y-79469896D01*
X65418300Y-79458907D01*
X65418304Y-79458906D01*
X65424022Y-79458077D01*
X65429494Y-79456219D01*
X65429496Y-79456219D01*
X65585597Y-79403229D01*
X65612587Y-79394067D01*
X65786330Y-79296766D01*
X65796510Y-79288300D01*
X65935001Y-79173119D01*
X65939433Y-79169433D01*
X65999717Y-79096949D01*
X66063077Y-79020766D01*
X66063079Y-79020764D01*
X66066766Y-79016330D01*
X66164067Y-78842587D01*
X66211187Y-78703778D01*
X66226219Y-78659496D01*
X66226219Y-78659494D01*
X66228077Y-78654022D01*
X66230078Y-78640226D01*
X66245746Y-78532158D01*
X66256651Y-78456949D01*
X66258142Y-78400000D01*
X66239921Y-78201702D01*
X66232042Y-78173763D01*
X66187436Y-78015604D01*
X66187435Y-78015602D01*
X66185868Y-78010045D01*
X66138001Y-77912979D01*
X66100349Y-77836627D01*
X66100346Y-77836623D01*
X66097794Y-77831447D01*
X66049337Y-77766555D01*
X65982100Y-77676515D01*
X65978647Y-77671891D01*
X65832419Y-77536719D01*
X65783436Y-77505813D01*
X65668886Y-77433537D01*
X65664006Y-77430458D01*
X65479049Y-77356668D01*
X65473389Y-77355542D01*
X65473385Y-77355541D01*
X65289410Y-77318946D01*
X65289405Y-77318946D01*
X65283742Y-77317819D01*
X65277967Y-77317743D01*
X65277963Y-77317743D01*
X65180390Y-77316466D01*
X65084625Y-77315212D01*
X64982151Y-77332821D01*
X64911627Y-77324644D01*
X64871717Y-77297736D01*
X64088675Y-76514694D01*
X70086931Y-76514694D01*
X70102989Y-76678468D01*
X70154932Y-76834615D01*
X70158581Y-76840640D01*
X70222652Y-76946432D01*
X70240179Y-76975373D01*
X70354491Y-77093747D01*
X70492189Y-77183854D01*
X70646428Y-77241215D01*
X70653409Y-77242146D01*
X70653411Y-77242147D01*
X70802561Y-77262048D01*
X70802565Y-77262048D01*
X70809542Y-77262979D01*
X70816553Y-77262341D01*
X70816557Y-77262341D01*
X70966403Y-77248704D01*
X70966404Y-77248704D01*
X70973424Y-77248065D01*
X71028474Y-77230178D01*
X71123230Y-77199390D01*
X71123233Y-77199389D01*
X71129929Y-77197213D01*
X71271279Y-77112951D01*
X71390449Y-76999468D01*
X71394350Y-76993597D01*
X71477614Y-76868275D01*
X71477615Y-76868273D01*
X71481515Y-76862403D01*
X71539951Y-76708568D01*
X71555453Y-76598266D01*
X71562302Y-76549534D01*
X71562303Y-76549527D01*
X71562853Y-76545610D01*
X71563141Y-76525000D01*
X71544798Y-76361466D01*
X71538998Y-76344809D01*
X71492998Y-76212717D01*
X71490680Y-76206060D01*
X71403476Y-76066505D01*
X71345499Y-76008122D01*
X71292486Y-75954737D01*
X71292482Y-75954734D01*
X71287522Y-75949739D01*
X71148580Y-75861563D01*
X71099447Y-75844068D01*
X71000189Y-75808723D01*
X71000187Y-75808722D01*
X70993555Y-75806361D01*
X70986569Y-75805528D01*
X70986565Y-75805527D01*
X70872071Y-75791875D01*
X70830153Y-75786877D01*
X70823150Y-75787613D01*
X70823149Y-75787613D01*
X70779935Y-75792155D01*
X70666495Y-75804078D01*
X70659827Y-75806348D01*
X70517382Y-75854840D01*
X70517379Y-75854841D01*
X70510715Y-75857110D01*
X70370555Y-75943337D01*
X70252982Y-76058473D01*
X70163838Y-76196797D01*
X70161427Y-76203420D01*
X70161426Y-76203423D01*
X70109966Y-76344809D01*
X70109965Y-76344814D01*
X70107556Y-76351432D01*
X70086931Y-76514694D01*
X64088675Y-76514694D01*
X61804178Y-74230197D01*
X61793311Y-74217806D01*
X61780485Y-74201091D01*
X61775459Y-74194541D01*
X61745656Y-74171672D01*
X61745640Y-74171659D01*
X61708846Y-74143426D01*
X61656704Y-74103416D01*
X61586033Y-74074143D01*
X61526038Y-74049292D01*
X61526035Y-74049291D01*
X61518408Y-74046132D01*
X61370000Y-74026594D01*
X61361812Y-74027672D01*
X61340923Y-74030422D01*
X61324477Y-74031500D01*
X61194136Y-74031500D01*
X61126015Y-74011498D01*
X61079522Y-73957842D01*
X61068136Y-73905601D01*
X61068017Y-73756141D01*
X61067492Y-73100639D01*
X61067191Y-72724112D01*
X61087139Y-72655975D01*
X61140757Y-72609439D01*
X61193191Y-72598011D01*
X62311840Y-72598011D01*
X62379961Y-72618013D01*
X62400935Y-72634916D01*
X64049595Y-74283575D01*
X64083620Y-74345887D01*
X64086500Y-74372670D01*
X64086500Y-74974852D01*
X64086772Y-74979569D01*
X64126944Y-75153573D01*
X64134160Y-75168500D01*
X64201601Y-75308011D01*
X64201604Y-75308016D01*
X64204668Y-75314354D01*
X64316081Y-75453919D01*
X64455646Y-75565332D01*
X64461984Y-75568396D01*
X64461989Y-75568399D01*
X64551458Y-75611649D01*
X64616427Y-75643056D01*
X64790431Y-75683228D01*
X64795148Y-75683500D01*
X65544852Y-75683500D01*
X65549569Y-75683228D01*
X65723573Y-75643056D01*
X65788542Y-75611649D01*
X65878011Y-75568399D01*
X65878016Y-75568396D01*
X65884354Y-75565332D01*
X66023919Y-75453919D01*
X66135332Y-75314354D01*
X66138396Y-75308016D01*
X66138399Y-75308011D01*
X66205840Y-75168500D01*
X66213056Y-75153573D01*
X66253228Y-74979569D01*
X66253500Y-74974852D01*
X66253500Y-74225148D01*
X66253228Y-74220431D01*
X66213056Y-74046427D01*
X66195290Y-74009676D01*
X66138399Y-73891989D01*
X66138396Y-73891984D01*
X66135332Y-73885646D01*
X66023919Y-73746081D01*
X65884354Y-73634668D01*
X65878016Y-73631604D01*
X65878011Y-73631601D01*
X65729915Y-73560010D01*
X65729916Y-73560010D01*
X65723573Y-73556944D01*
X65549569Y-73516772D01*
X65544852Y-73516500D01*
X64942670Y-73516500D01*
X64874549Y-73496498D01*
X64853575Y-73479595D01*
X63957360Y-72583379D01*
X63033689Y-71659708D01*
X63022822Y-71647317D01*
X63009996Y-71630602D01*
X63004970Y-71624052D01*
X62975167Y-71601183D01*
X62975151Y-71601170D01*
X62892766Y-71537954D01*
X62886215Y-71532927D01*
X62817067Y-71504285D01*
X62755549Y-71478803D01*
X62755546Y-71478802D01*
X62747919Y-71475643D01*
X62599511Y-71456105D01*
X62591323Y-71457183D01*
X62570434Y-71459933D01*
X62553988Y-71461011D01*
X61192079Y-71461011D01*
X61123958Y-71441009D01*
X61077465Y-71387353D01*
X61066079Y-71335112D01*
X61066071Y-71324390D01*
X61065523Y-70639694D01*
X63111931Y-70639694D01*
X63127989Y-70803468D01*
X63179932Y-70959615D01*
X63265179Y-71100373D01*
X63379491Y-71218747D01*
X63517189Y-71308854D01*
X63671428Y-71366215D01*
X63678409Y-71367146D01*
X63678411Y-71367147D01*
X63827561Y-71387048D01*
X63827565Y-71387048D01*
X63834542Y-71387979D01*
X63841553Y-71387341D01*
X63841557Y-71387341D01*
X63991403Y-71373704D01*
X63991404Y-71373704D01*
X63998424Y-71373065D01*
X64089489Y-71343476D01*
X64148230Y-71324390D01*
X64148233Y-71324389D01*
X64154929Y-71322213D01*
X64296279Y-71237951D01*
X64415449Y-71124468D01*
X64460751Y-71056283D01*
X64502614Y-70993275D01*
X64502615Y-70993273D01*
X64506515Y-70987403D01*
X64564951Y-70833568D01*
X64565931Y-70826592D01*
X64567684Y-70819767D01*
X64570153Y-70820401D01*
X64594588Y-70766454D01*
X64600972Y-70759577D01*
X64930144Y-70430405D01*
X64992456Y-70396379D01*
X65019239Y-70393500D01*
X68737678Y-70393500D01*
X68806671Y-70414068D01*
X68852189Y-70443854D01*
X69006428Y-70501215D01*
X69013409Y-70502146D01*
X69013411Y-70502147D01*
X69162561Y-70522048D01*
X69162565Y-70522048D01*
X69169542Y-70522979D01*
X69176553Y-70522341D01*
X69176557Y-70522341D01*
X69326403Y-70508704D01*
X69326404Y-70508704D01*
X69333424Y-70508065D01*
X69430780Y-70476432D01*
X69483230Y-70459390D01*
X69483233Y-70459389D01*
X69489929Y-70457213D01*
X69631279Y-70372951D01*
X69750449Y-70259468D01*
X69804214Y-70178546D01*
X69837614Y-70128275D01*
X69837615Y-70128273D01*
X69841515Y-70122403D01*
X69899951Y-69968568D01*
X69919640Y-69828473D01*
X69922302Y-69809534D01*
X69922303Y-69809527D01*
X69922853Y-69805610D01*
X69922995Y-69795430D01*
X69923086Y-69788962D01*
X69923086Y-69788956D01*
X69923141Y-69785000D01*
X69904798Y-69621466D01*
X69850680Y-69466060D01*
X69821101Y-69418723D01*
X69767209Y-69332479D01*
X69763476Y-69326505D01*
X69678715Y-69241150D01*
X69652486Y-69214737D01*
X69652482Y-69214734D01*
X69647522Y-69209739D01*
X69508580Y-69121563D01*
X69428717Y-69093125D01*
X69360189Y-69068723D01*
X69360187Y-69068722D01*
X69353555Y-69066361D01*
X69346569Y-69065528D01*
X69346565Y-69065527D01*
X69232071Y-69051875D01*
X69190153Y-69046877D01*
X69183150Y-69047613D01*
X69183149Y-69047613D01*
X69139935Y-69052155D01*
X69026495Y-69064078D01*
X69019827Y-69066348D01*
X68877382Y-69114840D01*
X68877379Y-69114841D01*
X68870715Y-69117110D01*
X68815248Y-69151234D01*
X68804545Y-69157818D01*
X68738523Y-69176500D01*
X64763136Y-69176500D01*
X64746693Y-69175422D01*
X64715000Y-69171250D01*
X64706811Y-69172328D01*
X64675126Y-69176499D01*
X64675117Y-69176500D01*
X64675115Y-69176500D01*
X64675109Y-69176501D01*
X64675107Y-69176501D01*
X64575543Y-69189609D01*
X64564336Y-69191084D01*
X64564334Y-69191085D01*
X64556149Y-69192162D01*
X64408124Y-69253476D01*
X64362305Y-69288634D01*
X64312937Y-69326515D01*
X64312921Y-69326529D01*
X64287566Y-69345984D01*
X64287563Y-69345987D01*
X64281013Y-69351013D01*
X64275983Y-69357568D01*
X64261548Y-69376379D01*
X64250681Y-69388770D01*
X63740717Y-69898734D01*
X63690519Y-69926210D01*
X63691495Y-69929078D01*
X63542382Y-69979840D01*
X63542379Y-69979841D01*
X63535715Y-69982110D01*
X63395555Y-70068337D01*
X63277982Y-70183473D01*
X63188838Y-70321797D01*
X63186427Y-70328420D01*
X63186426Y-70328423D01*
X63134966Y-70469809D01*
X63134965Y-70469814D01*
X63132556Y-70476432D01*
X63111931Y-70639694D01*
X61065523Y-70639694D01*
X61063604Y-68242270D01*
X61083552Y-68174133D01*
X61137170Y-68127597D01*
X61150664Y-68122337D01*
X61304929Y-68072213D01*
X61446279Y-67987951D01*
X61565449Y-67874468D01*
X61587948Y-67840605D01*
X61652614Y-67743275D01*
X61652615Y-67743273D01*
X61656515Y-67737403D01*
X61714951Y-67583568D01*
X61728369Y-67488096D01*
X61737302Y-67424534D01*
X61737303Y-67424527D01*
X61737853Y-67420610D01*
X61738141Y-67400000D01*
X61719798Y-67236466D01*
X61665680Y-67081060D01*
X61624872Y-67015753D01*
X61582209Y-66947479D01*
X61578476Y-66941505D01*
X61485252Y-66847628D01*
X61467486Y-66829737D01*
X61467482Y-66829734D01*
X61462522Y-66824739D01*
X61323580Y-66736563D01*
X61285725Y-66723084D01*
X61175195Y-66683725D01*
X61175192Y-66683724D01*
X61168555Y-66681361D01*
X61161558Y-66680527D01*
X61159483Y-66680040D01*
X61097730Y-66645010D01*
X61064718Y-66582155D01*
X61062256Y-66557470D01*
X61061910Y-66125090D01*
X61081858Y-66056953D01*
X61135476Y-66010417D01*
X61187910Y-65998989D01*
X63988847Y-65998989D01*
X64056968Y-66018991D01*
X64103461Y-66072647D01*
X64113565Y-66142921D01*
X64109179Y-66162354D01*
X64107351Y-66168240D01*
X64107349Y-66168249D01*
X64105637Y-66173763D01*
X64082231Y-66371516D01*
X64095255Y-66570223D01*
X64144272Y-66763229D01*
X64227641Y-66944071D01*
X64230974Y-66948787D01*
X64298055Y-67043704D01*
X64342570Y-67106692D01*
X64485210Y-67245645D01*
X64650784Y-67356278D01*
X64656087Y-67358556D01*
X64656090Y-67358558D01*
X64800520Y-67420610D01*
X64833746Y-67434885D01*
X64905276Y-67451071D01*
X65022332Y-67477558D01*
X65022337Y-67477559D01*
X65027969Y-67478833D01*
X65033740Y-67479060D01*
X65033742Y-67479060D01*
X65093969Y-67481426D01*
X65226949Y-67486651D01*
X65342506Y-67469896D01*
X65418300Y-67458907D01*
X65418304Y-67458906D01*
X65424022Y-67458077D01*
X65429494Y-67456219D01*
X65429496Y-67456219D01*
X65570140Y-67408476D01*
X65612587Y-67394067D01*
X65786330Y-67296766D01*
X65796510Y-67288300D01*
X65935001Y-67173119D01*
X65939433Y-67169433D01*
X65999717Y-67096949D01*
X66063077Y-67020766D01*
X66063079Y-67020764D01*
X66066766Y-67016330D01*
X66121429Y-66918723D01*
X66161244Y-66847628D01*
X66161244Y-66847627D01*
X66164067Y-66842587D01*
X66228077Y-66654022D01*
X66231691Y-66629100D01*
X66256118Y-66460623D01*
X66256651Y-66456949D01*
X66258142Y-66400000D01*
X66243514Y-66240801D01*
X66240450Y-66207456D01*
X66240449Y-66207453D01*
X66239921Y-66201702D01*
X66227931Y-66159189D01*
X66228692Y-66088197D01*
X66267714Y-66028886D01*
X66332607Y-66000086D01*
X66349201Y-65998989D01*
X72261063Y-65998989D01*
X72330056Y-66019557D01*
X72436700Y-66089343D01*
X72590939Y-66146704D01*
X72597920Y-66147635D01*
X72597922Y-66147636D01*
X72747072Y-66167537D01*
X72747076Y-66167537D01*
X72754053Y-66168468D01*
X72761064Y-66167830D01*
X72761068Y-66167830D01*
X72910914Y-66154193D01*
X72910915Y-66154193D01*
X72917935Y-66153554D01*
X72956381Y-66141062D01*
X73067741Y-66104879D01*
X73067744Y-66104878D01*
X73074440Y-66102702D01*
X73215790Y-66018440D01*
X73334960Y-65904957D01*
X73426026Y-65767892D01*
X73484462Y-65614057D01*
X73507364Y-65451099D01*
X73507652Y-65430489D01*
X73489309Y-65266955D01*
X73435191Y-65111549D01*
X73373238Y-65012403D01*
X73351720Y-64977968D01*
X73347987Y-64971994D01*
X73290010Y-64913611D01*
X73236997Y-64860226D01*
X73236993Y-64860223D01*
X73232033Y-64855228D01*
X73093091Y-64767052D01*
X72956284Y-64718337D01*
X72944700Y-64714212D01*
X72944698Y-64714211D01*
X72938066Y-64711850D01*
X72931080Y-64711017D01*
X72931076Y-64711016D01*
X72816582Y-64697364D01*
X72774664Y-64692366D01*
X72767661Y-64693102D01*
X72767660Y-64693102D01*
X72743799Y-64695610D01*
X72611006Y-64709567D01*
X72604338Y-64711837D01*
X72461893Y-64760329D01*
X72461890Y-64760330D01*
X72455226Y-64762599D01*
X72342483Y-64831959D01*
X72324037Y-64843307D01*
X72258015Y-64861989D01*
X61810829Y-64861989D01*
X61742708Y-64841987D01*
X61696215Y-64788331D01*
X61686111Y-64718057D01*
X61693039Y-64691251D01*
X61714951Y-64633568D01*
X61728263Y-64538847D01*
X61737302Y-64474534D01*
X61737303Y-64474527D01*
X61737853Y-64470610D01*
X61738141Y-64450000D01*
X61727883Y-64358545D01*
X61740167Y-64288619D01*
X61788306Y-64236435D01*
X61853098Y-64218500D01*
X67904477Y-64218500D01*
X67920924Y-64219578D01*
X67950000Y-64223406D01*
X67958188Y-64222328D01*
X67958875Y-64222328D01*
X67975539Y-64223435D01*
X68077561Y-64237048D01*
X68077565Y-64237048D01*
X68084542Y-64237979D01*
X68091553Y-64237341D01*
X68091557Y-64237341D01*
X68241403Y-64223704D01*
X68241404Y-64223704D01*
X68248424Y-64223065D01*
X68349716Y-64190153D01*
X68398230Y-64174390D01*
X68398233Y-64174389D01*
X68404929Y-64172213D01*
X68546279Y-64087951D01*
X68665449Y-63974468D01*
X68690540Y-63936703D01*
X68752614Y-63843275D01*
X68752615Y-63843273D01*
X68756515Y-63837403D01*
X68814951Y-63683568D01*
X68837853Y-63520610D01*
X68838141Y-63500000D01*
X68819798Y-63336466D01*
X68805587Y-63295656D01*
X68767998Y-63187717D01*
X68765680Y-63181060D01*
X68748689Y-63153868D01*
X68682209Y-63047479D01*
X68678476Y-63041505D01*
X68581118Y-62943465D01*
X68567486Y-62929737D01*
X68567482Y-62929734D01*
X68562522Y-62924739D01*
X68423580Y-62836563D01*
X68345767Y-62808855D01*
X68275189Y-62783723D01*
X68275187Y-62783722D01*
X68268555Y-62781361D01*
X68261569Y-62780528D01*
X68261565Y-62780527D01*
X68147071Y-62766875D01*
X68105153Y-62761877D01*
X68098150Y-62762613D01*
X68098149Y-62762613D01*
X68054935Y-62767155D01*
X67941495Y-62779078D01*
X67934827Y-62781348D01*
X67792382Y-62829840D01*
X67792379Y-62829841D01*
X67785715Y-62832110D01*
X67696975Y-62886703D01*
X67654120Y-62913068D01*
X67645555Y-62918337D01*
X67587844Y-62974852D01*
X67554156Y-63007842D01*
X67527982Y-63033473D01*
X67526335Y-63036028D01*
X67469088Y-63075283D01*
X67429996Y-63081500D01*
X66379500Y-63081500D01*
X66311379Y-63061498D01*
X66264886Y-63007842D01*
X66253500Y-62955500D01*
X66253500Y-62225148D01*
X66253228Y-62220431D01*
X66234060Y-62137403D01*
X66214640Y-62053288D01*
X66213056Y-62046427D01*
X66182081Y-61982352D01*
X66138399Y-61891989D01*
X66138396Y-61891984D01*
X66135332Y-61885646D01*
X66023919Y-61746081D01*
X65884354Y-61634668D01*
X65878016Y-61631604D01*
X65878011Y-61631601D01*
X65729915Y-61560010D01*
X65729916Y-61560010D01*
X65723573Y-61556944D01*
X65695111Y-61550373D01*
X65554767Y-61517972D01*
X65554766Y-61517972D01*
X65549569Y-61516772D01*
X65544852Y-61516500D01*
X64795148Y-61516500D01*
X64790431Y-61516772D01*
X64785234Y-61517972D01*
X64785233Y-61517972D01*
X64644889Y-61550373D01*
X64616427Y-61556944D01*
X64610084Y-61560010D01*
X64610085Y-61560010D01*
X64461989Y-61631601D01*
X64461984Y-61631604D01*
X64455646Y-61634668D01*
X64316081Y-61746081D01*
X64204668Y-61885646D01*
X64201602Y-61891989D01*
X64201601Y-61891990D01*
X64168560Y-61960339D01*
X64120904Y-62012964D01*
X64055120Y-62031500D01*
X61184533Y-62031500D01*
X61116412Y-62011498D01*
X61069919Y-61957842D01*
X61058533Y-61905601D01*
X61057038Y-60037194D01*
X63209431Y-60037194D01*
X63225489Y-60200968D01*
X63277432Y-60357115D01*
X63281081Y-60363140D01*
X63332742Y-60448441D01*
X63362679Y-60497873D01*
X63367570Y-60502938D01*
X63367571Y-60502939D01*
X63378875Y-60514645D01*
X63476991Y-60616247D01*
X63614689Y-60706354D01*
X63768928Y-60763715D01*
X63775909Y-60764646D01*
X63775911Y-60764647D01*
X63925061Y-60784548D01*
X63925065Y-60784548D01*
X63932042Y-60785479D01*
X63939053Y-60784841D01*
X63939057Y-60784841D01*
X64088903Y-60771204D01*
X64088904Y-60771204D01*
X64095924Y-60770565D01*
X64124562Y-60761260D01*
X64245730Y-60721890D01*
X64245733Y-60721889D01*
X64252429Y-60719713D01*
X64393779Y-60635451D01*
X64512949Y-60521968D01*
X64516850Y-60516097D01*
X64600114Y-60390775D01*
X64600115Y-60390773D01*
X64604015Y-60384903D01*
X64662451Y-60231068D01*
X64679260Y-60111466D01*
X64684802Y-60072034D01*
X64684803Y-60072027D01*
X64685353Y-60068110D01*
X64685641Y-60047500D01*
X64667298Y-59883966D01*
X64661498Y-59867309D01*
X64615498Y-59735217D01*
X64613180Y-59728560D01*
X64525976Y-59589005D01*
X64465894Y-59528502D01*
X64414986Y-59477237D01*
X64414982Y-59477234D01*
X64410022Y-59472239D01*
X64271080Y-59384063D01*
X64199218Y-59358474D01*
X64122689Y-59331223D01*
X64122687Y-59331222D01*
X64116055Y-59328861D01*
X64109069Y-59328028D01*
X64109065Y-59328027D01*
X63994571Y-59314375D01*
X63952653Y-59309377D01*
X63945650Y-59310113D01*
X63945649Y-59310113D01*
X63902435Y-59314655D01*
X63788995Y-59326578D01*
X63782327Y-59328848D01*
X63639882Y-59377340D01*
X63639879Y-59377341D01*
X63633215Y-59379610D01*
X63493055Y-59465837D01*
X63449491Y-59508498D01*
X63401467Y-59555527D01*
X63375482Y-59580973D01*
X63286338Y-59719297D01*
X63283927Y-59725920D01*
X63283926Y-59725923D01*
X63232466Y-59867309D01*
X63232465Y-59867314D01*
X63230056Y-59873932D01*
X63209431Y-60037194D01*
X61057038Y-60037194D01*
X61056261Y-59066577D01*
X61076209Y-58998440D01*
X61129827Y-58951904D01*
X61182254Y-58940476D01*
X68253633Y-58940068D01*
X69440000Y-58940000D01*
X69444388Y-55011516D01*
X79082231Y-55011516D01*
X79095255Y-55210223D01*
X79144272Y-55403229D01*
X79227641Y-55584071D01*
X79230974Y-55588787D01*
X79278709Y-55656330D01*
X79342570Y-55746692D01*
X79485210Y-55885645D01*
X79650784Y-55996278D01*
X79656087Y-55998556D01*
X79656090Y-55998558D01*
X79828439Y-56072605D01*
X79833746Y-56074885D01*
X79905276Y-56091071D01*
X80022332Y-56117558D01*
X80022337Y-56117559D01*
X80027969Y-56118833D01*
X80033740Y-56119060D01*
X80033742Y-56119060D01*
X80093969Y-56121426D01*
X80226949Y-56126651D01*
X80342506Y-56109896D01*
X80418300Y-56098907D01*
X80418304Y-56098906D01*
X80424022Y-56098077D01*
X80429494Y-56096219D01*
X80429496Y-56096219D01*
X80607119Y-56035923D01*
X80612587Y-56034067D01*
X80718059Y-55975000D01*
X80781291Y-55939588D01*
X80786330Y-55936766D01*
X80843938Y-55888855D01*
X80935001Y-55813119D01*
X80939433Y-55809433D01*
X80995539Y-55741972D01*
X81063077Y-55660766D01*
X81063079Y-55660764D01*
X81066766Y-55656330D01*
X81164067Y-55482587D01*
X81228077Y-55294022D01*
X81241064Y-55204455D01*
X81256118Y-55100623D01*
X81256651Y-55096949D01*
X81258142Y-55040000D01*
X81239921Y-54841702D01*
X81237746Y-54833987D01*
X81187436Y-54655604D01*
X81187435Y-54655602D01*
X81185868Y-54650045D01*
X81183314Y-54644865D01*
X81100349Y-54476627D01*
X81100346Y-54476623D01*
X81097794Y-54471447D01*
X80978647Y-54311891D01*
X80884616Y-54224970D01*
X80836660Y-54180639D01*
X80836658Y-54180637D01*
X80832419Y-54176719D01*
X80827536Y-54173638D01*
X80668886Y-54073537D01*
X80664006Y-54070458D01*
X80479049Y-53996668D01*
X80473389Y-53995542D01*
X80473385Y-53995541D01*
X80289410Y-53958946D01*
X80289405Y-53958946D01*
X80283742Y-53957819D01*
X80277967Y-53957743D01*
X80277963Y-53957743D01*
X80180390Y-53956466D01*
X80084625Y-53955212D01*
X79888368Y-53988936D01*
X79701543Y-54057859D01*
X79696582Y-54060811D01*
X79696581Y-54060811D01*
X79583200Y-54128266D01*
X79530406Y-54159675D01*
X79380690Y-54290972D01*
X79257407Y-54447355D01*
X79164688Y-54623586D01*
X79105637Y-54813763D01*
X79082231Y-55011516D01*
X69444388Y-55011516D01*
X69450062Y-49931516D01*
X79082231Y-49931516D01*
X79095255Y-50130223D01*
X79144272Y-50323229D01*
X79227641Y-50504071D01*
X79230974Y-50508787D01*
X79278709Y-50576330D01*
X79342570Y-50666692D01*
X79485210Y-50805645D01*
X79650784Y-50916278D01*
X79656087Y-50918556D01*
X79656090Y-50918558D01*
X79787118Y-50974852D01*
X79833746Y-50994885D01*
X79905276Y-51011071D01*
X80022332Y-51037558D01*
X80022337Y-51037559D01*
X80027969Y-51038833D01*
X80033740Y-51039060D01*
X80033742Y-51039060D01*
X80093969Y-51041426D01*
X80226949Y-51046651D01*
X80342506Y-51029896D01*
X80418300Y-51018907D01*
X80418304Y-51018906D01*
X80424022Y-51018077D01*
X80429494Y-51016219D01*
X80429496Y-51016219D01*
X80607119Y-50955923D01*
X80612587Y-50954067D01*
X80786330Y-50856766D01*
X80808920Y-50837979D01*
X80935001Y-50733119D01*
X80939433Y-50729433D01*
X80988258Y-50670727D01*
X81063077Y-50580766D01*
X81063079Y-50580764D01*
X81066766Y-50576330D01*
X81164067Y-50402587D01*
X81201225Y-50293124D01*
X81226219Y-50219496D01*
X81226219Y-50219494D01*
X81228077Y-50214022D01*
X81241064Y-50124455D01*
X81256118Y-50020623D01*
X81256651Y-50016949D01*
X81258142Y-49960000D01*
X81246897Y-49837627D01*
X81240450Y-49767456D01*
X81240449Y-49767453D01*
X81239921Y-49761702D01*
X81235516Y-49746081D01*
X81187436Y-49575604D01*
X81187435Y-49575602D01*
X81185868Y-49570045D01*
X81183314Y-49564865D01*
X81100349Y-49396627D01*
X81100346Y-49396623D01*
X81097794Y-49391447D01*
X81090263Y-49381361D01*
X80982100Y-49236515D01*
X80978647Y-49231891D01*
X80832419Y-49096719D01*
X80827536Y-49093638D01*
X80668886Y-48993537D01*
X80664006Y-48990458D01*
X80479049Y-48916668D01*
X80473389Y-48915542D01*
X80473385Y-48915541D01*
X80289410Y-48878946D01*
X80289405Y-48878946D01*
X80283742Y-48877819D01*
X80277967Y-48877743D01*
X80277963Y-48877743D01*
X80180390Y-48876466D01*
X80084625Y-48875212D01*
X79888368Y-48908936D01*
X79701543Y-48977859D01*
X79530406Y-49079675D01*
X79380690Y-49210972D01*
X79377118Y-49215503D01*
X79261726Y-49361877D01*
X79257407Y-49367355D01*
X79164688Y-49543586D01*
X79105637Y-49733763D01*
X79082231Y-49931516D01*
X69450062Y-49931516D01*
X69452741Y-47532799D01*
X69472819Y-47464702D01*
X69526527Y-47418269D01*
X69578770Y-47406941D01*
X76671476Y-47408712D01*
G37*
%TD.AperFunction*%
%TD*%
M02*
