G04 #@! TF.GenerationSoftware,KiCad,Pcbnew,(6.0.1)*
G04 #@! TF.CreationDate,2023-03-08T05:20:49-08:00*
G04 #@! TF.ProjectId,panel,70616e65-6c2e-46b6-9963-61645f706362,2.1*
G04 #@! TF.SameCoordinates,Original*
G04 #@! TF.FileFunction,Copper,L1,Top*
G04 #@! TF.FilePolarity,Positive*
%FSLAX46Y46*%
G04 Gerber Fmt 4.6, Leading zero omitted, Abs format (unit mm)*
G04 Created by KiCad (PCBNEW (6.0.1)) date 2023-03-08 05:20:49*
%MOMM*%
%LPD*%
G01*
G04 APERTURE LIST*
G04 #@! TA.AperFunction,ComponentPad*
%ADD10C,5.000000*%
G04 #@! TD*
G04 APERTURE END LIST*
D10*
X52500000Y-33750000D03*
X98220000Y-33750000D03*
X98220000Y-156150000D03*
X52500000Y-156150000D03*
G04 #@! TA.AperFunction,Conductor*
G36*
X50526390Y-31278002D02*
G01*
X50572883Y-31331658D01*
X50582987Y-31401932D01*
X50564642Y-31448362D01*
X50564576Y-31450069D01*
X50571527Y-31462316D01*
X52487190Y-33377980D01*
X52501131Y-33385592D01*
X52502966Y-33385461D01*
X52509580Y-33381210D01*
X54427074Y-31463716D01*
X54434688Y-31449772D01*
X54434194Y-31442853D01*
X54416038Y-31388944D01*
X54433352Y-31320091D01*
X54485141Y-31271529D01*
X54541941Y-31258000D01*
X96178269Y-31258000D01*
X96246390Y-31278002D01*
X96292883Y-31331658D01*
X96302987Y-31401932D01*
X96284642Y-31448362D01*
X96284576Y-31450069D01*
X96291527Y-31462316D01*
X98207190Y-33377980D01*
X98221131Y-33385592D01*
X98222966Y-33385461D01*
X98229580Y-33381210D01*
X100147074Y-31463716D01*
X100154688Y-31449772D01*
X100154194Y-31442853D01*
X100136038Y-31388944D01*
X100153352Y-31320091D01*
X100205141Y-31271529D01*
X100261941Y-31258000D01*
X110166000Y-31258000D01*
X110234121Y-31278002D01*
X110280614Y-31331658D01*
X110292000Y-31384000D01*
X110292000Y-158516000D01*
X110271998Y-158584121D01*
X110218342Y-158630614D01*
X110166000Y-158642000D01*
X100266799Y-158642000D01*
X100198678Y-158621998D01*
X100152185Y-158568342D01*
X100142081Y-158498068D01*
X100157646Y-158460415D01*
X100158123Y-158453616D01*
X100150537Y-158439748D01*
X98232810Y-156522020D01*
X98218869Y-156514408D01*
X98217034Y-156514539D01*
X98210420Y-156518790D01*
X96291474Y-158437737D01*
X96283860Y-158451681D01*
X96284551Y-158461344D01*
X96301060Y-158513030D01*
X96282669Y-158581603D01*
X96230124Y-158629348D01*
X96175095Y-158642000D01*
X54546799Y-158642000D01*
X54478678Y-158621998D01*
X54432185Y-158568342D01*
X54422081Y-158498068D01*
X54437646Y-158460415D01*
X54438123Y-158453616D01*
X54430537Y-158439748D01*
X52512810Y-156522020D01*
X52498869Y-156514408D01*
X52497034Y-156514539D01*
X52490420Y-156518790D01*
X50571474Y-158437737D01*
X50563860Y-158451681D01*
X50564551Y-158461344D01*
X50581060Y-158513030D01*
X50562669Y-158581603D01*
X50510124Y-158629348D01*
X50455095Y-158642000D01*
X40634000Y-158642000D01*
X40565879Y-158621998D01*
X40519386Y-158568342D01*
X40508000Y-158516000D01*
X40508000Y-156058987D01*
X49488484Y-156058987D01*
X49497374Y-156398505D01*
X49497980Y-156405721D01*
X49545835Y-156741963D01*
X49547269Y-156749074D01*
X49633455Y-157077595D01*
X49635692Y-157084478D01*
X49759064Y-157400914D01*
X49762081Y-157407503D01*
X49921002Y-157707652D01*
X49924761Y-157713860D01*
X50117129Y-157993757D01*
X50121574Y-157999486D01*
X50188743Y-158076484D01*
X50201917Y-158084888D01*
X50211769Y-158079020D01*
X52127980Y-156162810D01*
X52134357Y-156151131D01*
X52864408Y-156151131D01*
X52864539Y-156152966D01*
X52868790Y-156159580D01*
X54786268Y-158077057D01*
X54799622Y-158084349D01*
X54809594Y-158077295D01*
X54916641Y-157949267D01*
X54920957Y-157943456D01*
X55107432Y-157659575D01*
X55111046Y-157653313D01*
X55263658Y-157349882D01*
X55266530Y-157343244D01*
X55383249Y-157024293D01*
X55385345Y-157017351D01*
X55464631Y-156687103D01*
X55465915Y-156679964D01*
X55506816Y-156341973D01*
X55507240Y-156336403D01*
X55513010Y-156152797D01*
X55512937Y-156147204D01*
X55507850Y-156058987D01*
X95208484Y-156058987D01*
X95217374Y-156398505D01*
X95217980Y-156405721D01*
X95265835Y-156741963D01*
X95267269Y-156749074D01*
X95353455Y-157077595D01*
X95355692Y-157084478D01*
X95479064Y-157400914D01*
X95482081Y-157407503D01*
X95641002Y-157707652D01*
X95644761Y-157713860D01*
X95837129Y-157993757D01*
X95841574Y-157999486D01*
X95908743Y-158076484D01*
X95921917Y-158084888D01*
X95931769Y-158079020D01*
X97847980Y-156162810D01*
X97854357Y-156151131D01*
X98584408Y-156151131D01*
X98584539Y-156152966D01*
X98588790Y-156159580D01*
X100506268Y-158077057D01*
X100519622Y-158084349D01*
X100529594Y-158077295D01*
X100636641Y-157949267D01*
X100640957Y-157943456D01*
X100827432Y-157659575D01*
X100831046Y-157653313D01*
X100983658Y-157349882D01*
X100986530Y-157343244D01*
X101103249Y-157024293D01*
X101105345Y-157017351D01*
X101184631Y-156687103D01*
X101185915Y-156679964D01*
X101226816Y-156341973D01*
X101227240Y-156336403D01*
X101233010Y-156152797D01*
X101232937Y-156147204D01*
X101213338Y-155807303D01*
X101212506Y-155800113D01*
X101154113Y-155465529D01*
X101152458Y-155458474D01*
X101055998Y-155132834D01*
X101053540Y-155126006D01*
X100920290Y-154813608D01*
X100917073Y-154807125D01*
X100748788Y-154512089D01*
X100744856Y-154506034D01*
X100543774Y-154232295D01*
X100539166Y-154226726D01*
X100533830Y-154220984D01*
X100520178Y-154212866D01*
X100519570Y-154212887D01*
X100511092Y-154218119D01*
X98592020Y-156137190D01*
X98584408Y-156151131D01*
X97854357Y-156151131D01*
X97855592Y-156148869D01*
X97855461Y-156147034D01*
X97851210Y-156140420D01*
X95932374Y-154221585D01*
X95919581Y-154214599D01*
X95908827Y-154222464D01*
X95748037Y-154427527D01*
X95743902Y-154433476D01*
X95566440Y-154723068D01*
X95563019Y-154729447D01*
X95420016Y-155037522D01*
X95417356Y-155044241D01*
X95310711Y-155366707D01*
X95308834Y-155373711D01*
X95239961Y-155706288D01*
X95238904Y-155713449D01*
X95208712Y-156051735D01*
X95208484Y-156058987D01*
X55507850Y-156058987D01*
X55493338Y-155807303D01*
X55492506Y-155800113D01*
X55434113Y-155465529D01*
X55432458Y-155458474D01*
X55335998Y-155132834D01*
X55333540Y-155126006D01*
X55200290Y-154813608D01*
X55197073Y-154807125D01*
X55028788Y-154512089D01*
X55024856Y-154506034D01*
X54823774Y-154232295D01*
X54819166Y-154226726D01*
X54813830Y-154220984D01*
X54800178Y-154212866D01*
X54799570Y-154212887D01*
X54791092Y-154218119D01*
X52872020Y-156137190D01*
X52864408Y-156151131D01*
X52134357Y-156151131D01*
X52135592Y-156148869D01*
X52135461Y-156147034D01*
X52131210Y-156140420D01*
X50212374Y-154221585D01*
X50199581Y-154214599D01*
X50188827Y-154222464D01*
X50028037Y-154427527D01*
X50023902Y-154433476D01*
X49846440Y-154723068D01*
X49843019Y-154729447D01*
X49700016Y-155037522D01*
X49697356Y-155044241D01*
X49590711Y-155366707D01*
X49588834Y-155373711D01*
X49519961Y-155706288D01*
X49518904Y-155713449D01*
X49488712Y-156051735D01*
X49488484Y-156058987D01*
X40508000Y-156058987D01*
X40508000Y-153851048D01*
X50565132Y-153851048D01*
X50571527Y-153862316D01*
X52487190Y-155777980D01*
X52501131Y-155785592D01*
X52502966Y-155785461D01*
X52509580Y-155781210D01*
X54427074Y-153863716D01*
X54433991Y-153851048D01*
X96285132Y-153851048D01*
X96291527Y-153862316D01*
X98207190Y-155777980D01*
X98221131Y-155785592D01*
X98222966Y-155785461D01*
X98229580Y-155781210D01*
X100147074Y-153863716D01*
X100154466Y-153850179D01*
X100147679Y-153840479D01*
X100044476Y-153752335D01*
X100038704Y-153747953D01*
X99756796Y-153558519D01*
X99750575Y-153554839D01*
X99448757Y-153399060D01*
X99442146Y-153396116D01*
X99124439Y-153276065D01*
X99117513Y-153273894D01*
X98788112Y-153191155D01*
X98781005Y-153189799D01*
X98444278Y-153145468D01*
X98437036Y-153144937D01*
X98097467Y-153139602D01*
X98090205Y-153139906D01*
X97752256Y-153173638D01*
X97745108Y-153174770D01*
X97413263Y-153247124D01*
X97406285Y-153249072D01*
X97084960Y-153359086D01*
X97078253Y-153361823D01*
X96771707Y-153508039D01*
X96765349Y-153511534D01*
X96477654Y-153692005D01*
X96471731Y-153696214D01*
X96293601Y-153838923D01*
X96285132Y-153851048D01*
X54433991Y-153851048D01*
X54434466Y-153850179D01*
X54427679Y-153840479D01*
X54324476Y-153752335D01*
X54318704Y-153747953D01*
X54036796Y-153558519D01*
X54030575Y-153554839D01*
X53728757Y-153399060D01*
X53722146Y-153396116D01*
X53404439Y-153276065D01*
X53397513Y-153273894D01*
X53068112Y-153191155D01*
X53061005Y-153189799D01*
X52724278Y-153145468D01*
X52717036Y-153144937D01*
X52377467Y-153139602D01*
X52370205Y-153139906D01*
X52032256Y-153173638D01*
X52025108Y-153174770D01*
X51693263Y-153247124D01*
X51686285Y-153249072D01*
X51364960Y-153359086D01*
X51358253Y-153361823D01*
X51051707Y-153508039D01*
X51045349Y-153511534D01*
X50757654Y-153692005D01*
X50751731Y-153696214D01*
X50573601Y-153838923D01*
X50565132Y-153851048D01*
X40508000Y-153851048D01*
X40508000Y-147107655D01*
X50839858Y-147107655D01*
X50875104Y-147366638D01*
X50876412Y-147371124D01*
X50876412Y-147371126D01*
X50896098Y-147438664D01*
X50948243Y-147617567D01*
X51057668Y-147854928D01*
X51060231Y-147858837D01*
X51198410Y-148069596D01*
X51198414Y-148069601D01*
X51200976Y-148073509D01*
X51375018Y-148268506D01*
X51575970Y-148435637D01*
X51579973Y-148438066D01*
X51795422Y-148568804D01*
X51795426Y-148568806D01*
X51799419Y-148571229D01*
X52040455Y-148672303D01*
X52293783Y-148736641D01*
X52298434Y-148737109D01*
X52298438Y-148737110D01*
X52491308Y-148756531D01*
X52510867Y-148758500D01*
X52666354Y-148758500D01*
X52668679Y-148758327D01*
X52668685Y-148758327D01*
X52856000Y-148744407D01*
X52856004Y-148744406D01*
X52860652Y-148744061D01*
X52865200Y-148743032D01*
X52865206Y-148743031D01*
X53051601Y-148700853D01*
X53115577Y-148686377D01*
X53151769Y-148672303D01*
X53354824Y-148593340D01*
X53354827Y-148593339D01*
X53359177Y-148591647D01*
X53586098Y-148461951D01*
X53791357Y-148300138D01*
X53970443Y-148109763D01*
X54119424Y-147895009D01*
X54235025Y-147660593D01*
X54314707Y-147411665D01*
X54356721Y-147153693D01*
X54357324Y-147107655D01*
X96239858Y-147107655D01*
X96275104Y-147366638D01*
X96276412Y-147371124D01*
X96276412Y-147371126D01*
X96296098Y-147438664D01*
X96348243Y-147617567D01*
X96457668Y-147854928D01*
X96460231Y-147858837D01*
X96598410Y-148069596D01*
X96598414Y-148069601D01*
X96600976Y-148073509D01*
X96775018Y-148268506D01*
X96975970Y-148435637D01*
X96979973Y-148438066D01*
X97195422Y-148568804D01*
X97195426Y-148568806D01*
X97199419Y-148571229D01*
X97440455Y-148672303D01*
X97693783Y-148736641D01*
X97698434Y-148737109D01*
X97698438Y-148737110D01*
X97891308Y-148756531D01*
X97910867Y-148758500D01*
X98066354Y-148758500D01*
X98068679Y-148758327D01*
X98068685Y-148758327D01*
X98256000Y-148744407D01*
X98256004Y-148744406D01*
X98260652Y-148744061D01*
X98265200Y-148743032D01*
X98265206Y-148743031D01*
X98451601Y-148700853D01*
X98515577Y-148686377D01*
X98551769Y-148672303D01*
X98754824Y-148593340D01*
X98754827Y-148593339D01*
X98759177Y-148591647D01*
X98986098Y-148461951D01*
X99191357Y-148300138D01*
X99370443Y-148109763D01*
X99519424Y-147895009D01*
X99635025Y-147660593D01*
X99714707Y-147411665D01*
X99756721Y-147153693D01*
X99760142Y-146892345D01*
X99724896Y-146633362D01*
X99710473Y-146583877D01*
X99653068Y-146386932D01*
X99651757Y-146382433D01*
X99542332Y-146145072D01*
X99509519Y-146095024D01*
X99401590Y-145930404D01*
X99401586Y-145930399D01*
X99399024Y-145926491D01*
X99224982Y-145731494D01*
X99024030Y-145564363D01*
X98976844Y-145535730D01*
X98804578Y-145431196D01*
X98804574Y-145431194D01*
X98800581Y-145428771D01*
X98559545Y-145327697D01*
X98306217Y-145263359D01*
X98301566Y-145262891D01*
X98301562Y-145262890D01*
X98092271Y-145241816D01*
X98089133Y-145241500D01*
X97933646Y-145241500D01*
X97931321Y-145241673D01*
X97931315Y-145241673D01*
X97744000Y-145255593D01*
X97743996Y-145255594D01*
X97739348Y-145255939D01*
X97734800Y-145256968D01*
X97734794Y-145256969D01*
X97548399Y-145299147D01*
X97484423Y-145313623D01*
X97480071Y-145315315D01*
X97480069Y-145315316D01*
X97245176Y-145406660D01*
X97245173Y-145406661D01*
X97240823Y-145408353D01*
X97013902Y-145538049D01*
X96808643Y-145699862D01*
X96629557Y-145890237D01*
X96480576Y-146104991D01*
X96364975Y-146339407D01*
X96285293Y-146588335D01*
X96243279Y-146846307D01*
X96239858Y-147107655D01*
X54357324Y-147107655D01*
X54360142Y-146892345D01*
X54324896Y-146633362D01*
X54310473Y-146583877D01*
X54253068Y-146386932D01*
X54251757Y-146382433D01*
X54142332Y-146145072D01*
X54109519Y-146095024D01*
X54001590Y-145930404D01*
X54001586Y-145930399D01*
X53999024Y-145926491D01*
X53824982Y-145731494D01*
X53624030Y-145564363D01*
X53576844Y-145535730D01*
X53404578Y-145431196D01*
X53404574Y-145431194D01*
X53400581Y-145428771D01*
X53159545Y-145327697D01*
X52906217Y-145263359D01*
X52901566Y-145262891D01*
X52901562Y-145262890D01*
X52692271Y-145241816D01*
X52689133Y-145241500D01*
X52533646Y-145241500D01*
X52531321Y-145241673D01*
X52531315Y-145241673D01*
X52344000Y-145255593D01*
X52343996Y-145255594D01*
X52339348Y-145255939D01*
X52334800Y-145256968D01*
X52334794Y-145256969D01*
X52148399Y-145299147D01*
X52084423Y-145313623D01*
X52080071Y-145315315D01*
X52080069Y-145315316D01*
X51845176Y-145406660D01*
X51845173Y-145406661D01*
X51840823Y-145408353D01*
X51613902Y-145538049D01*
X51408643Y-145699862D01*
X51229557Y-145890237D01*
X51080576Y-146104991D01*
X50964975Y-146339407D01*
X50885293Y-146588335D01*
X50843279Y-146846307D01*
X50839858Y-147107655D01*
X40508000Y-147107655D01*
X40508000Y-139980000D01*
X42236548Y-139980000D01*
X42256343Y-140357709D01*
X42315511Y-140731279D01*
X42413403Y-141096618D01*
X42548947Y-141449723D01*
X42720659Y-141786726D01*
X42926656Y-142103934D01*
X43164682Y-142397871D01*
X43432129Y-142665318D01*
X43726066Y-142903344D01*
X44043274Y-143109341D01*
X44046208Y-143110836D01*
X44046215Y-143110840D01*
X44377337Y-143279555D01*
X44380277Y-143281053D01*
X44733382Y-143416597D01*
X45098721Y-143514489D01*
X45297158Y-143545918D01*
X45469043Y-143573143D01*
X45469051Y-143573144D01*
X45472291Y-143573657D01*
X45755511Y-143588500D01*
X45944489Y-143588500D01*
X46227709Y-143573657D01*
X46230949Y-143573144D01*
X46230957Y-143573143D01*
X46402842Y-143545918D01*
X46601279Y-143514489D01*
X46966618Y-143416597D01*
X47319723Y-143281053D01*
X47322663Y-143279555D01*
X47653785Y-143110840D01*
X47653792Y-143110836D01*
X47656726Y-143109341D01*
X47973934Y-142903344D01*
X48267871Y-142665318D01*
X48535318Y-142397871D01*
X48773344Y-142103934D01*
X48979341Y-141786726D01*
X49151053Y-141449723D01*
X49286597Y-141096618D01*
X49384489Y-140731279D01*
X49443657Y-140357709D01*
X49463452Y-139980000D01*
X101536548Y-139980000D01*
X101556343Y-140357709D01*
X101615511Y-140731279D01*
X101713403Y-141096618D01*
X101848947Y-141449723D01*
X102020659Y-141786726D01*
X102226656Y-142103934D01*
X102464682Y-142397871D01*
X102732129Y-142665318D01*
X103026066Y-142903344D01*
X103343274Y-143109341D01*
X103346208Y-143110836D01*
X103346215Y-143110840D01*
X103677337Y-143279555D01*
X103680277Y-143281053D01*
X104033382Y-143416597D01*
X104398721Y-143514489D01*
X104597158Y-143545918D01*
X104769043Y-143573143D01*
X104769051Y-143573144D01*
X104772291Y-143573657D01*
X105055511Y-143588500D01*
X105244489Y-143588500D01*
X105527709Y-143573657D01*
X105530949Y-143573144D01*
X105530957Y-143573143D01*
X105702842Y-143545918D01*
X105901279Y-143514489D01*
X106266618Y-143416597D01*
X106619723Y-143281053D01*
X106622663Y-143279555D01*
X106953785Y-143110840D01*
X106953792Y-143110836D01*
X106956726Y-143109341D01*
X107273934Y-142903344D01*
X107567871Y-142665318D01*
X107835318Y-142397871D01*
X108073344Y-142103934D01*
X108279341Y-141786726D01*
X108451053Y-141449723D01*
X108586597Y-141096618D01*
X108684489Y-140731279D01*
X108743657Y-140357709D01*
X108763452Y-139980000D01*
X108743657Y-139602291D01*
X108684489Y-139228721D01*
X108586597Y-138863382D01*
X108451053Y-138510277D01*
X108279341Y-138173274D01*
X108073344Y-137856066D01*
X107835318Y-137562129D01*
X107567871Y-137294682D01*
X107273934Y-137056656D01*
X106956726Y-136850659D01*
X106953792Y-136849164D01*
X106953785Y-136849160D01*
X106622663Y-136680445D01*
X106619723Y-136678947D01*
X106266618Y-136543403D01*
X105901279Y-136445511D01*
X105702842Y-136414082D01*
X105530957Y-136386857D01*
X105530949Y-136386856D01*
X105527709Y-136386343D01*
X105244489Y-136371500D01*
X105055511Y-136371500D01*
X104772291Y-136386343D01*
X104769051Y-136386856D01*
X104769043Y-136386857D01*
X104597158Y-136414082D01*
X104398721Y-136445511D01*
X104033382Y-136543403D01*
X103680277Y-136678947D01*
X103677337Y-136680445D01*
X103346215Y-136849160D01*
X103346208Y-136849164D01*
X103343274Y-136850659D01*
X103026066Y-137056656D01*
X102732129Y-137294682D01*
X102464682Y-137562129D01*
X102226656Y-137856066D01*
X102020659Y-138173274D01*
X101848947Y-138510277D01*
X101713403Y-138863382D01*
X101615511Y-139228721D01*
X101556343Y-139602291D01*
X101536548Y-139980000D01*
X49463452Y-139980000D01*
X49443657Y-139602291D01*
X49384489Y-139228721D01*
X49286597Y-138863382D01*
X49151053Y-138510277D01*
X48979341Y-138173274D01*
X48773344Y-137856066D01*
X48535318Y-137562129D01*
X48267871Y-137294682D01*
X47973934Y-137056656D01*
X47656726Y-136850659D01*
X47653792Y-136849164D01*
X47653785Y-136849160D01*
X47322663Y-136680445D01*
X47319723Y-136678947D01*
X46966618Y-136543403D01*
X46601279Y-136445511D01*
X46402842Y-136414082D01*
X46230957Y-136386857D01*
X46230949Y-136386856D01*
X46227709Y-136386343D01*
X45944489Y-136371500D01*
X45755511Y-136371500D01*
X45472291Y-136386343D01*
X45469051Y-136386856D01*
X45469043Y-136386857D01*
X45297158Y-136414082D01*
X45098721Y-136445511D01*
X44733382Y-136543403D01*
X44380277Y-136678947D01*
X44377337Y-136680445D01*
X44046215Y-136849160D01*
X44046208Y-136849164D01*
X44043274Y-136850659D01*
X43726066Y-137056656D01*
X43432129Y-137294682D01*
X43164682Y-137562129D01*
X42926656Y-137856066D01*
X42720659Y-138173274D01*
X42548947Y-138510277D01*
X42413403Y-138863382D01*
X42315511Y-139228721D01*
X42256343Y-139602291D01*
X42236548Y-139980000D01*
X40508000Y-139980000D01*
X40508000Y-126980000D01*
X42236548Y-126980000D01*
X42256343Y-127357709D01*
X42315511Y-127731279D01*
X42413403Y-128096618D01*
X42414588Y-128099706D01*
X42414589Y-128099708D01*
X42424877Y-128126510D01*
X42548947Y-128449723D01*
X42550445Y-128452663D01*
X42667795Y-128682974D01*
X42720659Y-128786726D01*
X42926656Y-129103934D01*
X43164682Y-129397871D01*
X43432129Y-129665318D01*
X43726066Y-129903344D01*
X44043274Y-130109341D01*
X44046208Y-130110836D01*
X44046215Y-130110840D01*
X44377337Y-130279555D01*
X44380277Y-130281053D01*
X44733382Y-130416597D01*
X45098721Y-130514489D01*
X45297158Y-130545918D01*
X45469043Y-130573143D01*
X45469051Y-130573144D01*
X45472291Y-130573657D01*
X45755511Y-130588500D01*
X45944489Y-130588500D01*
X46227709Y-130573657D01*
X46230949Y-130573144D01*
X46230957Y-130573143D01*
X46402842Y-130545918D01*
X46601279Y-130514489D01*
X46966618Y-130416597D01*
X47319723Y-130281053D01*
X47322663Y-130279555D01*
X47653785Y-130110840D01*
X47653792Y-130110836D01*
X47656726Y-130109341D01*
X47973934Y-129903344D01*
X48267871Y-129665318D01*
X48535318Y-129397871D01*
X48773344Y-129103934D01*
X48979341Y-128786726D01*
X49032206Y-128682974D01*
X49149555Y-128452663D01*
X49151053Y-128449723D01*
X49275123Y-128126510D01*
X49285411Y-128099708D01*
X49285412Y-128099706D01*
X49286597Y-128096618D01*
X49384489Y-127731279D01*
X49443657Y-127357709D01*
X49463452Y-126980000D01*
X49443657Y-126602291D01*
X49384489Y-126228721D01*
X49323204Y-126000000D01*
X88906548Y-126000000D01*
X88926343Y-126377709D01*
X88985511Y-126751279D01*
X89083403Y-127116618D01*
X89218947Y-127469723D01*
X89220445Y-127472663D01*
X89353842Y-127734468D01*
X89390659Y-127806726D01*
X89596656Y-128123934D01*
X89834682Y-128417871D01*
X90102129Y-128685318D01*
X90396066Y-128923344D01*
X90398841Y-128925146D01*
X90674151Y-129103934D01*
X90713274Y-129129341D01*
X90716208Y-129130836D01*
X90716215Y-129130840D01*
X91047337Y-129299555D01*
X91050277Y-129301053D01*
X91403382Y-129436597D01*
X91768721Y-129534489D01*
X91967158Y-129565918D01*
X92139043Y-129593143D01*
X92139051Y-129593144D01*
X92142291Y-129593657D01*
X92425511Y-129608500D01*
X92614489Y-129608500D01*
X92897709Y-129593657D01*
X92900949Y-129593144D01*
X92900957Y-129593143D01*
X93072842Y-129565918D01*
X93271279Y-129534489D01*
X93636618Y-129436597D01*
X93989723Y-129301053D01*
X93992663Y-129299555D01*
X94323785Y-129130840D01*
X94323792Y-129130836D01*
X94326726Y-129129341D01*
X94365850Y-129103934D01*
X94641159Y-128925146D01*
X94643934Y-128923344D01*
X94937871Y-128685318D01*
X95205318Y-128417871D01*
X95443344Y-128123934D01*
X95649341Y-127806726D01*
X95686159Y-127734468D01*
X95819555Y-127472663D01*
X95821053Y-127469723D01*
X95956597Y-127116618D01*
X95993204Y-126980000D01*
X101536548Y-126980000D01*
X101556343Y-127357709D01*
X101615511Y-127731279D01*
X101713403Y-128096618D01*
X101714588Y-128099706D01*
X101714589Y-128099708D01*
X101724877Y-128126510D01*
X101848947Y-128449723D01*
X101850445Y-128452663D01*
X101967795Y-128682974D01*
X102020659Y-128786726D01*
X102226656Y-129103934D01*
X102464682Y-129397871D01*
X102732129Y-129665318D01*
X103026066Y-129903344D01*
X103343274Y-130109341D01*
X103346208Y-130110836D01*
X103346215Y-130110840D01*
X103677337Y-130279555D01*
X103680277Y-130281053D01*
X104033382Y-130416597D01*
X104398721Y-130514489D01*
X104597158Y-130545918D01*
X104769043Y-130573143D01*
X104769051Y-130573144D01*
X104772291Y-130573657D01*
X105055511Y-130588500D01*
X105244489Y-130588500D01*
X105527709Y-130573657D01*
X105530949Y-130573144D01*
X105530957Y-130573143D01*
X105702842Y-130545918D01*
X105901279Y-130514489D01*
X106266618Y-130416597D01*
X106619723Y-130281053D01*
X106622663Y-130279555D01*
X106953785Y-130110840D01*
X106953792Y-130110836D01*
X106956726Y-130109341D01*
X107273934Y-129903344D01*
X107567871Y-129665318D01*
X107835318Y-129397871D01*
X108073344Y-129103934D01*
X108279341Y-128786726D01*
X108332206Y-128682974D01*
X108449555Y-128452663D01*
X108451053Y-128449723D01*
X108575123Y-128126510D01*
X108585411Y-128099708D01*
X108585412Y-128099706D01*
X108586597Y-128096618D01*
X108684489Y-127731279D01*
X108743657Y-127357709D01*
X108763452Y-126980000D01*
X108743657Y-126602291D01*
X108684489Y-126228721D01*
X108586597Y-125863382D01*
X108451053Y-125510277D01*
X108319445Y-125251982D01*
X108280840Y-125176215D01*
X108280836Y-125176208D01*
X108279341Y-125173274D01*
X108073344Y-124856066D01*
X107835318Y-124562129D01*
X107567871Y-124294682D01*
X107273934Y-124056656D01*
X107000123Y-123878841D01*
X106959495Y-123852457D01*
X106959492Y-123852455D01*
X106956726Y-123850659D01*
X106953792Y-123849164D01*
X106953785Y-123849160D01*
X106622663Y-123680445D01*
X106619723Y-123678947D01*
X106266618Y-123543403D01*
X105901279Y-123445511D01*
X105702842Y-123414082D01*
X105530957Y-123386857D01*
X105530949Y-123386856D01*
X105527709Y-123386343D01*
X105244489Y-123371500D01*
X105055511Y-123371500D01*
X104772291Y-123386343D01*
X104769051Y-123386856D01*
X104769043Y-123386857D01*
X104597158Y-123414082D01*
X104398721Y-123445511D01*
X104033382Y-123543403D01*
X103680277Y-123678947D01*
X103677337Y-123680445D01*
X103346215Y-123849160D01*
X103346208Y-123849164D01*
X103343274Y-123850659D01*
X103340508Y-123852455D01*
X103340505Y-123852457D01*
X103299877Y-123878841D01*
X103026066Y-124056656D01*
X102732129Y-124294682D01*
X102464682Y-124562129D01*
X102226656Y-124856066D01*
X102020659Y-125173274D01*
X102019164Y-125176208D01*
X102019160Y-125176215D01*
X101980555Y-125251982D01*
X101848947Y-125510277D01*
X101713403Y-125863382D01*
X101615511Y-126228721D01*
X101556343Y-126602291D01*
X101536548Y-126980000D01*
X95993204Y-126980000D01*
X96054489Y-126751279D01*
X96113657Y-126377709D01*
X96133452Y-126000000D01*
X96113657Y-125622291D01*
X96054489Y-125248721D01*
X95956597Y-124883382D01*
X95946112Y-124856066D01*
X95822237Y-124533362D01*
X95821053Y-124530277D01*
X95819555Y-124527337D01*
X95650840Y-124196215D01*
X95650836Y-124196208D01*
X95649341Y-124193274D01*
X95443344Y-123876066D01*
X95205318Y-123582129D01*
X94937871Y-123314682D01*
X94643934Y-123076656D01*
X94326726Y-122870659D01*
X94323792Y-122869164D01*
X94323785Y-122869160D01*
X93992663Y-122700445D01*
X93989723Y-122698947D01*
X93636618Y-122563403D01*
X93271279Y-122465511D01*
X93072842Y-122434082D01*
X92900957Y-122406857D01*
X92900949Y-122406856D01*
X92897709Y-122406343D01*
X92614489Y-122391500D01*
X92425511Y-122391500D01*
X92142291Y-122406343D01*
X92139051Y-122406856D01*
X92139043Y-122406857D01*
X91967158Y-122434082D01*
X91768721Y-122465511D01*
X91403382Y-122563403D01*
X91050277Y-122698947D01*
X91047337Y-122700445D01*
X90716215Y-122869160D01*
X90716208Y-122869164D01*
X90713274Y-122870659D01*
X90396066Y-123076656D01*
X90102129Y-123314682D01*
X89834682Y-123582129D01*
X89596656Y-123876066D01*
X89390659Y-124193274D01*
X89389164Y-124196208D01*
X89389160Y-124196215D01*
X89220445Y-124527337D01*
X89218947Y-124530277D01*
X89217763Y-124533362D01*
X89093889Y-124856066D01*
X89083403Y-124883382D01*
X88985511Y-125248721D01*
X88926343Y-125622291D01*
X88906548Y-126000000D01*
X49323204Y-126000000D01*
X49286597Y-125863382D01*
X49151053Y-125510277D01*
X49019445Y-125251982D01*
X48980840Y-125176215D01*
X48980836Y-125176208D01*
X48979341Y-125173274D01*
X48773344Y-124856066D01*
X48535318Y-124562129D01*
X48267871Y-124294682D01*
X47973934Y-124056656D01*
X47700123Y-123878841D01*
X47659495Y-123852457D01*
X47659492Y-123852455D01*
X47656726Y-123850659D01*
X47653792Y-123849164D01*
X47653785Y-123849160D01*
X47322663Y-123680445D01*
X47319723Y-123678947D01*
X46966618Y-123543403D01*
X46601279Y-123445511D01*
X46402842Y-123414082D01*
X46230957Y-123386857D01*
X46230949Y-123386856D01*
X46227709Y-123386343D01*
X45944489Y-123371500D01*
X45755511Y-123371500D01*
X45472291Y-123386343D01*
X45469051Y-123386856D01*
X45469043Y-123386857D01*
X45297158Y-123414082D01*
X45098721Y-123445511D01*
X44733382Y-123543403D01*
X44380277Y-123678947D01*
X44377337Y-123680445D01*
X44046215Y-123849160D01*
X44046208Y-123849164D01*
X44043274Y-123850659D01*
X44040508Y-123852455D01*
X44040505Y-123852457D01*
X43999877Y-123878841D01*
X43726066Y-124056656D01*
X43432129Y-124294682D01*
X43164682Y-124562129D01*
X42926656Y-124856066D01*
X42720659Y-125173274D01*
X42719164Y-125176208D01*
X42719160Y-125176215D01*
X42680555Y-125251982D01*
X42548947Y-125510277D01*
X42413403Y-125863382D01*
X42315511Y-126228721D01*
X42256343Y-126602291D01*
X42236548Y-126980000D01*
X40508000Y-126980000D01*
X40508000Y-113980000D01*
X42236548Y-113980000D01*
X42256343Y-114357709D01*
X42315511Y-114731279D01*
X42413403Y-115096618D01*
X42548947Y-115449723D01*
X42720659Y-115786726D01*
X42926656Y-116103934D01*
X43164682Y-116397871D01*
X43432129Y-116665318D01*
X43726066Y-116903344D01*
X44043274Y-117109341D01*
X44046208Y-117110836D01*
X44046215Y-117110840D01*
X44377337Y-117279555D01*
X44380277Y-117281053D01*
X44733382Y-117416597D01*
X45098721Y-117514489D01*
X45297158Y-117545918D01*
X45469043Y-117573143D01*
X45469051Y-117573144D01*
X45472291Y-117573657D01*
X45755511Y-117588500D01*
X45944489Y-117588500D01*
X46227709Y-117573657D01*
X46230949Y-117573144D01*
X46230957Y-117573143D01*
X46402842Y-117545918D01*
X46601279Y-117514489D01*
X46966618Y-117416597D01*
X47319723Y-117281053D01*
X47322663Y-117279555D01*
X47653785Y-117110840D01*
X47653792Y-117110836D01*
X47656726Y-117109341D01*
X47973934Y-116903344D01*
X48267871Y-116665318D01*
X48535318Y-116397871D01*
X48773344Y-116103934D01*
X48979341Y-115786726D01*
X49151053Y-115449723D01*
X49286597Y-115096618D01*
X49384489Y-114731279D01*
X49443657Y-114357709D01*
X49463452Y-113980000D01*
X101536548Y-113980000D01*
X101556343Y-114357709D01*
X101615511Y-114731279D01*
X101713403Y-115096618D01*
X101848947Y-115449723D01*
X102020659Y-115786726D01*
X102226656Y-116103934D01*
X102464682Y-116397871D01*
X102732129Y-116665318D01*
X103026066Y-116903344D01*
X103343274Y-117109341D01*
X103346208Y-117110836D01*
X103346215Y-117110840D01*
X103677337Y-117279555D01*
X103680277Y-117281053D01*
X104033382Y-117416597D01*
X104398721Y-117514489D01*
X104597158Y-117545918D01*
X104769043Y-117573143D01*
X104769051Y-117573144D01*
X104772291Y-117573657D01*
X105055511Y-117588500D01*
X105244489Y-117588500D01*
X105527709Y-117573657D01*
X105530949Y-117573144D01*
X105530957Y-117573143D01*
X105702842Y-117545918D01*
X105901279Y-117514489D01*
X106266618Y-117416597D01*
X106619723Y-117281053D01*
X106622663Y-117279555D01*
X106953785Y-117110840D01*
X106953792Y-117110836D01*
X106956726Y-117109341D01*
X107273934Y-116903344D01*
X107567871Y-116665318D01*
X107835318Y-116397871D01*
X108073344Y-116103934D01*
X108279341Y-115786726D01*
X108451053Y-115449723D01*
X108586597Y-115096618D01*
X108684489Y-114731279D01*
X108743657Y-114357709D01*
X108763452Y-113980000D01*
X108743657Y-113602291D01*
X108684489Y-113228721D01*
X108586597Y-112863382D01*
X108451053Y-112510277D01*
X108279341Y-112173274D01*
X108073344Y-111856066D01*
X107835318Y-111562129D01*
X107567871Y-111294682D01*
X107273934Y-111056656D01*
X106956726Y-110850659D01*
X106953792Y-110849164D01*
X106953785Y-110849160D01*
X106622663Y-110680445D01*
X106619723Y-110678947D01*
X106266618Y-110543403D01*
X105901279Y-110445511D01*
X105702842Y-110414082D01*
X105530957Y-110386857D01*
X105530949Y-110386856D01*
X105527709Y-110386343D01*
X105244489Y-110371500D01*
X105055511Y-110371500D01*
X104772291Y-110386343D01*
X104769051Y-110386856D01*
X104769043Y-110386857D01*
X104597158Y-110414082D01*
X104398721Y-110445511D01*
X104033382Y-110543403D01*
X103680277Y-110678947D01*
X103677337Y-110680445D01*
X103346215Y-110849160D01*
X103346208Y-110849164D01*
X103343274Y-110850659D01*
X103026066Y-111056656D01*
X102732129Y-111294682D01*
X102464682Y-111562129D01*
X102226656Y-111856066D01*
X102020659Y-112173274D01*
X101848947Y-112510277D01*
X101713403Y-112863382D01*
X101615511Y-113228721D01*
X101556343Y-113602291D01*
X101536548Y-113980000D01*
X49463452Y-113980000D01*
X49443657Y-113602291D01*
X49384489Y-113228721D01*
X49286597Y-112863382D01*
X49151053Y-112510277D01*
X48979341Y-112173274D01*
X48773344Y-111856066D01*
X48535318Y-111562129D01*
X48267871Y-111294682D01*
X47973934Y-111056656D01*
X47656726Y-110850659D01*
X47653792Y-110849164D01*
X47653785Y-110849160D01*
X47322663Y-110680445D01*
X47319723Y-110678947D01*
X46966618Y-110543403D01*
X46601279Y-110445511D01*
X46402842Y-110414082D01*
X46230957Y-110386857D01*
X46230949Y-110386856D01*
X46227709Y-110386343D01*
X45944489Y-110371500D01*
X45755511Y-110371500D01*
X45472291Y-110386343D01*
X45469051Y-110386856D01*
X45469043Y-110386857D01*
X45297158Y-110414082D01*
X45098721Y-110445511D01*
X44733382Y-110543403D01*
X44380277Y-110678947D01*
X44377337Y-110680445D01*
X44046215Y-110849160D01*
X44046208Y-110849164D01*
X44043274Y-110850659D01*
X43726066Y-111056656D01*
X43432129Y-111294682D01*
X43164682Y-111562129D01*
X42926656Y-111856066D01*
X42720659Y-112173274D01*
X42548947Y-112510277D01*
X42413403Y-112863382D01*
X42315511Y-113228721D01*
X42256343Y-113602291D01*
X42236548Y-113980000D01*
X40508000Y-113980000D01*
X40508000Y-100980000D01*
X42236548Y-100980000D01*
X42256343Y-101357709D01*
X42315511Y-101731279D01*
X42413403Y-102096618D01*
X42548947Y-102449723D01*
X42550445Y-102452663D01*
X42709531Y-102764886D01*
X42720659Y-102786726D01*
X42926656Y-103103934D01*
X43164682Y-103397871D01*
X43432129Y-103665318D01*
X43726066Y-103903344D01*
X44043274Y-104109341D01*
X44046208Y-104110836D01*
X44046215Y-104110840D01*
X44287642Y-104233853D01*
X44380277Y-104281053D01*
X44733382Y-104416597D01*
X45098721Y-104514489D01*
X45297158Y-104545918D01*
X45469043Y-104573143D01*
X45469051Y-104573144D01*
X45472291Y-104573657D01*
X45755511Y-104588500D01*
X45944489Y-104588500D01*
X46227709Y-104573657D01*
X46230949Y-104573144D01*
X46230957Y-104573143D01*
X46402842Y-104545918D01*
X46601279Y-104514489D01*
X46966618Y-104416597D01*
X47319723Y-104281053D01*
X47412358Y-104233853D01*
X47653785Y-104110840D01*
X47653792Y-104110836D01*
X47656726Y-104109341D01*
X47973934Y-103903344D01*
X48267871Y-103665318D01*
X48535318Y-103397871D01*
X48773344Y-103103934D01*
X48979341Y-102786726D01*
X48990470Y-102764886D01*
X49149555Y-102452663D01*
X49151053Y-102449723D01*
X49177817Y-102380000D01*
X88806411Y-102380000D01*
X88826754Y-102768176D01*
X88827267Y-102771416D01*
X88827268Y-102771424D01*
X88855268Y-102948207D01*
X88887562Y-103152099D01*
X88988167Y-103527562D01*
X89127468Y-103890453D01*
X89303938Y-104236794D01*
X89305734Y-104239560D01*
X89305736Y-104239563D01*
X89420703Y-104416597D01*
X89515643Y-104562793D01*
X89760266Y-104864876D01*
X90035124Y-105139734D01*
X90337207Y-105384357D01*
X90663206Y-105596062D01*
X90666140Y-105597557D01*
X90666147Y-105597561D01*
X91006607Y-105771034D01*
X91009547Y-105772532D01*
X91372438Y-105911833D01*
X91747901Y-106012438D01*
X91951793Y-106044732D01*
X92128576Y-106072732D01*
X92128584Y-106072733D01*
X92131824Y-106073246D01*
X92422894Y-106088500D01*
X92617106Y-106088500D01*
X92908176Y-106073246D01*
X92911416Y-106072733D01*
X92911424Y-106072732D01*
X93088207Y-106044732D01*
X93292099Y-106012438D01*
X93667562Y-105911833D01*
X94030453Y-105772532D01*
X94033393Y-105771034D01*
X94373853Y-105597561D01*
X94373860Y-105597557D01*
X94376794Y-105596062D01*
X94702793Y-105384357D01*
X95004876Y-105139734D01*
X95279734Y-104864876D01*
X95524357Y-104562793D01*
X95707321Y-104281053D01*
X95734264Y-104239564D01*
X95734266Y-104239561D01*
X95736062Y-104236795D01*
X95737562Y-104233853D01*
X95911034Y-103893393D01*
X95912532Y-103890453D01*
X96051833Y-103527562D01*
X96152438Y-103152099D01*
X96184732Y-102948207D01*
X96212732Y-102771424D01*
X96212733Y-102771416D01*
X96213246Y-102768176D01*
X96233589Y-102380000D01*
X96213246Y-101991824D01*
X96152438Y-101607901D01*
X96051833Y-101232438D01*
X95954931Y-100980000D01*
X101536548Y-100980000D01*
X101556343Y-101357709D01*
X101615511Y-101731279D01*
X101713403Y-102096618D01*
X101848947Y-102449723D01*
X101850445Y-102452663D01*
X102009531Y-102764886D01*
X102020659Y-102786726D01*
X102226656Y-103103934D01*
X102464682Y-103397871D01*
X102732129Y-103665318D01*
X103026066Y-103903344D01*
X103343274Y-104109341D01*
X103346208Y-104110836D01*
X103346215Y-104110840D01*
X103587642Y-104233853D01*
X103680277Y-104281053D01*
X104033382Y-104416597D01*
X104398721Y-104514489D01*
X104597158Y-104545918D01*
X104769043Y-104573143D01*
X104769051Y-104573144D01*
X104772291Y-104573657D01*
X105055511Y-104588500D01*
X105244489Y-104588500D01*
X105527709Y-104573657D01*
X105530949Y-104573144D01*
X105530957Y-104573143D01*
X105702842Y-104545918D01*
X105901279Y-104514489D01*
X106266618Y-104416597D01*
X106619723Y-104281053D01*
X106712358Y-104233853D01*
X106953785Y-104110840D01*
X106953792Y-104110836D01*
X106956726Y-104109341D01*
X107273934Y-103903344D01*
X107567871Y-103665318D01*
X107835318Y-103397871D01*
X108073344Y-103103934D01*
X108279341Y-102786726D01*
X108290470Y-102764886D01*
X108449555Y-102452663D01*
X108451053Y-102449723D01*
X108586597Y-102096618D01*
X108684489Y-101731279D01*
X108743657Y-101357709D01*
X108763452Y-100980000D01*
X108743657Y-100602291D01*
X108730693Y-100520436D01*
X108685005Y-100231982D01*
X108684489Y-100228721D01*
X108586597Y-99863382D01*
X108451053Y-99510277D01*
X108383511Y-99377718D01*
X108280840Y-99176215D01*
X108280836Y-99176208D01*
X108279341Y-99173274D01*
X108073344Y-98856066D01*
X107835318Y-98562129D01*
X107567871Y-98294682D01*
X107273934Y-98056656D01*
X106956726Y-97850659D01*
X106953792Y-97849164D01*
X106953785Y-97849160D01*
X106622663Y-97680445D01*
X106619723Y-97678947D01*
X106266618Y-97543403D01*
X105901279Y-97445511D01*
X105702842Y-97414082D01*
X105530957Y-97386857D01*
X105530949Y-97386856D01*
X105527709Y-97386343D01*
X105244489Y-97371500D01*
X105055511Y-97371500D01*
X104772291Y-97386343D01*
X104769051Y-97386856D01*
X104769043Y-97386857D01*
X104597158Y-97414082D01*
X104398721Y-97445511D01*
X104033382Y-97543403D01*
X103680277Y-97678947D01*
X103677337Y-97680445D01*
X103346215Y-97849160D01*
X103346208Y-97849164D01*
X103343274Y-97850659D01*
X103026066Y-98056656D01*
X102732129Y-98294682D01*
X102464682Y-98562129D01*
X102226656Y-98856066D01*
X102020659Y-99173274D01*
X102019164Y-99176208D01*
X102019160Y-99176215D01*
X101916489Y-99377718D01*
X101848947Y-99510277D01*
X101713403Y-99863382D01*
X101615511Y-100228721D01*
X101614995Y-100231982D01*
X101569308Y-100520436D01*
X101556343Y-100602291D01*
X101536548Y-100980000D01*
X95954931Y-100980000D01*
X95912532Y-100869547D01*
X95911034Y-100866607D01*
X95737561Y-100526147D01*
X95737557Y-100526140D01*
X95736062Y-100523206D01*
X95524357Y-100197207D01*
X95279734Y-99895124D01*
X95004876Y-99620266D01*
X94702793Y-99375643D01*
X94395699Y-99176215D01*
X94379563Y-99165736D01*
X94379560Y-99165734D01*
X94376794Y-99163938D01*
X94373860Y-99162443D01*
X94373853Y-99162439D01*
X94033393Y-98988966D01*
X94030453Y-98987468D01*
X93667562Y-98848167D01*
X93292099Y-98747562D01*
X93088207Y-98715268D01*
X92911424Y-98687268D01*
X92911416Y-98687267D01*
X92908176Y-98686754D01*
X92617106Y-98671500D01*
X92422894Y-98671500D01*
X92131824Y-98686754D01*
X92128584Y-98687267D01*
X92128576Y-98687268D01*
X91951793Y-98715268D01*
X91747901Y-98747562D01*
X91372438Y-98848167D01*
X91009547Y-98987468D01*
X91006607Y-98988966D01*
X90666147Y-99162439D01*
X90666140Y-99162443D01*
X90663206Y-99163938D01*
X90660440Y-99165734D01*
X90660437Y-99165736D01*
X90644301Y-99176215D01*
X90337207Y-99375643D01*
X90035124Y-99620266D01*
X89760266Y-99895124D01*
X89515643Y-100197207D01*
X89513848Y-100199970D01*
X89513848Y-100199971D01*
X89305736Y-100520436D01*
X89305734Y-100520439D01*
X89303938Y-100523205D01*
X89302443Y-100526139D01*
X89302439Y-100526146D01*
X89261965Y-100605581D01*
X89127468Y-100869547D01*
X88988167Y-101232438D01*
X88887562Y-101607901D01*
X88826754Y-101991824D01*
X88806411Y-102380000D01*
X49177817Y-102380000D01*
X49286597Y-102096618D01*
X49384489Y-101731279D01*
X49443657Y-101357709D01*
X49463452Y-100980000D01*
X49443657Y-100602291D01*
X49430693Y-100520436D01*
X49385005Y-100231982D01*
X49384489Y-100228721D01*
X49286597Y-99863382D01*
X49151053Y-99510277D01*
X49083511Y-99377718D01*
X48980840Y-99176215D01*
X48980836Y-99176208D01*
X48979341Y-99173274D01*
X48773344Y-98856066D01*
X48535318Y-98562129D01*
X48267871Y-98294682D01*
X47973934Y-98056656D01*
X47656726Y-97850659D01*
X47653792Y-97849164D01*
X47653785Y-97849160D01*
X47322663Y-97680445D01*
X47319723Y-97678947D01*
X46966618Y-97543403D01*
X46601279Y-97445511D01*
X46402842Y-97414082D01*
X46230957Y-97386857D01*
X46230949Y-97386856D01*
X46227709Y-97386343D01*
X45944489Y-97371500D01*
X45755511Y-97371500D01*
X45472291Y-97386343D01*
X45469051Y-97386856D01*
X45469043Y-97386857D01*
X45297158Y-97414082D01*
X45098721Y-97445511D01*
X44733382Y-97543403D01*
X44380277Y-97678947D01*
X44377337Y-97680445D01*
X44046215Y-97849160D01*
X44046208Y-97849164D01*
X44043274Y-97850659D01*
X43726066Y-98056656D01*
X43432129Y-98294682D01*
X43164682Y-98562129D01*
X42926656Y-98856066D01*
X42720659Y-99173274D01*
X42719164Y-99176208D01*
X42719160Y-99176215D01*
X42616489Y-99377718D01*
X42548947Y-99510277D01*
X42413403Y-99863382D01*
X42315511Y-100228721D01*
X42314995Y-100231982D01*
X42269308Y-100520436D01*
X42256343Y-100602291D01*
X42236548Y-100980000D01*
X40508000Y-100980000D01*
X40508000Y-87980000D01*
X42236548Y-87980000D01*
X42256343Y-88357709D01*
X42315511Y-88731279D01*
X42413403Y-89096618D01*
X42548947Y-89449723D01*
X42720659Y-89786726D01*
X42926656Y-90103934D01*
X43164682Y-90397871D01*
X43432129Y-90665318D01*
X43726066Y-90903344D01*
X44043274Y-91109341D01*
X44046208Y-91110836D01*
X44046215Y-91110840D01*
X44377337Y-91279555D01*
X44380277Y-91281053D01*
X44733382Y-91416597D01*
X45098721Y-91514489D01*
X45297158Y-91545918D01*
X45469043Y-91573143D01*
X45469051Y-91573144D01*
X45472291Y-91573657D01*
X45755511Y-91588500D01*
X45944489Y-91588500D01*
X46227709Y-91573657D01*
X46230949Y-91573144D01*
X46230957Y-91573143D01*
X46402842Y-91545918D01*
X46601279Y-91514489D01*
X46966618Y-91416597D01*
X47319723Y-91281053D01*
X47322663Y-91279555D01*
X47653785Y-91110840D01*
X47653792Y-91110836D01*
X47656726Y-91109341D01*
X47973934Y-90903344D01*
X48267871Y-90665318D01*
X48535318Y-90397871D01*
X48773344Y-90103934D01*
X48979341Y-89786726D01*
X49151053Y-89449723D01*
X49286597Y-89096618D01*
X49384489Y-88731279D01*
X49443657Y-88357709D01*
X49463452Y-87980000D01*
X101536548Y-87980000D01*
X101556343Y-88357709D01*
X101615511Y-88731279D01*
X101713403Y-89096618D01*
X101848947Y-89449723D01*
X102020659Y-89786726D01*
X102226656Y-90103934D01*
X102464682Y-90397871D01*
X102732129Y-90665318D01*
X103026066Y-90903344D01*
X103343274Y-91109341D01*
X103346208Y-91110836D01*
X103346215Y-91110840D01*
X103677337Y-91279555D01*
X103680277Y-91281053D01*
X104033382Y-91416597D01*
X104398721Y-91514489D01*
X104597158Y-91545918D01*
X104769043Y-91573143D01*
X104769051Y-91573144D01*
X104772291Y-91573657D01*
X105055511Y-91588500D01*
X105244489Y-91588500D01*
X105527709Y-91573657D01*
X105530949Y-91573144D01*
X105530957Y-91573143D01*
X105702842Y-91545918D01*
X105901279Y-91514489D01*
X106266618Y-91416597D01*
X106619723Y-91281053D01*
X106622663Y-91279555D01*
X106953785Y-91110840D01*
X106953792Y-91110836D01*
X106956726Y-91109341D01*
X107273934Y-90903344D01*
X107567871Y-90665318D01*
X107835318Y-90397871D01*
X108073344Y-90103934D01*
X108279341Y-89786726D01*
X108451053Y-89449723D01*
X108586597Y-89096618D01*
X108684489Y-88731279D01*
X108743657Y-88357709D01*
X108763452Y-87980000D01*
X108743657Y-87602291D01*
X108684489Y-87228721D01*
X108586597Y-86863382D01*
X108451053Y-86510277D01*
X108279341Y-86173274D01*
X108073344Y-85856066D01*
X107835318Y-85562129D01*
X107567871Y-85294682D01*
X107273934Y-85056656D01*
X106956726Y-84850659D01*
X106953792Y-84849164D01*
X106953785Y-84849160D01*
X106622663Y-84680445D01*
X106619723Y-84678947D01*
X106266618Y-84543403D01*
X105901279Y-84445511D01*
X105702842Y-84414082D01*
X105530957Y-84386857D01*
X105530949Y-84386856D01*
X105527709Y-84386343D01*
X105244489Y-84371500D01*
X105055511Y-84371500D01*
X104772291Y-84386343D01*
X104769051Y-84386856D01*
X104769043Y-84386857D01*
X104597158Y-84414082D01*
X104398721Y-84445511D01*
X104033382Y-84543403D01*
X103680277Y-84678947D01*
X103677337Y-84680445D01*
X103346215Y-84849160D01*
X103346208Y-84849164D01*
X103343274Y-84850659D01*
X103026066Y-85056656D01*
X102732129Y-85294682D01*
X102464682Y-85562129D01*
X102226656Y-85856066D01*
X102020659Y-86173274D01*
X101848947Y-86510277D01*
X101713403Y-86863382D01*
X101615511Y-87228721D01*
X101556343Y-87602291D01*
X101536548Y-87980000D01*
X49463452Y-87980000D01*
X49443657Y-87602291D01*
X49384489Y-87228721D01*
X49286597Y-86863382D01*
X49151053Y-86510277D01*
X48979341Y-86173274D01*
X48773344Y-85856066D01*
X48535318Y-85562129D01*
X48267871Y-85294682D01*
X47973934Y-85056656D01*
X47656726Y-84850659D01*
X47653792Y-84849164D01*
X47653785Y-84849160D01*
X47322663Y-84680445D01*
X47319723Y-84678947D01*
X46966618Y-84543403D01*
X46601279Y-84445511D01*
X46402842Y-84414082D01*
X46230957Y-84386857D01*
X46230949Y-84386856D01*
X46227709Y-84386343D01*
X45944489Y-84371500D01*
X45755511Y-84371500D01*
X45472291Y-84386343D01*
X45469051Y-84386856D01*
X45469043Y-84386857D01*
X45297158Y-84414082D01*
X45098721Y-84445511D01*
X44733382Y-84543403D01*
X44380277Y-84678947D01*
X44377337Y-84680445D01*
X44046215Y-84849160D01*
X44046208Y-84849164D01*
X44043274Y-84850659D01*
X43726066Y-85056656D01*
X43432129Y-85294682D01*
X43164682Y-85562129D01*
X42926656Y-85856066D01*
X42720659Y-86173274D01*
X42548947Y-86510277D01*
X42413403Y-86863382D01*
X42315511Y-87228721D01*
X42256343Y-87602291D01*
X42236548Y-87980000D01*
X40508000Y-87980000D01*
X40508000Y-74980000D01*
X42236548Y-74980000D01*
X42256343Y-75357709D01*
X42315511Y-75731279D01*
X42413403Y-76096618D01*
X42548947Y-76449723D01*
X42720659Y-76786726D01*
X42926656Y-77103934D01*
X43164682Y-77397871D01*
X43432129Y-77665318D01*
X43726066Y-77903344D01*
X44043274Y-78109341D01*
X44046208Y-78110836D01*
X44046215Y-78110840D01*
X44377337Y-78279555D01*
X44380277Y-78281053D01*
X44733382Y-78416597D01*
X45098721Y-78514489D01*
X45297158Y-78545918D01*
X45469043Y-78573143D01*
X45469051Y-78573144D01*
X45472291Y-78573657D01*
X45755511Y-78588500D01*
X45944489Y-78588500D01*
X46227709Y-78573657D01*
X46230949Y-78573144D01*
X46230957Y-78573143D01*
X46402842Y-78545918D01*
X46601279Y-78514489D01*
X46966618Y-78416597D01*
X47319723Y-78281053D01*
X47322663Y-78279555D01*
X47653785Y-78110840D01*
X47653792Y-78110836D01*
X47656726Y-78109341D01*
X47973934Y-77903344D01*
X48267871Y-77665318D01*
X48535318Y-77397871D01*
X48773344Y-77103934D01*
X48979341Y-76786726D01*
X49151053Y-76449723D01*
X49286597Y-76096618D01*
X49384489Y-75731279D01*
X49443657Y-75357709D01*
X49463452Y-74980000D01*
X101536548Y-74980000D01*
X101556343Y-75357709D01*
X101615511Y-75731279D01*
X101713403Y-76096618D01*
X101848947Y-76449723D01*
X102020659Y-76786726D01*
X102226656Y-77103934D01*
X102464682Y-77397871D01*
X102732129Y-77665318D01*
X103026066Y-77903344D01*
X103343274Y-78109341D01*
X103346208Y-78110836D01*
X103346215Y-78110840D01*
X103677337Y-78279555D01*
X103680277Y-78281053D01*
X104033382Y-78416597D01*
X104398721Y-78514489D01*
X104597158Y-78545918D01*
X104769043Y-78573143D01*
X104769051Y-78573144D01*
X104772291Y-78573657D01*
X105055511Y-78588500D01*
X105244489Y-78588500D01*
X105527709Y-78573657D01*
X105530949Y-78573144D01*
X105530957Y-78573143D01*
X105702842Y-78545918D01*
X105901279Y-78514489D01*
X106266618Y-78416597D01*
X106619723Y-78281053D01*
X106622663Y-78279555D01*
X106953785Y-78110840D01*
X106953792Y-78110836D01*
X106956726Y-78109341D01*
X107273934Y-77903344D01*
X107567871Y-77665318D01*
X107835318Y-77397871D01*
X108073344Y-77103934D01*
X108279341Y-76786726D01*
X108451053Y-76449723D01*
X108586597Y-76096618D01*
X108684489Y-75731279D01*
X108743657Y-75357709D01*
X108763452Y-74980000D01*
X108743657Y-74602291D01*
X108684489Y-74228721D01*
X108586597Y-73863382D01*
X108451053Y-73510277D01*
X108279341Y-73173274D01*
X108073344Y-72856066D01*
X107835318Y-72562129D01*
X107567871Y-72294682D01*
X107273934Y-72056656D01*
X106956726Y-71850659D01*
X106953792Y-71849164D01*
X106953785Y-71849160D01*
X106622663Y-71680445D01*
X106619723Y-71678947D01*
X106266618Y-71543403D01*
X105901279Y-71445511D01*
X105702842Y-71414082D01*
X105530957Y-71386857D01*
X105530949Y-71386856D01*
X105527709Y-71386343D01*
X105244489Y-71371500D01*
X105055511Y-71371500D01*
X104772291Y-71386343D01*
X104769051Y-71386856D01*
X104769043Y-71386857D01*
X104597158Y-71414082D01*
X104398721Y-71445511D01*
X104033382Y-71543403D01*
X103680277Y-71678947D01*
X103677337Y-71680445D01*
X103346215Y-71849160D01*
X103346208Y-71849164D01*
X103343274Y-71850659D01*
X103026066Y-72056656D01*
X102732129Y-72294682D01*
X102464682Y-72562129D01*
X102226656Y-72856066D01*
X102020659Y-73173274D01*
X101848947Y-73510277D01*
X101713403Y-73863382D01*
X101615511Y-74228721D01*
X101556343Y-74602291D01*
X101536548Y-74980000D01*
X49463452Y-74980000D01*
X49443657Y-74602291D01*
X49384489Y-74228721D01*
X49286597Y-73863382D01*
X49151053Y-73510277D01*
X48979341Y-73173274D01*
X48773344Y-72856066D01*
X48535318Y-72562129D01*
X48267871Y-72294682D01*
X47973934Y-72056656D01*
X47656726Y-71850659D01*
X47653792Y-71849164D01*
X47653785Y-71849160D01*
X47322663Y-71680445D01*
X47319723Y-71678947D01*
X46966618Y-71543403D01*
X46601279Y-71445511D01*
X46402842Y-71414082D01*
X46230957Y-71386857D01*
X46230949Y-71386856D01*
X46227709Y-71386343D01*
X45944489Y-71371500D01*
X45755511Y-71371500D01*
X45472291Y-71386343D01*
X45469051Y-71386856D01*
X45469043Y-71386857D01*
X45297158Y-71414082D01*
X45098721Y-71445511D01*
X44733382Y-71543403D01*
X44380277Y-71678947D01*
X44377337Y-71680445D01*
X44046215Y-71849160D01*
X44046208Y-71849164D01*
X44043274Y-71850659D01*
X43726066Y-72056656D01*
X43432129Y-72294682D01*
X43164682Y-72562129D01*
X42926656Y-72856066D01*
X42720659Y-73173274D01*
X42548947Y-73510277D01*
X42413403Y-73863382D01*
X42315511Y-74228721D01*
X42256343Y-74602291D01*
X42236548Y-74980000D01*
X40508000Y-74980000D01*
X40508000Y-61980000D01*
X42236548Y-61980000D01*
X42256343Y-62357709D01*
X42315511Y-62731279D01*
X42413403Y-63096618D01*
X42548947Y-63449723D01*
X42720659Y-63786726D01*
X42926656Y-64103934D01*
X43164682Y-64397871D01*
X43432129Y-64665318D01*
X43726066Y-64903344D01*
X44043274Y-65109341D01*
X44046208Y-65110836D01*
X44046215Y-65110840D01*
X44377337Y-65279555D01*
X44380277Y-65281053D01*
X44733382Y-65416597D01*
X45098721Y-65514489D01*
X45297158Y-65545918D01*
X45469043Y-65573143D01*
X45469051Y-65573144D01*
X45472291Y-65573657D01*
X45755511Y-65588500D01*
X45944489Y-65588500D01*
X46227709Y-65573657D01*
X46230949Y-65573144D01*
X46230957Y-65573143D01*
X46402842Y-65545918D01*
X46601279Y-65514489D01*
X46966618Y-65416597D01*
X47319723Y-65281053D01*
X47322663Y-65279555D01*
X47653785Y-65110840D01*
X47653792Y-65110836D01*
X47656726Y-65109341D01*
X47973934Y-64903344D01*
X48267871Y-64665318D01*
X48535318Y-64397871D01*
X48773344Y-64103934D01*
X48840839Y-64000000D01*
X88906548Y-64000000D01*
X88926343Y-64377709D01*
X88926856Y-64380949D01*
X88926857Y-64380957D01*
X88954082Y-64552842D01*
X88985511Y-64751279D01*
X89083403Y-65116618D01*
X89218947Y-65469723D01*
X89390659Y-65806726D01*
X89596656Y-66123934D01*
X89834682Y-66417871D01*
X90102129Y-66685318D01*
X90396066Y-66923344D01*
X90713274Y-67129341D01*
X90716208Y-67130836D01*
X90716215Y-67130840D01*
X91047337Y-67299555D01*
X91050277Y-67301053D01*
X91403382Y-67436597D01*
X91768721Y-67534489D01*
X91967158Y-67565918D01*
X92139043Y-67593143D01*
X92139051Y-67593144D01*
X92142291Y-67593657D01*
X92425511Y-67608500D01*
X92614489Y-67608500D01*
X92897709Y-67593657D01*
X92900949Y-67593144D01*
X92900957Y-67593143D01*
X93072842Y-67565918D01*
X93271279Y-67534489D01*
X93636618Y-67436597D01*
X93989723Y-67301053D01*
X93992663Y-67299555D01*
X94323785Y-67130840D01*
X94323792Y-67130836D01*
X94326726Y-67129341D01*
X94643934Y-66923344D01*
X94937871Y-66685318D01*
X95205318Y-66417871D01*
X95443344Y-66123934D01*
X95649341Y-65806726D01*
X95821053Y-65469723D01*
X95956597Y-65116618D01*
X96054489Y-64751279D01*
X96085918Y-64552842D01*
X96113143Y-64380957D01*
X96113144Y-64380949D01*
X96113657Y-64377709D01*
X96133452Y-64000000D01*
X96113657Y-63622291D01*
X96054489Y-63248721D01*
X95956597Y-62883382D01*
X95821053Y-62530277D01*
X95649341Y-62193274D01*
X95510839Y-61980000D01*
X101536548Y-61980000D01*
X101556343Y-62357709D01*
X101615511Y-62731279D01*
X101713403Y-63096618D01*
X101848947Y-63449723D01*
X102020659Y-63786726D01*
X102226656Y-64103934D01*
X102464682Y-64397871D01*
X102732129Y-64665318D01*
X103026066Y-64903344D01*
X103343274Y-65109341D01*
X103346208Y-65110836D01*
X103346215Y-65110840D01*
X103677337Y-65279555D01*
X103680277Y-65281053D01*
X104033382Y-65416597D01*
X104398721Y-65514489D01*
X104597158Y-65545918D01*
X104769043Y-65573143D01*
X104769051Y-65573144D01*
X104772291Y-65573657D01*
X105055511Y-65588500D01*
X105244489Y-65588500D01*
X105527709Y-65573657D01*
X105530949Y-65573144D01*
X105530957Y-65573143D01*
X105702842Y-65545918D01*
X105901279Y-65514489D01*
X106266618Y-65416597D01*
X106619723Y-65281053D01*
X106622663Y-65279555D01*
X106953785Y-65110840D01*
X106953792Y-65110836D01*
X106956726Y-65109341D01*
X107273934Y-64903344D01*
X107567871Y-64665318D01*
X107835318Y-64397871D01*
X108073344Y-64103934D01*
X108279341Y-63786726D01*
X108451053Y-63449723D01*
X108586597Y-63096618D01*
X108684489Y-62731279D01*
X108743657Y-62357709D01*
X108763452Y-61980000D01*
X108743657Y-61602291D01*
X108740872Y-61584704D01*
X108698104Y-61314682D01*
X108684489Y-61228721D01*
X108586597Y-60863382D01*
X108451053Y-60510277D01*
X108279341Y-60173274D01*
X108073344Y-59856066D01*
X107835318Y-59562129D01*
X107567871Y-59294682D01*
X107273934Y-59056656D01*
X106956726Y-58850659D01*
X106953792Y-58849164D01*
X106953785Y-58849160D01*
X106622663Y-58680445D01*
X106619723Y-58678947D01*
X106266618Y-58543403D01*
X105901279Y-58445511D01*
X105702842Y-58414082D01*
X105530957Y-58386857D01*
X105530949Y-58386856D01*
X105527709Y-58386343D01*
X105244489Y-58371500D01*
X105055511Y-58371500D01*
X104772291Y-58386343D01*
X104769051Y-58386856D01*
X104769043Y-58386857D01*
X104597158Y-58414082D01*
X104398721Y-58445511D01*
X104033382Y-58543403D01*
X103680277Y-58678947D01*
X103677337Y-58680445D01*
X103346215Y-58849160D01*
X103346208Y-58849164D01*
X103343274Y-58850659D01*
X103026066Y-59056656D01*
X102732129Y-59294682D01*
X102464682Y-59562129D01*
X102226656Y-59856066D01*
X102020659Y-60173274D01*
X101848947Y-60510277D01*
X101713403Y-60863382D01*
X101615511Y-61228721D01*
X101601896Y-61314682D01*
X101559129Y-61584704D01*
X101556343Y-61602291D01*
X101536548Y-61980000D01*
X95510839Y-61980000D01*
X95443344Y-61876066D01*
X95205318Y-61582129D01*
X94937871Y-61314682D01*
X94643934Y-61076656D01*
X94326726Y-60870659D01*
X94323792Y-60869164D01*
X94323785Y-60869160D01*
X93992663Y-60700445D01*
X93989723Y-60698947D01*
X93636618Y-60563403D01*
X93271279Y-60465511D01*
X93072842Y-60434082D01*
X92900957Y-60406857D01*
X92900949Y-60406856D01*
X92897709Y-60406343D01*
X92614489Y-60391500D01*
X92425511Y-60391500D01*
X92142291Y-60406343D01*
X92139051Y-60406856D01*
X92139043Y-60406857D01*
X91967158Y-60434082D01*
X91768721Y-60465511D01*
X91403382Y-60563403D01*
X91050277Y-60698947D01*
X91047337Y-60700445D01*
X90716215Y-60869160D01*
X90716208Y-60869164D01*
X90713274Y-60870659D01*
X90396066Y-61076656D01*
X90102129Y-61314682D01*
X89834682Y-61582129D01*
X89596656Y-61876066D01*
X89390659Y-62193274D01*
X89218947Y-62530277D01*
X89083403Y-62883382D01*
X88985511Y-63248721D01*
X88926343Y-63622291D01*
X88906548Y-64000000D01*
X48840839Y-64000000D01*
X48979341Y-63786726D01*
X49151053Y-63449723D01*
X49286597Y-63096618D01*
X49384489Y-62731279D01*
X49443657Y-62357709D01*
X49463452Y-61980000D01*
X49443657Y-61602291D01*
X49440872Y-61584704D01*
X49398104Y-61314682D01*
X49384489Y-61228721D01*
X49286597Y-60863382D01*
X49151053Y-60510277D01*
X48979341Y-60173274D01*
X48773344Y-59856066D01*
X48535318Y-59562129D01*
X48267871Y-59294682D01*
X47973934Y-59056656D01*
X47656726Y-58850659D01*
X47653792Y-58849164D01*
X47653785Y-58849160D01*
X47322663Y-58680445D01*
X47319723Y-58678947D01*
X46966618Y-58543403D01*
X46601279Y-58445511D01*
X46402842Y-58414082D01*
X46230957Y-58386857D01*
X46230949Y-58386856D01*
X46227709Y-58386343D01*
X45944489Y-58371500D01*
X45755511Y-58371500D01*
X45472291Y-58386343D01*
X45469051Y-58386856D01*
X45469043Y-58386857D01*
X45297158Y-58414082D01*
X45098721Y-58445511D01*
X44733382Y-58543403D01*
X44380277Y-58678947D01*
X44377337Y-58680445D01*
X44046215Y-58849160D01*
X44046208Y-58849164D01*
X44043274Y-58850659D01*
X43726066Y-59056656D01*
X43432129Y-59294682D01*
X43164682Y-59562129D01*
X42926656Y-59856066D01*
X42720659Y-60173274D01*
X42548947Y-60510277D01*
X42413403Y-60863382D01*
X42315511Y-61228721D01*
X42301896Y-61314682D01*
X42259129Y-61584704D01*
X42256343Y-61602291D01*
X42236548Y-61980000D01*
X40508000Y-61980000D01*
X40508000Y-48980000D01*
X42236548Y-48980000D01*
X42256343Y-49357709D01*
X42315511Y-49731279D01*
X42413403Y-50096618D01*
X42548947Y-50449723D01*
X42720659Y-50786726D01*
X42926656Y-51103934D01*
X43164682Y-51397871D01*
X43432129Y-51665318D01*
X43726066Y-51903344D01*
X44043274Y-52109341D01*
X44046208Y-52110836D01*
X44046215Y-52110840D01*
X44377337Y-52279555D01*
X44380277Y-52281053D01*
X44733382Y-52416597D01*
X45098721Y-52514489D01*
X45297158Y-52545918D01*
X45469043Y-52573143D01*
X45469051Y-52573144D01*
X45472291Y-52573657D01*
X45755511Y-52588500D01*
X45944489Y-52588500D01*
X46227709Y-52573657D01*
X46230949Y-52573144D01*
X46230957Y-52573143D01*
X46402842Y-52545918D01*
X46601279Y-52514489D01*
X46966618Y-52416597D01*
X47319723Y-52281053D01*
X47322663Y-52279555D01*
X47653785Y-52110840D01*
X47653792Y-52110836D01*
X47656726Y-52109341D01*
X47973934Y-51903344D01*
X48267871Y-51665318D01*
X48535318Y-51397871D01*
X48773344Y-51103934D01*
X48979341Y-50786726D01*
X49151053Y-50449723D01*
X49286597Y-50096618D01*
X49384489Y-49731279D01*
X49443657Y-49357709D01*
X49463452Y-48980000D01*
X101536548Y-48980000D01*
X101556343Y-49357709D01*
X101615511Y-49731279D01*
X101713403Y-50096618D01*
X101848947Y-50449723D01*
X102020659Y-50786726D01*
X102226656Y-51103934D01*
X102464682Y-51397871D01*
X102732129Y-51665318D01*
X103026066Y-51903344D01*
X103343274Y-52109341D01*
X103346208Y-52110836D01*
X103346215Y-52110840D01*
X103677337Y-52279555D01*
X103680277Y-52281053D01*
X104033382Y-52416597D01*
X104398721Y-52514489D01*
X104597158Y-52545918D01*
X104769043Y-52573143D01*
X104769051Y-52573144D01*
X104772291Y-52573657D01*
X105055511Y-52588500D01*
X105244489Y-52588500D01*
X105527709Y-52573657D01*
X105530949Y-52573144D01*
X105530957Y-52573143D01*
X105702842Y-52545918D01*
X105901279Y-52514489D01*
X106266618Y-52416597D01*
X106619723Y-52281053D01*
X106622663Y-52279555D01*
X106953785Y-52110840D01*
X106953792Y-52110836D01*
X106956726Y-52109341D01*
X107273934Y-51903344D01*
X107567871Y-51665318D01*
X107835318Y-51397871D01*
X108073344Y-51103934D01*
X108279341Y-50786726D01*
X108451053Y-50449723D01*
X108586597Y-50096618D01*
X108684489Y-49731279D01*
X108743657Y-49357709D01*
X108763452Y-48980000D01*
X108743657Y-48602291D01*
X108684489Y-48228721D01*
X108586597Y-47863382D01*
X108451053Y-47510277D01*
X108279341Y-47173274D01*
X108073344Y-46856066D01*
X107835318Y-46562129D01*
X107567871Y-46294682D01*
X107273934Y-46056656D01*
X106956726Y-45850659D01*
X106953792Y-45849164D01*
X106953785Y-45849160D01*
X106622663Y-45680445D01*
X106619723Y-45678947D01*
X106266618Y-45543403D01*
X105901279Y-45445511D01*
X105702842Y-45414082D01*
X105530957Y-45386857D01*
X105530949Y-45386856D01*
X105527709Y-45386343D01*
X105244489Y-45371500D01*
X105055511Y-45371500D01*
X104772291Y-45386343D01*
X104769051Y-45386856D01*
X104769043Y-45386857D01*
X104597158Y-45414082D01*
X104398721Y-45445511D01*
X104033382Y-45543403D01*
X103680277Y-45678947D01*
X103677337Y-45680445D01*
X103346215Y-45849160D01*
X103346208Y-45849164D01*
X103343274Y-45850659D01*
X103026066Y-46056656D01*
X102732129Y-46294682D01*
X102464682Y-46562129D01*
X102226656Y-46856066D01*
X102020659Y-47173274D01*
X101848947Y-47510277D01*
X101713403Y-47863382D01*
X101615511Y-48228721D01*
X101556343Y-48602291D01*
X101536548Y-48980000D01*
X49463452Y-48980000D01*
X49443657Y-48602291D01*
X49384489Y-48228721D01*
X49286597Y-47863382D01*
X49151053Y-47510277D01*
X48979341Y-47173274D01*
X48773344Y-46856066D01*
X48535318Y-46562129D01*
X48267871Y-46294682D01*
X47973934Y-46056656D01*
X47656726Y-45850659D01*
X47653792Y-45849164D01*
X47653785Y-45849160D01*
X47322663Y-45680445D01*
X47319723Y-45678947D01*
X46966618Y-45543403D01*
X46601279Y-45445511D01*
X46402842Y-45414082D01*
X46230957Y-45386857D01*
X46230949Y-45386856D01*
X46227709Y-45386343D01*
X45944489Y-45371500D01*
X45755511Y-45371500D01*
X45472291Y-45386343D01*
X45469051Y-45386856D01*
X45469043Y-45386857D01*
X45297158Y-45414082D01*
X45098721Y-45445511D01*
X44733382Y-45543403D01*
X44380277Y-45678947D01*
X44377337Y-45680445D01*
X44046215Y-45849160D01*
X44046208Y-45849164D01*
X44043274Y-45850659D01*
X43726066Y-46056656D01*
X43432129Y-46294682D01*
X43164682Y-46562129D01*
X42926656Y-46856066D01*
X42720659Y-47173274D01*
X42548947Y-47510277D01*
X42413403Y-47863382D01*
X42315511Y-48228721D01*
X42256343Y-48602291D01*
X42236548Y-48980000D01*
X40508000Y-48980000D01*
X40508000Y-43107655D01*
X50839858Y-43107655D01*
X50875104Y-43366638D01*
X50876412Y-43371124D01*
X50876412Y-43371126D01*
X50896098Y-43438664D01*
X50948243Y-43617567D01*
X51057668Y-43854928D01*
X51060231Y-43858837D01*
X51198410Y-44069596D01*
X51198414Y-44069601D01*
X51200976Y-44073509D01*
X51375018Y-44268506D01*
X51575970Y-44435637D01*
X51579973Y-44438066D01*
X51795422Y-44568804D01*
X51795426Y-44568806D01*
X51799419Y-44571229D01*
X52040455Y-44672303D01*
X52293783Y-44736641D01*
X52298434Y-44737109D01*
X52298438Y-44737110D01*
X52491308Y-44756531D01*
X52510867Y-44758500D01*
X52666354Y-44758500D01*
X52668679Y-44758327D01*
X52668685Y-44758327D01*
X52856000Y-44744407D01*
X52856004Y-44744406D01*
X52860652Y-44744061D01*
X52865200Y-44743032D01*
X52865206Y-44743031D01*
X53051601Y-44700853D01*
X53115577Y-44686377D01*
X53151769Y-44672303D01*
X53354824Y-44593340D01*
X53354827Y-44593339D01*
X53359177Y-44591647D01*
X53586098Y-44461951D01*
X53791357Y-44300138D01*
X53970443Y-44109763D01*
X54119424Y-43895009D01*
X54235025Y-43660593D01*
X54314707Y-43411665D01*
X54356721Y-43153693D01*
X54357324Y-43107655D01*
X96239858Y-43107655D01*
X96275104Y-43366638D01*
X96276412Y-43371124D01*
X96276412Y-43371126D01*
X96296098Y-43438664D01*
X96348243Y-43617567D01*
X96457668Y-43854928D01*
X96460231Y-43858837D01*
X96598410Y-44069596D01*
X96598414Y-44069601D01*
X96600976Y-44073509D01*
X96775018Y-44268506D01*
X96975970Y-44435637D01*
X96979973Y-44438066D01*
X97195422Y-44568804D01*
X97195426Y-44568806D01*
X97199419Y-44571229D01*
X97440455Y-44672303D01*
X97693783Y-44736641D01*
X97698434Y-44737109D01*
X97698438Y-44737110D01*
X97891308Y-44756531D01*
X97910867Y-44758500D01*
X98066354Y-44758500D01*
X98068679Y-44758327D01*
X98068685Y-44758327D01*
X98256000Y-44744407D01*
X98256004Y-44744406D01*
X98260652Y-44744061D01*
X98265200Y-44743032D01*
X98265206Y-44743031D01*
X98451601Y-44700853D01*
X98515577Y-44686377D01*
X98551769Y-44672303D01*
X98754824Y-44593340D01*
X98754827Y-44593339D01*
X98759177Y-44591647D01*
X98986098Y-44461951D01*
X99191357Y-44300138D01*
X99370443Y-44109763D01*
X99519424Y-43895009D01*
X99635025Y-43660593D01*
X99714707Y-43411665D01*
X99756721Y-43153693D01*
X99760142Y-42892345D01*
X99724896Y-42633362D01*
X99710473Y-42583877D01*
X99653068Y-42386932D01*
X99651757Y-42382433D01*
X99542332Y-42145072D01*
X99509519Y-42095024D01*
X99401590Y-41930404D01*
X99401586Y-41930399D01*
X99399024Y-41926491D01*
X99224982Y-41731494D01*
X99024030Y-41564363D01*
X98976844Y-41535730D01*
X98804578Y-41431196D01*
X98804574Y-41431194D01*
X98800581Y-41428771D01*
X98559545Y-41327697D01*
X98306217Y-41263359D01*
X98301566Y-41262891D01*
X98301562Y-41262890D01*
X98092271Y-41241816D01*
X98089133Y-41241500D01*
X97933646Y-41241500D01*
X97931321Y-41241673D01*
X97931315Y-41241673D01*
X97744000Y-41255593D01*
X97743996Y-41255594D01*
X97739348Y-41255939D01*
X97734800Y-41256968D01*
X97734794Y-41256969D01*
X97548399Y-41299147D01*
X97484423Y-41313623D01*
X97480071Y-41315315D01*
X97480069Y-41315316D01*
X97245176Y-41406660D01*
X97245173Y-41406661D01*
X97240823Y-41408353D01*
X97013902Y-41538049D01*
X96808643Y-41699862D01*
X96629557Y-41890237D01*
X96480576Y-42104991D01*
X96364975Y-42339407D01*
X96285293Y-42588335D01*
X96243279Y-42846307D01*
X96239858Y-43107655D01*
X54357324Y-43107655D01*
X54360142Y-42892345D01*
X54324896Y-42633362D01*
X54310473Y-42583877D01*
X54253068Y-42386932D01*
X54251757Y-42382433D01*
X54142332Y-42145072D01*
X54109519Y-42095024D01*
X54001590Y-41930404D01*
X54001586Y-41930399D01*
X53999024Y-41926491D01*
X53824982Y-41731494D01*
X53624030Y-41564363D01*
X53576844Y-41535730D01*
X53404578Y-41431196D01*
X53404574Y-41431194D01*
X53400581Y-41428771D01*
X53159545Y-41327697D01*
X52906217Y-41263359D01*
X52901566Y-41262891D01*
X52901562Y-41262890D01*
X52692271Y-41241816D01*
X52689133Y-41241500D01*
X52533646Y-41241500D01*
X52531321Y-41241673D01*
X52531315Y-41241673D01*
X52344000Y-41255593D01*
X52343996Y-41255594D01*
X52339348Y-41255939D01*
X52334800Y-41256968D01*
X52334794Y-41256969D01*
X52148399Y-41299147D01*
X52084423Y-41313623D01*
X52080071Y-41315315D01*
X52080069Y-41315316D01*
X51845176Y-41406660D01*
X51845173Y-41406661D01*
X51840823Y-41408353D01*
X51613902Y-41538049D01*
X51408643Y-41699862D01*
X51229557Y-41890237D01*
X51080576Y-42104991D01*
X50964975Y-42339407D01*
X50885293Y-42588335D01*
X50843279Y-42846307D01*
X50839858Y-43107655D01*
X40508000Y-43107655D01*
X40508000Y-36051681D01*
X50563860Y-36051681D01*
X50563878Y-36051933D01*
X50569793Y-36060677D01*
X50601111Y-36089174D01*
X50606748Y-36093738D01*
X50882544Y-36291918D01*
X50888682Y-36295813D01*
X51185435Y-36460984D01*
X51191955Y-36464136D01*
X51505738Y-36594109D01*
X51512589Y-36596495D01*
X51839212Y-36689536D01*
X51846301Y-36691120D01*
X52181465Y-36746006D01*
X52188671Y-36746763D01*
X52527926Y-36762762D01*
X52535176Y-36762686D01*
X52874010Y-36739587D01*
X52881219Y-36738676D01*
X53215160Y-36676784D01*
X53222190Y-36675057D01*
X53546819Y-36575187D01*
X53553597Y-36572667D01*
X53864603Y-36436145D01*
X53871043Y-36432864D01*
X54164293Y-36261502D01*
X54170326Y-36257493D01*
X54428828Y-36063405D01*
X54437282Y-36052078D01*
X54437065Y-36051681D01*
X96283860Y-36051681D01*
X96283878Y-36051933D01*
X96289793Y-36060677D01*
X96321111Y-36089174D01*
X96326748Y-36093738D01*
X96602544Y-36291918D01*
X96608682Y-36295813D01*
X96905435Y-36460984D01*
X96911955Y-36464136D01*
X97225738Y-36594109D01*
X97232589Y-36596495D01*
X97559212Y-36689536D01*
X97566301Y-36691120D01*
X97901465Y-36746006D01*
X97908671Y-36746763D01*
X98247926Y-36762762D01*
X98255176Y-36762686D01*
X98594010Y-36739587D01*
X98601219Y-36738676D01*
X98935160Y-36676784D01*
X98942190Y-36675057D01*
X99266819Y-36575187D01*
X99273597Y-36572667D01*
X99584603Y-36436145D01*
X99591043Y-36432864D01*
X99884293Y-36261502D01*
X99890326Y-36257493D01*
X100148828Y-36063405D01*
X100157282Y-36052078D01*
X100150537Y-36039748D01*
X98232810Y-34122020D01*
X98218869Y-34114408D01*
X98217034Y-34114539D01*
X98210420Y-34118790D01*
X96291474Y-36037737D01*
X96283860Y-36051681D01*
X54437065Y-36051681D01*
X54430537Y-36039748D01*
X52512810Y-34122020D01*
X52498869Y-34114408D01*
X52497034Y-34114539D01*
X52490420Y-34118790D01*
X50571474Y-36037737D01*
X50563860Y-36051681D01*
X40508000Y-36051681D01*
X40508000Y-33658987D01*
X49488484Y-33658987D01*
X49497374Y-33998505D01*
X49497980Y-34005721D01*
X49545835Y-34341963D01*
X49547269Y-34349074D01*
X49633455Y-34677595D01*
X49635692Y-34684478D01*
X49759064Y-35000914D01*
X49762081Y-35007503D01*
X49921002Y-35307652D01*
X49924761Y-35313860D01*
X50117129Y-35593757D01*
X50121574Y-35599486D01*
X50188743Y-35676484D01*
X50201917Y-35684888D01*
X50211769Y-35679020D01*
X52127980Y-33762810D01*
X52134357Y-33751131D01*
X52864408Y-33751131D01*
X52864539Y-33752966D01*
X52868790Y-33759580D01*
X54786268Y-35677057D01*
X54799622Y-35684349D01*
X54809594Y-35677295D01*
X54916641Y-35549267D01*
X54920957Y-35543456D01*
X55107432Y-35259575D01*
X55111046Y-35253313D01*
X55263658Y-34949882D01*
X55266530Y-34943244D01*
X55383249Y-34624293D01*
X55385345Y-34617351D01*
X55464631Y-34287103D01*
X55465915Y-34279964D01*
X55506816Y-33941973D01*
X55507240Y-33936403D01*
X55513010Y-33752797D01*
X55512937Y-33747204D01*
X55507850Y-33658987D01*
X95208484Y-33658987D01*
X95217374Y-33998505D01*
X95217980Y-34005721D01*
X95265835Y-34341963D01*
X95267269Y-34349074D01*
X95353455Y-34677595D01*
X95355692Y-34684478D01*
X95479064Y-35000914D01*
X95482081Y-35007503D01*
X95641002Y-35307652D01*
X95644761Y-35313860D01*
X95837129Y-35593757D01*
X95841574Y-35599486D01*
X95908743Y-35676484D01*
X95921917Y-35684888D01*
X95931769Y-35679020D01*
X97847980Y-33762810D01*
X97854357Y-33751131D01*
X98584408Y-33751131D01*
X98584539Y-33752966D01*
X98588790Y-33759580D01*
X100506268Y-35677057D01*
X100519622Y-35684349D01*
X100529594Y-35677295D01*
X100636641Y-35549267D01*
X100640957Y-35543456D01*
X100827432Y-35259575D01*
X100831046Y-35253313D01*
X100983658Y-34949882D01*
X100986530Y-34943244D01*
X101103249Y-34624293D01*
X101105345Y-34617351D01*
X101184631Y-34287103D01*
X101185915Y-34279964D01*
X101226816Y-33941973D01*
X101227240Y-33936403D01*
X101233010Y-33752797D01*
X101232937Y-33747204D01*
X101213338Y-33407303D01*
X101212506Y-33400113D01*
X101154113Y-33065529D01*
X101152458Y-33058474D01*
X101055998Y-32732834D01*
X101053540Y-32726006D01*
X100920290Y-32413608D01*
X100917073Y-32407125D01*
X100748788Y-32112089D01*
X100744856Y-32106034D01*
X100543774Y-31832295D01*
X100539166Y-31826726D01*
X100533830Y-31820984D01*
X100520178Y-31812866D01*
X100519570Y-31812887D01*
X100511092Y-31818119D01*
X98592020Y-33737190D01*
X98584408Y-33751131D01*
X97854357Y-33751131D01*
X97855592Y-33748869D01*
X97855461Y-33747034D01*
X97851210Y-33740420D01*
X95932374Y-31821585D01*
X95919581Y-31814599D01*
X95908827Y-31822464D01*
X95748037Y-32027527D01*
X95743902Y-32033476D01*
X95566440Y-32323068D01*
X95563019Y-32329447D01*
X95420016Y-32637522D01*
X95417356Y-32644241D01*
X95310711Y-32966707D01*
X95308834Y-32973711D01*
X95239961Y-33306288D01*
X95238904Y-33313449D01*
X95208712Y-33651735D01*
X95208484Y-33658987D01*
X55507850Y-33658987D01*
X55493338Y-33407303D01*
X55492506Y-33400113D01*
X55434113Y-33065529D01*
X55432458Y-33058474D01*
X55335998Y-32732834D01*
X55333540Y-32726006D01*
X55200290Y-32413608D01*
X55197073Y-32407125D01*
X55028788Y-32112089D01*
X55024856Y-32106034D01*
X54823774Y-31832295D01*
X54819166Y-31826726D01*
X54813830Y-31820984D01*
X54800178Y-31812866D01*
X54799570Y-31812887D01*
X54791092Y-31818119D01*
X52872020Y-33737190D01*
X52864408Y-33751131D01*
X52134357Y-33751131D01*
X52135592Y-33748869D01*
X52135461Y-33747034D01*
X52131210Y-33740420D01*
X50212374Y-31821585D01*
X50199581Y-31814599D01*
X50188827Y-31822464D01*
X50028037Y-32027527D01*
X50023902Y-32033476D01*
X49846440Y-32323068D01*
X49843019Y-32329447D01*
X49700016Y-32637522D01*
X49697356Y-32644241D01*
X49590711Y-32966707D01*
X49588834Y-32973711D01*
X49519961Y-33306288D01*
X49518904Y-33313449D01*
X49488712Y-33651735D01*
X49488484Y-33658987D01*
X40508000Y-33658987D01*
X40508000Y-31384000D01*
X40528002Y-31315879D01*
X40581658Y-31269386D01*
X40634000Y-31258000D01*
X50458269Y-31258000D01*
X50526390Y-31278002D01*
G37*
G04 #@! TD.AperFunction*
M02*
