M48
; DRILL file {KiCad (6.0.1)} date Wed Mar  8 05:20:47 2023
; FORMAT={-:-/ absolute / inch / decimal}
; #@! TF.CreationDate,2023-03-08T05:20:47-08:00
; #@! TF.GenerationSoftware,Kicad,Pcbnew,(6.0.1)
; #@! TF.FileFunction,NonPlated,1,2,NPTH
FMAT,2
INCH
; #@! TA.AperFunction,NonPlated,NPTH,ComponentDrill
T1C0.0984
; #@! TA.AperFunction,NonPlated,NPTH,ComponentDrill
T2C0.2441
; #@! TA.AperFunction,NonPlated,NPTH,ComponentDrill
T3C0.2520
%
G90
G05
T1
X2.0709Y-1.6929
X2.0709Y-5.7874
X3.8583Y-1.6929
X3.8583Y-5.7874
T2
X1.8051Y-1.9283
X1.8051Y-2.4402
X1.8051Y-2.952
X1.8051Y-3.4638
X1.8051Y-3.9756
X1.8051Y-4.4874
X1.8051Y-4.9992
X1.8051Y-5.511
X3.6425Y-2.5197
X3.6425Y-4.9606
X4.1398Y-1.9283
X4.1398Y-2.4402
X4.1398Y-2.952
X4.1398Y-3.4638
X4.1398Y-3.9756
X4.1398Y-4.4874
X4.1398Y-4.9992
X4.1398Y-5.511
T3
X3.6425Y-4.0307
T0
M30
